<svg xmlns="http://www.w3.org/2000/svg" width="37" height="36" viewBox="0 0 37 36" fill="none">
  <path d="M30.2528 18.3026C30.2528 22.2117 30.2216 26.1211 30.2677 30.0297C30.287 31.6583 29.1138 33.251 27.1031 33.2541C21.3411 33.2625 15.5789 33.2627 9.81688 33.2537C7.97863 33.2508 6.67529 31.99 6.66957 30.1383C6.64763 22.9341 6.65565 15.7296 6.65679 8.52521C6.65698 7.62549 6.59059 6.71256 6.71784 5.82932C6.92101 4.41989 8.19381 3.37938 9.64538 3.37632C13.3461 3.36885 17.0468 3.40256 20.7478 3.40831C22.8821 3.41175 25.0166 3.38092 27.1509 3.38858C28.6561 3.39394 29.7925 4.26033 30.1823 5.66823C30.242 5.88372 30.2498 6.11895 30.25 6.34517C30.254 10.331 30.2528 14.3168 30.2528 18.3026ZM8.15623 18.32C8.15623 22.1908 8.15585 26.0615 8.15643 29.9324C8.15662 31.0836 8.79302 31.7575 9.93229 31.759C15.5989 31.7663 21.2657 31.7657 26.9323 31.7596C28.117 31.7582 28.7706 31.1051 28.7713 29.9268C28.7759 22.1853 28.7757 14.4438 28.7715 6.70203C28.7709 5.53184 28.1012 4.85931 26.9268 4.85797C21.2793 4.85203 15.6315 4.85222 9.98399 4.85816C8.8142 4.85931 8.15662 5.5395 8.15643 6.70758C8.15585 10.5784 8.15623 14.4491 8.15623 18.32Z" fill="#4C4C61"/>
  <path d="M13.1155 23.6976C14.3713 23.6976 15.3671 24.7104 15.3652 25.9857C15.3633 27.2241 14.3109 28.2884 13.0937 28.2824C11.9207 28.2769 10.7496 27.1272 10.8167 25.9647C10.8944 24.618 11.9018 23.6693 13.1155 23.6976ZM13.8761 25.943C13.8662 25.5396 13.5022 25.1958 13.0985 25.2086C12.6596 25.2226 12.3625 25.5337 12.3639 25.9781C12.365 26.4006 12.7 26.7201 13.1311 26.71C13.5419 26.7004 13.886 26.3462 13.8761 25.943Z" fill="#4C4C61"/>
  <path d="M21.8284 9.89663C20.6695 9.89663 19.5103 9.90046 18.3514 9.89223C18.186 9.89108 17.9642 9.88744 17.8673 9.78783C17.6524 9.56697 17.3663 9.28482 17.3657 9.0268C17.3652 8.8249 17.7427 8.45579 17.9649 8.44583C19.6544 8.37074 21.3469 8.35465 23.0384 8.34392C23.931 8.33836 24.824 8.39047 25.717 8.39698C26.1949 8.40043 26.4343 8.68258 26.4528 9.0925C26.4719 9.5164 26.1981 9.79205 25.7609 9.84702C25.5175 9.87767 25.2712 9.89587 25.0261 9.89721C23.9602 9.90257 22.8944 9.89951 21.8286 9.89951C21.8284 9.89855 21.8284 9.89759 21.8284 9.89663Z" fill="#4C4C61"/>
  <path d="M21.8641 17.5036C20.6048 17.5036 19.3456 17.5061 18.0863 17.5025C17.5222 17.5007 17.2189 17.2318 17.2202 16.7518C17.2214 16.3756 17.6292 16.0118 18.0804 16.011C20.618 16.007 23.1554 16.0072 25.693 16.0107C26.1517 16.0112 26.5471 16.3581 26.553 16.7416C26.5603 17.2251 26.2581 17.5009 25.6992 17.5025C24.4208 17.5063 23.1425 17.5036 21.8641 17.5036Z" fill="#4C4C61"/>
  <path d="M21.8713 25.208C20.6525 25.208 19.4338 25.2093 18.2152 25.2076C17.6255 25.2066 17.2222 24.8829 17.2276 24.4211C17.2326 23.9715 17.5914 23.6922 18.1957 23.6909C20.6136 23.6855 23.0316 23.679 25.4494 23.6928C25.7389 23.6945 26.1127 23.7313 26.2922 23.9096C26.4587 24.075 26.5387 24.5126 26.4354 24.7184C26.3204 24.9477 25.9601 25.1768 25.6985 25.1865C24.424 25.2338 23.1472 25.2078 21.8713 25.208Z" fill="#4C4C61"/>
  <path d="M12.6843 18.6549C13.2238 17.9391 13.7349 17.2118 14.3034 16.5329C14.5001 16.2983 14.8324 16.069 15.1159 16.0518C15.3381 16.0382 15.6878 16.3075 15.7885 16.5364C15.9411 16.8835 15.7979 17.2064 15.5006 17.5434C14.7498 18.3944 14.0972 19.3328 13.4049 20.2358C13.0708 20.6716 12.682 20.7545 12.2728 20.4015C11.827 20.0171 11.3751 19.6142 11.0399 19.1384C10.8964 18.9346 10.943 18.4724 11.078 18.2234C11.2763 17.8583 11.6759 17.8613 12.0172 18.0971C12.249 18.2571 12.4525 18.4588 12.6843 18.6549Z" fill="#4C4C61"/>
  <path d="M12.6596 10.9823C13.2362 10.2301 13.7871 9.50892 14.3407 8.79003C14.6072 8.44371 15.1734 8.28932 15.4302 8.48796C15.7219 8.7136 15.681 9.22122 15.3812 9.61255C14.6677 10.5433 13.9725 11.4882 13.2672 12.4253C12.9103 12.8996 12.474 12.949 12.0307 12.5513C11.719 12.2719 11.4154 11.9805 11.1316 11.6729C10.7861 11.2982 10.7741 10.8061 11.0726 10.4983C11.4116 10.1489 11.7619 10.1792 12.2054 10.5906C12.3422 10.7178 12.4881 10.835 12.6596 10.9823Z" fill="#4C4C61"/>
  <path d="M19.0592 19.114C19.4024 19.114 19.7456 19.1148 20.0888 19.1138C20.5705 19.1125 20.7876 19.4337 20.8015 19.8371C20.8158 20.2541 20.5694 20.5809 20.1176 20.5984C19.3942 20.6261 18.6682 20.6265 17.9448 20.5984C17.4919 20.5807 17.2439 20.2413 17.2589 19.8346C17.2734 19.4452 17.4843 19.1064 17.9724 19.1129C18.3349 19.1179 18.6972 19.1138 19.0592 19.114Z" fill="#4C4C61"/>
  <path d="M19.0502 12.9037C18.7085 12.9037 18.3663 12.8899 18.0256 12.907C17.5105 12.9327 17.2867 12.5861 17.2465 12.1822C17.2037 11.7516 17.5288 11.4537 17.9367 11.4259C18.6545 11.3771 19.3793 11.3863 20.0986 11.4209C20.5202 11.4412 20.7971 11.727 20.8316 12.1527C20.8652 12.5664 20.4815 12.8945 20.0179 12.9028C19.6955 12.9083 19.3728 12.9037 19.0502 12.9037Z" fill="#4C4C61"/>
  <path d="M19.0403 26.7227C19.3444 26.7227 19.651 26.6979 19.952 26.7284C20.3988 26.7736 20.7212 27.0393 20.7278 27.4902C20.7349 27.9708 20.4089 28.2627 19.9327 28.2853C19.3265 28.3143 18.7164 28.3125 18.1103 28.2798C17.6626 28.2556 17.3396 27.9781 17.3341 27.5254C17.3281 27.0435 17.6624 26.773 18.1319 26.7259C18.4319 26.6958 18.7376 26.7204 19.0407 26.7204C19.0403 26.7211 19.0403 26.7219 19.0403 26.7227Z" fill="#4C4C61"/>
</svg>