<svg width="44" height="44" viewBox="0 0 44 44" fill="none" xmlns="http://www.w3.org/2000/svg">
<path d="M22.0966 0.959595C-6.13953 1.85365 -6.14625 42.8026 22.0966 43.7009C50.3329 42.8069 50.3397 1.85777 22.0966 0.959595Z" fill="#8BC34A"/>
<path d="M32.6944 16.72L19.421 29.992C19.2939 30.1192 19.143 30.2201 18.9768 30.289C18.8107 30.3578 18.6326 30.3933 18.4528 30.3933C18.273 30.3933 18.0949 30.3578 17.9288 30.289C17.7626 30.2201 17.6117 30.1192 17.4846 29.992L11.5855 24.0929C10.3107 22.8557 12.2839 20.8812 13.5219 22.1565L18.4528 27.0872L30.758 14.7836C31.9958 13.5083 33.9692 15.4828 32.6944 16.72Z" fill="#EEEEEE"/>
</svg>
