<svg width="232" height="231" viewBox="0 0 232 231" fill="none" xmlns="http://www.w3.org/2000/svg">
<g id="17592960_FeedbackS10821 1">
<g id="Group">
<g id="Group_2">
<path id="Vector" d="M90.2504 148.12C121.472 148.12 146.782 123.731 146.782 93.6465C146.782 63.5618 121.472 39.1733 90.2504 39.1733C59.0288 39.1733 33.7188 63.5618 33.7188 93.6465C33.7188 123.731 59.0288 148.12 90.2504 148.12Z" fill="#ECF3FE"/>
<path id="Vector_2" d="M172.731 121.69C186.733 121.69 198.083 110.752 198.083 97.2607C198.083 83.7688 186.733 72.8315 172.731 72.8315C158.729 72.8315 147.379 83.7688 147.379 97.2607C147.379 110.752 158.729 121.69 172.731 121.69Z" fill="#ECF3FE"/>
<path id="Vector_3" d="M143.213 185.77C158.342 185.77 170.606 173.952 170.606 159.374C170.606 144.796 158.342 132.979 143.213 132.979C128.084 132.979 115.82 144.796 115.82 159.374C115.82 173.952 128.084 185.77 143.213 185.77Z" fill="#ECF3FE"/>
<path id="Vector_4" d="M168.387 203.933C182.512 203.933 193.962 202.394 193.962 200.495C193.962 198.597 182.512 197.058 168.387 197.058C154.262 197.058 142.811 198.597 142.811 200.495C142.811 202.394 154.262 203.933 168.387 203.933Z" fill="#B7CAE5"/>
<path id="Vector_5" d="M170.012 125.949C169.735 138.421 165.168 149.901 157.737 158.962C154.83 162.508 151.487 165.681 147.789 168.4C139.132 174.766 128.544 178.634 117.119 178.905C110.578 179.061 104.301 178.038 98.4607 176.063L71.9531 186.705C69.5958 187.65 67.1488 185.561 67.7214 183.087C69.1872 176.765 71.5476 166.515 73.3477 158.375C65.635 148.655 61.1727 136.237 61.6495 122.756C62.6478 94.4915 85.6635 71.5036 113.929 70.5425C145.142 69.4807 170.702 94.8166 170.012 125.949Z" fill="#3B82F4"/>
<path id="Vector_6" d="M173.983 124.321C173.706 136.794 169.138 148.274 161.707 157.334C158.8 160.88 155.457 164.053 151.759 166.773C143.103 173.139 132.514 177.007 121.09 177.278C114.549 177.434 108.271 176.411 102.431 174.436L75.9236 185.077C73.5663 186.023 71.1192 183.933 71.6919 181.46C73.1577 175.137 75.5181 164.888 77.3181 156.748C69.6055 147.028 65.1432 134.61 65.6199 121.128C66.6182 92.8641 89.634 69.8762 117.9 68.915C149.113 67.8533 174.673 93.1892 173.983 124.321Z" fill="#3B82F4"/>
<path id="Vector_7" opacity="0.15" d="M161.707 157.333C158.8 160.88 155.457 164.053 151.76 166.772L148.689 159.883L161.707 157.333Z" fill="#232323"/>
<g id="Group_3">
<path id="Vector_8" d="M152.365 141.333C152.845 143.177 154.953 148.388 154.801 150.524C154.8 150.549 154.798 150.574 154.795 150.598C154.586 152.684 156.773 148.985 156.773 148.985L154.066 139.247C154.066 139.247 153.653 139.288 153.227 139.487C152.67 139.748 152.089 140.278 152.365 141.333Z" fill="#FDC8AA"/>
<path id="Vector_9" d="M152.365 141.333C152.845 143.178 154.953 148.389 154.801 150.525C155.021 150.613 155.213 150.58 155.199 150.182C155.168 149.275 152.856 141.84 152.668 141.035C152.521 140.403 153.011 139.741 153.227 139.488C152.67 139.748 152.089 140.278 152.365 141.333Z" fill="#FFD6BB"/>
<path id="Vector_10" d="M175.745 157.902L178.622 158.946C178.622 158.946 180.141 157.119 181.667 155.203C183.011 153.514 184.36 151.756 184.679 151.119C184.999 150.479 185.011 149.926 184.933 149.519C184.846 149.061 184.646 148.789 184.646 148.789C184.646 148.789 184.454 148.876 184.166 149.005C183.703 149.21 182.994 149.521 182.445 149.74C182.266 149.812 182.105 149.873 181.975 149.918C181.906 149.943 181.846 149.961 181.796 149.976C181.726 149.995 181.593 150.114 181.411 150.309C180.985 150.767 180.297 151.646 179.545 152.648C177.815 154.949 175.745 157.902 175.745 157.902Z" fill="#FDC8AA"/>
<path id="Vector_11" d="M179.545 152.648L179.801 152.805L182.445 149.74C182.266 149.811 182.105 149.873 181.975 149.918C181.906 149.943 181.846 149.961 181.796 149.975C181.726 149.995 181.592 150.114 181.411 150.309C180.985 150.767 180.297 151.646 179.545 152.648Z" fill="#FFD6BB"/>
<path id="Vector_12" d="M181.411 155.242L181.667 155.203C183.011 153.514 184.36 151.756 184.679 151.119C184.999 150.479 185.011 149.926 184.933 149.519C184.846 149.061 184.646 148.789 184.646 148.789C184.646 148.789 184.454 148.876 184.166 149.005C184.289 149.196 184.653 149.827 184.456 150.309C184.221 150.884 181.411 155.242 181.411 155.242Z" fill="#FBB188"/>
<path id="Vector_13" d="M162.428 171.542C162.428 171.542 162.302 172.284 164.27 173.714C166.238 175.143 175.974 178.775 176.981 177.884C177.989 176.994 174.685 173.55 174.076 173.269C173.467 172.987 162.428 171.542 162.428 171.542Z" fill="#E59D29"/>
<path id="Vector_14" d="M178.359 176.707C178.359 176.707 178.344 176.872 178.317 177.153C178.317 177.156 178.316 177.158 178.316 177.161C178.316 177.167 178.314 177.173 178.314 177.179C178.276 177.585 178.218 178.218 178.15 178.945C178.117 179.299 178.082 179.675 178.047 180.058C177.875 181.906 177.687 183.914 177.643 184.359C177.57 185.105 177.811 193.906 177.878 196.303V196.308C177.889 196.685 177.895 196.901 177.895 196.901H175.872C175.872 196.901 173.89 184.254 173.89 184.127C173.89 184.042 173.27 180.011 172.862 177.366C172.806 177 172.753 176.662 172.707 176.363C172.703 176.339 172.7 176.315 172.696 176.29C172.679 176.185 172.664 176.086 172.649 175.992C172.645 175.962 172.64 175.933 172.636 175.904C172.634 175.894 172.633 175.884 172.631 175.874C172.628 175.854 172.625 175.835 172.622 175.815V175.813C172.617 175.785 172.613 175.757 172.609 175.73C172.605 175.703 172.601 175.677 172.597 175.652C172.544 175.307 172.513 175.104 172.513 175.104L173.205 175.294L177.546 176.484L178.359 176.707Z" fill="#FDC8AA"/>
<path id="Vector_15" d="M177.878 196.302C177.811 193.906 177.57 185.105 177.643 184.358C177.696 183.822 177.959 181.006 178.15 178.945C178.218 178.218 178.277 177.585 178.314 177.179L177.411 177.345L176.968 184.218L177.878 196.302Z" fill="#FFD6BB"/>
<path id="Vector_16" d="M172.631 175.874C172.692 176.265 172.773 176.781 172.863 177.366C173.27 180.011 173.891 184.042 173.891 184.127C173.891 184.254 175.872 196.902 175.872 196.902L173.725 176.344L172.631 175.874Z" fill="#FBB188"/>
<path id="Vector_17" opacity="0.5" d="M178.317 177.153C178.317 177.156 178.316 177.158 178.316 177.161C178.316 177.167 178.314 177.174 178.314 177.179C178.276 177.585 178.218 178.218 178.15 178.945C178.117 179.299 178.082 179.675 178.047 180.058C176.082 179.273 173.479 177.841 172.862 177.366C172.806 177 172.753 176.662 172.707 176.363C172.703 176.339 172.7 176.315 172.696 176.291C172.679 176.186 172.664 176.086 172.649 175.992C172.645 175.962 172.64 175.933 172.636 175.905C172.634 175.894 172.633 175.884 172.631 175.874C172.628 175.854 172.625 175.834 172.622 175.815V175.813C172.617 175.785 172.613 175.757 172.609 175.73C172.605 175.703 172.601 175.677 172.597 175.652C172.66 175.509 172.708 175.402 172.724 175.377C172.739 175.355 172.927 175.326 173.205 175.294L177.546 176.484L178.317 177.153Z" fill="#E2906D"/>
<path id="Vector_18" d="M163.14 179.741C163.519 182.861 165.205 197.111 165.205 197.111H167.355C167.355 197.111 167.36 197.023 167.368 196.863V196.862C167.454 195.275 167.934 186.581 168.241 185.012C168.578 183.283 167.735 179.32 167.861 178.645C167.918 178.345 168.249 177.352 168.601 176.343C168.923 175.414 169.261 174.47 169.417 174.039C169.473 173.885 169.505 173.797 169.505 173.797L164.006 171.768L163.721 171.663L163.717 171.661L163.561 171.604C163.561 171.604 163.56 171.609 163.558 171.617C163.555 171.646 163.543 171.725 163.525 171.844C163.497 172.031 163.456 172.322 163.409 172.688C163.198 174.338 162.87 177.521 163.14 179.741Z" fill="#FDC8AA"/>
<path id="Vector_19" d="M163.14 179.742C163.519 182.862 165.205 197.112 165.205 197.112H165.304L163.633 178.023C163.633 178.023 164.383 172.503 164.415 172.378L164.005 171.769L163.853 171.542C163.853 171.542 163.805 171.586 163.721 171.664C163.669 171.712 163.602 171.773 163.525 171.845C163.373 172.879 162.81 177.029 163.14 179.742Z" fill="#FFD6BB"/>
<path id="Vector_20" d="M167.602 184.358L167.368 196.862C167.455 195.275 167.935 186.581 168.241 185.012C168.578 183.283 167.735 179.32 167.861 178.645C167.919 178.346 168.249 177.352 168.601 176.343C168.923 175.414 169.262 174.47 169.417 174.039L168.383 173.596L167.258 178.781L167.602 184.358Z" fill="#FBB188"/>
<path id="Vector_21" opacity="0.5" d="M163.41 172.689L168.601 176.343C169.038 175.084 169.505 173.798 169.505 173.798L164.006 171.769L163.721 171.664L163.717 171.662L163.559 171.618C163.555 171.647 163.543 171.725 163.525 171.844C163.498 172.032 163.457 172.323 163.41 172.689Z" fill="#E2906D"/>
<path id="Vector_22" opacity="0.5" d="M181.411 150.309C181.411 150.309 184.182 149.699 184.933 149.519C184.846 149.061 184.646 148.789 184.646 148.789C184.646 148.789 182.755 149.649 181.975 149.918C181.637 150.152 181.411 150.309 181.411 150.309Z" fill="#E2906D"/>
<path id="Vector_23" d="M162.465 171.31C161.874 172.532 167.735 173.671 169.738 174.808C170.33 175.146 171.268 175.733 172.323 176.324C174.834 177.727 178.01 179.141 178.781 177.211C179.393 175.684 179.047 172.503 178.622 168.387C178.375 166.006 178.102 163.311 177.972 160.443V160.43C177.938 159.701 177.915 158.96 177.904 158.21C177.898 157.866 177.895 157.52 177.895 157.173C177.895 157.083 177.773 154.911 177.775 152.508C177.778 149.641 177.959 146.444 178.739 146.055C178.739 146.055 181.537 149.803 181.411 150.309C181.411 150.309 184.83 149.129 184.766 148.876C184.718 148.684 182.222 143.245 180.32 140.214C179.714 139.248 179.168 138.527 178.781 138.297C178.678 138.236 178.568 138.172 178.452 138.108C176.76 137.159 173.682 135.84 169.738 136.295C169.738 136.295 165.437 135.847 164.725 136.827C164.014 137.807 160.409 142.977 160.346 144.495C160.283 146.013 165.922 153.433 166.007 156.764C166.06 158.874 164.861 163.656 163.826 167.19C163.648 167.796 163.475 168.365 163.314 168.878C162.932 170.095 162.617 170.995 162.465 171.31Z" fill="#F4B545"/>
<path id="Vector_24" d="M171.572 137.096C174.654 136.89 174.417 133.949 174.417 133.949L174.24 131.009L174.221 131.016L170.401 132.306C170.401 132.306 170.423 133.313 170.075 134.337C169.825 135.078 169.382 135.827 168.599 136.211C168.599 136.211 168.489 137.302 171.572 137.096Z" fill="#FDC8AA"/>
<path id="Vector_25" d="M170.075 134.338C173.978 134.171 174.24 132.335 174.24 132.335C174.24 132.335 174.222 131.6 174.22 131.017L170.401 132.306C170.401 132.306 170.423 133.314 170.075 134.338Z" fill="#FBB188"/>
<path id="Vector_26" d="M175.998 138.966C176.147 139.094 177.629 140.96 180.32 140.214C179.715 139.249 179.168 138.527 178.781 138.298C178.678 138.237 178.569 138.173 178.452 138.108C177.227 137.949 176.147 137.886 176.138 137.912C176.115 137.982 175.998 138.966 175.998 138.966Z" fill="#E59D29"/>
<path id="Vector_27" d="M167.964 126.282C167.964 126.282 167.44 122.466 170.623 122.277C173.806 122.087 174.164 120.927 176.526 122.888C178.887 124.848 178.423 125.291 178.444 126.197C178.465 127.104 179.371 131.046 180.151 133.913C180.931 136.78 180.826 140.722 177.39 138.951C173.954 137.18 173.448 137.075 172.815 137.328C172.183 137.581 173.891 129.929 173.891 129.929L173.912 126.556L172.921 125.481L170.771 125.354L168.663 126.071L167.964 126.282Z" fill="#1F3A6F"/>
<path id="Vector_28" d="M171.559 132.982C171.616 132.985 171.673 132.986 171.73 132.984C171.731 132.984 171.732 132.984 171.732 132.984C173.505 132.954 174.992 131.242 175.088 129.067C175.189 126.822 173.77 124.936 171.921 124.853C171.005 124.812 170.154 125.223 169.516 125.92L169.515 125.921C168.869 126.63 168.442 127.637 168.392 128.768C168.291 131.013 169.71 132.899 171.559 132.982Z" fill="#FDC8AA"/>
<path id="Vector_29" d="M160.884 199.869C160.919 200.295 161.242 200.455 161.738 200.464C162.296 200.475 167.725 200.685 167.83 200.264C167.845 200.203 167.865 200.09 167.884 199.941C167.999 199.063 168.096 196.934 167.114 196.901C165.965 196.863 166.272 196.87 166.272 196.87C166.272 196.87 165.016 196.786 165.047 197.218C165.079 197.65 164.932 198.862 163.393 198.914C161.854 198.967 160.926 199.136 160.884 199.695C160.879 199.758 160.879 199.816 160.884 199.869Z" fill="#1F3A6F"/>
<path id="Vector_30" d="M174.722 200.247C174.97 200.579 179.01 200.513 179.214 200.425C179.297 200.388 179.305 200.146 179.249 199.853C179.171 199.433 178.965 198.908 178.672 198.725C178.175 198.415 178.176 196.543 177.385 196.427C177.385 196.427 176.393 196.075 176.031 196.582C175.67 197.09 175.806 198.083 175.354 198.459C175.094 198.676 174.841 199.128 174.721 199.536C174.634 199.834 174.618 200.108 174.722 200.247Z" fill="#1F3A6F"/>
<path id="Vector_31" d="M173.833 129.792C173.833 129.745 174.987 128.923 174.718 127.911C174.449 126.899 173.754 127.626 173.675 127.436C173.596 127.247 172.947 125.919 171.477 126.14C170.007 126.361 168.015 127.861 167.951 126.115C167.888 124.369 172.505 124.164 172.9 124.29C173.295 124.417 177.311 125.84 176.536 128.006C175.762 130.172 174.481 133.761 174.165 133.112C174.074 132.927 173.176 133.423 173.259 132.968C173.444 131.963 173.833 129.792 173.833 129.792Z" fill="#1F3A6F"/>
<path id="Vector_32" d="M178.239 159.163C178.239 159.163 176.538 160.874 175.374 160.815C174.21 160.756 176.849 158.68 176.943 158.726C177.037 158.772 178.239 159.163 178.239 159.163Z" fill="#FDC8AA"/>
<path id="Vector_33" d="M177.775 152.509C177.778 149.642 177.959 146.445 178.739 146.056C178.739 146.056 177.443 145.824 176.443 150.728C175.865 153.559 176.861 153.33 177.775 152.509Z" fill="#E59D29"/>
<path id="Vector_34" d="M163.314 168.879C163.9 169.777 164.901 171.322 164.926 171.43C164.961 171.582 165.547 172.261 166.789 172.191C168.031 172.121 168.452 171.019 168.452 170.949C168.452 170.879 171.459 163.913 172.194 162.21C172.928 160.507 173.896 161.335 173.896 161.335C175.744 162.254 177.207 161.21 177.972 160.444V160.432L177.903 158.211L174.919 157.174L171.077 158.947L163.825 167.191C163.647 167.797 163.475 168.366 163.314 168.879Z" fill="#E59D29"/>
<path id="Vector_35" d="M164.639 141.488L155.072 136.966C154.084 136.498 152.988 137.368 153.219 138.437L155.449 148.781C155.54 149.205 155.417 149.648 155.119 149.964L147.862 157.665C147.112 158.461 147.6 159.772 148.688 159.883L159.215 160.958C159.647 161.003 160.03 161.257 160.238 161.637L165.32 170.919C165.845 171.878 167.243 171.819 167.685 170.819L171.961 161.139C172.136 160.742 172.496 160.457 172.923 160.376L183.32 158.411C184.395 158.208 184.77 156.861 183.955 156.131L176.071 149.073C175.748 148.784 175.587 148.353 175.642 147.923L176.987 137.427C177.126 136.342 175.96 135.569 175.015 136.118L165.866 141.435C165.491 141.654 165.032 141.673 164.639 141.488Z" fill="white"/>
<path id="Vector_36" d="M174.633 160.831C176.37 160.961 176.376 160.026 176.688 159.927C176.837 159.879 176.861 159.73 176.802 159.592C176.738 159.442 176.578 159.303 176.376 159.316C175.99 159.341 175.921 159.297 175.921 159.297C175.921 159.297 176.164 158.493 175.454 158.792C174.743 159.092 174.501 159.634 173.304 159.092C173.218 159.053 173.142 159.027 173.075 159.015C172.227 158.849 173.021 160.709 174.633 160.831Z" fill="#FDC8AA"/>
<path id="Vector_37" d="M153.422 139.408C153.422 139.408 154.381 138.61 154.83 138.781C155.279 138.952 154.156 139.572 154.381 139.936C154.605 140.299 155.215 139.861 155.45 140.257C155.685 140.652 154.53 142.192 154.017 142.341C153.504 142.491 153.422 139.408 153.422 139.408Z" fill="#FDC8AA"/>
<path id="Vector_38" d="M169.454 130.649L171.494 130.746C171.567 130.749 171.61 130.844 171.575 130.923C171.445 131.214 171.104 131.774 170.396 131.761C169.676 131.747 169.429 131.118 169.352 130.81C169.331 130.729 169.385 130.646 169.454 130.649Z" fill="white"/>
</g>
<g id="Group_4">
<path id="Vector_39" opacity="0.15" d="M140.358 88.9444C137.255 85.0336 135.46 80.0374 135.652 74.6138C136.053 63.2423 145.313 53.9935 156.685 53.6067C169.243 53.1796 179.527 63.373 179.249 75.898C178.992 87.4746 169.545 96.9293 157.969 97.2043C155.337 97.2669 152.811 96.8552 150.462 96.0611L139.797 100.342C138.849 100.722 137.864 99.8817 138.095 98.8865C138.684 96.3431 139.634 92.2189 140.358 88.9444Z" fill="#0E50AF"/>
<g id="Group_5">
<path id="Vector_40" d="M137.852 85.7696C134.748 81.8588 132.953 76.8626 133.145 71.4391C133.547 60.0676 142.807 50.8187 154.179 50.4319C166.736 50.0048 177.02 60.1982 176.742 72.7232C176.485 84.2999 167.038 93.7545 155.462 94.0295C152.83 94.0921 150.305 93.6804 147.955 92.8863L137.29 97.1669C136.342 97.5475 135.357 96.7069 135.588 95.7117C136.177 93.1684 137.127 89.0441 137.852 85.7696Z" fill="#F4B545"/>
<path id="Vector_41" d="M151.794 69.0766H142.269C141.451 69.0766 140.789 68.414 140.789 67.5967C140.789 66.7793 141.451 66.1167 142.269 66.1167H151.794C152.611 66.1167 153.274 66.7793 153.274 67.5967C153.274 68.414 152.611 69.0766 151.794 69.0766Z" fill="#E29D2D"/>
<path id="Vector_42" d="M147.976 75.3071H138.45C137.633 75.3071 136.97 74.6445 136.97 73.8271C136.97 73.0098 137.633 72.3472 138.45 72.3472H147.976C148.793 72.3472 149.456 73.0098 149.456 73.8271C149.456 74.6445 148.793 75.3071 147.976 75.3071Z" fill="#FFDCA4"/>
<path id="Vector_43" d="M169.396 75.3071H152.896C152.079 75.3071 151.416 74.6445 151.416 73.8271C151.416 73.0098 152.079 72.3472 152.896 72.3472H169.396C170.213 72.3472 170.876 73.0098 170.876 73.8271C170.876 74.6445 170.213 75.3071 169.396 75.3071Z" fill="#FFDCA4"/>
<path id="Vector_44" d="M167.253 80.8677H143.166C142.349 80.8677 141.687 80.2051 141.687 79.3877C141.687 78.5703 142.349 77.9077 143.166 77.9077H167.253C168.07 77.9077 168.733 78.5703 168.733 79.3877C168.733 80.205 168.07 80.8677 167.253 80.8677Z" fill="#FFDCA4"/>
<path id="Vector_45" d="M161.93 86.4267H150.188C149.371 86.4267 148.708 85.7641 148.708 84.9468C148.708 84.1294 149.371 83.4668 150.188 83.4668H161.93C162.748 83.4668 163.41 84.1294 163.41 84.9468C163.41 85.7641 162.748 86.4267 161.93 86.4267Z" fill="#FFDCA4"/>
</g>
<g id="Group_6">
<path id="Vector_46" d="M179.033 57.0196C179.121 60.9077 177.417 64.4196 174.676 66.7646C172.572 68.564 169.858 69.6767 166.875 69.7448C164.219 69.8053 161.738 69.0294 159.686 67.6571C156.427 65.4807 154.245 61.8024 154.149 57.5869C153.992 50.7155 159.436 45.0183 166.307 44.8617C173.179 44.7051 178.876 50.1482 179.033 57.0196Z" fill="#FFDCA4"/>
<g id="Group_7">
<path id="Vector_47" d="M161.189 51.5053C161.189 51.5053 161.67 49.2055 166.14 49.4676C170.609 49.7297 173.298 51.7778 173.181 56.8135C173.064 61.8491 176.2 63.8221 173.156 64.2029C170.112 64.5836 160.251 66.1149 159.865 64.6672C159.478 63.2195 160.615 60.6253 160.185 57.78C159.754 54.9346 161.189 51.5053 161.189 51.5053Z" fill="#1F3A6F"/>
<path id="Vector_48" d="M174.676 66.7653C172.572 68.5647 169.858 69.6773 166.875 69.7454C164.219 69.8059 161.738 69.03 159.686 67.6578C159.874 66.8777 160.22 66.022 160.824 65.1718C161.413 64.3433 162.247 63.5189 163.419 62.7742C163.459 62.749 163.498 62.724 163.538 62.6992C163.555 62.6885 163.572 62.6783 163.589 62.6681C163.626 62.646 163.662 62.6236 163.699 62.6019C163.768 62.5605 163.838 62.5192 163.91 62.4786C163.941 62.4606 163.972 62.443 164.004 62.4253C164.03 62.411 164.055 62.3966 164.081 62.3827C164.225 62.3031 164.374 62.2245 164.527 62.1474C164.567 62.1276 164.606 62.1079 164.646 62.0884C164.711 62.0563 164.777 62.0245 164.844 61.9926C165.079 61.8815 165.324 61.7732 165.579 61.6682L167.091 61.6338C167.091 61.6338 167.098 61.6352 167.111 61.6381C167.113 61.6384 167.116 61.6391 167.119 61.6398C167.132 61.6427 167.15 61.6466 167.173 61.652C167.178 61.6535 167.185 61.6549 167.192 61.6567C167.217 61.6624 167.247 61.6696 167.281 61.6779C167.288 61.6797 167.296 61.6819 167.304 61.6837C167.327 61.6894 167.351 61.6955 167.377 61.7025C167.385 61.7047 167.392 61.7065 167.4 61.7082C167.416 61.7126 167.433 61.7173 167.451 61.722C167.466 61.7256 167.481 61.7296 167.497 61.734C167.499 61.7347 167.501 61.7355 167.503 61.7358C167.514 61.7387 167.526 61.7415 167.537 61.7448C167.56 61.7514 167.584 61.7579 167.608 61.7649C167.632 61.7714 167.656 61.7784 167.681 61.7852C167.706 61.7925 167.732 61.8002 167.759 61.8078C167.79 61.817 167.822 61.8265 167.855 61.8364C167.877 61.8433 167.9 61.8503 167.924 61.8572C167.999 61.8803 168.078 61.9052 168.161 61.932C168.181 61.9387 168.202 61.9453 168.222 61.9523C168.24 61.9582 168.259 61.9641 168.277 61.9703C168.285 61.9729 168.292 61.9754 168.3 61.9784C168.301 61.9784 168.302 61.9784 168.303 61.9788C168.374 62.0027 168.448 62.0282 168.523 62.0548C168.578 62.074 168.633 62.094 168.69 62.1148L168.733 62.1303C168.985 62.2233 169.258 62.3308 169.544 62.4549C169.576 62.4691 169.609 62.4837 169.643 62.4983C169.729 62.5368 169.817 62.5769 169.907 62.6181C170.767 63.0186 171.716 63.56 172.586 64.2767C173.397 64.945 174.139 65.7652 174.676 66.7653Z" fill="#3B82F4"/>
<path id="Vector_49" d="M169.642 62.4973C166.958 65.3298 164.276 63.3494 163.538 62.6982C163.658 62.6239 163.782 62.5501 163.91 62.4776C164.409 62.1919 164.964 61.9206 165.579 61.6673L167.091 61.6328C167.091 61.6328 167.765 61.7731 168.733 62.1293C169.014 62.233 169.32 62.3548 169.642 62.4973Z" fill="#FDC8AA"/>
<path id="Vector_50" d="M168.733 62.1293C167.958 62.571 166.055 63.403 163.91 62.4776C164.409 62.1919 164.964 61.9206 165.579 61.6673L167.091 61.6328C167.091 61.6328 167.765 61.7731 168.733 62.1293Z" fill="#F4A882"/>
<path id="Vector_51" d="M171.474 56.9416C171.541 59.8474 169.385 62.2533 166.66 62.3154C164.87 62.3562 163.28 61.3759 162.38 59.8751C161.91 59.0907 161.628 58.1639 161.605 57.1665C161.539 54.2607 163.695 51.8549 166.42 51.7927C166.779 51.7845 167.13 51.8174 167.468 51.8872C169.703 52.348 171.417 54.4185 171.474 56.9416Z" fill="#FDC8AA"/>
<path id="Vector_52" d="M165.149 59.9134L168.05 59.759C168.153 59.7535 168.227 59.8814 168.189 59.9989C168.047 60.4291 167.644 61.2695 166.641 61.3519C165.62 61.4357 165.181 60.5811 165.027 60.1556C164.987 60.0441 165.051 59.9186 165.149 59.9134Z" fill="white"/>
<path id="Vector_53" d="M169.379 63.9619C168.211 65.1587 166.679 63.9325 166.679 63.9325C168.084 63.8554 169.229 62.8065 169.543 62.4541C169.576 62.4684 169.609 62.483 169.642 62.4976C169.729 62.5362 169.817 62.5761 169.906 62.6175C170.033 62.8641 170.032 63.2921 169.379 63.9619Z" fill="white"/>
<path id="Vector_54" d="M166.679 63.9322C166.679 63.9322 166.036 64.6406 164.545 64.2496C163.437 63.959 163.377 63.1626 163.419 62.7732C163.458 62.7478 163.498 62.723 163.538 62.6982C163.555 62.6877 163.572 62.6771 163.589 62.667C165.178 64.0458 166.679 63.9322 166.679 63.9322Z" fill="white"/>
<path id="Vector_55" d="M167.468 51.8872L167.509 53.676C167.509 53.676 162.383 54.5155 162.38 59.8751C161.91 59.0906 161.628 58.1639 161.605 57.1665C161.539 54.2607 163.695 51.8549 166.42 51.7927C166.779 51.7846 167.13 51.8175 167.468 51.8872Z" fill="#F4A882"/>
<path id="Vector_56" d="M161.563 58.9119C161.61 58.8127 162.563 54.753 164.107 54.3418C165.651 53.9306 167.98 54.2699 168.392 53.7047C168.804 53.1395 168.505 54.356 170.088 55.6605C171.671 56.965 172.084 56.4487 172.084 56.4487L171.157 53.0695C171.157 53.0695 168.047 51.4892 167.883 51.4603C167.719 51.4313 166.137 50.8625 165.861 50.9669C165.586 51.0712 163.958 51.3699 163.813 51.4877C163.669 51.6054 162.103 52.4912 162.089 52.5896C162.075 52.688 161.627 53.8426 161.618 54.1697C161.609 54.4969 160.989 56.6689 161.074 56.8141C161.159 56.9594 161.563 58.9119 161.563 58.9119Z" fill="#1F3A6F"/>
</g>
</g>
</g>
<path id="Vector_57" opacity="0.15" d="M92.2952 103.174C95.3988 99.2636 97.1936 94.2674 97.002 88.8439C96.6001 77.4723 87.3403 68.2235 75.9683 67.8367C63.4107 67.4096 53.1267 77.6029 53.4047 90.128C53.6616 101.705 63.1087 111.159 74.6849 111.434C77.3168 111.497 79.8425 111.085 82.192 110.291L92.8567 114.572C93.8048 114.952 94.7898 114.112 94.5591 113.117C93.9696 110.573 93.0198 106.449 92.2952 103.174Z" fill="#0E50AF"/>
<g id="Group_8">
<path id="Vector_58" d="M94.0853 100.029C97.1888 96.1186 98.9837 91.1223 98.792 85.6989C98.3902 74.3273 89.1304 65.0785 77.7583 64.6917C65.2008 64.2645 54.9167 74.4579 55.1947 86.983C55.4516 98.5596 64.8987 108.014 76.4749 108.289C79.1068 108.352 81.6325 107.94 83.9821 107.146L94.6467 111.427C95.5948 111.807 96.5798 110.967 96.3491 109.971C95.7597 107.428 94.8099 103.304 94.0853 100.029Z" fill="white"/>
<path id="Vector_59" d="M80.1431 83.3359H89.6687C90.486 83.3359 91.1486 82.6733 91.1486 81.8559C91.1486 81.0386 90.486 80.376 89.6687 80.376H80.1431C79.3257 80.376 78.6631 81.0386 78.6631 81.8559C78.6631 82.6733 79.3257 83.3359 80.1431 83.3359Z" fill="#3B82F4"/>
<path id="Vector_60" d="M83.9607 89.5669H93.4863C94.3037 89.5669 94.9662 88.9043 94.9662 88.0869C94.9662 87.2695 94.3037 86.6069 93.4863 86.6069H83.9607C83.1433 86.6069 82.4807 87.2695 82.4807 88.0869C82.4807 88.9042 83.1433 89.5669 83.9607 89.5669Z" fill="#ECF3FE"/>
<path id="Vector_61" d="M62.541 89.5669H79.0405C79.8579 89.5669 80.5205 88.9043 80.5205 88.0869C80.5205 87.2695 79.8579 86.6069 79.0405 86.6069H62.541C61.7236 86.6069 61.061 87.2695 61.061 88.0869C61.061 88.9042 61.7236 89.5669 62.541 89.5669Z" fill="#ECF3FE"/>
<path id="Vector_62" d="M64.6838 95.1269H88.77C89.5874 95.1269 90.25 94.4643 90.25 93.647C90.25 92.8296 89.5874 92.167 88.77 92.167H64.6838C63.8665 92.167 63.2039 92.8296 63.2039 93.647C63.2039 94.4643 63.8665 95.1269 64.6838 95.1269Z" fill="#ECF3FE"/>
<path id="Vector_63" d="M70.0066 100.686H81.749C82.5664 100.686 83.229 100.023 83.229 99.206C83.229 98.3887 82.5664 97.7261 81.749 97.7261H70.0066C69.1892 97.7261 68.5266 98.3887 68.5266 99.206C68.5266 100.023 69.1892 100.686 70.0066 100.686Z" fill="#ECF3FE"/>
</g>
<g id="Group_9">
<path id="Vector_64" d="M78.6969 70.6297C78.7415 74.9376 76.5811 78.7544 73.2664 81.0072C71.3187 82.3312 68.9724 83.1152 66.441 83.1413C63.8141 83.1685 61.3701 82.3757 59.3514 81.0008C56.1147 78.7973 53.973 75.0982 53.9294 70.8858C53.8587 64.0465 59.346 58.4449 66.1849 58.3742C73.0242 58.3035 78.6262 63.7904 78.6969 70.6297Z" fill="#3B82F4"/>
<g id="Group_10">
<path id="Vector_65" d="M73.2668 81.008C71.3191 82.332 68.9728 83.116 66.4414 83.1422C63.8145 83.1693 61.3705 82.3765 59.3518 81.0016C59.9031 79.6573 61.0903 78.1079 63.5908 76.9481C63.6235 76.9329 63.6571 76.9177 63.6902 76.9028C63.7233 76.8876 63.7568 76.8728 63.7907 76.8576C63.7911 76.8576 63.7915 76.8572 63.7919 76.8572C63.8336 76.8388 63.8753 76.8203 63.9178 76.8023C63.9579 76.7846 63.9984 76.7674 64.0394 76.7505C64.062 76.7409 64.0849 76.7312 64.1079 76.722C64.1157 76.7187 64.1235 76.7156 64.1313 76.7123C64.1352 76.7107 64.1395 76.7087 64.1433 76.7075C64.1757 76.6939 64.208 76.6811 64.2408 76.6678C64.2922 76.6473 64.3441 76.6268 64.3967 76.6063C64.5593 76.5431 64.7269 76.4819 64.8997 76.4218C64.9496 76.4049 64.9996 76.3875 65.0503 76.3706L67.3594 76.3467C67.3594 76.3467 67.3677 76.3501 67.383 76.3566C67.3858 76.3578 67.3889 76.3589 67.3925 76.3604C67.3953 76.3616 67.3984 76.3627 67.4015 76.3642C67.4094 76.3673 67.418 76.3711 67.4275 76.3753C67.4786 76.3971 67.5576 76.4315 67.6599 76.4782C67.728 76.5092 67.8066 76.546 67.8943 76.5881C67.9117 76.5961 67.9297 76.6049 67.9478 76.6138C67.9844 76.6314 68.0222 76.6502 68.0615 76.6693C68.1021 76.6893 68.1445 76.7104 68.1882 76.7326C68.2287 76.7529 68.2701 76.774 68.3126 76.7959C68.3283 76.8043 68.3444 76.8124 68.3609 76.8208C68.4444 76.8642 68.5314 76.9103 68.6223 76.9595C68.6612 76.9802 68.7006 77.0021 68.7407 77.024C70.1032 77.774 72.14 79.1299 73.2668 81.008Z" fill="#F4B545"/>
<path id="Vector_66" d="M68.7402 77.024C66.2219 80.0229 64.1198 77.6543 63.5903 76.9482C63.6562 76.9177 63.7228 76.8877 63.7902 76.8576C64.1786 76.6853 64.5978 76.5224 65.0498 76.3706L67.3589 76.3467C67.3589 76.3467 67.8754 76.5558 68.6217 76.9595C68.6607 76.9802 68.7001 77.0022 68.7402 77.024Z" fill="#FDC8AA"/>
<path id="Vector_67" d="M68.6221 76.9595C65.8331 78.5787 64.1756 77.2357 63.7905 76.8576C64.179 76.6853 64.5981 76.5224 65.0501 76.3706L67.3593 76.3467C67.3593 76.3467 67.8758 76.5558 68.6221 76.9595Z" fill="#F4A882"/>
<path id="Vector_68" d="M70.8569 72.2287C70.8569 72.2287 73.1168 71.2268 72.2842 66.421C71.4517 61.6151 69.3814 62.028 68.3719 62.8213C67.3624 63.6146 62.9359 63.0262 61.1888 64.6569C59.5636 66.1738 59.3577 73.0554 61.552 73.2855C63.7464 73.5157 70.8569 72.2287 70.8569 72.2287Z" fill="#1F3A6F"/>
<path id="Vector_69" d="M71.5994 71.4122C71.6325 74.6101 69.3079 77.2269 66.4074 77.2569C64.1585 77.2801 62.2243 75.7419 61.4529 73.5591C61.2292 72.9265 61.1035 72.2393 61.0961 71.5208C61.0697 68.9702 62.5427 66.7892 64.6122 65.9955C65.137 65.794 65.7006 65.6821 66.2877 65.676C69.1881 65.646 71.5663 68.2142 71.5994 71.4122Z" fill="#FDC8AA"/>
<path id="Vector_70" d="M64.8696 74.4683L68.3447 74.3463C68.4685 74.342 68.555 74.4674 68.5067 74.5815C68.3299 74.9993 67.8331 75.814 66.6306 75.8844C65.4065 75.9561 64.8963 75.1192 64.7194 74.703C64.673 74.594 64.7512 74.4725 64.8696 74.4683Z" fill="white"/>
<path id="Vector_71" d="M61.4529 73.5583C61.2292 72.9257 61.1035 72.2386 61.0961 71.52C61.0697 68.9694 62.5427 66.7884 64.6122 65.9948C65.5913 65.9748 66.2676 65.9624 66.3114 65.9619C66.4797 65.9602 68.4507 67.7967 68.4507 67.7967C68.4507 67.7967 61.1336 67.9585 61.4529 73.5583Z" fill="#F4A882"/>
<path id="Vector_72" d="M60.9417 70.4418C61.0724 70.4666 61.7355 69.3479 63.8632 68.1778C65.9908 67.0076 70.7138 68.4984 71.5847 69.9507C72.4556 71.403 71.7216 66.0351 71.7216 66.0351C71.7216 66.0351 70.7943 64.6877 70.4285 64.6393C70.0626 64.5909 67.3991 64.4097 67.3991 64.4097L64.295 64.5201C64.295 64.5201 62.7624 65.1883 62.6846 65.2413C62.6069 65.2943 61.0612 68.1285 61.0612 68.1285L60.9417 70.4418Z" fill="#1F3A6F"/>
</g>
</g>
<path id="Vector_73" d="M85.7261 120.648L83.8159 116.812C83.6184 116.415 83.052 116.417 82.8574 116.815L80.9744 120.665C80.8971 120.823 80.747 120.933 80.573 120.959L76.3342 121.59C75.8961 121.655 75.723 122.195 76.0412 122.503L79.1207 125.483C79.2471 125.606 79.3052 125.782 79.2761 125.956L78.5666 130.182C78.4933 130.619 78.9527 130.95 79.3441 130.743L83.1302 128.735C83.2857 128.653 83.4717 128.652 83.6276 128.733L87.428 130.714C87.8208 130.919 88.2779 130.584 88.2014 130.148L87.4619 125.927C87.4316 125.753 87.4884 125.576 87.614 125.453L90.6722 122.451C90.9883 122.14 90.8113 121.602 90.3728 121.54L86.1295 120.939C85.9554 120.914 85.8045 120.806 85.7261 120.648Z" fill="white"/>
<path id="Vector_74" d="M103.011 120.648L101.101 116.812C100.904 116.415 100.337 116.417 100.143 116.815L98.2595 120.665C98.1822 120.823 98.0321 120.933 97.8582 120.959L93.6194 121.59C93.1813 121.655 93.0081 122.195 93.3264 122.503L96.4059 125.483C96.5322 125.606 96.5904 125.782 96.5612 125.956L95.8518 130.182C95.7784 130.619 96.2379 130.95 96.6292 130.743L100.415 128.735C100.571 128.653 100.757 128.652 100.913 128.733L104.713 130.714C105.106 130.919 105.563 130.584 105.487 130.148L104.747 125.927C104.717 125.753 104.774 125.576 104.899 125.453L107.957 122.451C108.273 122.14 108.096 121.602 107.658 121.54L103.415 120.939C103.241 120.914 103.09 120.806 103.011 120.648Z" fill="white"/>
<path id="Vector_75" d="M120.297 120.648L118.387 116.812C118.189 116.415 117.623 116.417 117.428 116.815L115.545 120.665C115.468 120.823 115.318 120.933 115.144 120.959L110.905 121.59C110.467 121.655 110.294 122.195 110.612 122.503L113.692 125.483C113.818 125.606 113.876 125.782 113.847 125.956L113.137 130.182C113.064 130.619 113.524 130.95 113.915 130.743L117.701 128.735C117.856 128.653 118.042 128.652 118.198 128.733L121.999 130.714C122.392 130.919 122.849 130.584 122.772 130.148L122.033 125.927C122.002 125.753 122.059 125.576 122.185 125.453L125.243 122.451C125.559 122.14 125.382 121.602 124.944 121.54L120.7 120.939C120.526 120.914 120.375 120.806 120.297 120.648Z" fill="white"/>
<path id="Vector_76" d="M137.582 120.648L135.672 116.812C135.474 116.415 134.908 116.417 134.713 116.815L132.83 120.665C132.753 120.823 132.603 120.933 132.429 120.959L128.19 121.59C127.752 121.655 127.579 122.195 127.897 122.503L130.976 125.483C131.103 125.606 131.161 125.782 131.132 125.956L130.422 130.182C130.349 130.619 130.808 130.95 131.2 130.743L134.986 128.735C135.141 128.653 135.327 128.652 135.483 128.733L139.284 130.714C139.676 130.919 140.134 130.584 140.057 130.148L139.318 125.927C139.287 125.753 139.344 125.576 139.47 125.453L142.528 122.451C142.844 122.14 142.667 121.602 142.228 121.54L137.985 120.939C137.811 120.914 137.66 120.806 137.582 120.648Z" fill="white"/>
<path id="Vector_77" d="M154.868 120.648L152.957 116.812C152.76 116.415 152.193 116.417 151.999 116.815L150.116 120.665C150.038 120.823 149.888 120.933 149.714 120.959L145.476 121.59C145.037 121.655 144.864 122.195 145.183 122.503L148.262 125.483C148.388 125.606 148.447 125.782 148.417 125.956L147.708 130.182C147.635 130.619 148.094 130.95 148.485 130.743L152.272 128.735C152.427 128.653 152.613 128.652 152.769 128.733L156.569 130.714C156.962 130.919 157.419 130.584 157.343 130.148L156.603 125.927C156.573 125.753 156.63 125.576 156.755 125.453L159.813 122.451C160.13 122.14 159.953 121.602 159.514 121.54L155.271 120.939C155.097 120.914 154.946 120.806 154.868 120.648Z" fill="white"/>
<path id="Vector_78" d="M109.983 48.4224C113.207 48.4224 115.82 45.809 115.82 42.5852C115.82 39.3614 113.207 36.748 109.983 36.748C106.759 36.748 104.146 39.3614 104.146 42.5852C104.146 45.809 106.759 48.4224 109.983 48.4224Z" fill="#B7CAE5"/>
<path id="Vector_79" d="M57.3051 117.436C57.8133 115.214 56.4238 113.001 54.2017 112.493C51.9796 111.985 49.7663 113.374 49.2582 115.596C48.75 117.818 50.1395 120.032 52.3616 120.54C54.5837 121.048 56.797 119.658 57.3051 117.436Z" fill="#F4B545"/>
<path id="Vector_80" d="M102.071 185.005C103.396 185.005 104.47 183.931 104.47 182.606C104.47 181.281 103.396 180.207 102.071 180.207C100.746 180.207 99.6716 181.281 99.6716 182.606C99.6716 183.931 100.746 185.005 102.071 185.005Z" fill="#F4B545"/>
<path id="Vector_81" d="M190.024 131.123C191.349 131.123 192.423 130.049 192.423 128.724C192.423 127.399 191.349 126.325 190.024 126.325C188.699 126.325 187.625 127.399 187.625 128.724C187.625 130.049 188.699 131.123 190.024 131.123Z" fill="#B7CAE5"/>
</g>
</g>
</g>
</svg>
