<svg width="812" height="1345" viewBox="0 0 812 1345" fill="none" xmlns="http://www.w3.org/2000/svg">
<g clip-path="url(#clip0_795_40933)">
<g opacity="0.17">
<path opacity="0.0385" d="M701.106 621.131C748.855 621.062 787.539 606.052 787.511 587.606C787.482 569.159 748.751 554.261 701.002 554.33C653.253 554.398 614.568 569.408 614.596 587.855C614.625 606.302 653.357 621.2 701.106 621.131Z" fill="#4A0101"/>
<path opacity="0.0769" d="M701.104 620.248C747.59 620.181 785.253 605.568 785.225 587.609C785.197 569.65 747.489 555.145 701.002 555.212C654.516 555.28 616.854 569.893 616.882 587.852C616.91 605.811 654.617 620.315 701.104 620.248Z" fill="#480202"/>
<path opacity="0.1154" d="M701.102 619.364C746.326 619.299 782.965 605.083 782.938 587.612C782.911 570.141 746.228 556.03 701.004 556.096C655.78 556.161 619.14 570.377 619.167 587.848C619.195 605.319 655.878 619.43 701.102 619.364Z" fill="#460303"/>
<path opacity="0.1538" d="M701.101 618.482C745.062 618.418 780.678 604.599 780.652 587.616C780.626 570.632 744.966 556.916 701.005 556.979C657.043 557.043 621.427 570.862 621.453 587.845C621.48 604.829 657.139 618.545 701.101 618.482Z" fill="#440404"/>
<path opacity="0.1923" d="M701.099 617.599C743.798 617.537 778.391 604.115 778.366 587.619C778.34 571.123 743.705 557.8 701.006 557.862C658.306 557.924 623.713 571.346 623.738 587.842C623.764 604.338 658.399 617.66 701.099 617.599Z" fill="#420505"/>
<path opacity="0.2308" d="M701.098 616.716C742.535 616.656 776.105 603.63 776.08 587.622C776.055 571.614 742.444 558.686 701.008 558.745C659.571 558.805 626 571.831 626.025 587.839C626.05 603.847 659.661 616.776 701.098 616.716Z" fill="#400606"/>
<path opacity="0.2692" d="M701.096 615.833C741.27 615.775 773.818 603.146 773.794 587.626C773.769 572.106 741.182 559.571 701.008 559.629C660.834 559.687 628.286 572.316 628.31 587.836C628.335 603.356 660.922 615.891 701.096 615.833Z" fill="#3E0606"/>
<path opacity="0.3077" d="M701.095 614.95C740.007 614.893 771.532 602.662 771.508 587.629C771.485 572.597 739.922 560.456 701.01 560.512C662.098 560.568 630.573 572.8 630.597 587.833C630.62 602.865 662.183 615.006 701.095 614.95Z" fill="#3C0707"/>
<path opacity="0.3462" d="M701.093 614.066C738.742 614.012 769.245 602.177 769.222 587.632C769.199 573.088 738.66 561.341 701.011 561.395C663.362 561.45 632.86 573.285 632.882 587.829C632.905 602.374 663.444 614.121 701.093 614.066Z" fill="#3A0808"/>
<path opacity="0.3846" d="M701.092 613.184C737.479 613.131 766.958 601.693 766.936 587.636C766.914 573.579 737.399 562.226 701.013 562.278C664.626 562.331 635.147 573.769 635.169 587.826C635.19 601.883 664.705 613.236 701.092 613.184Z" fill="#380909"/>
<path opacity="0.4231" d="M701.09 612.301C736.214 612.25 764.671 601.209 764.65 587.639C764.629 574.07 736.138 563.111 701.014 563.162C665.89 563.212 637.433 574.254 637.454 587.823C637.475 601.392 665.966 612.351 701.09 612.301Z" fill="#360A0A"/>
<path opacity="0.4615" d="M701.088 611.418C734.95 611.369 762.384 600.725 762.363 587.643C762.343 574.561 734.876 563.996 701.014 564.045C667.152 564.094 639.719 574.738 639.739 587.82C639.759 600.902 667.226 611.467 701.088 611.418Z" fill="#340B0B"/>
<path opacity="0.5" d="M701.087 610.535C733.686 610.488 760.097 600.24 760.077 587.646C760.058 575.053 733.615 564.881 701.016 564.928C668.417 564.976 642.006 575.223 642.025 587.817C642.045 600.411 668.488 610.582 701.087 610.535Z" fill="#330C0C"/>
<path opacity="0.5385" d="M701.085 609.652C732.422 609.607 757.81 599.756 757.791 587.65C757.772 575.544 732.353 565.767 701.017 565.812C669.68 565.857 644.292 575.708 644.311 587.814C644.33 599.92 669.749 609.697 701.085 609.652Z" fill="#310D0D"/>
<path opacity="0.5769" d="M701.084 608.769C731.159 608.726 755.524 599.272 755.506 587.653C755.488 576.035 731.093 566.651 701.019 566.695C670.945 566.738 646.579 576.192 646.597 587.81C646.615 599.429 671.01 608.812 701.084 608.769Z" fill="#2F0E0E"/>
<path opacity="0.6154" d="M701.082 607.886C729.894 607.845 753.236 598.788 753.219 587.657C753.202 576.526 729.831 567.537 701.019 567.578C672.208 567.62 648.865 576.677 648.882 587.808C648.9 598.938 672.27 607.928 701.082 607.886Z" fill="#2D0F0F"/>
<path opacity="0.6538" d="M701.081 607.003C728.63 606.964 750.95 598.303 750.933 587.66C750.916 577.017 728.57 568.422 701.021 568.462C673.472 568.501 651.152 577.162 651.169 587.804C651.185 598.447 673.532 607.043 701.081 607.003Z" fill="#2B1010"/>
<path opacity="0.6923" d="M701.079 606.12C727.366 606.082 748.663 597.819 748.647 587.664C748.631 577.508 727.309 569.307 701.022 569.345C674.735 569.383 653.438 577.646 653.454 587.801C653.47 597.956 674.792 606.158 701.079 606.12Z" fill="#291111"/>
<path opacity="0.7308" d="M701.077 605.238C726.102 605.202 746.376 597.335 746.361 587.668C746.345 578 726.047 570.192 701.023 570.229C675.999 570.265 655.725 578.131 655.74 587.799C655.755 597.466 676.053 605.274 701.077 605.238Z" fill="#271212"/>
<path opacity="0.7692" d="M701.076 604.355C724.837 604.32 744.089 596.851 744.074 587.671C744.06 578.491 724.786 571.077 701.024 571.111C677.262 571.146 658.011 578.615 658.025 587.795C658.04 596.975 677.314 604.389 701.076 604.355Z" fill="#251212"/>
<path opacity="0.8077" d="M701.074 603.472C723.574 603.44 741.802 596.367 741.788 587.675C741.775 578.983 723.525 571.963 701.025 571.995C678.526 572.028 660.298 579.101 660.312 587.793C660.325 596.485 678.575 603.505 701.074 603.472Z" fill="#231313"/>
<path opacity="0.8462" d="M701.073 602.589C722.309 602.558 739.515 595.883 739.502 587.678C739.489 579.474 722.263 572.848 701.026 572.879C679.79 572.909 662.584 579.585 662.597 587.789C662.61 595.994 679.836 602.62 701.073 602.589Z" fill="#211414"/>
<path opacity="0.8846" d="M701.071 601.706C721.045 601.678 737.227 595.399 737.215 587.682C737.203 579.966 721.001 573.734 701.027 573.762C681.053 573.791 664.87 580.07 664.882 587.787C664.894 595.503 681.096 601.735 701.071 601.706Z" fill="#1F1515"/>
<path opacity="0.9231" d="M701.069 600.824C719.781 600.797 734.94 594.915 734.929 587.686C734.918 580.457 719.74 574.619 701.028 574.646C682.316 574.673 667.157 580.555 667.168 587.784C667.179 595.013 682.357 600.851 701.069 600.824Z" fill="#1D1616"/>
<path opacity="0.9615" d="M701.067 599.941C718.516 599.916 732.653 594.431 732.643 587.689C732.632 580.948 718.478 575.504 701.029 575.529C683.58 575.554 669.443 581.04 669.453 587.781C669.464 594.522 683.618 599.966 701.067 599.941Z" fill="#1B1717"/>
<path d="M701.065 599.059C717.252 599.036 730.366 593.948 730.356 587.694C730.346 581.441 717.216 576.39 701.03 576.414C684.843 576.437 671.729 581.525 671.738 587.779C671.748 594.032 684.878 599.083 701.065 599.059Z" fill="#191818"/>
</g>
<g opacity="0.17">
<path opacity="0.0385" d="M90.677 665.424C138.426 665.355 177.111 650.345 177.082 631.899C177.053 613.452 138.322 598.554 90.5729 598.623C42.8239 598.692 4.13903 613.702 4.16778 632.148C4.19652 650.595 42.928 665.493 90.677 665.424Z" fill="#4A0101"/>
<path opacity="0.0769" d="M90.6751 664.541C137.162 664.474 174.824 649.861 174.796 631.902C174.768 613.943 137.06 599.439 90.5738 599.506C44.0872 599.573 6.42503 614.186 6.45302 632.145C6.48101 650.104 44.1885 664.608 90.6751 664.541Z" fill="#480202"/>
<path opacity="0.1154" d="M90.6739 663.658C135.898 663.593 172.537 649.377 172.51 631.905C172.483 614.434 135.799 600.324 90.5753 600.389C45.3513 600.454 8.71201 614.671 8.73924 632.142C8.76647 649.613 45.4499 663.723 90.6739 663.658Z" fill="#460303"/>
<path opacity="0.1538" d="M90.6727 662.775C134.634 662.711 170.251 648.892 170.224 631.909C170.198 614.925 134.538 601.209 90.5769 601.273C46.6154 601.336 10.999 615.155 11.0255 632.139C11.0519 649.122 46.7112 662.838 90.6727 662.775Z" fill="#440404"/>
<path opacity="0.1923" d="M90.6709 661.892C133.37 661.83 167.964 648.408 167.938 631.912C167.912 615.416 133.277 602.094 90.5778 602.155C47.8787 602.217 13.285 615.639 13.3107 632.135C13.3364 648.631 47.9718 661.953 90.6709 661.892Z" fill="#420505"/>
<path opacity="0.2308" d="M90.6692 661.009C132.106 660.949 165.677 647.923 165.652 631.915C165.627 615.907 132.016 602.979 90.5789 603.038C49.1423 603.098 15.5715 616.124 15.5964 632.132C15.6214 648.14 49.2326 661.069 90.6692 661.009Z" fill="#400606"/>
<path opacity="0.2692" d="M90.668 660.126C130.842 660.068 163.39 647.439 163.366 631.919C163.342 616.398 130.754 603.864 90.5804 603.922C50.4064 603.98 17.8585 616.608 17.8827 632.129C17.9069 647.649 50.494 660.184 90.668 660.126Z" fill="#3E0606"/>
<path opacity="0.3077" d="M90.6667 659.243C129.578 659.186 161.104 646.955 161.08 631.922C161.057 616.89 129.494 604.749 90.5819 604.805C51.6702 604.861 20.145 617.093 20.1684 632.126C20.1918 647.158 51.755 659.299 90.6667 659.243Z" fill="#3C0707"/>
<path opacity="0.3462" d="M90.665 658.359C128.314 658.305 158.816 646.47 158.794 631.925C158.771 617.38 128.232 605.634 90.5829 605.688C52.9337 605.742 22.4315 617.577 22.4541 632.122C22.4768 646.667 53.0158 658.414 90.665 658.359Z" fill="#3A0808"/>
<path opacity="0.3846" d="M90.6628 657.476C127.049 657.424 156.529 645.986 156.507 631.929C156.485 617.871 126.97 606.518 90.5835 606.571C54.1969 606.623 24.7175 618.062 24.7394 632.119C24.7613 646.176 54.2762 657.529 90.6628 657.476Z" fill="#380909"/>
<path opacity="0.4231" d="M90.6616 656.594C125.786 656.543 154.242 645.502 154.221 631.932C154.2 618.363 125.709 607.404 90.585 607.454C55.461 607.505 27.0044 618.546 27.0256 632.116C27.0467 645.685 55.5376 656.644 90.6616 656.594Z" fill="#360A0A"/>
<path opacity="0.4615" d="M90.6603 655.71C124.522 655.661 151.956 645.017 151.935 631.935C151.915 618.854 124.448 608.288 90.5865 608.337C56.7247 608.386 29.2909 619.031 29.3113 632.112C29.3317 645.194 56.7986 655.759 90.6603 655.71Z" fill="#340B0B"/>
<path opacity="0.5" d="M90.6586 654.827C123.258 654.78 149.669 644.533 149.649 631.939C149.629 619.345 123.187 609.174 90.5875 609.221C57.9884 609.268 31.5774 619.515 31.5971 632.109C31.6167 644.703 58.0594 654.874 90.6586 654.827Z" fill="#330C0C"/>
<path opacity="0.5385" d="M90.6574 653.944C121.994 653.898 147.382 644.048 147.363 631.942C147.344 619.836 121.926 610.058 90.5891 610.104C59.2525 610.149 33.8644 619.999 33.8833 632.106C33.9021 644.212 59.3208 653.989 90.6574 653.944Z" fill="#310D0D"/>
<path opacity="0.5769" d="M90.6556 653.061C120.73 653.018 145.095 643.564 145.077 631.945C145.059 620.327 120.664 610.943 90.59 610.987C60.5158 611.03 36.1504 620.484 36.1685 632.103C36.1866 643.721 60.5813 653.105 90.6556 653.061Z" fill="#2F0E0E"/>
<path opacity="0.6154" d="M90.6534 652.178C119.465 652.136 142.808 643.079 142.79 631.948C142.773 620.818 119.402 611.828 90.5906 611.87C61.7789 611.911 38.4364 620.968 38.4538 632.099C38.4711 643.23 61.8417 652.219 90.6534 652.178Z" fill="#2D0F0F"/>
<path opacity="0.6538" d="M90.6517 651.295C118.201 651.255 140.52 642.595 140.504 631.952C140.487 621.309 118.141 612.714 90.5916 612.753C63.0425 612.793 40.7229 621.453 40.7395 632.096C40.7561 642.739 63.1025 651.335 90.6517 651.295Z" fill="#2B1010"/>
<path opacity="0.6923" d="M90.6509 650.412C116.938 650.374 138.235 642.111 138.219 631.956C138.203 621.8 116.88 613.599 90.5935 613.637C64.3067 613.675 43.0099 621.938 43.0257 632.093C43.0416 642.248 64.3641 650.45 90.6509 650.412Z" fill="#291111"/>
<path opacity="0.7308" d="M90.6492 649.529C115.673 649.493 135.947 641.626 135.932 631.959C135.917 622.291 115.619 614.483 90.5946 614.519C65.5704 614.555 45.2964 622.422 45.3115 632.09C45.3265 641.757 65.6249 649.565 90.6492 649.529Z" fill="#271212"/>
<path opacity="0.7692" d="M90.6475 648.646C114.409 648.612 133.66 641.142 133.646 631.962C133.632 622.782 114.357 615.368 90.5957 615.403C66.834 615.437 47.5829 622.907 47.5972 632.086C47.6115 641.266 66.8858 648.68 90.6475 648.646Z" fill="#251212"/>
<path opacity="0.8077" d="M90.6453 647.763C113.144 647.73 131.373 640.658 131.359 631.966C131.346 623.273 113.095 616.253 90.5962 616.286C68.0971 616.318 49.8689 623.391 49.8824 632.083C49.896 640.775 68.1461 647.795 90.6453 647.763Z" fill="#231313"/>
<path opacity="0.8462" d="M90.644 646.88C111.881 646.849 129.086 640.173 129.073 631.969C129.061 623.765 111.834 617.138 90.5977 617.169C69.3608 617.2 52.1554 623.876 52.1682 632.08C52.181 640.284 69.4071 646.91 90.644 646.88Z" fill="#211414"/>
<path opacity="0.8846" d="M90.6423 645.997C110.617 645.968 126.799 639.689 126.787 631.973C126.775 624.256 110.573 618.024 90.5987 618.053C70.6245 618.082 54.4419 624.36 54.4539 632.077C54.4659 639.794 70.668 646.026 90.6423 645.997Z" fill="#1F1515"/>
<path opacity="0.9231" d="M90.6406 645.114C109.352 645.087 124.512 639.205 124.501 631.976C124.49 624.747 109.312 618.908 90.5998 618.935C71.8881 618.962 56.7284 624.845 56.7396 632.074C56.7509 639.303 71.9289 645.141 90.6406 645.114Z" fill="#1D1616"/>
<path opacity="0.9615" d="M90.6392 644.231C108.089 644.206 122.226 638.721 122.215 631.98C122.205 625.238 108.051 619.794 90.6012 619.819C73.1518 619.844 59.0149 625.33 59.0254 632.071C59.0359 638.812 73.1899 644.256 90.6392 644.231Z" fill="#1B1717"/>
<path d="M90.6366 643.348C106.823 643.325 119.937 638.237 119.928 631.983C119.918 625.73 106.788 620.679 90.6013 620.703C74.4145 620.726 61.3004 625.815 61.3101 632.068C61.3199 638.321 74.4498 643.372 90.6366 643.348Z" fill="#191818"/>
</g>
<g opacity="0.17">
<path opacity="0.0385" d="M201.588 735.675C249.337 735.606 288.022 720.596 287.993 702.149C287.964 683.703 249.233 668.805 201.484 668.873C153.735 668.942 115.05 683.952 115.079 702.399C115.108 720.846 153.839 735.744 201.588 735.675Z" fill="#4A0101"/>
<path opacity="0.0769" d="M201.587 734.792C248.073 734.725 285.735 720.111 285.707 702.152C285.679 684.194 247.972 669.689 201.485 669.756C154.999 669.824 117.337 684.437 117.365 702.396C117.393 720.355 155.1 734.859 201.587 734.792Z" fill="#480202"/>
<path opacity="0.1154" d="M201.585 733.908C246.809 733.843 283.448 719.627 283.421 702.156C283.394 684.685 246.711 670.574 201.486 670.64C156.262 670.705 119.623 684.921 119.65 702.392C119.678 719.863 156.361 733.974 201.585 733.908Z" fill="#460303"/>
<path opacity="0.1538" d="M201.584 733.025C245.546 732.962 281.162 719.143 281.136 702.159C281.109 685.176 245.45 671.46 201.488 671.523C157.527 671.586 121.911 685.406 121.937 702.389C121.964 719.373 157.623 733.089 201.584 733.025Z" fill="#440404"/>
<path opacity="0.1923" d="M201.582 732.142C244.281 732.081 278.875 718.658 278.849 702.162C278.823 685.667 244.188 672.344 201.489 672.406C158.79 672.467 124.196 685.89 124.222 702.386C124.248 718.882 158.883 732.204 201.582 732.142Z" fill="#420505"/>
<path opacity="0.2308" d="M201.581 731.259C243.017 731.199 276.588 718.174 276.563 702.166C276.538 686.158 242.927 673.229 201.49 673.289C160.054 673.349 126.483 686.374 126.508 702.382C126.533 718.39 160.144 731.319 201.581 731.259Z" fill="#400606"/>
<path opacity="0.2692" d="M201.58 730.376C241.754 730.318 274.302 717.689 274.278 702.169C274.254 686.649 241.667 674.114 201.493 674.172C161.318 674.23 128.771 686.859 128.795 702.379C128.819 717.899 161.406 730.434 201.58 730.376Z" fill="#3E0606"/>
<path opacity="0.3077" d="M201.577 729.493C240.489 729.437 272.014 717.205 271.991 702.173C271.967 687.14 240.404 674.999 201.493 675.056C162.581 675.112 131.056 687.343 131.079 702.376C131.102 717.409 162.666 729.549 201.577 729.493Z" fill="#3C0707"/>
<path opacity="0.3462" d="M201.577 728.61C239.226 728.556 269.728 716.721 269.705 702.176C269.683 687.631 239.144 675.884 201.495 675.939C163.845 675.993 133.343 687.828 133.366 702.373C133.388 716.917 163.927 728.664 201.577 728.61Z" fill="#3A0808"/>
<path opacity="0.3846" d="M201.574 727.727C237.961 727.674 267.44 716.236 267.419 702.179C267.397 688.122 237.882 676.769 201.495 676.821C165.109 676.874 135.629 688.312 135.651 702.369C135.673 716.426 165.188 727.779 201.574 727.727Z" fill="#380909"/>
<path opacity="0.4231" d="M201.573 726.844C236.697 726.794 265.154 715.752 265.133 702.183C265.112 688.613 236.621 677.654 201.497 677.705C166.373 677.756 137.916 688.797 137.937 702.366C137.958 715.936 166.449 726.895 201.573 726.844Z" fill="#360A0A"/>
<path opacity="0.4615" d="M201.571 725.961C235.433 725.912 262.867 715.268 262.847 702.186C262.826 689.104 235.359 678.539 201.498 678.588C167.636 678.637 140.202 689.282 140.222 702.363C140.243 715.445 167.71 726.01 201.571 725.961Z" fill="#340B0B"/>
<path opacity="0.5" d="M201.57 725.078C234.169 725.031 260.58 714.783 260.56 702.189C260.541 689.596 234.098 679.424 201.499 679.471C168.9 679.518 142.489 689.766 142.508 702.36C142.528 714.954 168.971 725.125 201.57 725.078Z" fill="#330C0C"/>
<path opacity="0.5385" d="M201.568 724.194C232.905 724.149 258.293 714.299 258.274 702.192C258.255 690.086 232.836 680.309 201.5 680.354C170.163 680.4 144.775 690.25 144.794 702.356C144.813 714.462 170.231 724.24 201.568 724.194Z" fill="#310D0D"/>
<path opacity="0.5769" d="M201.566 723.312C231.64 723.268 256.006 713.815 255.988 702.196C255.97 690.578 231.575 681.194 201.501 681.238C171.426 681.281 147.061 690.735 147.079 702.353C147.097 713.972 171.492 723.355 201.566 723.312Z" fill="#2F0E0E"/>
<path opacity="0.6154" d="M201.565 722.429C230.377 722.387 253.719 713.33 253.702 702.199C253.684 691.069 230.314 682.079 201.502 682.121C172.69 682.162 149.348 691.219 149.365 702.35C149.383 713.481 172.753 722.47 201.565 722.429Z" fill="#2D0F0F"/>
<path opacity="0.6538" d="M201.563 721.546C229.112 721.506 251.432 712.846 251.415 702.203C251.399 691.56 229.052 682.965 201.503 683.004C173.954 683.044 151.635 691.704 151.651 702.347C151.668 712.99 174.014 721.586 201.563 721.546Z" fill="#2B1010"/>
<path opacity="0.6923" d="M201.561 720.663C227.848 720.625 249.145 712.362 249.129 702.206C249.113 692.051 227.791 683.85 201.504 683.888C175.217 683.926 153.921 692.189 153.936 702.344C153.952 712.499 175.275 720.701 201.561 720.663Z" fill="#291111"/>
<path opacity="0.7308" d="M201.56 719.78C226.584 719.744 246.858 711.877 246.843 702.21C246.828 692.542 226.53 684.734 201.505 684.771C176.481 684.807 156.207 692.673 156.222 702.341C156.237 712.008 176.536 719.816 201.56 719.78Z" fill="#271212"/>
<path opacity="0.7692" d="M201.559 718.897C225.321 718.862 244.572 711.393 244.558 702.213C244.543 693.033 225.269 685.619 201.507 685.653C177.746 685.688 158.495 693.157 158.509 702.337C158.523 711.517 177.797 718.931 201.559 718.897Z" fill="#251212"/>
<path opacity="0.8077" d="M201.557 718.013C224.056 717.981 242.284 710.908 242.271 702.216C242.257 693.524 224.007 686.504 201.508 686.537C179.009 686.569 160.781 693.642 160.794 702.334C160.808 711.026 179.058 718.046 201.557 718.013Z" fill="#231313"/>
<path opacity="0.8462" d="M201.555 717.131C222.791 717.1 239.997 710.425 239.984 702.22C239.971 694.016 222.745 687.39 201.508 687.421C180.272 687.451 163.066 694.127 163.079 702.331C163.092 710.536 180.318 717.162 201.555 717.131Z" fill="#211414"/>
<path opacity="0.8846" d="M201.553 716.248C221.527 716.219 237.71 709.94 237.698 702.223C237.686 694.507 221.484 688.275 201.509 688.303C181.535 688.332 165.353 694.611 165.365 702.328C165.377 710.044 181.579 716.276 201.553 716.248Z" fill="#1F1515"/>
<path opacity="0.9231" d="M201.551 715.365C220.263 715.338 235.423 709.456 235.411 702.227C235.4 694.998 220.222 689.16 201.51 689.187C182.799 689.214 167.639 695.096 167.65 702.325C167.662 709.554 182.84 715.392 201.551 715.365Z" fill="#1D1616"/>
<path opacity="0.9615" d="M201.549 714.482C218.999 714.457 233.136 708.971 233.125 702.23C233.115 695.489 218.961 690.045 201.511 690.07C184.062 690.095 169.925 695.58 169.936 702.321C169.946 709.063 184.1 714.507 201.549 714.482Z" fill="#1B1717"/>
<path d="M201.547 713.599C217.734 713.576 230.848 708.488 230.838 702.234C230.829 695.981 217.699 690.93 201.512 690.954C185.325 690.977 172.211 696.065 172.221 702.319C172.231 708.572 185.36 713.623 201.547 713.599Z" fill="#191818"/>
</g>
<g opacity="0.17">
<path opacity="0.0385" d="M254.897 546.432C325.268 546.33 382.281 524.207 382.239 497.019C382.196 469.831 325.115 447.873 254.743 447.975C184.372 448.077 127.36 470.199 127.402 497.387C127.444 524.575 184.526 546.533 254.897 546.432Z" fill="#4A0101"/>
<path opacity="0.0769" d="M254.895 545.13C323.405 545.031 378.911 523.494 378.869 497.024C378.828 470.555 323.256 449.178 254.745 449.277C186.235 449.376 130.73 470.913 130.771 497.383C130.812 523.852 186.384 545.229 254.895 545.13Z" fill="#480202"/>
<path opacity="0.1154" d="M254.893 543.829C321.543 543.732 375.54 522.779 375.5 497.029C375.46 471.279 321.397 450.482 254.747 450.578C188.097 450.674 134.099 471.627 134.14 497.377C134.18 523.128 188.243 543.925 254.893 543.829Z" fill="#460303"/>
<path opacity="0.1538" d="M254.891 542.527C319.68 542.433 372.17 522.065 372.131 497.034C372.092 472.002 319.539 451.786 254.749 451.88C189.96 451.973 137.47 472.341 137.509 497.373C137.548 522.404 190.101 542.62 254.891 542.527Z" fill="#440404"/>
<path opacity="0.1923" d="M254.888 541.226C317.817 541.135 368.8 521.352 368.762 497.039C368.724 472.726 317.68 453.091 254.751 453.182C191.822 453.273 140.839 473.055 140.877 497.368C140.915 521.681 191.96 541.316 254.888 541.226Z" fill="#420505"/>
<path opacity="0.2308" d="M254.886 539.924C315.954 539.836 365.429 520.638 365.393 497.044C365.356 473.45 315.821 454.395 254.753 454.483C193.685 454.571 144.209 473.769 144.246 497.363C144.283 520.957 193.818 540.012 254.886 539.924Z" fill="#400606"/>
<path opacity="0.2692" d="M254.884 538.622C314.091 538.537 362.06 519.924 362.024 497.049C361.988 474.174 313.962 455.699 254.755 455.785C195.547 455.87 147.579 474.483 147.615 497.358C147.65 520.233 195.677 538.708 254.884 538.622Z" fill="#3E0606"/>
<path opacity="0.3077" d="M254.882 537.321C312.229 537.238 358.689 519.21 358.655 497.054C358.62 474.898 312.104 457.004 254.757 457.087C197.41 457.169 150.949 475.198 150.984 497.354C151.018 519.51 197.535 537.404 254.882 537.321Z" fill="#3C0707"/>
<path opacity="0.3462" d="M254.88 536.019C310.366 535.939 355.319 518.496 355.286 497.059C355.252 475.621 310.245 458.308 254.759 458.388C199.272 458.468 154.319 475.912 154.352 497.349C154.386 518.786 199.393 536.1 254.88 536.019Z" fill="#3A0808"/>
<path opacity="0.3846" d="M254.878 534.718C308.503 534.641 351.949 517.783 351.917 497.064C351.884 476.346 308.386 459.613 254.761 459.69C201.135 459.768 157.689 476.626 157.722 497.344C157.754 518.063 201.252 534.796 254.878 534.718Z" fill="#380909"/>
<path opacity="0.4231" d="M254.875 533.416C306.64 533.342 348.579 517.068 348.548 497.069C348.517 477.069 306.527 460.917 254.762 460.992C202.997 461.067 161.059 477.34 161.09 497.339C161.121 517.339 203.11 533.491 254.875 533.416Z" fill="#360A0A"/>
<path opacity="0.4615" d="M254.873 532.115C304.778 532.043 345.209 516.355 345.179 497.074C345.148 477.793 304.669 462.222 254.764 462.294C204.86 462.366 164.429 478.054 164.459 497.335C164.489 516.616 204.969 532.187 254.873 532.115Z" fill="#340B0B"/>
<path opacity="0.5" d="M254.871 530.814C302.915 530.744 341.838 515.641 341.81 497.079C341.781 478.517 302.81 463.526 254.766 463.595C206.723 463.664 167.799 478.768 167.828 497.33C167.857 515.892 206.827 530.883 254.871 530.814Z" fill="#330C0C"/>
<path opacity="0.5385" d="M254.869 529.512C301.052 529.445 338.468 514.927 338.44 497.084C338.413 479.241 300.951 464.83 254.768 464.897C208.585 464.964 171.169 479.482 171.197 497.325C171.225 515.168 208.686 529.578 254.869 529.512Z" fill="#310D0D"/>
<path opacity="0.5769" d="M254.866 528.21C299.189 528.146 335.098 514.213 335.071 497.089C335.044 479.965 299.092 466.135 254.77 466.199C210.447 466.263 174.538 480.196 174.565 497.32C174.592 514.445 210.544 528.274 254.866 528.21Z" fill="#2F0E0E"/>
<path opacity="0.6154" d="M254.864 526.909C297.326 526.848 331.727 513.499 331.702 497.094C331.676 480.688 297.233 467.439 254.772 467.5C212.31 467.561 177.908 480.91 177.934 497.316C177.96 513.721 212.402 526.97 254.864 526.909Z" fill="#2D0F0F"/>
<path opacity="0.6538" d="M254.862 525.608C295.464 525.549 328.358 512.785 328.333 497.099C328.309 481.412 295.375 468.744 254.774 468.802C214.173 468.861 181.279 481.625 181.303 497.311C181.327 512.997 214.261 525.666 254.862 525.608Z" fill="#2B1010"/>
<path opacity="0.6923" d="M254.859 524.306C293.6 524.25 324.986 512.071 324.963 497.103C324.94 482.136 293.515 470.048 254.775 470.104C216.034 470.159 184.648 482.338 184.671 497.306C184.694 512.273 216.119 524.362 254.859 524.306Z" fill="#291111"/>
<path opacity="0.7308" d="M254.857 523.004C291.737 522.951 321.616 511.357 321.594 497.108C321.572 482.86 291.657 471.352 254.777 471.405C217.897 471.458 188.018 483.052 188.04 497.301C188.062 511.55 217.977 523.057 254.857 523.004Z" fill="#271212"/>
<path opacity="0.7692" d="M254.855 521.703C289.874 521.653 318.246 510.644 318.225 497.114C318.204 483.584 289.798 472.656 254.779 472.707C219.759 472.758 191.388 483.767 191.409 497.297C191.43 510.827 219.836 521.754 254.855 521.703Z" fill="#251212"/>
<path opacity="0.8077" d="M254.852 520.401C288.011 520.353 314.875 509.929 314.855 497.118C314.835 484.307 287.939 473.961 254.78 474.009C221.621 474.057 194.757 484.481 194.777 497.292C194.797 510.103 221.693 520.449 254.852 520.401Z" fill="#231313"/>
<path opacity="0.8462" d="M254.85 519.1C286.148 519.055 311.505 509.216 311.486 497.124C311.467 485.032 286.08 475.266 254.781 475.311C223.483 475.356 198.127 485.195 198.145 497.287C198.164 509.38 223.552 519.146 254.85 519.1Z" fill="#211414"/>
<path opacity="0.8846" d="M254.847 517.799C284.285 517.757 308.135 508.502 308.117 497.129C308.099 485.755 284.221 476.57 254.783 476.612C225.346 476.655 201.496 485.909 201.514 497.283C201.532 508.656 225.41 517.842 254.847 517.799Z" fill="#1F1515"/>
<path opacity="0.9231" d="M254.844 516.497C282.421 516.457 304.763 507.788 304.747 497.134C304.73 486.479 282.361 477.874 254.784 477.914C227.207 477.954 204.866 486.623 204.882 497.278C204.899 507.932 227.268 516.537 254.844 516.497Z" fill="#1D1616"/>
<path opacity="0.9615" d="M254.843 515.196C280.559 515.159 301.394 507.075 301.378 497.139C301.363 487.204 280.503 479.179 254.787 479.216C229.07 479.254 208.236 487.338 208.251 497.274C208.267 507.209 229.126 515.233 254.843 515.196Z" fill="#1B1717"/>
<path d="M254.841 513.895C278.696 513.86 298.023 506.361 298.009 497.144C297.995 487.927 278.644 480.484 254.789 480.518C230.933 480.552 211.606 488.052 211.62 497.269C211.635 506.486 230.985 513.929 254.841 513.895Z" fill="#191818"/>
</g>
<g opacity="0.17">
<path opacity="0.0385" d="M396.073 731.787C466.444 731.685 523.457 709.562 523.415 682.374C523.372 655.186 466.291 633.228 395.92 633.33C325.549 633.432 268.536 655.554 268.578 682.742C268.621 709.93 325.702 731.888 396.073 731.787Z" fill="#4A0101"/>
<path opacity="0.0769" d="M396.07 730.485C464.581 730.386 520.086 708.849 520.045 682.379C520.003 655.91 464.431 634.533 395.921 634.632C327.41 634.731 271.905 656.268 271.946 682.738C271.988 709.207 327.56 730.584 396.07 730.485Z" fill="#480202"/>
<path opacity="0.1154" d="M396.068 729.184C462.718 729.088 516.716 708.135 516.676 682.384C516.636 656.634 462.573 635.837 395.923 635.933C329.273 636.029 275.275 656.982 275.315 682.733C275.355 708.483 329.418 729.28 396.068 729.184Z" fill="#460303"/>
<path opacity="0.1538" d="M396.066 727.882C460.856 727.788 513.346 707.42 513.307 682.389C513.268 657.357 460.714 637.141 395.925 637.235C331.136 637.328 278.645 657.696 278.684 682.728C278.723 707.759 331.277 727.975 396.066 727.882Z" fill="#440404"/>
<path opacity="0.1923" d="M396.065 726.58C458.993 726.489 509.976 706.706 509.938 682.394C509.901 658.081 458.856 638.445 395.927 638.536C332.999 638.627 282.016 658.41 282.053 682.723C282.091 707.035 333.136 726.671 396.065 726.58Z" fill="#420505"/>
<path opacity="0.2308" d="M396.062 725.279C457.13 725.191 506.606 705.993 506.569 682.399C506.532 658.805 456.997 639.75 395.929 639.838C334.861 639.926 285.385 659.124 285.422 682.718C285.459 706.312 334.994 725.367 396.062 725.279Z" fill="#400606"/>
<path opacity="0.2692" d="M396.059 723.977C455.267 723.892 503.235 705.279 503.199 682.404C503.164 659.529 455.138 641.054 395.93 641.14C336.723 641.225 288.754 659.838 288.79 682.713C288.826 705.588 336.852 724.063 396.059 723.977Z" fill="#3E0606"/>
<path opacity="0.3077" d="M396.058 722.676C453.404 722.593 499.865 704.565 499.831 682.409C499.796 660.253 453.279 642.359 395.933 642.442C338.586 642.524 292.125 660.553 292.16 682.709C292.194 704.865 338.711 722.759 396.058 722.676Z" fill="#3C0707"/>
<path opacity="0.3462" d="M396.055 721.374C451.542 721.294 496.495 703.851 496.462 682.413C496.428 660.976 451.421 643.663 395.934 643.743C340.448 643.823 295.495 661.266 295.528 682.704C295.562 704.141 340.569 721.454 396.055 721.374Z" fill="#3A0808"/>
<path opacity="0.3846" d="M396.053 720.073C449.679 719.995 493.125 703.137 493.092 682.418C493.06 661.7 449.562 644.967 395.936 645.044C342.311 645.122 298.865 661.98 298.897 682.699C298.93 703.417 342.428 720.15 396.053 720.073Z" fill="#380909"/>
<path opacity="0.4231" d="M396.051 718.771C447.816 718.696 489.755 702.423 489.723 682.424C489.692 662.424 447.703 646.272 395.938 646.347C344.173 646.421 302.235 662.695 302.266 682.694C302.297 702.694 344.286 718.846 396.051 718.771Z" fill="#360A0A"/>
<path opacity="0.4615" d="M396.049 717.47C445.953 717.398 486.384 701.709 486.354 682.428C486.324 663.148 445.844 647.576 395.94 647.648C346.036 647.72 305.604 663.409 305.634 682.689C305.665 701.97 346.144 717.542 396.049 717.47Z" fill="#340B0B"/>
<path opacity="0.5" d="M396.047 716.168C444.091 716.099 483.014 700.995 482.985 682.434C482.956 663.872 443.986 648.88 395.942 648.95C347.898 649.019 308.975 664.123 309.004 682.685C309.032 701.247 348.003 716.238 396.047 716.168Z" fill="#330C0C"/>
<path opacity="0.5385" d="M396.044 714.867C442.227 714.8 479.643 700.281 479.616 682.439C479.588 664.596 442.127 650.185 395.944 650.252C349.761 650.319 312.344 664.837 312.372 682.68C312.4 700.523 349.861 714.933 396.044 714.867Z" fill="#310D0D"/>
<path opacity="0.5769" d="M396.042 713.565C440.364 713.501 476.273 699.568 476.246 682.443C476.22 665.319 440.267 651.489 395.945 651.553C351.622 651.617 315.714 665.551 315.74 682.675C315.767 699.799 351.719 713.629 396.042 713.565Z" fill="#2F0E0E"/>
<path opacity="0.6154" d="M396.039 712.264C438.501 712.203 472.903 698.854 472.877 682.448C472.852 666.043 438.409 652.794 395.947 652.855C353.485 652.916 319.084 666.265 319.109 682.67C319.135 699.076 353.578 712.325 396.039 712.264Z" fill="#2D0F0F"/>
<path opacity="0.6538" d="M396.037 710.962C436.638 710.903 469.532 698.14 469.508 682.453C469.484 666.767 436.55 654.098 395.949 654.157C355.347 654.215 322.453 666.979 322.478 682.666C322.502 698.352 355.436 711.021 396.037 710.962Z" fill="#2B1010"/>
<path opacity="0.6923" d="M396.035 709.661C434.776 709.605 466.162 697.426 466.139 682.458C466.116 667.491 434.691 655.403 395.951 655.459C357.21 655.514 325.824 667.693 325.847 682.661C325.87 697.628 357.295 709.717 396.035 709.661Z" fill="#291111"/>
<path opacity="0.7308" d="M396.032 708.36C432.912 708.307 462.792 696.712 462.769 682.464C462.747 668.215 432.832 656.707 395.952 656.761C359.072 656.814 329.193 668.408 329.215 682.657C329.237 696.905 359.152 708.413 396.032 708.36Z" fill="#271212"/>
<path opacity="0.7692" d="M396.03 707.058C431.05 707.008 459.421 695.998 459.4 682.469C459.379 668.939 430.973 658.011 395.954 658.062C360.935 658.113 332.563 669.122 332.584 682.652C332.605 696.182 361.011 707.109 396.03 707.058Z" fill="#251212"/>
<path opacity="0.8077" d="M396.028 705.757C429.187 705.709 456.051 695.285 456.031 682.474C456.011 669.663 429.115 659.316 395.956 659.364C362.797 659.412 335.933 669.836 335.953 682.647C335.973 695.458 362.869 705.805 396.028 705.757Z" fill="#231313"/>
<path opacity="0.8462" d="M396.025 704.456C427.323 704.41 452.68 694.571 452.661 682.479C452.642 670.387 427.255 660.621 395.957 660.666C364.659 660.711 339.302 670.55 339.321 682.643C339.34 694.735 364.727 704.501 396.025 704.456Z" fill="#211414"/>
<path opacity="0.8846" d="M396.023 703.154C425.46 703.111 449.31 693.857 449.292 682.484C449.274 671.11 425.396 661.925 395.959 661.967C366.521 662.01 342.672 671.264 342.689 682.638C342.707 694.011 366.585 703.196 396.023 703.154Z" fill="#1F1515"/>
<path opacity="0.9231" d="M396.021 701.852C423.598 701.813 445.94 693.143 445.923 682.489C445.906 671.834 423.537 663.23 395.961 663.269C368.384 663.309 346.042 671.979 346.058 682.633C346.075 693.287 368.444 701.892 396.021 701.852Z" fill="#1D1616"/>
<path opacity="0.9615" d="M396.017 700.552C421.734 700.514 442.568 692.43 442.553 682.494C442.537 672.559 421.678 664.535 395.961 664.572C370.245 664.609 349.411 672.693 349.426 682.629C349.441 692.564 370.301 700.589 396.017 700.552Z" fill="#1B1717"/>
<path d="M396.015 699.251C419.871 699.216 439.198 691.716 439.184 682.5C439.169 673.283 419.819 665.839 395.963 665.874C372.108 665.908 352.781 673.408 352.795 682.624C352.809 691.841 372.16 699.285 396.015 699.251Z" fill="#191818"/>
</g>
<path d="M123.613 409.755C124.989 410.894 126.404 411.994 127.885 413.034C129.364 414.073 130.884 415.034 132.43 415.948L156.44 432.563L169.986 414.696C205.527 410.126 244.226 386.96 272.506 349.659C300.786 312.359 311.904 269.82 305.585 235.849L319.268 217.801L286.394 194.96L286.252 195.147C242.854 169.548 174.84 193.51 131.402 250.802C87.9643 308.095 85.0018 377.747 123.57 409.717L123.566 409.723L123.613 409.755Z" fill="url(#paint0_linear_795_40933)"/>
<path d="M153.047 430.457C109.989 400.214 111.565 327.581 156.566 268.227C201.568 208.872 272.955 185.272 316.013 215.514C359.071 245.756 357.495 318.389 312.494 377.744C267.492 437.099 196.106 460.699 153.047 430.457Z" fill="url(#paint1_linear_795_40933)"/>
<path d="M159.356 270.186C203.869 211.476 274.178 187.783 317.371 216.542C316.913 216.203 316.48 215.842 316.013 215.514C272.954 185.272 201.568 208.872 156.566 268.227C111.565 327.581 109.989 400.214 153.047 430.458C153.515 430.786 154.004 431.072 154.479 431.388C112.847 400.569 114.843 328.896 159.356 270.186Z" fill="url(#paint2_linear_795_40933)"/>
<path d="M168.634 414.329C169.783 415.28 184.71 425.132 185.946 426C187.181 426.868 188.45 427.67 189.741 428.433L209.786 442.304L221.095 427.388C250.767 423.573 283.075 404.233 306.686 373.092C330.296 341.952 339.578 306.439 334.303 278.077L345.727 263.01L304.535 235.008L304.417 235.164C268.186 213.791 211.403 233.796 175.138 281.627C138.873 329.457 136.399 387.607 168.598 414.297L168.594 414.302L168.634 414.329Z" fill="url(#paint3_linear_795_40933)"/>
<path d="M206.953 440.546C171.005 415.298 172.321 354.66 209.892 305.107C247.463 255.555 307.061 235.852 343.008 261.101C378.956 286.349 377.64 346.988 340.069 396.54C302.499 446.092 242.9 465.794 206.953 440.546Z" fill="url(#paint4_linear_795_40933)"/>
<path d="M196.921 457.031C198.297 458.169 199.712 459.27 201.193 460.31C202.672 461.349 204.192 462.31 205.738 463.224L229.748 479.838L243.294 461.972C278.835 457.401 317.533 434.235 345.814 396.935C374.094 359.635 385.212 317.096 378.892 283.124L392.576 265.077L359.701 242.236L359.56 242.423C316.162 216.823 248.148 240.786 204.71 298.078C161.272 355.37 158.309 425.023 196.878 456.993L196.874 456.998L196.921 457.031Z" fill="url(#paint5_linear_795_40933)"/>
<path d="M226.355 477.733C183.297 447.491 184.872 374.858 229.874 315.503C274.876 256.148 346.262 232.548 389.32 262.79C432.379 293.033 430.803 365.666 385.801 425.021C340.8 484.376 269.413 507.976 226.355 477.733Z" fill="url(#paint6_linear_795_40933)"/>
<path d="M343.137 395.061C322.749 421.923 290.442 432.604 270.949 418.919C268.229 417.004 265.892 414.72 263.976 412.138C282.356 413.93 304.643 402.862 320.084 382.5C337.607 359.363 340.581 331.799 328.626 315.831C334.504 316.393 339.997 318.272 344.725 321.61C364.218 335.295 363.507 368.183 343.137 395.061Z" fill="#3B3B3B"/>
<path d="M320.084 382.5C304.642 402.862 282.356 413.93 263.976 412.138C252.021 396.168 255.014 368.587 272.536 345.467C287.96 325.124 310.246 314.055 328.626 315.83C340.581 331.799 337.606 359.363 320.084 382.5Z" fill="#535353"/>
<path d="M300.494 306.655C294.975 302.78 295.177 293.472 300.946 285.865C306.714 278.258 315.864 275.233 321.382 279.108C326.901 282.984 326.699 292.292 320.93 299.899C315.162 307.506 306.012 310.531 300.494 306.655Z" fill="url(#paint7_linear_795_40933)"/>
<path d="M300.494 469.061C294.975 465.186 295.177 455.878 300.946 448.271C306.714 440.664 315.864 437.639 321.382 441.514C326.901 445.39 326.699 454.698 320.93 462.305C315.162 469.912 306.012 472.937 300.494 469.061Z" fill="url(#paint8_linear_795_40933)"/>
<path d="M211.945 399.497C206.426 395.621 206.629 386.313 212.397 378.706C218.166 371.099 227.316 368.074 232.834 371.95C238.353 375.825 238.15 385.134 232.382 392.741C226.614 400.347 217.464 403.372 211.945 399.497Z" fill="url(#paint9_linear_795_40933)"/>
<path d="M385.561 350.239C380.042 346.363 380.245 337.055 386.013 329.448C391.781 321.841 400.931 318.816 406.45 322.692C411.968 326.567 411.766 335.875 405.997 343.482C400.229 351.089 391.08 354.114 385.561 350.239Z" fill="url(#paint10_linear_795_40933)"/>
<path d="M352.586 311.237C347.068 307.361 347.27 298.053 353.039 290.446C358.807 282.839 367.957 279.814 373.475 283.69C378.994 287.565 378.791 296.873 373.023 304.481C367.255 312.087 358.105 315.112 352.586 311.237Z" fill="url(#paint11_linear_795_40933)"/>
<path d="M235.461 460.914C229.942 457.038 230.145 447.73 235.913 440.123C241.681 432.516 250.831 429.491 256.35 433.367C261.868 437.242 261.666 446.55 255.897 454.157C250.129 461.764 240.98 464.789 235.461 460.914Z" fill="url(#paint12_linear_795_40933)"/>
<path d="M359.842 421.556C354.323 417.68 354.526 408.372 360.294 400.765C366.063 393.158 375.213 390.133 380.731 394.009C386.25 397.884 386.047 407.193 380.279 414.8C374.51 422.407 365.361 425.431 359.842 421.556Z" fill="url(#paint13_linear_795_40933)"/>
<path d="M244.303 340.391C238.784 336.516 238.986 327.208 244.755 319.6C250.523 311.994 259.673 308.969 265.191 312.844C270.71 316.72 270.508 326.028 264.739 333.635C258.971 341.241 249.821 344.266 244.303 340.391Z" fill="url(#paint14_linear_795_40933)"/>
<path d="M231.902 317.59C276.903 258.235 348.29 234.635 391.348 264.877C394.67 267.21 397.693 269.824 400.485 272.636C397.171 268.998 393.456 265.695 389.32 262.79C346.262 232.548 274.875 256.148 229.874 315.503C188.343 370.28 183.83 436.336 217.219 469.976C186.037 435.742 191.222 371.245 231.902 317.59Z" fill="url(#paint15_linear_795_40933)"/>
<path d="M139.541 485.049C114.052 522.411 186.04 553.062 157.365 600.884C140.393 629.213 105.74 642.118 77.5372 631.186C41.354 620.985 20.7226 587.054 20.0918 586.006C27.71 594.933 36.9215 600.747 46.7639 603.799L47.0165 603.92C47.0165 603.905 47.0164 603.89 47.0006 603.875C74.4455 612.27 106.749 599.29 122.963 572.237C151.623 524.415 79.6505 493.763 105.124 456.401C114.682 442.391 126.692 436.727 137.97 435.121C156.767 432.444 183.674 442.297 183.674 442.297L214.333 469.172C214.333 469.172 165.015 447.687 139.541 485.049Z" fill="url(#paint16_linear_795_40933)"/>
<path d="M47.0007 603.875C46.922 603.859 46.8428 603.83 46.7641 603.799C36.9217 600.748 27.7101 594.933 20.092 586.006C20.0761 585.991 20.0761 585.976 20.0761 585.976C11.4957 575.895 4.96546 561.883 1.88965 543.423L36.2908 572.07C38.4045 584.701 42.1108 595.237 47.0007 603.875Z" fill="url(#paint17_linear_795_40933)"/>
<path d="M458.132 300.168L722.959 268.919V218.564L442.05 288.172L458.132 300.168Z" fill="#3B3B3B"/>
<path d="M706.87 206.573V256.93L706.444 256.976L685.198 259.481L442.056 288.174L441.63 283.802L438.444 250.645L438.128 247.366L440.258 247.047L461.173 243.874L706.87 206.573Z" fill="#535353"/>
<path d="M706.876 206.568L722.958 218.564V268.919L706.876 256.923V206.568Z" fill="#2D2D2D"/>
<path d="M477.653 241.37L454.736 286.675L476.181 283.757L498.693 237.743L477.653 241.37Z" fill="url(#paint18_linear_795_40933)"/>
<path d="M461.173 243.874L441.63 283.802L438.444 250.645L440.258 247.047L461.173 243.874Z" fill="url(#paint19_linear_795_40933)"/>
<path d="M516.739 235.436L493.102 282.232L514.547 279.314L537.562 232.274L516.739 235.436Z" fill="url(#paint20_linear_795_40933)"/>
<path d="M556.244 229.438L531.468 277.789L552.913 274.872L576.886 226.304L556.244 229.438Z" fill="url(#paint21_linear_795_40933)"/>
<path d="M595.023 223.55L569.835 273.346L591.28 270.428L615.756 220.402L595.023 223.55Z" fill="url(#paint22_linear_795_40933)"/>
<path d="M634.146 217.61L608.201 268.903L629.646 265.985L654.852 214.467L634.146 217.61Z" fill="url(#paint23_linear_795_40933)"/>
<path d="M672.737 211.971L646.856 263.906L668.301 260.988L693.967 208.528L672.737 211.971Z" fill="url(#paint24_linear_795_40933)"/>
<path d="M706.869 216.638V256.095L706.444 256.976L706.38 257.097L684.929 260.012L685.197 259.481L706.869 216.638Z" fill="url(#paint25_linear_795_40933)"/>
<path d="M442.05 288.172L680.146 318.943L557.395 576.247L342.295 473.046L442.05 288.172Z" fill="#535353"/>
<path d="M680.147 318.942L697.207 333.903L582.196 571.076L557.395 576.246L680.147 318.942Z" fill="#3B3B3B"/>
<path d="M680.15 318.947L668.32 343.723L661.458 358.115L652.768 356.643L425.856 318.188L442.055 288.174L642.83 314.119L661.112 316.487L680.15 318.947Z" fill="url(#paint26_linear_795_40933)"/>
<path d="M443.62 288.172L451.972 323.894L471.978 327.089L461.897 290.534L443.62 288.172Z" fill="#535353"/>
<path d="M476.818 292.486L485.17 328.209L505.176 331.404L495.095 294.848L476.818 292.486Z" fill="#535353"/>
<path d="M510.017 296.801L518.696 333.918L538.701 337.113L528.294 299.163L510.017 296.801Z" fill="#535353"/>
<path d="M543.216 301.115L552.213 339.597L572.397 343.018L561.493 303.477L543.216 301.115Z" fill="#535353"/>
<path d="M576.415 305.43L585.732 345.277L605.963 348.662L594.692 307.792L576.415 305.43Z" fill="#535353"/>
<path d="M609.613 309.745L619.249 350.957L639.553 354.398L627.89 312.107L609.613 309.745Z" fill="#535353"/>
<path d="M668.32 343.723L661.458 358.115L652.767 356.643L642.83 314.119L642.814 314.059L661.096 316.426L661.111 316.487L668.32 343.723Z" fill="#535353"/>
<path d="M466.252 265.5L455.907 307.701C454.676 312.722 448.117 314.381 444.481 310.592L421.524 286.669C417.294 282.262 419.13 275.127 425.008 273.129L460.944 260.913C463.975 259.883 466.99 262.488 466.252 265.5Z" fill="url(#paint27_linear_795_40933)"/>
<path d="M464.788 262.582L454.443 304.783C453.212 309.804 446.653 311.463 443.016 307.674L420.059 283.751C415.83 279.344 417.665 272.209 423.543 270.211L459.479 257.995C462.511 256.965 465.526 259.57 464.788 262.582Z" fill="url(#paint28_linear_795_40933)"/>
<path d="M458.926 270.734C461.105 269.166 461.355 266.168 459.486 264.037C457.616 261.906 454.334 261.449 452.155 263.017C449.977 264.584 449.726 267.583 451.596 269.714C453.466 271.845 456.748 272.302 458.926 270.734Z" fill="url(#paint29_linear_795_40933)"/>
<path d="M450.518 300.975C452.697 299.408 452.947 296.409 451.078 294.278C449.208 292.147 445.926 291.69 443.747 293.258C441.568 294.826 441.318 297.824 443.187 299.955C445.057 302.086 448.34 302.543 450.518 300.975Z" fill="url(#paint30_linear_795_40933)"/>
<path d="M432.297 282.21C434.476 280.642 434.726 277.644 432.857 275.513C430.987 273.382 427.705 272.925 425.526 274.493C423.348 276.06 423.097 279.059 424.967 281.19C426.837 283.321 430.118 283.777 432.297 282.21Z" fill="url(#paint31_linear_795_40933)"/>
<path d="M440.648 337.113L373.793 452.715L557.806 532.257L631.526 374.515L440.648 337.113Z" stroke="#CCCCCC" stroke-width="1.81345" stroke-miterlimit="10"/>
<path d="M425.856 362.691L615.755 405.21" stroke="#CCCCCC" stroke-width="1.81345" stroke-miterlimit="10"/>
<path d="M502.661 349.264L432.216 477.969" stroke="#CCCCCC" stroke-width="1.81345" stroke-miterlimit="10"/>
<path d="M571.183 362.691L496.473 505.745" stroke="#CCCCCC" stroke-width="1.81345" stroke-miterlimit="10"/>
<path d="M454.735 339.873L387.344 458.573" stroke="#CCCCCC" stroke-width="1.81345" stroke-miterlimit="10"/>
<path d="M363.463 389.618L466.035 416.177C471.837 417.866 476.338 427.989 473.601 433.195L422.019 531.336C418.912 537.249 411.427 539.636 405.265 536.68L309.666 490.813C304.692 488.427 297.21 477.918 299.772 473.17L349.906 395.12C352.461 390.385 358.157 388.074 363.463 389.618Z" fill="url(#paint32_linear_795_40933)"/>
<path d="M359.08 383.107L463.342 413.467C469.144 415.156 471.955 421.478 469.219 426.684L417.637 524.825C414.529 530.738 407.044 533.125 400.882 530.169L305.283 484.302C300.309 481.916 298.332 476.069 300.893 471.322L345.523 388.609C348.078 383.874 353.775 381.563 359.08 383.107Z" fill="url(#paint33_linear_795_40933)"/>
<path d="M377.565 427.429L358.891 463.545L392.575 455.287L377.565 427.429Z" fill="white"/>
<path d="M469.631 419.146C470.178 421.244 469.995 423.539 468.884 425.654L417.302 523.794C414.194 529.707 406.709 532.095 400.548 529.139L304.948 483.272C302.598 482.144 300.928 480.241 300.078 478.048C300.758 480.669 302.57 483.001 305.283 484.302L400.882 530.169C407.044 533.125 414.529 530.737 417.636 524.825L469.218 426.683C470.515 424.217 470.554 421.504 469.631 419.146Z" fill="url(#paint34_linear_795_40933)"/>
<path d="M269.596 594.704L303.776 529.245L348.647 553.16L313.272 619.599L269.596 594.704Z" fill="url(#paint35_linear_795_40933)"/>
<path d="M253.064 596.897L287.245 531.437L332.116 555.352L296.74 621.791L253.064 596.897Z" fill="url(#paint36_linear_795_40933)"/>
<path d="M348.647 553.159L332.115 555.352L296.74 621.791L313.272 619.599L348.647 553.159Z" fill="url(#paint37_linear_795_40933)"/>
<path d="M287.244 531.437L303.776 529.245L348.647 553.16L332.115 555.352L287.244 531.437Z" fill="#BDFFC3"/>
<path d="M333.975 631.541L382.324 539.874L427.195 563.789L377.65 656.435L333.975 631.541Z" fill="url(#paint38_linear_795_40933)"/>
<path d="M317.443 633.733L365.792 542.067L410.663 565.982L361.118 658.628L317.443 633.733Z" fill="url(#paint39_linear_795_40933)"/>
<path d="M427.196 563.789L410.664 565.982L361.119 658.628L377.651 656.435L427.196 563.789Z" fill="url(#paint40_linear_795_40933)"/>
<path d="M365.792 542.067L382.324 539.874L427.195 563.789L410.663 565.981L365.792 542.067Z" fill="#BDFFC3"/>
<path d="M398.354 668.377L457.388 552.928L502.259 576.842L442.03 693.272L398.354 668.377Z" fill="url(#paint41_linear_795_40933)"/>
<path d="M381.823 670.57L440.856 555.121L485.727 579.035L425.499 695.464L381.823 670.57Z" fill="url(#paint42_linear_795_40933)"/>
<path d="M502.259 576.843L485.727 579.035L425.499 695.464L442.03 693.272L502.259 576.843Z" fill="url(#paint43_linear_795_40933)"/>
<path d="M440.856 555.121L457.388 552.928L502.259 576.842L485.727 579.035L440.856 555.121Z" fill="#BDFFC3"/>
<path d="M462.733 705.214L549.138 539.875L594.009 563.789L506.409 730.109L462.733 705.214Z" fill="url(#paint44_linear_795_40933)"/>
<path d="M446.202 707.407L532.606 542.067L577.477 565.982L489.877 732.301L446.202 707.407Z" fill="url(#paint45_linear_795_40933)"/>
<path d="M594.009 563.789L577.477 565.982L489.877 732.301L506.409 730.109L594.009 563.789Z" fill="url(#paint46_linear_795_40933)"/>
<path d="M532.606 542.067L549.138 539.875L594.009 563.789L577.477 565.982L532.606 542.067Z" fill="#BDFFC3"/>
<path d="M527.112 742.05L600.761 598.155L645.632 622.069L570.788 766.945L527.112 742.05Z" fill="url(#paint47_linear_795_40933)"/>
<path d="M510.581 744.243L584.229 600.347L629.1 624.262L554.256 769.138L510.581 744.243Z" fill="url(#paint48_linear_795_40933)"/>
<path d="M645.632 622.069L629.1 624.262L554.256 769.138L570.788 766.945L645.632 622.069Z" fill="url(#paint49_linear_795_40933)"/>
<path d="M584.229 600.347L600.76 598.155L645.631 622.069L629.099 624.262L584.229 600.347Z" fill="#BDFFC3"/>
<path d="M640.446 501.085C624.467 533.783 637.524 569.08 669.61 579.921C701.695 590.762 740.658 573.043 756.637 540.344C772.616 507.646 759.559 472.35 727.473 461.509C695.388 450.667 656.424 468.386 640.446 501.085Z" fill="url(#paint50_linear_795_40933)"/>
<path d="M631.295 494.563C615.316 527.262 628.373 562.558 660.459 573.399C692.544 584.24 731.507 566.521 747.486 533.823C763.465 501.124 750.408 465.828 718.322 454.987C686.237 444.145 647.273 461.864 631.295 494.563Z" fill="url(#paint51_linear_795_40933)"/>
<path d="M681.245 503.696C681.245 512.664 676.35 517.116 670.639 517.117C665.131 517.118 660.372 512.863 660.303 504.287C660.303 495.777 665.13 490.997 670.978 490.996C677.164 490.996 681.244 495.578 681.245 503.696ZM665.063 504.09C664.927 509.524 667.035 513.648 670.774 513.648C674.718 513.647 676.485 509.588 676.485 503.958C676.484 498.786 674.921 494.466 670.774 494.466C667.033 494.467 665.062 498.722 665.063 504.09ZM670.232 534.989L696.202 490.994L700.01 490.993L674.039 534.989L670.232 534.989ZM710.006 521.302C710.007 530.271 705.112 534.723 699.468 534.724C693.961 534.724 689.202 530.47 689.133 521.959C689.132 513.384 693.96 508.604 699.807 508.603C705.993 508.603 710.005 513.185 710.006 521.302ZM693.824 521.697C693.756 527.131 695.933 531.255 699.604 531.254C703.547 531.254 705.315 527.195 705.315 521.565C705.315 516.393 703.75 512.072 699.603 512.073C695.863 512.073 693.824 516.329 693.824 521.697Z" fill="white"/>
<path d="M167.376 645.008C156.221 667.836 165.337 692.477 187.736 700.045C210.136 707.614 237.338 695.244 248.493 672.416C259.648 649.588 250.532 624.947 228.133 617.378C205.733 609.81 178.532 622.18 167.376 645.008Z" fill="url(#paint52_linear_795_40933)"/>
<path d="M160.988 640.455C149.833 663.283 158.948 687.924 181.348 695.492C203.748 703.061 230.949 690.691 242.105 667.863C253.26 645.035 244.144 620.394 221.745 612.825C199.345 605.257 172.143 617.627 160.988 640.455Z" fill="url(#paint53_linear_795_40933)"/>
<path d="M178.896 641.404L183.772 672.005L232.731 656.704L230.196 646.848L192.744 658.711L188.844 637.649L178.896 641.404Z" fill="white"/>
<path d="M399.032 129.765L409.572 163.494L446.178 175.559L414.072 194.128L413.593 228.9L383.211 206.648L346.31 216.073L359.638 183.751L337.311 154.804L375.93 157.08L399.032 129.765Z" fill="url(#paint54_linear_795_40933)"/>
<path d="M400.695 121.688L411.235 155.417L447.84 167.482L415.734 186.051L415.256 220.824L384.873 198.571L347.972 207.997L361.301 175.674L338.973 146.727L377.593 149.004L400.695 121.688Z" fill="url(#paint55_linear_795_40933)"/>
<path d="M384.873 198.571L383.211 206.648L346.31 216.074L347.972 207.997L384.873 198.571Z" fill="url(#paint56_linear_795_40933)"/>
<path d="M415.256 220.824L413.594 228.901L383.211 206.648L384.873 198.571L415.256 220.824Z" fill="url(#paint57_linear_795_40933)"/>
<path d="M447.84 167.482L446.178 175.559L415.635 193.224L415.734 186.051L447.84 167.482Z" fill="url(#paint58_linear_795_40933)"/>
<path d="M338.973 146.727L361.3 175.674L358.551 182.342L337.311 154.805L338.973 146.727Z" fill="url(#paint59_linear_795_40933)"/>
<path d="M383.212 198.069L348.399 206.961L347.973 207.997L384.15 198.756L383.212 198.069Z" fill="url(#paint60_linear_795_40933)"/>
<path d="M411.235 155.417L400.696 121.688L399.596 122.988L409.574 154.915L446.179 166.979L414.073 185.55L413.604 219.614L415.256 220.824L415.735 186.051L447.841 167.482L411.235 155.417Z" fill="url(#paint61_linear_795_40933)"/>
<path d="M802.795 359.437C807.7 384.425 792.406 405.414 768.636 406.317C744.865 407.219 721.62 387.692 716.716 362.703C711.811 337.714 727.105 316.725 750.875 315.823C774.645 314.921 797.891 334.448 802.795 359.437Z" fill="url(#paint62_linear_795_40933)"/>
<path d="M810.198 356.889C815.103 381.878 799.809 402.867 776.039 403.769C752.269 404.671 729.023 385.145 724.119 360.156C719.215 335.167 734.508 314.178 758.279 313.276C782.048 312.374 805.294 331.9 810.198 356.889Z" fill="url(#paint63_linear_795_40933)"/>
<path d="M765.47 379.428L765.149 374.131C761.984 374.123 758.655 373.224 756.668 371.94L757.764 368.407C759.802 369.638 762.698 370.595 765.752 370.552C769.623 370.498 772.11 368.311 771.929 365.321C771.754 362.436 769.52 360.683 765.39 359.166C759.702 357.146 756.121 354.781 755.845 350.218C755.581 345.864 758.598 342.515 763.567 341.657L763.246 336.36L766.626 336.312L766.935 341.4C770.212 341.459 772.498 342.267 774.134 343.137L772.98 346.618C771.797 346.004 769.491 344.882 766.002 344.931C761.804 344.99 760.369 347.425 760.496 349.523C760.661 352.25 762.761 353.586 767.619 355.407C773.368 357.532 776.368 360.219 776.65 364.888C776.902 369.031 774.137 372.955 768.575 373.925L768.906 379.38L765.47 379.428Z" fill="white"/>
<g opacity="0.17">
<path opacity="0.0385" d="M674.106 833.091C721.855 833.022 760.54 818.012 760.511 799.565C760.482 781.119 721.751 766.221 674.002 766.289C626.253 766.358 587.568 781.368 587.596 799.815C587.625 818.262 626.357 833.16 674.106 833.091Z" fill="#4A0101"/>
<path opacity="0.0769" d="M674.104 832.208C720.591 832.141 758.253 817.528 758.225 799.569C758.197 781.61 720.49 767.106 674.003 767.173C627.516 767.24 589.854 781.853 589.882 799.812C589.91 817.771 627.618 832.275 674.104 832.208Z" fill="#480202"/>
<path opacity="0.1154" d="M674.103 831.325C719.327 831.26 755.966 817.044 755.939 799.573C755.912 782.101 719.229 767.991 674.005 768.056C628.781 768.122 592.141 782.338 592.168 799.809C592.196 817.28 628.879 831.39 674.103 831.325Z" fill="#460303"/>
<path opacity="0.1538" d="M674.101 830.442C718.062 830.378 753.679 816.559 753.652 799.575C753.626 782.592 717.967 768.876 674.005 768.939C630.044 769.003 594.427 782.822 594.454 799.805C594.48 816.789 630.139 830.505 674.101 830.442Z" fill="#440404"/>
<path opacity="0.1923" d="M674.1 829.559C716.799 829.498 751.392 816.075 751.367 799.579C751.341 783.083 716.706 769.761 674.007 769.822C631.307 769.884 596.714 783.307 596.739 799.802C596.765 816.298 631.401 829.621 674.1 829.559Z" fill="#420505"/>
<path opacity="0.2308" d="M674.098 828.676C715.535 828.616 749.105 815.59 749.08 799.582C749.055 783.574 715.444 770.645 674.008 770.705C632.571 770.765 599 783.791 599.025 799.799C599.05 815.807 632.661 828.735 674.098 828.676Z" fill="#400606"/>
<path opacity="0.2692" d="M674.097 827.793C714.271 827.735 746.819 815.106 746.794 799.586C746.77 784.065 714.183 771.531 674.009 771.589C633.835 771.647 601.287 784.276 601.311 799.796C601.336 815.316 633.923 827.851 674.097 827.793Z" fill="#3E0606"/>
<path opacity="0.3077" d="M674.095 826.91C713.007 826.853 744.532 814.622 744.509 799.589C744.485 784.557 712.922 772.416 674.01 772.472C635.099 772.528 603.574 784.76 603.597 799.793C603.621 814.825 635.184 826.966 674.095 826.91Z" fill="#3C0707"/>
<path opacity="0.3462" d="M674.094 826.027C711.743 825.972 742.245 814.137 742.222 799.593C742.2 785.048 711.661 773.301 674.012 773.355C636.362 773.41 605.86 785.245 605.883 799.789C605.906 814.334 636.444 826.081 674.094 826.027Z" fill="#3A0808"/>
<path opacity="0.3846" d="M674.091 825.144C710.478 825.091 739.958 813.653 739.936 799.596C739.914 785.539 710.399 774.186 674.012 774.238C637.626 774.291 608.146 785.729 608.168 799.786C608.19 813.843 637.705 825.197 674.091 825.144Z" fill="#380909"/>
<path opacity="0.4231" d="M674.09 824.261C709.214 824.21 737.671 813.169 737.65 799.599C737.629 786.03 709.138 775.071 674.014 775.122C638.89 775.172 610.433 786.214 610.454 799.783C610.475 813.352 638.966 824.311 674.09 824.261Z" fill="#360A0A"/>
<path opacity="0.4615" d="M674.089 823.378C707.95 823.329 735.384 812.684 735.364 799.603C735.343 786.521 707.876 775.956 674.015 776.005C640.153 776.054 612.719 786.698 612.74 799.78C612.76 812.862 640.227 823.427 674.089 823.378Z" fill="#340B0B"/>
<path opacity="0.5" d="M674.087 822.495C706.686 822.448 733.097 812.2 733.078 799.606C733.058 787.013 706.615 776.841 674.016 776.888C641.417 776.935 615.006 787.183 615.026 799.777C615.045 812.371 641.488 822.542 674.087 822.495Z" fill="#330C0C"/>
<path opacity="0.5385" d="M674.086 821.612C705.422 821.567 730.81 811.716 730.791 799.61C730.773 787.504 705.354 777.727 674.017 777.772C642.681 777.817 617.293 787.668 617.312 799.774C617.33 811.88 642.749 821.657 674.086 821.612Z" fill="#310D0D"/>
<path opacity="0.5769" d="M674.084 820.729C704.158 820.686 728.523 811.232 728.505 799.613C728.487 787.995 704.092 778.611 674.018 778.655C643.944 778.698 619.579 788.152 619.597 799.771C619.615 811.389 644.01 820.773 674.084 820.729Z" fill="#2F0E0E"/>
<path opacity="0.6154" d="M674.082 819.846C702.894 819.804 726.236 810.747 726.219 799.617C726.202 788.486 702.831 779.496 674.019 779.538C645.208 779.58 621.865 788.636 621.882 799.767C621.9 810.898 645.27 819.888 674.082 819.846Z" fill="#2D0F0F"/>
<path opacity="0.6538" d="M674.08 818.963C701.63 818.923 723.949 810.263 723.933 799.62C723.916 788.977 701.57 780.382 674.02 780.422C646.471 780.461 624.152 789.121 624.168 799.764C624.185 810.407 646.531 819.003 674.08 818.963Z" fill="#2B1010"/>
<path opacity="0.6923" d="M674.08 818.08C700.366 818.042 721.663 809.779 721.647 799.623C721.632 789.468 700.309 781.267 674.022 781.305C647.735 781.343 626.439 789.606 626.454 799.761C626.47 809.916 647.793 818.118 674.08 818.08Z" fill="#291111"/>
<path opacity="0.7308" d="M674.077 817.198C699.102 817.162 719.376 809.295 719.361 799.628C719.345 789.96 699.047 782.152 674.023 782.188C648.999 782.225 628.725 790.091 628.74 799.759C628.755 809.426 649.053 817.234 674.077 817.198Z" fill="#271212"/>
<path opacity="0.7692" d="M674.076 816.315C697.838 816.281 717.089 808.811 717.075 799.631C717.06 790.451 697.786 783.037 674.024 783.072C650.263 783.106 631.012 790.575 631.026 799.755C631.04 808.935 650.314 816.349 674.076 816.315Z" fill="#251212"/>
<path opacity="0.8077" d="M674.074 815.432C696.573 815.4 714.801 808.327 714.787 799.635C714.774 790.943 696.524 783.923 674.024 783.955C651.525 783.988 633.297 791.06 633.311 799.753C633.324 808.445 651.574 815.465 674.074 815.432Z" fill="#231313"/>
<path opacity="0.8462" d="M674.072 814.549C695.309 814.518 712.514 807.842 712.502 799.638C712.489 791.434 695.263 784.808 674.026 784.838C652.789 784.869 635.584 791.545 635.596 799.749C635.609 807.953 652.835 814.579 674.072 814.549Z" fill="#211414"/>
<path opacity="0.8846" d="M674.07 813.667C694.044 813.638 710.226 807.359 710.214 799.642C710.202 791.926 694 785.694 674.026 785.723C654.052 785.752 637.869 792.03 637.881 799.747C637.893 807.463 654.095 813.696 674.07 813.667Z" fill="#1F1515"/>
<path opacity="0.9231" d="M674.068 812.784C692.78 812.757 707.939 806.875 707.928 799.646C707.917 792.417 692.739 786.579 674.027 786.606C655.315 786.633 640.156 792.515 640.167 799.744C640.178 806.973 655.356 812.811 674.068 812.784Z" fill="#1D1616"/>
<path opacity="0.9615" d="M674.067 811.901C691.516 811.876 705.653 806.39 705.643 799.649C705.632 792.908 691.478 787.464 674.029 787.489C656.58 787.514 642.443 792.999 642.453 799.74C642.464 806.482 656.618 811.926 674.067 811.901Z" fill="#1B1717"/>
<path d="M674.063 811.019C690.25 810.996 703.364 805.908 703.355 799.654C703.345 793.401 690.215 788.35 674.028 788.374C657.841 788.397 644.727 793.485 644.737 799.739C644.747 805.992 657.877 811.043 674.063 811.019Z" fill="#191818"/>
</g>
<path d="M683.054 692.701C708.295 696.006 706.336 728.586 706.336 728.586C706.336 728.586 729 701.11 752.068 709.714C775.137 718.319 770.07 783.194 677.189 799.68C613.636 744.631 657.812 689.396 683.054 692.701Z" fill="url(#paint64_linear_795_40933)"/>
<path d="M680.07 682.691C705.311 685.996 703.352 718.576 703.352 718.576C703.352 718.576 726.016 691.1 749.084 699.704C772.152 708.309 767.085 773.184 674.204 789.67C610.652 734.621 654.827 679.386 680.07 682.691Z" fill="url(#paint65_linear_795_40933)"/>
<path d="M650.464 700.427C637.593 720.777 636.016 754.627 675.02 788.412C716.781 781 740.781 763.806 752.463 746.341C741.104 764.232 716.966 782.08 674.203 789.67C634.386 755.181 636.858 720.62 650.464 700.427Z" fill="url(#paint66_linear_795_40933)"/>
</g>
<path d="M43.1475 1032.02V1087.47H35.7969V1032.02H43.1475ZM106.972 1032.02V1087.47H99.5832L71.6662 1044.7V1087.47H64.3156V1032.02H71.6662L99.6975 1074.91V1032.02H106.972ZM147.145 1032.02V1087.47H139.909V1032.02H147.145ZM164.969 1032.02V1038.04H122.122V1032.02H164.969ZM212.721 1032.02H220.034V1069.54C220.034 1073.7 219.107 1077.17 217.254 1079.93C215.4 1082.7 212.937 1084.78 209.865 1086.18C206.818 1087.55 203.504 1088.24 199.924 1088.24C196.167 1088.24 192.764 1087.55 189.717 1086.18C186.696 1084.78 184.296 1082.7 182.519 1079.93C180.767 1077.17 179.891 1073.7 179.891 1069.54V1032.02H187.166V1069.54C187.166 1072.43 187.699 1074.82 188.765 1076.7C189.832 1078.57 191.317 1079.97 193.221 1080.89C195.151 1081.8 197.385 1082.26 199.924 1082.26C202.489 1082.26 204.723 1081.8 206.628 1080.89C208.557 1079.97 210.055 1078.57 211.122 1076.7C212.188 1074.82 212.721 1072.43 212.721 1069.54V1032.02ZM247.258 1032.02V1087.47H239.907V1032.02H247.258ZM287.773 1032.02V1087.47H280.537V1032.02H287.773ZM305.598 1032.02V1038.04H262.751V1032.02H305.598ZM329.508 1032.02V1087.47H322.157V1032.02H329.508ZM368.577 1079.06L384.915 1032.02H392.875L372.347 1087.47H366.672L368.577 1079.06ZM353.304 1032.02L369.491 1079.06L371.509 1087.47H365.834L345.344 1032.02H353.304ZM443.37 1081.49V1087.47H414.005V1081.49H443.37ZM415.491 1032.02V1087.47H408.14V1032.02H415.491ZM439.485 1055.86V1061.84H414.005V1055.86H439.485ZM442.989 1032.02V1038.04H414.005V1032.02H442.989ZM75.3125 1197.65V1207.47H42.7686V1197.65H75.3125ZM46.8838 1146.33V1207.47H34.2861V1146.33H46.8838ZM71.0713 1171.23V1180.81H42.7686V1171.23H71.0713ZM75.2705 1146.33V1156.2H42.7686V1146.33H75.2705ZM137.582 1146.33V1207.47H124.984L100.419 1166.49V1207.47H87.8211V1146.33H100.419L125.026 1187.36V1146.33H137.582ZM179.779 1146.33V1207.47H167.223V1146.33H179.779ZM198.591 1146.33V1156.2H148.705V1146.33H198.591ZM251.959 1197.65V1207.47H219.415V1197.65H251.959ZM223.53 1146.33V1207.47H210.932V1146.33H223.53ZM247.717 1171.23V1180.81H219.415V1171.23H247.717ZM251.917 1146.33V1156.2H219.415V1146.33H251.917ZM264.467 1146.33H287.269C291.944 1146.33 295.961 1147.03 299.321 1148.43C302.708 1149.83 305.312 1151.9 307.131 1154.65C308.951 1157.39 309.861 1160.76 309.861 1164.77C309.861 1168.04 309.301 1170.86 308.181 1173.21C307.089 1175.53 305.536 1177.48 303.52 1179.05C301.532 1180.59 299.195 1181.82 296.507 1182.74L292.518 1184.84H272.698L272.614 1175.01H287.353C289.564 1175.01 291.398 1174.62 292.854 1173.84C294.31 1173.05 295.401 1171.96 296.129 1170.56C296.885 1169.16 297.263 1167.54 297.263 1165.69C297.263 1163.73 296.899 1162.04 296.171 1160.61C295.443 1159.18 294.338 1158.09 292.854 1157.34C291.37 1156.58 289.508 1156.2 287.269 1156.2H277.065V1207.47H264.467V1146.33ZM298.649 1207.47L284.707 1180.22L298.019 1180.14L312.128 1206.89V1207.47H298.649ZM349.538 1146.33V1207.47H336.983V1146.33H349.538ZM368.351 1146.33V1156.2H318.464V1146.33H368.351ZM401.016 1156.79L384.387 1207.47H370.991L393.709 1146.33H402.233L401.016 1156.79ZM414.831 1207.47L398.16 1156.79L396.816 1146.33H405.425L428.269 1207.47H414.831ZM414.075 1184.71V1194.58H381.783V1184.71H414.075ZM452.493 1146.33V1207.47H439.937V1146.33H452.493ZM519.214 1146.33V1207.47H506.616L482.051 1166.49V1207.47H469.453V1146.33H482.051L506.658 1187.36V1146.33H519.214ZM541.086 1146.33H551.753L567.458 1191.22L583.163 1146.33H593.829L571.741 1207.47H563.174L541.086 1146.33ZM535.334 1146.33H545.958L547.889 1190.09V1207.47H535.334V1146.33ZM588.958 1146.33H599.624V1207.47H587.026V1190.09L588.958 1146.33ZM656.854 1197.65V1207.47H624.31V1197.65H656.854ZM628.425 1146.33V1207.47H615.828V1146.33H628.425ZM652.613 1171.23V1180.81H624.31V1171.23H652.613ZM656.812 1146.33V1156.2H624.31V1146.33H656.812ZM719.123 1146.33V1207.47H706.526L681.96 1166.49V1207.47H669.363V1146.33H681.96L706.568 1187.36V1146.33H719.123ZM761.32 1146.33V1207.47H748.765V1146.33H761.32ZM780.133 1146.33V1156.2H730.246V1146.33H780.133ZM67.2559 1302.84C67.2559 1301.32 67.002 1299.96 66.4941 1298.76C65.9863 1297.57 65.1484 1296.5 63.9805 1295.56C62.8379 1294.6 61.2891 1293.71 59.334 1292.9C57.4043 1292.06 54.9922 1291.24 52.0977 1290.42C49.3301 1289.64 46.8291 1288.77 44.5947 1287.83C42.3604 1286.89 40.4434 1285.81 38.8438 1284.6C37.2695 1283.38 36.0635 1281.96 35.2256 1280.33C34.3877 1278.68 33.9688 1276.76 33.9688 1274.58C33.9688 1272.45 34.4258 1270.5 35.3398 1268.75C36.2539 1267 37.5361 1265.49 39.1865 1264.22C40.8623 1262.95 42.8301 1261.97 45.0898 1261.29C47.375 1260.6 49.876 1260.26 52.5928 1260.26C56.4775 1260.26 59.8291 1261 62.6475 1262.47C65.4912 1263.94 67.6875 1265.93 69.2363 1268.45C70.8105 1270.94 71.5977 1273.73 71.5977 1276.83H66.9131C66.9131 1274.41 66.3418 1272.27 65.1992 1270.39C64.082 1268.49 62.457 1267 60.3242 1265.93C58.2168 1264.84 55.6396 1264.3 52.5928 1264.3C49.5459 1264.3 46.9814 1264.77 44.8994 1265.71C42.8428 1266.62 41.2812 1267.85 40.2148 1269.4C39.1738 1270.92 38.6533 1272.62 38.6533 1274.5C38.6533 1275.82 38.9072 1277.04 39.415 1278.16C39.9229 1279.25 40.748 1280.28 41.8906 1281.24C43.0586 1282.18 44.5947 1283.07 46.499 1283.91C48.4033 1284.72 50.752 1285.5 53.5449 1286.23C56.4902 1287.05 59.1055 1287.95 61.3906 1288.94C63.6758 1289.93 65.6055 1291.07 67.1797 1292.37C68.7539 1293.64 69.9473 1295.12 70.7598 1296.82C71.5723 1298.52 71.9785 1300.5 71.9785 1302.76C71.9785 1305.02 71.4961 1307.05 70.5312 1308.86C69.5918 1310.63 68.2588 1312.15 66.5322 1313.39C64.8311 1314.63 62.8125 1315.59 60.4766 1316.25C58.166 1316.91 55.6396 1317.24 52.8975 1317.24C50.4346 1317.24 47.9844 1316.92 45.5469 1316.28C43.1094 1315.65 40.875 1314.67 38.8438 1313.35C36.8379 1312.01 35.2256 1310.28 34.0068 1308.17C32.8135 1306.06 32.2168 1303.55 32.2168 1300.63H36.8633C36.8633 1302.97 37.333 1304.93 38.2725 1306.53C39.2119 1308.13 40.4561 1309.43 42.0049 1310.42C43.5791 1311.41 45.3057 1312.13 47.1846 1312.59C49.0889 1313.02 50.9932 1313.24 52.8975 1313.24C55.8174 1313.24 58.3438 1312.81 60.4766 1311.94C62.6348 1311.08 64.2979 1309.87 65.4658 1308.32C66.6592 1306.75 67.2559 1304.92 67.2559 1302.84ZM130.852 1285.78V1291.72C130.852 1295.6 130.344 1299.12 129.328 1302.27C128.338 1305.39 126.891 1308.07 124.987 1310.3C123.108 1312.54 120.848 1314.25 118.207 1315.45C115.567 1316.64 112.596 1317.24 109.295 1317.24C106.071 1317.24 103.125 1316.64 100.459 1315.45C97.8186 1314.25 95.5461 1312.54 93.6418 1310.3C91.7375 1308.07 90.2648 1305.39 89.2238 1302.27C88.1828 1299.12 87.6623 1295.6 87.6623 1291.72V1285.78C87.6623 1281.89 88.1701 1278.39 89.1857 1275.27C90.2268 1272.12 91.6994 1269.43 93.6037 1267.19C95.508 1264.96 97.7805 1263.24 100.421 1262.05C103.062 1260.86 105.994 1260.26 109.219 1260.26C112.52 1260.26 115.49 1260.86 118.131 1262.05C120.772 1263.24 123.044 1264.96 124.948 1267.19C126.853 1269.43 128.313 1272.12 129.328 1275.27C130.344 1278.39 130.852 1281.89 130.852 1285.78ZM126.205 1291.72V1285.7C126.205 1282.43 125.824 1279.48 125.063 1276.86C124.326 1274.25 123.222 1272.02 121.749 1270.16C120.302 1268.31 118.525 1266.89 116.417 1265.9C114.31 1264.91 111.91 1264.41 109.219 1264.41C106.604 1264.41 104.255 1264.91 102.173 1265.9C100.091 1266.89 98.3137 1268.31 96.841 1270.16C95.3937 1272.02 94.2766 1274.25 93.4895 1276.86C92.7277 1279.48 92.3469 1282.43 92.3469 1285.7V1291.72C92.3469 1295.02 92.7277 1297.99 93.4895 1300.63C94.2766 1303.25 95.4064 1305.49 96.8791 1307.37C98.3518 1309.23 100.129 1310.65 102.211 1311.64C104.319 1312.63 106.68 1313.12 109.295 1313.12C112.012 1313.12 114.411 1312.63 116.493 1311.64C118.575 1310.65 120.34 1309.23 121.787 1307.37C123.235 1305.49 124.326 1303.25 125.063 1300.63C125.824 1297.99 126.205 1295.02 126.205 1291.72ZM155.181 1261.02V1316.47H150.496V1261.02H155.181ZM181.003 1286.54V1290.58H153.62V1286.54H181.003ZM184.85 1261.02V1265.06H153.62V1261.02H184.85ZM221.519 1261.02V1316.47H216.873V1261.02H221.519ZM240.524 1261.02V1265.06H197.906V1261.02H240.524ZM272.013 1301.81L284.049 1261.02H287.819L284.772 1273.13L271.937 1316.47H268.319L272.013 1301.81ZM258.036 1261.02L268.167 1301.43L271.214 1316.47H267.443L253.237 1261.02H258.036ZM304.044 1301.43L314.022 1261.02H318.821L304.653 1316.47H300.883L304.044 1301.43ZM288.238 1261.02L300.121 1301.81L303.777 1316.47H300.159L287.591 1273.13L284.506 1261.02H288.238ZM352.215 1264.33L333.02 1316.47H328.145L349.092 1261.02H352.481L352.215 1264.33ZM369.658 1316.47L350.425 1264.33L350.158 1261.02H353.548L374.533 1316.47H369.658ZM366.23 1296.9V1300.94H336.79V1296.9H366.23ZM390.445 1261.02H408.46C412.294 1261.02 415.62 1261.64 418.439 1262.89C421.257 1264.13 423.428 1265.97 424.951 1268.41C426.5 1270.82 427.275 1273.79 427.275 1277.32C427.275 1279.94 426.716 1282.31 425.599 1284.44C424.507 1286.58 422.996 1288.37 421.067 1289.81C419.137 1291.24 416.903 1292.21 414.363 1292.75L412.726 1293.36H393.492L393.416 1289.36H409.527C412.421 1289.36 414.833 1288.8 416.763 1287.68C418.693 1286.56 420.14 1285.09 421.105 1283.26C422.095 1281.41 422.59 1279.43 422.59 1277.32C422.59 1274.81 422.044 1272.64 420.952 1270.81C419.886 1268.96 418.299 1267.53 416.192 1266.54C414.084 1265.55 411.507 1265.06 408.46 1265.06H395.13V1316.47H390.445V1261.02ZM424.685 1316.47L410.326 1291.68L415.354 1291.64L429.674 1315.98V1316.47H424.685ZM482.415 1312.48V1316.47H451.223V1312.48H482.415ZM452.632 1261.02V1316.47H447.948V1261.02H452.632ZM478.531 1285.89V1289.89H451.223V1285.89H478.531ZM482.225 1261.02V1265.06H451.223V1261.02H482.225Z" fill="white"/>
<defs>
<linearGradient id="paint0_linear_795_40933" x1="128.475" y1="404.882" x2="242.235" y2="229.974" gradientUnits="userSpaceOnUse">
<stop stop-color="#DDDDDD"/>
<stop offset="1" stop-color="#F9F9F9"/>
</linearGradient>
<linearGradient id="paint1_linear_795_40933" x1="316.015" y1="215.515" x2="161.087" y2="436.104" gradientUnits="userSpaceOnUse">
<stop stop-color="#DDDDDD"/>
<stop offset="1" stop-color="#ABABAB"/>
</linearGradient>
<linearGradient id="paint2_linear_795_40933" x1="274.899" y1="277.288" x2="153.549" y2="345.96" gradientUnits="userSpaceOnUse">
<stop stop-color="#DDDDDD"/>
<stop offset="1" stop-color="white"/>
</linearGradient>
<linearGradient id="paint3_linear_795_40933" x1="179.571" y1="414.727" x2="274.545" y2="268.71" gradientUnits="userSpaceOnUse">
<stop stop-color="#B92222"/>
<stop offset="0.2473" stop-color="#DD2F2F"/>
<stop offset="0.8548" stop-color="#FF6757"/>
</linearGradient>
<linearGradient id="paint4_linear_795_40933" x1="343.007" y1="261.1" x2="213.659" y2="445.257" gradientUnits="userSpaceOnUse">
<stop stop-color="#8C610A"/>
<stop offset="0.2661" stop-color="#E4A663"/>
<stop offset="0.7285" stop-color="#FFEFAB"/>
<stop offset="1" stop-color="#F8B143"/>
</linearGradient>
<linearGradient id="paint5_linear_795_40933" x1="201.783" y1="452.158" x2="315.542" y2="277.249" gradientUnits="userSpaceOnUse">
<stop stop-color="#DDDDDD"/>
<stop offset="1" stop-color="#F9F9F9"/>
</linearGradient>
<linearGradient id="paint6_linear_795_40933" x1="389.322" y1="262.791" x2="234.395" y2="483.38" gradientUnits="userSpaceOnUse">
<stop stop-color="#DDDDDD"/>
<stop offset="1" stop-color="#ABABAB"/>
</linearGradient>
<linearGradient id="paint7_linear_795_40933" x1="321.382" y1="279.108" x2="301.527" y2="307.381" gradientUnits="userSpaceOnUse">
<stop stop-color="#303030"/>
<stop offset="1" stop-color="#727272"/>
</linearGradient>
<linearGradient id="paint8_linear_795_40933" x1="321.382" y1="441.514" x2="301.527" y2="469.787" gradientUnits="userSpaceOnUse">
<stop stop-color="#303030"/>
<stop offset="1" stop-color="#727272"/>
</linearGradient>
<linearGradient id="paint9_linear_795_40933" x1="232.834" y1="371.95" x2="212.978" y2="400.222" gradientUnits="userSpaceOnUse">
<stop stop-color="#303030"/>
<stop offset="1" stop-color="#727272"/>
</linearGradient>
<linearGradient id="paint10_linear_795_40933" x1="406.45" y1="322.691" x2="386.594" y2="350.964" gradientUnits="userSpaceOnUse">
<stop stop-color="#303030"/>
<stop offset="1" stop-color="#727272"/>
</linearGradient>
<linearGradient id="paint11_linear_795_40933" x1="373.475" y1="283.69" x2="353.62" y2="311.963" gradientUnits="userSpaceOnUse">
<stop stop-color="#303030"/>
<stop offset="1" stop-color="#727272"/>
</linearGradient>
<linearGradient id="paint12_linear_795_40933" x1="256.35" y1="433.367" x2="236.494" y2="461.639" gradientUnits="userSpaceOnUse">
<stop stop-color="#303030"/>
<stop offset="1" stop-color="#727272"/>
</linearGradient>
<linearGradient id="paint13_linear_795_40933" x1="380.731" y1="394.009" x2="360.876" y2="422.282" gradientUnits="userSpaceOnUse">
<stop stop-color="#303030"/>
<stop offset="1" stop-color="#727272"/>
</linearGradient>
<linearGradient id="paint14_linear_795_40933" x1="265.192" y1="312.844" x2="245.336" y2="341.117" gradientUnits="userSpaceOnUse">
<stop stop-color="#303030"/>
<stop offset="1" stop-color="#727272"/>
</linearGradient>
<linearGradient id="paint15_linear_795_40933" x1="399.266" y1="338.2" x2="267.638" y2="363.263" gradientUnits="userSpaceOnUse">
<stop stop-color="#DDDDDD"/>
<stop offset="1" stop-color="white"/>
</linearGradient>
<linearGradient id="paint16_linear_795_40933" x1="20.092" y1="534.857" x2="214.333" y2="534.857" gradientUnits="userSpaceOnUse">
<stop stop-color="#B92222"/>
<stop offset="0.2473" stop-color="#DD2F2F"/>
<stop offset="0.8548" stop-color="#FF6757"/>
</linearGradient>
<linearGradient id="paint17_linear_795_40933" x1="1.88961" y1="573.649" x2="47.0007" y2="573.649" gradientUnits="userSpaceOnUse">
<stop stop-color="#B92222"/>
<stop offset="0.2473" stop-color="#DD2F2F"/>
<stop offset="0.8548" stop-color="#FF6757"/>
</linearGradient>
<linearGradient id="paint18_linear_795_40933" x1="710.329" y1="230.822" x2="436.926" y2="270.473" gradientUnits="userSpaceOnUse">
<stop stop-color="#F4F4F4"/>
<stop offset="1" stop-color="#ABABAB"/>
</linearGradient>
<linearGradient id="paint19_linear_795_40933" x1="710.077" y1="229.084" x2="436.673" y2="268.735" gradientUnits="userSpaceOnUse">
<stop stop-color="#F4F4F4"/>
<stop offset="1" stop-color="#ABABAB"/>
</linearGradient>
<linearGradient id="paint20_linear_795_40933" x1="710.361" y1="231.05" x2="436.958" y2="270.701" gradientUnits="userSpaceOnUse">
<stop stop-color="#F4F4F4"/>
<stop offset="1" stop-color="#ABABAB"/>
</linearGradient>
<linearGradient id="paint21_linear_795_40933" x1="710.362" y1="231.062" x2="436.959" y2="270.713" gradientUnits="userSpaceOnUse">
<stop stop-color="#F4F4F4"/>
<stop offset="1" stop-color="#ABABAB"/>
</linearGradient>
<linearGradient id="paint22_linear_795_40933" x1="710.365" y1="231.078" x2="436.962" y2="270.729" gradientUnits="userSpaceOnUse">
<stop stop-color="#F4F4F4"/>
<stop offset="1" stop-color="#ABABAB"/>
</linearGradient>
<linearGradient id="paint23_linear_795_40933" x1="710.367" y1="231.092" x2="436.964" y2="270.743" gradientUnits="userSpaceOnUse">
<stop stop-color="#F4F4F4"/>
<stop offset="1" stop-color="#ABABAB"/>
</linearGradient>
<linearGradient id="paint24_linear_795_40933" x1="710.333" y1="230.853" x2="436.93" y2="270.504" gradientUnits="userSpaceOnUse">
<stop stop-color="#F4F4F4"/>
<stop offset="1" stop-color="#ABABAB"/>
</linearGradient>
<linearGradient id="paint25_linear_795_40933" x1="711.12" y1="236.28" x2="437.716" y2="275.931" gradientUnits="userSpaceOnUse">
<stop stop-color="#F4F4F4"/>
<stop offset="1" stop-color="#ABABAB"/>
</linearGradient>
<linearGradient id="paint26_linear_795_40933" x1="425.856" y1="323.144" x2="680.15" y2="323.144" gradientUnits="userSpaceOnUse">
<stop stop-color="#DDDDDD"/>
<stop offset="1" stop-color="#ABABAB"/>
</linearGradient>
<linearGradient id="paint27_linear_795_40933" x1="446.442" y1="263.457" x2="436.101" y2="301.592" gradientUnits="userSpaceOnUse">
<stop stop-color="#B92222"/>
<stop offset="0.2473" stop-color="#DD2F2F"/>
<stop offset="0.8548" stop-color="#FF6757"/>
</linearGradient>
<linearGradient id="paint28_linear_795_40933" x1="438.126" y1="305.218" x2="441.929" y2="259.777" gradientUnits="userSpaceOnUse">
<stop stop-color="#B92222"/>
<stop offset="0.2473" stop-color="#DD2F2F"/>
<stop offset="0.8548" stop-color="#FF6757"/>
</linearGradient>
<linearGradient id="paint29_linear_795_40933" x1="452.155" y1="263.017" x2="458.123" y2="271.312" gradientUnits="userSpaceOnUse">
<stop stop-color="#303030"/>
<stop offset="1" stop-color="#727272"/>
</linearGradient>
<linearGradient id="paint30_linear_795_40933" x1="443.747" y1="293.258" x2="449.715" y2="301.554" gradientUnits="userSpaceOnUse">
<stop stop-color="#303030"/>
<stop offset="1" stop-color="#727272"/>
</linearGradient>
<linearGradient id="paint31_linear_795_40933" x1="425.526" y1="274.493" x2="431.494" y2="282.788" gradientUnits="userSpaceOnUse">
<stop stop-color="#303030"/>
<stop offset="1" stop-color="#727272"/>
</linearGradient>
<linearGradient id="paint32_linear_795_40933" x1="449.221" y1="420.712" x2="338.239" y2="501.426" gradientUnits="userSpaceOnUse">
<stop stop-color="#B92222"/>
<stop offset="0.2473" stop-color="#DD2F2F"/>
<stop offset="0.8548" stop-color="#FF6757"/>
</linearGradient>
<linearGradient id="paint33_linear_795_40933" x1="299.772" y1="457.034" x2="470.273" y2="457.034" gradientUnits="userSpaceOnUse">
<stop stop-color="#B92222"/>
<stop offset="0.2473" stop-color="#DD2F2F"/>
<stop offset="0.8548" stop-color="#FF6757"/>
</linearGradient>
<linearGradient id="paint34_linear_795_40933" x1="390.962" y1="538.452" x2="386.09" y2="458.22" gradientUnits="userSpaceOnUse">
<stop stop-color="white"/>
<stop offset="1" stop-color="#FF6757"/>
</linearGradient>
<linearGradient id="paint35_linear_795_40933" x1="268.975" y1="575.614" x2="349.293" y2="573.001" gradientUnits="userSpaceOnUse">
<stop stop-color="#82FB7C"/>
<stop offset="1" stop-color="#0BA2B3"/>
</linearGradient>
<linearGradient id="paint36_linear_795_40933" x1="316.862" y1="530.943" x2="284.683" y2="594.731" gradientUnits="userSpaceOnUse">
<stop stop-color="#82FB7C"/>
<stop offset="1" stop-color="#0BA2B3"/>
</linearGradient>
<linearGradient id="paint37_linear_795_40933" x1="295.65" y1="588.29" x2="349.733" y2="586.531" gradientUnits="userSpaceOnUse">
<stop stop-color="#0C775D"/>
<stop offset="1" stop-color="#0BA2B3"/>
</linearGradient>
<linearGradient id="paint38_linear_795_40933" x1="332.934" y1="599.573" x2="428.258" y2="596.472" gradientUnits="userSpaceOnUse">
<stop stop-color="#82FB7C"/>
<stop offset="1" stop-color="#0BA2B3"/>
</linearGradient>
<linearGradient id="paint39_linear_795_40933" x1="398.02" y1="536.872" x2="353.297" y2="625.527" gradientUnits="userSpaceOnUse">
<stop stop-color="#82FB7C"/>
<stop offset="1" stop-color="#0BA2B3"/>
</linearGradient>
<linearGradient id="paint40_linear_795_40933" x1="359.61" y1="612.25" x2="428.699" y2="610.002" gradientUnits="userSpaceOnUse">
<stop stop-color="#0C775D"/>
<stop offset="1" stop-color="#0BA2B3"/>
</linearGradient>
<linearGradient id="paint41_linear_795_40933" x1="396.933" y1="624.691" x2="503.703" y2="621.217" gradientUnits="userSpaceOnUse">
<stop stop-color="#82FB7C"/>
<stop offset="1" stop-color="#0BA2B3"/>
</linearGradient>
<linearGradient id="paint42_linear_795_40933" x1="476.222" y1="546.245" x2="420.527" y2="656.649" gradientUnits="userSpaceOnUse">
<stop stop-color="#82FB7C"/>
<stop offset="1" stop-color="#0BA2B3"/>
</linearGradient>
<linearGradient id="paint43_linear_795_40933" x1="423.608" y1="637.367" x2="504.143" y2="634.747" gradientUnits="userSpaceOnUse">
<stop stop-color="#0C775D"/>
<stop offset="1" stop-color="#0BA2B3"/>
</linearGradient>
<linearGradient id="paint44_linear_795_40933" x1="460.515" y1="637.019" x2="596.248" y2="632.603" gradientUnits="userSpaceOnUse">
<stop stop-color="#82FB7C"/>
<stop offset="1" stop-color="#0BA2B3"/>
</linearGradient>
<linearGradient id="paint45_linear_795_40933" x1="572.801" y1="524.137" x2="493.15" y2="682.028" gradientUnits="userSpaceOnUse">
<stop stop-color="#82FB7C"/>
<stop offset="1" stop-color="#0BA2B3"/>
</linearGradient>
<linearGradient id="paint46_linear_795_40933" x1="487.189" y1="649.695" x2="596.688" y2="646.133" gradientUnits="userSpaceOnUse">
<stop stop-color="#0C775D"/>
<stop offset="1" stop-color="#0BA2B3"/>
</linearGradient>
<linearGradient id="paint47_linear_795_40933" x1="525.236" y1="684.375" x2="647.529" y2="680.396" gradientUnits="userSpaceOnUse">
<stop stop-color="#82FB7C"/>
<stop offset="1" stop-color="#0BA2B3"/>
</linearGradient>
<linearGradient id="paint48_linear_795_40933" x1="622.698" y1="586.576" x2="553.532" y2="723.683" gradientUnits="userSpaceOnUse">
<stop stop-color="#82FB7C"/>
<stop offset="1" stop-color="#0BA2B3"/>
</linearGradient>
<linearGradient id="paint49_linear_795_40933" x1="551.911" y1="697.051" x2="647.97" y2="693.926" gradientUnits="userSpaceOnUse">
<stop stop-color="#0C775D"/>
<stop offset="1" stop-color="#0BA2B3"/>
</linearGradient>
<linearGradient id="paint50_linear_795_40933" x1="745.237" y1="494.552" x2="666.474" y2="541.788" gradientUnits="userSpaceOnUse">
<stop stop-color="#77F381"/>
<stop offset="1" stop-color="#2DBBA3"/>
</linearGradient>
<linearGradient id="paint51_linear_795_40933" x1="655.944" y1="498.36" x2="704.365" y2="529.166" gradientUnits="userSpaceOnUse">
<stop stop-color="#77F381"/>
<stop offset="1" stop-color="#2DBBA3"/>
</linearGradient>
<linearGradient id="paint52_linear_795_40933" x1="240.535" y1="640.447" x2="185.547" y2="673.424" gradientUnits="userSpaceOnUse">
<stop stop-color="#FF9D00"/>
<stop offset="1" stop-color="#FFE84C"/>
</linearGradient>
<linearGradient id="paint53_linear_795_40933" x1="178.197" y1="643.106" x2="212.001" y2="664.612" gradientUnits="userSpaceOnUse">
<stop stop-color="#FF9D00"/>
<stop offset="1" stop-color="#FFE84C"/>
</linearGradient>
<linearGradient id="paint54_linear_795_40933" x1="436.218" y1="179.83" x2="357.685" y2="178.42" gradientUnits="userSpaceOnUse">
<stop stop-color="#8C610A"/>
<stop offset="0.2661" stop-color="#E4A663"/>
<stop offset="0.7285" stop-color="#FFEFAB"/>
<stop offset="1" stop-color="#F8B143"/>
</linearGradient>
<linearGradient id="paint55_linear_795_40933" x1="453.057" y1="160.316" x2="358.341" y2="185.126" gradientUnits="userSpaceOnUse">
<stop stop-color="#8C610A"/>
<stop offset="0.2661" stop-color="#E4A663"/>
<stop offset="0.7285" stop-color="#FFEFAB"/>
<stop offset="1" stop-color="#F8B143"/>
</linearGradient>
<linearGradient id="paint56_linear_795_40933" x1="381.251" y1="207.583" x2="353.753" y2="207.089" gradientUnits="userSpaceOnUse">
<stop stop-color="#8C610A"/>
<stop offset="0.6692" stop-color="#E4A663"/>
<stop offset="1" stop-color="#FFEFAB"/>
</linearGradient>
<linearGradient id="paint57_linear_795_40933" x1="419.189" y1="217.93" x2="383.604" y2="209.857" gradientUnits="userSpaceOnUse">
<stop stop-color="#8C610A"/>
<stop offset="0.6692" stop-color="#E4A663"/>
<stop offset="1" stop-color="#FFEFAB"/>
</linearGradient>
<linearGradient id="paint58_linear_795_40933" x1="446.82" y1="183.523" x2="418.769" y2="177.159" gradientUnits="userSpaceOnUse">
<stop stop-color="#8C610A"/>
<stop offset="0.6692" stop-color="#E4A663"/>
<stop offset="1" stop-color="#FFEFAB"/>
</linearGradient>
<linearGradient id="paint59_linear_795_40933" x1="365.548" y1="168.063" x2="336.667" y2="161.51" gradientUnits="userSpaceOnUse">
<stop stop-color="#8C610A"/>
<stop offset="0.6692" stop-color="#E4A663"/>
<stop offset="1" stop-color="#FFEFAB"/>
</linearGradient>
<linearGradient id="paint60_linear_795_40933" x1="384.657" y1="194.474" x2="354.625" y2="209.26" gradientUnits="userSpaceOnUse">
<stop stop-color="#8C610A"/>
<stop offset="0.2661" stop-color="white"/>
<stop offset="1" stop-color="#FFEFAB"/>
</linearGradient>
<linearGradient id="paint61_linear_795_40933" x1="445.188" y1="154.283" x2="401.016" y2="176.031" gradientUnits="userSpaceOnUse">
<stop stop-color="#8C610A"/>
<stop offset="0.2661" stop-color="white"/>
<stop offset="1" stop-color="#FFEFAB"/>
</linearGradient>
<linearGradient id="paint62_linear_795_40933" x1="732.794" y1="334.378" x2="777.157" y2="381.985" gradientUnits="userSpaceOnUse">
<stop stop-color="#FF9D00"/>
<stop offset="1" stop-color="#FFE84C"/>
</linearGradient>
<linearGradient id="paint63_linear_795_40933" x1="809.523" y1="372.653" x2="735.397" y2="345.965" gradientUnits="userSpaceOnUse">
<stop stop-color="#FF9D00"/>
<stop offset="1" stop-color="#FFE84C"/>
</linearGradient>
<linearGradient id="paint64_linear_795_40933" x1="764.52" y1="733.925" x2="645.641" y2="752.096" gradientUnits="userSpaceOnUse">
<stop stop-color="#B92222"/>
<stop offset="0.2473" stop-color="#DD2F2F"/>
<stop offset="0.8548" stop-color="#FF6757"/>
</linearGradient>
<linearGradient id="paint65_linear_795_40933" x1="675.095" y1="688.974" x2="715.799" y2="758.425" gradientUnits="userSpaceOnUse">
<stop stop-color="#B92222"/>
<stop offset="0.2473" stop-color="#DD2F2F"/>
<stop offset="0.8548" stop-color="#FF6757"/>
</linearGradient>
<linearGradient id="paint66_linear_795_40933" x1="731.316" y1="779.387" x2="643.497" y2="719.389" gradientUnits="userSpaceOnUse">
<stop stop-color="#B92222"/>
<stop offset="0.2473" stop-color="white"/>
<stop offset="0.8548" stop-color="#FF6757"/>
</linearGradient>
<clipPath id="clip0_795_40933">
<rect width="811.654" height="955.77" fill="white"/>
</clipPath>
</defs>
</svg>
