<svg width="232" height="231" viewBox="0 0 232 231" fill="none" xmlns="http://www.w3.org/2000/svg">
<g id="19303513_check_signature31021 1">
<g id="Group">
<g id="Group_2">
<path id="Vector" opacity="0.5" d="M134.552 67.6053C136.729 67.6053 138.494 65.8404 138.494 63.6633C138.494 61.4861 136.729 59.7212 134.552 59.7212C132.375 59.7212 130.61 61.4861 130.61 63.6633C130.61 65.8404 132.375 67.6053 134.552 67.6053Z" fill="#52D1BD"/>
<path id="Vector_2" d="M162.116 90.2247C155.413 70.3862 169.216 56.895 154.601 46.7021C133.021 31.6509 64.1941 43.0092 44.415 88.762C26.04 131.267 56.4299 187.55 105.741 196.132C153.531 204.45 209.406 164.894 199.022 137.463C192.666 120.672 174.09 125.66 162.116 90.2247Z" fill="#ECF3FE"/>
<path id="Vector_3" opacity="0.2" d="M192.362 98.3997L183.257 86.0886L117.198 76.1972C115.526 75.9469 113.968 77.0991 113.718 78.7706L99.4839 173.835C99.2336 175.506 100.386 177.064 102.057 177.314L175.798 188.356C177.469 188.606 179.027 187.454 179.278 185.782L192.034 100.59L192.362 98.3997Z" fill="#3A7EC1"/>
<g id="Group_3">
<path id="Vector_4" d="M184.023 85.5477L118.691 71.6404C117.038 71.2886 115.413 72.3434 115.061 73.9965L95.0472 168.014C94.6953 169.667 95.7501 171.292 97.4032 171.644L170.332 187.168C171.985 187.52 173.61 186.465 173.962 184.812L192.359 98.3919L184.023 85.5477Z" fill="#3B82F4"/>
<path id="Vector_5" d="M182.406 93.144C182.054 94.7971 183.108 96.4224 184.762 96.7744L192.358 98.3915L184.023 85.5474L182.406 93.144Z" fill="#9FCBFF"/>
<path id="Vector_6" d="M180.385 102.16L141.936 93.9757C140.938 93.7631 140.3 92.7814 140.513 91.7829C140.726 90.7843 141.707 90.1472 142.706 90.3597L181.155 98.5445C182.154 98.757 182.791 99.7388 182.578 100.737C182.366 101.736 181.384 102.373 180.385 102.16Z" fill="#B3CEF6"/>
<path id="Vector_7" d="M178.41 111.442L139.961 103.257C138.962 103.044 138.325 102.063 138.537 101.064C138.75 100.066 139.732 99.4284 140.73 99.641L179.18 107.826C180.178 108.038 180.815 109.02 180.603 110.019C180.39 111.017 179.408 111.654 178.41 111.442Z" fill="#B3CEF6"/>
<path id="Vector_8" d="M176.434 120.722L118.893 108.473C117.895 108.261 117.258 107.279 117.47 106.28C117.683 105.282 118.664 104.645 119.663 104.857L177.204 117.106C178.203 117.319 178.84 118.3 178.627 119.299C178.414 120.297 177.433 120.935 176.434 120.722Z" fill="#B3CEF6"/>
<path id="Vector_9" d="M174.459 130.003L116.918 117.754C115.919 117.542 115.282 116.56 115.494 115.562C115.707 114.563 116.689 113.926 117.687 114.139L175.228 126.387C176.227 126.6 176.864 127.582 176.651 128.58C176.439 129.579 175.457 130.216 174.459 130.003Z" fill="#B3CEF6"/>
<path id="Vector_10" d="M157.778 136.153L114.942 127.034C113.943 126.822 113.306 125.84 113.519 124.841C113.731 123.843 114.713 123.206 115.712 123.418L158.548 132.537C159.547 132.75 160.184 133.731 159.971 134.73C159.759 135.728 158.777 136.365 157.778 136.153Z" fill="#B3CEF6"/>
<path id="Vector_11" d="M170.507 148.565L112.966 136.316C111.967 136.103 111.33 135.122 111.543 134.123C111.755 133.125 112.737 132.487 113.736 132.7L171.277 144.949C172.275 145.161 172.912 146.143 172.7 147.142C172.487 148.14 171.506 148.777 170.507 148.565Z" fill="#B3CEF6"/>
<path id="Vector_12" d="M168.531 157.846L110.99 145.597C109.992 145.385 109.355 144.403 109.567 143.404C109.78 142.406 110.762 141.769 111.76 141.981L169.301 154.23C170.3 154.443 170.937 155.424 170.724 156.423C170.512 157.421 169.53 158.059 168.531 157.846Z" fill="#B3CEF6"/>
<path id="Vector_13" d="M166.556 167.126L109.015 154.877C108.016 154.664 107.379 153.683 107.592 152.684C107.804 151.686 108.786 151.049 109.785 151.261L167.326 163.51C168.324 163.722 168.961 164.704 168.749 165.703C168.536 166.701 167.554 167.338 166.556 167.126Z" fill="#B3CEF6"/>
<path id="Vector_14" d="M164.58 176.408L107.039 164.159C106.041 163.946 105.404 162.964 105.616 161.966C105.829 160.967 106.81 160.33 107.809 160.543L165.35 172.792C166.348 173.004 166.986 173.986 166.773 174.984C166.561 175.983 165.579 176.62 164.58 176.408Z" fill="#B3CEF6"/>
<path id="Vector_15" d="M120.29 99.0691L131.821 101.524C132.5 101.668 133.167 101.235 133.312 100.556L135.534 90.1179C135.678 89.4389 135.245 88.7714 134.566 88.6269L123.035 86.1723C122.356 86.0278 121.689 86.461 121.544 87.14L119.322 97.5781C119.178 98.2569 119.611 98.9245 120.29 99.0691Z" fill="#B3CEF6"/>
<path id="Vector_16" d="M184.481 96.7153L191.898 100.559L192.359 98.3923L184.481 96.7153Z" fill="#1E6AD8"/>
</g>
<path id="Vector_17" opacity="0.2" d="M158.732 171.053L141.255 59.9216C140.948 57.9677 139.114 56.6327 137.16 56.94L50.9558 70.4972C49.0018 70.8045 47.6669 72.6377 47.9742 74.5917L65.4517 185.724C65.759 187.678 67.5922 189.012 69.5462 188.705L155.751 175.148C157.705 174.841 159.04 173.008 158.732 171.053Z" fill="#3A7EC1"/>
<g id="Group_4">
<path id="Vector_18" d="M156.012 174.794L69.1846 183.516C67.2165 183.714 65.4607 182.279 65.263 180.311L54.0187 68.3763C53.821 66.4083 55.2562 64.6525 57.2243 64.4548L144.051 55.7326C146.02 55.5348 147.775 56.9701 147.973 58.9382L159.217 170.873C159.415 172.841 157.98 174.597 156.012 174.794Z" fill="white"/>
<path id="Vector_19" d="M136.88 76.4562L91.1038 81.0547C89.915 81.1741 88.8545 80.3072 88.7351 79.1184C88.6157 77.9295 89.4826 76.869 90.6714 76.7496L136.448 72.1511C137.637 72.0317 138.697 72.8986 138.817 74.0874C138.936 75.2762 138.069 76.3368 136.88 76.4562Z" fill="#E4ECF9"/>
<path id="Vector_20" d="M137.99 87.505L92.2137 92.1035C91.0249 92.2229 89.9644 91.356 89.845 90.1672C89.7256 88.9784 90.5925 87.9179 91.7813 87.7985L137.558 83.2C138.747 83.0806 139.807 83.9474 139.927 85.1363C140.046 86.3251 139.179 87.3856 137.99 87.505Z" fill="#E4ECF9"/>
<path id="Vector_21" d="M139.101 98.5553L70.5941 105.437C69.4053 105.557 68.3448 104.69 68.2253 103.501C68.1059 102.312 68.9728 101.252 70.1616 101.132L138.669 94.2503C139.857 94.1308 140.918 94.9977 141.037 96.1866C141.157 97.3753 140.29 98.4358 139.101 98.5553Z" fill="#E4ECF9"/>
<path id="Vector_22" d="M140.211 109.604L71.7039 116.486C70.5151 116.605 69.4546 115.738 69.3352 114.55C69.2158 113.361 70.0827 112.3 71.2715 112.181L139.778 105.299C140.967 105.18 142.028 106.047 142.147 107.235C142.267 108.424 141.4 109.485 140.211 109.604Z" fill="#E4ECF9"/>
<path id="Vector_23" d="M123.814 122.412L72.8138 127.535C71.625 127.655 70.5645 126.788 70.4451 125.599C70.3257 124.41 71.1926 123.35 72.3814 123.23L123.381 118.107C124.57 117.988 125.631 118.855 125.75 120.043C125.869 121.232 125.002 122.293 123.814 122.412Z" fill="#E4ECF9"/>
<path id="Vector_24" d="M142.431 131.703L73.9237 138.585C72.7349 138.705 71.6743 137.838 71.5549 136.649C71.4355 135.46 72.3024 134.399 73.4912 134.28L141.998 127.398C143.187 127.279 144.247 128.146 144.367 129.334C144.486 130.523 143.619 131.584 142.431 131.703Z" fill="#E4ECF9"/>
<path id="Vector_25" d="M143.54 142.752L75.0335 149.634C73.8447 149.753 72.7842 148.886 72.6648 147.698C72.5454 146.509 73.4123 145.448 74.6011 145.329L143.108 138.447C144.297 138.328 145.357 139.195 145.477 140.383C145.596 141.572 144.729 142.633 143.54 142.752Z" fill="#E4ECF9"/>
<path id="Vector_26" d="M144.65 153.802L76.1434 160.684C74.9546 160.804 73.8941 159.937 73.7747 158.748C73.6553 157.559 74.5222 156.499 75.711 156.379L144.218 149.497C145.407 149.378 146.467 150.245 146.587 151.434C146.706 152.622 145.839 153.683 144.65 153.802Z" fill="#E4ECF9"/>
<path id="Vector_27" d="M145.76 164.851L77.2533 171.733C76.0645 171.852 75.0039 170.986 74.8845 169.797C74.7651 168.608 75.632 167.547 76.8208 167.428L145.328 160.546C146.517 160.427 147.577 161.294 147.696 162.482C147.816 163.671 146.949 164.732 145.76 164.851Z" fill="#E4ECF9"/>
<path id="Vector_28" d="M68.7957 94.4565L82.5239 93.0774C83.3322 92.9962 83.9217 92.2751 83.8405 91.4668L82.5921 79.0394C82.5109 78.2311 81.7898 77.6416 80.9815 77.7228L67.2533 79.1019C66.4449 79.1831 65.8555 79.9042 65.9367 80.7125L67.185 93.1399C67.2662 93.9482 67.9874 94.5377 68.7957 94.4565Z" fill="#52D1BD"/>
</g>
<path id="Vector_29" opacity="0.2" d="M182.604 198.354L166.437 170.977L164.732 171.984L161.745 166.925C163.417 165.597 164.875 164.078 166.094 162.413C167.584 160.383 168.727 158.142 169.498 155.783C171.552 149.531 171.001 142.463 167.392 136.355C166.668 135.13 165.852 133.994 164.958 132.952C162.963 130.624 160.576 128.76 157.956 127.398C150.943 123.744 142.261 123.684 134.95 128C133.887 128.629 132.892 129.326 131.967 130.083C129.595 132.027 127.677 134.368 126.256 136.951C122.386 143.98 122.189 152.795 126.483 160.228C126.522 160.299 126.561 160.367 126.604 160.438C127.866 162.579 129.413 164.446 131.168 166.022C137.865 172.043 147.588 173.816 156.098 170.261L159.085 175.318L157.38 176.325L173.547 203.702C174.336 205.038 176.058 205.481 177.393 204.693L181.614 202.2C182.95 201.412 183.393 199.69 182.604 198.354Z" fill="#3A7EC1"/>
<g id="Group_5">
<path id="Vector_30" d="M161.809 159.507C159.972 162.017 157.603 164.205 154.755 165.885C145.629 171.273 134.366 169.844 126.883 163.116L161.809 159.507Z" fill="white"/>
<path id="Vector_31" d="M160.674 130.047L121.971 134.046C123.392 131.463 125.311 129.122 127.682 127.178L153.671 124.493C156.291 125.855 158.679 127.719 160.674 130.047Z" fill="#E4ECF9"/>
<path id="Vector_32" d="M165.213 152.878C164.442 155.237 163.299 157.478 161.809 159.508L126.883 163.116C125.128 161.54 123.581 159.673 122.319 157.533C122.276 157.462 122.238 157.393 122.198 157.322L165.213 152.878Z" fill="#E4ECF9"/>
<path id="Vector_33" d="M156.647 162.631L151 165.965L155.455 173.51L161.102 170.175L156.647 162.631Z" fill="#4C4C4C"/>
<path id="Vector_34" d="M163.107 133.449C162.383 132.225 161.567 131.088 160.674 130.047C158.679 127.718 156.291 125.854 153.671 124.492C146.659 120.838 137.976 120.778 130.665 125.094C129.602 125.723 128.607 126.42 127.682 127.177C125.311 129.121 123.392 131.463 121.971 134.045C118.101 141.074 117.904 149.89 122.199 157.322C122.238 157.393 122.277 157.462 122.319 157.533C123.581 159.673 125.128 161.54 126.883 163.116C134.367 169.844 145.629 171.273 154.755 165.885C157.603 164.205 159.972 162.017 161.81 159.507C163.299 157.477 164.442 155.237 165.213 152.878C167.267 146.625 166.717 139.557 163.107 133.449ZM160.442 153.371C159.303 155.933 157.604 158.269 155.397 160.17C154.532 160.918 153.59 161.595 152.573 162.196C146.432 165.823 139.109 165.678 133.293 162.454C130.854 161.105 128.678 159.213 126.967 156.829C126.629 156.36 126.308 155.868 126.006 155.36C121.816 148.262 122.66 139.585 127.472 133.477C128.915 131.643 130.715 130.042 132.844 128.784C140.117 124.489 149.047 125.483 155.171 130.615C156.818 131.994 158.262 133.674 159.418 135.628C162.732 141.236 162.897 147.833 160.442 153.371Z" fill="#5E5E5E"/>
<path id="Vector_35" d="M177.329 199.295L173.108 201.787C171.773 202.576 170.051 202.133 169.262 200.797L153.095 173.42L162.153 168.071L178.319 195.448C179.108 196.784 178.665 198.506 177.329 199.295Z" fill="#5E5E5E"/>
</g>
<path id="Vector_36" d="M41.9934 108.772C43.7776 106.987 43.7776 104.095 41.9934 102.31C40.2092 100.526 37.3165 100.526 35.5323 102.31C33.7481 104.095 33.7481 106.987 35.5323 108.772C37.3165 110.556 40.2092 110.556 41.9934 108.772Z" fill="#F9C067"/>
<path id="Vector_37" d="M47.8992 96.3845C48.1298 94.9424 47.1477 93.5864 45.7055 93.3558C44.2634 93.1252 42.9074 94.1073 42.6768 95.5494C42.4462 96.9916 43.4284 98.3476 44.8705 98.5782C46.3126 98.8088 47.6686 97.8266 47.8992 96.3845Z" fill="#F9C067"/>
<path id="Vector_38" opacity="0.2" d="M68.389 137.063C75.2138 130.238 75.2138 119.173 68.389 112.348C61.5642 105.523 50.4991 105.523 43.6743 112.348C36.8495 119.173 36.8495 130.238 43.6743 137.063C50.4991 143.888 61.5642 143.888 68.389 137.063Z" fill="#3A7EC1"/>
<path id="Vector_39" d="M71.4042 134.158C78.2289 127.333 78.2289 116.268 71.4042 109.443C64.5794 102.619 53.5142 102.619 46.6894 109.443C39.8646 116.268 39.8646 127.333 46.6894 134.158C53.5142 140.983 64.5794 140.983 71.4042 134.158Z" fill="#F9C067"/>
<path id="Vector_40" d="M56.5715 132.275C56.3605 132.31 56.1392 132.296 55.9241 132.226L51.4551 130.777C50.732 130.543 50.3359 129.766 50.5704 129.043C50.8048 128.32 51.5811 127.924 52.3044 128.159L55.6609 129.247L63.7159 113.616C64.0641 112.94 64.8943 112.675 65.5698 113.023C66.2456 113.372 66.5111 114.202 66.1628 114.877L57.5722 131.547C57.3669 131.946 56.9897 132.207 56.5715 132.275Z" fill="white"/>
<path id="Vector_41" d="M120.979 191.758C122.152 191.758 123.103 190.807 123.103 189.634C123.103 188.461 122.152 187.51 120.979 187.51C119.806 187.51 118.855 188.461 118.855 189.634C118.855 190.807 119.806 191.758 120.979 191.758Z" fill="#3B82F4"/>
<path id="Vector_42" d="M179.053 69.5057C181.231 69.5057 182.995 67.7408 182.995 65.5637C182.995 63.3865 181.231 61.6216 179.053 61.6216C176.876 61.6216 175.111 63.3865 175.111 65.5637C175.111 67.7408 176.876 69.5057 179.053 69.5057Z" fill="#52D1BD"/>
</g>
</g>
</g>
</svg>
