<svg width="518" height="252" viewBox="0 0 518 252" fill="none" xmlns="http://www.w3.org/2000/svg">
<g clip-path="url(#clip0_410_2345)">
<g clip-path="url(#clip1_410_2345)">
<path d="M69.1704 178.811H56.8262V191.155H69.1704V178.811ZM57.3828 179.368H68.6126V190.598H57.3828V179.368Z" fill="#C9C9C9"/>
<path d="M108.309 183.024H95.9648V195.369H108.309V183.024ZM96.5221 183.582H107.752V194.811H96.5221V183.582Z" fill="#C9C9C9"/>
<path d="M4.71475 180.9H-7.62891V193.244H4.71475V180.9ZM-7.07168 181.457H4.15753V192.687H-7.07168V181.457Z" fill="#C9C9C9"/>
<path d="M48.1098 160.72H35.7656V173.064H48.1098V160.72ZM36.3229 161.277H47.5526V172.506H36.3229V161.277Z" fill="#C9C9C9"/>
<path d="M2.28423 159.899H-10.0605V172.243H2.28423V159.899ZM-9.50332 160.456H1.727V171.686H-9.50332V160.456Z" fill="#C9C9C9"/>
<path d="M22.4249 180.518H12.7715V190.172H22.4249V180.518ZM13.3287 181.075H21.8676V189.614H13.3287V181.075Z" fill="#C9C9C9"/>
<path d="M38.2106 168.019H28.5566V177.673H38.2106V168.019ZM29.1139 168.577H37.6533V177.116H29.1139V168.577Z" fill="#C9C9C9"/>
<path d="M81.0178 184.405H71.3633V194.059H81.0172L81.0178 184.405ZM71.9205 184.962H80.46V193.502H71.9205V184.962Z" fill="#C9C9C9"/>
<path d="M98.6754 172.596H89.0215V182.25H98.6754V172.596ZM89.5787 173.153H98.1182V181.692H89.5787V173.153Z" fill="#C9C9C9"/>
<path d="M82.6227 159.486H72.9688V169.14H82.6227V159.486ZM73.526 160.043H82.0655V168.583H73.526V160.043Z" fill="#C9C9C9"/>
<path d="M126.502 181.424H116.848V191.079H126.502V181.424ZM117.404 181.982H125.944V190.522H117.404V181.982Z" fill="#C9C9C9"/>
<path d="M124.091 161.359H114.438V171.013H124.091V161.359ZM114.995 161.916H123.534V170.456H114.995V161.916Z" fill="#C9C9C9"/>
<path d="M154.594 177.411H144.939V187.065H154.593L154.594 177.411ZM145.497 177.969H154.036V186.508H145.497V177.969Z" fill="#C9C9C9"/>
<path d="M189.642 167.512H179.988V177.166H189.642V167.512ZM180.546 168.07H189.084V176.609H180.546V168.07Z" fill="#C9C9C9"/>
<path d="M174.125 184.873H164.471V194.528H174.125V184.873ZM165.028 185.43H173.567V193.97H165.028V185.43Z" fill="#C9C9C9"/>
<path d="M151.384 154.373H141.73V164.027H151.384V154.373ZM142.288 154.93H150.827V163.47H142.288V154.93Z" fill="#C9C9C9"/>
<path d="M199.81 184.338H190.156V193.992H199.81V184.338ZM190.713 184.895H199.253V193.435H190.713V184.895Z" fill="#C9C9C9"/>
<path d="M208.908 158.653H199.254V168.307H208.908V158.653ZM199.811 159.211H208.351V167.75H199.811V159.211Z" fill="#C9C9C9"/>
<path d="M231.299 152.232H226.273V161.886H231.299V152.232ZM226.831 152.79H230.741V161.329H226.831V152.79Z" fill="#C9C9C9"/>
<path d="M217.736 184.383H208.082V194.037H217.736V184.383ZM208.639 184.94H217.179V193.48H208.639V184.94Z" fill="#C9C9C9"/>
<path d="M223.888 170.455H214.234V180.109H223.888V170.455ZM214.792 171.013H223.331V179.552H214.792V171.013Z" fill="#C9C9C9"/>
<path d="M301.211 181.462H291.557V191.116H301.211V181.462H301.211ZM292.114 182.02H300.653V190.558H292.114V182.02Z" fill="#C9C9C9"/>
<path d="M330.376 170.456H320.723V180.11H330.376V170.456ZM321.279 171.013H329.818V179.552H321.279V171.013Z" fill="#C9C9C9"/>
<path d="M346.696 182.227H337.043V191.881H346.696V182.227ZM337.6 182.785H346.139V191.324H337.6V182.785Z" fill="#C9C9C9"/>
<path d="M370.507 165.907H360.854V175.561H370.507V165.907ZM361.411 166.464H369.95V175.003H361.411V166.464Z" fill="#C9C9C9"/>
<path d="M398.064 179.285H388.41V188.938H398.064V179.285ZM388.967 179.842H397.507V188.381H388.967V179.842Z" fill="#C9C9C9"/>
<path d="M305.491 164.006H300.117V169.379H305.491V164.006ZM300.675 164.563H304.934V168.822H300.675V164.563Z" fill="#C9C9C9"/>
<path d="M195.867 163.739H190.494V169.112H195.867V163.739ZM191.051 164.296H195.31V168.555H191.051V164.296Z" fill="#C9C9C9"/>
<path d="M176.801 154.106H171.428V159.48H176.801V154.106ZM171.986 154.664H176.244V158.923H171.986V154.664Z" fill="#C9C9C9"/>
<path d="M165.295 175.004H159.922V180.377H165.295V175.004ZM160.479 175.561H164.738V179.82H160.479V175.561Z" fill="#C9C9C9"/>
<path d="M91.4534 187.283H86.0801V192.656H91.4534V187.283ZM86.6379 187.84H90.8967V192.099H86.6379V187.84Z" fill="#C9C9C9"/>
<path d="M35.2659 150.093H29.8926V155.467H35.2659V150.093ZM30.4498 150.65H34.7087V154.909H30.4498V150.65Z" fill="#C9C9C9"/>
<path d="M12.5257 157.05H7.15234V162.423H12.5257V157.05ZM7.70957 157.607H11.9684V161.866H7.70957V157.607Z" fill="#C9C9C9"/>
<path d="M13.327 188.888H7.95312V194.261H13.327V188.888ZM8.51035 189.445H12.7698V193.704H8.51035V189.445Z" fill="#C9C9C9"/>
<path d="M286.308 149.603H276.654V159.258H286.308V149.603ZM277.212 150.161H285.751V158.701H277.212V150.161Z" fill="#C9C9C9"/>
<path d="M43.8298 137.482H35.7734V145.538H43.8298V137.482ZM36.3307 138.039H43.2726V144.981H36.3307V138.039Z" fill="#C9C9C9"/>
<path d="M67.9074 167.504H59.8516V175.561H67.9074V167.504ZM60.4088 168.062H67.3501V175.004H60.4088V168.062Z" fill="#C9C9C9"/>
<path d="M215.953 151.688H204.672V162.969H215.953V151.688ZM205.229 152.245H215.396V162.411H205.229V152.245Z" fill="#C9C9C9"/>
<path d="M24.8831 40.9162H16.6172V49.1826H24.8831V40.9162ZM17.1744 41.4734H24.3258V48.6254H17.1744V41.4734Z" fill="#C9C9C9"/>
<path d="M73.0461 63.2737H66.5957V69.7241H73.0461V63.2737ZM67.1529 63.8309H72.4889V69.1669H67.1529V63.8309Z" fill="#C9C9C9"/>
<path d="M68.6274 9.2229H65.123V12.7273H68.6274V9.2229ZM65.6803 9.78013H68.0702V12.1701H65.6803V9.78013Z" fill="#C9C9C9"/>
<path d="M37.6743 179.792H25.3301V192.136H37.6743V179.792ZM25.8873 180.349H37.1171V191.579H25.8873V180.349Z" fill="#C9C9C9"/>
<path d="M324.221 151.699H311.877V164.043H324.221V151.699ZM312.434 152.256H323.663V163.486H312.434V152.256Z" fill="#C9C9C9"/>
<path d="M20.8188 129.775H8.47461V142.119H20.8188V129.775ZM9.03183 130.332H20.2616V141.562H9.03183V130.332Z" fill="#C9C9C9"/>
<path d="M85.2989 172.795H75.377V182.717H85.2989V172.795ZM75.9342 173.352H84.7417V182.16H75.9342V173.352Z" fill="#C9C9C9"/>
<path d="M129.619 148.444H121.221V156.842H129.619V148.444ZM121.778 149.001H129.061V156.285H121.778V149.001Z" fill="#C9C9C9"/>
<path d="M37.9119 95.0078H33.3633V99.5564H37.9119V95.0078ZM33.9205 95.565H37.3547V98.9992H33.9205V95.565Z" fill="#C9C9C9"/>
<path d="M51.0411 81.3184H41.1152V80.7611H51.0411V81.3184Z" fill="#C9C9C9"/>
<path d="M91.2759 107.958H82.2344V116.999H91.2759V107.958ZM82.7916 108.515H90.7187V116.441H82.7916V108.515Z" fill="#C9C9C9"/>
<path d="M199.543 170.984H190.945V179.581H199.543V170.984ZM191.503 171.541H198.986V179.024H191.503V171.541Z" fill="#C9C9C9"/>
<path d="M392.097 120.21H383.5V128.808H392.097V120.21ZM384.057 120.768H391.54V128.251H384.057V120.768Z" fill="#C9C9C9"/>
<path d="M418.328 164.395H409.73V172.992H418.328V164.395ZM410.288 164.952H417.771V172.435H410.288V164.952Z" fill="#C9C9C9"/>
<path d="M394.859 170.984H386.262V179.581H394.859V170.984ZM386.819 171.541H394.302V179.023H386.819V171.541Z" fill="#C9C9C9"/>
<path d="M117.052 128.775H110.602V135.226H117.052V128.775ZM111.158 129.332H116.494V134.669H111.158V129.332Z" fill="#C9C9C9"/>
<path d="M308.377 120.268H296.033V132.612H308.377V120.268ZM296.59 120.825H307.82V132.055H296.59V120.825Z" fill="#C9C9C9"/>
<path d="M226.331 102.127H213.986V114.472H226.331V102.127ZM214.543 102.685H225.773V113.914H214.543V102.685Z" fill="#C9C9C9"/>
<path d="M359.802 132.53H350.213V142.119H359.802V132.53ZM350.77 133.087H359.244V141.562H350.77V133.087Z" fill="#C9C9C9"/>
<path d="M380.227 183.453H369.055V194.625H380.227V183.453ZM369.612 184.011H379.67V194.068H369.612V184.011Z" fill="#C9C9C9"/>
<path d="M298.391 167.409H286.047V179.753H298.391V167.409ZM286.604 167.966H297.834V179.196H286.604V167.966Z" fill="#C9C9C9"/>
<path d="M307.631 141.562H290.211V158.982H307.631V141.562ZM290.768 142.119H307.074V158.425H290.768V142.119Z" fill="#C9C9C9"/>
<path d="M271.513 111.833H265.062V118.284H271.513V111.833ZM265.62 112.39H270.956V117.726H265.62V112.39Z" fill="#C9C9C9"/>
<path d="M63.634 131.632H57.1836V138.083H63.634V131.632ZM57.7408 132.19H63.0768V137.526H57.7408V132.19Z" fill="#C9C9C9"/>
<path d="M175.463 165.714H165.615V175.561H175.463V165.714ZM166.172 166.271H174.905V175.004H166.172V166.271Z" fill="#C9C9C9"/>
<path d="M111.793 36.6489H105.342V43.0994H111.793V36.6489ZM105.899 37.2061H111.236V42.5421H105.899V37.2061Z" fill="#C9C9C9"/>
<path d="M366.49 13.1714H360.039V19.6218H366.49V13.1714ZM360.596 13.7286H365.933V19.0646H360.596V13.7286Z" fill="#C9C9C9"/>
<path d="M221.488 183.842H215.037V190.293H221.488V183.842ZM215.594 184.4H220.931V189.735H215.594V184.4Z" fill="#C9C9C9"/>
<path d="M136.479 80.7611H131.027V86.2124H136.479V80.7611ZM131.585 81.3183H135.921V85.6552H131.585V81.3183Z" fill="#C9C9C9"/>
<path d="M356.181 43.0736H353.662V45.5928H356.181V43.0736ZM354.219 43.6308H355.624V45.0355H354.219V43.6308Z" fill="#C9C9C9"/>
<path d="M74.1501 31.4795H71.6309V33.9988H74.1501V31.4795ZM72.1886 32.0368H73.5934V33.4416H72.1886V32.0368Z" fill="#C9C9C9"/>
<path d="M102.689 86.4163H100.17V88.9355H102.689V86.4163ZM100.727 86.9736H102.132V88.3783H100.727V86.9736Z" fill="#C9C9C9"/>
<path d="M325.293 112.102H322.773V114.621H325.293V112.102ZM323.33 112.659H324.735V114.064H323.33V112.659Z" fill="#C9C9C9"/>
<path d="M384.016 166.146H379.371V170.791H384.016V166.146ZM379.928 166.704H383.458V170.234H379.928V166.704Z" fill="#C9C9C9"/>
<path d="M168.506 144.207H165.986V146.727H168.506V144.207ZM166.544 144.765H167.948V146.169H166.544V144.765Z" fill="#C9C9C9"/>
<path d="M158.875 186.48H156.355V189H158.875V186.48ZM156.913 187.038H158.317V188.442H156.913V187.038Z" fill="#C9C9C9"/>
<path d="M213.999 142.231H207.549V148.681H213.999V142.231ZM208.106 142.788H213.442V148.124H208.106V142.788Z" fill="#C9C9C9"/>
<path d="M222.24 124.669H212.314V124.112H222.24V124.669Z" fill="#C9C9C9"/>
<path d="M105.055 170.449H95.1289V169.892H105.055V170.449Z" fill="#C9C9C9"/>
<path d="M53.1485 182.222H43.2227V181.665H53.1485V182.222Z" fill="#C9C9C9"/>
<path d="M274.722 134.393H259.836V149.279H274.722V134.393ZM260.394 134.95H274.166V148.722H260.394V134.95Z" fill="#C9C9C9"/>
<path d="M368.565 146.838H356.221V159.182H368.565V146.838ZM356.777 147.395H368.007V158.625H356.777V147.395Z" fill="#C9C9C9"/>
<path d="M414.309 183.024H401.965V195.369H414.309V183.024ZM402.522 183.582H413.752V194.811H402.522V183.582Z" fill="#C9C9C9"/>
<path d="M287.563 101.555H275.219V113.899H287.563V101.555ZM275.775 102.112H287.005V113.342H275.775V102.112Z" fill="#C9C9C9"/>
<path d="M281.67 122.097H275.219V128.548H281.67V122.097ZM275.776 122.655H281.113V127.991H275.776V122.655Z" fill="#C9C9C9"/>
<path d="M147.901 140.291H135.557V152.635H147.901V140.291ZM136.113 140.848H147.343V152.078H136.113V140.848Z" fill="#C9C9C9"/>
<path d="M20.8208 166.791H8.47656V179.135H20.8208V166.791ZM9.03379 167.349H20.2636V178.578H9.03379V167.349Z" fill="#C9C9C9"/>
<path d="M281.67 63.2737H275.219V69.7241H281.67V63.2737ZM275.776 63.8309H281.113V69.1669H275.776V63.8309Z" fill="#C9C9C9"/>
<path d="M277.247 9.2229H273.742V12.7273H277.247V9.2229ZM274.299 9.78013H276.689V12.1701H274.299V9.78013Z" fill="#C9C9C9"/>
<path d="M195.641 32.9346H192.137V36.4385H195.641V32.9346ZM192.694 33.4919H195.084V35.8813H192.694V33.4919Z" fill="#C9C9C9"/>
<path d="M113.428 60.8933H109.924V64.3977H113.428V60.8933ZM110.481 61.4505H112.87V63.8405H110.481V61.4505Z" fill="#C9C9C9"/>
<path d="M192.08 84.7622H188.576V88.2666H192.08V84.7622ZM189.133 85.3194H191.523V87.7094H189.133V85.3194Z" fill="#C9C9C9"/>
<path d="M277.961 -1.11687H274.457V2.38696H277.961V-1.11687ZM275.014 -0.559642H277.404V1.82974H275.014V-0.559642Z" fill="#C9C9C9"/>
<path d="M371.518 60.8931H368.014V64.3975H371.518V60.8931ZM368.571 61.4503H370.96V63.8402H368.571V61.4503Z" fill="#C9C9C9"/>
<path d="M321.885 133.065H318.381V136.569H321.885V133.065ZM318.938 133.622H321.327V136.012H318.938V133.622Z" fill="#C9C9C9"/>
<path d="M139.178 106.842H135.674V110.346H139.178V106.842ZM136.23 107.399H138.62V109.789H136.23V107.399Z" fill="#C9C9C9"/>
<path d="M67.1562 165.173H63.6523V168.677H67.1562V165.173ZM64.209 165.73H66.5984V168.12H64.209V165.73Z" fill="#C9C9C9"/>
<path d="M326.858 115.326H323.354V118.829H326.858V115.326ZM323.911 115.883H326.301V118.272H323.911V115.883Z" fill="#C9C9C9"/>
<path d="M111.25 149.915H98.9062V162.26H111.25V149.915ZM99.4635 150.472H110.693V161.703H99.4635V150.472Z" fill="#C9C9C9"/>
<path d="M231.649 130.056H219.305V142.401H231.649V130.056ZM219.861 130.614H231.091V141.843H219.861V130.614Z" fill="#C9C9C9"/>
<path d="M255.909 121.577H243.564V133.922H255.909V121.577ZM244.122 122.135H255.351V133.364H244.122V122.135Z" fill="#C9C9C9"/>
<path d="M51.8518 184.903H42.1973V194.557H51.8512V184.903H51.8518ZM42.7545 185.46H51.294V193.999H42.7545V185.46Z" fill="#C9C9C9"/>
<path d="M316.46 172.567H305.461V183.567H316.46V172.567ZM306.018 173.124H315.903V183.01H306.018V173.124Z" fill="#C9C9C9"/>
<path d="M77.0053 146.073H69.4844V153.594H77.0053V146.073ZM70.0416 146.63H76.448V153.036H70.0416V146.63Z" fill="#C9C9C9"/>
<path d="M21.9315 153.423H15.4805V159.874H21.9309L21.9315 153.423ZM16.0377 153.98H21.3737V159.316H16.0377V153.98Z" fill="#C9C9C9"/>
<path d="M177.618 115.796H165.273V128.14H177.618V115.796ZM165.831 116.353H177.06V127.583H165.831V116.353Z" fill="#C9C9C9"/>
<path d="M302.205 90.2518H294.684V97.7727H302.205V90.2518ZM295.241 90.8091H301.648V97.2155H295.241V90.8091Z" fill="#C9C9C9"/>
<path d="M193.459 146.636H181.115V158.98H193.459V146.636ZM181.672 147.193H192.902V158.423H181.672V147.193Z" fill="#C9C9C9"/>
<path d="M390.838 141.562H373.482V158.917H390.838V141.562ZM374.04 142.119H390.281V158.36H374.04V142.119Z" fill="#C9C9C9"/>
<path d="M343.024 141.562H330.68V153.906H343.024V141.562ZM331.237 142.119H342.467V153.349H331.237V142.119Z" fill="#C9C9C9"/>
<path d="M362.555 171.793H350.211V184.137H362.555V171.793ZM350.768 172.35H361.998V183.58H350.768V172.35Z" fill="#C9C9C9"/>
<path d="M255.178 141.561H242.834V149.123H255.178V141.561ZM243.391 142.118H254.621V148.566H243.391V142.118Z" fill="#C9C9C9"/>
<path d="M91.2622 127.38H78.918V139.724H91.2622V127.38ZM79.4752 127.937H90.705V139.167H79.4752V127.937Z" fill="#C9C9C9"/>
<path d="M342.416 159.458H337.043V164.831H342.416V159.458ZM337.6 160.016H341.859V164.274H337.6V160.016Z" fill="#C9C9C9"/>
<path d="M64.4241 157.584H59.0508V162.958H64.4241V157.584ZM59.608 158.142H63.8669V162.401H59.608V158.142Z" fill="#C9C9C9"/>
<path d="M120.347 175.004H112.291V183.06H120.347V175.004ZM112.848 175.561H119.79V182.502H112.848V175.561Z" fill="#C9C9C9"/>
<path d="M92.2556 152.797H84.1992V160.853H92.2556V152.797ZM84.7564 153.354H91.6984V160.296H84.7564V153.354Z" fill="#C9C9C9"/>
<path d="M163.42 153.6H155.363V161.656H163.42V153.6ZM155.921 154.157H162.862V161.099H155.921V154.157Z" fill="#C9C9C9"/>
<path d="M186.702 183.833H178.646V191.889H186.702V183.833ZM179.204 184.39H186.145V191.331H179.204V184.39Z" fill="#C9C9C9"/>
<path d="M224.961 159.218H216.904V167.274H224.961V159.218ZM217.462 159.775H224.403V166.717H217.462V159.775Z" fill="#C9C9C9"/>
<path d="M400.562 155.928H392.201V164.288H400.562V155.928ZM392.758 156.485H400.005V163.731H392.758V156.485Z" fill="#C9C9C9"/>
<path d="M137.834 169.11H125.49V181.455H137.834V169.11ZM126.047 169.667H137.277V180.898H126.047V169.667Z" fill="#C9C9C9"/>
<path d="M212.731 174.929H202.994V184.665H212.731V174.929ZM203.552 175.486H212.174V184.108H203.552V175.486Z" fill="#C9C9C9"/>
<path d="M230.546 94.5993H224.096V101.05H230.546V94.5993ZM224.653 95.1565H229.989V100.493H224.653V95.1565Z" fill="#C9C9C9"/>
<path d="M231.175 175.004H226.268V181.455H231.175V175.004ZM226.825 175.561H230.618V180.898H226.825V175.561Z" fill="#C9C9C9"/>
<path d="M199.355 128.69H192.904V135.141H199.355V128.69ZM193.462 129.247H198.798V134.584H193.462V129.247Z" fill="#C9C9C9"/>
<path d="M151.116 169.11H144.666V175.561H151.116V169.11ZM145.223 169.668H150.559V175.004H145.223V169.668Z" fill="#C9C9C9"/>
<path d="M145.14 112.458H138.689V118.909H145.14V112.458ZM139.247 113.015H144.583V118.352H139.247V113.015Z" fill="#C9C9C9"/>
<path d="M142.019 186.213H135.568V192.663H142.019V186.213ZM136.126 186.77H141.462V192.106H136.126V186.77Z" fill="#C9C9C9"/>
<path d="M357.652 163.623H347.727V163.066H357.652V163.623Z" fill="#C9C9C9"/>
<path d="M254.695 80.5083H244.77V79.9511H254.695V80.5083Z" fill="#C9C9C9"/>
<path d="M127.561 104.633H117.635V104.076H127.561V104.633Z" fill="#C9C9C9"/>
<path d="M345.089 121.473H330.887V135.675H345.089V121.473ZM331.444 122.031H344.531V135.118H331.444V122.031Z" fill="#C9C9C9"/>
<path d="M489.421 145.915H476.59V158.747H489.421V145.915ZM477.147 146.473H488.864V158.19H477.147V146.473Z" fill="#C9C9C9"/>
<path d="M483.284 167.307H476.59V174.001H483.284V167.307ZM477.147 167.864H482.727V173.444H477.147V167.864Z" fill="#C9C9C9"/>
<path d="M509.693 134.144H496.861V146.976H509.693V134.144ZM497.418 134.701H509.135V146.418H497.418V134.701Z" fill="#C9C9C9"/>
<path d="M483.284 106.051H476.59V112.745H483.284V106.051ZM477.147 106.608H482.727V112.188H477.147V106.608Z" fill="#C9C9C9"/>
<path d="M344.839 168.844H338.389V175.295H344.839V168.844ZM338.946 169.401H344.282V174.737H338.946V169.401Z" fill="#C9C9C9"/>
<path d="M339.877 72.1922H327.533V84.5364H339.877V72.1922ZM328.09 72.7494H339.32V83.9792H328.09V72.7494Z" fill="#C9C9C9"/>
<path d="M456.455 166.765H443.623V179.597H456.455V166.765ZM444.18 167.322H455.898V179.039H444.18V167.322Z" fill="#C9C9C9"/>
<path d="M230.846 186.68H225.473V192.053H230.846V186.68ZM226.03 187.237H230.289V191.496H226.03V187.237Z" fill="#C9C9C9"/>
<path d="M116.87 188.353H111.496V193.726H116.87V188.353ZM112.054 188.91H116.313V193.169H112.054V188.91Z" fill="#C9C9C9"/>
<path d="M94.93 157.585H89.5566V162.958H94.93V157.585ZM90.1144 158.142H94.3733V162.401H90.1144V158.142Z" fill="#C9C9C9"/>
<path d="M327.974 183.03H319.918V191.086H327.974V183.03ZM320.475 183.587H327.417V190.529H320.475V183.587Z" fill="#C9C9C9"/>
<path d="M402.991 76.0715H394.631V84.4321H402.991V76.0715ZM395.188 76.6287H402.434V83.8749H395.188V76.6287Z" fill="#C9C9C9"/>
<path d="M35.8026 13.1085H32.6309V16.2803H35.8026V13.1085ZM33.1881 13.6658H35.2454V15.723H33.1881V13.6658Z" fill="#C9C9C9"/>
<path d="M402.866 169.11H390.521V181.455H402.866V169.11ZM391.079 169.667H402.308V180.898H391.079V169.667Z" fill="#C9C9C9"/>
<path d="M320.414 36.6489H313.963V43.0994H320.414V36.6489ZM314.52 37.2061H319.856V42.5421H314.52V37.2061Z" fill="#C9C9C9"/>
<path d="M376.663 114.369H368.607V122.425H376.663V114.369ZM369.165 114.926H376.106V121.868H369.165V114.926Z" fill="#C9C9C9"/>
<path d="M430.052 138.672H423.357V145.366H430.052V138.672ZM423.915 139.229H429.495V144.809H423.915V139.229Z" fill="#C9C9C9"/>
<path d="M191.221 109.586H184.77V116.037H191.221V109.586ZM185.327 110.143H190.663V115.48H185.327V110.143Z" fill="#C9C9C9"/>
<path d="M460.378 124.818H450.041V124.261H460.378V124.818Z" fill="#C9C9C9"/>
<path d="M359.451 100.649H349.525V100.091H359.451V100.649Z" fill="#C9C9C9"/>
<path d="M394.055 135.49H384.129V134.932H394.055V135.49Z" fill="#C9C9C9"/>
</g>
<path d="M279.354 222.013H236.57C234.388 222.01 232.297 221.143 230.755 219.6C229.212 218.058 228.344 215.967 228.342 213.785V154.957C228.344 152.775 229.212 150.684 230.755 149.142C232.297 147.599 234.388 146.732 236.57 146.729H265.298C266.393 146.731 267.478 146.951 268.488 147.377C269.498 147.802 270.413 148.423 271.18 149.206L285.237 163.586C286.744 165.12 287.586 167.186 287.582 169.337V213.785C287.579 215.967 286.711 218.058 285.169 219.6C283.627 221.143 281.535 222.01 279.354 222.013ZM236.57 150.02C235.26 150.02 234.005 150.54 233.079 151.466C232.153 152.392 231.633 153.647 231.633 154.957V213.785C231.633 215.095 232.153 216.35 233.079 217.276C234.005 218.202 235.26 218.722 236.57 218.722H279.354C280.663 218.722 281.919 218.202 282.845 217.276C283.77 216.35 284.291 215.095 284.291 213.785V169.337C284.294 168.046 283.789 166.804 282.885 165.882L268.822 151.501C268.362 151.034 267.813 150.662 267.208 150.408C266.603 150.154 265.954 150.022 265.298 150.02H236.57Z" fill="#D8D8D8"/>
<path d="M285.263 168.121H274.419C272.238 168.119 270.147 167.251 268.604 165.709C267.062 164.166 266.194 162.075 266.191 159.894V148.885C266.191 148.448 266.365 148.03 266.673 147.721C266.982 147.413 267.401 147.239 267.837 147.239C268.273 147.239 268.692 147.413 269.001 147.721C269.309 148.03 269.483 148.448 269.483 148.885V159.894C269.483 161.203 270.003 162.459 270.928 163.384C271.854 164.31 273.11 164.83 274.419 164.83H285.263C285.7 164.83 286.118 165.004 286.427 165.312C286.736 165.621 286.909 166.039 286.909 166.476C286.909 166.912 286.736 167.331 286.427 167.639C286.118 167.948 285.7 168.121 285.263 168.121Z" fill="#D8D8D8"/>
<path d="M257.961 198.358C257.525 198.358 257.106 198.185 256.798 197.876C256.489 197.568 256.316 197.149 256.316 196.713V195.199C256.299 194.247 256.565 193.311 257.082 192.51C257.599 191.71 258.342 191.082 259.217 190.705C259.915 190.416 260.493 189.894 260.853 189.229C261.213 188.564 261.332 187.795 261.191 187.052C261.065 186.401 260.746 185.802 260.277 185.333C259.808 184.864 259.21 184.546 258.558 184.419C258.083 184.331 257.594 184.349 257.127 184.472C256.659 184.594 256.224 184.818 255.853 185.128C255.482 185.438 255.183 185.825 254.979 186.263C254.774 186.701 254.669 187.179 254.67 187.662C254.67 188.099 254.497 188.517 254.188 188.826C253.879 189.135 253.461 189.308 253.024 189.308C252.588 189.308 252.169 189.135 251.861 188.826C251.552 188.517 251.379 188.099 251.379 187.662C251.38 186.47 251.704 185.301 252.318 184.279C252.932 183.257 253.811 182.421 254.863 181.86C255.915 181.299 257.099 181.034 258.29 181.093C259.48 181.153 260.632 181.534 261.623 182.197C262.613 182.861 263.405 183.78 263.914 184.858C264.423 185.936 264.629 187.132 264.511 188.319C264.393 189.505 263.955 190.637 263.244 191.593C262.533 192.55 261.576 193.296 260.474 193.751C260.204 193.882 259.979 194.089 259.825 194.346C259.671 194.603 259.595 194.899 259.607 195.199V196.713C259.607 196.929 259.564 197.143 259.481 197.343C259.399 197.542 259.278 197.724 259.125 197.876C258.972 198.029 258.79 198.15 258.591 198.233C258.391 198.316 258.177 198.358 257.961 198.358Z" fill="#D8D8D8"/>
<path d="M257.961 204.941C259.324 204.941 260.429 203.836 260.429 202.472C260.429 201.109 259.324 200.004 257.961 200.004C256.597 200.004 255.492 201.109 255.492 202.472C255.492 203.836 256.597 204.941 257.961 204.941Z" fill="#D8D8D8"/>
<path d="M257.96 210.7C254.38 210.7 250.881 209.638 247.904 207.649C244.927 205.66 242.607 202.833 241.237 199.526C239.867 196.218 239.509 192.579 240.207 189.068C240.906 185.556 242.63 182.331 245.161 179.799C247.693 177.268 250.918 175.544 254.429 174.846C257.94 174.147 261.58 174.506 264.887 175.876C268.195 177.246 271.022 179.566 273.011 182.542C275 185.519 276.062 189.019 276.062 192.599C276.056 197.398 274.147 201.999 270.754 205.392C267.36 208.785 262.759 210.694 257.96 210.7ZM257.96 177.789C255.031 177.789 252.168 178.658 249.732 180.285C247.297 181.912 245.399 184.225 244.278 186.931C243.157 189.638 242.864 192.615 243.435 195.488C244.007 198.361 245.417 201 247.488 203.071C249.559 205.142 252.198 206.553 255.071 207.124C257.944 207.696 260.922 207.402 263.628 206.282C266.334 205.161 268.647 203.262 270.275 200.827C271.902 198.391 272.77 195.528 272.77 192.599C272.766 188.673 271.204 184.908 268.427 182.132C265.651 179.356 261.887 177.794 257.96 177.789Z" fill="#D8D8D8"/>
<path d="M249.734 162.979H239.86C239.424 162.979 239.005 162.806 238.697 162.497C238.388 162.189 238.215 161.77 238.215 161.334C238.215 160.897 238.388 160.479 238.697 160.17C239.005 159.861 239.424 159.688 239.86 159.688H249.734C250.17 159.688 250.589 159.861 250.897 160.17C251.206 160.479 251.379 160.897 251.379 161.334C251.379 161.77 251.206 162.189 250.897 162.497C250.589 162.806 250.17 162.979 249.734 162.979Z" fill="#D8D8D8"/>
<path d="M256.316 171.207H239.86C239.424 171.207 239.005 171.034 238.697 170.725C238.388 170.416 238.215 169.998 238.215 169.561C238.215 169.125 238.388 168.706 238.697 168.398C239.005 168.089 239.424 167.916 239.86 167.916H256.316C256.752 167.916 257.171 168.089 257.48 168.398C257.788 168.706 257.961 169.125 257.961 169.561C257.961 169.998 257.788 170.416 257.48 170.725C257.171 171.034 256.752 171.207 256.316 171.207Z" fill="#D8D8D8"/>
<line x1="285.025" y1="193.62" x2="513.654" y2="193.62" stroke="#D8D8D8" stroke-width="0.94044"/>
<line x1="2.58008" y1="193.62" x2="231.209" y2="193.62" stroke="#D8D8D8" stroke-width="0.94044"/>
<ellipse cx="257.904" cy="238.317" rx="46.7085" ry="5.01568" fill="black" fill-opacity="0.05"/>
</g>
<defs>
<clipPath id="clip0_410_2345">
<rect width="516.615" height="251.097" fill="white" transform="matrix(1 0 0 -1 0.53125 251.673)"/>
</clipPath>
<clipPath id="clip1_410_2345">
<rect width="536.228" height="278.613" fill="white" transform="matrix(1 0 0 -1 -10.127 194.553)"/>
</clipPath>
</defs>
</svg>
