<svg version="1.1" id="Layer_1" xmlns="http://www.w3.org/2000/svg" x="0" y="0" viewBox="0 0 512 512" style="enable-background:new 0 0 512 512" xml:space="preserve"><style>.st0{fill:#6770e6}.st1{fill:#5861c7}.st15{fill:#a1f1fc}</style><path id="XMLID_145_" class="st0" d="m503.285 450.75-494.564.007a8.718 8.718 0 0 1-8.718-8.718l-.004-315.612a8.718 8.718 0 0 1 8.718-8.718l494.564-.007a8.718 8.718 0 0 1 8.718 8.718l.004 315.612a8.718 8.718 0 0 1-8.718 8.718z"/><path id="XMLID_144_" d="M30.003 412.038 30 156.426a8.718 8.718 0 0 1 8.718-8.718l434.564-.006A8.718 8.718 0 0 1 482 156.42l.003 255.612a8.718 8.718 0 0 1-8.718 8.718l-434.564.006a8.718 8.718 0 0 1-8.718-8.718z" style="fill:#339"/><path d="M429.993 421V92.007L339 .007 102.007 0c-11.046 0-20 8.954-20 20v401h347.986z" style="fill:#69ebfc"/><path class="st15" d="M339 .007 102.007 0c-11.046 0-20 8.954-20 20L339 20.007v-20zM429.993 91H359c-11.046 0-20-8.954-20-20V.007L429.993 91z"/><path class="st0" d="M327.38 181.805h-12.261a58.568 58.568 0 0 0-6.146-14.446l8.499-8.499a4.62 4.62 0 0 0 0-6.534l-14.818-14.818a4.62 4.62 0 0 0-6.533 0l-8.708 8.708a58.497 58.497 0 0 0-14.522-5.873V128.29a4.62 4.62 0 0 0-4.62-4.62h-20.955a4.62 4.62 0 0 0-4.62 4.62v12.343a58.55 58.55 0 0 0-14.395 6.113l-8.55-8.549a4.618 4.618 0 0 0-6.533 0L198.4 153.014a4.62 4.62 0 0 0 0 6.534l8.732 8.732a58.499 58.499 0 0 0-5.889 14.498h-12.062a4.62 4.62 0 0 0-4.62 4.62v20.955a4.62 4.62 0 0 0 4.62 4.62h12.307a58.556 58.556 0 0 0 6.111 14.434l-8.511 8.511a4.62 4.62 0 0 0 0 6.534l14.818 14.817a4.62 4.62 0 0 0 6.533 0l8.673-8.673a58.512 58.512 0 0 0 14.557 5.919v11.974a4.62 4.62 0 0 0 4.62 4.62h20.955a4.62 4.62 0 0 0 4.62-4.62v-12.225a58.55 58.55 0 0 0 14.484-6.143l8.461 8.46a4.62 4.62 0 0 0 6.533 0l14.818-14.818a4.62 4.62 0 0 0 0-6.533l-8.649-8.649A58.526 58.526 0 0 0 315.414 212h11.966a4.62 4.62 0 0 0 4.62-4.62v-20.955a4.62 4.62 0 0 0-4.62-4.62zm-69.062 47.662c-17.689 0-32.029-14.34-32.029-32.029 0-17.689 14.34-32.029 32.029-32.029 17.689 0 32.029 14.34 32.029 32.029 0 17.689-14.34 32.029-32.029 32.029z"/><path d="M363 384H153c-7.732 0-14-6.268-14-14s6.268-14 14-14h210c7.732 0 14 6.268 14 14s-6.268 14-14 14z" style="fill:#fff7f2"/><path class="st0" d="M365.206 216.225c-4.284-1.04-8.619 1.595-9.659 5.89C344.429 267.973 303.675 300 256.44 300c-29.675 0-57.824-12.901-77.229-35.395-11.215-13-18.372-29.443-20.759-47.28l.831.831c1.562 1.562 3.609 2.343 5.657 2.343s4.095-.781 5.657-2.343a7.998 7.998 0 0 0 0-11.313l-15-15a8 8 0 0 0-11.313 0l-15 15a7.998 7.998 0 0 0 0 11.313 8 8 0 0 0 11.313 0l1.655-1.655c2.37 22.02 10.968 42.47 24.844 58.555C189.544 301.077 222.108 316 256.44 316c26.995 0 52.399-8.876 73.467-25.67 20.435-16.29 35.062-39.177 41.188-64.445a7.999 7.999 0 0 0-5.889-9.66zM382.717 177.843a8 8 0 0 0-11.314 0l-1.655 1.655c-2.37-22.02-10.968-42.47-24.844-58.555C322.455 94.923 289.891 80 255.56 80c-26.996 0-52.4 8.876-73.467 25.67-20.435 16.29-35.063 39.177-41.189 64.445a8 8 0 0 0 15.55 3.77C167.571 128.027 208.325 96 255.56 96c29.675 0 57.823 12.901 77.229 35.395 11.216 13 18.373 29.442 20.759 47.279l-.83-.83a8 8 0 0 0-11.314 11.313l15 15c1.562 1.562 3.609 2.343 5.657 2.343s4.095-.781 5.657-2.343l15-15a8.002 8.002 0 0 0-.001-11.314z"/><path d="M304 356H153c-7.732 0-14 6.268-14 14s6.268 14 14 14h151v-28z" style="fill:#ff8354"/><path id="XMLID_143_" class="st1" d="M199.151 450.753h113.704v39.282H199.151z"/><path id="XMLID_142_" class="st0" d="M341.878 511.998 170.13 512c-6.065 0-10.982-4.917-10.982-10.982 0-6.065 4.917-10.982 10.982-10.982l171.747-.002c6.065 0 10.982 4.917 10.982 10.982 0 6.065-4.916 10.982-10.981 10.982z"/><path id="XMLID_141_" class="st1" d="M341.877 501.998 170.13 502c-4.263 0-7.949-2.433-9.77-5.982a10.918 10.918 0 0 0-1.212 5c0 6.065 4.917 10.982 10.982 10.982l171.747-.002c6.065 0 10.982-4.917 10.982-10.982a10.93 10.93 0 0 0-1.212-5c-1.82 3.548-5.507 5.982-9.77 5.982z"/></svg>