<svg width="812" height="956" viewBox="0 0 812 956" fill="none" xmlns="http://www.w3.org/2000/svg">
<g clip-path="url(#clip0_795_37739)">
<g opacity="0.17">
<path opacity="0.0385" d="M701.108 621.131C748.857 621.062 787.542 606.052 787.513 587.606C787.484 569.159 748.753 554.261 701.004 554.33C653.255 554.398 614.57 569.408 614.599 587.855C614.628 606.302 653.359 621.2 701.108 621.131Z" fill="#4A0101"/>
<path opacity="0.0769" d="M701.105 620.248C747.591 620.181 785.254 605.568 785.226 587.609C785.198 569.65 747.49 555.145 701.003 555.212C654.517 555.28 616.855 569.893 616.883 587.852C616.911 605.811 654.618 620.315 701.105 620.248Z" fill="#480202"/>
<path opacity="0.1154" d="M701.105 619.364C746.329 619.299 782.968 605.083 782.941 587.612C782.914 570.141 746.231 556.03 701.006 556.096C655.782 556.161 619.143 570.377 619.17 587.848C619.198 605.319 655.881 619.43 701.105 619.364Z" fill="#460303"/>
<path opacity="0.1538" d="M701.101 618.482C745.063 618.418 780.679 604.599 780.653 587.616C780.626 570.632 744.967 556.916 701.006 556.979C657.044 557.043 621.428 570.862 621.454 587.845C621.481 604.829 657.14 618.545 701.101 618.482Z" fill="#440404"/>
<path opacity="0.1923" d="M701.102 617.599C743.801 617.537 778.395 604.115 778.369 587.619C778.343 571.123 743.708 557.8 701.009 557.862C658.31 557.924 623.716 571.346 623.742 587.842C623.768 604.338 658.403 617.66 701.102 617.599Z" fill="#420505"/>
<path opacity="0.2308" d="M701.098 616.716C742.535 616.656 776.106 603.63 776.081 587.622C776.056 571.614 742.445 558.686 701.008 558.745C659.571 558.805 626.001 571.831 626.026 587.839C626.051 603.847 659.662 616.776 701.098 616.716Z" fill="#400606"/>
<path opacity="0.2692" d="M701.099 615.833C741.273 615.775 773.821 603.146 773.796 587.626C773.772 572.106 741.185 559.571 701.011 559.629C660.837 559.687 628.289 572.316 628.313 587.836C628.338 603.356 660.925 615.891 701.099 615.833Z" fill="#3E0606"/>
<path opacity="0.3077" d="M701.095 614.95C740.007 614.893 771.532 602.662 771.509 587.629C771.485 572.597 739.922 560.456 701.011 560.512C662.099 560.568 630.574 572.8 630.597 587.833C630.621 602.865 662.184 615.006 701.095 614.95Z" fill="#3C0707"/>
<path opacity="0.3462" d="M701.096 614.066C738.745 614.012 769.247 602.177 769.224 587.632C769.202 573.088 738.663 561.341 701.014 561.395C663.364 561.45 632.862 573.285 632.885 587.829C632.907 602.374 663.447 614.121 701.096 614.066Z" fill="#3A0808"/>
<path opacity="0.3846" d="M701.092 613.184C737.479 613.131 766.958 601.693 766.936 587.636C766.914 573.579 737.399 562.226 701.013 562.278C664.626 562.331 635.147 573.769 635.169 587.826C635.19 601.883 664.705 613.236 701.092 613.184Z" fill="#380909"/>
<path opacity="0.4231" d="M701.092 612.301C736.216 612.25 764.673 601.209 764.652 587.639C764.631 574.07 736.14 563.111 701.016 563.162C665.892 563.212 637.435 574.254 637.456 587.823C637.477 601.392 665.968 612.351 701.092 612.301Z" fill="#360A0A"/>
<path opacity="0.4615" d="M701.089 611.418C734.951 611.369 762.385 600.725 762.364 587.643C762.344 574.561 734.877 563.996 701.015 564.045C667.153 564.094 639.72 574.738 639.74 587.82C639.76 600.902 667.227 611.467 701.089 611.418Z" fill="#340B0B"/>
<path opacity="0.5" d="M701.089 610.535C733.688 610.488 760.099 600.24 760.08 587.646C760.06 575.053 733.617 564.881 701.018 564.928C668.419 564.976 642.008 575.223 642.028 587.817C642.047 600.411 668.49 610.582 701.089 610.535Z" fill="#330C0C"/>
<path opacity="0.5385" d="M701.086 609.652C732.422 609.607 757.81 599.756 757.791 587.65C757.773 575.544 732.354 565.767 701.017 565.812C669.681 565.857 644.293 575.708 644.312 587.814C644.33 599.92 669.749 609.697 701.086 609.652Z" fill="#310D0D"/>
<path opacity="0.5769" d="M701.086 608.769C731.161 608.726 755.526 599.272 755.508 587.653C755.49 576.035 731.095 566.651 701.021 566.695C670.946 566.738 646.581 576.192 646.599 587.81C646.617 599.429 671.012 608.812 701.086 608.769Z" fill="#2F0E0E"/>
<path opacity="0.6154" d="M701.083 607.886C729.894 607.845 753.237 598.788 753.219 587.657C753.202 576.526 729.831 567.537 701.02 567.578C672.208 567.62 648.866 576.677 648.883 587.808C648.9 598.938 672.271 607.928 701.083 607.886Z" fill="#2D0F0F"/>
<path opacity="0.6538" d="M701.083 607.003C728.632 606.964 750.952 598.303 750.935 587.66C750.918 577.017 728.572 568.422 701.023 568.462C673.474 568.501 651.154 577.162 651.171 587.804C651.187 598.447 673.534 607.043 701.083 607.003Z" fill="#2B1010"/>
<path opacity="0.6923" d="M701.08 606.12C727.366 606.082 748.663 597.819 748.647 587.664C748.632 577.508 727.309 569.307 701.022 569.345C674.735 569.383 653.439 577.646 653.454 587.801C653.47 597.956 674.793 606.158 701.08 606.12Z" fill="#291111"/>
<path opacity="0.7308" d="M701.08 605.238C726.104 605.202 746.378 597.335 746.363 587.668C746.348 578 726.05 570.192 701.025 570.229C676.001 570.265 655.727 578.131 655.742 587.799C655.757 597.466 676.056 605.274 701.08 605.238Z" fill="#271212"/>
<path opacity="0.7692" d="M701.076 604.355C724.838 604.32 744.089 596.851 744.075 587.671C744.06 578.491 724.786 571.077 701.024 571.111C677.263 571.146 658.012 578.615 658.026 587.795C658.04 596.975 677.315 604.389 701.076 604.355Z" fill="#251212"/>
<path opacity="0.8077" d="M701.076 603.472C723.576 603.44 741.804 596.367 741.79 587.675C741.777 578.983 723.527 571.963 701.027 571.995C678.528 572.028 660.3 579.101 660.314 587.793C660.327 596.485 678.577 603.505 701.076 603.472Z" fill="#231313"/>
<path opacity="0.8462" d="M701.073 602.589C722.31 602.558 739.515 595.883 739.503 587.678C739.49 579.474 722.264 572.848 701.027 572.879C679.79 572.909 662.585 579.585 662.597 587.789C662.61 595.994 679.836 602.62 701.073 602.589Z" fill="#211414"/>
<path opacity="0.8846" d="M701.073 601.706C721.048 601.678 737.23 595.399 737.218 587.682C737.206 579.966 721.004 573.734 701.03 573.762C681.056 573.791 664.873 580.07 664.885 587.787C664.897 595.503 681.099 601.735 701.073 601.706Z" fill="#1F1515"/>
<path opacity="0.9231" d="M701.07 600.824C719.782 600.797 734.941 594.915 734.93 587.686C734.919 580.457 719.741 574.619 701.029 574.646C682.317 574.673 667.158 580.555 667.169 587.784C667.18 595.013 682.358 600.851 701.07 600.824Z" fill="#1D1616"/>
<path opacity="0.9615" d="M701.067 599.941C718.516 599.916 732.653 594.431 732.642 587.689C732.632 580.948 718.478 575.504 701.029 575.529C683.579 575.554 669.442 581.04 669.453 587.781C669.463 594.522 683.617 599.966 701.067 599.941Z" fill="#1B1717"/>
<path d="M701.067 599.059C717.254 599.036 730.368 593.948 730.358 587.694C730.348 581.441 717.218 576.39 701.031 576.414C684.845 576.437 671.731 581.525 671.74 587.779C671.75 594.032 684.88 599.083 701.067 599.059Z" fill="#191818"/>
</g>
<g opacity="0.17">
<path opacity="0.0385" d="M90.6745 665.424C138.423 665.355 177.108 650.345 177.08 631.899C177.051 613.452 138.319 598.554 90.5704 598.623C42.8215 598.692 4.13659 613.702 4.16533 632.148C4.19408 650.595 42.9256 665.493 90.6745 665.424Z" fill="#4A0101"/>
<path opacity="0.0769" d="M90.6751 664.541C137.162 664.474 174.824 649.861 174.796 631.902C174.768 613.943 137.06 599.439 90.5738 599.506C44.0872 599.573 6.42503 614.186 6.45302 632.145C6.48101 650.104 44.1885 664.608 90.6751 664.541Z" fill="#480202"/>
<path opacity="0.1154" d="M90.6715 663.658C135.896 663.593 172.535 649.377 172.508 631.905C172.48 614.434 135.797 600.324 90.5729 600.389C45.3488 600.454 8.70957 614.671 8.7368 632.142C8.76403 649.613 45.4474 663.723 90.6715 663.658Z" fill="#460303"/>
<path opacity="0.1538" d="M90.6718 662.775C134.633 662.711 170.25 648.892 170.223 631.909C170.197 614.925 134.537 601.209 90.5759 601.273C46.6144 601.336 10.998 615.155 11.0245 632.139C11.051 649.122 46.7103 662.838 90.6718 662.775Z" fill="#440404"/>
<path opacity="0.1923" d="M90.6724 661.892C133.372 661.83 167.965 648.408 167.939 631.912C167.914 615.416 133.278 602.094 90.5793 602.155C47.8801 602.217 13.2865 615.639 13.3122 632.135C13.3379 648.631 47.9732 661.953 90.6724 661.892Z" fill="#420505"/>
<path opacity="0.2308" d="M90.6688 661.009C132.105 660.949 165.676 647.923 165.651 631.915C165.626 615.907 132.015 602.979 90.5784 603.038C49.1418 603.098 15.571 616.124 15.596 632.132C15.6209 648.14 49.2321 661.069 90.6688 661.009Z" fill="#400606"/>
<path opacity="0.2692" d="M90.669 660.126C130.843 660.068 163.391 647.439 163.367 631.919C163.343 616.398 130.755 603.864 90.5814 603.922C50.4074 603.98 17.8595 616.608 17.8836 632.129C17.9078 647.649 50.495 660.184 90.669 660.126Z" fill="#3E0606"/>
<path opacity="0.3077" d="M90.6657 659.243C129.577 659.186 161.103 646.955 161.079 631.922C161.056 616.89 129.493 604.749 90.5809 604.805C51.6692 604.861 20.144 617.093 20.1674 632.126C20.1908 647.158 51.754 659.299 90.6657 659.243Z" fill="#3C0707"/>
<path opacity="0.3462" d="M90.666 658.359C128.315 658.305 158.817 646.47 158.795 631.925C158.772 617.38 128.233 605.634 90.5839 605.688C52.9347 605.742 22.4324 617.577 22.4551 632.122C22.4778 646.667 53.0168 658.414 90.666 658.359Z" fill="#3A0808"/>
<path opacity="0.3846" d="M90.6623 657.476C127.049 657.424 156.528 645.986 156.506 631.929C156.485 617.871 126.97 606.518 90.583 606.571C54.1964 606.623 24.717 618.062 24.7389 632.119C24.7608 646.176 54.2757 657.529 90.6623 657.476Z" fill="#380909"/>
<path opacity="0.4231" d="M90.6626 656.594C125.787 656.543 154.243 645.502 154.222 631.932C154.201 618.363 125.71 607.404 90.586 607.454C55.462 607.505 27.0054 618.546 27.0266 632.116C27.0477 645.685 55.5385 656.644 90.6626 656.594Z" fill="#360A0A"/>
<path opacity="0.4615" d="M90.6593 655.71C124.521 655.661 151.955 645.017 151.934 631.935C151.914 618.854 124.447 608.288 90.5855 608.337C56.7238 608.386 29.29 619.031 29.3104 632.112C29.3307 645.194 56.7976 655.759 90.6593 655.71Z" fill="#340B0B"/>
<path opacity="0.5" d="M90.6596 654.827C123.259 654.78 149.67 644.533 149.65 631.939C149.63 619.345 123.188 609.174 90.5885 609.221C57.9893 609.268 31.5784 619.515 31.598 632.109C31.6177 644.703 58.0604 654.874 90.6596 654.827Z" fill="#330C0C"/>
<path opacity="0.5385" d="M90.6559 653.944C121.993 653.898 147.381 644.048 147.362 631.942C147.343 619.836 121.924 610.058 90.5876 610.104C59.251 610.149 33.863 619.999 33.8818 632.106C33.9007 644.212 59.3193 653.989 90.6559 653.944Z" fill="#310D0D"/>
<path opacity="0.5769" d="M90.6566 653.061C120.731 653.018 145.096 643.564 145.078 631.945C145.06 620.327 120.665 610.943 90.591 610.987C60.5167 611.03 36.1514 620.484 36.1695 632.103C36.1876 643.721 60.5823 653.105 90.6566 653.061Z" fill="#2F0E0E"/>
<path opacity="0.6154" d="M90.6529 652.178C119.465 652.136 142.807 643.079 142.79 631.948C142.772 620.818 119.402 611.828 90.5901 611.87C61.7784 611.911 38.4359 620.968 38.4533 632.099C38.4706 643.23 61.8412 652.219 90.6529 652.178Z" fill="#2D0F0F"/>
<path opacity="0.6538" d="M90.6532 651.295C118.202 651.255 140.522 642.595 140.505 631.952C140.489 621.309 118.142 612.714 90.5931 612.753C63.0439 612.793 40.7244 621.453 40.741 632.096C40.7576 642.739 63.104 651.335 90.6532 651.295Z" fill="#2B1010"/>
<path opacity="0.6923" d="M90.6499 650.412C116.937 650.374 138.234 642.111 138.218 631.956C138.202 621.8 116.879 613.599 90.5926 613.637C64.3058 613.675 43.0089 621.938 43.0247 632.093C43.0406 642.248 64.3631 650.45 90.6499 650.412Z" fill="#291111"/>
<path opacity="0.7308" d="M90.6501 649.529C115.674 649.493 135.948 641.626 135.933 631.959C135.918 622.291 115.62 614.483 90.5956 614.519C65.5713 614.555 45.2974 622.422 45.3124 632.09C45.3275 641.757 65.6259 649.565 90.6501 649.529Z" fill="#271212"/>
<path opacity="0.7692" d="M90.6465 648.646C114.408 648.612 133.659 641.142 133.645 631.962C133.631 622.782 114.356 615.368 90.5947 615.403C66.833 615.437 47.5819 622.907 47.5962 632.086C47.6105 641.266 66.8848 648.68 90.6465 648.646Z" fill="#251212"/>
<path opacity="0.8077" d="M90.6468 647.763C113.146 647.73 131.374 640.658 131.361 631.966C131.347 623.273 113.097 616.253 90.5977 616.286C68.0985 616.318 49.8704 623.391 49.8839 632.083C49.8974 640.775 68.1476 647.795 90.6468 647.763Z" fill="#231313"/>
<path opacity="0.8462" d="M90.6435 646.88C111.88 646.849 129.086 640.173 129.073 631.969C129.06 623.765 111.834 617.138 90.5972 617.169C69.3604 617.2 52.1549 623.876 52.1677 632.08C52.1805 640.284 69.4067 646.91 90.6435 646.88Z" fill="#211414"/>
<path opacity="0.8846" d="M90.6398 645.997C110.614 645.968 126.797 639.689 126.785 631.973C126.773 624.256 110.571 618.024 90.5963 618.053C70.622 618.082 54.4394 624.36 54.4515 632.077C54.4635 639.794 70.6656 646.026 90.6398 645.997Z" fill="#1F1515"/>
<path opacity="0.9231" d="M90.6401 645.114C109.352 645.087 124.512 639.205 124.5 631.976C124.489 624.747 109.311 618.908 90.5993 618.935C71.8876 618.962 56.7279 624.845 56.7391 632.074C56.7504 639.303 71.9284 645.141 90.6401 645.114Z" fill="#1D1616"/>
<path opacity="0.9615" d="M90.6368 644.231C108.086 644.206 122.223 638.721 122.213 631.98C122.202 625.238 108.048 619.794 90.5988 619.819C73.1494 619.844 59.0124 625.33 59.0229 632.071C59.0334 638.812 73.1874 644.256 90.6368 644.231Z" fill="#1B1717"/>
<path d="M90.6371 643.348C106.824 643.325 119.938 638.237 119.928 631.983C119.918 625.73 106.789 620.679 90.6018 620.703C74.415 620.726 61.3009 625.815 61.3106 632.068C61.3204 638.321 74.4503 643.372 90.6371 643.348Z" fill="#191818"/>
</g>
<g opacity="0.17">
<path opacity="0.0385" d="M201.585 735.674C249.334 735.605 288.019 720.595 287.99 702.149C287.961 683.702 249.23 668.804 201.481 668.873C153.732 668.942 115.047 683.952 115.075 702.398C115.104 720.845 153.836 735.743 201.585 735.674Z" fill="#4A0101"/>
<path opacity="0.0769" d="M201.585 734.791C248.072 734.724 285.734 720.111 285.706 702.152C285.678 684.193 247.971 669.689 201.484 669.756C154.997 669.823 117.335 684.436 117.363 702.395C117.391 720.354 155.099 734.858 201.585 734.791Z" fill="#480202"/>
<path opacity="0.1154" d="M201.582 733.908C246.806 733.842 283.445 719.626 283.418 702.155C283.391 684.684 246.707 670.574 201.483 670.639C156.259 670.704 119.62 684.92 119.647 702.392C119.674 719.863 156.358 733.973 201.582 733.908Z" fill="#460303"/>
<path opacity="0.1538" d="M201.582 733.025C245.543 732.961 281.16 719.142 281.133 702.159C281.107 685.175 245.448 671.459 201.486 671.522C157.525 671.586 121.908 685.405 121.935 702.388C121.961 719.372 157.62 733.088 201.582 733.025Z" fill="#440404"/>
<path opacity="0.1923" d="M201.579 732.142C244.278 732.08 278.871 718.658 278.846 702.162C278.82 685.666 244.185 672.343 201.486 672.405C158.786 672.467 124.193 685.889 124.218 702.385C124.244 718.881 158.879 732.203 201.579 732.142Z" fill="#420505"/>
<path opacity="0.2308" d="M201.579 731.259C243.015 731.199 276.586 718.173 276.561 702.165C276.536 686.157 242.925 673.228 201.489 673.288C160.052 673.348 126.481 686.374 126.506 702.382C126.531 718.39 160.142 731.318 201.579 731.259Z" fill="#400606"/>
<path opacity="0.2692" d="M201.579 730.375C241.753 730.317 274.301 717.689 274.277 702.168C274.253 686.648 241.666 674.113 201.492 674.171C161.318 674.229 128.77 686.858 128.794 702.378C128.818 717.899 161.405 730.433 201.579 730.375Z" fill="#3E0606"/>
<path opacity="0.3077" d="M201.576 729.492C240.488 729.436 272.013 717.204 271.989 702.172C271.966 687.139 240.403 674.999 201.491 675.055C162.579 675.111 131.054 687.343 131.078 702.375C131.101 717.408 162.664 729.549 201.576 729.492Z" fill="#3C0707"/>
<path opacity="0.3462" d="M201.576 728.609C239.225 728.555 269.728 716.72 269.705 702.175C269.682 687.63 239.143 675.884 201.494 675.938C163.845 675.992 133.343 687.827 133.365 702.372C133.388 716.917 163.927 728.664 201.576 728.609Z" fill="#3A0808"/>
<path opacity="0.3846" d="M201.572 727.726C237.959 727.674 267.439 716.235 267.417 702.178C267.395 688.121 237.88 676.768 201.493 676.821C165.107 676.873 135.627 688.311 135.649 702.369C135.671 716.426 165.186 727.779 201.572 727.726Z" fill="#380909"/>
<path opacity="0.4231" d="M201.573 726.844C236.697 726.793 265.153 715.751 265.132 702.182C265.111 688.613 236.62 677.654 201.496 677.704C166.372 677.755 137.916 688.796 137.937 702.366C137.958 715.935 166.449 726.894 201.573 726.844Z" fill="#360A0A"/>
<path opacity="0.4615" d="M201.569 725.96C235.431 725.911 262.865 715.267 262.845 702.185C262.824 689.104 235.357 678.539 201.496 678.588C167.634 678.636 140.2 689.281 140.221 702.362C140.241 715.444 167.708 726.009 201.569 725.96Z" fill="#340B0B"/>
<path opacity="0.5" d="M201.57 725.077C234.169 725.03 260.58 714.783 260.56 702.189C260.541 689.595 234.098 679.424 201.499 679.471C168.9 679.518 142.489 689.765 142.508 702.359C142.528 714.953 168.971 725.124 201.57 725.077Z" fill="#330C0C"/>
<path opacity="0.5385" d="M201.566 724.194C232.903 724.148 258.291 714.298 258.272 702.192C258.253 690.086 232.834 680.308 201.498 680.354C170.161 680.399 144.773 690.249 144.792 702.356C144.811 714.462 170.229 724.239 201.566 724.194Z" fill="#310D0D"/>
<path opacity="0.5769" d="M201.563 723.311C231.637 723.268 256.002 713.814 255.984 702.195C255.966 690.577 231.571 681.193 201.497 681.237C171.423 681.28 147.058 690.734 147.076 702.353C147.094 713.971 171.489 723.355 201.563 723.311Z" fill="#2F0E0E"/>
<path opacity="0.6154" d="M201.563 722.428C230.375 722.386 253.717 713.329 253.7 702.199C253.683 691.068 230.312 682.078 201.5 682.12C172.689 682.162 149.346 691.219 149.363 702.349C149.381 713.48 172.751 722.47 201.563 722.428Z" fill="#2D0F0F"/>
<path opacity="0.6538" d="M201.559 721.545C229.109 721.506 251.428 712.845 251.412 702.202C251.395 691.559 229.049 682.964 201.499 683.004C173.95 683.043 151.631 691.704 151.647 702.346C151.664 712.989 174.01 721.585 201.559 721.545Z" fill="#2B1010"/>
<path opacity="0.6923" d="M201.56 720.662C227.847 720.624 249.144 712.361 249.128 702.206C249.112 692.051 227.79 683.849 201.503 683.887C175.216 683.925 153.919 692.188 153.935 702.343C153.951 712.498 175.273 720.7 201.56 720.662Z" fill="#291111"/>
<path opacity="0.7308" d="M201.556 719.779C226.581 719.743 246.855 711.877 246.84 702.209C246.824 692.542 226.526 684.734 201.502 684.77C176.478 684.806 156.204 692.672 156.219 702.34C156.234 712.008 176.532 719.815 201.556 719.779Z" fill="#271212"/>
<path opacity="0.7692" d="M201.557 718.896C225.318 718.862 244.569 711.392 244.555 702.212C244.541 693.032 225.267 685.618 201.505 685.653C177.743 685.687 158.492 693.157 158.506 702.336C158.521 711.516 177.795 718.93 201.557 718.896Z" fill="#251212"/>
<path opacity="0.8077" d="M201.557 718.013C224.056 717.98 242.284 710.908 242.271 702.215C242.257 693.523 224.007 686.503 201.508 686.536C179.009 686.568 160.781 693.641 160.794 702.333C160.808 711.025 179.058 718.045 201.557 718.013Z" fill="#231313"/>
<path opacity="0.8462" d="M201.554 717.13C222.79 717.1 239.996 710.424 239.983 702.22C239.97 694.015 222.744 687.389 201.507 687.42C180.271 687.45 163.065 694.126 163.078 702.331C163.091 710.535 180.317 717.161 201.554 717.13Z" fill="#211414"/>
<path opacity="0.8846" d="M201.55 716.247C221.524 716.218 237.707 709.939 237.695 702.223C237.683 694.506 221.481 688.274 201.506 688.303C181.532 688.332 165.35 694.61 165.362 702.327C165.374 710.044 181.576 716.276 201.55 716.247Z" fill="#1F1515"/>
<path opacity="0.9231" d="M201.55 715.364C220.262 715.337 235.422 709.455 235.41 702.226C235.399 694.997 220.221 689.159 201.509 689.186C182.798 689.213 167.638 695.095 167.649 702.324C167.661 709.553 182.839 715.391 201.55 715.364Z" fill="#1D1616"/>
<path opacity="0.9615" d="M201.547 714.481C218.996 714.456 233.133 708.971 233.123 702.23C233.112 695.488 218.958 690.044 201.509 690.069C184.06 690.094 169.923 695.58 169.933 702.321C169.944 709.062 184.098 714.506 201.547 714.481Z" fill="#1B1717"/>
<path d="M201.547 713.599C217.734 713.575 230.848 708.487 230.838 702.234C230.829 695.98 217.699 690.93 201.512 690.953C185.325 690.976 172.211 696.065 172.221 702.318C172.231 708.572 185.36 713.622 201.547 713.599Z" fill="#191818"/>
</g>
<g opacity="0.17">
<path opacity="0.0385" d="M254.896 546.432C325.267 546.33 382.28 524.207 382.238 497.019C382.195 469.831 325.114 447.873 254.743 447.975C184.371 448.077 127.359 470.199 127.401 497.387C127.443 524.575 184.525 546.533 254.896 546.432Z" fill="#4A0101"/>
<path opacity="0.0769" d="M254.894 545.13C323.404 545.031 378.91 523.494 378.868 497.024C378.827 470.555 323.255 449.178 254.745 449.277C186.234 449.376 130.729 470.913 130.77 497.383C130.811 523.852 186.383 545.229 254.894 545.13Z" fill="#480202"/>
<path opacity="0.1154" d="M254.892 543.829C321.542 543.732 375.54 522.779 375.5 497.029C375.46 471.279 321.397 450.482 254.747 450.578C188.097 450.674 134.099 471.627 134.139 497.377C134.179 523.128 188.242 543.925 254.892 543.829Z" fill="#460303"/>
<path opacity="0.1538" d="M254.89 542.527C319.679 542.433 372.17 522.065 372.131 497.034C372.092 472.002 319.538 451.786 254.749 451.88C189.96 451.973 137.469 472.341 137.508 497.373C137.547 522.404 190.101 542.62 254.89 542.527Z" fill="#440404"/>
<path opacity="0.1923" d="M254.888 541.226C317.817 541.135 368.8 521.352 368.762 497.039C368.724 472.726 317.68 453.091 254.751 453.182C191.822 453.273 140.839 473.055 140.877 497.368C140.915 521.681 191.96 541.316 254.888 541.226Z" fill="#420505"/>
<path opacity="0.2308" d="M254.886 539.924C315.954 539.836 365.43 520.638 365.393 497.044C365.356 473.45 315.821 454.395 254.753 454.483C193.685 454.571 144.209 473.769 144.246 497.363C144.283 520.957 193.818 540.012 254.886 539.924Z" fill="#400606"/>
<path opacity="0.2692" d="M254.884 538.622C314.092 538.537 362.06 519.924 362.024 497.049C361.989 474.174 313.963 455.699 254.755 455.785C195.548 455.87 147.58 474.483 147.615 497.358C147.651 520.233 195.677 538.708 254.884 538.622Z" fill="#3E0606"/>
<path opacity="0.3077" d="M254.882 537.321C312.229 537.238 358.69 519.21 358.655 497.054C358.621 474.898 312.104 457.004 254.757 457.087C197.411 457.169 150.95 475.198 150.984 497.354C151.019 519.51 197.536 537.404 254.882 537.321Z" fill="#3C0707"/>
<path opacity="0.3462" d="M254.881 536.019C310.367 535.939 355.32 518.496 355.287 497.059C355.253 475.621 310.246 458.308 254.76 458.388C199.273 458.468 154.32 475.912 154.353 497.349C154.387 518.786 199.394 536.1 254.881 536.019Z" fill="#3A0808"/>
<path opacity="0.3846" d="M254.879 534.718C308.504 534.641 351.95 517.783 351.918 497.064C351.885 476.346 308.387 459.613 254.762 459.69C201.136 459.768 157.69 476.626 157.723 497.344C157.755 518.063 201.253 534.796 254.879 534.718Z" fill="#380909"/>
<path opacity="0.4231" d="M254.873 533.416C306.638 533.342 348.576 517.068 348.545 497.069C348.514 477.069 306.525 460.917 254.76 460.992C202.995 461.067 161.057 477.34 161.088 497.339C161.119 517.339 203.108 533.491 254.873 533.416Z" fill="#360A0A"/>
<path opacity="0.4615" d="M254.871 532.115C304.775 532.043 345.206 516.355 345.176 497.074C345.146 477.793 304.666 462.222 254.762 462.294C204.858 462.366 164.427 478.054 164.457 497.335C164.487 516.616 204.967 532.187 254.871 532.115Z" fill="#340B0B"/>
<path opacity="0.5" d="M254.869 530.814C302.913 530.744 341.837 515.641 341.808 497.079C341.779 478.517 302.808 463.526 254.764 463.595C206.721 463.664 167.797 478.768 167.826 497.33C167.855 515.892 206.825 530.883 254.869 530.814Z" fill="#330C0C"/>
<path opacity="0.5385" d="M254.867 529.512C301.05 529.445 338.466 514.927 338.438 497.084C338.411 479.241 300.949 464.83 254.766 464.897C208.583 464.964 171.167 479.482 171.195 497.325C171.223 515.168 208.684 529.578 254.867 529.512Z" fill="#310D0D"/>
<path opacity="0.5769" d="M254.865 528.21C299.188 528.146 335.097 514.213 335.07 497.089C335.043 479.965 299.091 466.135 254.769 466.199C210.446 466.263 174.537 480.196 174.564 497.32C174.591 514.445 210.543 528.274 254.865 528.21Z" fill="#2F0E0E"/>
<path opacity="0.6154" d="M254.863 526.909C297.325 526.848 331.726 513.499 331.701 497.094C331.675 480.688 297.232 467.439 254.771 467.5C212.309 467.561 177.907 480.91 177.933 497.316C177.959 513.721 212.401 526.97 254.863 526.909Z" fill="#2D0F0F"/>
<path opacity="0.6538" d="M254.861 525.608C295.463 525.549 328.357 512.785 328.332 497.099C328.308 481.412 295.374 468.744 254.773 468.802C214.172 468.861 181.278 481.625 181.302 497.311C181.327 512.997 214.26 525.666 254.861 525.608Z" fill="#2B1010"/>
<path opacity="0.6923" d="M254.859 524.306C293.6 524.25 324.986 512.071 324.963 497.103C324.94 482.136 293.515 470.048 254.775 470.104C216.034 470.159 184.648 482.338 184.671 497.306C184.694 512.273 216.119 524.362 254.859 524.306Z" fill="#291111"/>
<path opacity="0.7308" d="M254.858 523.004C291.738 522.951 321.617 511.357 321.595 497.108C321.572 482.86 291.657 471.352 254.777 471.405C217.897 471.458 188.018 483.052 188.04 497.301C188.062 511.55 217.978 523.057 254.858 523.004Z" fill="#271212"/>
<path opacity="0.7692" d="M254.855 521.703C289.875 521.653 318.246 510.644 318.225 497.114C318.204 483.584 289.798 472.656 254.779 472.707C219.76 472.758 191.388 483.767 191.409 497.297C191.43 510.827 219.836 521.754 254.855 521.703Z" fill="#251212"/>
<path opacity="0.8077" d="M254.85 520.401C288.009 520.353 314.873 509.929 314.853 497.118C314.833 484.307 287.936 473.961 254.778 474.009C221.619 474.057 194.754 484.481 194.774 497.292C194.794 510.103 221.691 520.449 254.85 520.401Z" fill="#231313"/>
<path opacity="0.8462" d="M254.848 519.1C286.146 519.055 311.503 509.216 311.484 497.124C311.465 485.032 286.078 475.266 254.78 475.311C223.481 475.356 198.125 485.195 198.143 497.287C198.162 509.38 223.55 519.146 254.848 519.1Z" fill="#211414"/>
<path opacity="0.8846" d="M254.846 517.799C284.284 517.757 308.133 508.502 308.115 497.129C308.098 485.755 284.219 476.57 254.782 476.612C225.344 476.655 201.495 485.909 201.513 497.283C201.53 508.656 225.408 517.842 254.846 517.799Z" fill="#1F1515"/>
<path opacity="0.9231" d="M254.844 516.497C282.421 516.457 304.763 507.788 304.746 497.134C304.73 486.479 282.361 477.874 254.784 477.914C227.207 477.954 204.865 486.623 204.882 497.278C204.898 507.932 227.267 516.537 254.844 516.497Z" fill="#1D1616"/>
<path opacity="0.9615" d="M254.842 515.196C280.559 515.159 301.393 507.075 301.378 497.139C301.362 487.204 280.502 479.179 254.786 479.216C229.07 479.254 208.235 487.338 208.251 497.274C208.266 507.209 229.126 515.233 254.842 515.196Z" fill="#1B1717"/>
<path d="M254.84 513.895C278.696 513.86 298.023 506.361 298.008 497.144C297.994 487.927 278.644 480.484 254.788 480.518C230.933 480.552 211.605 488.052 211.62 497.269C211.634 506.486 230.985 513.929 254.84 513.895Z" fill="#191818"/>
</g>
<g opacity="0.17">
<path opacity="0.0385" d="M396.072 731.787C466.443 731.685 523.456 709.562 523.413 682.374C523.371 655.186 466.289 633.228 395.918 633.33C325.547 633.432 268.534 655.554 268.577 682.742C268.619 709.93 325.701 731.888 396.072 731.787Z" fill="#4A0101"/>
<path opacity="0.0769" d="M396.07 730.485C464.58 730.386 520.085 708.849 520.044 682.379C520.003 655.91 464.431 634.533 395.92 634.632C327.41 634.731 271.905 656.268 271.946 682.738C271.987 709.207 327.559 730.584 396.07 730.485Z" fill="#480202"/>
<path opacity="0.1154" d="M396.068 729.184C462.718 729.088 516.716 708.135 516.676 682.384C516.636 656.634 462.573 635.837 395.923 635.933C329.273 636.029 275.275 656.982 275.315 682.733C275.355 708.483 329.418 729.28 396.068 729.184Z" fill="#460303"/>
<path opacity="0.1538" d="M396.066 727.882C460.855 727.788 513.345 707.42 513.306 682.389C513.267 657.357 460.714 637.141 395.925 637.235C331.135 637.328 278.645 657.696 278.684 682.728C278.723 707.759 331.277 727.975 396.066 727.882Z" fill="#440404"/>
<path opacity="0.1923" d="M396.064 726.58C458.993 726.489 509.976 706.706 509.938 682.394C509.9 658.081 458.856 638.445 395.927 638.536C332.998 638.627 282.015 658.41 282.053 682.723C282.091 707.035 333.135 726.671 396.064 726.58Z" fill="#420505"/>
<path opacity="0.2308" d="M396.058 725.279C457.126 725.191 506.602 705.993 506.565 682.399C506.528 658.805 456.993 639.75 395.925 639.838C334.857 639.926 285.381 659.124 285.418 682.718C285.455 706.312 334.99 725.367 396.058 725.279Z" fill="#400606"/>
<path opacity="0.2692" d="M396.056 723.977C455.264 723.892 503.232 705.279 503.196 682.404C503.161 659.529 455.135 641.054 395.927 641.14C336.72 641.225 288.752 659.838 288.787 682.713C288.823 705.588 336.849 724.063 396.056 723.977Z" fill="#3E0606"/>
<path opacity="0.3077" d="M396.054 722.676C453.401 722.593 499.862 704.565 499.827 682.409C499.793 660.253 453.276 642.359 395.929 642.442C338.582 642.524 292.122 660.553 292.156 682.709C292.191 704.865 338.707 722.759 396.054 722.676Z" fill="#3C0707"/>
<path opacity="0.3462" d="M396.053 721.374C451.539 721.294 496.492 703.851 496.459 682.413C496.425 660.976 451.418 643.663 395.932 643.743C340.445 643.823 295.492 661.266 295.525 682.704C295.559 704.141 340.566 721.454 396.053 721.374Z" fill="#3A0808"/>
<path opacity="0.3846" d="M396.05 720.073C449.676 719.995 493.122 703.137 493.09 682.418C493.057 661.7 449.559 644.967 395.934 645.044C342.308 645.122 298.862 661.98 298.894 682.699C298.927 703.417 342.425 720.15 396.05 720.073Z" fill="#380909"/>
<path opacity="0.4231" d="M396.049 718.771C447.814 718.696 489.752 702.423 489.721 682.424C489.69 662.424 447.701 646.272 395.936 646.347C344.171 646.421 302.232 662.695 302.263 682.694C302.295 702.694 344.284 718.846 396.049 718.771Z" fill="#360A0A"/>
<path opacity="0.4615" d="M396.047 717.47C445.951 717.398 486.382 701.709 486.352 682.428C486.322 663.148 445.842 647.576 395.938 647.648C346.034 647.72 305.602 663.409 305.633 682.689C305.663 701.97 346.142 717.542 396.047 717.47Z" fill="#340B0B"/>
<path opacity="0.5" d="M396.045 716.168C444.089 716.099 483.012 700.995 482.983 682.434C482.954 663.872 443.984 648.88 395.94 648.95C347.896 649.019 308.973 664.123 309.002 682.685C309.031 701.247 348.001 716.238 396.045 716.168Z" fill="#330C0C"/>
<path opacity="0.5385" d="M396.043 714.867C442.226 714.8 479.642 700.281 479.614 682.439C479.586 664.596 442.125 650.185 395.942 650.252C349.759 650.319 312.343 664.837 312.371 682.68C312.398 700.523 349.86 714.933 396.043 714.867Z" fill="#310D0D"/>
<path opacity="0.5769" d="M396.041 713.565C440.364 713.501 476.272 699.568 476.246 682.443C476.219 665.319 440.267 651.489 395.944 651.553C351.622 651.617 315.713 665.551 315.74 682.675C315.766 699.799 351.719 713.629 396.041 713.565Z" fill="#2F0E0E"/>
<path opacity="0.6154" d="M396.039 712.264C438.501 712.203 472.902 698.854 472.877 682.448C472.851 666.043 438.408 652.794 395.946 652.855C353.485 652.916 319.083 666.265 319.109 682.67C319.134 699.076 353.577 712.325 396.039 712.264Z" fill="#2D0F0F"/>
<path opacity="0.6538" d="M396.033 710.962C436.635 710.903 469.529 698.14 469.504 682.453C469.48 666.767 436.546 654.098 395.945 654.157C355.344 654.215 322.45 666.979 322.474 682.666C322.498 698.352 355.432 711.021 396.033 710.962Z" fill="#2B1010"/>
<path opacity="0.6923" d="M396.031 709.661C434.772 709.605 466.158 697.426 466.135 682.458C466.112 667.491 434.687 655.403 395.947 655.459C357.206 655.514 325.82 667.693 325.843 682.661C325.866 697.628 357.291 709.717 396.031 709.661Z" fill="#291111"/>
<path opacity="0.7308" d="M396.029 708.36C432.909 708.307 462.789 696.712 462.766 682.464C462.744 668.215 432.829 656.707 395.949 656.761C359.069 656.814 329.19 668.408 329.212 682.657C329.234 696.905 359.149 708.413 396.029 708.36Z" fill="#271212"/>
<path opacity="0.7692" d="M396.027 707.058C431.047 707.008 459.418 695.998 459.397 682.469C459.376 668.939 430.97 658.011 395.951 658.062C360.932 658.113 332.56 669.122 332.581 682.652C332.602 696.182 361.008 707.109 396.027 707.058Z" fill="#251212"/>
<path opacity="0.8077" d="M396.026 705.757C429.184 705.709 456.049 695.285 456.029 682.474C456.009 669.663 429.112 659.316 395.953 659.364C362.795 659.412 335.93 669.836 335.95 682.647C335.97 695.458 362.867 705.805 396.026 705.757Z" fill="#231313"/>
<path opacity="0.8462" d="M396.024 704.456C427.322 704.41 452.678 694.571 452.66 682.479C452.641 670.387 427.253 660.621 395.955 660.666C364.657 660.711 339.3 670.55 339.319 682.643C339.338 694.735 364.725 704.501 396.024 704.456Z" fill="#211414"/>
<path opacity="0.8846" d="M396.022 703.154C425.459 703.111 449.309 693.857 449.291 682.484C449.273 671.11 425.395 661.925 395.958 661.967C366.52 662.01 342.671 671.264 342.688 682.638C342.706 694.011 366.584 703.196 396.022 703.154Z" fill="#1F1515"/>
<path opacity="0.9231" d="M396.02 701.852C423.597 701.813 445.939 693.143 445.922 682.489C445.905 671.834 423.536 663.23 395.96 663.269C368.383 663.309 346.041 671.979 346.057 682.633C346.074 693.287 368.443 701.892 396.02 701.852Z" fill="#1D1616"/>
<path opacity="0.9615" d="M396.014 700.552C421.73 700.514 442.565 692.43 442.55 682.494C442.534 672.559 421.674 664.535 395.958 664.572C370.242 664.609 349.407 672.693 349.423 682.629C349.438 692.564 370.298 700.589 396.014 700.552Z" fill="#1B1717"/>
<path d="M396.012 699.251C419.868 699.216 439.195 691.716 439.18 682.5C439.166 673.283 419.816 665.839 395.96 665.874C372.104 665.908 352.777 673.408 352.792 682.624C352.806 691.841 372.156 699.285 396.012 699.251Z" fill="#191818"/>
</g>
<path d="M123.614 409.755C124.99 410.894 126.405 411.994 127.886 413.034C129.365 414.073 130.885 415.034 132.431 415.948L156.441 432.563L169.987 414.696C205.528 410.126 244.227 386.96 272.507 349.659C300.787 312.359 311.905 269.82 305.586 235.849L319.269 217.801L286.395 194.96L286.253 195.147C242.855 169.548 174.841 193.51 131.403 250.802C87.9652 308.095 85.0027 377.747 123.571 409.717L123.567 409.723L123.614 409.755Z" fill="url(#paint0_linear_795_37739)"/>
<path d="M153.048 430.457C109.99 400.214 111.566 327.581 156.567 268.227C201.569 208.872 272.956 185.272 316.014 215.514C359.072 245.756 357.496 318.389 312.495 377.744C267.493 437.099 196.107 460.699 153.048 430.457Z" fill="url(#paint1_linear_795_37739)"/>
<path d="M159.357 270.186C203.87 211.476 274.179 187.783 317.372 216.542C316.914 216.203 316.481 215.842 316.014 215.514C272.955 185.272 201.569 208.872 156.567 268.227C111.566 327.581 109.99 400.214 153.048 430.458C153.516 430.786 154.005 431.072 154.48 431.388C112.848 400.569 114.844 328.896 159.357 270.186Z" fill="url(#paint2_linear_795_37739)"/>
<path d="M168.634 414.329C169.782 415.28 184.709 425.132 185.946 426C187.181 426.868 188.45 427.67 189.741 428.433L209.786 442.304L221.095 427.388C250.767 423.573 283.075 404.233 306.686 373.092C330.296 341.952 339.578 306.439 334.302 278.077L345.726 263.01L304.535 235.008L304.417 235.164C268.185 213.791 211.402 233.796 175.137 281.627C138.872 329.457 136.398 387.607 168.597 414.297L168.594 414.302L168.634 414.329Z" fill="url(#paint3_linear_795_37739)"/>
<path d="M206.951 440.546C171.004 415.298 172.319 354.66 209.89 305.107C247.461 255.555 307.059 235.852 343.007 261.101C378.954 286.349 377.639 346.988 340.068 396.54C302.497 446.092 242.899 465.794 206.951 440.546Z" fill="url(#paint4_linear_795_37739)"/>
<path d="M196.923 457.031C198.299 458.169 199.714 459.27 201.195 460.31C202.674 461.349 204.194 462.31 205.74 463.224L229.75 479.838L243.296 461.972C278.837 457.401 317.535 434.235 345.816 396.935C374.096 359.635 385.214 317.096 378.894 283.124L392.578 265.077L359.703 242.236L359.562 242.423C316.164 216.823 248.149 240.786 204.712 298.078C161.274 355.37 158.311 425.023 196.88 456.993L196.876 456.998L196.923 457.031Z" fill="url(#paint5_linear_795_37739)"/>
<path d="M226.357 477.733C183.299 447.491 184.874 374.858 229.876 315.503C274.878 256.148 346.264 232.548 389.322 262.79C432.381 293.033 430.805 365.666 385.803 425.021C340.802 484.376 269.415 507.976 226.357 477.733Z" fill="url(#paint6_linear_795_37739)"/>
<path d="M343.138 395.061C322.749 421.923 290.442 432.604 270.949 418.919C268.229 417.004 265.893 414.72 263.977 412.138C282.357 413.93 304.643 402.862 320.085 382.5C337.607 359.363 340.582 331.799 328.627 315.831C334.504 316.393 339.998 318.272 344.725 321.61C364.219 335.295 363.507 368.183 343.138 395.061Z" fill="#3B3B3B"/>
<path d="M320.087 382.5C304.646 402.862 282.36 413.93 263.979 412.138C252.024 396.168 255.018 368.587 272.54 345.467C287.963 325.124 310.249 314.055 328.629 315.83C340.585 331.799 337.61 359.363 320.087 382.5Z" fill="#535353"/>
<path d="M300.494 306.655C294.976 302.78 295.178 293.472 300.947 285.865C306.715 278.258 315.865 275.233 321.383 279.108C326.902 282.984 326.7 292.292 320.931 299.899C315.163 307.506 306.013 310.531 300.494 306.655Z" fill="url(#paint7_linear_795_37739)"/>
<path d="M300.494 469.061C294.976 465.186 295.178 455.878 300.947 448.271C306.715 440.664 315.865 437.639 321.383 441.514C326.902 445.39 326.7 454.698 320.931 462.305C315.163 469.912 306.013 472.937 300.494 469.061Z" fill="url(#paint8_linear_795_37739)"/>
<path d="M211.948 399.497C206.429 395.621 206.631 386.313 212.4 378.706C218.168 371.099 227.318 368.074 232.836 371.95C238.355 375.825 238.153 385.134 232.384 392.741C226.616 400.347 217.466 403.372 211.948 399.497Z" fill="url(#paint9_linear_795_37739)"/>
<path d="M385.565 350.239C380.046 346.363 380.249 337.055 386.017 329.448C391.785 321.841 400.935 318.816 406.454 322.692C411.972 326.567 411.77 335.875 406.001 343.482C400.233 351.089 391.084 354.114 385.565 350.239Z" fill="url(#paint10_linear_795_37739)"/>
<path d="M352.588 311.237C347.07 307.361 347.272 298.053 353.04 290.446C358.809 282.839 367.959 279.814 373.477 283.69C378.996 287.565 378.793 296.873 373.025 304.481C367.257 312.087 358.107 315.112 352.588 311.237Z" fill="url(#paint11_linear_795_37739)"/>
<path d="M235.463 460.914C229.945 457.038 230.147 447.73 235.915 440.123C241.684 432.516 250.834 429.491 256.352 433.367C261.871 437.242 261.668 446.55 255.9 454.157C250.131 461.764 240.982 464.789 235.463 460.914Z" fill="url(#paint12_linear_795_37739)"/>
<path d="M359.846 421.556C354.327 417.68 354.53 408.372 360.298 400.765C366.066 393.158 375.216 390.133 380.735 394.009C386.254 397.884 386.051 407.193 380.283 414.8C374.514 422.407 365.364 425.431 359.846 421.556Z" fill="url(#paint13_linear_795_37739)"/>
<path d="M244.303 340.391C238.784 336.516 238.987 327.208 244.755 319.6C250.523 311.994 259.673 308.969 265.192 312.844C270.711 316.72 270.508 326.028 264.74 333.635C258.971 341.241 249.822 344.266 244.303 340.391Z" fill="url(#paint14_linear_795_37739)"/>
<path d="M231.905 317.59C276.906 258.235 348.293 234.635 391.351 264.877C394.673 267.21 397.696 269.824 400.487 272.636C397.174 268.998 393.459 265.695 389.323 262.79C346.265 232.548 274.878 256.148 229.877 315.503C188.346 370.28 183.833 436.336 217.222 469.976C186.04 435.742 191.225 371.245 231.905 317.59Z" fill="url(#paint15_linear_795_37739)"/>
<path d="M139.543 485.049C114.054 522.411 186.042 553.062 157.367 600.884C140.395 629.213 105.742 642.118 77.5392 631.186C41.356 620.985 20.7246 587.054 20.0938 586.006C27.7119 594.933 36.9235 600.747 46.7659 603.799L47.0184 603.92C47.0184 603.905 47.0184 603.89 47.0025 603.875C74.4475 612.27 106.751 599.29 122.965 572.237C151.625 524.415 79.6525 493.763 105.126 456.401C114.684 442.391 126.694 436.727 137.972 435.121C156.769 432.444 183.676 442.297 183.676 442.297L214.335 469.172C214.335 469.172 165.017 447.687 139.543 485.049Z" fill="url(#paint16_linear_795_37739)"/>
<path d="M47.0017 603.875C46.9229 603.859 46.8438 603.83 46.7651 603.799C36.9227 600.748 27.7111 594.933 20.0929 586.006C20.077 585.991 20.077 585.976 20.077 585.976C11.4967 575.895 4.96644 561.883 1.89062 543.423L36.2918 572.07C38.4055 584.701 42.1118 595.237 47.0017 603.875Z" fill="url(#paint17_linear_795_37739)"/>
<path d="M458.129 300.168L722.956 268.919V218.564L442.047 288.172L458.129 300.168Z" fill="#3B3B3B"/>
<path d="M706.866 206.573V256.93L706.44 256.976L685.194 259.481L442.052 288.174L441.626 283.802L438.44 250.645L438.125 247.366L440.254 247.047L461.17 243.874L706.866 206.573Z" fill="#535353"/>
<path d="M706.871 206.568L722.954 218.564V268.919L706.871 256.923V206.568Z" fill="#2D2D2D"/>
<path d="M477.647 241.37L454.73 286.675L476.175 283.757L498.688 237.743L477.647 241.37Z" fill="url(#paint18_linear_795_37739)"/>
<path d="M461.171 243.874L441.627 283.802L438.441 250.645L440.255 247.047L461.171 243.874Z" fill="url(#paint19_linear_795_37739)"/>
<path d="M516.735 235.436L493.098 282.232L514.542 279.314L537.557 232.274L516.735 235.436Z" fill="url(#paint20_linear_795_37739)"/>
<path d="M556.241 229.438L531.465 277.789L552.91 274.872L576.883 226.304L556.241 229.438Z" fill="url(#paint21_linear_795_37739)"/>
<path d="M595.02 223.55L569.832 273.346L591.277 270.428L615.752 220.402L595.02 223.55Z" fill="url(#paint22_linear_795_37739)"/>
<path d="M634.144 217.61L608.199 268.903L629.644 265.985L654.85 214.467L634.144 217.61Z" fill="url(#paint23_linear_795_37739)"/>
<path d="M672.733 211.971L646.852 263.906L668.296 260.988L693.963 208.528L672.733 211.971Z" fill="url(#paint24_linear_795_37739)"/>
<path d="M706.866 216.638V256.095L706.441 256.976L706.377 257.097L684.926 260.012L685.194 259.481L706.866 216.638Z" fill="url(#paint25_linear_795_37739)"/>
<path d="M442.047 288.172L680.144 318.943L557.392 576.247L342.293 473.046L442.047 288.172Z" fill="#535353"/>
<path d="M680.142 318.942L697.203 333.903L582.192 571.076L557.391 576.246L680.142 318.942Z" fill="#3B3B3B"/>
<path d="M680.149 318.947L668.319 343.723L661.458 358.115L652.767 356.643L425.855 318.188L442.054 288.174L642.829 314.119L661.111 316.487L680.149 318.947Z" fill="url(#paint26_linear_795_37739)"/>
<path d="M443.617 288.172L451.97 323.894L471.975 327.089L461.894 290.534L443.617 288.172Z" fill="#535353"/>
<path d="M476.816 292.486L485.168 328.209L505.174 331.404L495.093 294.848L476.816 292.486Z" fill="#535353"/>
<path d="M510.016 296.801L518.694 333.918L538.7 337.113L528.293 299.163L510.016 296.801Z" fill="#535353"/>
<path d="M543.215 301.115L552.212 339.597L572.396 343.018L561.492 303.477L543.215 301.115Z" fill="#535353"/>
<path d="M576.414 305.43L585.731 345.277L605.962 348.662L594.691 307.792L576.414 305.43Z" fill="#535353"/>
<path d="M609.609 309.745L619.245 350.957L639.549 354.398L627.886 312.107L609.609 309.745Z" fill="#535353"/>
<path d="M668.318 343.723L661.456 358.115L652.765 356.643L642.828 314.119L642.812 314.059L661.094 316.426L661.109 316.487L668.318 343.723Z" fill="#535353"/>
<path d="M466.249 265.5L455.904 307.701C454.674 312.722 448.115 314.381 444.478 310.592L421.521 286.669C417.292 282.262 419.127 275.127 425.005 273.129L460.941 260.913C463.972 259.883 466.988 262.488 466.249 265.5Z" fill="url(#paint27_linear_795_37739)"/>
<path d="M464.785 262.582L454.44 304.783C453.209 309.804 446.65 311.463 443.014 307.674L420.056 283.751C415.827 279.344 417.663 272.209 423.541 270.211L459.476 257.995C462.508 256.965 465.523 259.57 464.785 262.582Z" fill="url(#paint28_linear_795_37739)"/>
<path d="M458.924 270.734C461.103 269.166 461.353 266.168 459.483 264.037C457.614 261.906 454.332 261.449 452.153 263.017C449.974 264.584 449.724 267.583 451.593 269.714C453.463 271.845 456.745 272.302 458.924 270.734Z" fill="url(#paint29_linear_795_37739)"/>
<path d="M450.514 300.975C452.692 299.408 452.943 296.409 451.073 294.278C449.203 292.147 445.922 291.69 443.743 293.258C441.564 294.826 441.314 297.824 443.183 299.955C445.052 302.086 448.335 302.543 450.514 300.975Z" fill="url(#paint30_linear_795_37739)"/>
<path d="M432.295 282.21C434.473 280.642 434.724 277.644 432.854 275.513C430.985 273.382 427.703 272.925 425.524 274.493C423.345 276.06 423.095 279.059 424.965 281.19C426.834 283.321 430.116 283.777 432.295 282.21Z" fill="url(#paint31_linear_795_37739)"/>
<path d="M440.647 337.113L373.793 452.715L557.806 532.257L631.526 374.515L440.647 337.113Z" stroke="#CCCCCC" stroke-width="1.81345" stroke-miterlimit="10"/>
<path d="M425.855 362.691L615.754 405.21" stroke="#CCCCCC" stroke-width="1.81345" stroke-miterlimit="10"/>
<path d="M502.66 349.264L432.215 477.969" stroke="#CCCCCC" stroke-width="1.81345" stroke-miterlimit="10"/>
<path d="M571.179 362.691L496.469 505.745" stroke="#CCCCCC" stroke-width="1.81345" stroke-miterlimit="10"/>
<path d="M454.731 339.873L387.34 458.573" stroke="#CCCCCC" stroke-width="1.81345" stroke-miterlimit="10"/>
<path d="M363.461 389.618L466.033 416.177C471.835 417.866 476.336 427.989 473.599 433.195L422.018 531.336C418.91 537.249 411.425 539.636 405.263 536.68L309.664 490.813C304.69 488.427 297.208 477.918 299.77 473.17L349.904 395.12C352.459 390.385 358.155 388.074 363.461 389.618Z" fill="url(#paint32_linear_795_37739)"/>
<path d="M359.078 383.107L463.34 413.467C469.142 415.156 471.953 421.478 469.217 426.684L417.635 524.825C414.527 530.738 407.042 533.125 400.88 530.169L305.281 484.302C300.307 481.916 298.33 476.069 300.891 471.322L345.521 388.609C348.076 383.874 353.773 381.563 359.078 383.107Z" fill="url(#paint33_linear_795_37739)"/>
<path d="M377.565 427.429L358.891 463.545L392.575 455.287L377.565 427.429Z" fill="white"/>
<path d="M469.631 419.146C470.178 421.244 469.995 423.539 468.884 425.654L417.302 523.794C414.194 529.707 406.709 532.095 400.548 529.139L304.948 483.272C302.598 482.144 300.928 480.241 300.078 478.048C300.758 480.669 302.57 483.001 305.283 484.302L400.882 530.169C407.044 533.125 414.529 530.737 417.636 524.825L469.218 426.683C470.515 424.217 470.554 421.504 469.631 419.146Z" fill="url(#paint34_linear_795_37739)"/>
<path d="M269.594 594.704L303.774 529.245L348.645 553.16L313.27 619.599L269.594 594.704Z" fill="url(#paint35_linear_795_37739)"/>
<path d="M253.062 596.897L287.243 531.437L332.114 555.352L296.738 621.791L253.062 596.897Z" fill="url(#paint36_linear_795_37739)"/>
<path d="M348.645 553.159L332.113 555.352L296.738 621.791L313.27 619.599L348.645 553.159Z" fill="url(#paint37_linear_795_37739)"/>
<path d="M287.242 531.437L303.774 529.245L348.645 553.16L332.113 555.352L287.242 531.437Z" fill="#BDFFC3"/>
<path d="M333.973 631.541L382.322 539.874L427.193 563.789L377.648 656.435L333.973 631.541Z" fill="url(#paint38_linear_795_37739)"/>
<path d="M317.441 633.733L365.791 542.067L410.662 565.982L361.117 658.628L317.441 633.733Z" fill="url(#paint39_linear_795_37739)"/>
<path d="M427.194 563.789L410.662 565.982L361.117 658.628L377.649 656.435L427.194 563.789Z" fill="url(#paint40_linear_795_37739)"/>
<path d="M365.793 542.067L382.325 539.874L427.196 563.789L410.664 565.981L365.793 542.067Z" fill="#BDFFC3"/>
<path d="M398.352 668.377L457.385 552.928L502.256 576.842L442.028 693.272L398.352 668.377Z" fill="url(#paint41_linear_795_37739)"/>
<path d="M381.82 670.57L440.854 555.121L485.725 579.035L425.496 695.464L381.82 670.57Z" fill="url(#paint42_linear_795_37739)"/>
<path d="M502.257 576.843L485.725 579.035L425.496 695.464L442.028 693.272L502.257 576.843Z" fill="url(#paint43_linear_795_37739)"/>
<path d="M440.855 555.121L457.387 552.928L502.258 576.842L485.726 579.035L440.855 555.121Z" fill="#BDFFC3"/>
<path d="M462.73 705.214L549.135 539.875L594.006 563.789L506.406 730.109L462.73 705.214Z" fill="url(#paint44_linear_795_37739)"/>
<path d="M446.199 707.407L532.603 542.067L577.474 565.982L489.875 732.301L446.199 707.407Z" fill="url(#paint45_linear_795_37739)"/>
<path d="M594.007 563.789L577.475 565.982L489.875 732.301L506.407 730.109L594.007 563.789Z" fill="url(#paint46_linear_795_37739)"/>
<path d="M532.602 542.067L549.134 539.875L594.004 563.789L577.473 565.982L532.602 542.067Z" fill="#BDFFC3"/>
<path d="M527.109 742.05L600.758 598.155L645.629 622.069L570.785 766.945L527.109 742.05Z" fill="url(#paint47_linear_795_37739)"/>
<path d="M510.578 744.243L584.227 600.347L629.098 624.262L554.254 769.138L510.578 744.243Z" fill="url(#paint48_linear_795_37739)"/>
<path d="M645.63 622.069L629.098 624.262L554.254 769.138L570.786 766.945L645.63 622.069Z" fill="url(#paint49_linear_795_37739)"/>
<path d="M584.227 600.347L600.759 598.155L645.629 622.069L629.097 624.262L584.227 600.347Z" fill="#BDFFC3"/>
<path d="M640.449 501.085C624.47 533.783 637.527 569.08 669.613 579.921C701.698 590.762 740.661 573.043 756.64 540.344C772.619 507.646 759.562 472.35 727.476 461.509C695.391 450.667 656.427 468.386 640.449 501.085Z" fill="url(#paint50_linear_795_37739)"/>
<path d="M631.296 494.563C615.318 527.262 628.375 562.558 660.46 573.399C692.545 584.24 731.509 566.521 747.488 533.823C763.466 501.124 750.409 465.828 718.324 454.987C686.238 444.145 647.275 461.864 631.296 494.563Z" fill="url(#paint51_linear_795_37739)"/>
<path d="M681.246 503.696C681.246 512.664 676.352 517.116 670.64 517.117C665.133 517.118 660.373 512.863 660.305 504.287C660.304 495.777 665.131 490.997 670.979 490.996C677.166 490.996 681.246 495.578 681.246 503.696ZM665.064 504.09C664.929 509.524 667.036 513.648 670.776 513.648C674.719 513.647 676.487 509.588 676.487 503.958C676.486 498.786 674.922 494.466 670.775 494.466C667.035 494.467 665.063 498.722 665.064 504.09ZM670.233 534.989L696.204 490.994L700.011 490.993L674.04 534.989L670.233 534.989ZM710.008 521.302C710.008 530.271 705.113 534.723 699.469 534.724C693.963 534.724 689.203 530.47 689.134 521.959C689.134 513.384 693.961 508.604 699.808 508.603C705.995 508.603 710.007 513.185 710.008 521.302ZM693.825 521.697C693.757 527.131 695.934 531.255 699.606 531.254C703.549 531.254 705.316 527.195 705.316 521.565C705.316 516.393 703.751 512.072 699.604 512.073C695.865 512.073 693.825 516.329 693.825 521.697Z" fill="white"/>
<path d="M167.374 645.008C156.219 667.836 165.335 692.477 187.734 700.045C210.134 707.614 237.336 695.244 248.491 672.416C259.646 649.588 250.53 624.947 228.131 617.378C205.731 609.81 178.53 622.18 167.374 645.008Z" fill="url(#paint52_linear_795_37739)"/>
<path d="M160.988 640.455C149.832 663.283 158.948 687.924 181.348 695.492C203.747 703.061 230.949 690.691 242.104 667.863C253.259 645.035 244.144 620.394 221.744 612.825C199.344 605.257 172.143 617.627 160.988 640.455Z" fill="url(#paint53_linear_795_37739)"/>
<path d="M178.895 641.404L183.771 672.005L232.73 656.704L230.195 646.848L192.743 658.711L188.843 637.649L178.895 641.404Z" fill="white"/>
<path d="M399.03 129.765L409.57 163.494L446.176 175.559L414.07 194.128L413.591 228.9L383.209 206.648L346.308 216.073L359.636 183.751L337.309 154.804L375.928 157.08L399.03 129.765Z" fill="url(#paint54_linear_795_37739)"/>
<path d="M400.694 121.688L411.234 155.417L447.84 167.482L415.734 186.051L415.255 220.824L384.873 198.571L347.972 207.997L361.3 175.674L338.973 146.727L377.593 149.004L400.694 121.688Z" fill="url(#paint55_linear_795_37739)"/>
<path d="M384.872 198.571L383.21 206.648L346.309 216.074L347.971 207.997L384.872 198.571Z" fill="url(#paint56_linear_795_37739)"/>
<path d="M415.252 220.824L413.59 228.901L383.207 206.648L384.869 198.571L415.252 220.824Z" fill="url(#paint57_linear_795_37739)"/>
<path d="M447.837 167.482L446.175 175.559L415.633 193.224L415.732 186.051L447.837 167.482Z" fill="url(#paint58_linear_795_37739)"/>
<path d="M338.971 146.727L361.298 175.674L358.549 182.342L337.309 154.805L338.971 146.727Z" fill="url(#paint59_linear_795_37739)"/>
<path d="M383.208 198.069L348.395 206.961L347.969 207.997L384.146 198.756L383.208 198.069Z" fill="url(#paint60_linear_795_37739)"/>
<path d="M411.229 155.417L400.69 121.688L399.59 122.988L409.568 154.915L446.173 166.979L414.067 185.55L413.598 219.614L415.25 220.824L415.729 186.051L447.835 167.482L411.229 155.417Z" fill="url(#paint61_linear_795_37739)"/>
<path d="M802.796 359.437C807.7 384.425 792.406 405.414 768.636 406.317C744.866 407.219 721.621 387.692 716.716 362.703C711.812 337.714 727.105 316.725 750.875 315.823C774.646 314.921 797.891 334.448 802.796 359.437Z" fill="url(#paint62_linear_795_37739)"/>
<path d="M810.198 356.889C815.102 381.878 799.809 402.867 776.039 403.769C752.268 404.671 729.023 385.145 724.118 360.156C719.214 335.167 734.508 314.178 758.278 313.276C782.048 312.374 805.294 331.9 810.198 356.889Z" fill="url(#paint63_linear_795_37739)"/>
<path d="M765.47 379.428L765.149 374.131C761.984 374.123 758.655 373.224 756.667 371.94L757.763 368.407C759.802 369.638 762.698 370.595 765.751 370.552C769.622 370.498 772.109 368.311 771.928 365.321C771.754 362.436 769.519 360.683 765.389 359.166C759.701 357.146 756.12 354.781 755.844 350.218C755.58 345.864 758.598 342.515 763.566 341.657L763.246 336.36L766.626 336.312L766.934 341.4C770.212 341.459 772.498 342.267 774.133 343.137L772.98 346.618C771.796 346.004 769.491 344.882 766.002 344.931C761.804 344.99 760.368 347.425 760.495 349.523C760.66 352.25 762.76 353.586 767.618 355.407C773.367 357.532 776.367 360.219 776.65 364.888C776.901 369.031 774.137 372.955 768.575 373.925L768.905 379.38L765.47 379.428Z" fill="white"/>
<g opacity="0.17">
<path opacity="0.0385" d="M674.104 833.09C721.853 833.021 760.538 818.011 760.509 799.565C760.481 781.118 721.749 766.22 674 766.289C626.251 766.358 587.566 781.368 587.595 799.814C587.624 818.261 626.355 833.159 674.104 833.09Z" fill="#4A0101"/>
<path opacity="0.0769" d="M674.105 832.207C720.591 832.14 758.254 817.527 758.226 799.568C758.198 781.609 720.49 767.105 674.004 767.172C627.517 767.239 589.855 781.852 589.883 799.811C589.911 817.77 627.618 832.274 674.105 832.207Z" fill="#480202"/>
<path opacity="0.1154" d="M674.105 831.324C719.329 831.259 755.968 817.043 755.941 799.572C755.914 782.101 719.231 767.99 674.007 768.056C628.782 768.121 592.143 782.337 592.17 799.808C592.198 817.279 628.881 831.39 674.105 831.324Z" fill="#460303"/>
<path opacity="0.1538" d="M674.101 830.441C718.063 830.377 753.679 816.558 753.653 799.575C753.626 782.591 717.967 768.875 674.006 768.938C630.044 769.002 594.428 782.821 594.454 799.804C594.481 816.788 630.14 830.504 674.101 830.441Z" fill="#440404"/>
<path opacity="0.1923" d="M674.102 829.558C716.801 829.497 751.395 816.074 751.369 799.578C751.343 783.083 716.708 769.76 674.009 769.822C631.31 769.883 596.716 783.306 596.742 799.802C596.768 816.298 631.403 829.62 674.102 829.558Z" fill="#420505"/>
<path opacity="0.2308" d="M674.098 828.675C715.535 828.615 749.106 815.589 749.081 799.581C749.056 783.573 715.445 770.645 674.008 770.704C632.571 770.764 599.001 783.79 599.026 799.798C599.051 815.806 632.662 828.735 674.098 828.675Z" fill="#400606"/>
<path opacity="0.2692" d="M674.099 827.792C714.273 827.734 746.821 815.105 746.796 799.585C746.772 784.065 714.185 771.53 674.011 771.588C633.837 771.646 601.289 784.275 601.313 799.795C601.338 815.315 633.925 827.85 674.099 827.792Z" fill="#3E0606"/>
<path opacity="0.3077" d="M674.095 826.909C713.007 826.853 744.532 814.621 744.509 799.588C744.485 784.556 712.922 772.415 674.01 772.471C635.099 772.527 603.574 784.759 603.597 799.792C603.621 814.824 635.184 826.965 674.095 826.909Z" fill="#3C0707"/>
<path opacity="0.3462" d="M674.096 826.026C711.745 825.972 742.247 814.137 742.224 799.592C742.202 785.047 711.663 773.3 674.014 773.355C636.364 773.409 605.862 785.244 605.885 799.789C605.907 814.334 636.446 826.08 674.096 826.026Z" fill="#3A0808"/>
<path opacity="0.3846" d="M674.092 825.143C710.479 825.091 739.958 813.652 739.936 799.595C739.914 785.538 710.399 774.185 674.013 774.238C637.626 774.29 608.147 785.728 608.169 799.786C608.19 813.843 637.705 825.196 674.092 825.143Z" fill="#380909"/>
<path opacity="0.4231" d="M674.092 824.26C709.216 824.209 737.673 813.168 737.652 799.599C737.631 786.029 709.14 775.07 674.016 775.121C638.892 775.172 610.435 786.213 610.456 799.782C610.477 813.352 638.968 824.311 674.092 824.26Z" fill="#360A0A"/>
<path opacity="0.4615" d="M674.089 823.377C707.951 823.328 735.385 812.684 735.364 799.602C735.344 786.52 707.877 775.955 674.015 776.004C640.153 776.053 612.72 786.698 612.74 799.779C612.76 812.861 640.227 823.426 674.089 823.377Z" fill="#340B0B"/>
<path opacity="0.5" d="M674.089 822.494C706.688 822.447 733.099 812.2 733.08 799.606C733.06 787.012 706.617 776.841 674.018 776.888C641.419 776.935 615.008 787.182 615.028 799.776C615.047 812.37 641.49 822.541 674.089 822.494Z" fill="#330C0C"/>
<path opacity="0.5385" d="M674.086 821.611C705.422 821.566 730.81 811.716 730.791 799.609C730.773 787.503 705.354 777.726 674.017 777.771C642.681 777.817 617.293 787.667 617.312 799.773C617.33 811.879 642.749 821.657 674.086 821.611Z" fill="#310D0D"/>
<path opacity="0.5769" d="M674.086 820.728C704.16 820.685 728.526 811.231 728.508 799.613C728.49 787.994 704.095 778.611 674.021 778.654C643.946 778.697 619.581 788.151 619.599 799.77C619.617 811.388 644.012 820.772 674.086 820.728Z" fill="#2F0E0E"/>
<path opacity="0.6154" d="M674.083 819.845C702.894 819.804 726.237 810.747 726.219 799.616C726.202 788.485 702.831 779.496 674.02 779.537C645.208 779.579 621.866 788.636 621.883 799.767C621.9 810.897 645.271 819.887 674.083 819.845Z" fill="#2D0F0F"/>
<path opacity="0.6538" d="M674.083 818.963C701.632 818.923 723.952 810.263 723.935 799.62C723.918 788.977 701.572 780.381 674.023 780.421C646.474 780.461 624.154 789.121 624.171 799.764C624.187 810.407 646.534 819.002 674.083 818.963Z" fill="#2B1010"/>
<path opacity="0.6923" d="M674.08 818.079C700.366 818.041 721.663 809.778 721.647 799.623C721.632 789.468 700.309 781.266 674.022 781.304C647.735 781.342 626.439 789.605 626.454 799.76C626.47 809.915 647.793 818.117 674.08 818.079Z" fill="#291111"/>
<path opacity="0.7308" d="M674.076 817.197C699.1 817.161 719.374 809.295 719.359 799.627C719.344 789.959 699.046 782.152 674.021 782.188C648.997 782.224 628.723 790.09 628.738 799.758C628.753 809.426 649.052 817.233 674.076 817.197Z" fill="#271212"/>
<path opacity="0.7692" d="M674.076 816.314C697.838 816.28 717.089 808.81 717.075 799.63C717.06 790.451 697.786 783.037 674.024 783.071C650.263 783.105 631.012 790.575 631.026 799.755C631.04 808.934 650.314 816.348 674.076 816.314Z" fill="#251212"/>
<path opacity="0.8077" d="M674.073 815.431C696.572 815.399 714.8 808.326 714.786 799.634C714.773 790.942 696.523 783.922 674.023 783.955C651.524 783.987 633.296 791.06 633.31 799.752C633.323 808.444 651.573 815.464 674.073 815.431Z" fill="#231313"/>
<path opacity="0.8462" d="M674.073 814.548C695.31 814.517 712.515 807.841 712.503 799.637C712.49 791.433 695.264 784.807 674.027 784.838C652.79 784.868 635.585 791.544 635.597 799.748C635.61 807.953 652.836 814.579 674.073 814.548Z" fill="#211414"/>
<path opacity="0.8846" d="M674.07 813.666C694.044 813.637 710.226 807.358 710.214 799.642C710.202 791.925 694 785.693 674.026 785.722C654.052 785.751 637.869 792.03 637.881 799.746C637.893 807.463 654.095 813.695 674.07 813.666Z" fill="#1F1515"/>
<path opacity="0.9231" d="M674.07 812.783C692.781 812.756 707.941 806.874 707.93 799.645C707.919 792.416 692.741 786.578 674.029 786.605C655.317 786.632 640.158 792.514 640.169 799.743C640.18 806.972 655.358 812.81 674.07 812.783Z" fill="#1D1616"/>
<path opacity="0.9615" d="M674.066 811.9C691.516 811.875 705.653 806.39 705.642 799.648C705.632 792.907 691.478 787.463 674.028 787.488C656.579 787.513 642.442 792.999 642.453 799.74C642.463 806.481 656.617 811.925 674.066 811.9Z" fill="#1B1717"/>
<path d="M674.063 811.019C690.25 810.995 703.364 805.907 703.354 799.653C703.344 793.4 690.214 788.35 674.028 788.373C657.841 788.396 644.727 793.485 644.736 799.738C644.746 805.992 657.876 811.042 674.063 811.019Z" fill="#191818"/>
</g>
<path d="M683.055 692.701C708.296 696.006 706.337 728.586 706.337 728.586C706.337 728.586 729 701.11 752.069 709.714C775.137 718.319 770.07 783.194 677.189 799.68C613.637 744.631 657.812 689.396 683.055 692.701Z" fill="url(#paint64_linear_795_37739)"/>
<path d="M680.07 682.691C705.311 685.996 703.352 718.576 703.352 718.576C703.352 718.576 726.016 691.1 749.084 699.704C772.153 708.309 767.086 773.184 674.205 789.67C610.653 734.621 654.828 679.386 680.07 682.691Z" fill="url(#paint65_linear_795_37739)"/>
<path d="M650.464 700.427C637.593 720.777 636.016 754.627 675.02 788.412C716.781 781 740.781 763.806 752.463 746.341C741.104 764.232 716.966 782.08 674.203 789.67C634.386 755.181 636.858 720.62 650.464 700.427Z" fill="url(#paint66_linear_795_37739)"/>
</g>
<defs>
<linearGradient id="paint0_linear_795_37739" x1="128.476" y1="404.882" x2="242.236" y2="229.974" gradientUnits="userSpaceOnUse">
<stop stop-color="#DDDDDD"/>
<stop offset="1" stop-color="#F9F9F9"/>
</linearGradient>
<linearGradient id="paint1_linear_795_37739" x1="316.016" y1="215.515" x2="161.088" y2="436.104" gradientUnits="userSpaceOnUse">
<stop stop-color="#DDDDDD"/>
<stop offset="1" stop-color="#ABABAB"/>
</linearGradient>
<linearGradient id="paint2_linear_795_37739" x1="274.9" y1="277.288" x2="153.55" y2="345.96" gradientUnits="userSpaceOnUse">
<stop stop-color="#DDDDDD"/>
<stop offset="1" stop-color="white"/>
</linearGradient>
<linearGradient id="paint3_linear_795_37739" x1="179.571" y1="414.727" x2="274.545" y2="268.71" gradientUnits="userSpaceOnUse">
<stop stop-color="#B92222"/>
<stop offset="0.2473" stop-color="#DD2F2F"/>
<stop offset="0.8548" stop-color="#FF6757"/>
</linearGradient>
<linearGradient id="paint4_linear_795_37739" x1="343.005" y1="261.1" x2="213.658" y2="445.257" gradientUnits="userSpaceOnUse">
<stop stop-color="#8C610A"/>
<stop offset="0.2661" stop-color="#E4A663"/>
<stop offset="0.7285" stop-color="#FFEFAB"/>
<stop offset="1" stop-color="#F8B143"/>
</linearGradient>
<linearGradient id="paint5_linear_795_37739" x1="201.785" y1="452.158" x2="315.544" y2="277.249" gradientUnits="userSpaceOnUse">
<stop stop-color="#DDDDDD"/>
<stop offset="1" stop-color="#F9F9F9"/>
</linearGradient>
<linearGradient id="paint6_linear_795_37739" x1="389.324" y1="262.791" x2="234.397" y2="483.38" gradientUnits="userSpaceOnUse">
<stop stop-color="#DDDDDD"/>
<stop offset="1" stop-color="#ABABAB"/>
</linearGradient>
<linearGradient id="paint7_linear_795_37739" x1="321.383" y1="279.108" x2="301.528" y2="307.381" gradientUnits="userSpaceOnUse">
<stop stop-color="#303030"/>
<stop offset="1" stop-color="#727272"/>
</linearGradient>
<linearGradient id="paint8_linear_795_37739" x1="321.383" y1="441.514" x2="301.528" y2="469.787" gradientUnits="userSpaceOnUse">
<stop stop-color="#303030"/>
<stop offset="1" stop-color="#727272"/>
</linearGradient>
<linearGradient id="paint9_linear_795_37739" x1="232.837" y1="371.95" x2="212.981" y2="400.222" gradientUnits="userSpaceOnUse">
<stop stop-color="#303030"/>
<stop offset="1" stop-color="#727272"/>
</linearGradient>
<linearGradient id="paint10_linear_795_37739" x1="406.454" y1="322.691" x2="386.598" y2="350.964" gradientUnits="userSpaceOnUse">
<stop stop-color="#303030"/>
<stop offset="1" stop-color="#727272"/>
</linearGradient>
<linearGradient id="paint11_linear_795_37739" x1="373.477" y1="283.69" x2="353.622" y2="311.963" gradientUnits="userSpaceOnUse">
<stop stop-color="#303030"/>
<stop offset="1" stop-color="#727272"/>
</linearGradient>
<linearGradient id="paint12_linear_795_37739" x1="256.352" y1="433.367" x2="236.497" y2="461.639" gradientUnits="userSpaceOnUse">
<stop stop-color="#303030"/>
<stop offset="1" stop-color="#727272"/>
</linearGradient>
<linearGradient id="paint13_linear_795_37739" x1="380.735" y1="394.009" x2="360.879" y2="422.282" gradientUnits="userSpaceOnUse">
<stop stop-color="#303030"/>
<stop offset="1" stop-color="#727272"/>
</linearGradient>
<linearGradient id="paint14_linear_795_37739" x1="265.192" y1="312.844" x2="245.336" y2="341.117" gradientUnits="userSpaceOnUse">
<stop stop-color="#303030"/>
<stop offset="1" stop-color="#727272"/>
</linearGradient>
<linearGradient id="paint15_linear_795_37739" x1="399.269" y1="338.2" x2="267.641" y2="363.263" gradientUnits="userSpaceOnUse">
<stop stop-color="#DDDDDD"/>
<stop offset="1" stop-color="white"/>
</linearGradient>
<linearGradient id="paint16_linear_795_37739" x1="20.0939" y1="534.857" x2="214.335" y2="534.857" gradientUnits="userSpaceOnUse">
<stop stop-color="#B92222"/>
<stop offset="0.2473" stop-color="#DD2F2F"/>
<stop offset="0.8548" stop-color="#FF6757"/>
</linearGradient>
<linearGradient id="paint17_linear_795_37739" x1="1.89059" y1="573.649" x2="47.0017" y2="573.649" gradientUnits="userSpaceOnUse">
<stop stop-color="#B92222"/>
<stop offset="0.2473" stop-color="#DD2F2F"/>
<stop offset="0.8548" stop-color="#FF6757"/>
</linearGradient>
<linearGradient id="paint18_linear_795_37739" x1="710.323" y1="230.822" x2="436.92" y2="270.473" gradientUnits="userSpaceOnUse">
<stop stop-color="#F4F4F4"/>
<stop offset="1" stop-color="#ABABAB"/>
</linearGradient>
<linearGradient id="paint19_linear_795_37739" x1="710.074" y1="229.084" x2="436.67" y2="268.735" gradientUnits="userSpaceOnUse">
<stop stop-color="#F4F4F4"/>
<stop offset="1" stop-color="#ABABAB"/>
</linearGradient>
<linearGradient id="paint20_linear_795_37739" x1="710.357" y1="231.05" x2="436.953" y2="270.701" gradientUnits="userSpaceOnUse">
<stop stop-color="#F4F4F4"/>
<stop offset="1" stop-color="#ABABAB"/>
</linearGradient>
<linearGradient id="paint21_linear_795_37739" x1="710.359" y1="231.062" x2="436.956" y2="270.713" gradientUnits="userSpaceOnUse">
<stop stop-color="#F4F4F4"/>
<stop offset="1" stop-color="#ABABAB"/>
</linearGradient>
<linearGradient id="paint22_linear_795_37739" x1="710.362" y1="231.078" x2="436.959" y2="270.729" gradientUnits="userSpaceOnUse">
<stop stop-color="#F4F4F4"/>
<stop offset="1" stop-color="#ABABAB"/>
</linearGradient>
<linearGradient id="paint23_linear_795_37739" x1="710.365" y1="231.092" x2="436.962" y2="270.743" gradientUnits="userSpaceOnUse">
<stop stop-color="#F4F4F4"/>
<stop offset="1" stop-color="#ABABAB"/>
</linearGradient>
<linearGradient id="paint24_linear_795_37739" x1="710.328" y1="230.853" x2="436.925" y2="270.504" gradientUnits="userSpaceOnUse">
<stop stop-color="#F4F4F4"/>
<stop offset="1" stop-color="#ABABAB"/>
</linearGradient>
<linearGradient id="paint25_linear_795_37739" x1="711.117" y1="236.28" x2="437.713" y2="275.931" gradientUnits="userSpaceOnUse">
<stop stop-color="#F4F4F4"/>
<stop offset="1" stop-color="#ABABAB"/>
</linearGradient>
<linearGradient id="paint26_linear_795_37739" x1="425.855" y1="323.144" x2="680.149" y2="323.144" gradientUnits="userSpaceOnUse">
<stop stop-color="#DDDDDD"/>
<stop offset="1" stop-color="#ABABAB"/>
</linearGradient>
<linearGradient id="paint27_linear_795_37739" x1="446.439" y1="263.457" x2="436.098" y2="301.592" gradientUnits="userSpaceOnUse">
<stop stop-color="#B92222"/>
<stop offset="0.2473" stop-color="#DD2F2F"/>
<stop offset="0.8548" stop-color="#FF6757"/>
</linearGradient>
<linearGradient id="paint28_linear_795_37739" x1="438.123" y1="305.218" x2="441.926" y2="259.777" gradientUnits="userSpaceOnUse">
<stop stop-color="#B92222"/>
<stop offset="0.2473" stop-color="#DD2F2F"/>
<stop offset="0.8548" stop-color="#FF6757"/>
</linearGradient>
<linearGradient id="paint29_linear_795_37739" x1="452.153" y1="263.017" x2="458.12" y2="271.312" gradientUnits="userSpaceOnUse">
<stop stop-color="#303030"/>
<stop offset="1" stop-color="#727272"/>
</linearGradient>
<linearGradient id="paint30_linear_795_37739" x1="443.743" y1="293.258" x2="449.71" y2="301.554" gradientUnits="userSpaceOnUse">
<stop stop-color="#303030"/>
<stop offset="1" stop-color="#727272"/>
</linearGradient>
<linearGradient id="paint31_linear_795_37739" x1="425.523" y1="274.493" x2="431.491" y2="282.788" gradientUnits="userSpaceOnUse">
<stop stop-color="#303030"/>
<stop offset="1" stop-color="#727272"/>
</linearGradient>
<linearGradient id="paint32_linear_795_37739" x1="449.219" y1="420.712" x2="338.237" y2="501.426" gradientUnits="userSpaceOnUse">
<stop stop-color="#B92222"/>
<stop offset="0.2473" stop-color="#DD2F2F"/>
<stop offset="0.8548" stop-color="#FF6757"/>
</linearGradient>
<linearGradient id="paint33_linear_795_37739" x1="299.77" y1="457.034" x2="470.271" y2="457.034" gradientUnits="userSpaceOnUse">
<stop stop-color="#B92222"/>
<stop offset="0.2473" stop-color="#DD2F2F"/>
<stop offset="0.8548" stop-color="#FF6757"/>
</linearGradient>
<linearGradient id="paint34_linear_795_37739" x1="390.962" y1="538.452" x2="386.09" y2="458.22" gradientUnits="userSpaceOnUse">
<stop stop-color="white"/>
<stop offset="1" stop-color="#FF6757"/>
</linearGradient>
<linearGradient id="paint35_linear_795_37739" x1="268.973" y1="575.614" x2="349.29" y2="573.001" gradientUnits="userSpaceOnUse">
<stop stop-color="#82FB7C"/>
<stop offset="1" stop-color="#0BA2B3"/>
</linearGradient>
<linearGradient id="paint36_linear_795_37739" x1="316.86" y1="530.943" x2="284.681" y2="594.731" gradientUnits="userSpaceOnUse">
<stop stop-color="#82FB7C"/>
<stop offset="1" stop-color="#0BA2B3"/>
</linearGradient>
<linearGradient id="paint37_linear_795_37739" x1="295.648" y1="588.29" x2="349.731" y2="586.531" gradientUnits="userSpaceOnUse">
<stop stop-color="#0C775D"/>
<stop offset="1" stop-color="#0BA2B3"/>
</linearGradient>
<linearGradient id="paint38_linear_795_37739" x1="332.933" y1="599.573" x2="428.256" y2="596.472" gradientUnits="userSpaceOnUse">
<stop stop-color="#82FB7C"/>
<stop offset="1" stop-color="#0BA2B3"/>
</linearGradient>
<linearGradient id="paint39_linear_795_37739" x1="398.019" y1="536.872" x2="353.296" y2="625.527" gradientUnits="userSpaceOnUse">
<stop stop-color="#82FB7C"/>
<stop offset="1" stop-color="#0BA2B3"/>
</linearGradient>
<linearGradient id="paint40_linear_795_37739" x1="359.608" y1="612.25" x2="428.697" y2="610.002" gradientUnits="userSpaceOnUse">
<stop stop-color="#0C775D"/>
<stop offset="1" stop-color="#0BA2B3"/>
</linearGradient>
<linearGradient id="paint41_linear_795_37739" x1="396.93" y1="624.691" x2="503.7" y2="621.217" gradientUnits="userSpaceOnUse">
<stop stop-color="#82FB7C"/>
<stop offset="1" stop-color="#0BA2B3"/>
</linearGradient>
<linearGradient id="paint42_linear_795_37739" x1="476.22" y1="546.245" x2="420.525" y2="656.649" gradientUnits="userSpaceOnUse">
<stop stop-color="#82FB7C"/>
<stop offset="1" stop-color="#0BA2B3"/>
</linearGradient>
<linearGradient id="paint43_linear_795_37739" x1="423.606" y1="637.367" x2="504.141" y2="634.747" gradientUnits="userSpaceOnUse">
<stop stop-color="#0C775D"/>
<stop offset="1" stop-color="#0BA2B3"/>
</linearGradient>
<linearGradient id="paint44_linear_795_37739" x1="460.512" y1="637.019" x2="596.245" y2="632.603" gradientUnits="userSpaceOnUse">
<stop stop-color="#82FB7C"/>
<stop offset="1" stop-color="#0BA2B3"/>
</linearGradient>
<linearGradient id="paint45_linear_795_37739" x1="572.798" y1="524.137" x2="493.148" y2="682.028" gradientUnits="userSpaceOnUse">
<stop stop-color="#82FB7C"/>
<stop offset="1" stop-color="#0BA2B3"/>
</linearGradient>
<linearGradient id="paint46_linear_795_37739" x1="487.188" y1="649.695" x2="596.686" y2="646.133" gradientUnits="userSpaceOnUse">
<stop stop-color="#0C775D"/>
<stop offset="1" stop-color="#0BA2B3"/>
</linearGradient>
<linearGradient id="paint47_linear_795_37739" x1="525.233" y1="684.375" x2="647.527" y2="680.396" gradientUnits="userSpaceOnUse">
<stop stop-color="#82FB7C"/>
<stop offset="1" stop-color="#0BA2B3"/>
</linearGradient>
<linearGradient id="paint48_linear_795_37739" x1="622.696" y1="586.576" x2="553.53" y2="723.683" gradientUnits="userSpaceOnUse">
<stop stop-color="#82FB7C"/>
<stop offset="1" stop-color="#0BA2B3"/>
</linearGradient>
<linearGradient id="paint49_linear_795_37739" x1="551.909" y1="697.051" x2="647.968" y2="693.926" gradientUnits="userSpaceOnUse">
<stop stop-color="#0C775D"/>
<stop offset="1" stop-color="#0BA2B3"/>
</linearGradient>
<linearGradient id="paint50_linear_795_37739" x1="745.24" y1="494.552" x2="666.476" y2="541.788" gradientUnits="userSpaceOnUse">
<stop stop-color="#77F381"/>
<stop offset="1" stop-color="#2DBBA3"/>
</linearGradient>
<linearGradient id="paint51_linear_795_37739" x1="655.946" y1="498.36" x2="704.366" y2="529.166" gradientUnits="userSpaceOnUse">
<stop stop-color="#77F381"/>
<stop offset="1" stop-color="#2DBBA3"/>
</linearGradient>
<linearGradient id="paint52_linear_795_37739" x1="240.533" y1="640.447" x2="185.545" y2="673.424" gradientUnits="userSpaceOnUse">
<stop stop-color="#FF9D00"/>
<stop offset="1" stop-color="#FFE84C"/>
</linearGradient>
<linearGradient id="paint53_linear_795_37739" x1="178.196" y1="643.106" x2="212" y2="664.612" gradientUnits="userSpaceOnUse">
<stop stop-color="#FF9D00"/>
<stop offset="1" stop-color="#FFE84C"/>
</linearGradient>
<linearGradient id="paint54_linear_795_37739" x1="436.216" y1="179.83" x2="357.683" y2="178.42" gradientUnits="userSpaceOnUse">
<stop stop-color="#8C610A"/>
<stop offset="0.2661" stop-color="#E4A663"/>
<stop offset="0.7285" stop-color="#FFEFAB"/>
<stop offset="1" stop-color="#F8B143"/>
</linearGradient>
<linearGradient id="paint55_linear_795_37739" x1="453.057" y1="160.316" x2="358.34" y2="185.126" gradientUnits="userSpaceOnUse">
<stop stop-color="#8C610A"/>
<stop offset="0.2661" stop-color="#E4A663"/>
<stop offset="0.7285" stop-color="#FFEFAB"/>
<stop offset="1" stop-color="#F8B143"/>
</linearGradient>
<linearGradient id="paint56_linear_795_37739" x1="381.25" y1="207.583" x2="353.752" y2="207.089" gradientUnits="userSpaceOnUse">
<stop stop-color="#8C610A"/>
<stop offset="0.6692" stop-color="#E4A663"/>
<stop offset="1" stop-color="#FFEFAB"/>
</linearGradient>
<linearGradient id="paint57_linear_795_37739" x1="419.185" y1="217.93" x2="383.6" y2="209.857" gradientUnits="userSpaceOnUse">
<stop stop-color="#8C610A"/>
<stop offset="0.6692" stop-color="#E4A663"/>
<stop offset="1" stop-color="#FFEFAB"/>
</linearGradient>
<linearGradient id="paint58_linear_795_37739" x1="446.817" y1="183.523" x2="418.767" y2="177.159" gradientUnits="userSpaceOnUse">
<stop stop-color="#8C610A"/>
<stop offset="0.6692" stop-color="#E4A663"/>
<stop offset="1" stop-color="#FFEFAB"/>
</linearGradient>
<linearGradient id="paint59_linear_795_37739" x1="365.546" y1="168.063" x2="336.665" y2="161.51" gradientUnits="userSpaceOnUse">
<stop stop-color="#8C610A"/>
<stop offset="0.6692" stop-color="#E4A663"/>
<stop offset="1" stop-color="#FFEFAB"/>
</linearGradient>
<linearGradient id="paint60_linear_795_37739" x1="384.653" y1="194.474" x2="354.621" y2="209.26" gradientUnits="userSpaceOnUse">
<stop stop-color="#8C610A"/>
<stop offset="0.2661" stop-color="white"/>
<stop offset="1" stop-color="#FFEFAB"/>
</linearGradient>
<linearGradient id="paint61_linear_795_37739" x1="445.182" y1="154.283" x2="401.01" y2="176.031" gradientUnits="userSpaceOnUse">
<stop stop-color="#8C610A"/>
<stop offset="0.2661" stop-color="white"/>
<stop offset="1" stop-color="#FFEFAB"/>
</linearGradient>
<linearGradient id="paint62_linear_795_37739" x1="732.794" y1="334.378" x2="777.158" y2="381.985" gradientUnits="userSpaceOnUse">
<stop stop-color="#FF9D00"/>
<stop offset="1" stop-color="#FFE84C"/>
</linearGradient>
<linearGradient id="paint63_linear_795_37739" x1="809.522" y1="372.653" x2="735.396" y2="345.965" gradientUnits="userSpaceOnUse">
<stop stop-color="#FF9D00"/>
<stop offset="1" stop-color="#FFE84C"/>
</linearGradient>
<linearGradient id="paint64_linear_795_37739" x1="764.52" y1="733.925" x2="645.641" y2="752.096" gradientUnits="userSpaceOnUse">
<stop stop-color="#B92222"/>
<stop offset="0.2473" stop-color="#DD2F2F"/>
<stop offset="0.8548" stop-color="#FF6757"/>
</linearGradient>
<linearGradient id="paint65_linear_795_37739" x1="675.095" y1="688.974" x2="715.8" y2="758.425" gradientUnits="userSpaceOnUse">
<stop stop-color="#B92222"/>
<stop offset="0.2473" stop-color="#DD2F2F"/>
<stop offset="0.8548" stop-color="#FF6757"/>
</linearGradient>
<linearGradient id="paint66_linear_795_37739" x1="731.316" y1="779.387" x2="643.497" y2="719.389" gradientUnits="userSpaceOnUse">
<stop stop-color="#B92222"/>
<stop offset="0.2473" stop-color="white"/>
<stop offset="0.8548" stop-color="#FF6757"/>
</linearGradient>
<clipPath id="clip0_795_37739">
<rect width="811.654" height="955.77" fill="white"/>
</clipPath>
</defs>
</svg>
