<svg width="123" height="122" viewBox="0 0 123 122" fill="none" xmlns="http://www.w3.org/2000/svg">
<g id="forgot-password 1" clip-path="url(#clip0_800_19403)">
<g id="Group">
<path id="Vector" d="M62.1095 5.229C29.9496 5.229 3.87891 31.2997 3.87891 63.4596C3.87891 75.5433 7.56003 86.7666 13.8613 96.0709V85.0882C13.8613 83.2533 15.3539 81.7607 17.1888 81.7607H89.4423C91.2771 81.7607 92.7698 83.2533 92.7698 85.0882V106.26C92.7698 108.095 91.2771 109.587 89.4423 109.587H26.572C36.4051 117.174 48.7291 121.69 62.1095 121.69C94.2695 121.69 120.34 95.6196 120.34 63.4596C120.34 31.2997 94.2695 5.229 62.1095 5.229Z" fill="#D4F2F6"/>
<g id="Group_2">
<path id="Vector_2" d="M41.87 41.0287C41.87 39.1539 43.3952 37.6285 45.27 37.6285H50.4183V25.9332C50.4183 24.9221 50.4789 23.9251 50.5932 22.9439C50.0722 22.7112 49.4963 22.5791 48.8888 22.5791H12.5836C10.27 22.5793 8.39453 24.4548 8.39453 26.7684V63.0734C8.39453 65.3869 10.27 67.2624 12.5836 67.2624H41.87V41.0287Z" fill="#AF66DA"/>
<path id="Vector_3" d="M19.5653 63.0732V26.7681C19.5653 24.4546 21.4408 22.5791 23.7543 22.5791H12.5836C10.27 22.5791 8.39453 24.4546 8.39453 26.7681V63.0732C8.39453 65.3867 10.27 67.2622 12.5836 67.2622H23.7543C21.4408 67.2622 19.5653 65.3867 19.5653 63.0732Z" fill="#9857BD"/>
<g id="Group_3">
<g id="Group_4">
<path id="Vector_4" d="M27.734 53.3383C27.0666 52.988 26.6107 52.2894 26.6107 51.4835V48.745C26.6107 46.6361 28.3265 44.9205 30.4352 44.9205C33.5573 44.9205 36.0973 42.3805 36.0973 39.2584V39.1091C36.0973 36.1541 33.6932 33.75 30.738 33.75C30.4062 33.75 30.082 33.7819 29.7666 33.8398C32.2596 34.2983 34.1546 36.4859 34.1546 39.1094V39.2586C34.1546 42.3807 31.6148 44.9208 28.4924 44.9208C26.3838 44.9208 24.668 46.6363 24.668 48.7452V51.4837C24.668 52.6405 25.6056 53.5781 26.7624 53.5781C27.1134 53.5781 27.4436 53.4909 27.734 53.3383Z" fill="#814AA0"/>
<path id="Vector_5" d="M21.1889 39.7029V39.1097C21.1889 34.1724 24.9555 30.0987 29.7659 29.6102C29.4464 29.5779 29.1225 29.561 28.7945 29.561C23.5295 29.561 19.2461 33.8444 19.2461 39.1094V39.7027C19.2461 40.8594 20.1837 41.7971 21.3405 41.7971C21.6913 41.7971 22.0214 41.7098 22.3119 41.5573C21.6447 41.2074 21.1889 40.5089 21.1889 39.7029Z" fill="#814AA0"/>
</g>
<path id="Vector_6" d="M26.6103 58.1857V57.9065C26.6103 57.1006 27.0661 56.4021 27.7335 56.0518C27.4431 55.8995 27.113 55.812 26.7622 55.812C25.6055 55.812 24.668 56.7498 24.668 57.9062V58.1855C24.668 59.3421 25.6055 60.2797 26.7622 60.2797C27.113 60.2797 27.4431 60.1925 27.7335 60.0399C27.0661 59.6903 26.6103 58.9916 26.6103 58.1857Z" fill="#814AA0"/>
</g>
<g id="Group_5">
<g id="Group_6">
<g id="Group_7">
<path id="Vector_7" d="M28.7031 53.5782C27.546 53.5782 26.6087 52.6403 26.6087 51.4838V48.7453C26.6087 46.6364 28.3244 44.9208 30.4331 44.9208C33.5552 44.9208 36.095 42.3808 36.095 39.2587V39.1094C36.095 36.1542 33.6909 33.7501 30.7357 33.7501C27.7804 33.7501 25.3763 36.1542 25.3763 39.1094V39.7027C25.3763 40.8594 24.4387 41.7971 23.2819 41.7971C22.1249 41.7971 21.1875 40.8592 21.1875 39.7027V39.1094C21.1875 33.8444 25.4709 29.561 30.7359 29.561C36.0009 29.561 40.2843 33.8444 40.2843 39.1094V39.2587C40.2843 44.5686 36.0617 48.9107 30.7979 49.1032V51.4838C30.7975 52.6403 29.8601 53.5782 28.7031 53.5782Z" fill="white"/>
</g>
</g>
<g id="Group_8">
<path id="Vector_8" d="M28.7036 60.2802C27.5467 60.2802 26.6094 59.3424 26.6094 58.186V57.9067C26.6094 56.75 27.5469 55.8125 28.7036 55.8125C29.8603 55.8125 30.7978 56.7503 30.7978 57.9067V58.186C30.7978 59.3424 29.8605 60.2802 28.7036 60.2802Z" fill="white"/>
</g>
</g>
</g>
<g id="Group_9">
<path id="Vector_9" d="M90.3516 81.8896C91.7458 82.2863 92.7709 83.5684 92.7709 85.0881V95.3081H106.959C108.968 95.3081 110.597 93.6796 110.597 91.6705V81.8899H90.3516V81.8896Z" fill="#FFE177"/>
<path id="Vector_10" d="M60.6938 37.6284V25.9331C60.6938 17.4309 67.6108 10.5138 76.113 10.5138C84.6151 10.5138 91.5322 17.4309 91.5322 25.9331V37.6284H102.046V25.9331C102.046 11.6335 90.4125 0 76.113 0C61.8135 0 50.1797 11.6335 50.1797 25.9331V37.6284H60.6938Z" fill="#0681AF"/>
<g id="Group_10">
<path id="Vector_11" d="M91.5297 25.9329V37.6282H97.6213V25.9329C97.6213 17.4308 90.7042 10.5137 82.2021 10.5137C81.1596 10.5137 80.1414 10.619 79.1562 10.8172C86.2045 12.2352 91.5297 18.4732 91.5297 25.9329Z" fill="#017297"/>
<path id="Vector_12" d="M56.2713 37.6284V25.9331C56.2713 12.6639 66.2894 1.69225 79.1588 0.179683C78.1594 0.0622711 77.1436 0 76.113 0C61.8135 0 50.1797 11.6335 50.1797 25.9331V37.6284H56.2713Z" fill="#017297"/>
</g>
<path id="Vector_13" d="M106.958 37.3906H45.2704C43.2614 37.3906 41.6328 39.0194 41.6328 41.0283V81.7605H89.4425C89.9871 81.7605 90.5 81.8945 90.9542 82.1274H110.596V41.0285C110.596 39.0194 108.967 37.3906 106.958 37.3906Z" fill="#FFC344"/>
<path id="Vector_14" d="M55.0598 81.7607V41.0287C55.0598 39.0197 56.6886 37.3911 58.6975 37.3911H45.2704C43.2614 37.3911 41.6328 39.0197 41.6328 41.0287V81.7607H55.0598Z" fill="#FEB137"/>
<path id="Vector_15" d="M75.0291 79.2255C71.686 79.2255 68.9663 76.5058 68.9663 73.1626V65.3367C66.0196 62.9575 64.4464 59.2728 64.8093 55.4225C65.3239 49.9645 69.84 45.5637 75.3141 45.1858C75.5794 45.1675 75.8479 45.1582 76.1127 45.1582C82.374 45.1582 87.4677 50.2518 87.4677 56.5132C87.4677 59.983 85.9164 63.1926 83.2592 65.3369V73.1626C83.2592 76.5058 80.5394 79.2255 77.1963 79.2255H75.0291Z" fill="#FFE177"/>
<path id="Vector_16" d="M83.8329 56.5132C83.8329 52.0698 80.0776 48.5035 75.5674 48.8148C71.8378 49.0725 68.7846 52.0418 68.4338 55.764C68.1448 58.8291 69.6512 61.5671 72.022 63.0538C72.3797 63.2782 72.6067 63.6615 72.6067 64.0839V73.1626C72.6067 74.5019 73.6924 75.5879 75.032 75.5879H77.1996C78.5389 75.5879 79.6248 74.5022 79.6248 73.1626V64.0905C79.6248 63.6649 79.8527 63.2779 80.2133 63.0514C82.3868 61.6864 83.8329 59.2695 83.8329 56.5132Z" fill="#3692BC"/>
<path id="Vector_17" d="M76.5747 73.1628V64.0841C76.5747 63.6617 76.348 63.2784 75.99 63.054C73.619 61.5673 72.1126 58.8293 72.4018 55.7642C72.7065 52.5335 75.0477 49.8708 78.0994 49.0556C77.2989 48.8431 76.448 48.7545 75.5674 48.8151C71.8378 49.0727 68.7846 52.0422 68.4338 55.7642C68.1448 58.8293 69.651 61.5673 72.022 63.054C72.3797 63.2784 72.6067 63.6617 72.6067 64.0841V73.1628C72.6067 74.5021 73.6924 75.5881 75.032 75.5881H77.1996C77.5181 75.5881 77.8211 75.5251 78.0996 75.4136C77.2065 75.0557 76.5747 74.1837 76.5747 73.1628Z" fill="#017297"/>
</g>
<g id="Group_11">
<path id="Vector_18" d="M89.4437 81.5229H17.1901C15.2212 81.5229 13.625 83.1192 13.625 85.0881V95.7127C17.2315 101.123 21.7191 105.895 26.8835 109.825H89.4437C91.4126 109.825 93.0088 108.229 93.0088 106.26V85.0881C93.0088 83.1192 91.4126 81.5229 89.4437 81.5229Z" fill="#FD6930"/>
<path id="Vector_19" d="M28.5986 81.5229H17.1901C15.2212 81.5229 13.625 83.1192 13.625 85.0881V95.7127C17.2315 101.123 21.7191 105.895 26.8835 109.825H28.5986C26.6297 109.825 25.0335 108.229 25.0335 106.26V85.0881C25.0335 83.1192 26.6297 81.5229 28.5986 81.5229Z" fill="#FD5426"/>
<g id="Group_12">
<g id="Group_13">
<path id="Vector_20" d="M27.3484 93.2037V89.9171C27.3484 89.5091 27.5207 89.1422 27.7955 88.8822C27.54 88.6405 27.1961 88.4912 26.8166 88.4912C26.0292 88.4912 25.3906 89.1298 25.3906 89.9171V92.0734L27.3484 93.2037Z" fill="#D73D24"/>
<path id="Vector_21" d="M30.2031 93.204L32.7532 91.7317C32.3064 91.3334 31.6383 91.245 31.0917 91.5606L30.2031 92.0737V93.204Z" fill="#D73D24"/>
<path id="Vector_22" d="M30.2031 98.144V99.2743L31.0917 99.7874C31.3163 99.9169 31.5616 99.9787 31.8033 99.9787C32.15 99.9787 32.4884 99.8497 32.7515 99.6156L30.2031 98.144Z" fill="#D73D24"/>
<path id="Vector_23" d="M22.5551 99.2647C22.1616 98.5826 22.3949 97.7107 23.077 97.3169L25.9232 95.6735L23.077 94.0301C22.3949 93.6363 22.1613 92.7641 22.5551 92.0823C22.6333 91.9468 22.731 91.8299 22.8415 91.7313L22.5454 91.5604C21.8628 91.1666 20.9911 91.4005 20.5976 92.0823C20.204 92.7644 20.4374 93.6363 21.1195 94.0301L23.9656 95.6735L21.1195 97.3169C20.4374 97.7107 20.2038 98.5829 20.5976 99.2647C20.8616 99.7222 21.3409 99.9779 21.8338 99.9779C22.0758 99.9779 22.321 99.9164 22.5454 99.7866L22.8434 99.6145C22.7324 99.5159 22.6336 99.4004 22.5551 99.2647Z" fill="#D73D24"/>
<path id="Vector_24" d="M27.3482 101.431V98.144L25.3906 99.2743V101.431C25.3906 102.218 26.0292 102.857 26.8166 102.857C27.1961 102.857 27.54 102.707 27.7955 102.466C27.5207 102.206 27.3482 101.839 27.3482 101.431Z" fill="#D73D24"/>
</g>
<g id="Group_14">
<path id="Vector_25" d="M38.9184 99.2649C38.5249 98.5829 38.7582 97.7109 39.4403 97.3171L42.2865 95.6737L39.4403 94.0304C38.7582 93.6366 38.5246 92.7644 38.9184 92.0825C38.9966 91.9471 39.0943 91.8301 39.2048 91.7315L38.9087 91.5604C38.2261 91.1666 37.3546 91.4005 36.9608 92.0823C36.5673 92.7644 36.8007 93.6363 37.4827 94.0301L40.3289 95.6735L37.4827 97.3169C36.8007 97.7107 36.5671 98.5829 36.9608 99.2647C37.2249 99.7222 37.7042 99.9779 38.1971 99.9779C38.4391 99.9779 38.6843 99.9164 38.9087 99.7866L39.2067 99.6145C39.0957 99.5162 38.9968 99.4006 38.9184 99.2649Z" fill="#D73D24"/>
<path id="Vector_26" d="M46.5664 93.204L49.1164 91.7317C48.6697 91.3334 48.0016 91.245 47.455 91.5606L46.5664 92.0737V93.204Z" fill="#D73D24"/>
<path id="Vector_27" d="M43.7156 93.2037V89.9171C43.7156 89.5091 43.8879 89.1422 44.1626 88.8822C43.9072 88.6405 43.5633 88.4912 43.1837 88.4912C42.3964 88.4912 41.7578 89.1298 41.7578 89.9171V92.0734L43.7156 93.2037Z" fill="#D73D24"/>
<path id="Vector_28" d="M43.7154 101.431V98.144L41.7578 99.2743V101.431C41.7578 102.218 42.3964 102.857 43.1837 102.857C43.5633 102.857 43.9072 102.707 44.1626 102.466C43.8877 102.206 43.7154 101.839 43.7154 101.431Z" fill="#D73D24"/>
<path id="Vector_29" d="M46.5664 98.144V99.2743L47.455 99.7874C47.6796 99.9169 47.9248 99.9787 48.1665 99.9787C48.5133 99.9787 48.8517 99.8497 49.1148 99.6156L46.5664 98.144Z" fill="#D73D24"/>
</g>
<g id="Group_15">
<path id="Vector_30" d="M62.9297 93.2039L65.4797 91.7316C65.0329 91.3333 64.3649 91.2449 63.8183 91.5608L62.9297 92.0739V93.2039Z" fill="#D73D24"/>
<path id="Vector_31" d="M60.075 93.2037V89.9171C60.075 89.5091 60.2473 89.1422 60.522 88.8822C60.2665 88.6405 59.9227 88.4912 59.5431 88.4912C58.7558 88.4912 58.1172 89.1298 58.1172 89.9171V92.0734L60.075 93.2037Z" fill="#D73D24"/>
<path id="Vector_32" d="M55.2817 99.2649C54.8881 98.5829 55.1215 97.7109 55.8036 97.3171L58.6497 95.6737L55.8036 94.0304C55.1215 93.6366 54.8879 92.7644 55.2817 92.0825C55.3599 91.9471 55.4576 91.8301 55.5681 91.7315L55.2719 91.5604C54.5894 91.1666 53.7179 91.4005 53.3241 92.0823C52.9306 92.7644 53.1639 93.6363 53.846 94.0301L56.6922 95.6735L53.846 97.3169C53.1639 97.7107 52.9303 98.5829 53.3241 99.2647C53.5882 99.7222 54.0675 99.9779 54.5604 99.9779C54.8023 99.9779 55.0476 99.9164 55.2719 99.7866L55.57 99.6145C55.459 99.5162 55.3601 99.4006 55.2817 99.2649Z" fill="#D73D24"/>
<path id="Vector_33" d="M62.9297 98.144V99.2743L63.8183 99.7874C64.0429 99.9169 64.2881 99.9787 64.5298 99.9787C64.8766 99.9787 65.215 99.8497 65.4781 99.6156L62.9297 98.144Z" fill="#D73D24"/>
<path id="Vector_34" d="M60.0748 101.431V98.144L58.1172 99.2743V101.431C58.1172 102.218 58.7558 102.857 59.5431 102.857C59.9227 102.857 60.2665 102.707 60.522 102.466C60.2471 102.206 60.0748 101.839 60.0748 101.431Z" fill="#D73D24"/>
</g>
<g id="Group_16">
<path id="Vector_35" d="M79.2891 93.2039L81.8391 91.7316C81.3923 91.3333 80.7243 91.2449 80.1777 91.5608L79.2891 92.0739V93.2039Z" fill="#D73D24"/>
<path id="Vector_36" d="M76.4344 93.2037V89.9171C76.4344 89.5091 76.6067 89.1422 76.8814 88.8822C76.6259 88.6405 76.282 88.4912 75.9025 88.4912C75.1151 88.4912 74.4766 89.1298 74.4766 89.9171V92.0734L76.4344 93.2037Z" fill="#D73D24"/>
<path id="Vector_37" d="M79.2891 98.144V99.2743L80.1777 99.7874C80.4022 99.9169 80.6475 99.9787 80.8892 99.9787C81.2359 99.9787 81.5744 99.8497 81.8374 99.6156L79.2891 98.144Z" fill="#D73D24"/>
<path id="Vector_38" d="M76.4341 101.431V98.144L74.4766 99.2743V101.431C74.4766 102.218 75.1151 102.857 75.9025 102.857C76.282 102.857 76.6259 102.707 76.8814 102.466C76.6064 102.206 76.4341 101.839 76.4341 101.431Z" fill="#D73D24"/>
<path id="Vector_39" d="M71.6411 99.2649C71.2475 98.5829 71.4809 97.7109 72.163 97.3171L75.0091 95.6737L72.163 94.0304C71.4809 93.6366 71.2473 92.7644 71.6411 92.0825C71.7193 91.9471 71.8169 91.8301 71.9274 91.7315L71.6313 91.5604C70.9488 91.1666 70.0773 91.4005 69.6835 92.0823C69.2899 92.7644 69.5233 93.6363 70.2054 94.0301L73.0516 95.6735L70.2054 97.3169C69.5233 97.7107 69.2897 98.5829 69.6835 99.2647C69.9475 99.7222 70.4269 99.9779 70.9198 99.9779C71.1617 99.9779 71.407 99.9164 71.6313 99.7866L71.9291 99.6145C71.8184 99.5162 71.7195 99.4006 71.6411 99.2649Z" fill="#D73D24"/>
</g>
</g>
<g id="Group_17">
<path id="Vector_40" d="M34.9921 92.0825C34.5985 91.4006 33.726 91.1665 33.0441 91.5606L30.1975 93.2041V89.9173C30.1975 89.1298 29.5588 88.4912 28.7714 88.4912C27.984 88.4912 27.3453 89.1298 27.3453 89.9173V93.2041L24.4987 91.5606C23.8161 91.1667 22.9443 91.4006 22.5507 92.0825C22.1571 92.7646 22.3905 93.6367 23.0726 94.0305L25.919 95.674L23.0726 97.3176C22.3905 97.7114 22.1569 98.5836 22.5507 99.2655C22.8148 99.7231 23.2942 99.9788 23.7871 99.9788C24.029 99.9788 24.2743 99.9173 24.4987 99.7875L27.3453 98.144V101.431C27.3453 102.218 27.984 102.857 28.7714 102.857C29.5588 102.857 30.1975 102.218 30.1975 101.431V98.144L33.0441 99.7875C33.2687 99.917 33.514 99.9788 33.7557 99.9788C34.2486 99.9788 34.728 99.7231 34.9921 99.2655C35.3857 98.5834 35.1523 97.7114 34.4702 97.3176L31.6238 95.674L34.4702 94.0305C35.1523 93.6367 35.3857 92.7646 34.9921 92.0825Z" fill="white"/>
<path id="Vector_41" d="M51.3515 92.0825C50.9579 91.4006 50.0854 91.1665 49.4035 91.5606L46.5568 93.2041V89.9173C46.5568 89.1298 45.9182 88.4912 45.1308 88.4912C44.3434 88.4912 43.7047 89.1298 43.7047 89.9173V93.2041L40.8581 91.5606C40.1755 91.1667 39.3039 91.4006 38.9101 92.0825C38.5165 92.7646 38.7499 93.6367 39.432 94.0305L42.2784 95.674L39.432 97.3176C38.7499 97.7114 38.5163 98.5836 38.9101 99.2655C39.1741 99.7231 39.6535 99.9788 40.1465 99.9788C40.3884 99.9788 40.6337 99.9173 40.8581 99.7875L43.7047 98.144V101.431C43.7047 102.218 44.3434 102.857 45.1308 102.857C45.9182 102.857 46.5568 102.218 46.5568 101.431V98.144L49.4035 99.7875C49.6281 99.917 49.8734 99.9788 50.1151 99.9788C50.608 99.9788 51.0874 99.7231 51.3515 99.2655C51.7451 98.5834 51.5117 97.7114 50.8295 97.3176L47.9831 95.674L50.8295 94.0305C51.5117 93.6367 51.7451 92.7646 51.3515 92.0825Z" fill="white"/>
<path id="Vector_42" d="M67.7148 92.0825C67.3212 91.4006 66.4489 91.1665 65.7668 91.5606L62.9201 93.2041V89.9173C62.9201 89.1298 62.2815 88.4912 61.4941 88.4912C60.7066 88.4912 60.068 89.1298 60.068 89.9173V93.2041L57.2214 91.5606C56.5387 91.1667 55.6672 91.4006 55.2734 92.0825C54.8798 92.7646 55.1132 93.6367 55.7953 94.0305L58.6417 95.674L55.7953 97.3176C55.1132 97.7114 54.8795 98.5836 55.2734 99.2655C55.5374 99.7231 56.0168 99.9788 56.5098 99.9788C56.7517 99.9788 56.997 99.9173 57.2214 99.7875L60.068 98.144V101.431C60.068 102.218 60.7066 102.857 61.4941 102.857C62.2815 102.857 62.9201 102.218 62.9201 101.431V98.144L65.7668 99.7875C65.9914 99.917 66.2366 99.9788 66.4784 99.9788C66.9713 99.9788 67.4507 99.7231 67.7148 99.2655C68.1083 98.5834 67.8749 97.7114 67.1928 97.3176L64.3464 95.674L67.1928 94.0305C67.8749 93.6367 68.1083 92.7646 67.7148 92.0825Z" fill="white"/>
<path id="Vector_43" d="M83.5561 97.3176L80.7097 95.674L83.5561 94.0305C84.2382 93.6367 84.4719 92.7644 84.078 92.0825C83.6844 91.4006 82.8122 91.1665 82.13 91.5606L79.2834 93.2041V89.9173C79.2834 89.1298 78.6448 88.4912 77.8573 88.4912C77.0699 88.4912 76.4313 89.1298 76.4313 89.9173V93.2041L73.5846 91.5606C72.902 91.1667 72.0305 91.4006 71.6366 92.0825C71.2431 92.7646 71.4765 93.6367 72.1586 94.0305L75.005 95.674L72.1586 97.3176C71.4765 97.7114 71.2428 98.5836 71.6366 99.2655C71.9007 99.7231 72.3801 99.9788 72.873 99.9788C73.115 99.9788 73.3603 99.9173 73.5846 99.7875L76.4313 98.144V101.431C76.4313 102.218 77.0699 102.857 77.8573 102.857C78.6448 102.857 79.2834 102.218 79.2834 101.431V98.144L82.13 99.7875C82.3546 99.917 82.5999 99.9788 82.8416 99.9788C83.3346 99.9788 83.814 99.7231 84.078 99.2655C84.4719 98.5834 84.2382 97.7114 83.5561 97.3176Z" fill="white"/>
</g>
</g>
</g>
</g>
<defs>
<clipPath id="clip0_800_19403">
<rect width="121.69" height="121.69" fill="white" transform="translate(0.816406)"/>
</clipPath>
</defs>
</svg>
