<svg width="123" height="122" viewBox="0 0 123 122" fill="none" xmlns="http://www.w3.org/2000/svg">
<g id="cloud 1" clip-path="url(#clip0_795_30532)">
<g id="Page-1">
<g id="010--Secure-Cloud">
<path id="Shape" d="M82.672 93.8036L78.2241 98.2515C77.7339 98.7522 77.0208 98.9661 76.3359 98.818L70.4194 97.664C69.7744 97.5242 69.1026 97.7217 68.6359 98.1884C68.1692 98.6551 67.9717 99.3269 68.1116 99.9719L69.2865 105.867C69.4168 106.552 69.2054 107.256 68.72 107.756L66.2023 110.273C65.7079 110.768 65.0018 110.987 64.3141 110.861L58.3976 109.686C57.7526 109.546 57.0808 109.744 56.6141 110.21C56.1474 110.677 55.9499 111.349 56.0898 111.994L57.2647 117.91C57.3914 118.598 57.1718 119.304 56.6772 119.798L55.3974 121.078C55.0055 121.464 54.4788 121.682 53.9288 121.687H45.0121C43.8534 121.687 42.9141 120.747 42.9141 119.589V110.672C42.9184 110.122 43.1366 109.595 43.5225 109.203L70.7971 81.9287L78.5808 86.0199L82.672 93.8036Z" fill="#BDC3C7"/>
<path id="Shape_2" d="M74.6818 56.6472H16.3562C7.66137 56.4341 0.776016 49.2298 0.956597 40.5342C0.822202 32.6401 6.49021 25.8384 14.2792 24.5471C16.1069 19.1945 21.0867 15.5561 26.7415 15.4416C27.9367 6.7257 35.2967 0.175582 44.0924 0C51.025 0.0834532 57.2615 4.23286 60.0165 10.5951C61.724 9.9075 63.5468 9.55148 65.3875 9.5461C73.8274 9.75117 80.5282 16.714 80.4095 25.1555C86.9221 27.4455 91.2513 33.6311 91.1725 40.5342C91.1703 41.2995 91.1142 42.0637 91.0046 42.8211L74.6818 56.6472Z" fill="#3B97D3"/>
<path id="Shape_3" d="M53.4081 33.568C52.2495 33.568 51.3102 32.6288 51.3102 31.4701V25.1764C51.3102 22.8591 49.4316 20.9805 47.1143 20.9805C44.797 20.9805 42.9185 22.8591 42.9185 25.1764V31.4701C42.9185 32.6288 41.9792 33.568 40.8206 33.568C39.6619 33.568 38.7227 32.6288 38.7227 31.4701V25.1764C38.7227 20.5418 42.4797 16.7847 47.1143 16.7847C51.7489 16.7847 55.506 20.5418 55.506 25.1764V31.4701C55.506 32.0265 55.285 32.5601 54.8916 32.9536C54.4981 33.347 53.9645 33.568 53.4081 33.568Z" fill="#D1D4D1"/>
<path id="Shape_4" d="M116.095 50.1013C111.457 45.0404 104.95 42.0968 98.0871 41.9542C91.2239 41.8115 84.601 44.4822 79.7566 49.346C77.6374 51.4533 75.9172 53.9269 74.6793 56.6472C72.5837 61.2025 71.897 66.2802 72.7072 71.2286L69.3713 74.5644C68.5834 75.3515 68.1406 76.4195 68.1406 77.5332C68.1406 78.6469 68.5834 79.7149 69.3713 80.5019L70.798 81.9286L82.6729 93.8035L84.2045 95.3351C84.9915 96.123 86.0595 96.5657 87.1732 96.5657C88.2869 96.5657 89.3549 96.123 90.1419 95.3351L93.4778 91.9992C101.379 93.2996 109.427 90.7597 115.151 85.1596C124.761 75.5937 125.176 60.1705 116.095 50.1013ZM103.758 69.2354C99.1233 69.2354 95.366 65.4781 95.366 60.8432C95.366 56.2084 99.1233 52.4511 103.758 52.4511C108.393 52.4511 112.15 56.2084 112.15 60.8432C112.15 65.4781 108.393 69.2354 103.758 69.2354Z" fill="#26B99A"/>
<path id="Shape_5" d="M35.578 16.7836C35.3267 16.7834 35.0773 16.7386 34.8416 16.6514C33.7574 16.2444 33.2081 15.0358 33.6144 13.9514C35.1848 9.47069 39.3579 6.42433 44.104 6.29395C45.2626 6.29395 46.2019 7.23322 46.2019 8.39187C46.2019 9.55052 45.2626 10.4898 44.104 10.4898C41.1091 10.6184 38.5027 12.5784 37.548 15.4199C37.241 16.2416 36.4552 16.7855 35.578 16.7836Z" fill="white"/>
<path id="Shape_6" d="M9.34763 42.6314C8.18898 42.6314 7.2497 41.6921 7.2497 40.5335C7.12036 35.7757 10.4791 31.6341 15.161 30.7781C15.903 30.6717 16.6454 30.9692 17.1086 31.5586C17.5718 32.148 17.6853 32.9397 17.4065 33.6356C17.1277 34.3314 16.4988 34.8256 15.7568 34.932C13.1377 35.4848 11.3094 37.8601 11.4455 40.5335C11.4455 41.0899 11.2245 41.6235 10.8311 42.0169C10.4376 42.4104 9.90403 42.6314 9.34763 42.6314Z" fill="white"/>
<path id="Shape_7" d="M38.7195 31.4707H55.5039C57.8213 31.4707 59.7 33.3494 59.7 35.6668V44.059H34.5234V35.6668C34.5234 33.3494 36.4021 31.4707 38.7195 31.4707Z" fill="#95A5A5"/>
<path id="Rectangle-path" d="M59.7007 39.8628H34.5242C32.2068 39.8628 30.3281 41.7414 30.3281 44.0589V65.0393C30.3281 67.3567 32.2068 69.2354 34.5242 69.2354H59.7007C62.0182 69.2354 63.8968 67.3567 63.8968 65.0393V44.0589C63.8968 41.7414 62.0182 39.8628 59.7007 39.8628Z" fill="#F3D55B"/>
<path id="Shape_8" d="M51.3062 52.4506C51.3155 50.412 49.8581 48.6618 47.8515 48.3017C45.845 47.9417 43.87 49.076 43.1698 50.9906C42.4697 52.9052 43.247 55.046 45.0125 56.0653V60.8423C45.0125 62.0009 45.9518 62.9402 47.1104 62.9402C48.2691 62.9402 49.2083 62.0009 49.2083 60.8423V56.0653C50.5026 55.3211 51.3021 53.9435 51.3062 52.4506Z" fill="#A56A43"/>
</g>
</g>
</g>
<defs>
<clipPath id="clip0_795_30532">
<rect width="121.687" height="121.687" fill="white" transform="translate(0.957031)"/>
</clipPath>
</defs>
</svg>
