<svg xmlns="http://www.w3.org/2000/svg" width="37" height="36" viewBox="0 0 37 36" fill="none">
  <path d="M17.8974 16.9065C19.008 16.8948 20.0902 16.5549 21.0079 15.9294C21.9257 15.3039 22.6378 14.4209 23.0547 13.3915C23.4716 12.3621 23.5747 11.2324 23.3508 10.1446C23.127 9.05676 22.5864 8.05948 21.797 7.27829C21.0076 6.4971 20.0047 5.96693 18.9146 5.75453C17.8245 5.54212 16.6959 5.65698 15.671 6.08465C14.646 6.51231 13.7705 7.23366 13.1546 8.15787C12.5388 9.08208 12.2102 10.1678 12.2101 11.2784C12.2205 12.7781 12.825 14.2126 13.891 15.2675C14.957 16.3224 16.3977 16.9118 17.8974 16.9065ZM17.8974 7.6251C18.6174 7.63678 19.3178 7.86092 19.9107 8.26939C20.5037 8.67785 20.9627 9.25242 21.2301 9.92093C21.4976 10.5894 21.5615 11.3221 21.414 12.0268C21.2664 12.7315 20.9138 13.3769 20.4006 13.8819C19.8874 14.387 19.2364 14.7291 18.5294 14.8653C17.8224 15.0015 17.0909 14.9258 16.4268 14.6476C15.7627 14.3695 15.1956 13.9013 14.7967 13.3018C14.3978 12.7024 14.185 11.9985 14.1849 11.2784C14.1953 10.3025 14.5917 9.37031 15.2873 8.68573C15.983 8.00115 16.9214 7.61983 17.8974 7.6251Z" fill="#4C4C61"/>
  <path d="M17.8879 16.9065C18.9984 16.8949 20.0807 16.5549 20.9984 15.9294C21.9161 15.3039 22.6283 14.4209 23.0452 13.3915C23.4621 12.3621 23.5651 11.2324 23.3413 10.1446C23.1175 9.05676 22.5769 8.05948 21.7874 7.27829C20.998 6.4971 19.9951 5.96693 18.905 5.75453C17.8149 5.54212 16.6864 5.65698 15.6614 6.08465C14.6365 6.51231 13.7609 7.23366 13.1451 8.15787C12.5293 9.08208 12.2006 10.1678 12.2005 11.2784C12.211 12.7781 12.8154 14.2126 13.8814 15.2675C14.9475 16.3224 16.3882 16.9118 17.8879 16.9065ZM17.8879 7.6251C18.6078 7.63678 19.3082 7.86092 19.9012 8.26939C20.4941 8.67785 20.9532 9.25242 21.2206 9.92093C21.4881 10.5894 21.552 11.3221 21.4044 12.0268C21.2568 12.7315 20.9043 13.3769 20.3911 13.8819C19.8779 14.387 19.2269 14.7291 18.5199 14.8653C17.8129 15.0015 17.0814 14.9258 16.4172 14.6476C15.7531 14.3695 15.186 13.9013 14.7871 13.3018C14.3883 12.7024 14.1754 11.9985 14.1753 11.2784C14.1857 10.3025 14.5821 9.37031 15.2778 8.68573C15.9735 8.00115 16.9119 7.61983 17.8879 7.6251ZM14.4419 18.2296C18.8214 17.4676 23.33 18.1612 27.278 20.2044C27.5582 20.36 27.7903 20.5897 27.9487 20.8683C28.1072 21.147 28.186 21.4638 28.1765 21.7842V25.2993C28.1765 25.5612 28.0724 25.8124 27.8873 25.9975C27.7021 26.1827 27.451 26.2867 27.1891 26.2867C26.9272 26.2867 26.6761 26.1827 26.4909 25.9975C26.3057 25.8124 26.2017 25.5612 26.2017 25.2993V21.9126C22.5408 20.0757 18.3777 19.4929 14.3531 20.2538L14.4419 18.2296Z" fill="#4C4C61"/>
  <path d="M25.3775 12.8879C28.1111 12.9336 30.7973 13.6094 33.2272 14.8626C33.4914 15.0022 33.7128 15.211 33.8676 15.4667C34.0224 15.7223 34.1048 16.0152 34.106 16.3141V19.375C34.106 19.6369 34.0019 19.888 33.8168 20.0732C33.6316 20.2584 33.3804 20.3624 33.1186 20.3624C32.8567 20.3624 32.6056 20.2584 32.4204 20.0732C32.2352 19.888 32.1312 19.6369 32.1312 19.375V16.5116C29.8095 15.356 27.2391 14.7897 24.6468 14.8626C24.986 14.2438 25.2322 13.5784 25.3775 12.8879ZM3.38833 14.8528C5.56763 13.7096 7.96272 13.0368 10.4185 12.878C10.5631 13.5673 10.8059 14.2324 11.1393 14.8528C8.8258 14.9081 6.55318 15.4746 4.48433 16.5116V19.375C4.48433 19.6369 4.3803 19.888 4.19513 20.0732C4.00996 20.2584 3.75881 20.3624 3.49694 20.3624C3.23507 20.3624 2.98392 20.2584 2.79875 20.0732C2.61358 19.888 2.50956 19.6369 2.50956 19.375V16.3141C2.50895 16.0136 2.5905 15.7186 2.74538 15.461C2.90026 15.2035 3.12259 14.9931 3.38833 14.8528ZM25.5552 11.2784V10.6169C26.3287 10.5134 27.0325 10.1155 27.52 9.50617C28.0076 8.89681 28.2413 8.12289 28.1726 7.34552C28.1039 6.56816 27.738 5.84724 27.1512 5.33283C26.5643 4.81843 25.8017 4.55019 25.022 4.58395C24.211 4.58248 23.4316 4.8978 22.8497 5.46272C22.3364 5.03931 21.7726 4.68112 21.1712 4.39634C21.843 3.62386 22.7331 3.07308 23.7242 2.81659C24.7153 2.5601 25.7608 2.60994 26.723 2.95953C27.6852 3.30913 28.5189 3.94208 29.1142 4.77496C29.7095 5.60783 30.0384 6.60154 30.0577 7.6251C30.0369 8.87785 29.55 10.0779 28.6918 10.9908C27.8337 11.9037 26.666 12.4639 25.4169 12.562C25.5007 12.1391 25.547 11.7095 25.5552 11.2784ZM11.6231 2.60917C12.3017 2.60932 12.9734 2.74474 13.599 3.00753C14.2246 3.27031 14.7915 3.65517 15.2666 4.13962C14.5991 4.3815 13.9679 4.71372 13.3906 5.12701C12.9296 4.80702 12.3904 4.61814 11.8306 4.5805C11.2707 4.54285 10.7111 4.65786 10.2115 4.91326C9.71182 5.16866 9.29085 5.55487 8.99345 6.03071C8.69605 6.50655 8.53337 7.05419 8.52275 7.61522C8.52896 8.1915 8.69826 8.75423 9.01105 9.23827C9.32384 9.72231 9.76733 10.1079 10.2902 10.3503C10.2504 10.6548 10.2307 10.9615 10.2309 11.2686C10.2336 11.6655 10.2666 12.0616 10.3297 12.4534C9.25401 12.1769 8.29996 11.5525 7.616 10.6775C6.93204 9.80243 6.55655 8.72582 6.54797 7.61522C6.56101 6.27959 7.10209 5.00339 8.05302 4.06541C9.00395 3.12742 10.2875 2.60389 11.6231 2.60917Z" fill="#4C4C61"/>
  <path d="M11.1964 19.8071V20.9924H7.6406V19.8071H6.45535V20.9924H4.08485C3.92767 20.9924 3.77694 21.0548 3.6658 21.166C3.55466 21.2771 3.49222 21.4278 3.49222 21.585V31.067C3.49222 31.2242 3.55466 31.3749 3.6658 31.4861C3.77694 31.5972 3.92767 31.6596 4.08485 31.6596H14.7521C14.9093 31.6596 15.06 31.5972 15.1712 31.4861C15.2823 31.3749 15.3447 31.2242 15.3447 31.067V21.585C15.3447 21.4278 15.2823 21.2771 15.1712 21.166C15.06 21.0548 14.9093 20.9924 14.7521 20.9924H12.3816V19.8071H11.1964ZM4.67747 25.7334H14.1595V30.4744H4.67747V25.7334ZM11.789 26.9186V28.1039H12.9742V26.9186H11.789ZM8.82585 26.9186V28.1039H10.0111V26.9186H8.82585ZM5.86272 26.9186V28.1039H7.04797V26.9186H5.86272ZM12.3816 22.1776H14.1595V24.5481H4.67747V22.1776H6.45535V23.3629H7.6406V22.1776H11.1964V23.3629H12.3816V22.1776Z" fill="#4C4C61"/>
</svg>