<svg width="15" height="15" viewBox="0 0 15 15" fill="none" xmlns="http://www.w3.org/2000/svg">
<g id="attach_file">
<mask id="mask0_109_2755" style="mask-type:alpha" maskUnits="userSpaceOnUse" x="0" y="0" width="15" height="15">
<rect id="Bounding box" x="0.167969" y="0.366699" width="14" height="14" fill="#D9D9D9"/>
</mask>
<g mask="url(#mask0_109_2755)">
<path id="attach_file_2" d="M6.8763 13.2006C5.98186 13.2006 5.22352 12.8895 4.6013 12.2673C3.97908 11.645 3.66797 10.8867 3.66797 9.99227V3.86727C3.66797 3.2256 3.89644 2.6763 4.35339 2.21935C4.81033 1.76241 5.35963 1.53394 6.0013 1.53394C6.64297 1.53394 7.19227 1.76241 7.64922 2.21935C8.10616 2.6763 8.33463 3.2256 8.33463 3.86727V9.40894C8.33463 9.81727 8.19366 10.1624 7.91172 10.4444C7.62977 10.7263 7.28463 10.8673 6.8763 10.8673C6.46797 10.8673 6.12283 10.7263 5.84088 10.4444C5.55894 10.1624 5.41797 9.81727 5.41797 9.40894V3.86727H6.29297V9.40894C6.29297 9.57421 6.34887 9.71276 6.46068 9.82456C6.57248 9.93637 6.71102 9.99227 6.8763 9.99227C7.04158 9.99227 7.18012 9.93637 7.29193 9.82456C7.40373 9.71276 7.45963 9.57421 7.45963 9.40894V3.86727C7.45963 3.45894 7.31866 3.1138 7.03672 2.83185C6.75477 2.54991 6.40963 2.40894 6.0013 2.40894C5.59297 2.40894 5.24783 2.54991 4.96589 2.83185C4.68394 3.1138 4.54297 3.45894 4.54297 3.86727V9.99227C4.54297 10.6339 4.77144 11.1832 5.22838 11.6402C5.68533 12.0971 6.23463 12.3256 6.8763 12.3256C7.51797 12.3256 8.06727 12.0971 8.52422 11.6402C8.98116 11.1832 9.20963 10.6339 9.20963 9.99227V3.86727H10.0846V9.99227C10.0846 10.8867 9.77352 11.645 9.1513 12.2673C8.52908 12.8895 7.77075 13.2006 6.8763 13.2006Z" fill="#1C1B1F"/>
</g>
</g>
</svg>
