<svg width="31" height="31" viewBox="0 0 31 31" fill="none" xmlns="http://www.w3.org/2000/svg">
<path d="M6.52199 23.2933C7.78091 22.3306 9.18793 21.5715 10.7431 21.0161C12.2982 20.4607 13.9274 20.183 15.6306 20.183C17.3339 20.183 18.9631 20.4607 20.5182 21.0161C22.0733 21.5715 23.4804 22.3306 24.7393 23.2933C25.6033 22.2812 26.2759 21.1334 26.7573 19.8498C27.2386 18.5662 27.4793 17.1962 27.4793 15.7398C27.4793 12.4567 26.3253 9.66116 24.0173 7.35315C21.7092 5.04513 18.9137 3.89112 15.6306 3.89112C12.3476 3.89112 9.55203 5.04513 7.24401 7.35315C4.936 9.66116 3.78199 12.4567 3.78199 15.7398C3.78199 17.1962 4.02266 18.5662 4.50401 19.8498C4.98537 21.1334 5.65802 22.2812 6.52199 23.2933ZM15.6306 17.2208C14.1742 17.2208 12.9462 16.721 11.9464 15.7213C10.9467 14.7215 10.4469 13.4935 10.4469 12.0371C10.4469 10.5807 10.9467 9.3526 11.9464 8.35288C12.9462 7.35315 14.1742 6.85328 15.6306 6.85328C17.087 6.85328 18.3151 7.35315 19.3148 8.35288C20.3146 9.3526 20.8144 10.5807 20.8144 12.0371C20.8144 13.4935 20.3146 14.7215 19.3148 15.7213C18.3151 16.721 17.087 17.2208 15.6306 17.2208ZM15.6306 30.5506C13.5818 30.5506 11.6564 30.1618 9.85442 29.3842C8.05244 28.6067 6.48496 27.5514 5.15199 26.2184C3.81901 24.8854 2.76374 23.318 1.98618 21.516C1.20861 19.714 0.819824 17.7886 0.819824 15.7398C0.819824 13.6909 1.20861 11.7655 1.98618 9.96355C2.76374 8.16157 3.81901 6.59409 5.15199 5.26112C6.48496 3.92814 8.05244 2.87287 9.85442 2.09531C11.6564 1.31774 13.5818 0.928955 15.6306 0.928955C17.6795 0.928955 19.6049 1.31774 21.4069 2.09531C23.2088 2.87287 24.7763 3.92814 26.1093 5.26112C27.4423 6.59409 28.4975 8.16157 29.2751 9.96355C30.0527 11.7655 30.4414 13.6909 30.4414 15.7398C30.4414 17.7886 30.0527 19.714 29.2751 21.516C28.4975 23.318 27.4423 24.8854 26.1093 26.2184C24.7763 27.5514 23.2088 28.6067 21.4069 29.3842C19.6049 30.1618 17.6795 30.5506 15.6306 30.5506ZM15.6306 27.5884C16.9389 27.5884 18.1732 27.3971 19.3333 27.0145C20.4935 26.6319 21.555 26.0827 22.5177 25.3668C21.555 24.6509 20.4935 24.1017 19.3333 23.7191C18.1732 23.3365 16.9389 23.1452 15.6306 23.1452C14.3223 23.1452 13.0881 23.3365 11.9279 23.7191C10.7678 24.1017 9.70631 24.6509 8.74361 25.3668C9.70631 26.0827 10.7678 26.6319 11.9279 27.0145C13.0881 27.3971 14.3223 27.5884 15.6306 27.5884ZM15.6306 14.2587C16.2724 14.2587 16.8032 14.0489 17.2228 13.6292C17.6424 13.2096 17.8523 12.6789 17.8523 12.0371C17.8523 11.3953 17.6424 10.8645 17.2228 10.4449C16.8032 10.0253 16.2724 9.81544 15.6306 9.81544C14.9888 9.81544 14.4581 10.0253 14.0385 10.4449C13.6188 10.8645 13.409 11.3953 13.409 12.0371C13.409 12.6789 13.6188 13.2096 14.0385 13.6292C14.4581 14.0489 14.9888 14.2587 15.6306 14.2587Z" fill="#4C4C61"/>
</svg>
