<svg width="15" height="15" viewBox="0 0 15 15" fill="none" xmlns="http://www.w3.org/2000/svg">
<g id="content_copy">
<mask id="mask0_109_2795" style="mask-type:alpha" maskUnits="userSpaceOnUse" x="0" y="0" width="15" height="15">
<rect id="Bounding box" x="0.751953" y="0.21582" width="13.9988" height="13.9988" fill="#D9D9D9"/>
</mask>
<g mask="url(#mask0_109_2795)">
<path id="content_copy_2" d="M5.99971 10.7149C5.6789 10.7149 5.40427 10.6007 5.17582 10.3722C4.94737 10.1437 4.83314 9.86912 4.83314 9.54831V2.54889C4.83314 2.22809 4.94737 1.95346 5.17582 1.725C5.40427 1.49655 5.6789 1.38232 5.99971 1.38232H11.2493C11.5701 1.38232 11.8447 1.49655 12.0732 1.725C12.3016 1.95346 12.4158 2.22809 12.4158 2.54889V9.54831C12.4158 9.86912 12.3016 10.1437 12.0732 10.3722C11.8447 10.6007 11.5701 10.7149 11.2493 10.7149H5.99971ZM5.99971 9.54831H11.2493V2.54889H5.99971V9.54831ZM3.66657 13.048C3.34576 13.048 3.07113 12.9338 2.84268 12.7053C2.61423 12.4769 2.5 12.2023 2.5 11.8814V3.71546H3.66657V11.8814H10.0827V13.048H3.66657Z" fill="#4C4C61"/>
</g>
</g>
</svg>
