<svg width="14" height="15" viewBox="0 0 14 15" fill="none" xmlns="http://www.w3.org/2000/svg">
<g id="edit_square">
<mask id="mask0_0_440" style="mask-type:alpha" maskUnits="userSpaceOnUse" x="0" y="0" width="14" height="15">
<rect id="Bounding box" y="0.5" width="14" height="14" fill="#D9D9D9"/>
</mask>
<g mask="url(#mask0_0_440)">
<path id="edit_square_2" d="M2.16667 13.4729C1.84583 13.4729 1.57118 13.3587 1.34271 13.1302C1.11424 12.9017 1 12.6271 1 12.3062V4.13958C1 3.81875 1.11424 3.5441 1.34271 3.31562C1.57118 3.08715 1.84583 2.97292 2.16667 2.97292H7.37292L6.20625 4.13958H2.16667V12.3062H10.3333V8.25208L11.5 7.08542V12.3062C11.5 12.6271 11.3858 12.9017 11.1573 13.1302C10.9288 13.3587 10.6542 13.4729 10.3333 13.4729H2.16667ZM8.68542 3.30833L9.51667 4.125L5.66667 7.975V8.80625H6.48333L10.3479 4.94167L11.1792 5.75833L6.97917 9.97292H4.5V7.49375L8.68542 3.30833ZM11.1792 5.75833L8.68542 3.30833L10.1438 1.85C10.3771 1.61667 10.6566 1.5 10.9823 1.5C11.308 1.5 11.5826 1.61667 11.8062 1.85L12.6229 2.68125C12.8465 2.90486 12.9583 3.17708 12.9583 3.49792C12.9583 3.81875 12.8465 4.09097 12.6229 4.31458L11.1792 5.75833Z" fill="#109CF1"/>
</g>
</g>
</svg>
