<svg width="14" height="15" viewBox="0 0 14 15" fill="none" xmlns="http://www.w3.org/2000/svg">
<g id="ic:round-support-agent">
<path id="Vector" d="M12.2513 7.93381C12.2513 4.73131 9.7663 2.55548 7.0013 2.55548C4.26547 2.55548 1.7513 4.68465 1.7513 7.96881C1.4013 8.16715 1.16797 8.54048 1.16797 8.97215V10.1388C1.16797 10.7805 1.69297 11.3055 2.33464 11.3055C2.65547 11.3055 2.91797 11.043 2.91797 10.7221V7.91631C2.91797 5.68215 4.6388 3.72798 6.87297 3.66381C7.41976 3.64719 7.96432 3.74048 8.47439 3.93818C8.98446 4.13588 9.44965 4.43395 9.8424 4.81474C10.2352 5.19552 10.5475 5.65127 10.7609 6.15498C10.9742 6.65869 11.0843 7.20011 11.0846 7.74715V11.8888H7.0013C6.68047 11.8888 6.41797 12.1513 6.41797 12.4721C6.41797 12.793 6.68047 13.0555 7.0013 13.0555H11.0846C11.7263 13.0555 12.2513 12.5305 12.2513 11.8888V11.1771C12.5955 10.9963 12.8346 10.6405 12.8346 10.2205V8.87881C12.8346 8.47048 12.5955 8.11465 12.2513 7.93381Z" fill="#4C4C61"/>
<path id="Vector_2" d="M5.2513 8.97215C5.57347 8.97215 5.83464 8.71098 5.83464 8.38881C5.83464 8.06665 5.57347 7.80548 5.2513 7.80548C4.92914 7.80548 4.66797 8.06665 4.66797 8.38881C4.66797 8.71098 4.92914 8.97215 5.2513 8.97215Z" fill="#4C4C61"/>
<path id="Vector_3" d="M8.7513 8.97215C9.07347 8.97215 9.33464 8.71098 9.33464 8.38881C9.33464 8.06665 9.07347 7.80548 8.7513 7.80548C8.42914 7.80548 8.16797 8.06665 8.16797 8.38881C8.16797 8.71098 8.42914 8.97215 8.7513 8.97215Z" fill="#4C4C61"/>
<path id="Vector_4" d="M10.5008 7.23965C10.3617 6.41956 9.93691 5.67513 9.30168 5.13812C8.66646 4.60111 7.86172 4.30616 7.02992 4.30548C5.26242 4.30548 3.36076 5.76965 3.51242 8.06798C4.23175 7.77362 4.86706 7.30585 5.36172 6.70635C5.85638 6.10686 6.19501 5.39428 6.34742 4.63215C7.11159 6.16631 8.68076 7.22215 10.5008 7.23965Z" fill="#4C4C61"/>
</g>
</svg>
