<svg width="14" height="15" viewBox="0 0 14 15" fill="none" xmlns="http://www.w3.org/2000/svg">
<g id="list_alt">
<mask id="mask0_0_451" style="mask-type:alpha" maskUnits="userSpaceOnUse" x="0" y="0" width="14" height="15">
<rect id="Bounding box" y="0.5" width="14" height="14" fill="#D9D9D9"/>
</mask>
<g mask="url(#mask0_0_451)">
<path id="list_alt_2" d="M4.66667 10.4167C4.83194 10.4167 4.97049 10.3608 5.08229 10.249C5.1941 10.1372 5.25 9.99861 5.25 9.83333C5.25 9.66806 5.1941 9.52951 5.08229 9.41771C4.97049 9.3059 4.83194 9.25 4.66667 9.25C4.50139 9.25 4.36285 9.3059 4.25104 9.41771C4.13924 9.52951 4.08333 9.66806 4.08333 9.83333C4.08333 9.99861 4.13924 10.1372 4.25104 10.249C4.36285 10.3608 4.50139 10.4167 4.66667 10.4167ZM4.66667 8.08333C4.83194 8.08333 4.97049 8.02743 5.08229 7.91563C5.1941 7.80382 5.25 7.66528 5.25 7.5C5.25 7.33472 5.1941 7.19618 5.08229 7.08437C4.97049 6.97257 4.83194 6.91667 4.66667 6.91667C4.50139 6.91667 4.36285 6.97257 4.25104 7.08437C4.13924 7.19618 4.08333 7.33472 4.08333 7.5C4.08333 7.66528 4.13924 7.80382 4.25104 7.91563C4.36285 8.02743 4.50139 8.08333 4.66667 8.08333ZM4.66667 5.75C4.83194 5.75 4.97049 5.6941 5.08229 5.58229C5.1941 5.47049 5.25 5.33194 5.25 5.16667C5.25 5.00139 5.1941 4.86285 5.08229 4.75104C4.97049 4.63924 4.83194 4.58333 4.66667 4.58333C4.50139 4.58333 4.36285 4.63924 4.25104 4.75104C4.13924 4.86285 4.08333 5.00139 4.08333 5.16667C4.08333 5.33194 4.13924 5.47049 4.25104 5.58229C4.36285 5.6941 4.50139 5.75 4.66667 5.75ZM6.41667 10.4167H9.91667V9.25H6.41667V10.4167ZM6.41667 8.08333H9.91667V6.91667H6.41667V8.08333ZM6.41667 5.75H9.91667V4.58333H6.41667V5.75ZM2.91667 12.75C2.59583 12.75 2.32118 12.6358 2.09271 12.4073C1.86424 12.1788 1.75 11.9042 1.75 11.5833V3.41667C1.75 3.09583 1.86424 2.82118 2.09271 2.59271C2.32118 2.36424 2.59583 2.25 2.91667 2.25H11.0833C11.4042 2.25 11.6788 2.36424 11.9073 2.59271C12.1358 2.82118 12.25 3.09583 12.25 3.41667V11.5833C12.25 11.9042 12.1358 12.1788 11.9073 12.4073C11.6788 12.6358 11.4042 12.75 11.0833 12.75H2.91667ZM2.91667 11.5833H11.0833V3.41667H2.91667V11.5833Z" fill="#908E8E"/>
</g>
</g>
</svg>
