<svg width="69" height="97" viewBox="0 0 69 97" fill="none" xmlns="http://www.w3.org/2000/svg">
<g id="Frame 1000002010">
<path id="Vector" d="M20.3941 0.519971C25.9171 0.643677 31.4397 0.798628 36.9634 0.882545C42.6652 0.969139 48.055 2.15991 53.0663 4.98461C59.5204 8.62246 63.4355 14.1438 65.1976 21.2299C67.3165 29.751 66.652 38.0645 62.7066 45.9585C60.3975 50.5786 56.97 54.2507 52.3134 56.6557C51.3889 57.1332 50.4145 57.5054 49.4132 57.7834C48.8595 57.9371 48.7444 58.0901 49.0408 58.6521C52.245 64.7299 55.433 70.8164 58.5951 76.9161C61.7376 82.978 64.8462 89.0574 67.9677 95.1301C68.3736 95.9199 68.3319 95.9865 67.4643 95.9867C64.8506 95.9876 62.2365 95.9762 59.6229 95.9976C59.1737 96.0013 58.9559 95.8512 58.7534 95.4519C51.455 81.0584 43.9051 66.7954 36.4188 52.4995C36.3598 52.3867 36.2938 52.2774 36.2376 52.1634C35.967 51.6144 36.0439 51.4741 36.6472 51.4961C37.8779 51.5409 39.105 51.6478 40.3397 51.5265C48.371 50.7375 53.8646 46.5968 56.4873 38.9631C58.7146 32.48 58.5822 25.9798 55.7487 19.6562C53.3817 14.3735 49.1711 11.3274 43.6546 9.91959C40.3258 9.06997 36.9292 8.71594 33.5143 8.52758C23.8355 7.9936 14.1437 8.06438 4.45587 7.95279C3.32989 7.93979 2.20378 7.90943 1.07793 7.91823C0.574687 7.92218 0.462331 7.71877 0.506202 7.13276C0.646615 5.25574 0.666637 3.3712 0.512451 1.49534C0.438992 0.601081 0.53783 0.345124 1.27088 0.347675C7.64519 0.370121 20.4002 0.520098 20.3941 0.519971Z" fill="white"/>
<path id="Vector_2" d="M20.3467 61.7162C21.5364 66.1087 23.4845 70.0743 26.425 73.5201C28.1142 75.4995 30.0656 77.2067 32.0334 78.8962C32.1784 79.0208 32.3202 79.1492 32.4656 79.2733C32.6032 79.3908 32.7147 79.5266 32.6193 79.7118C32.5216 79.9014 32.3485 79.8693 32.1744 79.8249C31.1882 79.5737 30.2 79.3307 29.2143 79.0779C24.4221 77.8492 19.9491 75.8018 15.4871 73.7262C14.7249 73.3716 13.9629 73.0167 13.0655 72.5991C13.7412 73.9065 14.4406 75.0279 15.2208 76.0983C17.1332 78.7214 19.481 80.9446 21.7722 83.2206C22.0059 83.4528 22.524 83.6519 22.2709 84.0564C22.0618 84.3909 21.644 84.0797 21.3357 83.9982C19.6138 83.5433 17.9101 83.028 16.2276 82.441C13.1006 81.3499 10.4378 79.5377 8.07828 77.2461C7.66852 76.8482 7.25315 76.4561 6.79403 76.017C6.38261 76.9627 5.99122 77.8511 5.60888 78.7433C4.55074 81.2127 3.27415 83.5525 1.54175 85.6227C1.3877 85.8068 1.28376 86.1335 0.963014 86.0052C0.695452 85.8982 0.77618 85.6073 0.779878 85.3815C0.970029 73.9309 1.10955 62.4798 1.11962 51.0274C1.11975 50.8185 1.01479 50.5075 1.3701 50.4744C1.69518 50.4442 1.70308 50.7546 1.7708 50.9597C2.50908 53.1934 3.23232 55.4312 4.20743 57.579C5.30242 59.991 6.91774 61.8749 9.43943 62.8694C9.55115 62.9134 9.65088 63.0205 9.80519 62.9374C9.79371 62.6664 9.58061 62.5017 9.44721 62.3033C8.23655 60.5028 7.33375 58.5878 7.08774 56.3965C6.84543 54.238 7.40874 52.3637 8.93236 50.7978C9.1989 50.5239 9.46111 50.2395 9.76005 50.0041C12.9429 47.4977 14.7604 44.1256 15.916 40.3318C16.1074 39.7033 16.2774 39.0681 16.4729 38.4409C16.5319 38.2518 16.5483 37.9801 16.8385 37.9926C17.1389 38.0055 17.1169 38.2802 17.142 38.4749C17.3423 40.0325 17.5387 41.5899 17.9059 43.1203C18.8194 46.9271 20.7025 50.2548 23.0374 53.3393C24.4596 55.2182 25.9825 57.0213 27.4699 58.8506C30.6416 62.7512 32.4954 67.2237 33.2744 72.166C33.3141 72.4173 33.3683 72.6666 33.4017 72.9189C33.4236 73.0843 33.4602 73.2704 33.2718 73.3737C33.0779 73.48 32.9534 73.3398 32.8333 73.221C32.531 72.9222 32.2308 72.6214 31.9333 72.318C29.9786 70.325 27.7859 68.6097 25.6013 66.8846C23.8108 65.4708 22.1827 63.8894 20.7182 62.1398C20.5978 61.9958 20.4708 61.8573 20.3467 61.7162Z" fill="white"/>
<path id="Vector_3" d="M35.3483 27.9956C35.0849 27.4732 34.6581 27.0843 34.2326 26.7103C30.8746 23.7569 26.9716 22.5873 22.5559 23.2954C20.1437 23.6822 18.409 25.1325 17.0933 27.1306C16.602 27.877 16.1925 28.6712 15.8374 29.4864C14.4237 32.7327 11.9921 34.9765 8.91459 36.5966C8.14519 37.0016 7.3791 37.4137 6.59962 37.7984C3.91163 39.125 2.35166 41.295 1.76973 44.2059C1.65763 44.7669 1.54132 45.3272 1.42246 45.8869C1.38675 46.0551 1.34199 46.244 1.11358 46.2144C0.934652 46.1912 0.909783 46.0339 0.894479 45.8771C0.52132 42.0278 0.498492 38.2073 1.71464 34.4687C2.48799 32.0914 3.98726 30.2256 5.76659 28.5434C6.26983 28.0677 6.27608 28.0435 5.62783 27.8157C3.66397 27.1259 2.06586 25.9525 0.860301 24.2554C0.727922 24.0691 0.390982 23.9105 0.604088 23.6184C0.80138 23.3482 1.09215 23.5557 1.31036 23.6198C4.00256 24.4113 6.74221 24.7797 9.54893 24.6031C9.77887 24.5887 10.0105 24.6012 10.2278 24.6012C10.291 24.3594 10.1417 24.3509 10.0281 24.3036C6.70828 22.9226 4.9185 20.3666 4.36105 16.8827C4.0991 15.2454 3.99733 13.5916 3.96749 11.9346C3.96328 11.7002 3.81586 11.3561 4.13328 11.259C4.46066 11.1589 4.51894 11.5295 4.63219 11.7329C5.67081 13.6003 6.84691 15.3485 8.5603 16.6879C10.6059 18.2872 12.9433 19.1262 15.4875 19.4952C15.5737 19.275 15.4182 19.1601 15.3325 19.0364C14.3004 17.5478 14.0165 15.8882 14.2002 14.1217C14.2231 13.9014 14.1642 13.602 14.4561 13.5329C14.71 13.4728 14.797 13.7428 14.9166 13.9068C15.6836 14.9582 16.4869 15.9787 17.6273 16.6543C19.3579 17.6795 21.3046 18.0042 23.2229 18.3803C23.3461 18.1829 23.2031 18.1053 23.1347 18.0234C21.9059 16.5512 21.4728 14.8087 21.3921 12.9436C21.3847 12.7728 21.3405 12.5847 21.5415 12.505C21.7415 12.4257 21.85 12.5837 21.9561 12.7195C22.1131 12.9203 22.2789 13.1146 22.4269 13.3219C24.2345 15.8534 26.7077 17.5249 29.492 18.795C29.5644 18.828 29.6487 18.8352 29.8247 18.8782C29.51 17.692 29.7514 16.6067 30.1359 15.5426C30.2016 15.3608 30.2109 15.0752 30.4999 15.0916C30.7286 15.1046 30.7765 15.3346 30.8298 15.5122C31.5545 17.9223 33.1107 19.7441 34.9533 21.367C35.4634 21.8162 35.9444 22.2997 36.4667 22.7338C38.2869 24.246 39.4173 26.1795 39.872 28.4781C40.118 29.7216 40.6429 30.5523 41.7948 31.2615C44.5594 32.9637 45.1406 36.5369 43.3703 39.6071C42.595 40.9515 41.4856 41.9435 40.1542 42.7085C39.028 43.3556 37.8174 43.8123 36.6102 44.2759C36.4179 44.3498 36.179 44.4642 36.0422 44.2155C35.9181 43.99 36.1502 43.8757 36.2854 43.7602C36.8352 43.2906 37.3822 42.818 37.8525 42.2669C38.9898 40.9343 39.1364 39.6445 38.3337 38.092C37.9892 37.4259 37.5663 36.8107 36.9786 36.3413C36.6538 36.0817 36.6128 35.8202 36.7483 35.4603C36.8825 35.1039 37.002 34.7393 37.0904 34.3694C37.2034 33.897 37.3852 33.8365 37.79 34.1237C38.9043 34.9144 39.7905 35.8907 40.3954 37.1188C40.5816 37.4967 40.7745 37.8713 41.0173 38.3522C41.6255 37.0131 41.6412 35.7762 41.1103 34.5272C40.6474 33.4384 39.7694 32.9892 38.6336 32.9666C38.2674 32.9594 37.9844 32.8527 37.7908 32.5136C36.8419 30.8523 35.3683 30.0919 33.496 30.2122C30.935 30.3767 29.0921 29.0802 27.4035 27.4039C27.2861 27.2872 27.1089 27.172 27.2186 26.9789C27.3363 26.7715 27.5456 26.8473 27.7361 26.8686C30.0145 27.1235 32.2718 27.5042 34.5138 27.9801C34.7611 28.0327 35.0144 28.0564 35.2649 28.0934C35.3158 28.1017 35.3964 28.1341 35.4122 28.1144C35.4628 28.0518 35.4049 28.0176 35.3483 27.9956Z" fill="#00AEEF"/>
<path id="Vector_4" d="M30.0141 95.9651C26.9644 95.7451 23.9079 95.564 20.9822 94.5568C17.0164 93.1914 14.0455 90.5363 11.5575 87.2616C10.3611 85.6868 9.34584 83.9932 8.33043 82.3003C8.21628 82.1101 8.00343 81.8955 8.23962 81.6777C8.49456 81.4425 8.66851 81.7176 8.82959 81.8538C10.1112 82.9375 11.3897 84.0249 12.784 84.9643C14.7907 86.3163 16.9627 87.2087 19.4118 87.3216C20.4826 87.371 21.4727 87.099 22.3947 86.5702C22.7171 86.3853 22.9846 86.3456 23.3254 86.5781C25.0879 87.7808 26.7087 89.1404 28.141 90.7268C29.2973 92.0074 30.154 93.4485 30.6534 95.1049C30.9213 95.9934 30.9154 96.0206 30.0141 95.9651Z" fill="white"/>
<path id="Vector_5" d="M35.1926 82.6916C35.135 81.5924 34.7568 80.2656 34.3639 78.9442C34.0679 77.949 33.7279 76.9667 33.4267 75.973C33.3615 75.7579 33.1245 75.4579 33.4871 75.312C33.8246 75.1762 33.9043 75.5221 34.0174 75.7285C36.1587 79.6346 38.2937 83.5441 40.4308 87.4524C41.7437 89.8532 43.0608 92.2517 44.3671 94.6561C44.4915 94.8849 44.8002 95.1261 44.6005 95.3935C44.3931 95.6708 44.0377 95.4899 43.7638 95.4361C40.3937 94.7751 37.2728 93.4817 34.383 91.6408C30.7588 89.332 27.8104 86.2799 25.0368 83.0421C24.636 82.5742 24.2361 82.1056 23.8408 81.6331C23.6841 81.4458 23.4081 81.2383 23.6836 80.9925C23.9134 80.7876 24.1039 81.035 24.2753 81.1882C25.2894 82.094 26.2998 83.0047 27.4086 83.7963C28.666 84.694 30.0107 85.3893 31.5692 85.6024C32.2336 85.6932 32.8867 85.6575 33.5266 85.4828C34.7411 85.151 35.2148 84.4266 35.1926 82.6916Z" fill="white"/>
<path id="Vector_6" d="M8.83969 95.8764C6.19149 95.7424 3.66686 95.2413 1.55774 93.4609C1.2912 93.2359 1.16303 93.0071 1.13803 92.6598C1.0406 91.3054 0.922376 89.9525 0.793824 88.6007C0.762578 88.272 0.802751 88.0303 1.13382 87.8716C3.13085 86.9146 4.58063 85.3645 5.79805 83.56C5.94063 83.3487 6.03985 82.9985 6.38725 83.0726C6.68529 83.1361 6.6793 83.4675 6.74383 83.6983C7.81739 87.5364 9.87908 90.8632 12.1101 94.1034C12.2424 94.2956 12.3688 94.4917 12.5013 94.6838C12.7531 95.049 12.6593 95.2466 12.2283 95.3603C11.1174 95.6538 10.0029 95.9054 8.83969 95.8764Z" fill="white"/>
<path id="Vector_7" d="M27.7417 46.2204C25.2004 46.1453 23.1444 44.8845 21.7259 42.5526C20.4688 40.4862 19.9554 38.1699 19.4926 35.8379C19.458 35.6637 19.4151 35.4815 19.6425 35.4224C19.8922 35.3575 19.9645 35.5644 20.0491 35.7356C20.5659 36.7817 21.1075 37.8133 21.8115 38.7498C22.8483 40.1291 24.0657 41.3109 25.712 41.9139C28.3824 42.8918 30.7532 42.158 32.902 40.4789C33.4338 40.0633 33.8802 39.5391 34.3746 39.0741C34.5153 38.9419 34.6256 38.6742 34.8886 38.8338C35.1625 39.0001 34.9752 39.2126 34.8886 39.3877C34.1559 40.869 33.45 42.3652 32.4907 43.7218C31.3813 45.2903 29.9275 46.2285 27.7417 46.2204Z" fill="#00AEEF"/>
</g>
</svg>
