<svg width="14" height="15" viewBox="0 0 14 15" fill="none" xmlns="http://www.w3.org/2000/svg">
<g id="more_horiz">
<mask id="mask0_0_4658" style="mask-type:alpha" maskUnits="userSpaceOnUse" x="0" y="0" width="14" height="15">
<rect id="Bounding box" y="0.805481" width="14" height="14" fill="#D9D9D9"/>
</mask>
<g mask="url(#mask0_0_4658)">
<path id="more_horiz_2" d="M3.49967 8.97216C3.17884 8.97216 2.90419 8.85792 2.67572 8.62945C2.44724 8.40098 2.33301 8.12632 2.33301 7.80549C2.33301 7.48466 2.44724 7.21001 2.67572 6.98153C2.90419 6.75306 3.17884 6.63882 3.49967 6.63882C3.82051 6.63882 4.09516 6.75306 4.32363 6.98153C4.5521 7.21001 4.66634 7.48466 4.66634 7.80549C4.66634 8.12632 4.5521 8.40098 4.32363 8.62945C4.09516 8.85792 3.82051 8.97216 3.49967 8.97216ZM6.99967 8.97216C6.67884 8.97216 6.40419 8.85792 6.17572 8.62945C5.94724 8.40098 5.83301 8.12632 5.83301 7.80549C5.83301 7.48466 5.94724 7.21001 6.17572 6.98153C6.40419 6.75306 6.67884 6.63882 6.99967 6.63882C7.32051 6.63882 7.59516 6.75306 7.82363 6.98153C8.0521 7.21001 8.16634 7.48466 8.16634 7.80549C8.16634 8.12632 8.0521 8.40098 7.82363 8.62945C7.59516 8.85792 7.32051 8.97216 6.99967 8.97216ZM10.4997 8.97216C10.1788 8.97216 9.90419 8.85792 9.67572 8.62945C9.44724 8.40098 9.33301 8.12632 9.33301 7.80549C9.33301 7.48466 9.44724 7.21001 9.67572 6.98153C9.90419 6.75306 10.1788 6.63882 10.4997 6.63882C10.8205 6.63882 11.0952 6.75306 11.3236 6.98153C11.5521 7.21001 11.6663 7.48466 11.6663 7.80549C11.6663 8.12632 11.5521 8.40098 11.3236 8.62945C11.0952 8.85792 10.8205 8.97216 10.4997 8.97216Z" fill="#4C4C61"/>
</g>
</g>
</svg>
