<svg width="15" height="15" viewBox="0 0 15 15" fill="none" xmlns="http://www.w3.org/2000/svg">
<g id="la:paste">
<path id="Vector" d="M7.31409 1.52832C6.76376 1.52832 6.37267 1.91766 6.17931 2.40325H2.93945V12.4649H6.43916V13.3398H12.5637V6.34042H11.6887V2.40325H8.44887C8.25551 1.91766 7.86442 1.52832 7.31409 1.52832ZM7.31409 2.40325C7.55688 2.40325 7.75155 2.59792 7.75155 2.84071V3.27817H9.06394V4.1531H5.56423V3.27817H6.87663V2.84071C6.87663 2.59792 7.0713 2.40325 7.31409 2.40325ZM3.81438 3.27817H4.68931V5.02803H9.93887V3.27817H10.8138V6.34042H6.43916V11.59H3.81438V3.27817ZM7.31409 7.21535H11.6887V12.4649H7.31409V7.21535Z" fill="#4C4C61"/>
</g>
</svg>
