<svg width="14" height="15" viewBox="0 0 14 15" fill="none" xmlns="http://www.w3.org/2000/svg">
<g id="add_card">
<mask id="mask0_0_4590" style="mask-type:alpha" maskUnits="userSpaceOnUse" x="0" y="0" width="14" height="15">
<rect id="Bounding box" y="0.805481" width="14" height="14" fill="#D9D9D9"/>
</mask>
<g mask="url(#mask0_0_4590)">
<path id="add_card_2" d="M2.33366 12.4721C2.01283 12.4721 1.73817 12.3579 1.5097 12.1294C1.28123 11.901 1.16699 11.6263 1.16699 11.3055V4.30548C1.16699 3.98464 1.28123 3.70999 1.5097 3.48152C1.73817 3.25305 2.01283 3.13881 2.33366 3.13881H11.667C11.9878 3.13881 12.2625 3.25305 12.491 3.48152C12.7194 3.70999 12.8337 3.98464 12.8337 4.30548V7.80548H2.33366V11.3055H8.16699V12.4721H2.33366ZM2.33366 5.47214H11.667V4.30548H2.33366V5.47214ZM11.0837 13.6388V11.8888H9.33366V10.7221H11.0837V8.97214H12.2503V10.7221H14.0003V11.8888H12.2503V13.6388H11.0837Z" fill="#4C4C61"/>
</g>
</g>
</svg>
