<svg width="37" height="36" viewBox="0 0 37 36" fill="none" xmlns="http://www.w3.org/2000/svg">
<g id="Account circle" clip-path="url(#clip0_459_3378)">
<path id="Vector" d="M18.4863 3.10938C10.285 3.10938 3.62891 9.7655 3.62891 17.9668C3.62891 26.1681 10.285 32.8242 18.4863 32.8242C26.6876 32.8242 33.3438 26.1681 33.3438 17.9668C33.3438 9.7655 26.6876 3.10938 18.4863 3.10938ZM11.1616 27.2973C11.8005 25.9601 15.6931 24.6526 18.4863 24.6526C21.2795 24.6526 25.187 25.9601 25.811 27.2973C23.7904 28.9019 21.2498 29.8527 18.4863 29.8527C15.7229 29.8527 13.1822 28.9019 11.1616 27.2973ZM27.9357 25.1429C25.811 22.5577 20.6555 21.6812 18.4863 21.6812C16.3171 21.6812 11.1616 22.5577 9.03701 25.1429C7.52155 23.152 6.60039 20.6709 6.60039 17.9668C6.60039 11.4147 11.9342 6.08086 18.4863 6.08086C25.0385 6.08086 30.3723 11.4147 30.3723 17.9668C30.3723 20.6709 29.4511 23.152 27.9357 25.1429ZM18.4863 9.05235C15.604 9.05235 13.2862 11.3701 13.2862 14.2524C13.2862 17.1348 15.604 19.4525 18.4863 19.4525C21.3687 19.4525 23.6864 17.1348 23.6864 14.2524C23.6864 11.3701 21.3687 9.05235 18.4863 9.05235ZM18.4863 16.4811C17.2532 16.4811 16.2577 15.4856 16.2577 14.2524C16.2577 13.0193 17.2532 12.0238 18.4863 12.0238C19.7195 12.0238 20.7149 13.0193 20.7149 14.2524C20.7149 15.4856 19.7195 16.4811 18.4863 16.4811Z" fill="#4C4C61"/>
</g>
<defs>
<clipPath id="clip0_459_3378">
<rect width="35.6578" height="35.6578" fill="white" transform="translate(0.65625 0.140625)"/>
</clipPath>
</defs>
</svg>
