<svg width="37" height="36" viewBox="0 0 37 36" fill="none" xmlns="http://www.w3.org/2000/svg">
<g id="carbon:report">
<path id="Vector" d="M11.7969 20.0023H20.6569V22.2173H11.7969V20.0023ZM11.7969 14.4648H25.0869V16.6798H11.7969V14.4648ZM11.7969 25.5398H17.3344V27.7548H11.7969V25.5398Z" fill="#030229"/>
<path id="Vector_2" d="M28.4117 5.60375H25.0892V4.49625C25.0892 3.9088 24.8559 3.3454 24.4405 2.93001C24.0251 2.51462 23.4617 2.28125 22.8742 2.28125H14.0142C13.4268 2.28125 12.8634 2.51462 12.448 2.93001C12.0326 3.3454 11.7992 3.9088 11.7992 4.49625V5.60375H8.47672C7.88926 5.60375 7.32587 5.83712 6.91048 6.25251C6.49508 6.6679 6.26172 7.2313 6.26172 7.81875V31.0762C6.26172 31.6637 6.49508 32.2271 6.91048 32.6425C7.32587 33.0579 7.88926 33.2912 8.47672 33.2912H28.4117C28.9992 33.2912 29.5626 33.0579 29.978 32.6425C30.3934 32.2271 30.6267 31.6637 30.6267 31.0762V7.81875C30.6267 7.2313 30.3934 6.6679 29.978 6.25251C29.5626 5.83712 28.9992 5.60375 28.4117 5.60375ZM14.0142 4.49625H22.8742V8.92625H14.0142V4.49625ZM28.4117 31.0762H8.47672V7.81875H11.7992V11.1412H25.0892V7.81875H28.4117V31.0762Z" fill="#030229"/>
</g>
</svg>
