<svg width="36" height="36" viewBox="0 0 36 36" fill="none" xmlns="http://www.w3.org/2000/svg">
<g clip-path="url(#clip0_1108_44945)">
<path d="M26.3724 23.4265C28.5204 20.4954 29.4824 16.8614 29.0661 13.2514C28.6497 9.64146 26.8857 6.32183 24.1269 3.95665C21.3681 1.59146 17.818 0.355161 14.1868 0.495076C10.5557 0.634992 7.11121 2.14081 4.54259 4.71126C1.97397 7.28172 0.470623 10.7273 0.333305 14.3585C0.195988 17.9898 1.43483 21.539 3.80199 24.2961C6.16914 27.0532 9.49004 28.8149 13.1003 29.2286C16.7105 29.6424 20.3439 28.6777 23.2734 26.5277H23.2712C23.3377 26.6164 23.4087 26.7007 23.4886 26.7828L32.0291 35.3233C32.445 35.7395 33.0093 35.9735 33.5977 35.9737C34.1862 35.9739 34.7506 35.7403 35.1669 35.3244C35.5831 34.9084 35.8171 34.3442 35.8173 33.7557C35.8175 33.1672 35.5839 32.6028 35.168 32.1866L26.6275 23.6461C26.5482 23.5658 26.4629 23.4939 26.3724 23.4265ZM26.9447 14.8993C26.9447 16.5015 26.6291 18.088 26.016 19.5683C25.4028 21.0485 24.5041 22.3935 23.3712 23.5265C22.2383 24.6594 20.8933 25.5581 19.413 26.1713C17.9328 26.7844 16.3462 27.1 14.744 27.1C13.1418 27.1 11.5553 26.7844 10.075 26.1713C8.59474 25.5581 7.24974 24.6594 6.1168 23.5265C4.98386 22.3935 4.08517 21.0485 3.47202 19.5683C2.85888 18.088 2.5433 16.5015 2.5433 14.8993C2.5433 11.6635 3.82873 8.56015 6.1168 6.27208C8.40488 3.984 11.5082 2.69858 14.744 2.69858C17.9798 2.69858 21.0831 3.984 23.3712 6.27208C25.6593 8.56015 26.9447 11.6635 26.9447 14.8993Z" fill="#D6D6D6"/>
</g>
<defs>
<clipPath id="clip0_1108_44945">
<rect width="35.493" height="35.493" fill="white" transform="translate(0.322998 0.479492)"/>
</clipPath>
</defs>
</svg>
