<svg width="37" height="36" viewBox="0 0 37 36" fill="none" xmlns="http://www.w3.org/2000/svg">
<path d="M30.3317 19.9236C30.0943 19.6534 29.9633 19.3059 29.9633 18.9461C29.9633 18.5864 30.0943 18.2389 30.3317 17.9686L32.2275 15.8359C32.4364 15.6028 32.5661 15.3096 32.5981 14.9983C32.63 14.687 32.5625 14.3736 32.4052 14.103L29.4431 8.97845C29.2874 8.70818 29.0504 8.49395 28.7659 8.3663C28.4813 8.23864 28.1637 8.20408 27.8583 8.26753L25.0739 8.83034C24.7196 8.90355 24.3507 8.84454 24.037 8.66446C23.7232 8.48438 23.4862 8.19567 23.3706 7.85283L22.4672 5.14245C22.3678 4.84828 22.1785 4.59277 21.926 4.41204C21.6736 4.23132 21.3707 4.13451 21.0602 4.13531H15.1358C14.8129 4.11846 14.4932 4.20778 14.2258 4.38964C13.9584 4.5715 13.7578 4.83589 13.6548 5.14245L12.8253 7.85283C12.7098 8.19567 12.4728 8.48438 12.159 8.66446C11.8452 8.84454 11.4764 8.90355 11.1221 8.83034L8.26362 8.26753C7.97414 8.22662 7.67903 8.2723 7.41547 8.39881C7.15191 8.52532 6.93168 8.727 6.78253 8.97845L3.82037 14.103C3.65917 14.3705 3.58669 14.6822 3.61329 14.9935C3.63989 15.3047 3.76421 15.5995 3.96848 15.8359L5.84945 17.9686C6.0869 18.2389 6.21785 18.5864 6.21785 18.9461C6.21785 19.3059 6.0869 19.6534 5.84945 19.9236L3.96848 22.0564C3.76421 22.2927 3.63989 22.5876 3.61329 22.8988C3.58669 23.21 3.65917 23.5217 3.82037 23.7893L6.78253 28.9138C6.93819 29.1841 7.1752 29.3983 7.45976 29.526C7.74433 29.6536 8.06193 29.6882 8.36729 29.6247L11.1517 29.0619C11.506 28.9887 11.8749 29.0477 12.1886 29.2278C12.5024 29.4079 12.7394 29.6966 12.855 30.0394L13.7584 32.7498C13.8615 33.0564 14.062 33.3208 14.3295 33.5026C14.5969 33.6845 14.9165 33.7738 15.2395 33.7569H21.1638C21.4743 33.7577 21.7772 33.6609 22.0297 33.4802C22.2822 33.2995 22.4715 33.044 22.5709 32.7498L23.4743 30.0394C23.5898 29.6966 23.8269 29.4079 24.1406 29.2278C24.4544 29.0477 24.8233 28.9887 25.1776 29.0619L27.962 29.6247C28.2674 29.6882 28.585 29.6536 28.8695 29.526C29.1541 29.3983 29.3911 29.1841 29.5468 28.9138L32.5089 23.7893C32.6662 23.5187 32.7337 23.2053 32.7017 22.8939C32.6698 22.5826 32.5401 22.2894 32.3312 22.0564L30.3317 19.9236ZM28.1249 21.9083L29.3098 23.2413L27.414 26.5293L25.6663 26.1738C24.5996 25.9558 23.49 26.1369 22.548 26.683C21.6061 27.229 20.8975 28.1019 20.5566 29.136L19.9938 30.7948H16.2022L15.669 29.1063C15.3282 28.0723 14.6195 27.1994 13.6776 26.6534C12.7356 26.1073 11.626 25.9261 10.5593 26.1442L8.81162 26.4996L6.88621 23.2264L8.07108 21.8935C8.7997 21.0788 9.20252 20.0243 9.20252 18.9313C9.20252 17.8384 8.7997 16.7838 8.07108 15.9692L6.88621 14.6362L8.78199 11.3778L10.5297 11.7333C11.5964 11.9513 12.706 11.7701 13.6479 11.2241C14.5899 10.678 15.2985 9.80513 15.6394 8.7711L16.2022 7.09748H19.9938L20.5566 8.78591C20.8975 9.81994 21.6061 10.6928 22.548 11.2389C23.49 11.7849 24.5996 11.9661 25.6663 11.7481L27.414 11.3926L29.3098 14.6806L28.1249 16.0136C27.4045 16.8263 27.0067 17.8748 27.0067 18.9609C27.0067 20.047 27.4045 21.0955 28.1249 21.9083ZM18.098 13.0218C16.9263 13.0218 15.7809 13.3693 14.8066 14.0202C13.8324 14.6712 13.073 15.5965 12.6246 16.679C12.1762 17.7615 12.0589 18.9527 12.2875 20.1019C12.5161 21.2511 13.0803 22.3067 13.9089 23.1353C14.7374 23.9638 15.793 24.528 16.9422 24.7566C18.0914 24.9852 19.2826 24.8679 20.3651 24.4195C21.4477 23.9711 22.3729 23.2118 23.0239 22.2375C23.6749 21.2633 24.0223 20.1178 24.0223 18.9461C24.0223 17.3749 23.3981 15.868 22.2871 14.757C21.1761 13.646 19.6692 13.0218 18.098 13.0218ZM18.098 21.9083C17.5121 21.9083 16.9394 21.7346 16.4523 21.4091C15.9652 21.0836 15.5855 20.621 15.3613 20.0797C15.1371 19.5384 15.0785 18.9428 15.1927 18.3682C15.307 17.7936 15.5892 17.2658 16.0034 16.8516C16.4177 16.4373 16.9455 16.1552 17.5201 16.0409C18.0947 15.9266 18.6903 15.9852 19.2316 16.2094C19.7728 16.4336 20.2355 16.8133 20.5609 17.3004C20.8864 17.7876 21.0602 18.3603 21.0602 18.9461C21.0602 19.7317 20.7481 20.4852 20.1926 21.0407C19.637 21.5962 18.8836 21.9083 18.098 21.9083Z" fill="#4C4C61"/>
</svg>
