<svg width="15" height="15" viewBox="0 0 15 15" fill="none" xmlns="http://www.w3.org/2000/svg">
<g id="list_alt">
<mask id="mask0_109_2806" style="mask-type:alpha" maskUnits="userSpaceOnUse" x="0" y="0" width="15" height="15">
<rect id="Bounding box" x="0.751953" y="0.215332" width="14" height="14" fill="#D9D9D9"/>
</mask>
<g mask="url(#mask0_109_2806)">
<path id="list_alt_2" d="M5.41862 10.1322C5.5839 10.1322 5.72244 10.0763 5.83424 9.96453C5.94605 9.85273 6.00195 9.71419 6.00195 9.54891C6.00195 9.38363 5.94605 9.24509 5.83424 9.13328C5.72244 9.02148 5.5839 8.96558 5.41862 8.96558C5.25334 8.96558 5.1148 9.02148 5.00299 9.13328C4.89119 9.24509 4.83529 9.38363 4.83529 9.54891C4.83529 9.71419 4.89119 9.85273 5.00299 9.96453C5.1148 10.0763 5.25334 10.1322 5.41862 10.1322ZM5.41862 7.79891C5.5839 7.79891 5.72244 7.74301 5.83424 7.6312C5.94605 7.5194 6.00195 7.38085 6.00195 7.21558C6.00195 7.0503 5.94605 6.91176 5.83424 6.79995C5.72244 6.68815 5.5839 6.63224 5.41862 6.63224C5.25334 6.63224 5.1148 6.68815 5.00299 6.79995C4.89119 6.91176 4.83529 7.0503 4.83529 7.21558C4.83529 7.38085 4.89119 7.5194 5.00299 7.6312C5.1148 7.74301 5.25334 7.79891 5.41862 7.79891ZM5.41862 5.46558C5.5839 5.46558 5.72244 5.40967 5.83424 5.29787C5.94605 5.18606 6.00195 5.04752 6.00195 4.88224C6.00195 4.71696 5.94605 4.57842 5.83424 4.46662C5.72244 4.35481 5.5839 4.29891 5.41862 4.29891C5.25334 4.29891 5.1148 4.35481 5.00299 4.46662C4.89119 4.57842 4.83529 4.71696 4.83529 4.88224C4.83529 5.04752 4.89119 5.18606 5.00299 5.29787C5.1148 5.40967 5.25334 5.46558 5.41862 5.46558ZM7.16862 10.1322H10.6686V8.96558H7.16862V10.1322ZM7.16862 7.79891H10.6686V6.63224H7.16862V7.79891ZM7.16862 5.46558H10.6686V4.29891H7.16862V5.46558ZM3.66862 12.4656C3.34779 12.4656 3.07313 12.3513 2.84466 12.1229C2.61619 11.8944 2.50195 11.6197 2.50195 11.2989V3.13224C2.50195 2.81141 2.61619 2.53676 2.84466 2.30828C3.07313 2.07981 3.34779 1.96558 3.66862 1.96558H11.8353C12.1561 1.96558 12.4308 2.07981 12.6592 2.30828C12.8877 2.53676 13.002 2.81141 13.002 3.13224V11.2989C13.002 11.6197 12.8877 11.8944 12.6592 12.1229C12.4308 12.3513 12.1561 12.4656 11.8353 12.4656H3.66862ZM3.66862 11.2989H11.8353V3.13224H3.66862V11.2989Z" fill="#4C4C61"/>
</g>
</g>
</svg>
