<svg width="17" height="17" viewBox="0 0 17 17" fill="none" xmlns="http://www.w3.org/2000/svg">
<g id="charm:menu-kebab">
<g id="Group">
<path id="Vector" d="M8.38086 4.15454C8.79507 4.15454 9.13086 3.81875 9.13086 3.40454C9.13086 2.99033 8.79507 2.65454 8.38086 2.65454C7.96665 2.65454 7.63086 2.99033 7.63086 3.40454C7.63086 3.81875 7.96665 4.15454 8.38086 4.15454Z" stroke="#030229" stroke-width="1.5" stroke-linecap="round" stroke-linejoin="round"/>
<path id="Vector_2" d="M8.38086 9.65527C8.79507 9.65527 9.13086 9.31949 9.13086 8.90527C9.13086 8.49106 8.79507 8.15527 8.38086 8.15527C7.96665 8.15527 7.63086 8.49106 7.63086 8.90527C7.63086 9.31949 7.96665 9.65527 8.38086 9.65527Z" stroke="#030229" stroke-width="1.5" stroke-linecap="round" stroke-linejoin="round"/>
<path id="Vector_3" d="M8.38086 15.1558C8.79507 15.1558 9.13086 14.82 9.13086 14.4058C9.13086 13.9915 8.79507 13.6558 8.38086 13.6558C7.96665 13.6558 7.63086 13.9915 7.63086 14.4058C7.63086 14.82 7.96665 15.1558 8.38086 15.1558Z" stroke="#030229" stroke-width="1.5" stroke-linecap="round" stroke-linejoin="round"/>
</g>
</g>
</svg>
