<svg width="12" height="12" viewBox="0 0 12 12" fill="none" xmlns="http://www.w3.org/2000/svg">
<path d="M5.1393 8.587L9.25145 4.47484L8.43485 3.65825L5.1393 6.9538L3.47693 5.29144L2.66034 6.10804L5.1393 8.587ZM5.95589 11.7367C5.14902 11.7367 4.39075 11.5836 3.68108 11.2774C2.97142 10.9712 2.35411 10.5556 1.82915 10.0306C1.3042 9.50568 0.888608 8.88837 0.582384 8.1787C0.276159 7.46904 0.123047 6.71077 0.123047 5.90389C0.123047 5.09702 0.276159 4.33875 0.582384 3.62908C0.888608 2.91942 1.3042 2.30211 1.82915 1.77715C2.35411 1.2522 2.97142 0.836606 3.68108 0.530382C4.39075 0.224157 5.14902 0.0710449 5.95589 0.0710449C6.76277 0.0710449 7.52104 0.224157 8.23071 0.530382C8.94037 0.836606 9.55768 1.2522 10.0826 1.77715C10.6076 2.30211 11.0232 2.91942 11.3294 3.62908C11.6356 4.33875 11.7887 5.09702 11.7887 5.90389C11.7887 6.71077 11.6356 7.46904 11.3294 8.1787C11.0232 8.88837 10.6076 9.50568 10.0826 10.0306C9.55768 10.5556 8.94037 10.9712 8.23071 11.2774C7.52104 11.5836 6.76277 11.7367 5.95589 11.7367ZM5.95589 10.5702C7.25856 10.5702 8.36194 10.1181 9.26604 9.21403C10.1701 8.30994 10.6222 7.20656 10.6222 5.90389C10.6222 4.60122 10.1701 3.49784 9.26604 2.59375C8.36194 1.68966 7.25856 1.23761 5.95589 1.23761C4.65323 1.23761 3.54984 1.68966 2.64575 2.59375C1.74166 3.49784 1.28962 4.60122 1.28962 5.90389C1.28962 7.20656 1.74166 8.30994 2.64575 9.21403C3.54984 10.1181 4.65323 10.5702 5.95589 10.5702Z" fill="#4C4C61"/>
</svg>
