<svg width="46" height="46" viewBox="0 0 46 46" fill="none" xmlns="http://www.w3.org/2000/svg">
<g id="approval-line-icons">
<path id="Vector" d="M23.3711 4.61523C13.0586 4.61523 4.62109 13.0527 4.62109 23.3652C4.62109 33.6777 13.0586 42.1152 23.3711 42.1152C33.6836 42.1152 42.1211 33.6777 42.1211 23.3652C42.1211 13.0527 33.6836 4.61523 23.3711 4.61523ZM23.3711 38.3652C15.1023 38.3652 8.37109 31.634 8.37109 23.3652C8.37109 15.0965 15.1023 8.36523 23.3711 8.36523C31.6398 8.36523 38.3711 15.0965 38.3711 23.3652C38.3711 31.634 31.6398 38.3652 23.3711 38.3652ZM31.9773 15.0777L19.6211 27.434L14.7648 22.5965L12.1211 25.2402L19.6211 32.7402L34.6211 17.7402L31.9773 15.0777Z" fill="#4BAE4F"/>
</g>
</svg>
