<svg width="9" height="9" viewBox="0 0 9 9" fill="none" xmlns="http://www.w3.org/2000/svg">
<path d="M2.82718 6.36393L4.24718 4.94393L5.66718 6.36393L6.2194 5.81171L4.7994 4.39171L6.2194 2.97171L5.66718 2.41949L4.24718 3.83949L2.82718 2.41949L2.27496 2.97171L3.69496 4.39171L2.27496 5.81171L2.82718 6.36393ZM4.24718 8.33615C3.70153 8.33615 3.18875 8.23261 2.70885 8.02553C2.22894 7.81845 1.81148 7.5374 1.45648 7.1824C1.10148 6.8274 0.820443 6.40995 0.613359 5.93004C0.406276 5.45014 0.302734 4.93736 0.302734 4.39171C0.302734 3.84606 0.406276 3.33328 0.613359 2.85338C0.820443 2.37347 1.10148 1.95602 1.45648 1.60102C1.81148 1.24602 2.22894 0.964974 2.70885 0.757891C3.18875 0.550807 3.70153 0.447266 4.24718 0.447266C4.79283 0.447266 5.3056 0.550807 5.78551 0.757891C6.26542 0.964974 6.68287 1.24602 7.03787 1.60102C7.39287 1.95602 7.67391 2.37347 7.881 2.85338C8.08808 3.33328 8.19162 3.84606 8.19162 4.39171C8.19162 4.93736 8.08808 5.45014 7.881 5.93004C7.67391 6.40995 7.39287 6.8274 7.03787 7.1824C6.68287 7.5374 6.26542 7.81845 5.78551 8.02553C5.3056 8.23261 4.79283 8.33615 4.24718 8.33615ZM4.24718 7.54727C5.1281 7.54727 5.87426 7.24157 6.48565 6.63018C7.09704 6.01879 7.40273 5.27264 7.40273 4.39171C7.40273 3.51078 7.09704 2.76463 6.48565 2.15324C5.87426 1.54185 5.1281 1.23615 4.24718 1.23615C3.36625 1.23615 2.6201 1.54185 2.00871 2.15324C1.39732 2.76463 1.09162 3.51078 1.09162 4.39171C1.09162 5.27264 1.39732 6.01879 2.00871 6.63018C2.6201 7.24157 3.36625 7.54727 4.24718 7.54727Z" fill="#1C1B1F"/>
</svg>
