<svg width="15" height="15" viewBox="0 0 15 15" fill="none" xmlns="http://www.w3.org/2000/svg">
<g id="Control point duplicate" clip-path="url(#clip0_109_2115)">
<path id="Vector" d="M9.51693 5.58366H8.35026V7.33366H6.60026V8.50033H8.35026V10.2503H9.51693V8.50033H11.2669V7.33366H9.51693V5.58366ZM1.35026 7.91699C1.35026 6.28949 2.30693 4.88366 3.68943 4.23033V2.97033C1.65359 3.69366 0.183594 5.63616 0.183594 7.91699C0.183594 10.1978 1.65359 12.1403 3.68943 12.8637V11.6037C2.30693 10.9503 1.35026 9.54449 1.35026 7.91699ZM8.93359 2.66699C6.04026 2.66699 3.68359 5.02366 3.68359 7.91699C3.68359 10.8103 6.04026 13.167 8.93359 13.167C11.8269 13.167 14.1836 10.8103 14.1836 7.91699C14.1836 5.02366 11.8269 2.66699 8.93359 2.66699ZM8.93359 12.0003C6.68193 12.0003 4.85026 10.1687 4.85026 7.91699C4.85026 5.66533 6.68193 3.83366 8.93359 3.83366C11.1853 3.83366 13.0169 5.66533 13.0169 7.91699C13.0169 10.1687 11.1853 12.0003 8.93359 12.0003Z" fill="#4C4C61"/>
</g>
<defs>
<clipPath id="clip0_109_2115">
<rect width="14" height="14" fill="white" transform="translate(0.183594 0.916504)"/>
</clipPath>
</defs>
</svg>
