<svg width="11" height="12" viewBox="0 0 11 12" fill="none" xmlns="http://www.w3.org/2000/svg">
<path d="M4.18526 9.4163C3.86445 9.4163 3.58982 9.30207 3.36137 9.07362C3.13291 8.84516 3.01869 8.57053 3.01869 8.24973V1.25031C3.01869 0.929503 3.13291 0.654873 3.36137 0.42642C3.58982 0.197967 3.86445 0.0837402 4.18526 0.0837402H9.43482C9.75562 0.0837402 10.0303 0.197967 10.2587 0.42642C10.4872 0.654873 10.6014 0.929503 10.6014 1.25031V8.24973C10.6014 8.57053 10.4872 8.84516 10.2587 9.07362C10.0303 9.30207 9.75562 9.4163 9.43482 9.4163H4.18526ZM4.18526 8.24973H9.43482V1.25031H4.18526V8.24973ZM1.85212 11.7494C1.53131 11.7494 1.25668 11.6352 1.02823 11.4068C0.799773 11.1783 0.685547 10.9037 0.685547 10.5829V2.41688H1.85212V10.5829H8.26825V11.7494H1.85212Z" fill="#4C4C61"/>
</svg>
