<svg width="11" height="10" viewBox="0 0 11 10" fill="none" xmlns="http://www.w3.org/2000/svg">
<mask id="mask0_490_3227" style="mask-type:alpha" maskUnits="userSpaceOnUse" x="0" y="0" width="11" height="10">
<rect x="0.855469" y="0.177734" width="9.46667" height="9.46667" fill="#D9D9D9"/>
</mask>
<g mask="url(#mask0_490_3227)">
<path d="M5.58915 6.4887L3.61693 4.51648L4.16915 3.94454L5.1947 4.97009V1.75537H5.98359V4.97009L7.00915 3.94454L7.56137 4.51648L5.58915 6.4887ZM3.22248 8.06648C3.00554 8.06648 2.81982 7.98924 2.66533 7.83475C2.51084 7.68026 2.43359 7.49454 2.43359 7.27759V6.09426H3.22248V7.27759H7.95582V6.09426H8.7447V7.27759C8.7447 7.49454 8.66746 7.68026 8.51297 7.83475C8.35848 7.98924 8.17276 8.06648 7.95582 8.06648H3.22248Z" fill="#030229"/>
</g>
</svg>
