<svg width="13" height="13" viewBox="0 0 13 13" fill="none" xmlns="http://www.w3.org/2000/svg">
<path d="M2.12565 12.8776C1.80482 12.8776 1.53017 12.7633 1.30169 12.5349C1.07322 12.3064 0.958984 12.0317 0.958984 11.7109V3.54425C0.958984 3.22341 1.07322 2.94876 1.30169 2.72029C1.53017 2.49182 1.80482 2.37758 2.12565 2.37758H7.3319L6.16524 3.54425H2.12565V11.7109H10.2923V7.65675L11.459 6.49008V11.7109C11.459 12.0317 11.3447 12.3064 11.1163 12.5349C10.8878 12.7633 10.6132 12.8776 10.2923 12.8776H2.12565ZM8.6444 2.713L9.47565 3.52966L5.62565 7.37966V8.21091H6.44232L10.3069 4.34633L11.1382 5.163L6.93815 9.37758H4.45898V6.89841L8.6444 2.713ZM11.1382 5.163L8.6444 2.713L10.1027 1.25466C10.3361 1.02133 10.6156 0.904663 10.9413 0.904663C11.267 0.904663 11.5416 1.02133 11.7652 1.25466L12.5819 2.08591C12.8055 2.30952 12.9173 2.58175 12.9173 2.90258C12.9173 3.22341 12.8055 3.49564 12.5819 3.71925L11.1382 5.163Z" fill="#4C4C61"/>
</svg>
