<svg width="15" height="15" viewBox="0 0 15 15" fill="none" xmlns="http://www.w3.org/2000/svg">
<g id="memory:calendar-import" clip-path="url(#clip0_109_2729)">
<path id="Vector" d="M12.1806 12.957H8.3627V11.6844H11.5443V6.5939H2.6359V11.6844H5.81746V12.957H1.99959V12.3207H1.36328V3.41235H1.99959V2.77604H3.27221V1.50342H4.54483V2.77604H9.63532V1.50342H10.9079V2.77604H12.1806V3.41235H12.8169V12.3207H12.1806M7.72639 14.2296H6.45377V10.4118H4.54483V9.77546H5.18115V9.13915H5.81746V8.50283H6.45377V7.86652H7.72639V8.50283H8.3627V9.13915H8.99901V9.77546H9.63532V10.4118H7.72639M11.5443 5.32128V4.04866H2.6359V5.32128H11.5443Z" fill="#4C4C61"/>
</g>
<defs>
<clipPath id="clip0_109_2729">
<rect width="13.9988" height="13.9988" fill="white" transform="translate(0.0898438 0.867188)"/>
</clipPath>
</defs>
</svg>
