<svg width="12" height="12" viewBox="0 0 12 12" fill="none" xmlns="http://www.w3.org/2000/svg">
<path d="M3.6237 8.82108C3.78898 8.82108 3.92752 8.76518 4.03932 8.65338C4.15113 8.54157 4.20703 8.40303 4.20703 8.23775C4.20703 8.07247 4.15113 7.93393 4.03932 7.82213C3.92752 7.71032 3.78898 7.65442 3.6237 7.65442C3.45842 7.65442 3.31988 7.71032 3.20807 7.82213C3.09627 7.93393 3.04036 8.07247 3.04036 8.23775C3.04036 8.40303 3.09627 8.54157 3.20807 8.65338C3.31988 8.76518 3.45842 8.82108 3.6237 8.82108ZM3.6237 6.48775C3.78898 6.48775 3.92752 6.43185 4.03932 6.32004C4.15113 6.20824 4.20703 6.0697 4.20703 5.90442C4.20703 5.73914 4.15113 5.6006 4.03932 5.48879C3.92752 5.37699 3.78898 5.32109 3.6237 5.32109C3.45842 5.32109 3.31988 5.37699 3.20807 5.48879C3.09627 5.6006 3.04036 5.73914 3.04036 5.90442C3.04036 6.0697 3.09627 6.20824 3.20807 6.32004C3.31988 6.43185 3.45842 6.48775 3.6237 6.48775ZM3.6237 4.15442C3.78898 4.15442 3.92752 4.09852 4.03932 3.98671C4.15113 3.87491 4.20703 3.73636 4.20703 3.57109C4.20703 3.40581 4.15113 3.26727 4.03932 3.15546C3.92752 3.04365 3.78898 2.98775 3.6237 2.98775C3.45842 2.98775 3.31988 3.04365 3.20807 3.15546C3.09627 3.26727 3.04036 3.40581 3.04036 3.57109C3.04036 3.73636 3.09627 3.87491 3.20807 3.98671C3.31988 4.09852 3.45842 4.15442 3.6237 4.15442ZM5.3737 8.82108H8.8737V7.65442H5.3737V8.82108ZM5.3737 6.48775H8.8737V5.32109H5.3737V6.48775ZM5.3737 4.15442H8.8737V2.98775H5.3737V4.15442ZM1.8737 11.1544C1.55286 11.1544 1.27821 11.0402 1.04974 10.8117C0.821267 10.5832 0.707031 10.3086 0.707031 9.98775V1.82109C0.707031 1.50025 0.821267 1.2256 1.04974 0.997127C1.27821 0.768655 1.55286 0.654419 1.8737 0.654419H10.0404C10.3612 0.654419 10.6359 0.768655 10.8643 0.997127C11.0928 1.2256 11.207 1.50025 11.207 1.82109V9.98775C11.207 10.3086 11.0928 10.5832 10.8643 10.8117C10.6359 11.0402 10.3612 11.1544 10.0404 11.1544H1.8737ZM1.8737 9.98775H10.0404V1.82109H1.8737V9.98775Z" fill="#4C4C61"/>
</svg>
