<svg width="30" height="24" viewBox="0 0 30 24" fill="none" xmlns="http://www.w3.org/2000/svg">
<path d="M3.37937 23.8709C2.56713 23.8709 1.87181 23.5817 1.2934 23.0033C0.714987 22.4249 0.425781 21.7295 0.425781 20.9173V3.19577C0.425781 2.38354 0.714987 1.68821 1.2934 1.1098C1.87181 0.531393 2.56713 0.242188 3.37937 0.242188H21.1009C21.9131 0.242188 22.6084 0.531393 23.1869 1.1098C23.7653 1.68821 24.0545 2.38354 24.0545 3.19577V9.84134L29.9616 3.93417V20.1789L24.0545 14.2717V20.9173C24.0545 21.7295 23.7653 22.4249 23.1869 23.0033C22.6084 23.5817 21.9131 23.8709 21.1009 23.8709H3.37937ZM3.37937 20.9173H21.1009V3.19577H3.37937V20.9173Z" fill="white"/>
</svg>
