<svg width="10" height="11" viewBox="0 0 10 11" fill="none" xmlns="http://www.w3.org/2000/svg">
<path d="M8.93229 6.24569H5.59896V9.57902C5.59896 9.94569 5.29896 10.2457 4.93229 10.2457C4.56562 10.2457 4.26562 9.94569 4.26562 9.57902V6.24569H0.932292C0.565625 6.24569 0.265625 5.94569 0.265625 5.57902C0.265625 5.21235 0.565625 4.91235 0.932292 4.91235H4.26562V1.57902C4.26562 1.21235 4.56562 0.912354 4.93229 0.912354C5.29896 0.912354 5.59896 1.21235 5.59896 1.57902V4.91235H8.93229C9.29896 4.91235 9.59896 5.21235 9.59896 5.57902C9.59896 5.94569 9.29896 6.24569 8.93229 6.24569Z" fill="#4C4C61"/>
</svg>
