<svg width="15" height="12" viewBox="0 0 15 12" fill="none" xmlns="http://www.w3.org/2000/svg">
<path d="M9.51644 3.74186H8.34977V5.49186H6.59977V6.65853H8.34977V8.40853H9.51644V6.65853H11.2664V5.49186H9.51644V3.74186ZM1.34977 6.0752C1.34977 4.4477 2.30644 3.04186 3.68894 2.38853V1.12853C1.65311 1.85186 0.183105 3.79436 0.183105 6.0752C0.183105 8.35603 1.65311 10.2985 3.68894 11.0219V9.76186C2.30644 9.10853 1.34977 7.70269 1.34977 6.0752ZM8.93311 0.825195C6.03977 0.825195 3.68311 3.18186 3.68311 6.0752C3.68311 8.96853 6.03977 11.3252 8.93311 11.3252C11.8264 11.3252 14.1831 8.96853 14.1831 6.0752C14.1831 3.18186 11.8264 0.825195 8.93311 0.825195ZM8.93311 10.1585C6.68144 10.1585 4.84977 8.32686 4.84977 6.0752C4.84977 3.82353 6.68144 1.99186 8.93311 1.99186C11.1848 1.99186 13.0164 3.82353 13.0164 6.0752C13.0164 8.32686 11.1848 10.1585 8.93311 10.1585Z" fill="#030229"/>
</svg>
