<svg width="27" height="28" viewBox="0 0 27 28" fill="none" xmlns="http://www.w3.org/2000/svg">
<path d="M9.14253 8.1617L12.208 5.08279V17.9205C12.208 18.2755 12.3491 18.616 12.6001 18.8671C12.8512 19.1181 13.1917 19.2591 13.5467 19.2591C13.9017 19.2591 14.2422 19.1181 14.4933 18.8671C14.7443 18.616 14.8854 18.2755 14.8854 17.9205V5.08279L17.9509 8.1617C18.0753 8.28717 18.2234 8.38676 18.3865 8.45472C18.5496 8.52268 18.7246 8.55767 18.9013 8.55767C19.078 8.55767 19.253 8.52268 19.4161 8.45472C19.5793 8.38676 19.7273 8.28717 19.8518 8.1617C19.9772 8.03725 20.0768 7.8892 20.1448 7.72607C20.2127 7.56294 20.2477 7.38797 20.2477 7.21125C20.2477 7.03454 20.2127 6.85957 20.1448 6.69644C20.0768 6.53331 19.9772 6.38525 19.8518 6.26081L14.4971 0.906193C14.3698 0.784321 14.2197 0.688788 14.0554 0.625075C13.7295 0.491186 13.3639 0.491186 13.038 0.625075C12.8737 0.688788 12.7236 0.784321 12.5963 0.906193L7.24164 6.26081C7.11682 6.38562 7.01782 6.5338 6.95027 6.69688C6.88272 6.85995 6.84795 7.03474 6.84795 7.21125C6.84795 7.38777 6.88272 7.56255 6.95027 7.72563C7.01782 7.88871 7.11682 8.03688 7.24164 8.1617C7.36645 8.28651 7.51463 8.38552 7.6777 8.45307C7.84078 8.52062 8.01557 8.55538 8.19208 8.55538C8.3686 8.55538 8.54338 8.52062 8.70646 8.45307C8.86954 8.38552 9.01771 8.28651 9.14253 8.1617ZM25.5946 13.9045C25.2396 13.9045 24.8991 14.0456 24.648 14.2966C24.397 14.5477 24.2559 14.8881 24.2559 15.2432V23.2751C24.2559 23.6301 24.1149 23.9706 23.8638 24.2217C23.6128 24.4727 23.2723 24.6138 22.9173 24.6138H4.17612C3.82109 24.6138 3.48059 24.4727 3.22955 24.2217C2.9785 23.9706 2.83746 23.6301 2.83746 23.2751V15.2432C2.83746 14.8881 2.69643 14.5477 2.44538 14.2966C2.19434 14.0456 1.85384 13.9045 1.49881 13.9045C1.14378 13.9045 0.803285 14.0456 0.552239 14.2966C0.301193 14.5477 0.160156 14.8881 0.160156 15.2432V23.2751C0.160156 24.3402 0.583265 25.3617 1.3364 26.1148C2.08954 26.868 3.11102 27.2911 4.17612 27.2911H22.9173C23.9824 27.2911 25.0039 26.868 25.757 26.1148C26.5101 25.3617 26.9332 24.3402 26.9332 23.2751V15.2432C26.9332 14.8881 26.7922 14.5477 26.5412 14.2966C26.2901 14.0456 25.9496 13.9045 25.5946 13.9045Z" fill="#0567A0"/>
</svg>
