<svg width="24" height="24" viewBox="0 0 24 24" fill="none" xmlns="http://www.w3.org/2000/svg">
<path fill-rule="evenodd" clip-rule="evenodd" d="M15.4089 14.0547C16.956 14.0547 18.4397 14.6693 19.5336 15.7632C20.6276 16.8572 21.2422 18.3409 21.2422 19.888V22.2214C21.2422 22.5308 21.1193 22.8275 20.9005 23.0463C20.6817 23.2651 20.3849 23.388 20.0755 23.388C19.7661 23.388 19.4694 23.2651 19.2506 23.0463C19.0318 22.8275 18.9089 22.5308 18.9089 22.2214V19.888C18.9089 18.9598 18.5401 18.0695 17.8837 17.4131C17.2274 16.7568 16.3371 16.388 15.4089 16.388H6.07552C5.14726 16.388 4.25702 16.7568 3.60065 17.4131C2.94427 18.0695 2.57552 18.9598 2.57552 19.888V22.2214C2.57552 22.5308 2.4526 22.8275 2.23381 23.0463C2.01502 23.2651 1.71827 23.388 1.40885 23.388C1.09943 23.388 0.802689 23.2651 0.583896 23.0463C0.365104 22.8275 0.242188 22.5308 0.242188 22.2214V19.888C0.242188 18.3409 0.856769 16.8572 1.95073 15.7632C3.04469 14.6693 4.52842 14.0547 6.07552 14.0547H15.4089ZM20.0755 7.05469C20.3849 7.05469 20.6817 7.1776 20.9005 7.3964C21.1193 7.61519 21.2422 7.91194 21.2422 8.22135V9.38802H22.4089C22.7183 9.38802 23.015 9.51094 23.2338 9.72973C23.4526 9.94852 23.5755 10.2453 23.5755 10.5547C23.5755 10.8641 23.4526 11.1609 23.2338 11.3796C23.015 11.5984 22.7183 11.7214 22.4089 11.7214H21.2422V12.888C21.2422 13.1974 21.1193 13.4942 20.9005 13.713C20.6817 13.9318 20.3849 14.0547 20.0755 14.0547C19.7661 14.0547 19.4694 13.9318 19.2506 13.713C19.0318 13.4942 18.9089 13.1974 18.9089 12.888V11.7214H17.7422C17.4328 11.7214 17.136 11.5984 16.9172 11.3796C16.6984 11.1609 16.5755 10.8641 16.5755 10.5547C16.5755 10.2453 16.6984 9.94852 16.9172 9.72973C17.136 9.51094 17.4328 9.38802 17.7422 9.38802H18.9089V8.22135C18.9089 7.91194 19.0318 7.61519 19.2506 7.3964C19.4694 7.1776 19.7661 7.05469 20.0755 7.05469ZM10.7422 0.0546875C12.2893 0.0546875 13.773 0.669269 14.867 1.76323C15.9609 2.85719 16.5755 4.34092 16.5755 5.88802C16.5755 7.43512 15.9609 8.91885 14.867 10.0128C13.773 11.1068 12.2893 11.7214 10.7422 11.7214C9.19509 11.7214 7.71136 11.1068 6.6174 10.0128C5.52344 8.91885 4.90885 7.43512 4.90885 5.88802C4.90885 4.34092 5.52344 2.85719 6.6174 1.76323C7.71136 0.669269 9.19509 0.0546875 10.7422 0.0546875ZM10.7422 2.38802C10.2826 2.38802 9.82744 2.47855 9.4028 2.65444C8.97816 2.83033 8.59232 3.08814 8.26731 3.41315C7.94231 3.73815 7.6845 4.12399 7.50861 4.54863C7.33272 4.97327 7.24219 5.42839 7.24219 5.88802C7.24219 6.34765 7.33272 6.80277 7.50861 7.22741C7.6845 7.65205 7.94231 8.03789 8.26731 8.3629C8.59232 8.6879 8.97816 8.94571 9.4028 9.1216C9.82744 9.29749 10.2826 9.38802 10.7422 9.38802C11.6704 9.38802 12.5607 9.01927 13.2171 8.3629C13.8734 7.70652 14.2422 6.81628 14.2422 5.88802C14.2422 4.95976 13.8734 4.06952 13.2171 3.41315C12.5607 2.75677 11.6704 2.38802 10.7422 2.38802Z" fill="#4C4C61"/>
</svg>
