<svg width="22" height="22" viewBox="0 0 22 22" fill="none" xmlns="http://www.w3.org/2000/svg">
<path d="M10.6264 13.2244H10.6731C11.6738 13.2511 12.4744 14.065 12.4744 15.0658C12.4744 15.9198 11.894 16.6336 11.1067 16.8471V17.5944C11.1067 17.8612 10.8933 18.0747 10.6264 18.0747C10.3595 18.0747 10.146 17.8612 10.146 17.5944V16.8471C9.754 16.7417 9.40762 16.5101 9.1604 16.1882C8.91319 15.8662 8.77891 15.4717 8.77832 15.0658C8.77832 14.7989 8.99182 14.5854 9.25868 14.5854C9.52555 14.5854 9.73905 14.7989 9.73905 15.0658C9.73905 15.5595 10.1327 15.9531 10.6197 15.9531C11.1067 15.9531 11.507 15.5528 11.507 15.0658C11.507 14.5788 11.1067 14.1785 10.6197 14.1785H10.573C10.0931 14.1654 9.6371 13.9658 9.30198 13.622C8.96687 13.2781 8.77901 12.8172 8.77832 12.3371C8.77832 11.4831 9.35876 10.7692 10.146 10.5557V9.80849C10.146 9.54162 10.3595 9.32812 10.6264 9.32812C10.8933 9.32812 11.1067 9.54162 11.1067 9.80849V10.5557C11.894 10.7692 12.4744 11.4831 12.4744 12.3371C12.4744 12.6039 12.261 12.8174 11.9941 12.8174C11.7272 12.8174 11.5137 12.6039 11.5137 12.3371C11.5137 11.85 11.1134 11.4497 10.6264 11.4497C10.1393 11.4497 9.73905 11.85 9.73905 12.3371C9.73905 12.8241 10.1393 13.2244 10.6264 13.2244Z" fill="#030229"/>
<path d="M7.08665 3.71988L8.94539 5.89486L8.74457 6.11903C4.91902 6.97701 2.06152 10.3936 2.06152 14.478C2.06152 18.0687 4.97573 20.9829 8.56644 20.9829H12.6829C16.2736 20.9829 19.1878 18.0694 19.1878 14.4787C19.1945 10.3936 16.337 6.97701 12.5114 6.11903C12.527 5.97804 12.5015 5.83557 12.438 5.70872L14.0192 3.89868L14.1213 3.74123C14.2405 3.48125 14.271 3.18932 14.2081 2.91032C14.1452 2.63132 13.9924 2.38072 13.7731 2.19704C13.5539 2.01337 13.2804 1.9068 12.9947 1.89373C12.709 1.88065 12.4269 1.96179 12.1918 2.12468L11.6294 1.45751C11.5033 1.31632 11.3488 1.2033 11.176 1.12582C11.0032 1.04834 10.8161 1.00813 10.6267 1.00781C10.4374 1.0075 10.2501 1.04709 10.0771 1.12399C9.90407 1.2009 9.7492 1.3134 9.62257 1.45417L9.03346 2.112C8.79898 1.94573 8.51625 1.86135 8.229 1.87192C7.94175 1.88248 7.66598 1.9874 7.44435 2.17045C7.22272 2.35349 7.06758 2.60447 7.00292 2.88455C6.93826 3.16463 6.96769 3.45821 7.08665 3.71988ZM9.62124 4.64391L8.48971 3.33626C8.75259 3.46293 9.05004 3.49889 9.33553 3.43854C9.62102 3.37818 9.87846 3.2249 10.0676 3.00267L10.6013 2.31015L11.1938 3.01201C11.3785 3.22683 11.6277 3.3762 11.9042 3.43788C12.1807 3.49956 12.4698 3.47023 12.7283 3.35427L11.6021 4.64391H9.62124ZM3.39586 14.478C3.39586 10.483 6.63298 7.24588 10.628 7.24588C14.623 7.24588 17.8601 10.483 17.8535 14.4767V14.478C17.8529 15.8492 17.308 17.164 16.3384 18.1336C15.3689 19.1031 14.054 19.6481 12.6829 19.6486H8.56644C7.19528 19.6481 5.88043 19.1031 4.91088 18.1336C3.94132 17.164 3.3964 15.8492 3.39586 14.478Z" fill="#030229"/>
</svg>
