<svg width="16" height="16" viewBox="0 0 16 16" fill="none" xmlns="http://www.w3.org/2000/svg">
<mask id="mask0_2117_13286" style="mask-type:alpha" maskUnits="userSpaceOnUse" x="0" y="0" width="16" height="16">
<rect x="0.874023" y="0.701172" width="15.0317" height="15.0317" fill="#D9D9D9"/>
</mask>
<g mask="url(#mask0_2117_13286)">
<path d="M4.00557 14.4805C3.66109 14.4805 3.3662 14.3579 3.12089 14.1125C2.87558 13.8672 2.75293 13.5723 2.75293 13.2279V4.45938C2.75293 4.11491 2.87558 3.82001 3.12089 3.57471C3.3662 3.3294 3.66109 3.20674 4.00557 3.20674H4.63189V1.9541H5.88453V3.20674H10.8951V1.9541H12.1477V3.20674H12.7741C13.1185 3.20674 13.4134 3.3294 13.6587 3.57471C13.904 3.82001 14.0267 4.11491 14.0267 4.45938V13.2279C14.0267 13.5723 13.904 13.8672 13.6587 14.1125C13.4134 14.3579 13.1185 14.4805 12.7741 14.4805H4.00557ZM4.00557 13.2279H12.7741V6.96467H4.00557V13.2279ZM4.00557 5.71202H12.7741V4.45938H4.00557V5.71202ZM8.38981 9.46995C8.21236 9.46995 8.06361 9.40993 7.94356 9.28988C7.82352 9.16984 7.76349 9.02108 7.76349 8.84363C7.76349 8.66617 7.82352 8.51742 7.94356 8.39737C8.06361 8.27733 8.21236 8.21731 8.38981 8.21731C8.56727 8.21731 8.71602 8.27733 8.83607 8.39737C8.95611 8.51742 9.01613 8.66617 9.01613 8.84363C9.01613 9.02108 8.95611 9.16984 8.83607 9.28988C8.71602 9.40993 8.56727 9.46995 8.38981 9.46995ZM5.88453 9.46995C5.70707 9.46995 5.55832 9.40993 5.43828 9.28988C5.31823 9.16984 5.25821 9.02108 5.25821 8.84363C5.25821 8.66617 5.31823 8.51742 5.43828 8.39737C5.55832 8.27733 5.70707 8.21731 5.88453 8.21731C6.06199 8.21731 6.21074 8.27733 6.33079 8.39737C6.45083 8.51742 6.51085 8.66617 6.51085 8.84363C6.51085 9.02108 6.45083 9.16984 6.33079 9.28988C6.21074 9.40993 6.06199 9.46995 5.88453 9.46995ZM10.8951 9.46995C10.7176 9.46995 10.5689 9.40993 10.4488 9.28988C10.3288 9.16984 10.2688 9.02108 10.2688 8.84363C10.2688 8.66617 10.3288 8.51742 10.4488 8.39737C10.5689 8.27733 10.7176 8.21731 10.8951 8.21731C11.0726 8.21731 11.2213 8.27733 11.3413 8.39737C11.4614 8.51742 11.5214 8.66617 11.5214 8.84363C11.5214 9.02108 11.4614 9.16984 11.3413 9.28988C11.2213 9.40993 11.0726 9.46995 10.8951 9.46995ZM8.38981 11.9752C8.21236 11.9752 8.06361 11.9152 7.94356 11.7952C7.82352 11.6751 7.76349 11.5264 7.76349 11.3489C7.76349 11.1715 7.82352 11.0227 7.94356 10.9027C8.06361 10.7826 8.21236 10.7226 8.38981 10.7226C8.56727 10.7226 8.71602 10.7826 8.83607 10.9027C8.95611 11.0227 9.01613 11.1715 9.01613 11.3489C9.01613 11.5264 8.95611 11.6751 8.83607 11.7952C8.71602 11.9152 8.56727 11.9752 8.38981 11.9752ZM5.88453 11.9752C5.70707 11.9752 5.55832 11.9152 5.43828 11.7952C5.31823 11.6751 5.25821 11.5264 5.25821 11.3489C5.25821 11.1715 5.31823 11.0227 5.43828 10.9027C5.55832 10.7826 5.70707 10.7226 5.88453 10.7226C6.06199 10.7226 6.21074 10.7826 6.33079 10.9027C6.45083 11.0227 6.51085 11.1715 6.51085 11.3489C6.51085 11.5264 6.45083 11.6751 6.33079 11.7952C6.21074 11.9152 6.06199 11.9752 5.88453 11.9752ZM10.8951 11.9752C10.7176 11.9752 10.5689 11.9152 10.4488 11.7952C10.3288 11.6751 10.2688 11.5264 10.2688 11.3489C10.2688 11.1715 10.3288 11.0227 10.4488 10.9027C10.5689 10.7826 10.7176 10.7226 10.8951 10.7226C11.0726 10.7226 11.2213 10.7826 11.3413 10.9027C11.4614 11.0227 11.5214 11.1715 11.5214 11.3489C11.5214 11.5264 11.4614 11.6751 11.3413 11.7952C11.2213 11.9152 11.0726 11.9752 10.8951 11.9752Z" fill="#4C4C61"/>
</g>
</svg>
