<svg width="54" height="54" viewBox="0 0 54 54" fill="none" xmlns="http://www.w3.org/2000/svg">
<path d="M27.0002 43.6781C36.2786 43.6781 43.8002 36.1565 43.8002 26.8781C43.8002 17.5997 36.2786 10.0781 27.0002 10.0781C17.7218 10.0781 10.2002 17.5997 10.2002 26.8781C10.2002 36.1565 17.7218 43.6781 27.0002 43.6781Z" fill="#0468C8"/>
<path d="M27.0005 50.3993C22.3486 50.3993 17.8013 49.0199 13.9335 46.4355C10.0656 43.8511 7.051 40.1778 5.27083 35.8801C3.49066 31.5824 3.02489 26.8533 3.93241 22.2908C4.83993 17.7284 7.07999 13.5376 10.3693 10.2482C13.6587 6.9589 17.8495 4.71884 22.4119 3.81132C26.9744 2.90379 31.7035 3.36957 36.0012 5.14974C40.2989 6.92991 43.9722 9.94452 46.5566 13.8124C49.141 17.6802 50.5204 22.2276 50.5204 26.8794C50.5133 33.1151 48.0331 39.0933 43.6237 43.5026C39.2144 47.912 33.2362 50.3922 27.0005 50.3993ZM27.0005 6.71938C23.0132 6.71938 19.1155 7.90174 15.8002 10.117C12.4849 12.3322 9.90093 15.4807 8.37506 19.1645C6.8492 22.8482 6.44997 26.9017 7.22784 30.8124C8.00572 34.723 9.92577 38.3152 12.7452 41.1346C15.5646 43.9541 19.1568 45.8741 23.0674 46.652C26.9781 47.4299 31.0316 47.0306 34.7154 45.5048C38.3991 43.9789 41.5477 41.3949 43.7629 38.0797C45.9781 34.7644 47.1604 30.8666 47.1604 26.8794C47.1542 21.5345 45.0282 16.4104 41.2488 12.631C37.4695 8.8516 32.3453 6.72561 27.0005 6.71938Z" fill="#0468C8"/>
</svg>
