<svg width="10" height="15" viewBox="0 0 10 15" fill="none" xmlns="http://www.w3.org/2000/svg">
<path d="M4.28139 14.5642V-0.00296992H5.2146V14.5642H4.28139ZM6.75667 4.80533C6.71115 4.34632 6.51578 3.98972 6.17057 3.73556C5.82536 3.48139 5.35686 3.35431 4.76507 3.35431C4.36295 3.35431 4.02343 3.41121 3.7465 3.52502C3.46958 3.63503 3.25714 3.78867 3.10919 3.98593C2.96504 4.1832 2.89296 4.40701 2.89296 4.65739C2.88537 4.86603 2.929 5.04812 3.02384 5.20366C3.12247 5.35919 3.25714 5.49386 3.42785 5.60767C3.59856 5.71768 3.79582 5.81441 4.01964 5.89787C4.24346 5.97754 4.48245 6.04582 4.73662 6.10272L5.78363 6.3531C6.29196 6.4669 6.75857 6.61864 7.18344 6.80832C7.60832 6.998 7.97629 7.2313 8.28736 7.50823C8.59843 7.78516 8.83932 8.1114 9.01003 8.48696C9.18453 8.86252 9.27368 9.29308 9.27748 9.77866C9.27368 10.4918 9.09159 11.1102 8.73121 11.6337C8.37461 12.1534 7.85869 12.5574 7.18344 12.8457C6.51199 13.1302 5.70207 13.2725 4.75369 13.2725C3.81289 13.2725 2.99349 13.1283 2.29548 12.84C1.60126 12.5517 1.05878 12.125 0.668051 11.5597C0.28111 10.9907 0.0781563 10.287 0.0591886 9.44862H2.44342C2.46998 9.83935 2.58189 10.1656 2.77915 10.4274C2.98021 10.6853 3.24765 10.8807 3.58148 11.0135C3.91911 11.1424 4.30036 11.2069 4.72523 11.2069C5.14252 11.2069 5.50481 11.1462 5.81208 11.0248C6.12315 10.9034 6.36404 10.7346 6.53475 10.5184C6.70546 10.3022 6.79081 10.0537 6.79081 9.77297C6.79081 9.51121 6.71305 9.29119 6.55751 9.11289C6.40577 8.9346 6.18195 8.78285 5.88606 8.65767C5.59395 8.53248 5.23547 8.41868 4.81059 8.31625L3.54165 7.99759C2.55913 7.7586 1.78335 7.38494 1.21432 6.8766C0.64529 6.36827 0.362671 5.68354 0.366465 4.8224C0.362671 4.11681 0.550451 3.50036 0.929805 2.97306C1.31295 2.44576 1.83836 2.03416 2.50602 1.73826C3.17368 1.44237 3.93239 1.29442 4.78214 1.29442C5.64706 1.29442 6.40198 1.44237 7.04688 1.73826C7.69557 2.03416 8.20011 2.44576 8.5605 2.97306C8.92088 3.50036 9.10677 4.11112 9.11815 4.80533H6.75667Z" fill="#4C4C61"/>
</svg>
