<svg width="37" height="37" viewBox="0 0 37 37" fill="none" xmlns="http://www.w3.org/2000/svg">
<mask id="mask0_1108_45130" style="mask-type:alpha" maskUnits="userSpaceOnUse" x="0" y="0" width="37" height="37">
<rect x="0.875" y="0.703125" width="35.493" height="35.493" fill="#D9D9D9"/>
</mask>
<g mask="url(#mask0_1108_45130)">
<path d="M6.37181 33.5961C5.55843 33.5961 4.86213 33.3064 4.2829 32.7272C3.70368 32.148 3.41406 31.4517 3.41406 30.6383V9.93409C3.41406 9.12071 3.70368 8.42441 4.2829 7.84518C4.86213 7.26595 5.55843 6.97634 6.37181 6.97634H19.5708L16.613 9.93409H6.37181V30.6383H27.076V20.3601L30.0338 17.4024V30.6383C30.0338 31.4517 29.7442 32.148 29.1649 32.7272C28.5857 33.3064 27.8894 33.5961 27.076 33.5961H6.37181ZM22.8982 7.82669L25.0056 9.89712L15.245 19.6577V21.7651H17.3155L27.113 11.9675L29.2204 14.038L18.5725 24.7228H12.2873V18.4376L22.8982 7.82669ZM29.2204 14.038L22.8982 7.82669L26.5954 4.12951C27.187 3.53796 27.8956 3.24219 28.7213 3.24219C29.547 3.24219 30.2433 3.53796 30.8102 4.12951L32.8806 6.23691C33.4475 6.80381 33.731 7.49395 33.731 8.30733C33.731 9.12071 33.4475 9.81085 32.8806 10.3778L29.2204 14.038Z" fill="#4C4C61"/>
</g>
</svg>
