<svg width="123" height="122" viewBox="0 0 123 122" fill="none" xmlns="http://www.w3.org/2000/svg">
<g clip-path="url(#clip0_795_40819)">
<path d="M62.1134 5.23047C29.9535 5.23047 3.88281 31.3012 3.88281 63.4611C3.88281 75.5448 7.56394 86.7681 13.8652 96.0724V85.0896C13.8652 83.2548 15.3578 81.7622 17.1927 81.7622H89.4462C91.2811 81.7622 92.7737 83.2548 92.7737 85.0896V106.261C92.7737 108.096 91.2811 109.589 89.4462 109.589H26.5759C36.409 117.176 48.733 121.692 62.1134 121.692C94.2734 121.692 120.344 95.621 120.344 63.4611C120.344 31.3012 94.2734 5.23047 62.1134 5.23047Z" fill="#D4F2F6"/>
<path d="M41.8739 41.0277C41.8739 39.1529 43.3991 37.6275 45.2739 37.6275H50.4222V25.9322C50.4222 24.9211 50.4828 23.9241 50.5971 22.943C50.0761 22.7103 49.5002 22.5781 48.8927 22.5781H12.5875C10.2739 22.5784 8.39844 24.4539 8.39844 26.7674V63.0724C8.39844 65.386 10.2739 67.2615 12.5875 67.2615H41.8739V41.0277Z" fill="#AF66DA"/>
<path d="M19.5692 63.0722V26.7672C19.5692 24.4536 21.4447 22.5781 23.7583 22.5781H12.5875C10.2739 22.5781 8.39844 24.4536 8.39844 26.7672V63.0722C8.39844 65.3857 10.2739 67.2612 12.5875 67.2612H23.7583C21.4447 67.2612 19.5692 65.3857 19.5692 63.0722Z" fill="#9857BD"/>
<path d="M27.7379 53.3344C27.0705 52.9841 26.6146 52.2855 26.6146 51.4796V48.7411C26.6146 46.6322 28.3304 44.9166 30.4391 44.9166C33.5612 44.9166 36.1012 42.3766 36.1012 39.2545V39.1052C36.1012 36.1502 33.6971 33.7461 30.7419 33.7461C30.4101 33.7461 30.0859 33.7779 29.7705 33.8359C32.2635 34.2944 34.1585 36.482 34.1585 39.1055V39.2547C34.1585 42.3768 31.6187 44.9169 28.4963 44.9169C26.3877 44.9169 24.6719 46.6324 24.6719 48.7413V51.4798C24.6719 52.6366 25.6095 53.5742 26.7663 53.5742C27.1173 53.5742 27.4475 53.487 27.7379 53.3344Z" fill="#814AA0"/>
<path d="M21.1928 39.7005V39.1072C21.1928 34.17 24.9595 30.0962 29.7698 29.6078C29.4503 29.5755 29.1264 29.5586 28.7984 29.5586C23.5334 29.5586 19.25 33.842 19.25 39.107V39.7002C19.25 40.857 20.1876 41.7946 21.3444 41.7946C21.6952 41.7946 22.0253 41.7074 22.3158 41.5548C21.6486 41.205 21.1928 40.5064 21.1928 39.7005Z" fill="#814AA0"/>
<path d="M26.6144 58.1825V57.9032C26.6144 57.0973 27.0703 56.3987 27.7377 56.0484C27.4472 55.8961 27.1171 55.8086 26.7663 55.8086C25.6095 55.8086 24.6719 56.7465 24.6719 57.903V58.1823C24.6719 59.339 25.6095 60.2767 26.7663 60.2767C27.1171 60.2767 27.4472 60.1894 27.7377 60.0368C27.0703 59.6872 26.6144 58.9885 26.6144 58.1825Z" fill="#814AA0"/>
<path d="M28.707 53.5758C27.55 53.5758 26.6126 52.6379 26.6126 51.4814V48.7429C26.6126 46.634 28.3283 44.9184 30.437 44.9184C33.5591 44.9184 36.0989 42.3784 36.0989 39.2563V39.107C36.0989 36.1517 33.6948 33.7476 30.7396 33.7476C27.7843 33.7476 25.3802 36.1517 25.3802 39.107V39.7002C25.3802 40.857 24.4426 41.7946 23.2858 41.7946C22.1288 41.7946 21.1914 40.8568 21.1914 39.7002V39.107C21.1914 33.842 25.4748 29.5586 30.7398 29.5586C36.0048 29.5586 40.2882 33.842 40.2882 39.107V39.2563C40.2882 44.5662 36.0656 48.9083 30.8018 49.1008V51.4814C30.8014 52.6379 29.864 53.5758 28.707 53.5758Z" fill="white"/>
<path d="M28.7077 60.2767C27.5507 60.2767 26.6133 59.3388 26.6133 58.1823V57.903C26.6133 56.7462 27.5509 55.8086 28.7077 55.8086C29.8645 55.8086 30.8021 56.7465 30.8021 57.903V58.1823C30.8021 59.3388 29.8647 60.2767 28.7077 60.2767Z" fill="white"/>
<path d="M90.3555 81.8906C91.7497 82.2873 92.7748 83.5693 92.7748 85.089V95.3091H106.963C108.972 95.3091 110.6 93.6805 110.6 91.6715V81.8909H90.3555V81.8906Z" fill="#FFE177"/>
<path d="M60.6977 37.6284V25.9331C60.6977 17.4309 67.6148 10.5138 76.1169 10.5138C84.619 10.5138 91.5361 17.4309 91.5361 25.9331V37.6284H102.05V25.9331C102.05 11.6335 90.4164 0 76.1169 0C61.8174 0 50.1836 11.6335 50.1836 25.9331V37.6284H60.6977Z" fill="#0681AF"/>
<path d="M91.5375 25.9349V37.6302H97.6291V25.9349C97.6291 17.4327 90.712 10.5156 82.2099 10.5156C81.1674 10.5156 80.1492 10.6209 79.1641 10.8191C86.2123 12.2371 91.5375 18.4752 91.5375 25.9349Z" fill="#017297"/>
<path d="M56.2752 37.6284V25.9331C56.2752 12.6639 66.2933 1.69225 79.1627 0.179683C78.1633 0.0622711 77.1475 0 76.1169 0C61.8174 0 50.1836 11.6335 50.1836 25.9331V37.6284H56.2752Z" fill="#017297"/>
<path d="M106.962 37.3906H45.2743C43.2653 37.3906 41.6367 39.0194 41.6367 41.0283V81.7605H89.4464C89.991 81.7605 90.5039 81.8945 90.9581 82.1274H110.6V41.0285C110.6 39.0194 108.971 37.3906 106.962 37.3906Z" fill="#FFC344"/>
<path d="M55.0638 81.7602V41.0283C55.0638 39.0192 56.6925 37.3906 58.7014 37.3906H45.2743C43.2653 37.3906 41.6367 39.0192 41.6367 41.0283V81.7602H55.0638Z" fill="#FEB137"/>
<path d="M75.033 79.2275C71.6899 79.2275 68.9702 76.5077 68.9702 73.1646V65.3386C66.0235 62.9595 64.4503 59.2748 64.8132 55.4244C65.3278 49.9664 69.8439 45.5656 75.318 45.1877C75.5833 45.1694 75.8518 45.1602 76.1166 45.1602C82.3779 45.1602 87.4716 50.2538 87.4716 56.5151C87.4716 59.985 85.9203 63.1945 83.2631 65.3389V73.1646C83.2631 76.5077 80.5433 79.2275 77.2002 79.2275H75.033Z" fill="#FFE177"/>
<path d="M83.8368 56.5142C83.8368 52.0708 80.0815 48.5045 75.5713 48.8158C71.8417 49.0735 68.7885 52.0428 68.4377 55.765C68.1487 58.8301 69.6551 61.5681 72.0259 63.0548C72.3836 63.2791 72.6106 63.6625 72.6106 64.0848V73.1636C72.6106 74.5029 73.6963 75.5888 75.0359 75.5888H77.2035C78.5428 75.5888 79.6287 74.5031 79.6287 73.1636V64.0915C79.6287 63.6658 79.8566 63.2789 80.2172 63.0524C82.3907 61.6874 83.8368 59.2705 83.8368 56.5142Z" fill="#3692BC"/>
<path d="M76.5786 73.1633V64.0846C76.5786 63.6622 76.3519 63.2789 75.9939 63.0545C73.6229 61.5678 72.1165 58.8298 72.4057 55.7647C72.7104 52.534 75.0516 49.8713 78.1033 49.0561C77.3028 48.8436 76.4519 48.7549 75.5714 48.8156C71.8417 49.0732 68.7886 52.0427 68.4377 55.7647C68.1487 58.8298 69.6549 61.5678 72.0259 63.0545C72.3836 63.2789 72.6106 63.6622 72.6106 64.0846V73.1633C72.6106 74.5026 73.6963 75.5886 75.0359 75.5886H77.2035C77.522 75.5886 77.825 75.5256 78.1036 75.4141C77.2104 75.0562 76.5786 74.1841 76.5786 73.1633Z" fill="#017297"/>
<path d="M89.4476 81.5234H17.194C15.2251 81.5234 13.6289 83.1197 13.6289 85.0886V95.7132C17.2354 101.124 21.723 105.896 26.8874 109.825H89.4476C91.4165 109.825 93.0127 108.229 93.0127 106.26V85.0886C93.0127 83.1197 91.4165 81.5234 89.4476 81.5234Z" fill="#FD6930"/>
<path d="M28.6025 81.5234H17.194C15.2251 81.5234 13.6289 83.1197 13.6289 85.0886V95.7132C17.2354 101.124 21.723 105.896 26.8874 109.825H28.6025C26.6336 109.825 25.0374 108.229 25.0374 106.26V85.0886C25.0374 83.1197 26.6336 81.5234 28.6025 81.5234Z" fill="#FD5426"/>
<path d="M27.3486 93.2051V89.9182C27.3486 89.5102 27.5209 89.1432 27.7957 88.8832C27.5402 88.6415 27.1962 88.4922 26.8167 88.4922C26.0293 88.4922 25.3906 89.1308 25.3906 89.9182V92.0747L27.3486 93.2051Z" fill="#D73D24"/>
<path d="M30.2031 93.2062L32.7543 91.7333C32.3073 91.3348 31.639 91.2464 31.0921 91.5621L30.2031 92.0754V93.2062Z" fill="#D73D24"/>
<path d="M30.2031 98.1445V99.2753L31.0921 99.7886C31.3168 99.9182 31.5622 99.98 31.804 99.98C32.1509 99.98 32.4894 99.8509 32.7526 99.6167L30.2031 98.1445Z" fill="#D73D24"/>
<path d="M22.5553 99.2674C22.1617 98.5852 22.3951 97.7132 23.0773 97.3194L25.9237 95.6758L23.0773 94.0323C22.3951 93.6385 22.1615 92.7662 22.5553 92.0843C22.6335 91.9488 22.7312 91.8319 22.8417 91.7333L22.5456 91.5624C21.863 91.1685 20.9912 91.4024 20.5976 92.0843C20.204 92.7664 20.4374 93.6385 21.1195 94.0323L23.9659 95.6758L21.1195 97.3194C20.4374 97.7132 20.2038 98.5855 20.5976 99.2674C20.8616 99.7249 21.341 99.9806 21.834 99.9806C22.0759 99.9806 22.3212 99.9191 22.5456 99.7893L22.8436 99.6172C22.7326 99.5186 22.6338 99.4031 22.5553 99.2674Z" fill="#D73D24"/>
<path d="M27.3484 101.431V98.1445L25.3906 99.2749V101.431C25.3906 102.219 26.0293 102.857 26.8167 102.857C27.1962 102.857 27.5402 102.708 27.7957 102.466C27.5209 102.207 27.3484 101.839 27.3484 101.431Z" fill="#D73D24"/>
<path d="M38.9147 99.2676C38.5211 98.5855 38.7545 97.7134 39.4366 97.3196L42.283 95.6761L39.4366 94.0325C38.7545 93.6387 38.5209 92.7664 38.9147 92.0846C38.9929 91.9491 39.0906 91.8321 39.2011 91.7335L38.9049 91.5624C38.2223 91.1685 37.3508 91.4024 36.957 92.0843C36.5634 92.7664 36.7968 93.6385 37.4789 94.0323L40.3253 95.6758L37.4789 97.3194C36.7968 97.7132 36.5631 98.5855 36.957 99.2674C37.221 99.7249 37.7004 99.9806 38.1933 99.9806C38.4353 99.9806 38.6806 99.9191 38.9049 99.7893L39.203 99.6172C39.092 99.5188 38.9931 99.4033 38.9147 99.2676Z" fill="#D73D24"/>
<path d="M46.5625 93.2062L49.1137 91.7333C48.6667 91.3348 47.9983 91.2464 47.4515 91.5621L46.5625 92.0754V93.2062Z" fill="#D73D24"/>
<path d="M43.708 93.2051V89.9182C43.708 89.5102 43.8803 89.1432 44.155 88.8832C43.8995 88.6415 43.5556 88.4922 43.1761 88.4922C42.3886 88.4922 41.75 89.1308 41.75 89.9182V92.0747L43.708 93.2051Z" fill="#D73D24"/>
<path d="M43.7077 101.431V98.1445L41.75 99.2749V101.431C41.75 102.219 42.3886 102.857 43.1761 102.857C43.5556 102.857 43.8995 102.708 44.155 102.466C43.8801 102.207 43.7077 101.839 43.7077 101.431Z" fill="#D73D24"/>
<path d="M46.5625 98.1445V99.2753L47.4515 99.7886C47.6762 99.9182 47.9215 99.98 48.1633 99.98C48.5102 99.98 48.8488 99.8509 49.112 99.6167L46.5625 98.1445Z" fill="#D73D24"/>
<path d="M62.9258 93.2062L65.477 91.7333C65.03 91.3348 64.3616 91.2463 63.8148 91.5623L62.9258 92.0756V93.2062Z" fill="#D73D24"/>
<path d="M60.0713 93.2051V89.9182C60.0713 89.5102 60.2436 89.1432 60.5183 88.8832C60.2628 88.6415 59.9189 88.4922 59.5393 88.4922C58.7519 88.4922 58.1133 89.1308 58.1133 89.9182V92.0747L60.0713 93.2051Z" fill="#D73D24"/>
<path d="M55.278 99.2676C54.8844 98.5855 55.1178 97.7134 55.7999 97.3196L58.6463 95.6761L55.7999 94.0325C55.1178 93.6387 54.8841 92.7664 55.278 92.0846C55.3562 91.9491 55.4539 91.8321 55.5644 91.7335L55.2682 91.5624C54.5856 91.1685 53.7141 91.4024 53.3202 92.0843C52.9266 92.7664 53.16 93.6385 53.8422 94.0323L56.6886 95.6758L53.8422 97.3194C53.16 97.7132 52.9264 98.5855 53.3202 99.2674C53.5843 99.7249 54.0637 99.9806 54.5566 99.9806C54.7986 99.9806 55.0439 99.9191 55.2682 99.7893L55.5663 99.6172C55.4553 99.5188 55.3564 99.4033 55.278 99.2676Z" fill="#D73D24"/>
<path d="M62.9258 98.1445V99.2753L63.8148 99.7886C64.0394 99.9182 64.2848 99.98 64.5266 99.98C64.8735 99.98 65.2121 99.8509 65.4753 99.6167L62.9258 98.1445Z" fill="#D73D24"/>
<path d="M60.0749 101.431V98.1445L58.1172 99.2749V101.431C58.1172 102.219 58.7558 102.857 59.5432 102.857C59.9228 102.857 60.2667 102.708 60.5222 102.466C60.2472 102.207 60.0749 101.839 60.0749 101.431Z" fill="#D73D24"/>
<path d="M79.2891 93.2062L81.8402 91.7333C81.3932 91.3348 80.7249 91.2463 80.178 91.5623L79.2891 92.0756V93.2062Z" fill="#D73D24"/>
<path d="M76.4345 93.2051V89.9182C76.4345 89.5102 76.6068 89.1432 76.8816 88.8832C76.6261 88.6415 76.2822 88.4922 75.9026 88.4922C75.1152 88.4922 74.4766 89.1308 74.4766 89.9182V92.0747L76.4345 93.2051Z" fill="#D73D24"/>
<path d="M79.2891 98.1445V99.2753L80.178 99.7886C80.4027 99.9182 80.6481 99.98 80.8899 99.98C81.2368 99.98 81.5754 99.8509 81.8386 99.6167L79.2891 98.1445Z" fill="#D73D24"/>
<path d="M76.4343 101.431V98.1445L74.4766 99.2749V101.431C74.4766 102.219 75.1152 102.857 75.9026 102.857C76.2822 102.857 76.6261 102.708 76.8816 102.466C76.6066 102.207 76.4343 101.839 76.4343 101.431Z" fill="#D73D24"/>
<path d="M71.6413 99.2676C71.2477 98.5855 71.4811 97.7134 72.1632 97.3196L75.0096 95.6761L72.1632 94.0325C71.4811 93.6387 71.2474 92.7664 71.6413 92.0846C71.7195 91.9491 71.8171 91.8321 71.9277 91.7335L71.6315 91.5624C70.9489 91.1685 70.0773 91.4024 69.6835 92.0843C69.2899 92.7664 69.5233 93.6385 70.2055 94.0323L73.0519 95.6758L70.2055 97.3194C69.5233 97.7132 69.2897 98.5855 69.6835 99.2674C69.9476 99.7249 70.427 99.9806 70.9199 99.9806C71.1619 99.9806 71.4071 99.9191 71.6315 99.7893L71.9293 99.6172C71.8186 99.5188 71.7197 99.4033 71.6413 99.2676Z" fill="#D73D24"/>
<path d="M34.9999 92.0835C34.6063 91.4016 33.7338 91.1675 33.0519 91.5615L30.2053 93.2051V89.9182C30.2053 89.1308 29.5666 88.4922 28.7792 88.4922C27.9918 88.4922 27.3532 89.1308 27.3532 89.9182V93.2051L24.5065 91.5615C23.8239 91.1677 22.9521 91.4016 22.5585 92.0835C22.1649 92.7656 22.3983 93.6376 23.0805 94.0315L25.9269 95.675L23.0805 97.3185C22.3983 97.7124 22.1647 98.5846 22.5585 99.2665C22.8226 99.724 23.302 99.9798 23.7949 99.9798C24.0369 99.9798 24.2821 99.9182 24.5065 99.7885L27.3532 98.1449V101.432C27.3532 102.219 27.9918 102.858 28.7792 102.858C29.5666 102.858 30.2053 102.219 30.2053 101.432V98.1449L33.0519 99.7885C33.2765 99.918 33.5218 99.9798 33.7635 99.9798C34.2565 99.9798 34.7358 99.724 34.9999 99.2665C35.3935 98.5844 35.1601 97.7124 34.478 97.3185L31.6316 95.675L34.478 94.0315C35.1601 93.6376 35.3935 92.7656 34.9999 92.0835Z" fill="white"/>
<path d="M51.3593 92.0835C50.9657 91.4016 50.0932 91.1675 49.4113 91.5615L46.5646 93.2051V89.9182C46.5646 89.1308 45.926 88.4922 45.1386 88.4922C44.3512 88.4922 43.7125 89.1308 43.7125 89.9182V93.2051L40.8659 91.5615C40.1833 91.1677 39.3117 91.4016 38.9179 92.0835C38.5243 92.7656 38.7577 93.6376 39.4398 94.0315L42.2862 95.675L39.4398 97.3185C38.7577 97.7124 38.5241 98.5846 38.9179 99.2665C39.182 99.724 39.6613 99.9798 40.1543 99.9798C40.3962 99.9798 40.6415 99.9182 40.8659 99.7885L43.7125 98.1449V101.432C43.7125 102.219 44.3512 102.858 45.1386 102.858C45.926 102.858 46.5646 102.219 46.5646 101.432V98.1449L49.4113 99.7885C49.6359 99.918 49.8812 99.9798 50.1229 99.9798C50.6158 99.9798 51.0952 99.724 51.3593 99.2665C51.7529 98.5844 51.5195 97.7124 50.8373 97.3185L47.9909 95.675L50.8373 94.0315C51.5195 93.6376 51.7529 92.7656 51.3593 92.0835Z" fill="white"/>
<path d="M67.7226 92.0835C67.329 91.4016 66.4567 91.1675 65.7746 91.5615L62.9279 93.2051V89.9182C62.9279 89.1308 62.2893 88.4922 61.5019 88.4922C60.7144 88.4922 60.0758 89.1308 60.0758 89.9182V93.2051L57.2292 91.5615C56.5466 91.1677 55.675 91.4016 55.2812 92.0835C54.8876 92.7656 55.121 93.6376 55.8031 94.0315L58.6495 95.675L55.8031 97.3185C55.121 97.7124 54.8873 98.5846 55.2812 99.2665C55.5452 99.724 56.0246 99.9798 56.5176 99.9798C56.7595 99.9798 57.0048 99.9182 57.2292 99.7885L60.0758 98.1449V101.432C60.0758 102.219 60.7144 102.858 61.5019 102.858C62.2893 102.858 62.9279 102.219 62.9279 101.432V98.1449L65.7746 99.7885C65.9992 99.918 66.2445 99.9798 66.4862 99.9798C66.9791 99.9798 67.4585 99.724 67.7226 99.2665C68.1162 98.5844 67.8828 97.7124 67.2006 97.3185L64.3542 95.675L67.2006 94.0315C67.8828 93.6376 68.1162 92.7656 67.7226 92.0835Z" fill="white"/>
<path d="M83.5639 97.3185L80.7175 95.675L83.5639 94.0315C84.246 93.6376 84.4797 92.7654 84.0858 92.0835C83.6923 91.4016 82.82 91.1675 82.1379 91.5615L79.2912 93.2051V89.9182C79.2912 89.1308 78.6526 88.4922 77.8652 88.4922C77.0777 88.4922 76.4391 89.1308 76.4391 89.9182V93.2051L73.5925 91.5615C72.9098 91.1677 72.0383 91.4016 71.6445 92.0835C71.2509 92.7656 71.4843 93.6376 72.1664 94.0315L75.0128 95.675L72.1664 97.3185C71.4843 97.7124 71.2506 98.5846 71.6445 99.2665C71.9085 99.724 72.3879 99.9798 72.8808 99.9798C73.1228 99.9798 73.3681 99.9182 73.5925 99.7885L76.4391 98.1449V101.432C76.4391 102.219 77.0777 102.858 77.8652 102.858C78.6526 102.858 79.2912 102.219 79.2912 101.432V98.1449L82.1379 99.7885C82.3625 99.918 82.6077 99.9798 82.8495 99.9798C83.3424 99.9798 83.8218 99.724 84.0858 99.2665C84.4797 98.5844 84.246 97.7124 83.5639 97.3185Z" fill="white"/>
</g>
<defs>
<clipPath id="clip0_795_40819">
<rect width="121.69" height="121.69" fill="white" transform="translate(0.816406)"/>
</clipPath>
</defs>
</svg>
