<svg width="812" height="956" viewBox="0 0 812 956" fill="none" xmlns="http://www.w3.org/2000/svg">
<g clip-path="url(#clip0_795_40935)">
<g opacity="0.17">
<path opacity="0.0385" d="M701.108 621.13C748.857 621.061 787.542 606.051 787.513 587.604C787.484 569.158 748.753 554.259 701.004 554.328C653.255 554.397 614.57 569.407 614.599 587.854C614.628 606.301 653.359 621.199 701.108 621.13Z" fill="#4A0101"/>
<path opacity="0.0769" d="M701.105 620.25C747.591 620.183 785.254 605.569 785.226 587.61C785.198 569.652 747.49 555.147 701.003 555.214C654.517 555.282 616.855 569.895 616.883 587.854C616.911 605.813 654.618 620.317 701.105 620.25Z" fill="#480202"/>
<path opacity="0.1154" d="M701.105 619.365C746.329 619.3 782.968 605.084 782.941 587.613C782.914 570.142 746.231 556.031 701.006 556.097C655.782 556.162 619.143 570.378 619.17 587.849C619.198 605.32 655.881 619.431 701.105 619.365Z" fill="#460303"/>
<path opacity="0.1538" d="M701.101 618.481C745.063 618.418 780.679 604.599 780.653 587.615C780.626 570.632 744.967 556.915 701.006 556.979C657.044 557.042 621.428 570.862 621.454 587.845C621.481 604.828 657.14 618.545 701.101 618.481Z" fill="#440404"/>
<path opacity="0.1923" d="M701.102 617.598C743.801 617.536 778.395 604.114 778.369 587.618C778.343 571.122 743.708 557.799 701.009 557.861C658.31 557.923 623.716 571.345 623.742 587.841C623.768 604.337 658.403 617.659 701.102 617.598Z" fill="#420505"/>
<path opacity="0.2308" d="M701.098 616.718C742.535 616.658 776.106 603.632 776.081 587.624C776.056 571.616 742.445 558.687 701.008 558.747C659.571 558.807 626.001 571.833 626.026 587.841C626.051 603.849 659.662 616.777 701.098 616.718Z" fill="#400606"/>
<path opacity="0.2692" d="M701.099 615.833C741.273 615.775 773.821 603.147 773.796 587.626C773.772 572.106 741.185 559.571 701.011 559.629C660.837 559.687 628.289 572.316 628.313 587.836C628.338 603.357 660.925 615.891 701.099 615.833Z" fill="#3E0606"/>
<path opacity="0.3077" d="M701.095 614.949C740.007 614.893 771.532 602.661 771.509 587.629C771.485 572.596 739.922 560.455 701.011 560.512C662.099 560.568 630.574 572.8 630.597 587.832C630.621 602.865 662.184 615.005 701.095 614.949Z" fill="#3C0707"/>
<path opacity="0.3462" d="M701.096 614.065C738.745 614.011 769.247 602.176 769.224 587.631C769.202 573.086 738.663 561.339 701.014 561.394C663.364 561.448 632.862 573.283 632.885 587.828C632.907 602.373 663.447 614.119 701.096 614.065Z" fill="#3A0808"/>
<path opacity="0.3846" d="M701.092 613.185C737.479 613.133 766.958 601.695 766.936 587.638C766.914 573.58 737.399 562.227 701.013 562.28C664.626 562.332 635.147 573.771 635.169 587.828C635.19 601.885 664.705 613.238 701.092 613.185Z" fill="#380909"/>
<path opacity="0.4231" d="M701.092 612.301C736.216 612.251 764.673 601.209 764.652 587.64C764.631 574.07 736.14 563.111 701.016 563.162C665.892 563.213 637.435 574.254 637.456 587.824C637.477 601.393 665.968 612.352 701.092 612.301Z" fill="#360A0A"/>
<path opacity="0.4615" d="M701.089 611.417C734.951 611.368 762.385 600.724 762.364 587.642C762.344 574.561 734.877 563.995 701.015 564.044C667.153 564.093 639.72 574.738 639.74 587.819C639.76 600.901 667.227 611.466 701.089 611.417Z" fill="#340B0B"/>
<path opacity="0.5" d="M701.089 610.533C733.688 610.486 760.099 600.238 760.08 587.645C760.06 575.051 733.617 564.879 701.018 564.926C668.419 564.974 642.008 575.221 642.028 587.815C642.047 600.409 668.49 610.58 701.089 610.533Z" fill="#330C0C"/>
<path opacity="0.5385" d="M701.086 609.653C732.422 609.607 757.81 599.757 757.791 587.651C757.773 575.545 732.354 565.767 701.017 565.813C669.681 565.858 644.293 575.708 644.312 587.815C644.33 599.921 669.749 609.698 701.086 609.653Z" fill="#310D0D"/>
<path opacity="0.5769" d="M701.086 608.769C731.161 608.726 755.526 599.272 755.508 587.653C755.49 576.035 731.095 566.651 701.021 566.695C670.946 566.738 646.581 576.192 646.599 587.811C646.617 599.429 671.012 608.813 701.086 608.769Z" fill="#2F0E0E"/>
<path opacity="0.6154" d="M701.083 607.885C729.894 607.843 753.237 598.786 753.219 587.656C753.202 576.525 729.831 567.535 701.02 567.577C672.208 567.619 648.866 576.676 648.883 587.806C648.9 598.937 672.271 607.927 701.083 607.885Z" fill="#2D0F0F"/>
<path opacity="0.6538" d="M701.083 607.005C728.632 606.965 750.952 598.305 750.935 587.662C750.918 577.019 728.572 568.423 701.023 568.463C673.474 568.503 651.154 577.163 651.171 587.806C651.187 598.449 673.534 607.045 701.083 607.005Z" fill="#2B1010"/>
<path opacity="0.6923" d="M701.08 606.121C727.366 606.083 748.663 597.819 748.647 587.664C748.632 577.509 727.309 569.307 701.022 569.345C674.735 569.383 653.439 577.646 653.454 587.802C653.47 597.957 674.793 606.159 701.08 606.121Z" fill="#291111"/>
<path opacity="0.7308" d="M701.08 605.237C726.104 605.201 746.378 597.335 746.363 587.667C746.348 577.999 726.05 570.191 701.025 570.228C676.001 570.264 655.727 578.13 655.742 587.798C655.757 597.465 676.056 605.273 701.08 605.237Z" fill="#271212"/>
<path opacity="0.7692" d="M701.076 604.353C724.838 604.319 744.089 596.849 744.075 587.669C744.06 578.489 724.786 571.075 701.024 571.11C677.263 571.144 658.012 578.614 658.026 587.793C658.04 596.973 677.315 604.387 701.076 604.353Z" fill="#251212"/>
<path opacity="0.8077" d="M701.076 603.473C723.576 603.44 741.804 596.368 741.79 587.675C741.777 578.983 723.527 571.963 701.027 571.996C678.528 572.028 660.3 579.101 660.314 587.793C660.327 596.485 678.577 603.505 701.076 603.473Z" fill="#231313"/>
<path opacity="0.8462" d="M701.073 602.588C722.31 602.558 739.515 595.882 739.503 587.678C739.49 579.473 722.264 572.847 701.027 572.878C679.79 572.909 662.585 579.584 662.597 587.789C662.61 595.993 679.836 602.619 701.073 602.588Z" fill="#211414"/>
<path opacity="0.8846" d="M701.073 601.708C721.048 601.679 737.23 595.401 737.218 587.684C737.206 579.967 721.004 573.735 701.03 573.764C681.056 573.793 664.873 580.072 664.885 587.788C664.897 595.505 681.099 601.737 701.073 601.708Z" fill="#1F1515"/>
<path opacity="0.9231" d="M701.07 600.825C719.782 600.798 734.941 594.916 734.93 587.687C734.919 580.458 719.741 574.619 701.029 574.646C682.317 574.673 667.158 580.556 667.169 587.784C667.18 595.013 682.358 600.852 701.07 600.825Z" fill="#1D1616"/>
<path opacity="0.9615" d="M701.067 599.941C718.516 599.915 732.653 594.43 732.642 587.689C732.632 580.948 718.478 575.503 701.029 575.529C683.579 575.554 669.442 581.039 669.453 587.78C669.463 594.521 683.617 599.966 701.067 599.941Z" fill="#1B1717"/>
<path d="M701.067 599.06C717.254 599.037 730.368 593.949 730.358 587.695C730.348 581.442 717.218 576.391 701.031 576.415C684.845 576.438 671.731 581.526 671.74 587.78C671.75 594.033 684.88 599.084 701.067 599.06Z" fill="#191818"/>
</g>
<g opacity="0.17">
<path opacity="0.0385" d="M90.6745 665.423C138.423 665.354 177.108 650.344 177.08 631.897C177.051 613.451 138.319 598.552 90.5704 598.621C42.8215 598.69 4.13659 613.7 4.16533 632.147C4.19408 650.594 42.9256 665.492 90.6745 665.423Z" fill="#4A0101"/>
<path opacity="0.0769" d="M90.6751 664.543C137.162 664.475 174.824 649.862 174.796 631.903C174.768 613.944 137.06 599.44 90.5738 599.507C44.0872 599.574 6.42503 614.188 6.45302 632.147C6.48101 650.105 44.1885 664.61 90.6751 664.543Z" fill="#480202"/>
<path opacity="0.1154" d="M90.6715 663.658C135.896 663.593 172.535 649.377 172.508 631.906C172.48 614.435 135.797 600.324 90.5729 600.39C45.3488 600.455 8.70957 614.671 8.7368 632.142C8.76403 649.613 45.4474 663.724 90.6715 663.658Z" fill="#460303"/>
<path opacity="0.1538" d="M90.6718 662.774C134.633 662.711 170.25 648.892 170.223 631.908C170.197 614.925 134.537 601.208 90.5759 601.272C46.6144 601.335 10.998 615.155 11.0245 632.138C11.051 649.121 46.7103 662.838 90.6718 662.774Z" fill="#440404"/>
<path opacity="0.1923" d="M90.6724 661.89C133.372 661.828 167.965 648.406 167.939 631.91C167.914 615.415 133.278 602.092 90.5793 602.154C47.8801 602.216 13.2865 615.638 13.3122 632.134C13.3379 648.629 47.9732 661.952 90.6724 661.89Z" fill="#420505"/>
<path opacity="0.2308" d="M90.6688 661.011C132.105 660.951 165.676 647.925 165.651 631.917C165.626 615.909 132.015 602.98 90.5784 603.04C49.1418 603.1 15.571 616.126 15.596 632.134C15.6209 648.142 49.2321 661.07 90.6688 661.011Z" fill="#400606"/>
<path opacity="0.2692" d="M90.669 660.126C130.843 660.068 163.391 647.44 163.367 631.919C163.343 616.399 130.755 603.864 90.5814 603.922C50.4074 603.98 17.8595 616.609 17.8836 632.129C17.9078 647.65 50.495 660.184 90.669 660.126Z" fill="#3E0606"/>
<path opacity="0.3077" d="M90.6657 659.242C129.577 659.186 161.103 646.954 161.079 631.922C161.056 616.889 129.493 604.748 90.5809 604.805C51.6692 604.861 20.144 617.093 20.1674 632.125C20.1908 647.158 51.754 659.298 90.6657 659.242Z" fill="#3C0707"/>
<path opacity="0.3462" d="M90.666 658.358C128.315 658.304 158.817 646.469 158.795 631.924C158.772 617.379 128.233 605.632 90.5839 605.687C52.9347 605.741 22.4324 617.576 22.4551 632.121C22.4778 646.666 53.0168 658.412 90.666 658.358Z" fill="#3A0808"/>
<path opacity="0.3846" d="M90.6623 657.475C127.049 657.422 156.528 645.984 156.506 631.927C156.485 617.869 126.97 606.516 90.583 606.569C54.1964 606.621 24.717 618.06 24.7389 632.117C24.7608 646.174 54.2757 657.527 90.6623 657.475Z" fill="#380909"/>
<path opacity="0.4231" d="M90.6626 656.594C125.787 656.544 154.243 645.502 154.222 631.933C154.201 618.363 125.71 607.404 90.586 607.455C55.462 607.506 27.0054 618.547 27.0266 632.116C27.0477 645.686 55.5385 656.645 90.6626 656.594Z" fill="#360A0A"/>
<path opacity="0.4615" d="M90.6593 655.71C124.521 655.661 151.955 645.017 151.934 631.935C151.914 618.854 124.447 608.288 90.5855 608.337C56.7238 608.386 29.29 619.031 29.3104 632.112C29.3307 645.194 56.7976 655.759 90.6593 655.71Z" fill="#340B0B"/>
<path opacity="0.5" d="M90.6596 654.826C123.259 654.779 149.67 644.531 149.65 631.937C149.63 619.344 123.188 609.172 90.5885 609.219C57.9893 609.267 31.5784 619.514 31.598 632.108C31.6177 644.702 58.0604 654.873 90.6596 654.826Z" fill="#330C0C"/>
<path opacity="0.5385" d="M90.6559 653.942C121.993 653.896 147.381 644.046 147.362 631.94C147.343 619.834 121.924 610.056 90.5876 610.102C59.251 610.147 33.863 619.998 33.8818 632.104C33.9007 644.21 59.3193 653.987 90.6559 653.942Z" fill="#310D0D"/>
<path opacity="0.5769" d="M90.6566 653.062C120.731 653.019 145.096 643.565 145.078 631.946C145.06 620.328 120.665 610.944 90.591 610.988C60.5167 611.031 36.1514 620.485 36.1695 632.104C36.1876 643.722 60.5823 653.106 90.6566 653.062Z" fill="#2F0E0E"/>
<path opacity="0.6154" d="M90.6529 652.178C119.465 652.136 142.807 643.079 142.79 631.949C142.772 620.818 119.402 611.828 90.5901 611.87C61.7784 611.912 38.4359 620.969 38.4533 632.099C38.4706 643.23 61.8412 652.22 90.6529 652.178Z" fill="#2D0F0F"/>
<path opacity="0.6538" d="M90.6532 651.294C118.202 651.254 140.522 642.594 140.505 631.951C140.489 621.308 118.142 612.712 90.5931 612.752C63.0439 612.792 40.7244 621.452 40.741 632.095C40.7576 642.738 63.104 651.334 90.6532 651.294Z" fill="#2B1010"/>
<path opacity="0.6923" d="M90.6499 650.41C116.937 650.372 138.234 642.109 138.218 631.953C138.202 621.798 116.879 613.596 90.5926 613.634C64.3058 613.672 43.0089 621.936 43.0247 632.091C43.0406 642.246 64.3631 650.448 90.6499 650.41Z" fill="#291111"/>
<path opacity="0.7308" d="M90.6501 649.53C115.674 649.494 135.948 641.628 135.933 631.96C135.918 622.292 115.62 614.484 90.5956 614.521C65.5713 614.557 45.2974 622.423 45.3124 632.091C45.3275 641.758 65.6259 649.566 90.6501 649.53Z" fill="#271212"/>
<path opacity="0.7692" d="M90.6465 648.646C114.408 648.612 133.659 641.142 133.645 631.962C133.631 622.782 114.356 615.368 90.5947 615.403C66.833 615.437 47.5819 622.907 47.5962 632.086C47.6105 641.266 66.8848 648.68 90.6465 648.646Z" fill="#251212"/>
<path opacity="0.8077" d="M90.6468 647.762C113.146 647.729 131.374 640.657 131.361 631.965C131.347 623.272 113.097 616.252 90.5977 616.285C68.0985 616.317 49.8704 623.39 49.8839 632.082C49.8974 640.774 68.1476 647.794 90.6468 647.762Z" fill="#231313"/>
<path opacity="0.8462" d="M90.6435 646.878C111.88 646.847 129.086 640.171 129.073 631.967C129.06 623.763 111.834 617.136 90.5972 617.167C69.3604 617.198 52.1549 623.874 52.1677 632.078C52.1805 640.282 69.4067 646.908 90.6435 646.878Z" fill="#211414"/>
<path opacity="0.8846" d="M90.6398 645.997C110.614 645.968 126.797 639.69 126.785 631.973C126.773 624.257 110.571 618.024 90.5963 618.053C70.622 618.082 54.4394 624.361 54.4515 632.078C54.4635 639.794 70.6656 646.026 90.6398 645.997Z" fill="#1F1515"/>
<path opacity="0.9231" d="M90.6401 645.114C109.352 645.087 124.512 639.205 124.5 631.976C124.489 624.747 109.311 618.908 90.5993 618.935C71.8876 618.962 56.7279 624.845 56.7391 632.074C56.7504 639.303 71.9284 645.141 90.6401 645.114Z" fill="#1D1616"/>
<path opacity="0.9615" d="M90.6368 644.23C108.086 644.204 122.223 638.719 122.213 631.978C122.202 625.237 108.048 619.792 90.5988 619.818C73.1494 619.843 59.0124 625.328 59.0229 632.069C59.0334 638.81 73.1874 644.255 90.6368 644.23Z" fill="#1B1717"/>
<path d="M90.6371 643.349C106.824 643.326 119.938 638.238 119.928 631.984C119.918 625.731 106.789 620.68 90.6018 620.704C74.415 620.727 61.3009 625.815 61.3106 632.069C61.3204 638.322 74.4503 643.373 90.6371 643.349Z" fill="#191818"/>
</g>
<g opacity="0.17">
<path opacity="0.0385" d="M201.585 735.673C249.334 735.604 288.019 720.594 287.99 702.147C287.961 683.701 249.23 668.802 201.481 668.871C153.732 668.94 115.047 683.95 115.075 702.397C115.104 720.844 153.836 735.742 201.585 735.673Z" fill="#4A0101"/>
<path opacity="0.0769" d="M201.585 734.793C248.072 734.725 285.734 720.112 285.706 702.153C285.678 684.194 247.971 669.69 201.484 669.757C154.997 669.824 117.335 684.438 117.363 702.397C117.391 720.355 155.099 734.86 201.585 734.793Z" fill="#480202"/>
<path opacity="0.1154" d="M201.582 733.908C246.806 733.843 283.445 719.627 283.418 702.156C283.391 684.685 246.707 670.574 201.483 670.64C156.259 670.705 119.62 684.921 119.647 702.392C119.674 719.863 156.358 733.974 201.582 733.908Z" fill="#460303"/>
<path opacity="0.1538" d="M201.582 733.024C245.543 732.961 281.16 719.142 281.133 702.158C281.107 685.175 245.448 671.458 201.486 671.522C157.525 671.585 121.908 685.405 121.935 702.388C121.961 719.371 157.62 733.088 201.582 733.024Z" fill="#440404"/>
<path opacity="0.1923" d="M201.579 732.141C244.278 732.079 278.871 718.657 278.846 702.161C278.82 685.665 244.185 672.342 201.486 672.404C158.786 672.466 124.193 685.888 124.218 702.384C124.244 718.88 158.879 732.202 201.579 732.141Z" fill="#420505"/>
<path opacity="0.2308" d="M201.579 731.257C243.015 731.197 276.586 718.171 276.561 702.163C276.536 686.155 242.925 673.226 201.489 673.286C160.052 673.346 126.481 686.372 126.506 702.38C126.531 718.388 160.142 731.316 201.579 731.257Z" fill="#400606"/>
<path opacity="0.2692" d="M201.579 730.376C241.753 730.318 274.301 717.69 274.277 702.169C274.253 686.649 241.666 674.114 201.492 674.172C161.318 674.23 128.77 686.859 128.794 702.379C128.818 717.9 161.405 730.434 201.579 730.376Z" fill="#3E0606"/>
<path opacity="0.3077" d="M201.576 729.492C240.488 729.436 272.013 717.204 271.989 702.172C271.966 687.139 240.403 674.998 201.491 675.055C162.579 675.111 131.054 687.343 131.078 702.375C131.101 717.408 162.664 729.548 201.576 729.492Z" fill="#3C0707"/>
<path opacity="0.3462" d="M201.576 728.608C239.225 728.554 269.728 716.719 269.705 702.174C269.682 687.629 239.143 675.882 201.494 675.937C163.845 675.991 133.343 687.826 133.365 702.371C133.388 716.916 163.927 728.662 201.576 728.608Z" fill="#3A0808"/>
<path opacity="0.3846" d="M201.572 727.724C237.959 727.672 267.439 716.234 267.417 702.177C267.395 688.119 237.88 676.766 201.493 676.819C165.107 676.871 135.627 688.31 135.649 702.367C135.671 716.424 165.186 727.777 201.572 727.724Z" fill="#380909"/>
<path opacity="0.4231" d="M201.573 726.844C236.697 726.794 265.153 715.752 265.132 702.183C265.111 688.613 236.62 677.654 201.496 677.705C166.372 677.756 137.916 688.797 137.937 702.366C137.958 715.936 166.449 726.895 201.573 726.844Z" fill="#360A0A"/>
<path opacity="0.4615" d="M201.569 725.96C235.431 725.911 262.865 715.267 262.845 702.185C262.824 689.103 235.357 678.538 201.496 678.587C167.634 678.636 140.2 689.281 140.221 702.362C140.241 715.444 167.708 726.009 201.569 725.96Z" fill="#340B0B"/>
<path opacity="0.5" d="M201.57 725.076C234.169 725.029 260.58 714.781 260.56 702.187C260.541 689.594 234.098 679.422 201.499 679.469C168.9 679.517 142.489 689.764 142.508 702.358C142.528 714.952 168.971 725.123 201.57 725.076Z" fill="#330C0C"/>
<path opacity="0.5385" d="M201.566 724.196C232.903 724.15 258.291 714.3 258.272 702.194C258.253 690.088 232.834 680.31 201.498 680.356C170.161 680.401 144.773 690.251 144.792 702.358C144.811 714.464 170.229 724.241 201.566 724.196Z" fill="#310D0D"/>
<path opacity="0.5769" d="M201.563 723.312C231.637 723.269 256.002 713.815 255.984 702.196C255.966 690.578 231.571 681.194 201.497 681.238C171.423 681.281 147.058 690.735 147.076 702.354C147.094 713.972 171.489 723.356 201.563 723.312Z" fill="#2F0E0E"/>
<path opacity="0.6154" d="M201.563 722.428C230.375 722.386 253.717 713.329 253.7 702.199C253.683 691.068 230.312 682.078 201.5 682.12C172.689 682.162 149.346 691.219 149.363 702.349C149.381 713.48 172.751 722.47 201.563 722.428Z" fill="#2D0F0F"/>
<path opacity="0.6538" d="M201.559 721.544C229.109 721.504 251.428 712.844 251.412 702.201C251.395 691.558 229.049 682.962 201.499 683.002C173.95 683.042 151.631 691.702 151.647 702.345C151.664 712.988 174.01 721.584 201.559 721.544Z" fill="#2B1010"/>
<path opacity="0.6923" d="M201.56 720.664C227.847 720.626 249.144 712.362 249.128 702.207C249.112 692.052 227.79 683.85 201.503 683.888C175.216 683.926 153.919 692.189 153.935 702.345C153.951 712.5 175.273 720.702 201.56 720.664Z" fill="#291111"/>
<path opacity="0.7308" d="M201.556 719.78C226.581 719.744 246.855 711.877 246.84 702.21C246.824 692.542 226.526 684.734 201.502 684.771C176.478 684.807 156.204 692.673 156.219 702.341C156.234 712.008 176.532 719.816 201.556 719.78Z" fill="#271212"/>
<path opacity="0.7692" d="M201.557 718.896C225.318 718.862 244.569 711.392 244.555 702.212C244.541 693.032 225.267 685.618 201.505 685.653C177.743 685.687 158.492 693.157 158.506 702.336C158.521 711.516 177.795 718.93 201.557 718.896Z" fill="#251212"/>
<path opacity="0.8077" d="M201.557 718.012C224.056 717.979 242.284 710.907 242.271 702.215C242.257 693.522 224.007 686.502 201.508 686.535C179.009 686.567 160.781 693.64 160.794 702.332C160.808 711.024 179.058 718.044 201.557 718.012Z" fill="#231313"/>
<path opacity="0.8462" d="M201.554 717.131C222.79 717.101 239.996 710.425 239.983 702.221C239.97 694.016 222.744 687.39 201.507 687.421C180.271 687.452 163.065 694.127 163.078 702.332C163.091 710.536 180.317 717.162 201.554 717.131Z" fill="#211414"/>
<path opacity="0.8846" d="M201.55 716.247C221.524 716.218 237.707 709.94 237.695 702.223C237.683 694.507 221.481 688.274 201.506 688.303C181.532 688.332 165.35 694.611 165.362 702.327C165.374 710.044 181.576 716.276 201.55 716.247Z" fill="#1F1515"/>
<path opacity="0.9231" d="M201.55 715.364C220.262 715.337 235.422 709.455 235.41 702.226C235.399 694.997 220.221 689.158 201.509 689.185C182.798 689.212 167.638 695.095 167.649 702.324C167.661 709.553 182.839 715.391 201.55 715.364Z" fill="#1D1616"/>
<path opacity="0.9615" d="M201.547 714.48C218.996 714.454 233.133 708.969 233.123 702.228C233.112 695.487 218.958 690.042 201.509 690.068C184.06 690.093 169.923 695.578 169.933 702.319C169.944 709.06 184.098 714.505 201.547 714.48Z" fill="#1B1717"/>
<path d="M201.547 713.599C217.734 713.576 230.848 708.488 230.838 702.234C230.829 695.981 217.699 690.93 201.512 690.954C185.325 690.977 172.211 696.065 172.221 702.319C172.231 708.572 185.36 713.623 201.547 713.599Z" fill="#191818"/>
</g>
<g opacity="0.17">
<path opacity="0.0385" d="M254.896 546.429C325.267 546.327 382.28 524.205 382.238 497.017C382.195 469.829 325.114 447.871 254.743 447.972C184.371 448.074 127.359 470.196 127.401 497.385C127.443 524.573 184.525 546.53 254.896 546.429Z" fill="#4A0101"/>
<path opacity="0.0769" d="M254.894 545.128C323.404 545.029 378.91 523.491 378.868 497.022C378.827 470.552 323.255 449.175 254.745 449.274C186.234 449.373 130.729 470.911 130.77 497.38C130.811 523.849 186.383 545.227 254.894 545.128Z" fill="#480202"/>
<path opacity="0.1154" d="M254.892 543.826C321.542 543.73 375.54 522.777 375.5 497.027C375.46 471.276 321.397 450.48 254.747 450.576C188.097 450.672 134.099 471.625 134.139 497.375C134.179 523.126 188.242 543.923 254.892 543.826Z" fill="#460303"/>
<path opacity="0.1538" d="M254.89 542.524C319.679 542.431 372.17 522.063 372.131 497.032C372.092 472 319.538 451.784 254.749 451.878C189.96 451.971 137.469 472.339 137.508 497.37C137.547 522.402 190.101 542.618 254.89 542.524Z" fill="#440404"/>
<path opacity="0.1923" d="M254.888 541.223C317.817 541.132 368.8 521.349 368.762 497.037C368.724 472.724 317.68 453.088 254.751 453.179C191.822 453.27 140.839 473.053 140.877 497.366C140.915 521.678 191.96 541.314 254.888 541.223Z" fill="#420505"/>
<path opacity="0.2308" d="M254.886 539.922C315.954 539.834 365.43 520.636 365.393 497.042C365.356 473.448 315.821 454.393 254.753 454.481C193.685 454.569 144.209 473.767 144.246 497.361C144.283 520.955 193.818 540.01 254.886 539.922Z" fill="#400606"/>
<path opacity="0.2692" d="M254.884 538.62C314.092 538.534 362.06 519.921 362.024 497.047C361.989 474.172 313.963 455.697 254.755 455.783C195.548 455.868 147.58 474.481 147.615 497.356C147.651 520.231 195.677 538.705 254.884 538.62Z" fill="#3E0606"/>
<path opacity="0.3077" d="M254.882 537.319C312.229 537.236 358.69 519.208 358.655 497.052C358.621 474.896 312.104 457.002 254.757 457.084C197.411 457.167 150.95 475.195 150.984 497.352C151.019 519.508 197.536 537.401 254.882 537.319Z" fill="#3C0707"/>
<path opacity="0.3462" d="M254.881 536.017C310.367 535.937 355.32 518.494 355.287 497.057C355.253 475.62 310.246 458.306 254.76 458.386C199.273 458.466 154.32 475.91 154.353 497.347C154.387 518.784 199.394 536.098 254.881 536.017Z" fill="#3A0808"/>
<path opacity="0.3846" d="M254.879 534.716C308.504 534.639 351.95 517.78 351.918 497.062C351.885 476.343 308.387 459.611 254.762 459.688C201.136 459.765 157.69 476.624 157.723 497.342C157.755 518.061 201.253 534.794 254.879 534.716Z" fill="#380909"/>
<path opacity="0.4231" d="M254.873 533.414C306.638 533.339 348.576 517.066 348.545 497.067C348.514 477.067 306.525 460.915 254.76 460.99C202.995 461.064 161.057 477.338 161.088 497.337C161.119 517.337 203.108 533.489 254.873 533.414Z" fill="#360A0A"/>
<path opacity="0.4615" d="M254.871 532.113C304.775 532.041 345.206 516.352 345.176 497.072C345.146 477.791 304.666 462.219 254.762 462.291C204.858 462.363 164.427 478.052 164.457 497.333C164.487 516.613 204.967 532.185 254.871 532.113Z" fill="#340B0B"/>
<path opacity="0.5" d="M254.869 530.812C302.913 530.742 341.837 515.639 341.808 497.077C341.779 478.515 302.808 463.524 254.764 463.593C206.721 463.663 167.797 478.766 167.826 497.328C167.855 515.89 206.825 530.881 254.869 530.812Z" fill="#330C0C"/>
<path opacity="0.5385" d="M254.867 529.51C301.05 529.443 338.466 514.925 338.438 497.082C338.411 479.239 300.949 464.828 254.766 464.895C208.583 464.962 171.167 479.48 171.195 497.323C171.223 515.166 208.684 529.576 254.867 529.51Z" fill="#310D0D"/>
<path opacity="0.5769" d="M254.865 528.208C299.188 528.144 335.097 514.211 335.07 497.087C335.043 479.963 299.091 466.133 254.769 466.197C210.446 466.261 174.537 480.194 174.564 497.318C174.591 514.443 210.543 528.272 254.865 528.208Z" fill="#2F0E0E"/>
<path opacity="0.6154" d="M254.863 526.907C297.325 526.846 331.726 513.497 331.701 497.092C331.675 480.687 297.232 467.437 254.771 467.498C212.309 467.56 177.907 480.909 177.933 497.314C177.959 513.719 212.401 526.969 254.863 526.907Z" fill="#2D0F0F"/>
<path opacity="0.6538" d="M254.861 525.605C295.463 525.547 328.357 512.783 328.332 497.097C328.308 481.41 295.374 468.741 254.773 468.8C214.172 468.859 181.278 481.623 181.302 497.309C181.327 512.995 214.26 525.664 254.861 525.605Z" fill="#2B1010"/>
<path opacity="0.6923" d="M254.859 524.304C293.6 524.248 324.986 512.069 324.963 497.102C324.94 482.134 293.515 470.046 254.775 470.102C216.034 470.158 184.648 482.337 184.671 497.304C184.694 512.272 216.119 524.36 254.859 524.304Z" fill="#291111"/>
<path opacity="0.7308" d="M254.858 523.003C291.738 522.95 321.617 511.356 321.595 497.107C321.572 482.858 291.657 471.35 254.777 471.404C217.897 471.457 188.018 483.051 188.04 497.3C188.062 511.548 217.978 523.056 254.858 523.003Z" fill="#271212"/>
<path opacity="0.7692" d="M254.855 521.702C289.875 521.651 318.246 510.642 318.225 497.112C318.204 483.582 289.798 472.655 254.779 472.705C219.76 472.756 191.388 483.765 191.409 497.295C191.43 510.825 219.836 521.752 254.855 521.702Z" fill="#251212"/>
<path opacity="0.8077" d="M254.85 520.4C288.009 520.352 314.873 509.928 314.853 497.117C314.833 484.306 287.936 473.959 254.778 474.007C221.619 474.055 194.754 484.479 194.774 497.29C194.794 510.101 221.691 520.447 254.85 520.4Z" fill="#231313"/>
<path opacity="0.8462" d="M254.848 519.098C286.146 519.053 311.503 509.214 311.484 497.122C311.465 485.03 286.078 475.264 254.78 475.309C223.481 475.354 198.125 485.193 198.143 497.285C198.162 509.378 223.55 519.144 254.848 519.098Z" fill="#211414"/>
<path opacity="0.8846" d="M254.846 517.797C284.284 517.755 308.133 508.5 308.115 497.127C308.098 485.754 284.219 476.568 254.782 476.611C225.344 476.653 201.495 485.907 201.513 497.281C201.53 508.654 225.408 517.84 254.846 517.797Z" fill="#1F1515"/>
<path opacity="0.9231" d="M254.844 516.495C282.421 516.455 304.763 507.786 304.746 497.132C304.73 486.477 282.361 477.872 254.784 477.912C227.207 477.952 204.865 486.621 204.882 497.276C204.898 507.93 227.267 516.535 254.844 516.495Z" fill="#1D1616"/>
<path opacity="0.9615" d="M254.842 515.194C280.559 515.157 301.393 507.072 301.378 497.137C301.362 487.201 280.502 479.177 254.786 479.214C229.07 479.251 208.235 487.336 208.251 497.271C208.266 507.207 229.126 515.231 254.842 515.194Z" fill="#1B1717"/>
<path d="M254.84 513.893C278.696 513.858 298.023 506.359 298.008 497.142C297.994 487.925 278.644 480.481 254.788 480.516C230.933 480.55 211.605 488.05 211.62 497.267C211.634 506.483 230.985 513.927 254.84 513.893Z" fill="#191818"/>
</g>
<g opacity="0.17">
<path opacity="0.0385" d="M396.072 731.784C466.443 731.683 523.456 709.56 523.413 682.372C523.371 655.184 466.289 633.226 395.918 633.328C325.547 633.429 268.534 655.552 268.577 682.74C268.619 709.928 325.701 731.886 396.072 731.784Z" fill="#4A0101"/>
<path opacity="0.0769" d="M396.07 730.483C464.58 730.384 520.085 708.846 520.044 682.377C520.003 655.908 464.431 634.531 395.92 634.629C327.41 634.728 271.905 656.266 271.946 682.735C271.987 709.205 327.559 730.582 396.07 730.483Z" fill="#480202"/>
<path opacity="0.1154" d="M396.068 729.182C462.718 729.086 516.716 708.133 516.676 682.382C516.636 656.632 462.573 635.835 395.923 635.931C329.273 636.027 275.275 656.98 275.315 682.731C275.355 708.481 329.418 729.278 396.068 729.182Z" fill="#460303"/>
<path opacity="0.1538" d="M396.066 727.88C460.855 727.786 513.345 707.419 513.306 682.387C513.267 657.356 460.714 637.139 395.925 637.233C331.135 637.327 278.645 657.694 278.684 682.726C278.723 707.757 331.277 727.973 396.066 727.88Z" fill="#440404"/>
<path opacity="0.1923" d="M396.064 726.579C458.993 726.488 509.976 706.705 509.938 682.392C509.9 658.079 458.856 638.444 395.927 638.535C332.998 638.626 282.015 658.409 282.053 682.721C282.091 707.034 333.135 726.669 396.064 726.579Z" fill="#420505"/>
<path opacity="0.2308" d="M396.058 725.277C457.126 725.189 506.602 705.991 506.565 682.397C506.528 658.803 456.993 639.748 395.925 639.836C334.857 639.925 285.381 659.123 285.418 682.717C285.455 706.31 334.99 725.366 396.058 725.277Z" fill="#400606"/>
<path opacity="0.2692" d="M396.056 723.975C455.264 723.89 503.232 705.277 503.196 682.402C503.161 659.527 455.135 641.053 395.927 641.138C336.72 641.224 288.752 659.837 288.787 682.712C288.823 705.586 336.849 724.061 396.056 723.975Z" fill="#3E0606"/>
<path opacity="0.3077" d="M396.054 722.674C453.401 722.591 499.862 704.563 499.827 682.407C499.793 660.251 453.276 642.357 395.929 642.44C338.582 642.523 292.122 660.551 292.156 682.707C292.191 704.863 338.707 722.757 396.054 722.674Z" fill="#3C0707"/>
<path opacity="0.3462" d="M396.053 721.373C451.539 721.293 496.492 703.85 496.459 682.412C496.425 660.975 451.418 643.662 395.932 643.742C340.445 643.822 295.492 661.265 295.525 682.702C295.559 704.14 340.566 721.453 396.053 721.373Z" fill="#3A0808"/>
<path opacity="0.3846" d="M396.05 720.072C449.676 719.994 493.122 703.136 493.09 682.417C493.057 661.699 449.559 644.966 395.934 645.043C342.308 645.121 298.862 661.979 298.894 682.698C298.927 703.416 342.425 720.149 396.05 720.072Z" fill="#380909"/>
<path opacity="0.4231" d="M396.049 718.77C447.814 718.695 489.752 702.422 489.721 682.422C489.69 662.423 447.701 646.27 395.936 646.345C344.171 646.42 302.232 662.693 302.263 682.693C302.295 702.692 344.284 718.844 396.049 718.77Z" fill="#360A0A"/>
<path opacity="0.4615" d="M396.047 717.468C445.951 717.396 486.382 701.708 486.352 682.427C486.322 663.147 445.842 647.575 395.938 647.647C346.034 647.719 305.602 663.407 305.633 682.688C305.663 701.969 346.142 717.54 396.047 717.468Z" fill="#340B0B"/>
<path opacity="0.5" d="M396.045 716.167C444.089 716.098 483.012 700.994 482.983 682.432C482.954 663.87 443.984 648.879 395.94 648.949C347.896 649.018 308.973 664.122 309.002 682.684C309.031 701.245 348.001 716.237 396.045 716.167Z" fill="#330C0C"/>
<path opacity="0.5385" d="M396.043 714.865C442.226 714.799 479.642 700.28 479.614 682.437C479.586 664.594 442.125 650.184 395.942 650.25C349.759 650.317 312.343 664.836 312.371 682.679C312.398 700.521 349.86 714.932 396.043 714.865Z" fill="#310D0D"/>
<path opacity="0.5769" d="M396.041 713.564C440.364 713.5 476.272 699.566 476.246 682.442C476.219 665.318 440.267 651.488 395.944 651.552C351.622 651.616 315.713 665.55 315.74 682.674C315.766 699.798 351.719 713.628 396.041 713.564Z" fill="#2F0E0E"/>
<path opacity="0.6154" d="M396.039 712.263C438.501 712.201 472.902 698.853 472.877 682.447C472.851 666.042 438.408 652.793 395.946 652.854C353.485 652.915 319.083 666.264 319.109 682.669C319.134 699.075 353.577 712.324 396.039 712.263Z" fill="#2D0F0F"/>
<path opacity="0.6538" d="M396.033 710.961C436.635 710.902 469.529 698.138 469.504 682.452C469.48 666.766 436.546 654.097 395.945 654.156C355.344 654.214 322.45 666.978 322.474 682.664C322.498 698.351 355.432 711.019 396.033 710.961Z" fill="#2B1010"/>
<path opacity="0.6923" d="M396.031 709.66C434.772 709.604 466.158 697.425 466.135 682.457C466.112 667.49 434.687 655.401 395.947 655.457C357.206 655.513 325.82 667.692 325.843 682.66C325.866 697.627 357.291 709.715 396.031 709.66Z" fill="#291111"/>
<path opacity="0.7308" d="M396.029 708.358C432.909 708.305 462.789 696.711 462.766 682.462C462.744 668.214 432.829 656.706 395.949 656.759C359.069 656.812 329.19 668.406 329.212 682.655C329.234 696.904 359.149 708.412 396.029 708.358Z" fill="#271212"/>
<path opacity="0.7692" d="M396.027 707.057C431.047 707.006 459.418 695.997 459.397 682.467C459.376 668.937 430.97 658.01 395.951 658.061C360.932 658.111 332.56 669.121 332.581 682.65C332.602 696.18 361.008 707.108 396.027 707.057Z" fill="#251212"/>
<path opacity="0.8077" d="M396.026 705.755C429.184 705.707 456.049 695.283 456.029 682.472C456.009 669.661 429.112 659.315 395.953 659.363C362.795 659.41 335.93 669.835 335.95 682.645C335.97 695.456 362.867 705.803 396.026 705.755Z" fill="#231313"/>
<path opacity="0.8462" d="M396.024 704.454C427.322 704.409 452.678 694.569 452.66 682.477C452.641 670.385 427.253 660.619 395.955 660.664C364.657 660.709 339.3 670.549 339.319 682.641C339.338 694.733 364.725 704.499 396.024 704.454Z" fill="#211414"/>
<path opacity="0.8846" d="M396.022 703.153C425.459 703.11 449.309 693.856 449.291 682.482C449.273 671.109 425.395 661.924 395.958 661.966C366.52 662.009 342.671 671.263 342.688 682.636C342.706 694.01 366.584 703.195 396.022 703.153Z" fill="#1F1515"/>
<path opacity="0.9231" d="M396.02 701.851C423.597 701.811 445.939 693.141 445.922 682.487C445.905 671.833 423.536 663.228 395.96 663.268C368.383 663.308 346.041 671.977 346.057 682.631C346.074 693.286 368.443 701.89 396.02 701.851Z" fill="#1D1616"/>
<path opacity="0.9615" d="M396.014 700.549C421.73 700.512 442.565 692.428 442.55 682.492C442.534 672.557 421.674 664.532 395.958 664.569C370.242 664.607 349.407 672.691 349.423 682.627C349.438 692.562 370.298 700.586 396.014 700.549Z" fill="#1B1717"/>
<path d="M396.012 699.248C419.868 699.214 439.195 691.714 439.18 682.497C439.166 673.281 419.816 665.837 395.96 665.871C372.104 665.906 352.777 673.405 352.792 682.622C352.806 691.839 372.156 699.283 396.012 699.248Z" fill="#191818"/>
</g>
<path d="M123.614 409.754C124.99 410.892 126.405 411.993 127.886 413.033C129.365 414.072 130.885 415.033 132.431 415.947L156.441 432.561L169.987 414.695C205.528 410.124 244.227 386.958 272.507 349.657C300.787 312.357 311.905 269.819 305.586 235.847L319.269 217.799L286.395 194.959L286.253 195.145C242.855 169.546 174.841 193.509 131.403 250.801C87.9652 308.093 85.0027 377.746 123.571 409.716L123.567 409.721L123.614 409.754Z" fill="url(#paint0_linear_795_40935)"/>
<path d="M153.048 430.455C109.99 400.212 111.566 327.579 156.567 268.225C201.569 208.87 272.956 185.269 316.014 215.512C359.072 245.754 357.496 318.387 312.495 377.742C267.493 437.097 196.107 460.697 153.048 430.455Z" fill="url(#paint1_linear_795_40935)"/>
<path d="M159.357 270.184C203.87 211.474 274.179 187.781 317.372 216.54C316.914 216.201 316.481 215.84 316.014 215.512C272.955 185.269 201.569 208.87 156.567 268.225C111.566 327.579 109.99 400.212 153.048 430.455C153.516 430.784 154.005 431.07 154.48 431.386C112.848 400.567 114.844 328.894 159.357 270.184Z" fill="url(#paint2_linear_795_40935)"/>
<path d="M168.634 414.327C169.782 415.278 184.709 425.13 185.946 425.999C187.181 426.866 188.45 427.669 189.741 428.431L209.786 442.302L221.095 427.387C250.767 423.571 283.075 404.231 306.686 373.09C330.296 341.95 339.578 306.437 334.302 278.076L345.726 263.008L304.535 235.006L304.417 235.162C268.185 213.79 211.402 233.794 175.137 281.625C138.872 329.455 136.398 387.605 168.597 414.296L168.594 414.3L168.634 414.327Z" fill="url(#paint3_linear_795_40935)"/>
<path d="M206.951 440.544C171.004 415.295 172.319 354.657 209.89 305.105C247.461 255.553 307.059 235.85 343.007 261.099C378.954 286.347 377.639 346.985 340.068 396.537C302.497 446.09 242.899 465.792 206.951 440.544Z" fill="url(#paint4_linear_795_40935)"/>
<path d="M196.923 457.031C198.299 458.17 199.714 459.27 201.195 460.31C202.674 461.349 204.194 462.311 205.74 463.224L229.75 479.839L243.296 461.972C278.837 457.401 317.535 434.235 345.816 396.935C374.096 359.635 385.214 317.096 378.894 283.125L392.578 265.077L359.703 242.236L359.562 242.423C316.164 216.823 248.149 240.786 204.712 298.078C161.274 355.371 158.311 425.023 196.88 456.993L196.876 456.998L196.923 457.031Z" fill="url(#paint5_linear_795_40935)"/>
<path d="M226.357 477.732C183.299 447.49 184.874 374.857 229.876 315.502C274.878 256.147 346.264 232.547 389.322 262.789C432.381 293.032 430.805 365.665 385.803 425.02C340.802 484.375 269.415 507.975 226.357 477.732Z" fill="url(#paint6_linear_795_40935)"/>
<path d="M343.138 395.063C322.749 421.924 290.442 432.606 270.949 418.92C268.229 417.005 265.893 414.722 263.977 412.139C282.357 413.931 304.643 402.864 320.085 382.502C337.607 359.365 340.582 331.801 328.627 315.832C334.504 316.394 339.998 318.273 344.725 321.612C364.219 335.296 363.507 368.184 343.138 395.063Z" fill="#3B3B3B"/>
<path d="M320.087 382.5C304.646 402.862 282.36 413.929 263.979 412.137C252.024 396.167 255.018 368.586 272.54 345.466C287.963 325.123 310.249 314.055 328.629 315.83C340.585 331.799 337.61 359.363 320.087 382.5Z" fill="#535353"/>
<path d="M300.494 306.657C294.976 302.781 295.178 293.473 300.947 285.866C306.715 278.259 315.865 275.234 321.383 279.11C326.902 282.985 326.7 292.293 320.931 299.901C315.163 307.507 306.013 310.532 300.494 306.657Z" fill="url(#paint7_linear_795_40935)"/>
<path d="M300.494 469.063C294.976 465.187 295.178 455.879 300.947 448.272C306.715 440.665 315.865 437.64 321.383 441.516C326.902 445.392 326.7 454.7 320.931 462.307C315.163 469.914 306.013 472.939 300.494 469.063Z" fill="url(#paint8_linear_795_40935)"/>
<path d="M211.948 399.497C206.429 395.621 206.631 386.313 212.4 378.706C218.168 371.099 227.318 368.074 232.836 371.95C238.355 375.825 238.153 385.134 232.384 392.74C226.616 400.347 217.466 403.372 211.948 399.497Z" fill="url(#paint9_linear_795_40935)"/>
<path d="M385.565 350.239C380.046 346.363 380.249 337.055 386.017 329.448C391.785 321.841 400.935 318.816 406.454 322.692C411.972 326.567 411.77 335.875 406.001 343.483C400.233 351.09 391.084 354.114 385.565 350.239Z" fill="url(#paint10_linear_795_40935)"/>
<path d="M352.588 311.239C347.07 307.363 347.272 298.055 353.04 290.448C358.809 282.841 367.959 279.816 373.477 283.692C378.996 287.567 378.793 296.875 373.025 304.483C367.257 312.089 358.107 315.114 352.588 311.239Z" fill="url(#paint11_linear_795_40935)"/>
<path d="M235.463 460.915C229.945 457.039 230.147 447.731 235.915 440.124C241.684 432.517 250.834 429.492 256.352 433.368C261.871 437.243 261.668 446.551 255.9 454.158C250.131 461.765 240.982 464.79 235.463 460.915Z" fill="url(#paint12_linear_795_40935)"/>
<path d="M359.846 421.555C354.327 417.68 354.53 408.372 360.298 400.764C366.066 393.158 375.216 390.133 380.735 394.008C386.254 397.884 386.051 407.192 380.283 414.799C374.514 422.406 365.364 425.431 359.846 421.555Z" fill="url(#paint13_linear_795_40935)"/>
<path d="M244.303 340.391C238.784 336.516 238.987 327.208 244.755 319.6C250.523 311.994 259.673 308.969 265.192 312.844C270.711 316.72 270.508 326.028 264.74 333.635C258.971 341.241 249.822 344.266 244.303 340.391Z" fill="url(#paint14_linear_795_40935)"/>
<path d="M231.905 317.589C276.906 258.234 348.293 234.634 391.351 264.876C394.673 267.209 397.696 269.823 400.487 272.635C397.174 268.997 393.459 265.694 389.323 262.789C346.265 232.547 274.878 256.147 229.877 315.502C188.346 370.279 183.833 436.335 217.222 469.975C186.04 435.741 191.225 371.244 231.905 317.589Z" fill="url(#paint15_linear_795_40935)"/>
<path d="M139.543 485.049C114.054 522.411 186.042 553.062 157.367 600.884C140.395 629.213 105.742 642.118 77.5392 631.186C41.356 620.985 20.7246 587.054 20.0938 586.006C27.7119 594.933 36.9235 600.747 46.7659 603.799L47.0184 603.92C47.0184 603.905 47.0184 603.89 47.0025 603.875C74.4475 612.27 106.751 599.29 122.965 572.237C151.625 524.415 79.6525 493.763 105.126 456.401C114.684 442.391 126.694 436.727 137.972 435.121C156.769 432.444 183.676 442.297 183.676 442.297L214.335 469.172C214.335 469.172 165.017 447.687 139.543 485.049Z" fill="url(#paint16_linear_795_40935)"/>
<path d="M47.0017 603.874C46.9229 603.859 46.8438 603.829 46.7651 603.799C36.9227 600.747 27.7111 594.932 20.0929 586.006C20.077 585.991 20.077 585.975 20.077 585.975C11.4967 575.895 4.96644 561.882 1.89062 543.422L36.2918 572.07C38.4055 584.7 42.1118 595.236 47.0017 603.874Z" fill="url(#paint17_linear_795_40935)"/>
<path d="M458.129 300.166L722.956 268.917V218.562L442.047 288.17L458.129 300.166Z" fill="#3B3B3B"/>
<path d="M706.866 206.57V256.928L706.44 256.973L685.194 259.478L442.052 288.171L441.626 283.799L438.44 250.642L438.125 247.363L440.254 247.045L461.17 243.871L706.866 206.57Z" fill="#535353"/>
<path d="M706.871 206.566L722.954 218.563V268.917L706.871 256.921V206.566Z" fill="#2D2D2D"/>
<path d="M477.647 241.369L454.73 286.674L476.175 283.756L498.688 237.742L477.647 241.369Z" fill="url(#paint18_linear_795_40935)"/>
<path d="M461.171 243.871L441.627 283.799L438.441 250.642L440.255 247.044L461.171 243.871Z" fill="url(#paint19_linear_795_40935)"/>
<path d="M516.735 235.435L493.098 282.231L514.542 279.313L537.557 232.273L516.735 235.435Z" fill="url(#paint20_linear_795_40935)"/>
<path d="M556.241 229.434L531.465 277.786L552.91 274.868L576.883 226.301L556.241 229.434Z" fill="url(#paint21_linear_795_40935)"/>
<path d="M595.02 223.55L569.832 273.346L591.277 270.428L615.752 220.402L595.02 223.55Z" fill="url(#paint22_linear_795_40935)"/>
<path d="M634.144 217.608L608.199 268.901L629.644 265.983L654.85 214.465L634.144 217.608Z" fill="url(#paint23_linear_795_40935)"/>
<path d="M672.733 211.97L646.852 263.905L668.296 260.987L693.963 208.527L672.733 211.97Z" fill="url(#paint24_linear_795_40935)"/>
<path d="M706.866 216.637V256.094L706.441 256.975L706.377 257.096L684.926 260.011L685.194 259.48L706.866 216.637Z" fill="url(#paint25_linear_795_40935)"/>
<path d="M442.047 288.172L680.144 318.942L557.392 576.246L342.293 473.046L442.047 288.172Z" fill="#535353"/>
<path d="M680.142 318.941L697.203 333.902L582.192 571.075L557.391 576.245L680.142 318.941Z" fill="#3B3B3B"/>
<path d="M680.149 318.945L668.319 343.721L661.458 358.113L652.767 356.641L425.855 318.186L442.054 288.172L642.829 314.117L661.111 316.485L680.149 318.945Z" fill="url(#paint26_linear_795_40935)"/>
<path d="M443.617 288.172L451.97 323.894L471.975 327.089L461.894 290.534L443.617 288.172Z" fill="#535353"/>
<path d="M476.816 292.484L485.168 328.207L505.174 331.402L495.093 294.846L476.816 292.484Z" fill="#535353"/>
<path d="M510.016 296.801L518.694 333.918L538.7 337.113L528.293 299.163L510.016 296.801Z" fill="#535353"/>
<path d="M543.215 301.113L552.212 339.595L572.396 343.016L561.492 303.476L543.215 301.113Z" fill="#535353"/>
<path d="M576.414 305.43L585.731 345.277L605.962 348.662L594.691 307.792L576.414 305.43Z" fill="#535353"/>
<path d="M609.609 309.746L619.245 350.958L639.549 354.399L627.886 312.108L609.609 309.746Z" fill="#535353"/>
<path d="M668.318 343.723L661.456 358.115L652.765 356.643L642.828 314.119L642.812 314.059L661.094 316.426L661.109 316.487L668.318 343.723Z" fill="#535353"/>
<path d="M466.249 265.499L455.904 307.701C454.674 312.722 448.115 314.381 444.478 310.591L421.521 286.669C417.292 282.261 419.127 275.127 425.005 273.128L460.941 260.913C463.972 259.882 466.988 262.487 466.249 265.499Z" fill="url(#paint27_linear_795_40935)"/>
<path d="M464.785 262.581L454.44 304.783C453.209 309.804 446.65 311.463 443.014 307.673L420.056 283.751C415.827 279.343 417.663 272.209 423.541 270.211L459.476 257.995C462.508 256.964 465.523 259.57 464.785 262.581Z" fill="url(#paint28_linear_795_40935)"/>
<path d="M458.924 270.735C461.103 269.167 461.353 266.169 459.483 264.038C457.614 261.907 454.332 261.45 452.153 263.018C449.974 264.585 449.724 267.584 451.593 269.715C453.463 271.846 456.745 272.303 458.924 270.735Z" fill="url(#paint29_linear_795_40935)"/>
<path d="M450.514 300.973C452.692 299.406 452.943 296.407 451.073 294.276C449.203 292.145 445.922 291.689 443.743 293.256C441.564 294.824 441.314 297.822 443.183 299.953C445.052 302.084 448.335 302.541 450.514 300.973Z" fill="url(#paint30_linear_795_40935)"/>
<path d="M432.295 282.208C434.473 280.64 434.724 277.641 432.854 275.511C430.985 273.38 427.703 272.923 425.524 274.49C423.345 276.058 423.095 279.057 424.965 281.187C426.834 283.319 430.116 283.775 432.295 282.208Z" fill="url(#paint31_linear_795_40935)"/>
<path d="M440.647 337.109L373.793 452.712L557.806 532.253L631.526 374.511L440.647 337.109Z" stroke="#CCCCCC" stroke-width="1.81345" stroke-miterlimit="10"/>
<path d="M425.855 362.688L615.754 405.207" stroke="#CCCCCC" stroke-width="1.81345" stroke-miterlimit="10"/>
<path d="M502.66 349.262L432.215 477.966" stroke="#CCCCCC" stroke-width="1.81345" stroke-miterlimit="10"/>
<path d="M571.179 362.688L496.469 505.742" stroke="#CCCCCC" stroke-width="1.81345" stroke-miterlimit="10"/>
<path d="M454.731 339.871L387.34 458.57" stroke="#CCCCCC" stroke-width="1.81345" stroke-miterlimit="10"/>
<path d="M363.461 389.617L466.033 416.175C471.835 417.865 476.336 427.987 473.599 433.194L422.018 531.334C418.91 537.247 411.425 539.635 405.263 536.679L309.664 490.812C304.69 488.425 297.208 477.916 299.77 473.169L349.904 395.119C352.459 390.384 358.155 388.072 363.461 389.617Z" fill="url(#paint32_linear_795_40935)"/>
<path d="M359.078 383.105L463.34 413.464C469.142 415.154 471.953 421.476 469.217 426.682L417.635 524.823C414.527 530.735 407.042 533.123 400.88 530.167L305.281 484.3C300.307 481.914 298.33 476.067 300.891 471.32L345.521 388.607C348.076 383.872 353.773 381.561 359.078 383.105Z" fill="url(#paint33_linear_795_40935)"/>
<path d="M377.565 427.426L358.891 463.542L392.575 455.284L377.565 427.426Z" fill="white"/>
<path d="M469.631 419.145C470.178 421.242 469.995 423.538 468.884 425.652L417.302 523.792C414.194 529.705 406.709 532.093 400.548 529.137L304.948 483.27C302.598 482.142 300.928 480.239 300.078 478.046C300.758 480.667 302.57 482.999 305.283 484.3L400.882 530.167C407.044 533.123 414.529 530.736 417.636 524.823L469.218 426.682C470.515 424.215 470.554 421.502 469.631 419.145Z" fill="url(#paint34_linear_795_40935)"/>
<path d="M269.594 594.705L303.774 529.246L348.645 553.161L313.27 619.6L269.594 594.705Z" fill="url(#paint35_linear_795_40935)"/>
<path d="M253.062 596.897L287.243 531.438L332.114 555.352L296.738 621.791L253.062 596.897Z" fill="url(#paint36_linear_795_40935)"/>
<path d="M348.645 553.16L332.113 555.352L296.738 621.792L313.27 619.599L348.645 553.16Z" fill="url(#paint37_linear_795_40935)"/>
<path d="M287.242 531.438L303.774 529.246L348.645 553.161L332.113 555.353L287.242 531.438Z" fill="#BDFFC3"/>
<path d="M333.973 631.541L382.322 539.875L427.193 563.79L377.648 656.436L333.973 631.541Z" fill="url(#paint38_linear_795_40935)"/>
<path d="M317.441 633.733L365.791 542.066L410.662 565.981L361.117 658.627L317.441 633.733Z" fill="url(#paint39_linear_795_40935)"/>
<path d="M427.194 563.789L410.662 565.982L361.117 658.628L377.649 656.435L427.194 563.789Z" fill="url(#paint40_linear_795_40935)"/>
<path d="M365.793 542.068L382.325 539.875L427.196 563.79L410.664 565.982L365.793 542.068Z" fill="#BDFFC3"/>
<path d="M398.352 668.379L457.385 552.93L502.256 576.844L442.028 693.273L398.352 668.379Z" fill="url(#paint41_linear_795_40935)"/>
<path d="M381.82 670.57L440.854 555.121L485.725 579.035L425.496 695.465L381.82 670.57Z" fill="url(#paint42_linear_795_40935)"/>
<path d="M502.257 576.844L485.725 579.036L425.496 695.466L442.028 693.273L502.257 576.844Z" fill="url(#paint43_linear_795_40935)"/>
<path d="M440.855 555.122L457.387 552.93L502.258 576.844L485.726 579.037L440.855 555.122Z" fill="#BDFFC3"/>
<path d="M462.73 705.215L549.135 539.875L594.006 563.79L506.406 730.109L462.73 705.215Z" fill="url(#paint44_linear_795_40935)"/>
<path d="M446.199 707.406L532.603 542.066L577.474 565.981L489.875 732.3L446.199 707.406Z" fill="url(#paint45_linear_795_40935)"/>
<path d="M594.007 563.789L577.475 565.982L489.875 732.301L506.407 730.109L594.007 563.789Z" fill="url(#paint46_linear_795_40935)"/>
<path d="M532.602 542.068L549.134 539.875L594.004 563.79L577.473 565.982L532.602 542.068Z" fill="#BDFFC3"/>
<path d="M527.109 742.052L600.758 598.156L645.629 622.07L570.785 766.946L527.109 742.052Z" fill="url(#paint47_linear_795_40935)"/>
<path d="M510.578 744.243L584.227 600.348L629.098 624.262L554.254 769.138L510.578 744.243Z" fill="url(#paint48_linear_795_40935)"/>
<path d="M645.63 622.07L629.098 624.263L554.254 769.139L570.786 766.946L645.63 622.07Z" fill="url(#paint49_linear_795_40935)"/>
<path d="M584.227 600.349L600.759 598.156L645.629 622.07L629.097 624.263L584.227 600.349Z" fill="#BDFFC3"/>
<path d="M640.449 501.087C624.47 533.785 637.527 569.082 669.613 579.923C701.698 590.764 740.661 573.045 756.64 540.346C772.619 507.648 759.562 472.352 727.476 461.51C695.391 450.669 656.427 468.388 640.449 501.087Z" fill="url(#paint50_linear_795_40935)"/>
<path d="M631.296 494.563C615.318 527.262 628.375 562.558 660.46 573.399C692.545 584.241 731.509 566.521 747.488 533.823C763.466 501.125 750.409 465.828 718.324 454.987C686.238 444.146 647.275 461.865 631.296 494.563Z" fill="url(#paint51_linear_795_40935)"/>
<path d="M681.246 503.694C681.246 512.663 676.352 517.115 670.64 517.116C665.133 517.116 660.373 512.862 660.305 504.286C660.304 495.776 665.131 490.996 670.979 490.995C677.166 490.995 681.246 495.577 681.246 503.694ZM665.064 504.089C664.929 509.523 667.036 513.647 670.776 513.646C674.719 513.646 676.487 509.587 676.487 503.957C676.486 498.785 674.922 494.465 670.775 494.465C667.035 494.465 665.063 498.721 665.064 504.089ZM670.233 534.988L696.204 490.993L700.011 490.992L674.04 534.988L670.233 534.988ZM710.008 521.301C710.008 530.27 705.113 534.722 699.469 534.723C693.963 534.723 689.203 530.469 689.134 521.958C689.134 513.382 693.961 508.603 699.808 508.602C705.995 508.601 710.007 513.184 710.008 521.301ZM693.825 521.696C693.757 527.129 695.934 531.254 699.606 531.253C703.549 531.253 705.316 527.194 705.316 521.564C705.316 516.392 703.751 512.071 699.604 512.072C695.865 512.072 693.825 516.328 693.825 521.696Z" fill="white"/>
<path d="M167.374 645.01C156.219 667.838 165.335 692.479 187.734 700.048C210.134 707.616 237.336 695.246 248.491 672.418C259.646 649.59 250.53 624.949 228.131 617.381C205.731 609.812 178.53 622.182 167.374 645.01Z" fill="url(#paint52_linear_795_40935)"/>
<path d="M160.988 640.455C149.832 663.283 158.948 687.924 181.348 695.493C203.747 703.062 230.949 690.691 242.104 667.863C253.259 645.036 244.144 620.395 221.744 612.826C199.344 605.257 172.143 617.627 160.988 640.455Z" fill="url(#paint53_linear_795_40935)"/>
<path d="M178.895 641.403L183.771 672.005L232.73 656.704L230.195 646.848L192.743 658.711L188.843 637.648L178.895 641.403Z" fill="white"/>
<path d="M399.03 129.766L409.57 163.495L446.176 175.56L414.07 194.129L413.591 228.901L383.209 206.649L346.308 216.074L359.636 183.752L337.309 154.805L375.928 157.081L399.03 129.766Z" fill="url(#paint54_linear_795_40935)"/>
<path d="M400.694 121.688L411.234 155.416L447.84 167.481L415.734 186.051L415.255 220.823L384.873 198.571L347.972 207.996L361.3 175.674L338.973 146.727L377.593 149.003L400.694 121.688Z" fill="url(#paint55_linear_795_40935)"/>
<path d="M384.872 198.57L383.21 206.647L346.309 216.073L347.971 207.996L384.872 198.57Z" fill="url(#paint56_linear_795_40935)"/>
<path d="M415.252 220.823L413.59 228.9L383.207 206.647L384.869 198.57L415.252 220.823Z" fill="url(#paint57_linear_795_40935)"/>
<path d="M447.837 167.48L446.175 175.557L415.633 193.223L415.732 186.05L447.837 167.48Z" fill="url(#paint58_linear_795_40935)"/>
<path d="M338.971 146.727L361.298 175.674L358.549 182.341L337.309 154.804L338.971 146.727Z" fill="url(#paint59_linear_795_40935)"/>
<path d="M383.208 198.066L348.395 206.958L347.969 207.995L384.146 198.754L383.208 198.066Z" fill="url(#paint60_linear_795_40935)"/>
<path d="M411.229 155.416L400.69 121.688L399.59 122.987L409.568 154.914L446.173 166.978L414.067 185.549L413.598 219.613L415.25 220.823L415.729 186.05L447.835 167.481L411.229 155.416Z" fill="url(#paint61_linear_795_40935)"/>
<path d="M802.796 359.436C807.7 384.425 792.406 405.414 768.636 406.316C744.866 407.218 721.621 387.692 716.716 362.703C711.812 337.714 727.105 316.725 750.875 315.823C774.646 314.921 797.891 334.447 802.796 359.436Z" fill="url(#paint62_linear_795_40935)"/>
<path d="M810.198 356.889C815.102 381.878 799.809 402.867 776.039 403.769C752.268 404.672 729.023 385.145 724.118 360.156C719.214 335.167 734.508 314.178 758.278 313.276C782.048 312.374 805.294 331.901 810.198 356.889Z" fill="url(#paint63_linear_795_40935)"/>
<path d="M765.47 379.428L765.149 374.131C761.984 374.123 758.655 373.224 756.667 371.94L757.763 368.407C759.802 369.638 762.698 370.595 765.751 370.552C769.622 370.498 772.109 368.311 771.928 365.321C771.754 362.436 769.519 360.683 765.389 359.166C759.701 357.146 756.12 354.781 755.844 350.218C755.58 345.864 758.598 342.515 763.566 341.657L763.246 336.36L766.626 336.312L766.934 341.4C770.212 341.459 772.498 342.267 774.133 343.137L772.98 346.618C771.796 346.004 769.491 344.882 766.002 344.931C761.804 344.99 760.368 347.425 760.495 349.523C760.66 352.25 762.76 353.586 767.618 355.407C773.367 357.532 776.367 360.219 776.65 364.888C776.901 369.031 774.137 372.955 768.575 373.925L768.905 379.38L765.47 379.428Z" fill="white"/>
<g opacity="0.17">
<path opacity="0.0385" d="M674.104 833.091C721.853 833.022 760.538 818.012 760.509 799.565C760.481 781.118 721.749 766.22 674 766.289C626.251 766.358 587.566 781.368 587.595 799.815C587.624 818.262 626.355 833.16 674.104 833.091Z" fill="#4A0101"/>
<path opacity="0.0769" d="M674.105 832.21C720.591 832.143 758.254 817.53 758.226 799.571C758.198 781.612 720.49 767.108 674.004 767.175C627.517 767.242 589.855 781.855 589.883 799.814C589.911 817.773 627.618 832.278 674.105 832.21Z" fill="#480202"/>
<path opacity="0.1154" d="M674.105 831.326C719.329 831.261 755.968 817.045 755.941 799.574C755.914 782.103 719.231 767.992 674.007 768.058C628.782 768.123 592.143 782.339 592.17 799.81C592.198 817.281 628.881 831.392 674.105 831.326Z" fill="#460303"/>
<path opacity="0.1538" d="M674.101 830.442C718.063 830.379 753.679 816.56 753.653 799.576C753.626 782.593 717.967 768.876 674.006 768.94C630.044 769.003 594.428 782.822 594.454 799.806C594.481 816.789 630.14 830.506 674.101 830.442Z" fill="#440404"/>
<path opacity="0.1923" d="M674.102 829.559C716.801 829.497 751.395 816.075 751.369 799.579C751.343 783.083 716.708 769.76 674.009 769.822C631.31 769.884 596.716 783.306 596.742 799.802C596.768 816.298 631.403 829.62 674.102 829.559Z" fill="#420505"/>
<path opacity="0.2308" d="M674.098 828.678C715.535 828.619 749.106 815.593 749.081 799.585C749.056 783.577 715.445 770.648 674.008 770.708C632.571 770.768 599.001 783.794 599.026 799.802C599.051 815.81 632.662 828.738 674.098 828.678Z" fill="#400606"/>
<path opacity="0.2692" d="M674.099 827.794C714.273 827.736 746.821 815.108 746.796 799.587C746.772 784.067 714.185 771.532 674.011 771.59C633.837 771.648 601.289 784.277 601.313 799.797C601.338 815.318 633.925 827.852 674.099 827.794Z" fill="#3E0606"/>
<path opacity="0.3077" d="M674.095 826.91C713.007 826.854 744.532 814.622 744.509 799.59C744.485 784.557 712.922 772.416 674.01 772.472C635.099 772.529 603.574 784.76 603.597 799.793C603.621 814.826 635.184 826.966 674.095 826.91Z" fill="#3C0707"/>
<path opacity="0.3462" d="M674.096 826.026C711.745 825.972 742.247 814.137 742.224 799.592C742.202 785.047 711.663 773.3 674.014 773.355C636.364 773.409 605.862 785.244 605.885 799.789C605.907 814.334 636.446 826.08 674.096 826.026Z" fill="#3A0808"/>
<path opacity="0.3846" d="M674.092 825.146C710.479 825.094 739.958 813.656 739.936 799.598C739.914 785.541 710.399 774.188 674.013 774.241C637.626 774.293 608.147 785.732 608.169 799.789C608.19 813.846 637.705 825.199 674.092 825.146Z" fill="#380909"/>
<path opacity="0.4231" d="M674.092 824.262C709.216 824.212 737.673 813.17 737.652 799.601C737.631 786.031 709.14 775.072 674.016 775.123C638.892 775.174 610.435 786.215 610.456 799.784C610.477 813.354 638.968 824.313 674.092 824.262Z" fill="#360A0A"/>
<path opacity="0.4615" d="M674.089 823.378C707.951 823.329 735.385 812.685 735.364 799.603C735.344 786.521 707.877 775.956 674.015 776.005C640.153 776.054 612.72 786.698 612.74 799.78C612.76 812.862 640.227 823.427 674.089 823.378Z" fill="#340B0B"/>
<path opacity="0.5" d="M674.089 822.498C706.688 822.451 733.099 812.203 733.08 799.609C733.06 787.015 706.617 776.844 674.018 776.891C641.419 776.938 615.008 787.186 615.028 799.78C615.047 812.374 641.49 822.545 674.089 822.498Z" fill="#330C0C"/>
<path opacity="0.5385" d="M674.086 821.614C705.422 821.568 730.81 811.718 730.791 799.612C730.773 787.506 705.354 777.728 674.017 777.774C642.681 777.819 617.293 787.669 617.312 799.775C617.33 811.882 642.749 821.659 674.086 821.614Z" fill="#310D0D"/>
<path opacity="0.5769" d="M674.086 820.73C704.16 820.687 728.526 811.233 728.508 799.614C728.49 787.996 704.095 778.612 674.021 778.656C643.946 778.699 619.581 788.153 619.599 799.772C619.617 811.39 644.012 820.774 674.086 820.73Z" fill="#2F0E0E"/>
<path opacity="0.6154" d="M674.083 819.846C702.894 819.804 726.237 810.747 726.219 799.617C726.202 788.486 702.831 779.496 674.02 779.538C645.208 779.58 621.866 788.636 621.883 799.767C621.9 810.898 645.271 819.888 674.083 819.846Z" fill="#2D0F0F"/>
<path opacity="0.6538" d="M674.083 818.966C701.632 818.926 723.952 810.266 723.935 799.623C723.918 788.98 701.572 780.384 674.023 780.424C646.474 780.464 624.154 789.124 624.171 799.767C624.187 810.41 646.534 819.005 674.083 818.966Z" fill="#2B1010"/>
<path opacity="0.6923" d="M674.08 818.082C700.366 818.044 721.663 809.78 721.647 799.625C721.632 789.47 700.309 781.268 674.022 781.306C647.735 781.344 626.439 789.607 626.454 799.763C626.47 809.918 647.793 818.119 674.08 818.082Z" fill="#291111"/>
<path opacity="0.7308" d="M674.076 817.198C699.1 817.162 719.374 809.295 719.359 799.628C719.344 789.96 699.046 782.152 674.021 782.188C648.997 782.225 628.723 790.091 628.738 799.759C628.753 809.426 649.052 817.234 674.076 817.198Z" fill="#271212"/>
<path opacity="0.7692" d="M674.076 816.318C697.838 816.283 717.089 808.814 717.075 799.634C717.06 790.454 697.786 783.04 674.024 783.075C650.263 783.109 631.012 790.578 631.026 799.758C631.04 808.938 650.314 816.352 674.076 816.318Z" fill="#251212"/>
<path opacity="0.8077" d="M674.073 815.434C696.572 815.401 714.8 808.328 714.786 799.636C714.773 790.944 696.523 783.924 674.023 783.957C651.524 783.989 633.296 791.062 633.31 799.754C633.323 808.446 651.573 815.466 674.073 815.434Z" fill="#231313"/>
<path opacity="0.8462" d="M674.073 814.549C695.31 814.519 712.515 807.843 712.503 799.639C712.49 791.434 695.264 784.808 674.027 784.839C652.79 784.87 635.585 791.545 635.597 799.75C635.61 807.954 652.836 814.58 674.073 814.549Z" fill="#211414"/>
<path opacity="0.8846" d="M674.07 813.669C694.044 813.64 710.226 807.361 710.214 799.645C710.202 791.928 694 785.696 674.026 785.725C654.052 785.754 637.869 792.033 637.881 799.749C637.893 807.466 654.095 813.698 674.07 813.669Z" fill="#1F1515"/>
<path opacity="0.9231" d="M674.07 812.786C692.781 812.759 707.941 806.876 707.93 799.648C707.919 792.419 692.741 786.58 674.029 786.607C655.317 786.634 640.158 792.516 640.169 799.745C640.18 806.974 655.358 812.813 674.07 812.786Z" fill="#1D1616"/>
<path opacity="0.9615" d="M674.066 811.902C691.516 811.876 705.653 806.391 705.642 799.65C705.632 792.909 691.478 787.464 674.028 787.49C656.579 787.515 642.442 793 642.453 799.741C642.463 806.482 656.617 811.927 674.066 811.902Z" fill="#1B1717"/>
<path d="M674.063 811.021C690.25 810.998 703.364 805.91 703.354 799.656C703.344 793.403 690.214 788.352 674.028 788.376C657.841 788.399 644.727 793.487 644.736 799.741C644.746 805.994 657.876 811.045 674.063 811.021Z" fill="#191818"/>
</g>
<path d="M683.055 692.704C708.296 696.009 706.337 728.589 706.337 728.589C706.337 728.589 729 701.113 752.069 709.717C775.137 718.322 770.07 783.197 677.189 799.683C613.637 744.634 657.812 689.399 683.055 692.704Z" fill="url(#paint64_linear_795_40935)"/>
<path d="M680.07 682.692C705.311 685.997 703.352 718.577 703.352 718.577C703.352 718.577 726.016 691.101 749.084 699.705C772.153 708.31 767.086 773.185 674.205 789.671C610.653 734.622 654.828 679.387 680.07 682.692Z" fill="url(#paint65_linear_795_40935)"/>
<path d="M650.464 700.43C637.593 720.78 636.016 754.63 675.02 788.415C716.781 781.003 740.781 763.808 752.463 746.344C741.104 764.235 716.966 782.083 674.203 789.672C634.386 755.183 636.858 720.623 650.464 700.43Z" fill="url(#paint66_linear_795_40935)"/>
</g>
<defs>
<linearGradient id="paint0_linear_795_40935" x1="128.476" y1="404.881" x2="242.236" y2="229.972" gradientUnits="userSpaceOnUse">
<stop stop-color="#DDDDDD"/>
<stop offset="1" stop-color="#F9F9F9"/>
</linearGradient>
<linearGradient id="paint1_linear_795_40935" x1="316.016" y1="215.513" x2="161.088" y2="436.101" gradientUnits="userSpaceOnUse">
<stop stop-color="#DDDDDD"/>
<stop offset="1" stop-color="#ABABAB"/>
</linearGradient>
<linearGradient id="paint2_linear_795_40935" x1="274.9" y1="277.285" x2="153.55" y2="345.958" gradientUnits="userSpaceOnUse">
<stop stop-color="#DDDDDD"/>
<stop offset="1" stop-color="white"/>
</linearGradient>
<linearGradient id="paint3_linear_795_40935" x1="179.571" y1="414.725" x2="274.545" y2="268.708" gradientUnits="userSpaceOnUse">
<stop stop-color="#B92222"/>
<stop offset="0.2473" stop-color="#DD2F2F"/>
<stop offset="0.8548" stop-color="#FF6757"/>
</linearGradient>
<linearGradient id="paint4_linear_795_40935" x1="343.005" y1="261.097" x2="213.658" y2="445.254" gradientUnits="userSpaceOnUse">
<stop stop-color="#8C610A"/>
<stop offset="0.2661" stop-color="#E4A663"/>
<stop offset="0.7285" stop-color="#FFEFAB"/>
<stop offset="1" stop-color="#F8B143"/>
</linearGradient>
<linearGradient id="paint5_linear_795_40935" x1="201.785" y1="452.158" x2="315.544" y2="277.25" gradientUnits="userSpaceOnUse">
<stop stop-color="#DDDDDD"/>
<stop offset="1" stop-color="#F9F9F9"/>
</linearGradient>
<linearGradient id="paint6_linear_795_40935" x1="389.324" y1="262.79" x2="234.397" y2="483.379" gradientUnits="userSpaceOnUse">
<stop stop-color="#DDDDDD"/>
<stop offset="1" stop-color="#ABABAB"/>
</linearGradient>
<linearGradient id="paint7_linear_795_40935" x1="321.383" y1="279.11" x2="301.528" y2="307.382" gradientUnits="userSpaceOnUse">
<stop stop-color="#303030"/>
<stop offset="1" stop-color="#727272"/>
</linearGradient>
<linearGradient id="paint8_linear_795_40935" x1="321.383" y1="441.516" x2="301.528" y2="469.788" gradientUnits="userSpaceOnUse">
<stop stop-color="#303030"/>
<stop offset="1" stop-color="#727272"/>
</linearGradient>
<linearGradient id="paint9_linear_795_40935" x1="232.837" y1="371.95" x2="212.981" y2="400.222" gradientUnits="userSpaceOnUse">
<stop stop-color="#303030"/>
<stop offset="1" stop-color="#727272"/>
</linearGradient>
<linearGradient id="paint10_linear_795_40935" x1="406.454" y1="322.692" x2="386.598" y2="350.964" gradientUnits="userSpaceOnUse">
<stop stop-color="#303030"/>
<stop offset="1" stop-color="#727272"/>
</linearGradient>
<linearGradient id="paint11_linear_795_40935" x1="373.477" y1="283.692" x2="353.622" y2="311.964" gradientUnits="userSpaceOnUse">
<stop stop-color="#303030"/>
<stop offset="1" stop-color="#727272"/>
</linearGradient>
<linearGradient id="paint12_linear_795_40935" x1="256.352" y1="433.368" x2="236.497" y2="461.64" gradientUnits="userSpaceOnUse">
<stop stop-color="#303030"/>
<stop offset="1" stop-color="#727272"/>
</linearGradient>
<linearGradient id="paint13_linear_795_40935" x1="380.735" y1="394.008" x2="360.879" y2="422.281" gradientUnits="userSpaceOnUse">
<stop stop-color="#303030"/>
<stop offset="1" stop-color="#727272"/>
</linearGradient>
<linearGradient id="paint14_linear_795_40935" x1="265.192" y1="312.844" x2="245.336" y2="341.117" gradientUnits="userSpaceOnUse">
<stop stop-color="#303030"/>
<stop offset="1" stop-color="#727272"/>
</linearGradient>
<linearGradient id="paint15_linear_795_40935" x1="399.269" y1="338.199" x2="267.641" y2="363.262" gradientUnits="userSpaceOnUse">
<stop stop-color="#DDDDDD"/>
<stop offset="1" stop-color="white"/>
</linearGradient>
<linearGradient id="paint16_linear_795_40935" x1="20.0939" y1="534.857" x2="214.335" y2="534.857" gradientUnits="userSpaceOnUse">
<stop stop-color="#B92222"/>
<stop offset="0.2473" stop-color="#DD2F2F"/>
<stop offset="0.8548" stop-color="#FF6757"/>
</linearGradient>
<linearGradient id="paint17_linear_795_40935" x1="1.89059" y1="573.648" x2="47.0017" y2="573.648" gradientUnits="userSpaceOnUse">
<stop stop-color="#B92222"/>
<stop offset="0.2473" stop-color="#DD2F2F"/>
<stop offset="0.8548" stop-color="#FF6757"/>
</linearGradient>
<linearGradient id="paint18_linear_795_40935" x1="710.323" y1="230.821" x2="436.92" y2="270.472" gradientUnits="userSpaceOnUse">
<stop stop-color="#F4F4F4"/>
<stop offset="1" stop-color="#ABABAB"/>
</linearGradient>
<linearGradient id="paint19_linear_795_40935" x1="710.074" y1="229.081" x2="436.67" y2="268.732" gradientUnits="userSpaceOnUse">
<stop stop-color="#F4F4F4"/>
<stop offset="1" stop-color="#ABABAB"/>
</linearGradient>
<linearGradient id="paint20_linear_795_40935" x1="710.357" y1="231.049" x2="436.953" y2="270.7" gradientUnits="userSpaceOnUse">
<stop stop-color="#F4F4F4"/>
<stop offset="1" stop-color="#ABABAB"/>
</linearGradient>
<linearGradient id="paint21_linear_795_40935" x1="710.359" y1="231.059" x2="436.956" y2="270.71" gradientUnits="userSpaceOnUse">
<stop stop-color="#F4F4F4"/>
<stop offset="1" stop-color="#ABABAB"/>
</linearGradient>
<linearGradient id="paint22_linear_795_40935" x1="710.362" y1="231.078" x2="436.959" y2="270.729" gradientUnits="userSpaceOnUse">
<stop stop-color="#F4F4F4"/>
<stop offset="1" stop-color="#ABABAB"/>
</linearGradient>
<linearGradient id="paint23_linear_795_40935" x1="710.365" y1="231.09" x2="436.962" y2="270.741" gradientUnits="userSpaceOnUse">
<stop stop-color="#F4F4F4"/>
<stop offset="1" stop-color="#ABABAB"/>
</linearGradient>
<linearGradient id="paint24_linear_795_40935" x1="710.328" y1="230.852" x2="436.925" y2="270.503" gradientUnits="userSpaceOnUse">
<stop stop-color="#F4F4F4"/>
<stop offset="1" stop-color="#ABABAB"/>
</linearGradient>
<linearGradient id="paint25_linear_795_40935" x1="711.117" y1="236.279" x2="437.713" y2="275.93" gradientUnits="userSpaceOnUse">
<stop stop-color="#F4F4F4"/>
<stop offset="1" stop-color="#ABABAB"/>
</linearGradient>
<linearGradient id="paint26_linear_795_40935" x1="425.855" y1="323.143" x2="680.149" y2="323.143" gradientUnits="userSpaceOnUse">
<stop stop-color="#DDDDDD"/>
<stop offset="1" stop-color="#ABABAB"/>
</linearGradient>
<linearGradient id="paint27_linear_795_40935" x1="446.439" y1="263.457" x2="436.098" y2="301.592" gradientUnits="userSpaceOnUse">
<stop stop-color="#B92222"/>
<stop offset="0.2473" stop-color="#DD2F2F"/>
<stop offset="0.8548" stop-color="#FF6757"/>
</linearGradient>
<linearGradient id="paint28_linear_795_40935" x1="438.123" y1="305.217" x2="441.926" y2="259.776" gradientUnits="userSpaceOnUse">
<stop stop-color="#B92222"/>
<stop offset="0.2473" stop-color="#DD2F2F"/>
<stop offset="0.8548" stop-color="#FF6757"/>
</linearGradient>
<linearGradient id="paint29_linear_795_40935" x1="452.153" y1="263.018" x2="458.12" y2="271.313" gradientUnits="userSpaceOnUse">
<stop stop-color="#303030"/>
<stop offset="1" stop-color="#727272"/>
</linearGradient>
<linearGradient id="paint30_linear_795_40935" x1="443.743" y1="293.256" x2="449.71" y2="301.552" gradientUnits="userSpaceOnUse">
<stop stop-color="#303030"/>
<stop offset="1" stop-color="#727272"/>
</linearGradient>
<linearGradient id="paint31_linear_795_40935" x1="425.523" y1="274.49" x2="431.491" y2="282.786" gradientUnits="userSpaceOnUse">
<stop stop-color="#303030"/>
<stop offset="1" stop-color="#727272"/>
</linearGradient>
<linearGradient id="paint32_linear_795_40935" x1="449.219" y1="420.711" x2="338.237" y2="501.425" gradientUnits="userSpaceOnUse">
<stop stop-color="#B92222"/>
<stop offset="0.2473" stop-color="#DD2F2F"/>
<stop offset="0.8548" stop-color="#FF6757"/>
</linearGradient>
<linearGradient id="paint33_linear_795_40935" x1="299.77" y1="457.032" x2="470.271" y2="457.032" gradientUnits="userSpaceOnUse">
<stop stop-color="#B92222"/>
<stop offset="0.2473" stop-color="#DD2F2F"/>
<stop offset="0.8548" stop-color="#FF6757"/>
</linearGradient>
<linearGradient id="paint34_linear_795_40935" x1="390.962" y1="538.45" x2="386.09" y2="458.218" gradientUnits="userSpaceOnUse">
<stop stop-color="white"/>
<stop offset="1" stop-color="#FF6757"/>
</linearGradient>
<linearGradient id="paint35_linear_795_40935" x1="268.973" y1="575.615" x2="349.29" y2="573.002" gradientUnits="userSpaceOnUse">
<stop stop-color="#82FB7C"/>
<stop offset="1" stop-color="#0BA2B3"/>
</linearGradient>
<linearGradient id="paint36_linear_795_40935" x1="316.86" y1="530.943" x2="284.681" y2="594.731" gradientUnits="userSpaceOnUse">
<stop stop-color="#82FB7C"/>
<stop offset="1" stop-color="#0BA2B3"/>
</linearGradient>
<linearGradient id="paint37_linear_795_40935" x1="295.648" y1="588.291" x2="349.731" y2="586.532" gradientUnits="userSpaceOnUse">
<stop stop-color="#0C775D"/>
<stop offset="1" stop-color="#0BA2B3"/>
</linearGradient>
<linearGradient id="paint38_linear_795_40935" x1="332.933" y1="599.574" x2="428.256" y2="596.472" gradientUnits="userSpaceOnUse">
<stop stop-color="#82FB7C"/>
<stop offset="1" stop-color="#0BA2B3"/>
</linearGradient>
<linearGradient id="paint39_linear_795_40935" x1="398.019" y1="536.871" x2="353.296" y2="625.526" gradientUnits="userSpaceOnUse">
<stop stop-color="#82FB7C"/>
<stop offset="1" stop-color="#0BA2B3"/>
</linearGradient>
<linearGradient id="paint40_linear_795_40935" x1="359.608" y1="612.25" x2="428.697" y2="610.002" gradientUnits="userSpaceOnUse">
<stop stop-color="#0C775D"/>
<stop offset="1" stop-color="#0BA2B3"/>
</linearGradient>
<linearGradient id="paint41_linear_795_40935" x1="396.93" y1="624.692" x2="503.7" y2="621.219" gradientUnits="userSpaceOnUse">
<stop stop-color="#82FB7C"/>
<stop offset="1" stop-color="#0BA2B3"/>
</linearGradient>
<linearGradient id="paint42_linear_795_40935" x1="476.22" y1="546.246" x2="420.525" y2="656.649" gradientUnits="userSpaceOnUse">
<stop stop-color="#82FB7C"/>
<stop offset="1" stop-color="#0BA2B3"/>
</linearGradient>
<linearGradient id="paint43_linear_795_40935" x1="423.606" y1="637.368" x2="504.141" y2="634.748" gradientUnits="userSpaceOnUse">
<stop stop-color="#0C775D"/>
<stop offset="1" stop-color="#0BA2B3"/>
</linearGradient>
<linearGradient id="paint44_linear_795_40935" x1="460.512" y1="637.019" x2="596.245" y2="632.603" gradientUnits="userSpaceOnUse">
<stop stop-color="#82FB7C"/>
<stop offset="1" stop-color="#0BA2B3"/>
</linearGradient>
<linearGradient id="paint45_linear_795_40935" x1="572.798" y1="524.136" x2="493.148" y2="682.027" gradientUnits="userSpaceOnUse">
<stop stop-color="#82FB7C"/>
<stop offset="1" stop-color="#0BA2B3"/>
</linearGradient>
<linearGradient id="paint46_linear_795_40935" x1="487.188" y1="649.695" x2="596.686" y2="646.133" gradientUnits="userSpaceOnUse">
<stop stop-color="#0C775D"/>
<stop offset="1" stop-color="#0BA2B3"/>
</linearGradient>
<linearGradient id="paint47_linear_795_40935" x1="525.233" y1="684.376" x2="647.527" y2="680.397" gradientUnits="userSpaceOnUse">
<stop stop-color="#82FB7C"/>
<stop offset="1" stop-color="#0BA2B3"/>
</linearGradient>
<linearGradient id="paint48_linear_795_40935" x1="622.696" y1="586.576" x2="553.53" y2="723.683" gradientUnits="userSpaceOnUse">
<stop stop-color="#82FB7C"/>
<stop offset="1" stop-color="#0BA2B3"/>
</linearGradient>
<linearGradient id="paint49_linear_795_40935" x1="551.909" y1="697.052" x2="647.968" y2="693.927" gradientUnits="userSpaceOnUse">
<stop stop-color="#0C775D"/>
<stop offset="1" stop-color="#0BA2B3"/>
</linearGradient>
<linearGradient id="paint50_linear_795_40935" x1="745.24" y1="494.554" x2="666.476" y2="541.79" gradientUnits="userSpaceOnUse">
<stop stop-color="#77F381"/>
<stop offset="1" stop-color="#2DBBA3"/>
</linearGradient>
<linearGradient id="paint51_linear_795_40935" x1="655.946" y1="498.361" x2="704.366" y2="529.166" gradientUnits="userSpaceOnUse">
<stop stop-color="#77F381"/>
<stop offset="1" stop-color="#2DBBA3"/>
</linearGradient>
<linearGradient id="paint52_linear_795_40935" x1="240.533" y1="640.449" x2="185.545" y2="673.426" gradientUnits="userSpaceOnUse">
<stop stop-color="#FF9D00"/>
<stop offset="1" stop-color="#FFE84C"/>
</linearGradient>
<linearGradient id="paint53_linear_795_40935" x1="178.196" y1="643.106" x2="212" y2="664.613" gradientUnits="userSpaceOnUse">
<stop stop-color="#FF9D00"/>
<stop offset="1" stop-color="#FFE84C"/>
</linearGradient>
<linearGradient id="paint54_linear_795_40935" x1="436.216" y1="179.831" x2="357.683" y2="178.421" gradientUnits="userSpaceOnUse">
<stop stop-color="#8C610A"/>
<stop offset="0.2661" stop-color="#E4A663"/>
<stop offset="0.7285" stop-color="#FFEFAB"/>
<stop offset="1" stop-color="#F8B143"/>
</linearGradient>
<linearGradient id="paint55_linear_795_40935" x1="453.057" y1="160.315" x2="358.34" y2="185.126" gradientUnits="userSpaceOnUse">
<stop stop-color="#8C610A"/>
<stop offset="0.2661" stop-color="#E4A663"/>
<stop offset="0.7285" stop-color="#FFEFAB"/>
<stop offset="1" stop-color="#F8B143"/>
</linearGradient>
<linearGradient id="paint56_linear_795_40935" x1="381.25" y1="207.582" x2="353.752" y2="207.088" gradientUnits="userSpaceOnUse">
<stop stop-color="#8C610A"/>
<stop offset="0.6692" stop-color="#E4A663"/>
<stop offset="1" stop-color="#FFEFAB"/>
</linearGradient>
<linearGradient id="paint57_linear_795_40935" x1="419.185" y1="217.929" x2="383.6" y2="209.856" gradientUnits="userSpaceOnUse">
<stop stop-color="#8C610A"/>
<stop offset="0.6692" stop-color="#E4A663"/>
<stop offset="1" stop-color="#FFEFAB"/>
</linearGradient>
<linearGradient id="paint58_linear_795_40935" x1="446.817" y1="183.521" x2="418.767" y2="177.158" gradientUnits="userSpaceOnUse">
<stop stop-color="#8C610A"/>
<stop offset="0.6692" stop-color="#E4A663"/>
<stop offset="1" stop-color="#FFEFAB"/>
</linearGradient>
<linearGradient id="paint59_linear_795_40935" x1="365.546" y1="168.062" x2="336.665" y2="161.51" gradientUnits="userSpaceOnUse">
<stop stop-color="#8C610A"/>
<stop offset="0.6692" stop-color="#E4A663"/>
<stop offset="1" stop-color="#FFEFAB"/>
</linearGradient>
<linearGradient id="paint60_linear_795_40935" x1="384.653" y1="194.471" x2="354.621" y2="209.258" gradientUnits="userSpaceOnUse">
<stop stop-color="#8C610A"/>
<stop offset="0.2661" stop-color="white"/>
<stop offset="1" stop-color="#FFEFAB"/>
</linearGradient>
<linearGradient id="paint61_linear_795_40935" x1="445.182" y1="154.282" x2="401.01" y2="176.03" gradientUnits="userSpaceOnUse">
<stop stop-color="#8C610A"/>
<stop offset="0.2661" stop-color="white"/>
<stop offset="1" stop-color="#FFEFAB"/>
</linearGradient>
<linearGradient id="paint62_linear_795_40935" x1="732.794" y1="334.378" x2="777.158" y2="381.985" gradientUnits="userSpaceOnUse">
<stop stop-color="#FF9D00"/>
<stop offset="1" stop-color="#FFE84C"/>
</linearGradient>
<linearGradient id="paint63_linear_795_40935" x1="809.522" y1="372.653" x2="735.396" y2="345.965" gradientUnits="userSpaceOnUse">
<stop stop-color="#FF9D00"/>
<stop offset="1" stop-color="#FFE84C"/>
</linearGradient>
<linearGradient id="paint64_linear_795_40935" x1="764.52" y1="733.928" x2="645.641" y2="752.099" gradientUnits="userSpaceOnUse">
<stop stop-color="#B92222"/>
<stop offset="0.2473" stop-color="#DD2F2F"/>
<stop offset="0.8548" stop-color="#FF6757"/>
</linearGradient>
<linearGradient id="paint65_linear_795_40935" x1="675.095" y1="688.975" x2="715.8" y2="758.426" gradientUnits="userSpaceOnUse">
<stop stop-color="#B92222"/>
<stop offset="0.2473" stop-color="#DD2F2F"/>
<stop offset="0.8548" stop-color="#FF6757"/>
</linearGradient>
<linearGradient id="paint66_linear_795_40935" x1="731.316" y1="779.39" x2="643.497" y2="719.392" gradientUnits="userSpaceOnUse">
<stop stop-color="#B92222"/>
<stop offset="0.2473" stop-color="white"/>
<stop offset="0.8548" stop-color="#FF6757"/>
</linearGradient>
<clipPath id="clip0_795_40935">
<rect width="811.654" height="955.77" fill="white"/>
</clipPath>
</defs>
</svg>
