<svg width="37" height="36" viewBox="0 0 37 36" fill="none" xmlns="http://www.w3.org/2000/svg">
<mask id="mask0_1134_3240" style="mask-type:alpha" maskUnits="userSpaceOnUse" x="0" y="0" width="37" height="36">
<rect x="0.875" y="0.492188" width="35.493" height="35.493" fill="#D9D9D9"/>
</mask>
<g mask="url(#mask0_1134_3240)">
<path d="M12.7069 25.6339C13.1259 25.6339 13.4771 25.4922 13.7606 25.2087C14.044 24.9253 14.1857 24.5741 14.1857 24.155C14.1857 23.736 14.044 23.3848 13.7606 23.1013C13.4771 22.8179 13.1259 22.6762 12.7069 22.6762C12.2879 22.6762 11.9366 22.8179 11.6532 23.1013C11.3697 23.3848 11.228 23.736 11.228 24.155C11.228 24.5741 11.3697 24.9253 11.6532 25.2087C11.9366 25.4922 12.2879 25.6339 12.7069 25.6339ZM12.7069 19.7184C13.1259 19.7184 13.4771 19.5767 13.7606 19.2932C14.044 19.0098 14.1857 18.6586 14.1857 18.2395C14.1857 17.8205 14.044 17.4693 13.7606 17.1858C13.4771 16.9024 13.1259 16.7607 12.7069 16.7607C12.2879 16.7607 11.9366 16.9024 11.6532 17.1858C11.3697 17.4693 11.228 17.8205 11.228 18.2395C11.228 18.6586 11.3697 19.0098 11.6532 19.2932C11.9366 19.5767 12.2879 19.7184 12.7069 19.7184ZM12.7069 13.8029C13.1259 13.8029 13.4771 13.6612 13.7606 13.3778C14.044 13.0943 14.1857 12.7431 14.1857 12.3241C14.1857 11.905 14.044 11.5538 13.7606 11.2704C13.4771 10.9869 13.1259 10.8452 12.7069 10.8452C12.2879 10.8452 11.9366 10.9869 11.6532 11.2704C11.3697 11.5538 11.228 11.905 11.228 12.3241C11.228 12.7431 11.3697 13.0943 11.6532 13.3778C11.9366 13.6612 12.2879 13.8029 12.7069 13.8029ZM17.1435 25.6339H26.0167V22.6762H17.1435V25.6339ZM17.1435 19.7184H26.0167V16.7607H17.1435V19.7184ZM17.1435 13.8029H26.0167V10.8452H17.1435V13.8029ZM8.27025 31.5494C7.45687 31.5494 6.76056 31.2598 6.18134 30.6806C5.60211 30.1013 5.3125 29.405 5.3125 28.5917V7.88743C5.3125 7.07405 5.60211 6.37775 6.18134 5.79853C6.76056 5.2193 7.45687 4.92969 8.27025 4.92969H28.9745C29.7878 4.92969 30.4842 5.2193 31.0634 5.79853C31.6426 6.37775 31.9322 7.07405 31.9322 7.88743V28.5917C31.9322 29.405 31.6426 30.1013 31.0634 30.6806C30.4842 31.2598 29.7878 31.5494 28.9745 31.5494H8.27025ZM8.27025 28.5917H28.9745V7.88743H8.27025V28.5917Z" fill="#4C4C61"/>
</g>
</svg>
