<svg width="68" height="96" viewBox="0 0 68 96" fill="none" xmlns="http://www.w3.org/2000/svg">
<path d="M0.265625 1.06464C0.265625 0.908625 0.391885 0.781738 0.547895 0.781738C0.558025 0.781738 0.565625 0.781738 0.575125 0.781738C4.17 0.808964 7.76487 0.836317 11.1814 0.866076C14.6127 0.895835 17.8758 0.933318 20.7964 0.975108C26.6384 1.06198 31.1225 1.18063 35.602 1.29726C35.6071 1.29726 35.6122 1.29726 35.6166 1.29726H35.6242C38.9146 1.38857 42.2045 1.47797 46.0447 2.62729C48.0686 3.23488 50.244 4.1336 52.325 5.29812C54.1979 6.34652 55.9966 7.60487 57.5379 9.0566C59.1082 10.5306 60.4141 12.2031 61.4892 14.0068C62.6536 15.9565 63.5479 18.0621 64.2145 20.2426C64.8513 22.3285 65.2825 24.4837 65.5077 26.6789C65.736 28.8988 65.7531 31.1611 65.5673 33.4399C65.3764 35.7662 64.973 38.1129 64.3509 40.36C63.7566 42.498 62.9637 44.5492 61.9674 46.4075C61.016 48.1815 59.8839 49.7766 58.6921 51.1642C57.3146 52.7669 55.8577 54.0874 54.5201 55.0711C53.2687 55.9901 52.1195 56.6123 51.0242 57.0855C50.0456 57.5067 49.1119 57.8111 48.1828 58.101C50.326 62.1938 52.4665 66.282 54.4707 70.1197C56.5618 74.1255 58.4842 77.8098 60.0596 80.8491C63.3056 87.1128 65.4164 91.2697 67.5272 95.422C67.5519 95.4639 67.5665 95.5165 67.5665 95.5685C67.5665 95.7245 67.4402 95.8508 67.2842 95.8508H58.6129C58.4969 95.8508 58.3947 95.7791 58.3529 95.677C56.2567 91.55 54.1561 87.4174 50.3532 80.1039C48.351 76.2535 46.062 71.8759 43.6291 67.2309C41.1098 62.4195 38.3795 57.2195 35.6492 52.0186C35.5775 51.8803 35.6295 51.7117 35.7684 51.64C35.8102 51.6178 35.8521 51.6077 35.8972 51.6077C35.9093 51.6077 35.9219 51.6077 35.934 51.6102C37.666 51.7142 39.4 51.8183 41.5406 51.4713C42.693 51.2856 43.9685 50.9683 45.2668 50.4807C46.3844 50.0595 47.5165 49.5141 48.6067 48.8158C49.813 48.0402 50.9653 47.0787 52.003 45.9466C52.9917 44.869 53.8784 43.6354 54.6148 42.2655C55.3505 40.8879 55.9372 39.3688 56.3787 37.7833C56.8416 36.1108 57.1416 34.3667 57.285 32.6302C57.4239 30.9304 57.4093 29.2459 57.2405 27.5962C57.0744 25.9611 56.7548 24.3578 56.279 22.8096C55.7863 21.1968 55.1247 19.6385 54.2627 18.1962C53.4726 16.8687 52.5085 15.6371 51.3541 14.552C50.1522 13.4224 48.7429 12.4514 47.0134 11.6459C45.2743 10.8359 43.2104 10.1967 40.7154 9.74067C38.2108 9.28277 35.2628 9.00493 32.072 8.82929C28.8659 8.65302 25.4271 8.57628 21.9388 8.51727C18.4378 8.45509 14.8931 8.4133 11.3203 8.37835C7.75017 8.34353 4.16049 8.31617 0.570685 8.29148C0.563095 8.29148 0.555495 8.29148 0.547895 8.29148C0.391885 8.29148 0.265625 8.16523 0.265625 8.00921V1.06198V1.06464Z" fill="#263D90"/>
<path d="M23.2619 81.3377C23.1554 81.2287 23.1579 81.0529 23.267 80.9439C23.376 80.8322 23.5568 80.8322 23.6659 80.9439C24.9687 82.116 26.2745 83.2874 27.5506 84.115C28.1917 84.5312 28.8261 84.8609 29.4507 85.1013C30.0628 85.3365 30.6697 85.485 31.264 85.5471C31.8735 85.6087 32.4709 85.5744 32.9961 85.4432C33.4717 85.3239 33.8828 85.121 34.1726 84.8362C34.4676 84.5489 34.6457 84.1646 34.72 83.6692C34.8018 83.1415 34.7649 82.4876 34.6236 81.6923C34.4802 80.8766 34.2272 79.9158 33.9203 78.8801C33.6076 77.8349 33.2435 76.725 32.8795 75.6125C32.8325 75.4634 32.9119 75.3049 33.0602 75.2579C33.1991 75.2136 33.3431 75.2776 33.4021 75.4044L44.0604 94.8946C44.1397 94.9568 44.1842 95.0582 44.1695 95.1648C44.1448 95.3183 44.0008 95.4223 43.8473 95.4001L43.8201 95.395H43.8125C43.3717 95.3259 42.9505 95.2466 42.5396 95.1547C42.1083 95.0609 41.672 94.9492 41.2209 94.8205C40.0819 94.4958 38.8578 94.0525 37.6191 93.5025C36.4693 92.9919 35.3149 92.39 34.2152 91.7089C33.0704 90.9953 31.9826 90.195 30.957 89.3477C29.9314 88.4978 28.9675 87.6061 28.0732 86.7118C26.2941 84.9327 24.7783 83.1365 23.2594 81.3404L23.2619 81.3377Z" fill="#263D90"/>
<path d="M9.7918 85.0766C9.1328 84.0579 8.50554 83.0154 7.88149 81.972C7.84907 81.9175 7.83451 81.8553 7.8416 81.7939C7.84667 81.7418 7.8663 81.6847 7.90125 81.6448C7.91391 81.6303 7.92847 81.6157 7.94367 81.603C7.95317 81.5929 7.96583 81.5859 7.97799 81.5783C8.07955 81.5187 8.21074 81.5288 8.30268 81.6081C10.1781 83.2032 12.051 84.8015 13.9836 85.8175C14.8931 86.2931 15.8172 86.6445 16.6918 86.8798C17.6577 87.1398 18.5571 87.2591 19.2979 87.2515C20.6703 87.2395 21.5152 86.786 22.3549 86.3275C22.4469 86.2678 22.5706 86.2659 22.667 86.33C23.5739 86.9445 24.4834 87.5591 25.5959 88.5301C26.1952 89.0553 26.8517 89.6793 27.4561 90.3314C27.9768 90.8913 28.4594 91.4755 28.8463 92.0381C29.2673 92.6552 29.5643 93.2425 29.8021 93.8147C30.0399 94.3893 30.2163 94.9366 30.3894 95.4871C30.3996 95.5188 30.4046 95.5537 30.4021 95.5885C30.392 95.7446 30.2581 95.8632 30.1021 95.8537C28.9529 95.7795 27.8004 95.7072 26.6487 95.5982C25.5014 95.4896 24.3794 95.3483 23.3037 95.1377C22.2236 94.9271 21.1834 94.6444 20.1699 94.2657C19.1563 93.8865 18.1751 93.4108 17.2169 92.8165C16.275 92.2267 15.351 91.5208 14.4719 90.728C13.57 89.9149 12.7124 89.0085 11.9273 88.0445C11.1567 87.0979 10.4552 86.1022 9.7918 85.0766Z" fill="#263D90"/>
<path d="M0.946248 92.9253L0.547858 88.1806C0.537728 88.0594 0.606868 87.9478 0.710838 87.9009C1.17697 87.6428 1.6426 87.3827 2.10114 87.0878C2.55652 86.7935 3.00049 86.4662 3.41914 86.0723C4.26898 85.2744 5.04664 84.1842 5.82227 83.092C5.87685 83.0152 5.96372 82.9727 6.05249 82.9752H6.06515C6.11973 82.9777 6.17431 82.9948 6.21863 83.0298C6.27068 83.0692 6.3055 83.1217 6.3226 83.1782L6.32513 83.1909C6.86484 84.8856 7.40518 86.5802 8.39407 88.4925C9.3873 90.4154 10.8467 92.5757 12.3035 94.7334V94.7359C12.3923 94.8647 12.3555 95.041 12.2268 95.1272C12.197 95.1468 12.1671 95.1595 12.1348 95.1671C11.0445 95.4639 9.9524 95.7588 8.49309 95.7392C7.76685 95.7291 6.95703 95.6403 6.16671 95.4913C5.36879 95.3429 4.59063 95.1348 3.93923 94.8894C3.28529 94.644 2.75761 94.3566 2.29401 94.0522C1.83103 93.7497 1.44214 93.4326 1.05275 93.118C0.991198 93.0685 0.956378 92.9968 0.948778 92.9226L0.946248 92.9253Z" fill="#263D90"/>
<path d="M0.575632 46.199C0.414302 44.0852 0.252972 41.9738 0.433932 39.6715C0.531062 38.4457 0.724182 37.1703 1.03671 35.9495C1.31492 34.8627 1.68963 33.816 2.17552 32.8855C3.13591 31.0493 4.51292 29.69 5.91982 28.3625C5.42886 28.1789 4.94487 27.9929 4.4881 27.7896C3.87773 27.5217 3.30231 27.2212 2.78843 26.8591C1.76396 26.1369 1.01948 25.1893 0.275132 24.2416C0.178512 24.1197 0.200802 23.9411 0.322112 23.8472C0.397082 23.7875 0.493582 23.7722 0.580572 23.797C2.33229 24.2587 4.08604 24.7199 5.94704 24.8691C7.31899 24.9809 8.75818 24.9262 10.2172 24.8246C9.5027 24.5864 8.77034 24.2688 8.01142 23.7652C7.29936 23.2907 6.56514 22.6538 5.92235 21.8324C5.38125 21.1401 4.90485 20.3189 4.56256 19.3585C3.82327 17.2841 3.71652 14.5752 3.60724 11.8656C3.60281 11.7119 3.72412 11.5804 3.87785 11.5728C3.98714 11.5703 4.08363 11.6274 4.13568 11.7171L4.14074 11.7247C4.92967 13.1309 5.7191 14.5378 6.87767 15.7662C7.45563 16.3816 8.12577 16.9546 8.84733 17.4583C9.5721 17.9619 10.3488 18.3982 11.1327 18.7336C11.912 19.0683 12.7009 19.3039 13.4973 19.4926C14.0829 19.6293 14.673 19.7409 15.2637 19.8477C14.7327 19.036 14.2437 18.2173 14.0011 17.354C13.8518 16.818 13.7972 16.2749 13.7927 15.7236C13.7851 15.1756 13.8245 14.642 13.8645 14.1084C13.8766 13.9522 14.0132 13.8359 14.1694 13.8481C14.2563 13.8557 14.3332 13.9001 14.3802 13.97C15.2637 15.1927 16.1491 16.4135 17.6824 17.2202C19.0696 17.9468 21.015 18.3615 23.0222 18.7408C22.4512 18.0243 21.9227 17.2894 21.588 16.4708C21.3747 15.9449 21.2431 15.3891 21.1536 14.8162C21.0621 14.2426 21.0169 13.6799 20.9699 13.114C20.9578 12.9577 21.0716 12.8212 21.2284 12.809C21.3345 12.8014 21.4316 12.8509 21.4862 12.9354C22.5235 14.2724 23.56 15.61 24.9694 16.7063C25.6789 17.257 26.4855 17.7537 27.3418 18.2225C28.0111 18.5871 28.7207 18.9396 29.4353 19.2895C29.4035 19.1879 29.3761 19.0812 29.3489 18.9744C29.267 18.6366 29.2175 18.2847 29.232 17.9099C29.2472 17.5403 29.3241 17.1528 29.4308 16.7585C29.542 16.3589 29.6735 15.9773 29.8049 15.5948C29.8551 15.4462 30.0157 15.3668 30.165 15.4188C30.2539 15.4487 30.3188 15.5205 30.3435 15.6075C30.567 16.2204 30.7875 16.8308 31.0828 17.4508C31.3755 18.0662 31.7426 18.6913 32.2565 19.3339L32.2687 19.3512C33.0753 20.356 34.2561 21.4205 35.2908 22.356C35.581 22.6191 35.8618 22.8693 36.1318 23.1202C36.7326 23.6785 37.2135 24.1625 37.6181 24.661C38.0252 25.1672 38.3504 25.688 38.633 26.3106C38.9106 26.926 39.1488 27.6431 39.3647 28.4123C39.5661 29.1166 39.7497 29.8858 39.9357 30.6576C40.3028 30.8411 40.6699 31.0298 41.0244 31.2458C41.429 31.4916 41.8234 31.7768 42.1981 32.1389C42.5951 32.5283 42.9698 33.0026 43.2626 33.5559C43.5206 34.0418 43.7193 34.595 43.8235 35.2029C43.9328 35.8533 43.9302 36.5653 43.8209 37.2798C43.7142 37.9816 43.5033 38.6918 43.1933 39.3466C42.8853 39.9989 42.4807 40.5991 41.9948 41.1402C41.4962 41.6935 40.9131 42.1895 40.2601 42.6163C38.9853 43.4503 37.452 44.0282 35.9208 44.6062C35.7747 44.6608 35.6133 44.5864 35.5587 44.4398C35.5168 44.333 35.5467 44.2168 35.6209 44.1426V44.14C35.6304 44.1299 35.6407 44.1222 35.6527 44.1127C36.432 43.4503 37.2088 42.7877 37.717 42.063C37.9729 41.7009 38.1616 41.3212 38.2707 40.9318C38.3749 40.5621 38.4067 40.1822 38.3596 39.798C38.3152 39.4404 38.2008 39.0758 38.0548 38.731C37.8661 38.2946 37.6254 37.8875 37.3994 37.5648C36.9929 36.9894 36.6353 36.682 36.2757 36.374C36.1887 36.2997 36.1563 36.1802 36.1887 36.0761L36.7077 34.3619C36.7521 34.2107 36.9084 34.1262 37.0596 34.1732C37.0971 34.1834 37.1295 34.2031 37.1593 34.2253C37.8612 34.7417 38.5655 35.2575 39.186 36.0913C39.6999 36.7811 40.1388 37.6716 40.5681 38.5945C40.7415 38.1924 40.8908 37.7758 40.9626 37.3146C41.0172 36.9697 41.0293 36.595 40.9994 36.2152C40.9702 35.8531 40.9003 35.493 40.7886 35.1583C40.6723 34.8134 40.5085 34.4934 40.3078 34.2227C40.1191 33.97 39.8981 33.7617 39.6479 33.6149C39.3919 33.4637 39.0965 33.3767 38.7866 33.3202C38.464 33.2606 38.1095 33.2332 37.7544 33.2084C37.6605 33.2033 37.5811 33.1488 37.5335 33.0744C37.0697 32.4043 36.6055 31.7343 36.0377 31.2928C35.762 31.0769 35.4545 30.911 35.0996 30.7892C34.7401 30.6679 34.3285 30.591 33.8496 30.5561C33.5911 30.5363 33.3332 30.5287 33.0652 30.5211C32.2046 30.4988 31.2341 30.4741 30.3042 30.1191C29.0683 29.6452 27.9592 28.6157 26.8478 27.586C26.7334 27.4793 26.7264 27.3008 26.8331 27.1865C26.8947 27.1197 26.9868 27.09 27.0738 27.1001L27.0985 27.102C28.4578 27.276 29.8176 27.4494 31.2569 27.7004C31.9759 27.8242 32.7355 27.9735 33.5117 28.1298C34.0631 28.2435 34.5865 28.3528 35.0996 28.4619C34.6657 27.9011 34.1697 27.3257 33.4475 26.7077C32.9165 26.2561 32.2643 25.7797 31.5172 25.3383C30.8745 24.961 30.1625 24.6091 29.3959 24.3239C28.5772 24.0184 27.6911 23.7879 26.7981 23.6342C25.8853 23.4773 24.9645 23.4029 24.1012 23.4182C23.2552 23.4304 22.4586 23.5275 21.7143 23.7155C20.9725 23.9041 20.2852 24.1849 19.6526 24.5615C19.0327 24.9318 18.4592 25.3979 17.9409 25.9366C17.3972 26.4994 16.9158 27.1422 16.5066 27.8345C16.1764 28.3877 15.8937 28.9758 15.6035 29.5735C15.1646 30.4741 14.7181 31.3996 14.0848 32.2926C13.5639 33.0249 12.9262 33.7267 12.2168 34.372C11.475 35.0441 10.6511 35.6595 9.7975 36.1854C9.0085 36.6745 8.20504 37.081 7.43081 37.4735C6.58477 37.8998 5.77558 38.3095 5.08391 38.7756C4.43605 39.2126 3.88279 39.7036 3.41855 40.2447C2.95229 40.7851 2.57758 41.3733 2.28227 42.006C1.9876 42.6412 1.76903 43.324 1.5906 44.0334C1.41154 44.7531 1.273 45.4924 1.13396 46.2316C1.10661 46.3828 0.957432 46.4844 0.806232 46.457C0.677322 46.432 0.585772 46.3228 0.575632 46.199Z" fill="#24AAE2"/>
<path d="M19.0623 35.9496V35.9445C19.033 35.8207 19.0896 35.6866 19.2114 35.6269C19.3505 35.5602 19.5189 35.6175 19.5881 35.7565C20.0644 36.7188 20.5389 37.6817 21.2235 38.6592C21.5856 39.18 22.0124 39.7059 22.4963 40.1975C22.9129 40.6244 23.3741 41.0213 23.8778 41.3612C24.4315 41.7359 25.0318 42.0383 25.667 42.2466C26.2621 42.4403 26.8852 42.5495 27.5254 42.552C28.1701 42.5546 28.8351 42.4524 29.4779 42.2687C30.1651 42.0756 30.825 41.7949 31.4005 41.4577C31.9563 41.1325 32.4353 40.7578 32.874 40.3563C33.3161 39.9543 33.7226 39.5223 34.1247 39.093C34.2066 38.9965 34.3483 38.9616 34.467 39.0212C34.606 39.0886 34.6658 39.2569 34.5959 39.3985C34.0973 40.4256 33.5961 41.4526 33.0753 42.3806C32.5468 43.3212 31.9986 44.1546 31.408 44.782C30.8052 45.4248 30.1599 45.8465 29.4874 46.107C28.8153 46.3655 28.1129 46.4596 27.3913 46.4398C26.6565 46.4219 25.8974 46.2886 25.1708 46.0327C24.4836 45.7894 23.8212 45.4375 23.2253 44.9707C22.6373 44.5097 22.1164 43.9335 21.6596 43.2786C21.1712 42.5819 20.759 41.7999 20.4242 40.9762C19.7865 39.4035 19.4244 37.6765 19.0644 35.9521L19.0623 35.9496Z" fill="#24AAE2"/>
<path d="M0.547362 85.6657V85.6587C0.653352 78.4118 0.759852 71.1677 0.811902 65.3727C0.864582 59.6867 0.864582 55.2693 0.864582 50.855C0.864582 50.6984 0.990832 50.5721 1.14685 50.5721C1.27816 50.5721 1.38973 50.6615 1.42151 50.7827C2.15979 53.0545 2.90059 55.3264 3.71611 57.1701C4.12197 58.0866 4.54569 58.8965 5.01626 59.6005C5.47986 60.2988 5.98791 60.8936 6.56511 61.3865C7.48409 62.1743 8.59656 62.7172 9.7483 63.2074C8.98533 62.1297 8.26225 61.0345 7.73204 59.8427C7.39456 59.0899 7.13965 58.3021 6.9735 57.5189C6.80989 56.7464 6.73568 55.9784 6.76291 55.2547C6.7928 54.5189 6.92399 53.8301 7.17194 53.1833C7.41735 52.5344 7.77889 51.925 8.26668 51.3503C8.73282 50.7954 9.3125 50.2747 9.9271 49.7248C10.5461 49.1698 11.1975 48.5851 11.7899 47.9116C12.3328 47.2894 12.8332 46.5861 13.2791 45.8427C13.7821 45.0081 14.2204 44.1259 14.592 43.2588C14.9441 42.4311 15.2339 41.6186 15.4964 40.8113C15.7515 40.016 15.9868 39.1984 16.2195 38.3829C16.2619 38.232 16.4179 38.1451 16.569 38.1875C16.6831 38.2198 16.76 38.3188 16.7726 38.4329C16.9109 39.5922 17.0524 40.7542 17.2654 41.9212C17.481 43.0926 17.7709 44.2895 18.2193 45.5382C18.6601 46.7719 19.2525 48.0549 19.9634 49.3386C20.6941 50.6591 21.5439 51.9795 22.4825 53.2505C23.3648 54.4448 24.3187 55.5915 25.2554 56.7166C26.3152 57.9946 27.351 59.2384 28.2206 60.4751C29.0482 61.6542 29.7319 62.8262 30.2946 63.9679C30.8571 65.1076 31.3004 66.2176 31.6518 67.2704C32.3507 69.3741 32.6705 71.23 32.9901 73.0825V73.085C33.0173 73.2366 32.9133 73.385 32.7618 73.4097C32.6603 73.4268 32.5613 73.3901 32.4993 73.3159C31.8879 72.6988 31.2757 72.0817 30.6168 71.4499C29.9597 70.8208 29.2539 70.1764 28.4515 69.5104C27.849 69.0049 27.225 68.5141 26.5881 68.0085C25.4434 67.1073 24.2542 66.1679 23.2013 65.1944C21.9107 64.0026 20.8159 62.7539 19.7675 61.4955C20.3174 63.2517 20.9148 65.0187 21.7547 66.8294C22.2994 68.006 22.9489 69.2003 23.6923 70.3672C24.3855 71.455 25.1663 72.523 26.0307 73.5308C26.93 74.5817 27.9137 75.5673 28.9419 76.5187C29.9649 77.4655 31.0501 78.3992 32.1378 79.3334C32.2546 79.4348 32.2692 79.6106 32.1676 79.7297C32.0959 79.8166 31.9792 79.8484 31.8777 79.8191C30.5597 79.497 29.2444 79.1773 27.8642 78.7834C26.4593 78.3845 24.9677 77.9037 23.2983 77.267C20.1887 76.0777 16.46 74.3387 12.6945 72.5621C13.5292 74.0685 14.4336 75.597 15.7985 77.2771C16.5989 78.2627 17.5628 79.3035 18.6057 80.3734C19.6515 81.4465 20.7786 82.5488 21.9081 83.6493C22.0197 83.7578 22.0222 83.9366 21.9132 84.0475C21.8365 84.1268 21.7274 84.1521 21.6309 84.1224C21.6309 84.1224 21.6183 84.1173 21.6157 84.1173C18.4718 83.2528 15.3279 82.3852 12.7567 80.9785C11.461 80.2675 10.3162 79.4271 9.2481 78.5208C8.29163 77.7102 7.39734 76.8458 6.50812 75.9736C6.09707 76.9523 5.68298 77.9309 5.25167 78.8969C4.77856 79.9573 4.30787 80.9511 3.8373 81.808C3.36673 82.6705 2.89857 83.3936 2.43496 84.0475C1.96946 84.7021 1.50838 85.2817 1.04984 85.8614C0.953482 85.9826 0.775182 86.0029 0.653482 85.9059C0.576622 85.8464 0.542302 85.7551 0.547362 85.6657Z" fill="#263D90"/>
</svg>
