<svg width="31" height="31" viewBox="0 0 31 31" fill="none" xmlns="http://www.w3.org/2000/svg">
<mask id="mask0_6189_2180" style="mask-type:alpha" maskUnits="userSpaceOnUse" x="0" y="0" width="31" height="31">
<rect x="0.21875" y="0.25" width="30.4679" height="30.4679" fill="#D9D9D9"/>
</mask>
<g mask="url(#mask0_6189_2180)">
<path d="M5.29681 25.6401C4.59858 25.6401 4.00086 25.3915 3.50364 24.8943C3.00642 24.397 2.75781 23.7993 2.75781 23.1011V7.86712C2.75781 7.1689 3.00642 6.57118 3.50364 6.07396C4.00086 5.57674 4.59858 5.32812 5.29681 5.32812H25.6088C26.307 5.32812 26.9047 5.57674 27.4019 6.07396C27.8992 6.57118 28.1478 7.1689 28.1478 7.86712V23.1011C28.1478 23.7993 27.8992 24.397 27.4019 24.8943C26.9047 25.3915 26.307 25.6401 25.6088 25.6401H5.29681ZM15.4528 16.7536L5.29681 10.4061V23.1011H25.6088V10.4061L15.4528 16.7536ZM15.4528 14.2146L25.6088 7.86712H5.29681L15.4528 14.2146ZM5.29681 10.4061V7.86712V23.1011V10.4061Z" fill="#030229"/>
</g>
</svg>
