<svg width="15" height="15" viewBox="0 0 15 15" fill="none" xmlns="http://www.w3.org/2000/svg">
<path d="M12.303 8.19746C12.303 4.99018 9.8143 2.8111 7.04517 2.8111C4.30525 2.8111 1.78733 4.94344 1.78733 8.23251C1.43681 8.43114 1.20312 8.80503 1.20312 9.23734V10.4057C1.20312 11.0484 1.72891 11.5742 2.37153 11.5742C2.69285 11.5742 2.95574 11.3113 2.95574 10.99V8.17993C2.95574 5.94243 4.67914 3.98535 6.91664 3.92108C7.46425 3.90443 8.00962 3.99787 8.52045 4.19586C9.03128 4.39385 9.49717 4.69237 9.89051 5.07373C10.2839 5.45508 10.5966 5.91151 10.8103 6.41597C11.024 6.92043 11.1343 7.46266 11.1346 8.01051V12.1584H7.04517C6.72386 12.1584 6.46096 12.4213 6.46096 12.7426C6.46096 13.0639 6.72386 13.3268 7.04517 13.3268H11.1346C11.7772 13.3268 12.303 12.801 12.303 12.1584V11.4456C12.6477 11.2645 12.8872 10.9082 12.8872 10.4875V9.14387C12.8872 8.73493 12.6477 8.37856 12.303 8.19746Z" fill="#4C4C61"/>
<path d="M5.29233 9.23948C5.61557 9.23948 5.87762 8.97744 5.87762 8.65419C5.87762 8.33094 5.61557 8.06889 5.29233 8.06889C4.96908 8.06889 4.70703 8.33094 4.70703 8.65419C4.70703 8.97744 4.96908 9.23948 5.29233 9.23948Z" fill="#4C4C61"/>
<path d="M8.80209 9.23948C9.12534 9.23948 9.38738 8.97744 9.38738 8.65419C9.38738 8.33094 9.12534 8.06889 8.80209 8.06889C8.47884 8.06889 8.2168 8.33094 8.2168 8.65419C8.2168 8.97744 8.47884 9.23948 8.80209 9.23948Z" fill="#4C4C61"/>
<path d="M10.5483 7.50217C10.409 6.68086 9.98362 5.93531 9.34745 5.3975C8.71127 4.85969 7.90534 4.56431 7.07229 4.56362C5.30216 4.56362 3.39765 6.02997 3.54954 8.33174C4.26995 8.03694 4.90621 7.56847 5.40161 6.96808C5.897 6.36769 6.23614 5.65405 6.38878 4.89078C7.15408 6.42723 8.72559 7.48464 10.5483 7.50217Z" fill="#4C4C61"/>
</svg>
