<svg width="112" height="112" viewBox="0 0 112 112" fill="none" xmlns="http://www.w3.org/2000/svg">
<circle cx="55.6316" cy="55.6316" r="55.6316" fill="#EDF2F7"/>
<path d="M104.061 108.472L101.667 98.9061C100.505 94.2598 97.0862 90.5018 92.505 88.9986L74.9323 83.1224C70.5563 81.3459 68.6417 74.4448 68.2315 71.7801C71.5135 69.047 73.6332 65.2206 74.1118 60.9843C74.0434 60.2327 74.1802 59.5495 74.5905 58.9345C75.2058 58.7979 75.7529 58.3196 75.958 57.7046C77.1204 54.9032 77.8041 51.9651 78.0776 48.9587C78.0776 48.8221 78.0776 48.6171 78.0093 48.4804C77.7358 47.3189 77.052 46.294 76.0947 45.5423V35.0199C76.0947 28.5972 74.1118 25.9324 72.0605 24.4292C71.6503 21.2861 68.2999 15 56.0605 15C45.1887 15.41 36.505 24.1559 36.0947 35.0199V45.6107C35.1375 46.294 34.4537 47.3872 34.1802 48.5488C34.1118 48.6854 34.1118 48.8904 34.1118 49.027C34.3853 52.0335 35.1375 54.9715 36.2315 57.773C36.4366 58.3196 36.8469 58.7979 37.4623 58.9345C37.6674 59.0712 38.0776 59.6178 38.0776 61.0527C38.5563 65.289 40.6759 69.1836 43.958 71.8484C43.5477 74.4448 41.5648 81.3459 37.3939 83.0541L19.6161 88.9302C15.0349 90.4334 11.6161 94.1915 10.4537 98.8377L8.06054 108.404C7.78703 109.497 8.47079 110.59 9.49644 110.863C9.63319 110.932 9.83832 110.932 9.97507 110.932H102.009C103.103 110.932 103.992 110.043 103.992 108.95C104.061 108.814 104.061 108.609 104.061 108.472Z" fill="white"/>
</svg>
