<svg width="680" height="331" viewBox="0 0 680 331" fill="none" xmlns="http://www.w3.org/2000/svg">
<g clip-path="url(#clip0_5421_15974)">
<g clip-path="url(#clip1_5421_15974)">
<path d="M90.2896 234.851H74.0625V251.078H90.2896V234.851ZM74.7943 235.584H89.5564V250.346H74.7943V235.584Z" fill="#C9C9C9"/>
<path d="M141.735 240.39H125.508V256.617H141.735V240.39ZM126.24 241.123H141.002V255.885H126.24V241.123Z" fill="#C9C9C9"/>
<path d="M5.56231 237.601H-10.6641V253.828H5.56231V237.601ZM-9.93156 238.334H4.82981V253.096H-9.93156V238.334Z" fill="#C9C9C9"/>
<path d="M62.6021 211.07H46.375V227.297H62.6021V211.07ZM47.1075 211.802H61.8696V226.564H47.1075V211.802Z" fill="#C9C9C9"/>
<path d="M2.36066 209.992H-13.8672V226.219H2.36066V209.992ZM-13.1347 210.724H1.62816V225.486H-13.1347V210.724Z" fill="#C9C9C9"/>
<path d="M28.8383 237.091H16.1484V249.781H28.8383V237.091ZM16.8809 237.823H28.1058V249.049H16.8809V237.823Z" fill="#C9C9C9"/>
<path d="M49.5812 220.669H36.8906V233.359H49.5812V220.669ZM37.6231 221.401H48.8487V232.627H37.6231V221.401Z" fill="#C9C9C9"/>
<path d="M105.863 242.2H93.1719V254.891H105.862L105.863 242.2ZM93.9044 242.933H105.13V254.158H93.9044V242.933Z" fill="#C9C9C9"/>
<path d="M129.073 226.684H116.383V239.375H129.073V226.684ZM117.115 227.417H128.341V238.642H117.115V227.417Z" fill="#C9C9C9"/>
<path d="M107.972 209.45H95.2812V222.141H107.972V209.45ZM96.0138 210.183H107.239V221.408H96.0138V210.183Z" fill="#C9C9C9"/>
<path d="M165.652 238.285H152.961V250.977H165.652V238.285ZM153.693 239.018H164.918V250.244H153.693V239.018Z" fill="#C9C9C9"/>
<path d="M162.487 211.903H149.797V224.594H162.487V211.903ZM150.529 212.636H161.755V223.861H150.529V212.636Z" fill="#C9C9C9"/>
<path d="M202.582 233.013H189.891V245.703H202.581L202.582 233.013ZM190.623 233.745H201.849V244.971H190.623V233.745Z" fill="#C9C9C9"/>
<path d="M248.651 219.997H235.961V232.688H248.651V219.997ZM236.693 220.729H247.918V231.955H236.693V220.729Z" fill="#C9C9C9"/>
<path d="M228.261 242.824H215.57V255.516H228.261V242.824ZM216.303 243.557H227.528V254.783H216.303V243.557Z" fill="#C9C9C9"/>
<path d="M198.362 202.723H185.672V215.414H198.362V202.723ZM186.404 203.456H197.63V214.682H186.404V203.456Z" fill="#C9C9C9"/>
<path d="M262.019 242.114H249.328V254.805H262.019V242.114ZM250.061 242.847H261.286V254.072H250.061V242.847Z" fill="#C9C9C9"/>
<path d="M273.98 208.356H261.289V221.047H273.98V208.356ZM262.022 209.089H273.247V220.314H262.022V209.089Z" fill="#C9C9C9"/>
<path d="M303.418 199.912H296.812V212.602H303.418V199.912ZM297.545 200.644H302.686V211.869H297.545V200.644Z" fill="#C9C9C9"/>
<path d="M285.581 242.176H272.891V254.867H285.581V242.176ZM273.623 242.908H284.849V254.135H273.623V242.908Z" fill="#C9C9C9"/>
<path d="M293.667 223.872H280.977V236.562H293.667V223.872ZM281.709 224.604H292.935V235.83H281.709V224.604Z" fill="#C9C9C9"/>
<path d="M395.309 238.334H382.617V251.023H395.308V238.334H395.309ZM383.35 239.066H394.575V250.291H383.35V239.066Z" fill="#C9C9C9"/>
<path d="M433.651 223.864H420.961V236.555H433.651V223.864ZM421.693 224.597H432.918V235.822H421.693V224.597Z" fill="#C9C9C9"/>
<path d="M455.112 239.341H442.422V252.031H455.112V239.341ZM443.154 240.073H454.379V251.299H443.154V240.073Z" fill="#C9C9C9"/>
<path d="M486.409 217.895H473.719V230.586H486.409V217.895ZM474.451 218.628H485.677V229.853H474.451V218.628Z" fill="#C9C9C9"/>
<path d="M522.628 235.466H509.938V248.156H522.628V235.466ZM510.67 236.199H521.896V247.424H510.67V236.199Z" fill="#C9C9C9"/>
<path d="M400.939 215.39H393.875V222.453H400.939V215.39ZM394.608 216.122H400.207V221.721H394.608V216.122Z" fill="#C9C9C9"/>
<path d="M256.837 215.038H249.773V222.102H256.837V215.038ZM250.506 215.771H256.104V221.369H250.506V215.771Z" fill="#C9C9C9"/>
<path d="M231.774 202.374H224.711V209.438H231.774V202.374ZM225.444 203.106H231.043V208.705H225.444V203.106Z" fill="#C9C9C9"/>
<path d="M216.649 229.851H209.586V236.914H216.649V229.851ZM210.318 230.583H215.917V236.182H210.318V230.583Z" fill="#C9C9C9"/>
<path d="M119.579 245.992H112.516V253.055H119.579V245.992ZM113.249 246.724H118.847V252.322H113.249V246.724Z" fill="#C9C9C9"/>
<path d="M45.7198 197.101H38.6562V204.164H45.7198V197.101ZM39.3888 197.833H44.9873V203.432H39.3888V197.833Z" fill="#C9C9C9"/>
<path d="M15.8291 206.249H8.76562V213.312H15.8291V206.249ZM9.49813 206.981H15.0966V212.58H9.49813V206.981Z" fill="#C9C9C9"/>
<path d="M16.8846 248.101H9.82031V255.164H16.8846V248.101ZM10.5528 248.833H16.1521V254.432H10.5528V248.833Z" fill="#C9C9C9"/>
<path d="M375.73 196.465H363.039V209.156H375.73V196.465ZM363.772 197.197H374.997V208.424H363.772V197.197Z" fill="#C9C9C9"/>
<path d="M56.9733 180.527H46.3828V191.117H56.9733V180.527ZM47.1153 181.259H56.2408V190.385H47.1153V181.259Z" fill="#C9C9C9"/>
<path d="M88.6288 219.98H78.0391V230.57H88.6288V219.98ZM78.7716 220.712H87.8963V229.838H78.7716V220.712Z" fill="#C9C9C9"/>
<path d="M283.244 199.195H268.414V214.023H283.244V199.195ZM269.147 199.927H282.511V213.291H269.147V199.927Z" fill="#C9C9C9"/>
<path d="M32.0691 53.5865H21.2031V64.4531H32.0691V53.5865ZM21.9356 54.319H31.3366V63.7206H21.9356V54.319Z" fill="#C9C9C9"/>
<path d="M95.3857 82.9737H86.9062V91.4531H95.3857V82.9737ZM87.6388 83.7062H94.6532V90.7206H87.6388V83.7062Z" fill="#C9C9C9"/>
<path d="M89.5755 11.9245H84.9688V16.5312H89.5755V11.9245ZM85.7013 12.657H88.843V15.7987H85.7013V12.657Z" fill="#C9C9C9"/>
<path d="M48.8834 236.14H32.6562V252.367H48.8834V236.14ZM33.3888 236.873H48.1509V251.635H33.3888V236.873Z" fill="#C9C9C9"/>
<path d="M425.555 199.217H409.328V215.445H425.555V199.217ZM410.06 199.95H424.822V214.713H410.06V199.95Z" fill="#C9C9C9"/>
<path d="M26.7271 170.39H10.5V186.617H26.7271V170.39ZM11.2325 171.123H25.9946V185.885H11.2325V171.123Z" fill="#C9C9C9"/>
<path d="M111.488 226.941H98.4453V239.984H111.488V226.941ZM99.1778 227.674H110.756V239.252H99.1778V227.674Z" fill="#C9C9C9"/>
<path d="M169.75 194.929H158.711V205.969H169.75V194.929ZM159.443 195.662H169.018V205.236H159.443V195.662Z" fill="#C9C9C9"/>
<path d="M49.1982 124.685H43.2188V130.664H49.1982V124.685ZM43.9513 125.417H48.4657V129.932H43.9513V125.417Z" fill="#C9C9C9"/>
<path d="M66.4543 106.688H53.4062V105.955H66.4543V106.688Z" fill="#C9C9C9"/>
<path d="M119.347 141.709H107.461V153.594H119.347V141.709ZM108.193 142.441H118.614V152.861H108.193V142.441Z" fill="#C9C9C9"/>
<path d="M261.669 224.558H250.367V235.859H261.669V224.558ZM251.1 225.291H260.936V235.127H251.1V225.291Z" fill="#C9C9C9"/>
<path d="M514.786 157.815H503.484V169.117H514.786V157.815ZM504.217 158.548H514.054V168.385H504.217V158.548Z" fill="#C9C9C9"/>
<path d="M549.27 215.901H537.969V227.203H549.27V215.901ZM538.702 216.634H548.539V226.471H538.702V216.634Z" fill="#C9C9C9"/>
<path d="M518.419 224.566H507.117V235.867H518.419V224.566ZM507.85 225.299H517.686V235.135H507.85V225.299Z" fill="#C9C9C9"/>
<path d="M153.229 169.075H144.75V177.555H153.229V169.075ZM145.482 169.807H152.496V176.822H145.482V169.807Z" fill="#C9C9C9"/>
<path d="M404.743 157.89H388.516V174.117H404.743V157.89ZM389.248 158.623H404.01V173.385H389.248V158.623Z" fill="#C9C9C9"/>
<path d="M296.883 134.046H280.656V150.273H296.883V134.046ZM281.388 134.779H296.15V149.541H281.388V134.779Z" fill="#C9C9C9"/>
<path d="M472.339 174.012H459.734V186.617H472.339V174.012ZM460.467 174.744H471.607V185.885H460.467V174.744Z" fill="#C9C9C9"/>
<path d="M499.187 240.947H484.5V255.633H499.187V240.947ZM485.233 241.679H498.455V254.9H485.233V241.679Z" fill="#C9C9C9"/>
<path d="M391.61 219.859H375.383V236.086H391.61V219.859ZM376.115 220.591H390.877V235.353H376.115V220.591Z" fill="#C9C9C9"/>
<path d="M403.752 185.882H380.852V208.781H403.752V185.882ZM381.584 186.614H403.019V208.049H381.584V186.614Z" fill="#C9C9C9"/>
<path d="M356.268 146.802H347.789V155.281H356.268V146.802ZM348.522 147.534H355.536V154.549H348.522V147.534Z" fill="#C9C9C9"/>
<path d="M83.0107 172.832H74.5312V181.312H83.0107V172.832ZM75.2638 173.565H82.2782V180.58H75.2638V173.565Z" fill="#C9C9C9"/>
<path d="M230.015 217.626H217.07V230.57H230.015V217.626ZM217.803 218.358H229.283V229.838H217.803V218.358Z" fill="#C9C9C9"/>
<path d="M146.316 47.9737H137.836V56.4531H146.316V47.9737ZM138.568 48.7062H145.584V55.7206H138.568V48.7062Z" fill="#C9C9C9"/>
<path d="M481.136 17.1065H472.656V25.5859H481.136V17.1065ZM473.389 17.839H480.404V24.8534H473.389V17.839Z" fill="#C9C9C9"/>
<path d="M290.519 241.466H282.039V249.945H290.519V241.466ZM282.772 242.198H289.787V249.213H282.772V242.198Z" fill="#C9C9C9"/>
<path d="M178.76 105.959H171.594V113.125H178.76V105.959ZM172.326 106.691H178.027V112.392H172.326V106.691Z" fill="#C9C9C9"/>
<path d="M467.569 56.4149H464.258V59.7266H467.569V56.4149ZM464.99 57.1474H466.837V58.9941H464.99V57.1474Z" fill="#C9C9C9"/>
<path d="M96.8273 41.1805H93.5156V44.4922H96.8273V41.1805ZM94.2489 41.913H96.0955V43.7597H94.2489V41.913Z" fill="#C9C9C9"/>
<path d="M134.351 113.399H131.039V116.711H134.351V113.399ZM131.772 114.132H133.618V115.978H131.772V114.132Z" fill="#C9C9C9"/>
<path d="M426.96 147.157H423.648V150.469H426.96V147.157ZM424.38 147.89H426.227V149.736H424.38V147.89Z" fill="#C9C9C9"/>
<path d="M504.168 218.207H498.062V224.312H504.168V218.207ZM498.795 218.94H503.435V223.58H498.795V218.94Z" fill="#C9C9C9"/>
<path d="M220.874 189.36H217.562V192.672H220.874V189.36ZM218.295 190.093H220.142V191.939H218.295V190.093Z" fill="#C9C9C9"/>
<path d="M208.202 244.938H204.891V248.25H208.202V244.938ZM205.623 245.671H207.47V247.517H205.623V245.671Z" fill="#C9C9C9"/>
<path d="M280.667 186.763H272.188V195.242H280.667V186.763ZM272.92 187.495H279.934V194.51H272.92V187.495Z" fill="#C9C9C9"/>
<path d="M291.501 163.68H278.453V162.947H291.501V163.68Z" fill="#C9C9C9"/>
<path d="M137.462 223.859H124.414V223.127H137.462V223.859Z" fill="#C9C9C9"/>
<path d="M69.2277 239.336H56.1797V238.603H69.2277V239.336Z" fill="#C9C9C9"/>
<path d="M360.498 176.463H340.93V196.031H360.498V176.463ZM341.663 177.196H359.767V195.299H341.663V177.196Z" fill="#C9C9C9"/>
<path d="M483.86 192.82H467.633V209.047H483.86V192.82ZM468.365 193.552H483.127V208.314H468.365V193.552Z" fill="#C9C9C9"/>
<path d="M543.985 240.39H527.758V256.617H543.985V240.39ZM528.49 241.123H543.252V255.885H528.49V241.123Z" fill="#C9C9C9"/>
<path d="M377.376 133.296H361.148V149.523H377.376V133.296ZM361.88 134.029H376.642V148.791H361.88V134.029Z" fill="#C9C9C9"/>
<path d="M369.629 160.301H361.148V168.781H369.629V160.301ZM361.881 161.034H368.896V168.049H361.881V161.034Z" fill="#C9C9C9"/>
<path d="M193.782 184.218H177.555V200.445H193.782V184.218ZM178.286 184.951H193.049V199.713H178.286V184.951Z" fill="#C9C9C9"/>
<path d="M26.7271 219.046H10.5V235.273H26.7271V219.046ZM11.2325 219.779H25.9946V234.541H11.2325V219.779Z" fill="#C9C9C9"/>
<path d="M369.629 82.9737H361.148V91.4531H369.629V82.9737ZM361.881 83.7062H368.896V90.7206H361.881V83.7062Z" fill="#C9C9C9"/>
<path d="M363.818 11.9245H359.211V16.5312H363.818V11.9245ZM359.943 12.657H363.085V15.7987H359.943V12.657Z" fill="#C9C9C9"/>
<path d="M256.536 43.0893H251.93V47.6953H256.536V43.0893ZM252.662 43.8218H255.804V46.9628H252.662V43.8218Z" fill="#C9C9C9"/>
<path d="M148.465 79.8386H143.859V84.4453H148.465V79.8386ZM144.592 80.5711H147.733V83.7128H144.592V80.5711Z" fill="#C9C9C9"/>
<path d="M251.856 111.221H247.25V115.828H251.856V111.221ZM247.983 111.954H251.123V115.096H247.983V111.954Z" fill="#C9C9C9"/>
<path d="M364.754 -1.68409H360.148V2.92188H364.754V-1.68409ZM360.881 -0.95159H364.022V2.18937H360.881V-0.95159Z" fill="#C9C9C9"/>
<path d="M487.739 79.8386H483.133V84.4453H487.739V79.8386ZM483.865 80.5711H487.006V83.7128H483.865V80.5711Z" fill="#C9C9C9"/>
<path d="M422.497 174.722H417.891V179.328H422.497V174.722ZM418.623 175.455H421.764V178.596H418.623V175.455Z" fill="#C9C9C9"/>
<path d="M182.309 140.245H177.703V144.852H182.309V140.245ZM178.435 140.977H181.576V144.119H178.435V140.977Z" fill="#C9C9C9"/>
<path d="M87.6372 216.925H83.0312V221.531H87.6372V216.925ZM83.763 217.657H86.904V220.799H83.763V217.657Z" fill="#C9C9C9"/>
<path d="M429.021 151.394H424.414V156H429.021V151.394ZM425.147 152.127H428.288V155.267H425.147V152.127Z" fill="#C9C9C9"/>
<path d="M145.602 196.866H129.375V213.094H145.602V196.866ZM130.108 197.598H144.87V212.361H130.108V197.598Z" fill="#C9C9C9"/>
<path d="M303.876 170.757H287.648V186.984H303.876V170.757ZM288.38 171.49H303.142V186.252H288.38V171.49Z" fill="#C9C9C9"/>
<path d="M335.758 159.609H319.531V175.836H335.758V159.609ZM320.264 160.341H335.026V175.103H320.264V160.341Z" fill="#C9C9C9"/>
<path d="M67.5273 242.865H54.8359V255.555H67.5265V242.865H67.5273ZM55.5684 243.597H66.794V254.822H55.5684V243.597Z" fill="#C9C9C9"/>
<path d="M415.365 226.65H400.906V241.109H415.365V226.65ZM401.639 227.382H414.633V240.377H401.639V227.382Z" fill="#C9C9C9"/>
<path d="M100.566 191.824H90.6797V201.711H100.566V191.824ZM91.4122 192.557H99.8338V200.978H91.4122V192.557Z" fill="#C9C9C9"/>
<path d="M28.1677 201.465H19.6875V209.945H28.1669L28.1677 201.465ZM20.42 202.198H27.4344V209.212H20.42V202.198Z" fill="#C9C9C9"/>
<path d="M232.836 152.015H216.609V168.242H232.836V152.015ZM217.342 152.748H232.104V167.51H217.342V152.748Z" fill="#C9C9C9"/>
<path d="M396.614 118.426H386.727V128.312H396.614V118.426ZM387.459 119.158H395.881V127.58H387.459V119.158Z" fill="#C9C9C9"/>
<path d="M253.672 192.553H237.445V208.781H253.672V192.553ZM238.177 193.286H252.939V208.049H238.177V193.286Z" fill="#C9C9C9"/>
<path d="M513.143 185.881H490.328V208.695H513.143V185.881ZM491.061 186.613H512.41V207.963H491.061V186.613Z" fill="#C9C9C9"/>
<path d="M450.274 185.882H434.047V202.109H450.274V185.882ZM434.779 186.615H449.541V201.377H434.779V186.615Z" fill="#C9C9C9"/>
<path d="M475.969 225.632H459.742V241.859H475.969V225.632ZM460.475 226.364H475.237V241.127H460.475V226.364Z" fill="#C9C9C9"/>
<path d="M334.805 185.888H318.578V195.828H334.805V185.888ZM319.311 186.62H334.073V195.096H319.311V186.62Z" fill="#C9C9C9"/>
<path d="M119.329 167.242H103.102V183.469H119.329V167.242ZM103.834 167.974H118.596V182.736H103.834V167.974Z" fill="#C9C9C9"/>
<path d="M449.485 209.414H442.422V216.477H449.485V209.414ZM443.154 210.146H448.753V215.744H443.154V210.146Z" fill="#C9C9C9"/>
<path d="M84.0557 206.944H76.9922V214.008H84.0557V206.944ZM77.7247 207.677H83.3232V213.275H77.7247V207.677Z" fill="#C9C9C9"/>
<path d="M157.559 229.848H146.969V240.438H157.559V229.848ZM147.701 230.58H156.826V239.705H147.701V230.58Z" fill="#C9C9C9"/>
<path d="M120.63 200.645H110.039V211.234H120.63V200.645ZM110.772 201.377H119.897V210.502H110.772V201.377Z" fill="#C9C9C9"/>
<path d="M214.176 201.706H203.586V212.297H214.176V201.706ZM204.318 202.439H213.444V211.564H204.318V202.439Z" fill="#C9C9C9"/>
<path d="M244.769 241.457H234.18V252.047H244.769V241.457ZM234.912 242.19H244.037V251.314H234.912V242.19Z" fill="#C9C9C9"/>
<path d="M295.075 209.097H284.484V219.688H295.075V209.097ZM285.217 209.829H294.342V218.955H285.217V209.829Z" fill="#C9C9C9"/>
<path d="M525.92 204.768H514.93V215.758H525.92V204.768ZM515.662 205.501H525.188V215.025H515.662V205.501Z" fill="#C9C9C9"/>
<path d="M180.555 222.092H164.328V238.32H180.555V222.092ZM165.061 222.825H179.823V237.588H165.061V222.825Z" fill="#C9C9C9"/>
<path d="M279.01 229.749H266.211V242.547H279.01V229.749ZM266.944 230.481H278.278V241.814H266.944V230.481Z" fill="#C9C9C9"/>
<path d="M302.425 124.145H293.945V132.625H302.425V124.145ZM294.678 124.877H301.692V131.892H294.678V124.877Z" fill="#C9C9C9"/>
<path d="M303.248 229.84H296.797V238.32H303.248V229.84ZM297.529 230.573H302.516V237.588H297.529V230.573Z" fill="#C9C9C9"/>
<path d="M261.417 168.965H252.938V177.445H261.417V168.965ZM253.67 169.698H260.684V176.713H253.67V169.698Z" fill="#C9C9C9"/>
<path d="M198.003 222.091H189.523V230.57H198.003V222.091ZM190.256 222.823H197.27V229.838H190.256V222.823Z" fill="#C9C9C9"/>
<path d="M190.152 147.629H181.672V156.109H190.152V147.629ZM182.404 148.362H189.42V155.377H182.404V148.362Z" fill="#C9C9C9"/>
<path d="M186.05 244.583H177.57V253.062H186.05V244.583ZM178.303 245.316H185.317V252.33H178.303V245.316Z" fill="#C9C9C9"/>
<path d="M469.509 214.883H456.461V214.15H469.509V214.883Z" fill="#C9C9C9"/>
<path d="M334.173 105.625H321.125V104.892H334.173V105.625Z" fill="#C9C9C9"/>
<path d="M167.04 137.336H153.992V136.603H167.04V137.336Z" fill="#C9C9C9"/>
<path d="M452.997 159.479H434.328V178.148H452.997V159.479ZM435.061 160.212H452.265V177.416H435.061V160.212Z" fill="#C9C9C9"/>
<path d="M642.727 191.609H625.859V208.477H642.727V191.609ZM626.592 192.341H641.994V207.744H626.592V192.341Z" fill="#C9C9C9"/>
<path d="M634.66 219.731H625.859V228.531H634.66V219.731ZM626.592 220.463H633.927V227.799H626.592V220.463Z" fill="#C9C9C9"/>
<path d="M669.375 176.14H652.508V193.008H669.375V176.14ZM653.24 176.872H668.642V192.275H653.24V176.872Z" fill="#C9C9C9"/>
<path d="M634.66 139.2H625.859V148H634.66V139.2ZM626.592 139.932H633.927V147.267H626.592V139.932Z" fill="#C9C9C9"/>
<path d="M452.667 221.755H444.188V230.234H452.667V221.755ZM444.92 222.487H451.934V229.502H444.92V222.487Z" fill="#C9C9C9"/>
<path d="M446.149 94.7026H429.922V110.93H446.149V94.7026ZM430.654 95.4351H445.416V110.197H430.654V95.4351Z" fill="#C9C9C9"/>
<path d="M599.391 219.015H582.523V235.883H599.391V219.015ZM583.256 219.747H598.659V235.15H583.256V219.747Z" fill="#C9C9C9"/>
<path d="M302.814 245.195H295.75V252.258H302.814V245.195ZM296.483 245.928H302.082V251.525H296.483V245.928Z" fill="#C9C9C9"/>
<path d="M152.986 247.397H145.922V254.461H152.986V247.397ZM146.655 248.13H152.254V253.728H146.655V248.13Z" fill="#C9C9C9"/>
<path d="M124.149 206.944H117.086V214.008H124.149V206.944ZM117.819 207.677H123.418V213.275H117.819V207.677Z" fill="#C9C9C9"/>
<path d="M430.488 240.394H419.898V250.984H430.488V240.394ZM420.631 241.126H429.756V250.252H420.631V241.126Z" fill="#C9C9C9"/>
<path d="M529.108 99.7908H518.117V110.781H529.108V99.7908ZM518.85 100.523H528.375V110.049H518.85V100.523Z" fill="#C9C9C9"/>
<path d="M46.4272 17.0337H42.2578V21.2031H46.4272V17.0337ZM42.9903 17.7662H45.6947V20.4706H42.9903V17.7662Z" fill="#C9C9C9"/>
<path d="M528.946 222.092H512.719V238.32H528.946V222.092ZM513.451 222.825H528.213V237.588H513.451V222.825Z" fill="#C9C9C9"/>
<path d="M420.566 47.9737H412.086V56.4531H420.566V47.9737ZM412.818 48.7062H419.833V55.7206H412.818V48.7062Z" fill="#C9C9C9"/>
<path d="M494.496 150.136H483.906V160.727H494.496V150.136ZM484.639 150.869H493.764V159.994H484.639V150.869Z" fill="#C9C9C9"/>
<path d="M564.683 182.091H555.883V190.891H564.683V182.091ZM556.615 182.824H563.951V190.158H556.615V182.824Z" fill="#C9C9C9"/>
<path d="M250.73 143.848H242.25V152.328H250.73V143.848ZM242.983 144.58H249.998V151.596H242.983V144.58Z" fill="#C9C9C9"/>
<path d="M604.541 163.883H590.953V163.15H604.541V163.883Z" fill="#C9C9C9"/>
<path d="M471.876 132.102H458.828V131.369H471.876V132.102Z" fill="#C9C9C9"/>
<path d="M517.368 177.898H504.32V177.166H517.368V177.898Z" fill="#C9C9C9"/>
</g>
<path d="M366.589 291.644H310.347C307.48 291.641 304.731 290.5 302.703 288.473C300.675 286.445 299.535 283.696 299.531 280.829V203.496C299.535 200.628 300.675 197.879 302.703 195.851C304.731 193.824 307.48 192.683 310.347 192.68H348.112C349.552 192.683 350.978 192.972 352.305 193.531C353.633 194.09 354.836 194.907 355.845 195.935L374.323 214.839C376.304 216.856 377.411 219.572 377.405 222.399V280.829C377.402 283.696 376.261 286.445 374.234 288.473C372.206 290.5 369.457 291.641 366.589 291.644ZM310.347 197.006C308.626 197.006 306.975 197.69 305.758 198.907C304.541 200.124 303.858 201.774 303.858 203.496V280.829C303.858 282.55 304.541 284.2 305.758 285.417C306.975 286.634 308.626 287.318 310.347 287.318H366.589C368.31 287.318 369.961 286.634 371.178 285.417C372.395 284.2 373.079 282.55 373.079 280.829V222.399C373.083 220.701 372.42 219.07 371.232 217.857L352.745 198.953C352.139 198.339 351.418 197.85 350.623 197.516C349.828 197.182 348.974 197.009 348.112 197.006H310.347Z" fill="#D8D8D8"/>
<path d="M374.352 220.802H360.097C357.23 220.799 354.481 219.658 352.453 217.63C350.425 215.603 349.285 212.854 349.281 209.986V195.515C349.281 194.941 349.509 194.391 349.915 193.985C350.32 193.579 350.871 193.352 351.444 193.352C352.018 193.352 352.568 193.579 352.974 193.985C353.38 194.391 353.608 194.941 353.608 195.515V209.986C353.608 211.707 354.291 213.358 355.508 214.575C356.725 215.792 358.376 216.476 360.097 216.476H374.352C374.926 216.476 375.476 216.704 375.882 217.109C376.288 217.515 376.515 218.065 376.515 218.639C376.515 219.213 376.288 219.763 375.882 220.169C375.476 220.574 374.926 220.802 374.352 220.802Z" fill="#D8D8D8"/>
<path d="M338.465 260.551C337.891 260.551 337.341 260.323 336.936 259.917C336.53 259.511 336.302 258.961 336.302 258.387V256.397C336.28 255.145 336.631 253.915 337.31 252.863C337.989 251.811 338.966 250.985 340.116 250.49C341.034 250.109 341.794 249.424 342.267 248.55C342.739 247.675 342.896 246.664 342.711 245.688C342.545 244.832 342.126 244.045 341.51 243.428C340.893 242.812 340.106 242.393 339.25 242.226C338.626 242.111 337.983 242.135 337.368 242.296C336.754 242.457 336.182 242.752 335.694 243.159C335.206 243.566 334.814 244.075 334.545 244.651C334.276 245.227 334.137 245.855 334.139 246.49C334.139 247.064 333.911 247.614 333.505 248.02C333.1 248.425 332.549 248.653 331.976 248.653C331.402 248.653 330.852 248.425 330.446 248.02C330.04 247.614 329.812 247.064 329.812 246.49C329.814 244.923 330.24 243.386 331.047 242.042C331.854 240.699 333.01 239.6 334.392 238.862C335.775 238.125 337.332 237.776 338.897 237.855C340.462 237.933 341.976 238.434 343.279 239.306C344.581 240.178 345.622 241.387 346.29 242.804C346.959 244.221 347.23 245.793 347.075 247.353C346.92 248.912 346.345 250.4 345.41 251.658C344.475 252.915 343.217 253.896 341.768 254.494C341.414 254.666 341.118 254.938 340.915 255.276C340.713 255.614 340.613 256.004 340.628 256.397V258.387C340.628 258.672 340.572 258.953 340.464 259.215C340.355 259.478 340.196 259.716 339.995 259.917C339.794 260.118 339.555 260.277 339.293 260.386C339.031 260.495 338.749 260.551 338.465 260.551Z" fill="#D8D8D8"/>
<path d="M338.471 269.2C340.263 269.2 341.716 267.748 341.716 265.956C341.716 264.164 340.263 262.711 338.471 262.711C336.679 262.711 335.227 264.164 335.227 265.956C335.227 267.748 336.679 269.2 338.471 269.2Z" fill="#D8D8D8"/>
<path d="M338.467 276.769C333.761 276.769 329.16 275.374 325.247 272.759C321.334 270.145 318.284 266.428 316.483 262.08C314.682 257.732 314.211 252.948 315.129 248.332C316.047 243.717 318.313 239.477 321.641 236.149C324.969 232.821 329.209 230.555 333.825 229.637C338.44 228.719 343.225 229.19 347.573 230.991C351.921 232.792 355.637 235.842 358.251 239.755C360.866 243.668 362.262 248.268 362.262 252.975C362.254 259.283 359.745 265.331 355.284 269.792C350.823 274.253 344.775 276.762 338.467 276.769ZM338.467 233.506C334.616 233.506 330.852 234.648 327.651 236.787C324.449 238.926 321.954 241.967 320.48 245.524C319.007 249.082 318.621 252.996 319.372 256.773C320.123 260.549 321.978 264.018 324.7 266.741C327.423 269.464 330.892 271.318 334.669 272.069C338.445 272.82 342.36 272.435 345.917 270.961C349.474 269.488 352.515 266.992 354.654 263.791C356.793 260.589 357.935 256.825 357.935 252.975C357.929 247.813 355.876 242.865 352.226 239.215C348.576 235.565 343.628 233.512 338.467 233.506Z" fill="#D8D8D8"/>
<path d="M327.658 214.045H314.679C314.105 214.045 313.555 213.817 313.149 213.412C312.744 213.006 312.516 212.456 312.516 211.882C312.516 211.308 312.744 210.758 313.149 210.352C313.555 209.947 314.105 209.719 314.679 209.719H327.658C328.231 209.719 328.782 209.947 329.187 210.352C329.593 210.758 329.821 211.308 329.821 211.882C329.821 212.456 329.593 213.006 329.187 213.412C328.782 213.817 328.231 214.045 327.658 214.045Z" fill="#D8D8D8"/>
<path d="M336.31 224.865H314.679C314.105 224.865 313.555 224.637 313.149 224.232C312.744 223.826 312.516 223.276 312.516 222.702C312.516 222.129 312.744 221.578 313.149 221.173C313.555 220.767 314.105 220.539 314.679 220.539H336.31C336.884 220.539 337.434 220.767 337.84 221.173C338.246 221.578 338.474 222.129 338.474 222.702C338.474 223.276 338.246 223.826 337.84 224.232C337.434 224.637 336.884 224.865 336.31 224.865Z" fill="#D8D8D8"/>
<line x1="374.047" y1="254.327" x2="674.592" y2="254.327" stroke="#D8D8D8" stroke-width="1.23626"/>
<line x1="2.75781" y1="254.327" x2="303.303" y2="254.327" stroke="#D8D8D8" stroke-width="1.23626"/>
<ellipse cx="338.393" cy="313.078" rx="61.4008" ry="6.59337" fill="black" fill-opacity="0.05"/>
</g>
<defs>
<clipPath id="clip0_5421_15974">
<rect width="679.117" height="330.081" fill="white" transform="matrix(1 0 0 -1 0.0625 330.633)"/>
</clipPath>
<clipPath id="clip1_5421_15974">
<rect width="704.9" height="366.251" fill="white" transform="matrix(1 0 0 -1 -13.9453 255.547)"/>
</clipPath>
</defs>
</svg>
