<svg width="54" height="54" viewBox="0 0 54 54" fill="none" xmlns="http://www.w3.org/2000/svg">
<path d="M26.9996 44.8004C22.2469 44.8004 17.6889 42.9124 14.3282 39.5518C10.9676 36.1911 9.07961 31.6331 9.07961 26.8804C9.07961 22.1278 10.9676 17.5698 14.3282 14.2091C17.6889 10.8485 22.2469 8.96046 26.9996 8.96046C31.7523 8.96046 36.3103 10.8485 39.6709 14.2091C43.0316 17.5698 44.9196 22.1278 44.9196 26.8804C44.9196 31.6331 43.0316 36.1911 39.6709 39.5518C36.3103 42.9124 31.7523 44.8004 26.9996 44.8004ZM26.9996 4.48047C24.058 4.48047 21.1452 5.05986 18.4275 6.18557C15.7098 7.31127 13.2404 8.96124 11.1604 11.0413C6.9596 15.2421 4.59961 20.9396 4.59961 26.8804C4.59961 32.8213 6.9596 38.5188 11.1604 42.7196C13.2404 44.7997 15.7098 46.4496 18.4275 47.5753C21.1452 48.701 24.058 49.2804 26.9996 49.2804C32.9404 49.2804 38.638 46.9204 42.8388 42.7196C47.0396 38.5188 49.3996 32.8213 49.3996 26.8804C49.3996 23.9388 48.8202 21.026 47.6945 18.3083C46.5688 15.5907 44.9188 13.1213 42.8388 11.0413C40.7587 8.96124 38.2894 7.31127 35.5717 6.18557C32.854 5.05986 29.9412 4.48047 26.9996 4.48047Z" fill="#A2CFFE"/>
</svg>
