<svg width="15" height="15" viewBox="0 0 15 15" fill="none" xmlns="http://www.w3.org/2000/svg">
<mask id="mask0_44_925" style="mask-type:alpha" maskUnits="userSpaceOnUse" x="0" y="0" width="15" height="15">
<rect x="0.0332031" y="0.42392" width="14.0209" height="14.0209" fill="#D9D9D9"/>
</mask>
<g mask="url(#mask0_44_925)">
<path d="M2.36763 12.1077C2.04631 12.1077 1.77125 11.9933 1.54244 11.7645C1.31363 11.5357 1.19922 11.2606 1.19922 10.9393V3.92888C1.19922 3.60756 1.31363 3.3325 1.54244 3.10369C1.77125 2.87487 2.04631 2.76047 2.36763 2.76047H11.7149C12.0362 2.76047 12.3113 2.87487 12.5401 3.10369C12.7689 3.3325 12.8833 3.60756 12.8833 3.92888V7.4341H2.36763V10.9393H8.20967V12.1077H2.36763ZM2.36763 5.09728H11.7149V3.92888H2.36763V5.09728ZM11.1307 13.2761V11.5235H9.37808V10.3551H11.1307V8.60251H12.2991V10.3551H14.0517V11.5235H12.2991V13.2761H11.1307Z" fill="#4C4C61"/>
</g>
</svg>
