<svg width="27" height="26" viewBox="0 0 27 26" fill="none" xmlns="http://www.w3.org/2000/svg">
<rect x="0.25" width="26" height="26" rx="4" fill="#F8F8F8"/>
<path d="M8.29922 5.7998C7.94118 5.7998 7.5978 5.94204 7.34462 6.19521C7.09145 6.44838 6.94922 6.79176 6.94922 7.1498V18.8498C6.94922 19.2078 7.09145 19.5512 7.34462 19.8044C7.5978 20.0576 7.94118 20.1998 8.29922 20.1998H14.5992C14.9573 20.1998 15.3006 20.0576 15.5538 19.8044C15.807 19.5512 15.9492 19.2078 15.9492 18.8498V17.4998C15.9492 17.3805 15.9018 17.266 15.8174 17.1816C15.733 17.0972 15.6186 17.0498 15.4992 17.0498C15.1275 17.0498 14.8899 16.958 14.7288 16.8374C14.5641 16.7141 14.439 16.5296 14.3472 16.2767C14.1546 15.7475 14.1492 15.0464 14.1492 14.3498C14.1492 14.2906 14.1375 14.232 14.1148 14.1773C14.0921 14.1227 14.0588 14.073 14.0169 14.0312L13.7595 13.7729L12.6678 12.6812C12.2475 12.2609 12.1242 11.9792 12.1008 11.8217C12.0828 11.6957 12.1206 11.6111 12.2106 11.5247C12.4032 11.3402 12.5409 11.2151 12.6966 11.1773C12.7893 11.1539 13.0008 11.1377 13.3806 11.5175L16.0806 14.2175C16.165 14.302 16.2795 14.3495 16.3989 14.3496C16.458 14.3496 16.5166 14.338 16.5712 14.3155C16.6259 14.2929 16.6755 14.2597 16.7174 14.218C16.7592 14.1762 16.7924 14.1266 16.8151 14.072C16.8377 14.0173 16.8494 13.9588 16.8495 13.8997C16.8495 13.8405 16.8379 13.782 16.8153 13.7273C16.7927 13.6727 16.7596 13.623 16.7178 13.5812L15.9492 12.8135V10.0361L18.2532 12.3401C18.3787 12.4655 18.4783 12.6143 18.5462 12.7781C18.6142 12.942 18.6492 13.1176 18.6492 13.295V19.7498C18.6492 19.8692 18.6966 19.9836 18.781 20.068C18.8654 20.1524 18.9799 20.1998 19.0992 20.1998C19.2186 20.1998 19.333 20.1524 19.4174 20.068C19.5018 19.9836 19.5492 19.8692 19.5492 19.7498V13.295C19.5491 12.6985 19.3121 12.1265 18.8904 11.7047L15.9492 8.7635V7.1498C15.9492 6.79176 15.807 6.44838 15.5538 6.19521C15.3006 5.94204 14.9573 5.7998 14.5992 5.7998H8.29922ZM15.0492 8.9498V11.9135L14.0178 10.8812C13.4967 10.361 12.9792 10.1819 12.4833 10.3025C12.3859 10.3265 12.2914 10.3613 12.2016 10.406C11.7993 10.2895 11.3754 10.2681 10.9634 10.3436C10.5514 10.419 10.1626 10.5893 9.82778 10.8409C9.49291 11.0925 9.22114 11.4185 9.03396 11.7932C8.84677 12.1679 8.74929 12.581 8.74922 12.9998C8.74918 13.5218 8.90043 14.0325 9.18467 14.4703C9.4689 14.9081 9.87393 15.2541 10.3507 15.4664C10.8275 15.6788 11.3557 15.7484 11.8712 15.6668C12.3867 15.5852 12.8676 15.356 13.2555 15.0068C13.2708 15.527 13.323 16.0958 13.5012 16.5845C13.6344 16.9508 13.8468 17.3009 14.1888 17.5565L14.1942 17.5619C13.9202 17.6481 13.6807 17.8195 13.5108 18.0511C13.3408 18.2827 13.2492 18.5625 13.2492 18.8498V19.2998H9.64922V18.8498C9.64922 18.4918 9.50699 18.1484 9.25381 17.8952C9.00064 17.642 8.65726 17.4998 8.29922 17.4998H7.84922V8.4998H8.29922C8.65726 8.4998 9.00064 8.35757 9.25381 8.1044C9.50699 7.85122 9.64922 7.50785 9.64922 7.1498V6.6998H13.2492V7.1498C13.2492 7.50785 13.3914 7.85122 13.6446 8.1044C13.8978 8.35757 14.2412 8.4998 14.5992 8.4998H15.0492V8.9498ZM15.0492 18.8498V18.8579C15.0471 18.9758 14.9987 19.0882 14.9146 19.1709C14.8304 19.2535 14.7172 19.2998 14.5992 19.2998H14.1492V18.8498C14.1492 18.7305 14.1966 18.616 14.281 18.5316C14.3654 18.4472 14.4799 18.3998 14.5992 18.3998H15.0492V18.8498ZM9.64922 12.9998C9.64922 12.542 9.82363 12.1015 10.137 11.7678C10.4503 11.4341 10.879 11.2322 11.3358 11.2034C11.2242 11.4104 11.1675 11.6624 11.2107 11.9531C11.2746 12.3869 11.5509 12.8378 12.0306 13.3175L12.8469 14.1338C12.6126 14.4226 12.2945 14.6317 11.9365 14.7324C11.5785 14.8331 11.1981 14.8204 10.8476 14.6961C10.4971 14.5718 10.1937 14.342 9.97909 14.0382C9.7645 13.7345 9.64926 13.3717 9.64922 12.9998ZM8.74922 6.6998V7.1498C8.74922 7.26915 8.70181 7.38361 8.61742 7.468C8.53303 7.55239 8.41857 7.5998 8.29922 7.5998H7.84922V7.1498C7.84922 7.03046 7.89663 6.916 7.98102 6.83161C8.06541 6.74722 8.17987 6.6998 8.29922 6.6998H8.74922ZM7.84922 18.3998H8.29922C8.41857 18.3998 8.53303 18.4472 8.61742 18.5316C8.70181 18.616 8.74922 18.7305 8.74922 18.8498V19.2998H8.29922C8.17987 19.2998 8.06541 19.2524 7.98102 19.168C7.89663 19.0836 7.84922 18.9692 7.84922 18.8498V18.3998ZM15.0492 7.5998H14.5992C14.4799 7.5998 14.3654 7.55239 14.281 7.468C14.1966 7.38361 14.1492 7.26915 14.1492 7.1498V6.6998H14.5992C14.7186 6.6998 14.833 6.74722 14.9174 6.83161C15.0018 6.916 15.0492 7.03046 15.0492 7.1498V7.5998Z" fill="#FF8080"/>
</svg>
