<svg width="24" height="26" viewBox="0 0 24 26" fill="none" xmlns="http://www.w3.org/2000/svg">
<path d="M11.166 14.9257V23.3578H3.35938V14.9257H11.166ZM9.21438 17.0338H5.31104V21.2498H9.21438V17.0338ZM12.1419 2.80469L17.509 12.2907H6.77479L12.1419 2.80469ZM12.1419 6.87315L10.2683 10.1827H14.0155L12.1419 6.87315ZM17.509 14.3987C19.9485 14.3987 21.9002 16.5068 21.9002 19.1418C21.9002 21.7768 19.9485 23.8848 17.509 23.8848C15.0694 23.8848 13.1177 21.7768 13.1177 19.1418C13.1177 16.5068 15.0694 14.3987 17.509 14.3987ZM17.509 16.5068C16.8619 16.5068 16.2414 16.7844 15.7839 17.2785C15.3264 17.7727 15.0694 18.4429 15.0694 19.1418C15.0694 19.8406 15.3264 20.5108 15.7839 21.005C16.2414 21.4992 16.8619 21.7768 17.509 21.7768C18.156 21.7768 18.7765 21.4992 19.234 21.005C19.6915 20.5108 19.9485 19.8406 19.9485 19.1418C19.9485 18.4429 19.6915 17.7727 19.234 17.2785C18.7765 16.7844 18.156 16.5068 17.509 16.5068Z" fill="#4C4C61"/>
</svg>
