<svg width="15" height="15" viewBox="0 0 15 15" fill="none" xmlns="http://www.w3.org/2000/svg">
<g clip-path="url(#clip0_44_891)">
<path d="M9.65853 11.1299C8.70398 12.3752 7.23291 13.1744 5.58491 13.1744C2.7064 13.1744 0.373047 10.7564 0.373047 7.77861C0.373047 4.80142 2.7064 2.38281 5.58491 2.38281C8.45637 2.38281 10.79 4.80142 10.79 7.77861C10.79 8.52172 10.6417 9.22896 10.3798 9.8795L9.65853 11.1299ZM5.49347 3.53447C4.89169 3.53447 4.40406 4.02296 4.40406 4.62446C4.40406 5.22541 4.89172 5.71387 5.49347 5.71387C6.09467 5.71387 6.58179 5.22539 6.58179 4.62446C6.58179 4.02296 6.09442 3.53447 5.49347 3.53447ZM8.18688 4.99908C7.58705 4.99908 7.09829 5.48699 7.09829 6.08907C7.09829 6.69002 7.58732 7.17739 8.18688 7.17739C8.78865 7.17739 9.27744 6.69002 9.27744 6.08907C9.27717 5.48699 8.78865 4.99908 8.18688 4.99908ZM8.2368 8.11117C7.63642 8.11117 7.14878 8.59908 7.14878 9.20059C7.14878 9.80209 7.63669 10.29 8.2368 10.29C8.8383 10.29 9.32679 9.80211 9.32679 9.20059C9.32679 8.59906 8.838 8.11114 8.2368 8.11114V8.11117ZM5.65583 9.84388C5.05406 9.84388 4.56642 10.3318 4.56642 10.9327C4.56642 11.5342 5.05378 12.0216 5.65583 12.0216C6.25648 12.0216 6.74497 11.5342 6.74497 10.9327C6.74497 10.3321 6.25648 9.84388 5.65583 9.84388ZM3.06731 8.40142C2.4658 8.40142 1.97732 8.88878 1.97732 9.49029C1.97732 10.0918 2.4658 10.5797 3.06731 10.5797C3.66881 10.5797 4.15617 10.0918 4.15617 9.49026C4.15617 8.88873 3.66881 8.40139 3.06731 8.40139V8.40142ZM2.9254 5.23998C2.32502 5.23998 1.83683 5.72677 1.83683 6.32885C1.83683 6.92923 2.32505 7.41771 2.9254 7.41771C3.52717 7.41771 4.01454 6.92923 4.01454 6.32885C4.01426 5.72707 3.52687 5.23998 2.9254 5.23998ZM5.65723 7.3619C5.43766 7.3619 5.25933 7.5453 5.25933 7.75731C5.25933 7.97688 5.43766 8.15326 5.65723 8.15326C5.86949 8.15326 6.04645 7.97688 6.04645 7.75731C6.04617 7.5453 5.86949 7.3619 5.65723 7.3619ZM5.58488 2.94756C3.01092 2.94756 0.917315 5.11267 0.917315 7.77889C0.917315 10.4457 3.01092 12.6097 5.58488 12.6097C8.15941 12.6097 10.2457 10.4457 10.2457 7.77889C10.2457 5.1124 8.15941 2.94756 5.58488 2.94756Z" fill="#4C4C61"/>
<path d="M10.4278 10.2356C10.4278 10.2356 11.0293 11.56 12.3815 10.5224C11.8995 11.3671 11.5557 11.7395 10.95 12.8146C9.64968 13.2599 9.21813 12.3973 9.17773 11.9417C9.88185 11.5194 10.4278 10.2356 10.4278 10.2356V10.2356Z" fill="#4C4C61"/>
<path d="M11.2324 12.7205C11.2324 12.7205 12.4077 12.7485 12.2489 13.5963L13.7068 11.3442C13.7068 11.3442 13.5742 9.99146 12.5667 10.6022L11.2324 12.7205Z" fill="#4C4C61"/>
<path d="M10.3398 10.4497C10.4302 10.2355 11.4248 8.67862 10.7905 6.14532C10.7905 6.14532 12.084 7.80091 11.3623 11.0498C11.272 11.0207 10.9708 11.8025 10.8502 11.713C10.7297 11.6224 10.3399 10.4497 10.3399 10.4497L10.3398 10.4497Z" fill="#4C4C61"/>
</g>
<defs>
<clipPath id="clip0_44_891">
<rect width="14.0209" height="14.0209" fill="white" transform="translate(0.0332031 0.634216)"/>
</clipPath>
</defs>
</svg>
