<svg width="31" height="32" viewBox="0 0 31 32" fill="none" xmlns="http://www.w3.org/2000/svg">
<path d="M15.4528 3.25781C8.47055 3.25781 2.75781 8.97055 2.75781 15.9528C2.75781 22.935 8.47055 28.6478 15.4528 28.6478C22.435 28.6478 28.1478 22.935 28.1478 15.9528C28.1478 8.97055 22.435 3.25781 15.4528 3.25781ZM15.4528 26.1088C9.85431 26.1088 5.29681 21.5513 5.29681 15.9528C5.29681 10.3543 9.85431 5.79681 15.4528 5.79681C21.0513 5.79681 25.6088 10.3543 25.6088 15.9528C25.6088 21.5513 21.0513 26.1088 15.4528 26.1088ZM21.2798 10.3416L12.9138 18.7076L9.6258 15.4323L7.8358 17.2223L12.9138 22.3003L23.0698 12.1443L21.2798 10.3416Z" fill="#4BAE4F"/>
</svg>
