<svg width="27" height="26" viewBox="0 0 27 26" fill="none" xmlns="http://www.w3.org/2000/svg">
<rect x="0.5" width="26" height="26" rx="4" fill="#F8F8F8"/>
<path d="M19.4926 12.8617C19.4926 14.8413 19.4767 16.8209 19.5001 18.8002C19.5099 19.6249 18.9158 20.4314 17.8976 20.433C14.9798 20.4372 12.0619 20.4373 9.14407 20.4328C8.2132 20.4313 7.55321 19.7929 7.55031 18.8552C7.5392 15.2071 7.54326 11.5588 7.54384 7.91061C7.54393 7.45501 7.51032 6.99271 7.57475 6.54545C7.67763 5.83173 8.32217 5.30483 9.05722 5.30328C10.9312 5.2995 12.8052 5.31657 14.6793 5.31948C15.7601 5.32122 16.841 5.30561 17.9218 5.30949C18.684 5.3122 19.2595 5.75093 19.4568 6.46387C19.4871 6.57299 19.491 6.69211 19.4911 6.80666C19.4931 8.82502 19.4926 10.8434 19.4926 12.8617ZM8.30313 12.8706C8.30313 14.8307 8.30294 16.7908 8.30323 18.7509C8.30333 19.3339 8.6256 19.6751 9.20251 19.6759C12.072 19.6796 14.9416 19.6793 17.8111 19.6762C18.411 19.6755 18.742 19.3447 18.7423 18.7481C18.7447 14.8279 18.7446 10.9077 18.7424 6.98737C18.7422 6.39481 18.403 6.05424 17.8083 6.05357C14.9485 6.05056 12.0885 6.05065 9.22869 6.05366C8.63632 6.05424 8.30333 6.39869 8.30323 6.99019C8.30294 8.95034 8.30313 10.9104 8.30313 12.8706Z" fill="#24F020"/>
<path d="M10.8159 15.5941C11.4518 15.5941 11.9561 16.1069 11.9551 16.7527C11.9541 17.3798 11.4212 17.9187 10.8048 17.9157C10.2108 17.9129 9.61778 17.3307 9.65179 16.742C9.6911 16.0601 10.2013 15.5797 10.8159 15.5941ZM11.201 16.7311C11.196 16.5268 11.0117 16.3527 10.8073 16.3592C10.585 16.3663 10.4346 16.5238 10.4352 16.7488C10.4358 16.9628 10.6055 17.1246 10.8238 17.1195C11.0318 17.1146 11.206 16.9353 11.201 16.7311Z" fill="#24F020"/>
<path d="M15.2266 8.60484C14.6398 8.60484 14.0528 8.60678 13.4659 8.60261C13.3822 8.60203 13.2698 8.60019 13.2208 8.54975C13.112 8.43791 12.9671 8.29503 12.9668 8.16437C12.9665 8.06213 13.1577 7.87522 13.2702 7.87017C14.1257 7.83215 14.9828 7.824 15.8394 7.81857C16.2914 7.81576 16.7436 7.84214 17.1958 7.84544C17.4378 7.84718 17.559 7.99006 17.5684 8.19764C17.578 8.4123 17.4394 8.55188 17.218 8.57972C17.0947 8.59524 16.97 8.60445 16.8459 8.60513C16.3062 8.60785 15.7664 8.6063 15.2267 8.6063C15.2266 8.60581 15.2266 8.60533 15.2266 8.60484Z" fill="#24F020"/>
<path d="M15.2442 12.4575C14.6065 12.4575 13.9688 12.4588 13.3312 12.4569C13.0455 12.4561 12.8919 12.3199 12.8926 12.0768C12.8932 11.8863 13.0997 11.7021 13.3282 11.7017C14.6132 11.6997 15.8981 11.6998 17.1831 11.7015C17.4153 11.7018 17.6156 11.8775 17.6186 12.0717C17.6223 12.3165 17.4692 12.4562 17.1862 12.4569C16.5389 12.4589 15.8915 12.4575 15.2442 12.4575Z" fill="#24F020"/>
<path d="M15.248 16.3593C14.6308 16.3593 14.0137 16.36 13.3966 16.3591C13.098 16.3586 12.8938 16.1947 12.8965 15.9609C12.899 15.7332 13.0807 15.5918 13.3868 15.5911C14.6111 15.5884 15.8356 15.5851 17.0599 15.5921C17.2066 15.5929 17.3958 15.6116 17.4867 15.7019C17.571 15.7856 17.6115 16.0072 17.5592 16.1114C17.501 16.2275 17.3185 16.3435 17.1861 16.3485C16.5407 16.3724 15.8941 16.3592 15.248 16.3593Z" fill="#24F020"/>
<path d="M10.5959 13.0401C10.8691 12.6777 11.1279 12.3094 11.4158 11.9656C11.5154 11.8468 11.6836 11.7307 11.8272 11.7219C11.9397 11.715 12.1168 11.8514 12.1678 11.9673C12.2451 12.1431 12.1726 12.3066 12.022 12.4773C11.6418 12.9082 11.3113 13.3834 10.9608 13.8407C10.7916 14.0614 10.5947 14.1034 10.3875 13.9246C10.1618 13.7299 9.93291 13.5259 9.76318 13.285C9.69054 13.1818 9.71411 12.9477 9.7825 12.8216C9.88287 12.6367 10.0853 12.6383 10.2581 12.7577C10.3754 12.8387 10.4785 12.9408 10.5959 13.0401Z" fill="#24F020"/>
<path d="M10.5852 9.15524C10.8771 8.77433 11.1561 8.40913 11.4365 8.04509C11.5714 7.86972 11.8582 7.79153 11.9882 7.89212C12.1359 8.00639 12.1152 8.26343 11.9634 8.4616C11.6021 8.93292 11.25 9.41142 10.8929 9.88593C10.7122 10.1261 10.4912 10.1511 10.2667 9.94976C10.1089 9.80824 9.95517 9.6607 9.81142 9.50492C9.63648 9.31519 9.63039 9.066 9.78157 8.91013C9.95324 8.7332 10.1306 8.74853 10.3552 8.95688C10.4245 9.02129 10.4984 9.08065 10.5852 9.15524Z" fill="#24F020"/>
<path d="M13.8241 13.2731C13.9979 13.2731 14.1717 13.2735 14.3454 13.273C14.5894 13.2723 14.6993 13.435 14.7064 13.6393C14.7136 13.8504 14.5888 14.0159 14.36 14.0247C13.9937 14.0388 13.626 14.039 13.2597 14.0247C13.0304 14.0158 12.9048 13.8439 12.9124 13.638C12.9198 13.4408 13.0265 13.2692 13.2737 13.2725C13.4573 13.275 13.6407 13.273 13.8241 13.2731Z" fill="#24F020"/>
<path d="M13.8196 10.1288C13.6466 10.1288 13.4733 10.1218 13.3007 10.1304C13.0399 10.1434 12.9266 9.96793 12.9062 9.76336C12.8846 9.54531 13.0492 9.39448 13.2557 9.38041C13.6192 9.35568 13.9862 9.36033 14.3505 9.37789C14.564 9.38817 14.7042 9.53289 14.7217 9.74843C14.7387 9.95794 14.5444 10.1241 14.3097 10.1283C14.1464 10.1311 13.9829 10.1288 13.8196 10.1288Z" fill="#24F020"/>
<path d="M13.8133 17.1261C13.9673 17.1261 14.1225 17.1135 14.2749 17.129C14.5012 17.1519 14.6644 17.2864 14.6678 17.5147C14.6714 17.7581 14.5063 17.9059 14.2652 17.9174C13.9582 17.932 13.6492 17.9311 13.3423 17.9146C13.1156 17.9023 12.9521 17.7618 12.9493 17.5326C12.9463 17.2885 13.1155 17.1516 13.3533 17.1277C13.5052 17.1125 13.66 17.1249 13.8135 17.1249C13.8133 17.1253 13.8133 17.1257 13.8133 17.1261Z" fill="#24F020"/>
</svg>
