<svg width="14" height="15" viewBox="0 0 14 15" fill="none" xmlns="http://www.w3.org/2000/svg">
<path d="M4.36133 8.20297H7.85611V9.07667H4.36133V8.20297ZM4.36133 6.01874H9.60349V6.89243H4.36133V6.01874ZM4.36133 10.3872H6.54556V11.2609H4.36133V10.3872Z" fill="#030229"/>
<path d="M10.9186 2.52386H9.60804V2.08701C9.60804 1.85529 9.516 1.63307 9.35215 1.46922C9.1883 1.30537 8.96607 1.21332 8.73435 1.21332H5.23957C5.00785 1.21332 4.78563 1.30537 4.62178 1.46922C4.45793 1.63307 4.36588 1.85529 4.36588 2.08701V2.52386H3.05534C2.82362 2.52386 2.60139 2.61591 2.43754 2.77976C2.27369 2.94361 2.18164 3.16584 2.18164 3.39755V12.5713C2.18164 12.8031 2.27369 13.0253 2.43754 13.1891C2.60139 13.353 2.82362 13.445 3.05534 13.445H10.9186C11.1503 13.445 11.3725 13.353 11.5364 13.1891C11.7002 13.0253 11.7923 12.8031 11.7923 12.5713V3.39755C11.7923 3.16584 11.7002 2.94361 11.5364 2.77976C11.3725 2.61591 11.1503 2.52386 10.9186 2.52386ZM5.23957 2.08701H8.73435V3.8344H5.23957V2.08701ZM10.9186 12.5713H3.05534V3.39755H4.36588V4.7081H9.60804V3.39755H10.9186V12.5713Z" fill="#030229"/>
</svg>
