<svg width="15" height="15" viewBox="0 0 15 15" fill="none" xmlns="http://www.w3.org/2000/svg">
<path d="M11.6582 7.84941C11.5646 7.7428 11.5129 7.60575 11.5129 7.46384C11.5129 7.32193 11.5646 7.18487 11.6582 7.07826L12.406 6.23701C12.4884 6.1451 12.5396 6.02944 12.5522 5.90665C12.5648 5.78385 12.5382 5.66022 12.4761 5.55349L11.3077 3.53214C11.2463 3.42554 11.1528 3.34104 11.0406 3.29068C10.9284 3.24033 10.8031 3.2267 10.6826 3.25173L9.58432 3.47372C9.44457 3.5026 9.29908 3.47933 9.17531 3.40829C9.05155 3.33726 8.95806 3.22338 8.91249 3.08815L8.55612 2.01906C8.51693 1.90302 8.44226 1.80224 8.34267 1.73095C8.24308 1.65966 8.1236 1.62148 8.00113 1.6218H5.66431C5.53692 1.61515 5.41085 1.65038 5.30536 1.72211C5.19987 1.79385 5.12076 1.89814 5.08011 2.01906L4.75295 3.08815C4.70739 3.22338 4.6139 3.33726 4.49013 3.40829C4.36636 3.47933 4.22087 3.5026 4.08112 3.47372L2.9536 3.25173C2.83942 3.23559 2.72302 3.25361 2.61906 3.30351C2.5151 3.35341 2.42823 3.43296 2.3694 3.53214L1.20099 5.55349C1.13741 5.65903 1.10882 5.78196 1.11931 5.90473C1.1298 6.02749 1.17884 6.14379 1.25941 6.23701L2.00135 7.07826C2.09501 7.18487 2.14666 7.32193 2.14666 7.46384C2.14666 7.60575 2.09501 7.7428 2.00135 7.84941L1.25941 8.69067C1.17884 8.78388 1.1298 8.90019 1.11931 9.02295C1.10882 9.14571 1.13741 9.26865 1.20099 9.37419L2.3694 11.3955C2.4308 11.5021 2.52428 11.5866 2.63653 11.637C2.74877 11.6873 2.87405 11.701 2.9945 11.676L4.0928 11.454C4.23255 11.4251 4.37804 11.4484 4.50181 11.5194C4.62558 11.5904 4.71907 11.7043 4.76464 11.8395L5.121 12.9086C5.16165 13.0295 5.24076 13.1338 5.34625 13.2056C5.45174 13.2773 5.57781 13.3125 5.70521 13.3059H8.04202C8.1645 13.3062 8.28398 13.268 8.38357 13.1967C8.48316 13.1254 8.55783 13.0247 8.59702 12.9086L8.95338 11.8395C8.99895 11.7043 9.09244 11.5904 9.21621 11.5194C9.33998 11.4484 9.48547 11.4251 9.62522 11.454L10.7235 11.676C10.844 11.701 10.9692 11.6873 11.0815 11.637C11.1937 11.5866 11.2872 11.5021 11.3486 11.3955L12.517 9.37419C12.5791 9.26746 12.6057 9.14383 12.5931 9.02103C12.5805 8.89823 12.5293 8.78258 12.4469 8.69067L11.6582 7.84941ZM10.7878 8.63225L11.2551 9.15803L10.5074 10.455L9.818 10.3148C9.39725 10.2287 8.95956 10.3002 8.58802 10.5156C8.21648 10.731 7.93695 11.0753 7.8025 11.4832L7.5805 12.1375H6.08494L5.87463 11.4715C5.74017 11.0636 5.46065 10.7193 5.08911 10.5039C4.71757 10.2885 4.27988 10.2171 3.85912 10.3031L3.16976 10.4433L2.4103 9.15219L2.87766 8.6264C3.16506 8.30508 3.32395 7.8891 3.32395 7.458C3.32395 7.02689 3.16506 6.61091 2.87766 6.28959L2.4103 5.7638L3.15808 4.47856L3.84744 4.61876C4.26819 4.70477 4.70588 4.6333 5.07742 4.41791C5.44896 4.20253 5.72849 3.85822 5.86294 3.45036L6.08494 2.79021H7.5805L7.8025 3.4562C7.93695 3.86407 8.21648 4.20837 8.58802 4.42376C8.95956 4.63914 9.39725 4.71061 9.818 4.62461L10.5074 4.4844L11.2551 5.78133L10.7878 6.30711C10.5036 6.6277 10.3467 7.04127 10.3467 7.46968C10.3467 7.89809 10.5036 8.31166 10.7878 8.63225ZM6.83272 5.12702C6.37054 5.12702 5.91874 5.26407 5.53445 5.52085C5.15017 5.77762 4.85065 6.14258 4.67378 6.56958C4.49692 6.99657 4.45064 7.46643 4.54081 7.91973C4.63097 8.37303 4.85353 8.78941 5.18034 9.11622C5.50715 9.44303 5.92353 9.66559 6.37683 9.75575C6.83013 9.84592 7.29998 9.79964 7.72698 9.62278C8.15398 9.44591 8.51894 9.14639 8.77571 8.7621C9.03249 8.37782 9.16954 7.92602 9.16954 7.46384C9.16954 6.84408 8.92334 6.2497 8.4851 5.81146C8.04686 5.37322 7.45248 5.12702 6.83272 5.12702ZM6.83272 8.63225C6.60163 8.63225 6.37573 8.56372 6.18359 8.43533C5.99144 8.30695 5.84169 8.12447 5.75325 7.91097C5.66482 7.69747 5.64168 7.46254 5.68676 7.23589C5.73185 7.00924 5.84313 6.80105 6.00653 6.63765C6.16994 6.47424 6.37813 6.36296 6.60478 6.31788C6.83143 6.2728 7.06635 6.29594 7.27985 6.38437C7.49335 6.4728 7.67583 6.62256 7.80422 6.81471C7.9326 7.00685 8.00113 7.23275 8.00113 7.46384C8.00113 7.77372 7.87803 8.07091 7.65891 8.29003C7.43979 8.50915 7.1426 8.63225 6.83272 8.63225Z" fill="#4C4C61"/>
</svg>
