<svg width="18" height="18" viewBox="0 0 18 18" fill="none" xmlns="http://www.w3.org/2000/svg">
<g clip-path="url(#clip0_2117_13362)">
<path d="M10.8176 10.8793C10.9629 10.8793 11.1023 10.8215 11.2051 10.7188C11.3079 10.616 11.3656 10.4766 11.3656 10.3312C11.3656 10.1859 11.3079 10.0465 11.2051 9.94372C11.1023 9.84094 10.9629 9.7832 10.8176 9.7832C10.6722 9.7832 10.5328 9.84094 10.4301 9.94372C10.3273 10.0465 10.2695 10.1859 10.2695 10.3312C10.2695 10.4766 10.3273 10.616 10.4301 10.7188C10.5328 10.8215 10.6722 10.8793 10.8176 10.8793ZM10.8176 13.6194C10.9629 13.6194 11.1023 13.5617 11.2051 13.4589C11.3079 13.3561 11.3656 13.2167 11.3656 13.0714C11.3656 12.926 11.3079 12.7866 11.2051 12.6839C11.1023 12.5811 10.9629 12.5234 10.8176 12.5234C10.6722 12.5234 10.5328 12.5811 10.4301 12.6839C10.3273 12.7866 10.2695 12.926 10.2695 13.0714C10.2695 13.2167 10.3273 13.3561 10.4301 13.4589C10.5328 13.5617 10.6722 13.6194 10.8176 13.6194ZM4.51523 10.8793C4.44255 10.8793 4.37286 10.9081 4.32147 10.9595C4.27008 11.0109 4.24121 11.0806 4.24121 11.1533C4.24121 11.226 4.27008 11.2956 4.32147 11.347C4.37286 11.3984 4.44255 11.4273 4.51523 11.4273H7.25538C7.32805 11.4273 7.39775 11.3984 7.44914 11.347C7.50052 11.2956 7.52939 11.226 7.52939 11.1533C7.52939 11.0806 7.50052 11.0109 7.44914 10.9595C7.39775 10.9081 7.32805 10.8793 7.25538 10.8793H4.51523ZM4.24121 12.2493C4.24121 12.1767 4.27008 12.107 4.32147 12.0556C4.37286 12.0042 4.44255 11.9753 4.51523 11.9753H7.25538C7.32805 11.9753 7.39775 12.0042 7.44914 12.0556C7.50052 12.107 7.52939 12.1767 7.52939 12.2493C7.52939 12.322 7.50052 12.3917 7.44914 12.4431C7.39775 12.4945 7.32805 12.5234 7.25538 12.5234H4.51523C4.44255 12.5234 4.37286 12.4945 4.32147 12.4431C4.27008 12.3917 4.24121 12.322 4.24121 12.2493ZM4.24121 13.3454C4.24121 13.2727 4.27008 13.203 4.32147 13.1516C4.37286 13.1003 4.44255 13.0714 4.51523 13.0714H7.25538C7.32805 13.0714 7.39775 13.1003 7.44914 13.1516C7.50052 13.203 7.52939 13.2727 7.52939 13.3454C7.52939 13.4181 7.50052 13.4878 7.44914 13.5392C7.39775 13.5905 7.32805 13.6194 7.25538 13.6194H4.51523C4.44255 13.6194 4.37286 13.5905 4.32147 13.5392C4.27008 13.4878 4.24121 13.4181 4.24121 13.3454Z" fill="#030229"/>
<path d="M12.9078 3.40883C13.5254 3.91584 13.9362 4.63118 14.063 5.4201C14.1383 5.87982 14.1144 6.35033 13.9929 6.80004C13.8735 7.24705 13.6606 7.66362 13.3681 8.02215C13.2153 8.2102 13.0422 8.38076 12.8519 8.53072C12.9527 8.74445 13.0097 8.98284 13.0097 9.23494V10.331H13.5577V9.84764C13.5578 9.74589 13.5862 9.64616 13.6397 9.55963C13.6932 9.4731 13.7698 9.40318 13.8608 9.3577L15.5049 8.53565C15.5884 8.49391 15.6812 8.47421 15.7745 8.47841C15.8678 8.48261 15.9585 8.51058 16.0379 8.55966C16.1174 8.60874 16.1829 8.6773 16.2284 8.75885C16.2739 8.84039 16.2979 8.93221 16.2979 9.02559V14.4538C16.2979 14.5434 16.2759 14.6316 16.2339 14.7107C16.1919 14.7898 16.1311 14.8575 16.0569 14.9076C15.9827 14.9578 15.8973 14.9891 15.8083 14.9986C15.7192 15.0082 15.6292 14.9957 15.546 14.9624L13.9019 14.3048C13.8003 14.2641 13.7132 14.1939 13.6519 14.1032C13.5906 14.0126 13.5578 13.9056 13.5577 13.7962V13.0712H13.0097V14.1672C13.0097 14.6033 12.8365 15.0214 12.5282 15.3298C12.2198 15.6381 11.8017 15.8113 11.3656 15.8113H4.24123C3.80519 15.8113 3.38701 15.6381 3.07868 15.3298C2.77036 15.0214 2.59714 14.6033 2.59714 14.1672V9.45415C2.17326 9.23694 1.80642 8.92305 1.52629 8.53784C1.09227 7.9411 0.89327 7.20539 0.967298 6.47122C1.0089 6.04551 1.1412 5.63366 1.3553 5.26336C1.56978 4.89033 1.86212 4.5679 2.21242 4.31801C2.81105 3.88779 3.54706 3.69292 4.28014 3.77053C4.70761 3.81437 5.10767 3.94809 5.46279 4.15141C5.84107 4.36703 6.16779 4.66252 6.4202 5.0173C6.84669 5.61284 7.04081 6.34373 6.96604 7.07241C6.94843 7.24778 6.91543 7.42126 6.86739 7.59085H7.96948L7.96291 7.57989C7.76823 7.23954 7.63625 6.86699 7.57326 6.47999C7.49679 6.01975 7.51978 5.54847 7.64067 5.09786C7.76119 4.64432 7.97801 4.22207 8.27638 3.85986C8.78597 3.23755 9.50678 2.82458 10.3014 2.69968C10.7521 2.62715 11.213 2.64993 11.6544 2.76654C12.114 2.88696 12.5417 3.10615 12.9078 3.40883ZM9.80758 7.59085H10.794L10.7195 7.313C10.706 7.2623 10.6794 7.21606 10.6423 7.17893C10.6052 7.1418 10.5591 7.11508 10.5084 7.10147C10.4577 7.08786 10.4044 7.08783 10.3537 7.1014C10.303 7.11496 10.2568 7.14163 10.2197 7.17873L9.80758 7.59085ZM12.5011 8.04571C12.5638 7.99531 12.6241 7.94209 12.682 7.88624L12.7532 7.81499C12.9176 7.64455 13.0585 7.45329 13.1725 7.24723C13.1677 7.18565 13.1439 7.12708 13.1043 7.07964C13.0647 7.03221 13.0114 6.99827 12.9516 6.98253L11.9515 6.71455C11.9008 6.70089 11.8474 6.70084 11.7967 6.71439C11.746 6.72794 11.6997 6.75463 11.6626 6.79175C11.6255 6.82887 11.5988 6.87512 11.5852 6.92583C11.5717 6.97655 11.5717 7.02994 11.5854 7.08063L11.7334 7.63195C12.0217 7.69817 12.2868 7.84114 12.5006 8.04571H12.5011ZM3.48769 7.77334C3.44575 7.72601 3.38874 7.69464 3.32631 7.68455C3.26388 7.67446 3.19988 7.68628 3.14517 7.71799L2.32313 8.19258C2.27404 8.22072 2.2349 8.26341 2.21114 8.31476C2.18738 8.36611 2.18017 8.42358 2.1905 8.47921C2.32587 8.6195 2.47767 8.7439 2.64263 8.84912C2.6982 8.61974 2.80241 8.40497 2.94821 8.21937C3.09401 8.03376 3.27799 7.88165 3.48769 7.77334ZM11.9137 9.23494C11.9137 9.08959 11.8559 8.9502 11.7531 8.84742C11.6504 8.74465 11.511 8.68691 11.3656 8.68691H4.24123C4.09589 8.68691 3.95649 8.74465 3.85372 8.84742C3.75094 8.9502 3.6932 9.08959 3.6932 9.23494V14.1672C3.6932 14.3126 3.75094 14.452 3.85372 14.5547C3.95649 14.6575 4.09589 14.7152 4.24123 14.7152H11.3656C11.511 14.7152 11.6504 14.6575 11.7531 14.5547C11.8559 14.452 11.9137 14.3126 11.9137 14.1672V9.23494ZM10.0498 4.81233L9.78127 3.81273C9.7655 3.75291 9.73148 3.6995 9.68394 3.65991C9.6364 3.62033 9.57771 3.59655 9.51602 3.59187C9.30777 3.70696 9.1187 3.8478 8.95155 4.00837L8.88305 4.07688C8.71864 4.24786 8.57725 4.43967 8.46271 4.64683C8.46761 4.70832 8.49149 4.76677 8.53106 4.81409C8.57062 4.86141 8.62392 4.89527 8.68357 4.91098L9.68372 5.17897C9.73441 5.19262 9.7878 5.19267 9.83852 5.17912C9.88924 5.16557 9.93549 5.13889 9.97261 5.10177C10.0097 5.06465 10.0364 5.0184 10.05 4.96768C10.0635 4.91696 10.0635 4.86302 10.0498 4.81233ZM10.7672 3.25648C10.7161 3.29134 10.6771 3.34127 10.6557 3.39932C10.6343 3.45737 10.6315 3.52065 10.6477 3.58036L10.9157 4.58052C10.9292 4.63121 10.9558 4.67745 10.9929 4.71458C11.03 4.75172 11.0761 4.77843 11.1268 4.79204C11.1775 4.80566 11.2308 4.80568 11.2815 4.79212C11.3322 4.77855 11.3784 4.75188 11.4155 4.71478L12.1477 3.98262C12.1916 3.93914 12.2209 3.88306 12.2315 3.82218C12.2421 3.76129 12.2335 3.69861 12.2069 3.64284C12.0039 3.52072 11.7857 3.42583 11.558 3.3606L11.4648 3.33539C11.2368 3.27852 11.0022 3.25199 10.7672 3.25648ZM8.51313 7.33547C8.56884 7.36217 8.63149 7.37088 8.69238 7.36037C8.75326 7.34986 8.80937 7.32066 8.85291 7.27683L9.58563 6.54466C9.62272 6.50756 9.6494 6.46135 9.66296 6.41067C9.67652 6.35999 9.6765 6.30663 9.66288 6.25597C9.64927 6.2053 9.62256 6.15911 9.58542 6.12205C9.54829 6.08499 9.50205 6.05837 9.45136 6.04485L8.4512 5.77687C8.39157 5.76076 8.32841 5.76361 8.27047 5.78502C8.21254 5.80643 8.1627 5.84533 8.12786 5.89634C8.11834 6.40274 8.25188 6.90155 8.51313 7.33547ZM13.1221 4.55805C13.0664 4.53134 13.0037 4.52263 12.9428 4.53314C12.8819 4.54365 12.8258 4.57285 12.7823 4.61669L12.0496 5.34886C12.0125 5.38595 11.9858 5.43216 11.9722 5.48284C11.9587 5.53352 11.9587 5.58688 11.9723 5.63755C11.9859 5.68821 12.0126 5.7344 12.0498 5.77146C12.0869 5.80852 12.1331 5.83515 12.1838 5.84866L13.184 6.11665C13.3155 6.15172 13.4399 6.09472 13.5073 5.99718C13.5169 5.49077 13.3834 4.99194 13.1221 4.55805ZM11.2401 5.52422C11.1281 5.41216 10.9761 5.34921 10.8176 5.34921C10.6591 5.34921 10.5071 5.41216 10.3951 5.52422C10.283 5.63629 10.22 5.78828 10.22 5.94676C10.22 6.10524 10.283 6.25723 10.3951 6.36929C10.4506 6.42478 10.5164 6.46879 10.5889 6.49882C10.6614 6.52885 10.7391 6.54431 10.8176 6.54431C10.8961 6.54431 10.9738 6.52885 11.0463 6.49882C11.1188 6.46879 11.1846 6.42478 11.2401 6.36929C11.2956 6.3138 11.3396 6.24793 11.3697 6.17543C11.3997 6.10293 11.4151 6.02523 11.4151 5.94676C11.4151 5.86829 11.3997 5.79058 11.3697 5.71808C11.3396 5.64559 11.2956 5.57971 11.2401 5.52422ZM3.14517 5.81961C3.18683 5.84366 3.23408 5.85632 3.28218 5.85632C3.33028 5.85632 3.37753 5.84366 3.41918 5.81962C3.46084 5.79557 3.49543 5.76098 3.51948 5.71932C3.54353 5.67767 3.55619 5.63042 3.55619 5.58232V4.63313C3.55644 4.57639 3.53899 4.52099 3.50628 4.47463C3.47358 4.42827 3.42723 4.39325 3.3737 4.37446C3.16436 4.4263 2.96277 4.50553 2.77415 4.61011L2.69743 4.65395C2.51146 4.76597 2.34102 4.90195 2.1905 5.0584C2.18017 5.11403 2.18738 5.17149 2.21114 5.22284C2.2349 5.27419 2.27404 5.31689 2.32313 5.34502L3.14517 5.81961ZM4.37824 4.63313V5.58232C4.37824 5.63042 4.3909 5.67767 4.41495 5.71932C4.439 5.76098 4.4736 5.79557 4.51525 5.81962C4.55691 5.84366 4.60416 5.85632 4.65226 5.85632C4.70036 5.85632 4.74761 5.84366 4.78926 5.81961L5.61131 5.34502C5.6604 5.31689 5.69953 5.27419 5.72329 5.22284C5.74705 5.17149 5.75426 5.11403 5.74393 5.0584C5.59323 4.90192 5.42261 4.76594 5.23646 4.65395L5.15973 4.61011C4.9713 4.50554 4.7699 4.42631 4.56073 4.37446C4.5072 4.39325 4.46086 4.42827 4.42815 4.47463C4.39544 4.52099 4.378 4.57639 4.37824 4.63313ZM1.9121 7.48069L2.73415 7.0061C2.7758 6.98205 2.81039 6.94746 2.83444 6.9058C2.85848 6.86415 2.87114 6.8169 2.87114 6.7688C2.87114 6.7207 2.85848 6.67345 2.83444 6.6318C2.81039 6.59015 2.7758 6.55556 2.73415 6.53151L1.9121 6.05691C1.86307 6.02841 1.80638 6.01589 1.7499 6.0211C1.69343 6.0263 1.63998 6.04897 1.59699 6.08596C1.46848 6.53212 1.46848 7.00549 1.59699 7.45165C1.68029 7.52289 1.80414 7.54317 1.9121 7.48069ZM6.43335 6.7688C6.43335 6.53205 6.39992 6.30298 6.33745 6.08596C6.29445 6.04897 6.241 6.0263 6.18453 6.0211C6.12806 6.01589 6.07136 6.02841 6.02233 6.05691L5.20029 6.53151C5.15863 6.55556 5.12405 6.59015 5.1 6.6318C5.07595 6.67345 5.06329 6.7207 5.06329 6.7688C5.06329 6.8169 5.07595 6.86415 5.1 6.9058C5.12405 6.94746 5.15863 6.98205 5.20029 7.0061L6.02233 7.48069C6.07136 7.50919 6.12806 7.52171 6.18453 7.5165C6.241 7.5113 6.29445 7.48863 6.33745 7.45165C6.40124 7.22965 6.43352 6.99979 6.43335 6.7688ZM4.24123 7.2434C4.30406 7.20767 4.3592 7.15988 4.40349 7.10276C4.44777 7.04564 4.48031 6.98032 4.49925 6.91057C4.51819 6.84082 4.52314 6.76802 4.51382 6.69635C4.50451 6.62468 4.48111 6.55555 4.44497 6.49296C4.40883 6.43037 4.36067 6.37555 4.30326 6.33165C4.24585 6.28774 4.18032 6.25563 4.11044 6.23716C4.04057 6.21869 3.96773 6.21421 3.89612 6.22401C3.82452 6.2338 3.75555 6.25766 3.6932 6.29421C3.56836 6.3674 3.47753 6.487 3.44054 6.62691C3.40355 6.76682 3.4234 6.91568 3.49576 7.04101C3.56812 7.16633 3.68711 7.25795 3.82678 7.29587C3.96644 7.33379 4.11543 7.31492 4.24123 7.2434Z" fill="#030229"/>
</g>
<defs>
<clipPath id="clip0_2117_13362">
<rect width="17.537" height="17.537" fill="white" transform="translate(0.0576172 0.0380859)"/>
</clipPath>
</defs>
</svg>
