<svg width="81" height="82" viewBox="0 0 81 82" fill="none" xmlns="http://www.w3.org/2000/svg">
<path fill-rule="evenodd" clip-rule="evenodd" d="M0.163086 41.0556C0.163086 30.2975 4.43672 19.98 12.0438 12.3729C19.6509 4.76582 29.9684 0.492188 40.7265 0.492188C51.4845 0.492188 61.802 4.76582 69.4091 12.3729C77.0162 19.98 81.2898 30.2975 81.2898 41.0556C81.2898 51.8136 77.0162 62.1311 69.4091 69.7382C61.802 77.3453 51.4845 81.6189 40.7265 81.6189C29.9684 81.6189 19.6509 77.3453 12.0438 69.7382C4.43672 62.1311 0.163086 51.8136 0.163086 41.0556ZM38.4116 58.4167L61.7653 29.2219L57.5467 25.847L37.6328 50.7313L23.5276 38.9787L20.0662 43.1324L38.4116 58.4221V58.4167Z" fill="#2AD531"/>
</svg>
