<svg width="27" height="26" viewBox="0 0 27 26" fill="none" xmlns="http://www.w3.org/2000/svg">
<rect x="0.75" width="26" height="26" rx="4" fill="#F8F8F8"/>
<path d="M13.5452 12.1549C14.1076 12.149 14.6556 11.9768 15.1204 11.6601C15.5851 11.3434 15.9457 10.8962 16.1568 10.3749C16.3679 9.85368 16.4201 9.28161 16.3068 8.73075C16.1934 8.1799 15.9197 7.67489 15.5199 7.2793C15.1202 6.88372 14.6123 6.61525 14.0603 6.50769C13.5083 6.40013 12.9368 6.45829 12.4178 6.67486C11.8987 6.89142 11.4554 7.2567 11.1435 7.72471C10.8317 8.19272 10.6653 8.74253 10.6652 9.30492C10.6705 10.0644 10.9766 10.7907 11.5164 11.3249C12.0562 11.8591 12.7858 12.1576 13.5452 12.1549ZM13.5452 7.45492C13.9098 7.46083 14.2645 7.57434 14.5647 7.78118C14.865 7.98802 15.0974 8.27898 15.2329 8.6175C15.3683 8.95602 15.4007 9.32701 15.326 9.68388C15.2512 10.0407 15.0727 10.3676 14.8128 10.6233C14.5529 10.879 14.2233 11.0523 13.8653 11.1213C13.5072 11.1902 13.1368 11.1519 12.8005 11.011C12.4642 10.8702 12.177 10.6331 11.9751 10.3295C11.7731 10.026 11.6653 9.66953 11.6652 9.30492C11.6705 8.8107 11.8712 8.33868 12.2235 7.99201C12.5758 7.64535 13.051 7.45225 13.5452 7.45492Z" fill="#D73D24"/>
<path d="M13.5396 12.1549C14.102 12.149 14.65 11.9768 15.1147 11.6601C15.5794 11.3434 15.9401 10.8962 16.1512 10.3749C16.3623 9.85368 16.4145 9.28161 16.3011 8.73075C16.1878 8.1799 15.914 7.67489 15.5143 7.2793C15.1145 6.88372 14.6067 6.61525 14.0547 6.50769C13.5027 6.40013 12.9312 6.45829 12.4121 6.67486C11.8931 6.89142 11.4498 7.2567 11.1379 7.72471C10.8261 8.19272 10.6596 8.74253 10.6596 9.30492C10.6649 10.0644 10.971 10.7907 11.5108 11.3249C12.0506 11.8591 12.7802 12.1576 13.5396 12.1549ZM13.5396 7.45492C13.9042 7.46083 14.2589 7.57434 14.5591 7.78118C14.8594 7.98802 15.0918 8.27898 15.2272 8.6175C15.3627 8.95602 15.3951 9.32701 15.3203 9.68388C15.2456 10.0407 15.0671 10.3676 14.8072 10.6233C14.5473 10.879 14.2177 11.0523 13.8596 11.1213C13.5016 11.1902 13.1312 11.1519 12.7949 11.011C12.4586 10.8702 12.1714 10.6331 11.9694 10.3295C11.7674 10.026 11.6597 9.66953 11.6596 9.30492C11.6649 8.8107 11.8656 8.33868 12.2179 7.99201C12.5702 7.64535 13.0454 7.45225 13.5396 7.45492ZM11.7946 12.8249C14.0123 12.439 16.2954 12.7903 18.2946 13.8249C18.4365 13.9037 18.554 14.02 18.6343 14.1611C18.7145 14.3022 18.7544 14.4627 18.7496 14.6249V16.4049C18.7496 16.5375 18.6969 16.6647 18.6032 16.7585C18.5094 16.8522 18.3822 16.9049 18.2496 16.9049C18.117 16.9049 17.9898 16.8522 17.8961 16.7585C17.8023 16.6647 17.7496 16.5375 17.7496 16.4049V14.6899C15.8958 13.7597 13.7876 13.4646 11.7496 13.8499L11.7946 12.8249Z" fill="#D73D24"/>
<path d="M17.3339 10.1201C18.7182 10.1432 20.0785 10.4854 21.3089 11.1201C21.4427 11.1907 21.5548 11.2965 21.6332 11.4259C21.7116 11.5554 21.7533 11.7037 21.7539 11.8551V13.4051C21.7539 13.5377 21.7012 13.6648 21.6075 13.7586C21.5137 13.8524 21.3865 13.9051 21.2539 13.9051C21.1213 13.9051 20.9941 13.8524 20.9004 13.7586C20.8066 13.6648 20.7539 13.5377 20.7539 13.4051V11.9551C19.5783 11.3699 18.2766 11.0831 16.9639 11.1201C17.1357 10.8067 17.2603 10.4697 17.3339 10.1201ZM6.1989 11.1151C7.30247 10.5362 8.51532 10.1955 9.75891 10.1151C9.83214 10.4641 9.95505 10.8009 10.1239 11.1151C8.95237 11.1431 7.80154 11.43 6.75391 11.9551V13.4051C6.75391 13.5377 6.70123 13.6648 6.60746 13.7586C6.51369 13.8524 6.38651 13.9051 6.25391 13.9051C6.1213 13.9051 5.99412 13.8524 5.90035 13.7586C5.80658 13.6648 5.75391 13.5377 5.75391 13.4051V11.8551C5.7536 11.7029 5.7949 11.5535 5.87333 11.4231C5.95175 11.2926 6.06434 11.1861 6.1989 11.1151ZM17.4239 9.30506V8.97006C17.8156 8.91764 18.172 8.71618 18.4189 8.40761C18.6658 8.09904 18.7841 7.70713 18.7493 7.31349C18.7145 6.91984 18.5293 6.55477 18.2321 6.29429C17.9349 6.0338 17.5487 5.89797 17.1539 5.91506C16.7432 5.91431 16.3485 6.07399 16.0539 6.36006C15.794 6.14565 15.5085 5.96427 15.2039 5.82006C15.5441 5.42889 15.9948 5.14998 16.4967 5.02009C16.9986 4.89021 17.528 4.91545 18.0153 5.09248C18.5025 5.26951 18.9247 5.59003 19.2261 6.01179C19.5276 6.43354 19.6942 6.93674 19.7039 7.45506C19.6934 8.08944 19.4468 8.69712 19.0123 9.15941C18.5777 9.6217 17.9864 9.90538 17.3539 9.95506C17.3963 9.74087 17.4197 9.52336 17.4239 9.30506ZM10.3689 4.91506C10.7125 4.91513 11.0527 4.98371 11.3694 5.11678C11.6862 5.24985 11.9733 5.44474 12.2139 5.69006C11.8759 5.81254 11.5562 5.98078 11.2639 6.19006C11.0305 6.02802 10.7575 5.93238 10.4739 5.91331C10.1904 5.89425 9.90707 5.95249 9.65405 6.08182C9.40104 6.21115 9.18787 6.40672 9.03727 6.64768C8.88667 6.88864 8.80428 7.16596 8.79891 7.45006C8.80205 7.74188 8.88778 8.02684 9.04618 8.27195C9.20457 8.51706 9.42915 8.7123 9.6939 8.83506C9.67379 8.98924 9.66377 9.14457 9.66391 9.30006C9.66524 9.50104 9.68196 9.70163 9.71391 9.90006C9.16921 9.76003 8.68609 9.44385 8.33974 9.00074C7.99339 8.55763 7.80325 8.01245 7.79891 7.45006C7.80551 6.77371 8.0795 6.12746 8.56104 5.65248C9.04258 5.17749 9.69253 4.91238 10.3689 4.91506Z" fill="#D73D24"/>
<path d="M10.1513 13.624V14.2242H8.35068V13.624H7.75049V14.2242H6.5501C6.47051 14.2242 6.39418 14.2558 6.3379 14.3121C6.28162 14.3684 6.25 14.4447 6.25 14.5243V19.3259C6.25 19.4055 6.28162 19.4818 6.3379 19.5381C6.39418 19.5944 6.47051 19.626 6.5501 19.626H11.9519C12.0314 19.626 12.1078 19.5944 12.1641 19.5381C12.2203 19.4818 12.252 19.4055 12.252 19.3259V14.5243C12.252 14.4447 12.2203 14.3684 12.1641 14.3121C12.1078 14.2558 12.0314 14.2242 11.9519 14.2242H10.7515V13.624H10.1513ZM6.8502 16.625H11.6518V19.0258H6.8502V16.625ZM10.4514 17.2252V17.8254H11.0516V17.2252H10.4514ZM8.95088 17.2252V17.8254H9.55107V17.2252H8.95088ZM7.45039 17.2252V17.8254H8.05059V17.2252H7.45039ZM10.7515 14.8244H11.6518V16.0248H6.8502V14.8244H7.75049V15.4246H8.35068V14.8244H10.1513V15.4246H10.7515V14.8244Z" fill="#D73D24"/>
</svg>
