<svg width="15" height="15" viewBox="0 0 15 15" fill="none" xmlns="http://www.w3.org/2000/svg">
<g clip-path="url(#clip0_44_901)">
<mask id="mask0_44_901" style="mask-type:luminance" maskUnits="userSpaceOnUse" x="0" y="0" width="15" height="15">
<path d="M0.0371094 0.873876H14.058V14.8948H0.0371094V0.873876Z" fill="white"/>
</mask>
<g mask="url(#mask0_44_901)">
<path d="M13.1005 3.33864V2.10633C13.1005 1.65262 12.7326 1.28479 12.2789 1.28479H6.80201C6.3483 1.28479 5.98047 1.65262 5.98047 2.10633V6.21402C5.98047 6.66772 6.3483 7.03555 6.80201 7.03555H12.2789C12.7326 7.03555 13.1005 6.66772 13.1005 6.21402V4.98171" stroke="#4C4C61" stroke-width="1.00149" stroke-miterlimit="10" stroke-linecap="round" stroke-linejoin="round"/>
<path d="M13.6486 3.33822H12.2789C11.825 3.33822 11.457 3.70618 11.457 4.16006C11.457 4.61394 11.825 4.9819 12.2789 4.9819H13.6486V3.33822Z" stroke="#4C4C61" stroke-width="1.00149" stroke-miterlimit="10" stroke-linecap="round" stroke-linejoin="round"/>
<path d="M7.56921 10.7873V9.555C7.56921 9.10129 7.20138 8.73346 6.74767 8.73346H1.27076C0.817048 8.73346 0.449219 9.10129 0.449219 9.555V13.6627C0.449219 14.1164 0.817048 14.4842 1.27076 14.4842H6.74767C7.20138 14.4842 7.56921 14.1164 7.56921 13.6627V12.4304" stroke="#4C4C61" stroke-width="1.00149" stroke-miterlimit="10" stroke-linecap="round" stroke-linejoin="round"/>
<path d="M8.11736 10.7867H6.74762C6.29375 10.7867 5.92578 11.1547 5.92578 11.6085C5.92578 12.0624 6.29375 12.4304 6.74762 12.4304H8.11736V10.7867Z" stroke="#4C4C61" stroke-width="1.00149" stroke-miterlimit="10" stroke-linecap="round" stroke-linejoin="round"/>
<path d="M9.79492 11.6091H11.438V8.87067" stroke="#4C4C61" stroke-width="1.00149" stroke-miterlimit="10" stroke-linecap="round" stroke-linejoin="round"/>
<path d="M4.30518 4.16007H2.66211V6.89853" stroke="#4C4C61" stroke-width="1.00149" stroke-miterlimit="10" stroke-linecap="round" stroke-linejoin="round"/>
</g>
</g>
<defs>
<clipPath id="clip0_44_901">
<rect width="14.0209" height="14.0209" fill="white" transform="translate(0.0332031 0.529053)"/>
</clipPath>
</defs>
</svg>
