<svg width="31" height="31" viewBox="0 0 31 31" fill="none" xmlns="http://www.w3.org/2000/svg">
<mask id="mask0_6189_2174" style="mask-type:alpha" maskUnits="userSpaceOnUse" x="0" y="0" width="31" height="31">
<rect x="0.21875" y="0.09375" width="30.4679" height="30.4679" fill="#D9D9D9"/>
</mask>
<g mask="url(#mask0_6189_2174)">
<path d="M15.4529 15.3279C14.0564 15.3279 12.861 14.8306 11.8665 13.8362C10.8721 12.8418 10.3749 11.6463 10.3749 10.2499C10.3749 8.85342 10.8721 7.65798 11.8665 6.66354C12.861 5.6691 14.0564 5.17188 15.4529 5.17188C16.8493 5.17188 18.0447 5.6691 19.0392 6.66354C20.0336 7.65798 20.5308 8.85342 20.5308 10.2499C20.5308 11.6463 20.0336 12.8418 19.0392 13.8362C18.0447 14.8306 16.8493 15.3279 15.4529 15.3279ZM5.29688 25.4838V21.9292C5.29688 21.2099 5.48201 20.5487 5.85228 19.9457C6.22255 19.3426 6.71448 18.8825 7.32807 18.5651C8.63989 17.9092 9.97286 17.4172 11.327 17.0893C12.6811 16.7613 14.0564 16.5974 15.4529 16.5974C16.8493 16.5974 18.2246 16.7613 19.5787 17.0893C20.9329 17.4172 22.2658 17.9092 23.5776 18.5651C24.1912 18.8825 24.6832 19.3426 25.0534 19.9457C25.4237 20.5487 25.6088 21.2099 25.6088 21.9292V25.4838H5.29688ZM7.83587 22.9448H23.0698V21.9292C23.0698 21.6965 23.0117 21.4849 22.8953 21.2945C22.7789 21.1041 22.6255 20.956 22.4351 20.8502C21.2925 20.2789 20.1394 19.8504 18.9757 19.5648C17.812 19.2792 16.6377 19.1364 15.4529 19.1364C14.268 19.1364 13.0937 19.2792 11.93 19.5648C10.7663 19.8504 9.61317 20.2789 8.47062 20.8502C8.28019 20.956 8.1268 21.1041 8.01043 21.2945C7.89406 21.4849 7.83587 21.6965 7.83587 21.9292V22.9448ZM15.4529 12.7889C16.1511 12.7889 16.7488 12.5403 17.246 12.043C17.7432 11.5458 17.9919 10.9481 17.9919 10.2499C17.9919 9.55164 17.7432 8.95392 17.246 8.4567C16.7488 7.95948 16.1511 7.71087 15.4529 7.71087C14.7546 7.71087 14.1569 7.95948 13.6597 8.4567C13.1625 8.95392 12.9139 9.55164 12.9139 10.2499C12.9139 10.9481 13.1625 11.5458 13.6597 12.043C14.1569 12.5403 14.7546 12.7889 15.4529 12.7889Z" fill="#030229"/>
</g>
</svg>
