<svg width="15" height="14" viewBox="0 0 15 14" fill="none" xmlns="http://www.w3.org/2000/svg">
<g clip-path="url(#clip0_2117_13274)">
<path d="M9.93276 11.7669C10.4123 11.7669 10.8011 11.3781 10.8011 10.8986C10.8011 10.419 10.4123 10.0303 9.93276 10.0303C9.45321 10.0303 9.06445 10.419 9.06445 10.8986C9.06445 11.3781 9.45321 11.7669 9.93276 11.7669Z" fill="black"/>
<path d="M13.3106 10.6717C13.0423 9.98829 12.5794 9.39863 11.9792 8.97579C11.3791 8.55295 10.668 8.31554 9.93417 8.29297C9.20035 8.31554 8.48928 8.55295 7.88909 8.97579C7.28891 9.39863 6.82601 9.98829 6.55775 10.6717L6.46094 10.8979L6.55775 11.1241C6.82601 11.8075 7.28891 12.3972 7.88909 12.82C8.48928 13.2428 9.20035 13.4802 9.93417 13.5028C10.668 13.4802 11.3791 13.2428 11.9792 12.82C12.5794 12.3972 13.0423 11.8075 13.3106 11.1241L13.4074 10.8979L13.3106 10.6717ZM9.93417 12.6345C9.5907 12.6345 9.25494 12.5327 8.96936 12.3418C8.68377 12.151 8.46119 11.8798 8.32975 11.5625C8.1983 11.2451 8.16391 10.896 8.23092 10.5591C8.29793 10.2222 8.46333 9.91279 8.7062 9.66992C8.94907 9.42705 9.2585 9.26165 9.59537 9.19465C9.93224 9.12764 10.2814 9.16203 10.5987 9.29347C10.9161 9.42491 11.1873 9.6475 11.3781 9.93308C11.5689 10.2187 11.6708 10.5544 11.6708 10.8979C11.6702 11.3583 11.4871 11.7997 11.1615 12.1252C10.836 12.4508 10.3946 12.6339 9.93417 12.6345Z" fill="black"/>
<path d="M5.59125 12.6358H3.85464V2.21611H7.32787V4.82104C7.32855 5.05111 7.42026 5.27157 7.58295 5.43426C7.74564 5.59695 7.9661 5.68866 8.19618 5.68934H10.8011V7.42596H11.6694V4.82104C11.6709 4.76398 11.6601 4.70726 11.6376 4.6548C11.6151 4.60234 11.5815 4.55537 11.5392 4.51713L8.50008 1.47805C8.46186 1.43565 8.41489 1.40205 8.36243 1.37957C8.30996 1.35708 8.25324 1.34624 8.19618 1.3478H3.85464C3.62456 1.34849 3.4041 1.44019 3.24141 1.60288C3.07872 1.76558 2.98702 1.98603 2.98633 2.21611V12.6358C2.98702 12.8659 3.07872 13.0863 3.24141 13.249C3.4041 13.4117 3.62456 13.5034 3.85464 13.5041H5.59125V12.6358ZM8.19618 2.38977L10.6274 4.82104H8.19618V2.38977Z" fill="black"/>
</g>
<defs>
<clipPath id="clip0_2117_13274">
<rect width="13.8929" height="13.8929" fill="white" transform="translate(0.582031 0.0517578)"/>
</clipPath>
</defs>
</svg>
