<svg width="31" height="32" viewBox="0 0 31 32" fill="none" xmlns="http://www.w3.org/2000/svg">
<path d="M10.7576 22.3003L15.3278 17.7301L19.898 22.3003L21.6753 20.523L17.1051 15.9528L21.6753 11.3826L19.898 9.6053L15.3278 14.1755L10.7576 9.6053L8.9803 11.3826L13.5505 15.9528L8.9803 20.523L10.7576 22.3003ZM15.3278 28.6478C13.5717 28.6478 11.9213 28.3143 10.3767 27.6474C8.83219 26.9805 7.48864 26.0762 6.34609 24.9345C5.20355 23.7919 4.29924 22.4484 3.63318 20.9038C2.96711 19.3593 2.63366 17.7089 2.63281 15.9528C2.63281 14.1967 2.96627 12.5463 3.63318 11.0017C4.30009 9.45719 5.20439 8.11364 6.34609 6.97109C7.48864 5.82855 8.83219 4.92424 10.3767 4.25818C11.9213 3.59211 13.5717 3.25866 15.3278 3.25781C17.0839 3.25781 18.7343 3.59127 20.2788 4.25818C21.8234 4.92509 23.1669 5.82939 24.3095 6.97109C25.452 8.11364 26.3568 9.45719 27.0237 11.0017C27.6906 12.5463 28.0236 14.1967 28.0228 15.9528C28.0228 17.7089 27.6893 19.3593 27.0224 20.9038C26.3555 22.4484 25.4512 23.7919 24.3095 24.9345C23.1669 26.077 21.8234 26.9818 20.2788 27.6487C18.7343 28.3156 17.0839 28.6486 15.3278 28.6478ZM15.3278 26.1088C18.163 26.1088 20.5645 25.1249 22.5322 23.1572C24.4999 21.1895 25.4838 18.788 25.4838 15.9528C25.4838 13.1176 24.4999 10.7161 22.5322 8.74839C20.5645 6.78067 18.163 5.79681 15.3278 5.79681C12.4926 5.79681 10.0911 6.78067 8.12339 8.74839C6.15567 10.7161 5.17181 13.1176 5.17181 15.9528C5.17181 18.788 6.15567 21.1895 8.12339 23.1572C10.0911 25.1249 12.4926 26.1088 15.3278 26.1088Z" fill="#E63946"/>
</svg>
