<svg width="41" height="41" viewBox="0 0 41 41" fill="none" xmlns="http://www.w3.org/2000/svg">
<g id="charm:menu-kebab">
<g id="Group">
<path id="Vector" d="M20.2349 8.54598C21.285 8.54598 22.1363 7.69469 22.1363 6.64457C22.1363 5.59445 21.285 4.74316 20.2349 4.74316C19.1848 4.74316 18.3335 5.59445 18.3335 6.64457C18.3335 7.69469 19.1848 8.54598 20.2349 8.54598Z" stroke="#030229" stroke-width="3.80282" stroke-linecap="round" stroke-linejoin="round"/>
<path id="Vector_2" d="M20.2349 22.4913C21.285 22.4913 22.1363 21.64 22.1363 20.5899C22.1363 19.5398 21.285 18.6885 20.2349 18.6885C19.1848 18.6885 18.3335 19.5398 18.3335 20.5899C18.3335 21.64 19.1848 22.4913 20.2349 22.4913Z" stroke="#030229" stroke-width="3.80282" stroke-linecap="round" stroke-linejoin="round"/>
<path id="Vector_3" d="M20.2349 36.4327C21.285 36.4327 22.1363 35.5814 22.1363 34.5313C22.1363 33.4812 21.285 32.6299 20.2349 32.6299C19.1848 32.6299 18.3335 33.4812 18.3335 34.5313C18.3335 35.5814 19.1848 36.4327 20.2349 36.4327Z" stroke="#030229" stroke-width="3.80282" stroke-linecap="round" stroke-linejoin="round"/>
</g>
</g>
</svg>
