<svg width="123" height="122" viewBox="0 0 123 122" fill="none" xmlns="http://www.w3.org/2000/svg">
<g id="forgot-password 1" clip-path="url(#clip0_795_40819)">
<g id="Group">
<path id="Vector" d="M62.11 5.229C29.9501 5.229 3.87939 31.2997 3.87939 63.4596C3.87939 75.5433 7.56052 86.7666 13.8618 96.0709V85.0882C13.8618 83.2533 15.3544 81.7607 17.1893 81.7607H89.4428C91.2776 81.7607 92.7702 83.2533 92.7702 85.0882V106.26C92.7702 108.095 91.2776 109.587 89.4428 109.587H26.5725C36.4056 117.174 48.7296 121.69 62.11 121.69C94.27 121.69 120.341 95.6196 120.341 63.4596C120.341 31.2997 94.27 5.229 62.11 5.229Z" fill="#D4F2F6"/>
<g id="Group_2">
<path id="Vector_2" d="M41.8705 41.0287C41.8705 39.1539 43.3957 37.6285 45.2705 37.6285H50.4188V25.9332C50.4188 24.9221 50.4794 23.9251 50.5937 22.9439C50.0727 22.7112 49.4968 22.5791 48.8893 22.5791H12.5841C10.2705 22.5793 8.39502 24.4548 8.39502 26.7684V63.0734C8.39502 65.3869 10.2705 67.2624 12.5841 67.2624H41.8705V41.0287Z" fill="#AF66DA"/>
<path id="Vector_3" d="M19.5658 63.0732V26.7681C19.5658 24.4546 21.4413 22.5791 23.7548 22.5791H12.5841C10.2705 22.5791 8.39502 24.4546 8.39502 26.7681V63.0732C8.39502 65.3867 10.2705 67.2622 12.5841 67.2622H23.7548C21.4413 67.2622 19.5658 65.3867 19.5658 63.0732Z" fill="#9857BD"/>
<g id="Group_3">
<g id="Group_4">
<path id="Vector_4" d="M27.7325 53.3383C27.0651 52.988 26.6093 52.2894 26.6093 51.4835V48.745C26.6093 46.6361 28.3251 44.9205 30.4337 44.9205C33.5558 44.9205 36.0959 42.3805 36.0959 39.2584V39.1091C36.0959 36.1541 33.6918 33.75 30.7365 33.75C30.4047 33.75 30.0805 33.7819 29.7651 33.8398C32.2581 34.2983 34.1531 36.4859 34.1531 39.1094V39.2586C34.1531 42.3807 31.6133 44.9208 28.491 44.9208C26.3823 44.9208 24.6665 46.6363 24.6665 48.7452V51.4837C24.6665 52.6405 25.6041 53.5781 26.7609 53.5781C27.112 53.5781 27.4421 53.4909 27.7325 53.3383Z" fill="#814AA0"/>
<path id="Vector_5" d="M21.1884 39.7029V39.1097C21.1884 34.1724 24.9551 30.0987 29.7654 29.6102C29.4459 29.5779 29.122 29.561 28.794 29.561C23.529 29.561 19.2456 33.8444 19.2456 39.1094V39.7027C19.2456 40.8594 20.1832 41.7971 21.34 41.7971C21.6908 41.7971 22.0209 41.7098 22.3114 41.5573C21.6442 41.2074 21.1884 40.5089 21.1884 39.7029Z" fill="#814AA0"/>
</g>
<path id="Vector_6" d="M26.609 58.1859V57.9066C26.609 57.1007 27.0649 56.4022 27.7323 56.0518C27.4418 55.8995 27.1117 55.812 26.7609 55.812C25.6041 55.812 24.6665 56.7499 24.6665 57.9064V58.1857C24.6665 59.3425 25.6041 60.2801 26.7609 60.2801C27.1117 60.2801 27.4418 60.1929 27.7323 60.0403C27.0649 59.6906 26.609 58.9919 26.609 58.1859Z" fill="#814AA0"/>
</g>
<g id="Group_5">
<g id="Group_6">
<g id="Group_7">
<path id="Vector_7" d="M28.7035 53.5782C27.5465 53.5782 26.6091 52.6403 26.6091 51.4838V48.7453C26.6091 46.6364 28.3249 44.9208 30.4336 44.9208C33.5557 44.9208 36.0955 42.3808 36.0955 39.2587V39.1094C36.0955 36.1542 33.6914 33.7501 30.7361 33.7501C27.7809 33.7501 25.3768 36.1542 25.3768 39.1094V39.7027C25.3768 40.8594 24.4392 41.7971 23.2824 41.7971C22.1254 41.7971 21.188 40.8592 21.188 39.7027V39.1094C21.188 33.8444 25.4714 29.561 30.7364 29.561C36.0014 29.561 40.2848 33.8444 40.2848 39.1094V39.2587C40.2848 44.5686 36.0622 48.9107 30.7984 49.1032V51.4838C30.7979 52.6403 29.8605 53.5782 28.7035 53.5782Z" fill="white"/>
</g>
</g>
<g id="Group_8">
<path id="Vector_8" d="M28.7033 60.2806C27.5463 60.2806 26.6089 59.3427 26.6089 58.1862V57.9069C26.6089 56.7501 27.5465 55.8125 28.7033 55.8125C29.8601 55.8125 30.7977 56.7504 30.7977 57.9069V58.1862C30.7977 59.3427 29.8603 60.2806 28.7033 60.2806Z" fill="white"/>
</g>
</g>
</g>
<g id="Group_9">
<path id="Vector_9" d="M90.3516 81.8896C91.7458 82.2863 92.7709 83.5684 92.7709 85.0881V95.3081H106.959C108.968 95.3081 110.597 93.6796 110.597 91.6705V81.8899H90.3516V81.8896Z" fill="#FFE177"/>
<path id="Vector_10" d="M60.6952 37.6284V25.9331C60.6952 17.4309 67.6123 10.5138 76.1145 10.5138C84.6166 10.5138 91.5337 17.4309 91.5337 25.9331V37.6284H102.048V25.9331C102.048 11.6335 90.414 0 76.1145 0C61.8149 0 50.1812 11.6335 50.1812 25.9331V37.6284H60.6952Z" fill="#0681AF"/>
<g id="Group_10">
<path id="Vector_11" d="M91.5336 25.9329V37.6282H97.6252V25.9329C97.6252 17.4308 90.7081 10.5137 82.206 10.5137C81.1635 10.5137 80.1453 10.619 79.1602 10.8172C86.2084 12.2352 91.5336 18.4732 91.5336 25.9329Z" fill="#017297"/>
<path id="Vector_12" d="M56.2728 37.6284V25.9331C56.2728 12.6639 66.2908 1.69225 79.1603 0.179683C78.1609 0.0622711 77.145 0 76.1145 0C61.8149 0 50.1812 11.6335 50.1812 25.9331V37.6284H56.2728Z" fill="#017297"/>
</g>
<path id="Vector_13" d="M106.959 37.3906H45.2709C43.2619 37.3906 41.6333 39.0194 41.6333 41.0283V81.7605H89.443C89.9875 81.7605 90.5004 81.8945 90.9546 82.1274H110.596V41.0285C110.596 39.0194 108.967 37.3906 106.959 37.3906Z" fill="#FFC344"/>
<path id="Vector_14" d="M55.0603 81.7607V41.0287C55.0603 39.0197 56.6891 37.3911 58.698 37.3911H45.2709C43.2619 37.3911 41.6333 39.0197 41.6333 41.0287V81.7607H55.0603Z" fill="#FEB137"/>
<path id="Vector_15" d="M75.0311 79.2255C71.6879 79.2255 68.9682 76.5058 68.9682 73.1626V65.3367C66.0215 62.9575 64.4483 59.2728 64.8113 55.4225C65.3258 49.9645 69.8419 45.5637 75.3161 45.1858C75.5813 45.1675 75.8499 45.1582 76.1147 45.1582C82.376 45.1582 87.4696 50.2518 87.4696 56.5132C87.4696 59.983 85.9183 63.1926 83.2611 65.3369V73.1626C83.2611 76.5058 80.5414 79.2255 77.1982 79.2255H75.0311Z" fill="#FFE177"/>
<path id="Vector_16" d="M83.8329 56.5132C83.8329 52.0698 80.0776 48.5035 75.5674 48.8148C71.8378 49.0725 68.7846 52.0418 68.4338 55.764C68.1448 58.8291 69.6512 61.5671 72.022 63.0538C72.3797 63.2782 72.6067 63.6615 72.6067 64.0839V73.1626C72.6067 74.5019 73.6924 75.5879 75.032 75.5879H77.1996C78.5389 75.5879 79.6248 74.5022 79.6248 73.1626V64.0905C79.6248 63.6649 79.8527 63.2779 80.2133 63.0514C82.3868 61.6864 83.8329 59.2695 83.8329 56.5132Z" fill="#3692BC"/>
<path id="Vector_17" d="M76.5747 73.1628V64.0841C76.5747 63.6617 76.348 63.2784 75.99 63.054C73.619 61.5673 72.1126 58.8293 72.4018 55.7642C72.7065 52.5335 75.0477 49.8708 78.0994 49.0556C77.2989 48.8431 76.448 48.7545 75.5674 48.8151C71.8378 49.0727 68.7846 52.0422 68.4338 55.7642C68.1448 58.8293 69.651 61.5673 72.022 63.054C72.3797 63.2784 72.6067 63.6617 72.6067 64.0841V73.1628C72.6067 74.5021 73.6924 75.5881 75.032 75.5881H77.1996C77.5181 75.5881 77.8211 75.5251 78.0996 75.4136C77.2065 75.0557 76.5747 74.1837 76.5747 73.1628Z" fill="#017297"/>
</g>
<g id="Group_11">
<path id="Vector_18" d="M89.4432 81.5229H17.1897C15.2207 81.5229 13.6245 83.1192 13.6245 85.0881V95.7127C17.231 101.123 21.7186 105.895 26.883 109.825H89.4432C91.4121 109.825 93.0083 108.229 93.0083 106.26V85.0881C93.0083 83.1192 91.4121 81.5229 89.4432 81.5229Z" fill="#FD6930"/>
<path id="Vector_19" d="M28.5981 81.5229H17.1897C15.2207 81.5229 13.6245 83.1192 13.6245 85.0881V95.7127C17.231 101.123 21.7186 105.895 26.883 109.825H28.5981C26.6292 109.825 25.033 108.229 25.033 106.26V85.0881C25.033 83.1192 26.6292 81.5229 28.5981 81.5229Z" fill="#FD5426"/>
<g id="Group_12">
<g id="Group_13">
<path id="Vector_20" d="M27.3471 93.2041V89.9173C27.3471 89.5092 27.5195 89.1422 27.7942 88.8822C27.5387 88.6405 27.1948 88.4912 26.8152 88.4912C26.0278 88.4912 25.3892 89.1298 25.3892 89.9173V92.0737L27.3471 93.2041Z" fill="#D73D24"/>
<path id="Vector_21" d="M30.1997 93.2048L32.7509 91.7318C32.3039 91.3334 31.6355 91.2449 31.0887 91.5607L30.1997 92.074V93.2048Z" fill="#D73D24"/>
<path id="Vector_22" d="M30.1997 98.144V99.2748L31.0887 99.7882C31.3134 99.9177 31.5588 99.9796 31.8006 99.9796C32.1474 99.9796 32.486 99.8505 32.7492 99.6163L30.1997 98.144Z" fill="#D73D24"/>
<path id="Vector_23" d="M22.5529 99.2654C22.1593 98.5833 22.3927 97.7112 23.0748 97.3174L25.9212 95.6739L23.0748 94.0303C22.3927 93.6365 22.159 92.7643 22.5529 92.0824C22.6311 91.9469 22.7288 91.8299 22.8393 91.7313L22.5431 91.5604C21.8605 91.1666 20.9887 91.4005 20.5951 92.0824C20.2015 92.7645 20.4349 93.6365 21.1171 94.0303L23.9635 95.6739L21.1171 97.3174C20.4349 97.7112 20.2013 98.5835 20.5951 99.2654C20.8592 99.7229 21.3386 99.9787 21.8315 99.9787C22.0735 99.9787 22.3188 99.9171 22.5431 99.7873L22.8412 99.6153C22.7302 99.5166 22.6313 99.4011 22.5529 99.2654Z" fill="#D73D24"/>
<path id="Vector_24" d="M27.3479 101.431V98.144L25.3901 99.2744V101.431C25.3901 102.218 26.0288 102.857 26.8162 102.857C27.1958 102.857 27.5397 102.708 27.7952 102.466C27.5204 102.206 27.3479 101.839 27.3479 101.431Z" fill="#D73D24"/>
</g>
<g id="Group_14">
<path id="Vector_25" d="M38.9142 99.2656C38.5206 98.5835 38.754 97.7115 39.4361 97.3177L42.2825 95.6741L39.4361 94.0306C38.754 93.6368 38.5204 92.7645 38.9142 92.0826C38.9924 91.9471 39.0901 91.8302 39.2006 91.7315L38.9045 91.5604C38.2219 91.1666 37.3503 91.4005 36.9565 92.0824C36.5629 92.7645 36.7963 93.6365 37.4784 94.0303L40.3248 95.6739L37.4784 97.3174C36.7963 97.7112 36.5626 98.5835 36.9565 99.2654C37.2205 99.7229 37.6999 99.9787 38.1929 99.9787C38.4348 99.9787 38.6801 99.9171 38.9045 99.7873L39.2025 99.6153C39.0915 99.5169 38.9926 99.4014 38.9142 99.2656Z" fill="#D73D24"/>
<path id="Vector_26" d="M46.561 93.2048L49.1122 91.7318C48.6652 91.3334 47.9969 91.2449 47.45 91.5607L46.561 92.074V93.2048Z" fill="#D73D24"/>
<path id="Vector_27" d="M43.7085 93.2041V89.9173C43.7085 89.5092 43.8808 89.1422 44.1555 88.8822C43.9 88.6405 43.5561 88.4912 43.1765 88.4912C42.3891 88.4912 41.7505 89.1298 41.7505 89.9173V92.0737L43.7085 93.2041Z" fill="#D73D24"/>
<path id="Vector_28" d="M43.7092 101.431V98.144L41.7515 99.2744V101.431C41.7515 102.218 42.3901 102.857 43.1775 102.857C43.5571 102.857 43.901 102.708 44.1565 102.466C43.8815 102.206 43.7092 101.839 43.7092 101.431Z" fill="#D73D24"/>
<path id="Vector_29" d="M46.561 98.144V99.2748L47.45 99.7882C47.6747 99.9177 47.9201 99.9796 48.1619 99.9796C48.5088 99.9796 48.8473 99.8505 49.1105 99.6163L46.561 98.144Z" fill="#D73D24"/>
</g>
<g id="Group_15">
<path id="Vector_30" d="M62.9229 93.2047L65.474 91.7318C65.027 91.3333 64.3587 91.2449 63.8118 91.5608L62.9229 92.0742V93.2047Z" fill="#D73D24"/>
<path id="Vector_31" d="M60.0708 93.2041V89.9173C60.0708 89.5092 60.2431 89.1422 60.5178 88.8822C60.2623 88.6405 59.9184 88.4912 59.5388 88.4912C58.7514 88.4912 58.1128 89.1298 58.1128 89.9173V92.0737L60.0708 93.2041Z" fill="#D73D24"/>
<path id="Vector_32" d="M55.2765 99.2656C54.8829 98.5835 55.1163 97.7115 55.7984 97.3177L58.6449 95.6741L55.7984 94.0306C55.1163 93.6368 54.8827 92.7645 55.2765 92.0826C55.3547 91.9471 55.4524 91.8302 55.5629 91.7315L55.2668 91.5604C54.5842 91.1666 53.7126 91.4005 53.3188 92.0824C52.9252 92.7645 53.1586 93.6365 53.8407 94.0303L56.6871 95.6739L53.8407 97.3174C53.1586 97.7112 52.9249 98.5835 53.3188 99.2654C53.5828 99.7229 54.0622 99.9787 54.5552 99.9787C54.7971 99.9787 55.0424 99.9171 55.2668 99.7873L55.5648 99.6153C55.4538 99.5169 55.3549 99.4014 55.2765 99.2656Z" fill="#D73D24"/>
<path id="Vector_33" d="M62.9229 98.144V99.2748L63.8118 99.7882C64.0365 99.9177 64.2819 99.9796 64.5237 99.9796C64.8706 99.9796 65.2092 99.8505 65.4724 99.6163L62.9229 98.144Z" fill="#D73D24"/>
<path id="Vector_34" d="M60.0715 101.431V98.144L58.1138 99.2744V101.431C58.1138 102.218 58.7524 102.857 59.5398 102.857C59.9194 102.857 60.2633 102.708 60.5188 102.466C60.2438 102.206 60.0715 101.839 60.0715 101.431Z" fill="#D73D24"/>
</g>
<g id="Group_16">
<path id="Vector_35" d="M79.2842 93.2047L81.8354 91.7318C81.3884 91.3333 80.72 91.2449 80.1732 91.5608L79.2842 92.0742V93.2047Z" fill="#D73D24"/>
<path id="Vector_36" d="M76.4316 93.2041V89.9173C76.4316 89.5092 76.6039 89.1422 76.8787 88.8822C76.6232 88.6405 76.2793 88.4912 75.8997 88.4912C75.1123 88.4912 74.4736 89.1298 74.4736 89.9173V92.0737L76.4316 93.2041Z" fill="#D73D24"/>
<path id="Vector_37" d="M79.2842 98.144V99.2748L80.1732 99.7882C80.3978 99.9177 80.6432 99.9796 80.885 99.9796C81.2319 99.9796 81.5705 99.8505 81.8337 99.6163L79.2842 98.144Z" fill="#D73D24"/>
<path id="Vector_38" d="M76.4323 101.431V98.144L74.4746 99.2744V101.431C74.4746 102.218 75.1132 102.857 75.9007 102.857C76.2802 102.857 76.6241 102.708 76.8797 102.466C76.6047 102.206 76.4323 101.839 76.4323 101.431Z" fill="#D73D24"/>
<path id="Vector_39" d="M71.6374 99.2656C71.2438 98.5835 71.4772 97.7115 72.1593 97.3177L75.0057 95.6741L72.1593 94.0306C71.4772 93.6368 71.2435 92.7645 71.6374 92.0826C71.7155 91.9471 71.8132 91.8302 71.9237 91.7315L71.6276 91.5604C70.945 91.1666 70.0734 91.4005 69.6796 92.0824C69.286 92.7645 69.5194 93.6365 70.2015 94.0303L73.048 95.6739L70.2015 97.3174C69.5194 97.7112 69.2858 98.5835 69.6796 99.2654C69.9437 99.7229 70.4231 99.9787 70.916 99.9787C71.158 99.9787 71.4032 99.9171 71.6276 99.7873L71.9254 99.6153C71.8147 99.5169 71.7158 99.4014 71.6374 99.2656Z" fill="#D73D24"/>
</g>
</g>
<g id="Group_17">
<path id="Vector_40" d="M34.9945 92.0825C34.6009 91.4006 33.7284 91.1665 33.0465 91.5606L30.1999 93.2041V89.9173C30.1999 89.1298 29.5613 88.4912 28.7738 88.4912C27.9864 88.4912 27.3478 89.1298 27.3478 89.9173V93.2041L24.5011 91.5606C23.8185 91.1667 22.9467 91.4006 22.5531 92.0825C22.1596 92.7646 22.393 93.6367 23.0751 94.0305L25.9215 95.674L23.0751 97.3176C22.393 97.7114 22.1593 98.5836 22.5531 99.2655C22.8172 99.7231 23.2966 99.9788 23.7895 99.9788C24.0315 99.9788 24.2768 99.9173 24.5011 99.7875L27.3478 98.144V101.431C27.3478 102.218 27.9864 102.857 28.7738 102.857C29.5613 102.857 30.1999 102.218 30.1999 101.431V98.144L33.0465 99.7875C33.2711 99.917 33.5164 99.9788 33.7581 99.9788C34.2511 99.9788 34.7305 99.7231 34.9945 99.2655C35.3881 98.5834 35.1547 97.7114 34.4726 97.3176L31.6262 95.674L34.4726 94.0305C35.1547 93.6367 35.3881 92.7646 34.9945 92.0825Z" fill="white"/>
<path id="Vector_41" d="M51.3559 92.0825C50.9623 91.4006 50.0898 91.1665 49.4079 91.5606L46.5612 93.2041V89.9173C46.5612 89.1298 45.9226 88.4912 45.1352 88.4912C44.3478 88.4912 43.7091 89.1298 43.7091 89.9173V93.2041L40.8625 91.5606C40.1799 91.1667 39.3083 91.4006 38.9145 92.0825C38.5209 92.7646 38.7543 93.6367 39.4364 94.0305L42.2828 95.674L39.4364 97.3176C38.7543 97.7114 38.5206 98.5836 38.9145 99.2655C39.1785 99.7231 39.6579 99.9788 40.1509 99.9788C40.3928 99.9788 40.6381 99.9173 40.8625 99.7875L43.7091 98.144V101.431C43.7091 102.218 44.3478 102.857 45.1352 102.857C45.9226 102.857 46.5612 102.218 46.5612 101.431V98.144L49.4079 99.7875C49.6325 99.917 49.8778 99.9788 50.1195 99.9788C50.6124 99.9788 51.0918 99.7231 51.3559 99.2655C51.7495 98.5834 51.5161 97.7114 50.8339 97.3176L47.9875 95.674L50.8339 94.0305C51.5161 93.6367 51.7495 92.7646 51.3559 92.0825Z" fill="white"/>
<path id="Vector_42" d="M67.7182 92.0825C67.3246 91.4006 66.4523 91.1665 65.7702 91.5606L62.9235 93.2041V89.9173C62.9235 89.1298 62.2849 88.4912 61.4975 88.4912C60.7101 88.4912 60.0714 89.1298 60.0714 89.9173V93.2041L57.2248 91.5606C56.5422 91.1667 55.6706 91.4006 55.2768 92.0825C54.8832 92.7646 55.1166 93.6367 55.7987 94.0305L58.6451 95.674L55.7987 97.3176C55.1166 97.7114 54.883 98.5836 55.2768 99.2655C55.5408 99.7231 56.0202 99.9788 56.5132 99.9788C56.7551 99.9788 57.0004 99.9173 57.2248 99.7875L60.0714 98.144V101.431C60.0714 102.218 60.7101 102.857 61.4975 102.857C62.2849 102.857 62.9235 102.218 62.9235 101.431V98.144L65.7702 99.7875C65.9948 99.917 66.2401 99.9788 66.4818 99.9788C66.9747 99.9788 67.4541 99.7231 67.7182 99.2655C68.1118 98.5834 67.8784 97.7114 67.1962 97.3176L64.3498 95.674L67.1962 94.0305C67.8784 93.6367 68.1118 92.7646 67.7182 92.0825Z" fill="white"/>
<path id="Vector_43" d="M83.5571 97.3176L80.7107 95.674L83.5571 94.0305C84.2392 93.6367 84.4728 92.7644 84.079 92.0825C83.6854 91.4006 82.8131 91.1665 82.131 91.5606L79.2844 93.2041V89.9173C79.2844 89.1298 78.6457 88.4912 77.8583 88.4912C77.0709 88.4912 76.4323 89.1298 76.4323 89.9173V93.2041L73.5856 91.5606C72.903 91.1667 72.0314 91.4006 71.6376 92.0825C71.244 92.7646 71.4774 93.6367 72.1596 94.0305L75.006 95.674L72.1596 97.3176C71.4774 97.7114 71.2438 98.5836 71.6376 99.2655C71.9017 99.7231 72.3811 99.9788 72.874 99.9788C73.116 99.9788 73.3612 99.9173 73.5856 99.7875L76.4323 98.144V101.431C76.4323 102.218 77.0709 102.857 77.8583 102.857C78.6457 102.857 79.2844 102.218 79.2844 101.431V98.144L82.131 99.7875C82.3556 99.917 82.6009 99.9788 82.8426 99.9788C83.3356 99.9788 83.815 99.7231 84.079 99.2655C84.4728 98.5834 84.2392 97.7114 83.5571 97.3176Z" fill="white"/>
</g>
</g>
</g>
</g>
<defs>
<clipPath id="clip0_795_40819">
<rect width="121.69" height="121.69" fill="white" transform="translate(0.814941)"/>
</clipPath>
</defs>
</svg>
