<svg width="50" height="50" viewBox="0 0 50 50" fill="none" xmlns="http://www.w3.org/2000/svg">
<g clip-path="url(#clip0_725_1678)">
<path d="M49.0312 25.1143C49.0301 29.2196 47.9681 33.255 45.9481 36.829C43.9281 40.403 41.0188 43.3944 37.5023 45.5129C33.9858 47.6314 29.9815 48.8051 25.8778 48.9203C21.774 49.0355 17.7102 48.0881 14.0804 46.1702C11.7549 47.4297 9.26021 48.3479 6.67306 48.8966C6.43181 48.9504 6.18045 48.9372 5.94615 48.8585C5.71186 48.7797 5.50354 48.6385 5.34373 48.4499C5.18392 48.2613 5.07869 48.0327 5.03943 47.7886C5.00017 47.5446 5.02837 47.2945 5.12097 47.0653C5.97527 44.9057 6.57603 42.6542 6.91122 40.356C4.46485 37.4166 2.76232 33.9314 1.9476 30.195C1.13289 26.4586 1.22995 22.5809 2.23058 18.8899C3.23121 15.1989 5.10598 11.8032 7.69633 8.98993C10.2867 6.17664 13.5164 4.02853 17.1124 2.72727C20.7085 1.426 24.5649 1.00986 28.3558 1.51403C32.1466 2.0182 35.7603 3.42786 38.8911 5.62378C42.022 7.81971 44.578 10.7373 46.343 14.1299C48.108 17.5224 49.0301 21.2901 49.0312 25.1143Z" fill="#FF4C4C"/>
<path d="M29.4984 36.9435L30.4017 37.2449C30.5653 37.2994 30.7076 37.404 30.8084 37.5439C30.9093 37.6838 30.9635 37.8518 30.9634 38.0243V39.0746C30.9634 39.2924 30.8769 39.5013 30.7229 39.6553C30.5689 39.8093 30.36 39.8958 30.1422 39.8958H20.2885C20.0707 39.8958 19.8618 39.8093 19.7078 39.6553C19.5538 39.5013 19.4673 39.2924 19.4673 39.0746V38.0243C19.4672 37.8518 19.5215 37.6838 19.6223 37.5439C19.7231 37.404 19.8654 37.2994 20.029 37.2449L20.92 36.9476C21.2147 36.8495 21.4709 36.661 21.6524 36.4089C21.8339 36.1568 21.9313 35.854 21.9309 35.5434V23.7179C21.931 23.4076 21.8334 23.1051 21.6519 22.8534C21.4705 22.6016 21.2144 22.4134 20.92 22.3153L20.029 22.018C19.8651 21.9634 19.7227 21.8586 19.6218 21.7184C19.521 21.5782 19.4669 21.4097 19.4673 21.237V20.1867C19.4673 19.9689 19.5538 19.76 19.7078 19.606C19.8618 19.452 20.0707 19.3655 20.2885 19.3655H27.6794C27.8972 19.3655 28.1061 19.452 28.2601 19.606C28.4141 19.76 28.5006 19.9689 28.5006 20.1867V35.5598C28.5006 35.866 28.597 36.1644 28.7761 36.4128C28.9552 36.6611 29.2079 36.8468 29.4984 36.9435Z" fill="white"/>
<path d="M25.216 15.2599C27.0302 15.2599 28.5009 13.7892 28.5009 11.975C28.5009 10.1609 27.0302 8.69019 25.216 8.69019C23.4018 8.69019 21.9312 10.1609 21.9312 11.975C21.9312 13.7892 23.4018 15.2599 25.216 15.2599Z" fill="white"/>
</g>
<defs>
<clipPath id="clip0_725_1678">
<rect width="49.2728" height="49.2728" fill="white" transform="translate(0.57959 0.477295)"/>
</clipPath>
</defs>
</svg>
