<svg width="49" height="49" viewBox="0 0 49 49" fill="none" xmlns="http://www.w3.org/2000/svg">
<g clip-path="url(#clip0_59_3611)">
<path d="M24.5 2.25732C11.8147 2.25732 1.53125 12.5408 1.53125 25.2261C1.53125 29.9924 2.98325 34.4194 5.46875 38.0894V33.7573C5.46875 33.0336 6.0575 32.4448 6.78125 32.4448H35.2812C36.005 32.4448 36.5938 33.0336 36.5938 33.7573V42.1084C36.5938 42.8321 36.005 43.4209 35.2812 43.4209H10.4824C14.361 46.4135 19.2222 48.1948 24.5 48.1948C37.1853 48.1948 47.4688 37.9114 47.4688 25.2261C47.4688 12.5408 37.1853 2.25732 24.5 2.25732Z" fill="#D4F2F6"/>
<path d="M16.5167 16.3783C16.5167 15.6388 17.1183 15.0371 17.8578 15.0371H19.8885V10.424C19.8885 10.0251 19.9124 9.63186 19.9575 9.24486C19.752 9.15308 19.5249 9.10095 19.2853 9.10095H4.96484C4.05228 9.10105 3.3125 9.84083 3.3125 10.7534V25.0737C3.3125 25.9863 4.05228 26.726 4.96484 26.726H16.5167V16.3783Z" fill="#AF66DA"/>
<path d="M7.71875 25.0736V10.7533C7.71875 9.84073 8.45853 9.10095 9.37109 9.10095H4.96484C4.05228 9.10095 3.3125 9.84073 3.3125 10.7533V25.0736C3.3125 25.9862 4.05228 26.726 4.96484 26.726H9.37109C8.45853 26.726 7.71875 25.9862 7.71875 25.0736Z" fill="#9857BD"/>
<path d="M10.9401 21.2338C10.6768 21.0956 10.497 20.8201 10.497 20.5022V19.422C10.497 18.5902 11.1738 17.9135 12.0056 17.9135C13.2371 17.9135 14.239 16.9116 14.239 15.6801V15.6212C14.239 14.4556 13.2907 13.5073 12.125 13.5073C11.9941 13.5073 11.8662 13.5199 11.7418 13.5428C12.7252 13.7236 13.4727 14.5865 13.4727 15.6213V15.6802C13.4727 16.9117 12.4708 17.9136 11.2392 17.9136C10.4075 17.9136 9.73071 18.5903 9.73071 19.4221V20.5023C9.73071 20.9586 10.1006 21.3284 10.5568 21.3284C10.6953 21.3284 10.8255 21.294 10.9401 21.2338Z" fill="#814AA0"/>
<path d="M8.3586 15.8554V15.6214C8.3586 13.6739 9.84435 12.067 11.7418 11.8744C11.6158 11.8616 11.488 11.855 11.3586 11.855C9.28185 11.855 7.59229 13.5445 7.59229 15.6213V15.8553C7.59229 16.3116 7.96213 16.6814 8.41841 16.6814C8.55678 16.6814 8.687 16.647 8.80157 16.5868C8.53841 16.4488 8.3586 16.1733 8.3586 15.8554Z" fill="#814AA0"/>
<path d="M10.4969 23.146V23.0358C10.4969 22.7179 10.6767 22.4424 10.94 22.3042C10.8254 22.2441 10.6952 22.2096 10.5568 22.2096C10.1006 22.2096 9.73071 22.5795 9.73071 23.0357V23.1459C9.73071 23.6022 10.1006 23.972 10.5568 23.972C10.6952 23.972 10.8254 23.9376 10.94 23.8774C10.6767 23.7395 10.4969 23.4639 10.4969 23.146Z" fill="#814AA0"/>
<path d="M11.3234 21.3284C10.867 21.3284 10.4972 20.9585 10.4972 20.5023V19.4221C10.4972 18.5903 11.174 17.9136 12.0058 17.9136C13.2373 17.9136 14.2391 16.9117 14.2391 15.6802V15.6213C14.2391 14.4556 13.2908 13.5073 12.1251 13.5073C10.9594 13.5073 10.0111 14.4556 10.0111 15.6213V15.8553C10.0111 16.3116 9.64129 16.6814 9.18501 16.6814C8.72864 16.6814 8.35889 16.3115 8.35889 15.8553V15.6213C8.35889 13.5445 10.0484 11.855 12.1252 11.855C14.2019 11.855 15.8915 13.5445 15.8915 15.6213V15.6802C15.8915 17.7746 14.2259 19.4874 12.1497 19.5633V20.5023C12.1495 20.9585 11.7797 21.3284 11.3234 21.3284Z" fill="white"/>
<path d="M11.3234 23.9721C10.8671 23.9721 10.4973 23.6022 10.4973 23.146V23.0358C10.4973 22.5796 10.8672 22.2097 11.3234 22.2097C11.7797 22.2097 12.1496 22.5797 12.1496 23.0358V23.146C12.1496 23.6022 11.7798 23.9721 11.3234 23.9721Z" fill="white"/>
<path d="M35.6394 32.4957C36.1893 32.6522 36.5937 33.1579 36.5937 33.7573V37.7886H42.1901C42.9826 37.7886 43.6249 37.1462 43.6249 36.3537V32.4958H35.6394V32.4957Z" fill="#FFE177"/>
<path d="M23.9419 15.0371V10.424C23.9419 7.07036 26.6703 4.34195 30.0239 4.34195C33.3776 4.34195 36.106 7.07036 36.106 10.424V15.0371H40.2532V10.424C40.2532 4.78361 35.6643 0.194824 30.0239 0.194824C24.3836 0.194824 19.7947 4.78361 19.7947 10.424V15.0371H23.9419Z" fill="#0681AF"/>
<path d="M36.106 10.424V15.0371H38.5088V10.424C38.5088 7.07033 35.7804 4.34192 32.4267 4.34192C32.0156 4.34192 31.6139 4.38345 31.2253 4.46164C34.0055 5.02095 36.106 7.48151 36.106 10.424Z" fill="#017297"/>
<path d="M22.1975 15.0371V10.424C22.1975 5.19001 26.1491 0.862324 31.2253 0.265699C30.8311 0.219387 30.4304 0.194824 30.0239 0.194824C24.3836 0.194824 19.7947 4.78361 19.7947 10.424V15.0371H22.1975Z" fill="#017297"/>
<path d="M42.19 14.9434H17.8577C17.0652 14.9434 16.4229 15.5858 16.4229 16.3782V32.4448H35.2811C35.4959 32.4448 35.6982 32.4977 35.8774 32.5895H43.6249V16.3783C43.6249 15.5858 42.9824 14.9434 42.19 14.9434Z" fill="#FFC344"/>
<path d="M21.7191 32.4448V16.3783C21.7191 15.5859 22.3615 14.9435 23.1539 14.9435H17.8577C17.0652 14.9435 16.4229 15.5859 16.4229 16.3783V32.4448H21.7191Z" fill="#FEB137"/>
<path d="M29.5964 31.445C28.2777 31.445 27.2049 30.3722 27.2049 29.0535V25.9666C26.0426 25.0282 25.4221 23.5748 25.5652 22.056C25.7682 19.9031 27.5495 18.1673 29.7088 18.0182C29.8134 18.011 29.9194 18.0073 30.0238 18.0073C32.4935 18.0073 34.5027 20.0165 34.5027 22.4862C34.5027 23.8549 33.8908 25.1209 32.8427 25.9667V29.0535C32.8427 30.3722 31.7699 31.445 30.4512 31.445H29.5964Z" fill="#FFE177"/>
<path d="M33.0678 22.4862C33.0678 20.7335 31.5865 19.3268 29.8075 19.4496C28.3364 19.5512 27.1321 20.7225 26.9937 22.1907C26.8797 23.3997 27.4739 24.4797 28.409 25.0661C28.5501 25.1546 28.6397 25.3058 28.6397 25.4724V29.0535C28.6397 29.5817 29.0679 30.0101 29.5963 30.0101H30.4513C30.9796 30.0101 31.4079 29.5818 31.4079 29.0535V25.475C31.4079 25.3071 31.4978 25.1545 31.64 25.0651C32.4974 24.5267 33.0678 23.5734 33.0678 22.4862Z" fill="#3692BC"/>
<path d="M30.2048 29.0535V25.4724C30.2048 25.3058 30.1154 25.1546 29.9742 25.0661C29.039 24.4797 28.4448 23.3997 28.5589 22.1907C28.679 20.9163 29.6025 19.8661 30.8062 19.5445C30.4905 19.4607 30.1549 19.4257 29.8075 19.4496C28.3364 19.5513 27.1321 20.7226 26.9937 22.1907C26.8797 23.3997 27.4738 24.4797 28.409 25.0661C28.5501 25.1546 28.6397 25.3058 28.6397 25.4724V29.0535C28.6397 29.5818 29.0679 30.0101 29.5963 30.0101H30.4513C30.5769 30.0101 30.6964 29.9853 30.8063 29.9413C30.454 29.8001 30.2048 29.4561 30.2048 29.0535Z" fill="#017297"/>
<path d="M35.2812 32.3511H6.78125C6.00462 32.3511 5.375 32.9807 5.375 33.7573V37.9481C6.79756 40.0824 8.56766 41.9646 10.6047 43.5146H35.2812C36.0579 43.5146 36.6875 42.885 36.6875 42.1084V33.7573C36.6875 32.9807 36.0579 32.3511 35.2812 32.3511Z" fill="#FD6930"/>
<path d="M11.2812 32.3511H6.78125C6.00462 32.3511 5.375 32.9807 5.375 33.7573V37.9481C6.79756 40.0824 8.56766 41.9646 10.6047 43.5146H11.2812C10.5046 43.5146 9.875 42.885 9.875 42.1084V33.7573C9.875 32.9807 10.5046 32.3511 11.2812 32.3511Z" fill="#FD5426"/>
<path d="M10.7882 36.9586V35.6621C10.7882 35.5011 10.8562 35.3564 10.9645 35.2538C10.8637 35.1585 10.7281 35.0996 10.5784 35.0996C10.2678 35.0996 10.0159 35.3515 10.0159 35.6621V36.5127L10.7882 36.9586Z" fill="#D73D24"/>
<path d="M11.9133 36.9586L12.9193 36.3778C12.743 36.2207 12.4795 36.1858 12.2639 36.3103L11.9133 36.5127V36.9586Z" fill="#D73D24"/>
<path d="M11.9133 38.9072V39.3531L12.2639 39.5555C12.3525 39.6066 12.4492 39.631 12.5445 39.631C12.6813 39.631 12.8148 39.5801 12.9186 39.4877L11.9133 38.9072Z" fill="#D73D24"/>
<path d="M8.897 39.3495C8.74175 39.0804 8.83382 38.7365 9.10288 38.5811L10.2256 37.9328L9.10288 37.2846C8.83382 37.1292 8.74166 36.7852 8.897 36.5162C8.92785 36.4628 8.96638 36.4166 9.00997 36.3777L8.89316 36.3103C8.62391 36.155 8.28004 36.2472 8.12479 36.5162C7.96954 36.7853 8.0616 37.1292 8.33066 37.2846L9.45341 37.9328L8.33066 38.5811C8.0616 38.7365 7.96944 39.0805 8.12479 39.3495C8.22894 39.53 8.41804 39.6308 8.61247 39.6308C8.70791 39.6308 8.80466 39.6066 8.89316 39.5554L9.01072 39.4875C8.96694 39.4486 8.92794 39.403 8.897 39.3495Z" fill="#D73D24"/>
<path d="M10.7883 40.2036V38.9071L10.0161 39.353V40.2036C10.0161 40.5142 10.268 40.7661 10.5786 40.7661C10.7283 40.7661 10.864 40.7072 10.9648 40.6119C10.8564 40.5094 10.7883 40.3645 10.7883 40.2036Z" fill="#D73D24"/>
<path d="M15.3509 39.3495C15.1956 39.0804 15.2877 38.7364 15.5567 38.5811L16.6795 37.9328L15.5567 37.2845C15.2877 37.1292 15.1955 36.7851 15.3509 36.5162C15.3817 36.4627 15.4202 36.4166 15.4638 36.3777L15.347 36.3102C15.0778 36.1548 14.734 36.2471 14.5786 36.5161C14.4234 36.7851 14.5155 37.1291 14.7845 37.2844L15.9073 37.9327L14.7845 38.581C14.5155 38.7363 14.4233 39.0804 14.5786 39.3494C14.6828 39.5298 14.8719 39.6307 15.0663 39.6307C15.1618 39.6307 15.2585 39.6064 15.347 39.5553L15.4646 39.4874C15.4208 39.4486 15.3818 39.403 15.3509 39.3495Z" fill="#D73D24"/>
<path d="M18.3672 36.9586L19.3731 36.3778C19.1969 36.2207 18.9333 36.1858 18.7177 36.3103L18.3672 36.5127V36.9586Z" fill="#D73D24"/>
<path d="M17.242 36.9586V35.6621C17.242 35.5011 17.31 35.3564 17.4184 35.2538C17.3176 35.1585 17.1819 35.0996 17.0322 35.0996C16.7216 35.0996 16.4697 35.3515 16.4697 35.6621V36.5127L17.242 36.9586Z" fill="#D73D24"/>
<path d="M17.2422 40.2036V38.9071L16.47 39.353V40.2036C16.47 40.5142 16.7219 40.7661 17.0325 40.7661C17.1822 40.7661 17.3178 40.7072 17.4186 40.6119C17.3102 40.5094 17.2422 40.3645 17.2422 40.2036Z" fill="#D73D24"/>
<path d="M18.3672 38.9072V39.3531L18.7177 39.5555C18.8063 39.6066 18.9031 39.631 18.9984 39.631C19.1352 39.631 19.2687 39.5801 19.3725 39.4877L18.3672 38.9072Z" fill="#D73D24"/>
<path d="M24.8208 36.9586L25.8267 36.3778C25.6505 36.2207 25.387 36.1858 25.1713 36.3104L24.8208 36.5128V36.9586Z" fill="#D73D24"/>
<path d="M23.6957 36.9586V35.6621C23.6957 35.5011 23.7636 35.3564 23.872 35.2538C23.7712 35.1585 23.6356 35.0996 23.4858 35.0996C23.1752 35.0996 22.9233 35.3515 22.9233 35.6621V36.5127L23.6957 36.9586Z" fill="#D73D24"/>
<path d="M21.8045 39.3495C21.6492 39.0804 21.7413 38.7364 22.0103 38.5811L23.1331 37.9328L22.0103 37.2845C21.7413 37.1292 21.6491 36.7851 21.8045 36.5162C21.8353 36.4627 21.8739 36.4166 21.9174 36.3777L21.8006 36.3102C21.5314 36.1548 21.1876 36.2471 21.0323 36.5161C20.877 36.7851 20.9691 37.1291 21.2381 37.2844L22.3609 37.9327L21.2381 38.581C20.9691 38.7363 20.8769 39.0804 21.0323 39.3494C21.1364 39.5298 21.3255 39.6307 21.5199 39.6307C21.6154 39.6307 21.7121 39.6064 21.8006 39.5553L21.9182 39.4874C21.8744 39.4486 21.8354 39.403 21.8045 39.3495Z" fill="#D73D24"/>
<path d="M24.8208 38.9072V39.3531L25.1713 39.5555C25.2599 39.6066 25.3567 39.631 25.452 39.631C25.5888 39.631 25.7223 39.5801 25.8261 39.4877L24.8208 38.9072Z" fill="#D73D24"/>
<path d="M23.6958 40.2036V38.9071L22.9236 39.353V40.2036C22.9236 40.5142 23.1755 40.7661 23.4861 40.7661C23.6358 40.7661 23.7715 40.7072 23.8722 40.6119C23.7638 40.5094 23.6958 40.3645 23.6958 40.2036Z" fill="#D73D24"/>
<path d="M31.2747 36.9586L32.2806 36.3778C32.1043 36.2207 31.8408 36.1858 31.6252 36.3104L31.2747 36.5128V36.9586Z" fill="#D73D24"/>
<path d="M30.1495 36.9586V35.6621C30.1495 35.5011 30.2175 35.3564 30.3259 35.2538C30.2251 35.1585 30.0894 35.0996 29.9397 35.0996C29.6291 35.0996 29.3772 35.3515 29.3772 35.6621V36.5127L30.1495 36.9586Z" fill="#D73D24"/>
<path d="M31.2747 38.9072V39.3531L31.6252 39.5555C31.7138 39.6066 31.8105 39.631 31.9059 39.631C32.0427 39.631 32.1762 39.5801 32.2799 39.4877L31.2747 38.9072Z" fill="#D73D24"/>
<path d="M30.1497 40.2036V38.9071L29.3774 39.353V40.2036C29.3774 40.5142 29.6293 40.7661 29.9399 40.7661C30.0897 40.7661 30.2253 40.7072 30.3261 40.6119C30.2176 40.5094 30.1497 40.3645 30.1497 40.2036Z" fill="#D73D24"/>
<path d="M28.2583 39.3495C28.1031 39.0804 28.1951 38.7364 28.4642 38.5811L29.587 37.9328L28.4642 37.2845C28.1951 37.1292 28.103 36.7851 28.2583 36.5162C28.2892 36.4627 28.3277 36.4166 28.3713 36.3777L28.2545 36.3102C27.9852 36.1548 27.6415 36.2471 27.4861 36.5161C27.3309 36.7851 27.4229 37.1291 27.692 37.2844L28.8147 37.9327L27.692 38.581C27.4229 38.7363 27.3308 39.0804 27.4861 39.3494C27.5903 39.5298 27.7794 39.6307 27.9738 39.6307C28.0692 39.6307 28.166 39.6064 28.2545 39.5553L28.372 39.4874C28.3283 39.4486 28.2893 39.403 28.2583 39.3495Z" fill="#D73D24"/>
<path d="M13.8044 36.5162C13.6492 36.2472 13.305 36.1549 13.0361 36.3103L11.9132 36.9586V35.6621C11.9132 35.3515 11.6613 35.0996 11.3507 35.0996C11.0401 35.0996 10.7882 35.3515 10.7882 35.6621V36.9586L9.66538 36.3103C9.39613 36.155 9.05225 36.2472 8.897 36.5162C8.74175 36.7852 8.83381 37.1292 9.10288 37.2845L10.2256 37.9328L9.10288 38.5811C8.83381 38.7365 8.74166 39.0805 8.897 39.3495C9.00116 39.53 9.19025 39.6308 9.38469 39.6308C9.48013 39.6308 9.57688 39.6065 9.66538 39.5554L10.7882 38.9071V40.2035C10.7882 40.5141 11.0401 40.766 11.3507 40.766C11.6613 40.766 11.9132 40.5141 11.9132 40.2035V38.9071L13.0361 39.5554C13.1247 39.6065 13.2214 39.6308 13.3168 39.6308C13.5112 39.6308 13.7003 39.53 13.8044 39.3495C13.9597 39.0804 13.8676 38.7365 13.5986 38.5811L12.4758 37.9328L13.5986 37.2845C13.8676 37.1292 13.9597 36.7852 13.8044 36.5162Z" fill="white"/>
<path d="M20.2583 36.5162C20.103 36.2472 19.7589 36.1549 19.4899 36.3103L18.3671 36.9586V35.6621C18.3671 35.3515 18.1152 35.0996 17.8046 35.0996C17.494 35.0996 17.2421 35.3515 17.2421 35.6621V36.9586L16.1192 36.3103C15.85 36.155 15.5062 36.2472 15.3509 36.5162C15.1956 36.7852 15.2877 37.1292 15.5567 37.2845L16.6795 37.9328L15.5567 38.5811C15.2877 38.7365 15.1955 39.0805 15.3509 39.3495C15.455 39.53 15.6441 39.6308 15.8385 39.6308C15.934 39.6308 16.0307 39.6065 16.1192 39.5554L17.2421 38.9071V40.2035C17.2421 40.5141 17.494 40.766 17.8046 40.766C18.1152 40.766 18.3671 40.5141 18.3671 40.2035V38.9071L19.4899 39.5554C19.5785 39.6065 19.6753 39.6308 19.7706 39.6308C19.965 39.6308 20.1541 39.53 20.2583 39.3495C20.4135 39.0804 20.3215 38.7365 20.0524 38.5811L18.9297 37.9328L20.0524 37.2845C20.3215 37.1292 20.4135 36.7852 20.2583 36.5162Z" fill="white"/>
<path d="M26.7119 36.5162C26.5567 36.2472 26.2126 36.1549 25.9435 36.3103L24.8207 36.9586V35.6621C24.8207 35.3515 24.5688 35.0996 24.2582 35.0996C23.9476 35.0996 23.6957 35.3515 23.6957 35.6621V36.9586L22.5728 36.3103C22.3036 36.155 21.9598 36.2472 21.8045 36.5162C21.6492 36.7852 21.7413 37.1292 22.0103 37.2845L23.1331 37.9328L22.0103 38.5811C21.7413 38.7365 21.6491 39.0805 21.8045 39.3495C21.9086 39.53 22.0977 39.6308 22.2922 39.6308C22.3876 39.6308 22.4843 39.6065 22.5728 39.5554L23.6957 38.9071V40.2035C23.6957 40.5141 23.9476 40.766 24.2582 40.766C24.5688 40.766 24.8207 40.5141 24.8207 40.2035V38.9071L25.9435 39.5554C26.0321 39.6065 26.1289 39.6308 26.2242 39.6308C26.4187 39.6308 26.6078 39.53 26.7119 39.3495C26.8672 39.0804 26.7751 38.7365 26.506 38.5811L25.3833 37.9328L26.506 37.2845C26.7751 37.1292 26.8672 36.7852 26.7119 36.5162Z" fill="white"/>
<path d="M32.9596 38.5811L31.8369 37.9328L32.9596 37.2845C33.2287 37.1292 33.3209 36.7851 33.1655 36.5162C33.0103 36.2472 32.6662 36.1549 32.3971 36.3103L31.2743 36.9586V35.6621C31.2743 35.3515 31.0224 35.0996 30.7118 35.0996C30.4012 35.0996 30.1493 35.3515 30.1493 35.6621V36.9586L29.0265 36.3103C28.7572 36.155 28.4134 36.2472 28.2581 36.5162C28.1028 36.7852 28.1949 37.1292 28.464 37.2845L29.5867 37.9328L28.464 38.5811C28.1949 38.7365 28.1027 39.0805 28.2581 39.3495C28.3622 39.53 28.5513 39.6308 28.7458 39.6308C28.8412 39.6308 28.938 39.6065 29.0265 39.5554L30.1493 38.9071V40.2035C30.1493 40.5141 30.4012 40.766 30.7118 40.766C31.0224 40.766 31.2743 40.5141 31.2743 40.2035V38.9071L32.3971 39.5554C32.4857 39.6065 32.5825 39.6308 32.6778 39.6308C32.8723 39.6308 33.0614 39.53 33.1655 39.3495C33.3209 39.0804 33.2287 38.7365 32.9596 38.5811Z" fill="white"/>
</g>
<defs>
<clipPath id="clip0_59_3611">
<rect width="48" height="48" fill="white" transform="translate(0.5 0.194824)"/>
</clipPath>
</defs>
</svg>
