<svg width="24" height="34" viewBox="0 0 24 34" fill="none" xmlns="http://www.w3.org/2000/svg">
<path d="M7.05284 0.112823C9.01009 0.156662 10.9672 0.211574 12.9247 0.241312C14.9453 0.271999 16.8553 0.693984 18.6313 1.69501C20.9185 2.98419 22.3059 4.94086 22.9303 7.45202C23.6813 10.4717 23.4458 13.4179 22.0476 16.2154C21.2293 17.8526 20.0146 19.154 18.3644 20.0063C18.0368 20.1755 17.6915 20.3073 17.3367 20.4059C17.1404 20.4603 17.0997 20.5146 17.2047 20.7137C18.3402 22.8676 19.47 25.0245 20.5906 27.1861C21.7042 29.3344 22.8058 31.4888 23.912 33.6408C24.0559 33.9207 24.0411 33.9443 23.7336 33.9444C22.8074 33.9447 21.881 33.9407 20.9548 33.9482C20.7956 33.9496 20.7184 33.8964 20.6466 33.7549C18.0602 28.6541 15.3847 23.5996 12.7317 18.5334C12.7108 18.4934 12.6874 18.4547 12.6675 18.4143C12.5716 18.2197 12.5988 18.17 12.8127 18.1778C13.2488 18.1937 13.6837 18.2315 14.1212 18.1886C16.9673 17.9089 18.9141 16.4416 19.8436 13.7363C20.6329 11.4388 20.586 9.13531 19.5819 6.89432C18.743 5.02225 17.2509 3.94277 15.2959 3.44387C14.1163 3.14278 12.9126 3.01732 11.7024 2.95056C8.27242 2.76133 4.83784 2.78642 1.40465 2.74687C1.00563 2.74226 0.606556 2.7315 0.207575 2.73462C0.0292363 2.73602 -0.0105805 2.66394 0.00496654 2.45627C0.0547261 1.79109 0.0618215 1.12325 0.00718091 0.458473C-0.0188513 0.141567 0.016175 0.0508606 0.275955 0.0517645C2.53489 0.0597188 7.05501 0.112868 7.05284 0.112823Z" fill="#293991"/>
<path d="M7.03603 21.7994C7.45761 23.356 8.14801 24.7614 9.19007 25.9825C9.78867 26.684 10.4802 27.2889 11.1776 27.8877C11.2289 27.9318 11.2792 27.9774 11.3307 28.0213C11.3795 28.063 11.419 28.1111 11.3852 28.1767C11.3506 28.2439 11.2892 28.2325 11.2275 28.2168C10.878 28.1278 10.5278 28.0417 10.1785 27.9521C8.48028 27.5166 6.89511 26.7911 5.31388 26.0555C5.04375 25.9299 4.77371 25.8041 4.45572 25.6561C4.69516 26.1194 4.94301 26.5168 5.21951 26.8962C5.89721 27.8257 6.72925 28.6136 7.54117 29.4202C7.62402 29.5025 7.8076 29.573 7.71793 29.7164C7.64381 29.8349 7.49575 29.7246 7.38652 29.6958C6.7763 29.5345 6.17254 29.3519 5.57628 29.1439C4.46815 28.7572 3.52448 28.115 2.68833 27.3029C2.54312 27.1619 2.39592 27.023 2.23321 26.8674C2.08742 27.2025 1.94871 27.5173 1.81322 27.8335C1.43824 28.7086 0.985836 29.5378 0.371908 30.2714C0.317313 30.3367 0.280479 30.4525 0.166814 30.407C0.0719947 30.3691 0.100603 30.266 0.101914 30.1859C0.169299 26.1281 0.218743 22.07 0.222313 18.0115C0.222358 17.9375 0.185163 17.8273 0.311076 17.8156C0.426278 17.8048 0.42908 17.9148 0.453078 17.9875C0.714711 18.7791 0.971012 19.5721 1.31657 20.3333C1.70462 21.188 2.27705 21.8557 3.17069 22.2081C3.21028 22.2237 3.24563 22.2616 3.30031 22.2322C3.29624 22.1361 3.22072 22.0778 3.17345 22.0075C2.74441 21.3694 2.42448 20.6908 2.3373 19.9142C2.25143 19.1493 2.45105 18.4851 2.991 17.9302C3.08545 17.8331 3.17838 17.7323 3.28431 17.6489C4.41224 16.7607 5.05636 15.5657 5.46587 14.2212C5.53371 13.9985 5.59395 13.7734 5.66324 13.5511C5.68412 13.4841 5.68995 13.3878 5.79276 13.3922C5.89924 13.3968 5.89142 13.4942 5.90033 13.5632C5.97133 14.1151 6.04093 14.667 6.17105 15.2094C6.49478 16.5585 7.16212 17.7377 7.98955 18.8308C8.49357 19.4967 9.03324 20.1356 9.56035 20.7839C10.6843 22.1662 11.3413 23.7512 11.6173 25.5026C11.6314 25.5917 11.6506 25.6801 11.6625 25.7694C11.6702 25.8281 11.6832 25.894 11.6164 25.9306C11.5477 25.9683 11.5036 25.9186 11.461 25.8765C11.3539 25.7706 11.2475 25.664 11.1421 25.5565C10.4494 24.8502 9.67234 24.2424 8.89815 23.631C8.26361 23.13 7.68666 22.5696 7.16768 21.9495C7.12502 21.8985 7.08001 21.8494 7.03603 21.7994Z" fill="#293991"/>
<path d="M12.3527 9.85016C12.2594 9.66504 12.1081 9.52724 11.9574 9.39468C10.7673 8.34806 9.38419 7.93358 7.81936 8.1845C6.9645 8.32158 6.34976 8.83553 5.88353 9.54365C5.70939 9.80813 5.56427 10.0896 5.43845 10.3785C4.93746 11.5289 4.07573 12.3241 2.98513 12.8982C2.71247 13.0417 2.44099 13.1878 2.16476 13.3241C1.21218 13.7942 0.659359 14.5632 0.453135 15.5948C0.413408 15.7936 0.372191 15.9921 0.330069 16.1905C0.317414 16.2501 0.301551 16.3171 0.220607 16.3066C0.157199 16.2983 0.148385 16.2426 0.142962 16.187C0.0107218 14.8229 0.00263184 13.469 0.43361 12.1441C0.707672 11.3016 1.23898 10.6404 1.86954 10.0443C2.04788 9.87574 2.0501 9.86715 1.82037 9.78643C1.12441 9.54197 0.558077 9.12614 0.13085 8.52473C0.0839376 8.4587 -0.0354674 8.40248 0.0400532 8.29898C0.10997 8.20321 0.213014 8.27674 0.290343 8.29948C1.24441 8.57996 2.21528 8.71052 3.20993 8.64793C3.29142 8.64282 3.37349 8.64725 3.45051 8.64725C3.47292 8.56156 3.42 8.55858 3.37973 8.54181C2.20326 8.0524 1.569 7.1466 1.37145 5.91197C1.27862 5.33175 1.24255 4.74567 1.23198 4.15845C1.23049 4.07538 1.17824 3.95344 1.29073 3.91905C1.40675 3.88357 1.4274 4.01491 1.46753 4.087C1.8356 4.74874 2.25239 5.36827 2.85958 5.84295C3.58451 6.4097 4.41284 6.70703 5.31443 6.83778C5.34499 6.75978 5.28989 6.71906 5.25952 6.67522C4.89376 6.14766 4.79316 5.55954 4.85824 4.93354C4.86637 4.85544 4.84549 4.74937 4.94894 4.72488C5.03893 4.70359 5.06975 4.79927 5.11214 4.85739C5.38394 5.22997 5.66863 5.59162 6.07276 5.83102C6.68605 6.19434 7.37591 6.30941 8.05573 6.44269C8.09939 6.37273 8.04872 6.34525 8.02445 6.31623C7.589 5.7945 7.43552 5.17701 7.40691 4.51603C7.40429 4.45551 7.38865 4.38885 7.45988 4.36061C7.53075 4.33249 7.56921 4.38849 7.60681 4.43662C7.66244 4.50776 7.7212 4.57664 7.77362 4.65008C8.41422 5.5472 9.29068 6.13957 10.2774 6.58966C10.303 6.60137 10.3329 6.6039 10.3953 6.61913C10.2837 6.19877 10.3693 5.81416 10.5056 5.43706C10.5288 5.37265 10.5321 5.27142 10.6346 5.27725C10.7156 5.28186 10.7326 5.36334 10.7515 5.4263C11.0083 6.28039 11.5598 6.926 12.2128 7.50111C12.3935 7.66033 12.564 7.83166 12.7491 7.98551C13.3941 8.52138 13.7947 9.20658 13.9558 10.0212C14.043 10.4618 14.229 10.7562 14.6372 11.0076C15.617 11.6108 15.8229 12.877 15.1956 13.9651C14.9208 14.4415 14.5277 14.793 14.0559 15.0642C13.6567 15.2935 13.2277 15.4553 12.7999 15.6196C12.7318 15.6458 12.6471 15.6863 12.5986 15.5982C12.5547 15.5183 12.6369 15.4778 12.6848 15.4368C12.8797 15.2704 13.0735 15.1029 13.2402 14.9076C13.6432 14.4354 13.6951 13.9783 13.4107 13.4281C13.2886 13.1921 13.1388 12.9741 12.9305 12.8077C12.8154 12.7157 12.8008 12.623 12.8489 12.4955C12.8964 12.3692 12.9388 12.24 12.9701 12.1089C13.0101 11.9415 13.0746 11.9201 13.218 12.0219C13.6129 12.3021 13.927 12.648 14.1413 13.0833C14.2073 13.2172 14.2757 13.3499 14.3617 13.5203C14.5773 13.0458 14.5828 12.6075 14.3947 12.1649C14.2306 11.779 13.9195 11.6198 13.517 11.6118C13.3872 11.6092 13.2869 11.5715 13.2183 11.4513C12.882 10.8625 12.3598 10.5931 11.6963 10.6357C10.7888 10.694 10.1356 10.2345 9.53726 9.6405C9.49564 9.59915 9.43286 9.55829 9.47173 9.48987C9.51345 9.41638 9.58761 9.44322 9.65513 9.45077C10.4625 9.54112 11.2625 9.67602 12.057 9.84469C12.1446 9.86331 12.2344 9.87172 12.3232 9.88482C12.3412 9.88776 12.3698 9.89924 12.3754 9.89228C12.3933 9.87009 12.3728 9.85798 12.3527 9.85016Z" fill="#00AEEF"/>
<path d="M10.4613 33.9365C9.38058 33.8586 8.29744 33.7944 7.26062 33.4374C5.8552 32.9536 4.80238 32.0127 3.92067 30.8522C3.4967 30.2941 3.1369 29.6939 2.77706 29.094C2.73661 29.0266 2.66118 28.9505 2.74488 28.8733C2.83523 28.79 2.89687 28.8875 2.95395 28.9358C3.40812 29.3198 3.8612 29.7052 4.35531 30.0381C5.06645 30.5172 5.83617 30.8334 6.70409 30.8734C7.08355 30.8909 7.43444 30.7945 7.76115 30.6072C7.87541 30.5416 7.97023 30.5276 8.09099 30.61C8.71558 31.0361 9.28996 31.518 9.79755 32.0801C10.2073 32.534 10.5109 33.0447 10.6879 33.6317C10.7828 33.9466 10.7808 33.9562 10.4613 33.9365Z" fill="#293991"/>
<path d="M12.2969 29.2325C12.2764 28.843 12.1424 28.3728 12.0032 27.9045C11.8983 27.5518 11.7778 27.2037 11.671 26.8516C11.6479 26.7753 11.564 26.669 11.6925 26.6173C11.8121 26.5692 11.8403 26.6918 11.8804 26.765C12.6392 28.1492 13.3958 29.5346 14.1532 30.9197C14.6184 31.7705 15.0852 32.6204 15.5481 33.4725C15.5922 33.5536 15.7016 33.6391 15.6308 33.7338C15.5574 33.8321 15.4314 33.768 15.3343 33.7489C14.14 33.5147 13.034 33.0564 12.01 32.404C10.7256 31.5858 9.68075 30.5041 8.69785 29.3567C8.5558 29.1909 8.41407 29.0249 8.27401 28.8574C8.21847 28.791 8.12067 28.7175 8.21829 28.6304C8.29973 28.5578 8.36725 28.6455 8.42799 28.6997C8.78734 29.0208 9.14542 29.3435 9.53834 29.624C9.98396 29.9422 10.4605 30.1886 11.0128 30.2641C11.2482 30.2963 11.4797 30.2836 11.7065 30.2217C12.1369 30.1041 12.3047 29.8474 12.2969 29.2325Z" fill="#293991"/>
<path d="M2.95886 33.9053C2.02039 33.8578 1.12571 33.6802 0.378281 33.0492C0.283824 32.9695 0.238403 32.8884 0.229545 32.7654C0.195016 32.2854 0.15312 31.8059 0.107564 31.3269C0.096491 31.2104 0.110727 31.1247 0.228053 31.0685C0.93576 30.7294 1.44954 30.18 1.88097 29.5406C1.93149 29.4657 1.96666 29.3416 2.08977 29.3678C2.19539 29.3903 2.19326 29.5078 2.21613 29.5896C2.59658 30.9497 3.3272 32.1287 4.11784 33.2769C4.16471 33.345 4.2095 33.4145 4.25645 33.4826C4.34572 33.612 4.31245 33.6821 4.15974 33.7224C3.76605 33.8264 3.37109 33.9155 2.95886 33.9053Z" fill="#293991"/>
<path d="M9.65679 16.309C8.7562 16.2823 8.02761 15.8355 7.52491 15.0092C7.07942 14.2769 6.89746 13.456 6.73345 12.6296C6.7212 12.5679 6.70602 12.5033 6.7866 12.4824C6.87509 12.4593 6.90072 12.5327 6.93068 12.5934C7.11381 12.9641 7.30576 13.3297 7.55523 13.6615C7.92267 14.1503 8.3541 14.5691 8.93752 14.7828C9.88385 15.1294 10.724 14.8693 11.4855 14.2743C11.674 14.127 11.8322 13.9412 12.0074 13.7765C12.0572 13.7296 12.0963 13.6347 12.1895 13.6913C12.2866 13.7503 12.2202 13.8255 12.1895 13.8876C11.9299 14.4125 11.6797 14.9428 11.3398 15.4235C10.9466 15.9794 10.4314 16.3119 9.65679 16.309Z" fill="#00AEEF"/>
</svg>
