<svg width="232" height="231" viewBox="0 0 232 231" fill="none" xmlns="http://www.w3.org/2000/svg">
<g id="5124557 1">
<g id="OBJECTS">
<g id="Group">
<g id="Group_2">
<path id="Vector" d="M200.795 123.029H180.194C178.919 123.029 177.885 121.995 177.885 120.721V110.436C177.885 109.161 178.919 108.127 180.194 108.127H200.795C202.07 108.127 203.104 109.161 203.104 110.436V120.721C203.104 121.995 202.07 123.029 200.795 123.029Z" fill="#60A8FF"/>
<path id="Vector_2" d="M190.493 128.856L193.758 121.119H187.229L190.493 128.856Z" fill="#60A8FF"/>
</g>
<g id="Group_3">
<g id="Group_4">
<g id="Group_5">
<path id="Vector_3" d="M190.416 113.02H196.313V113.883L199.204 112.216L196.313 110.549V111.412H190.416V113.02Z" fill="#223A7A"/>
</g>
<g id="Group_6">
<path id="Vector_4" d="M199.204 116.411H193.307V115.548L190.416 117.215L193.307 118.882V118.019H199.204V116.411Z" fill="white"/>
</g>
</g>
<g id="Group_7">
<path id="Vector_5" d="M186.795 117.927L186.515 118.029C186.515 118.029 185.64 117.031 185.185 115.942C184.731 114.854 184.715 113.525 184.715 113.525L184.92 113.439L183.673 110.455C183.451 110.629 183.239 110.852 183.068 111.142C182.362 112.334 182.432 114.164 183.142 115.952C183.852 117.74 184.611 119.335 185.996 120.338C186.813 120.93 187.513 121.033 188.057 120.947L186.795 117.927Z" fill="#223A7A"/>
<path id="Vector_6" d="M187.69 117.576L187.302 117.717L188.578 120.772C188.722 120.725 188.852 120.667 188.964 120.606C189.294 120.425 189.438 120.029 189.3 119.68L188.633 118C188.485 117.626 188.067 117.439 187.69 117.576Z" fill="#223A7A"/>
<path id="Vector_7" d="M184.649 109.932C184.492 109.989 184.321 110.065 184.149 110.167L185.423 113.215L185.852 113.036C186.223 112.88 186.403 112.457 186.257 112.081L185.588 110.363C185.442 109.99 185.026 109.796 184.649 109.932Z" fill="#223A7A"/>
</g>
</g>
</g>
<g id="Group_8">
<path id="Vector_8" d="M69.1037 171.906V137.517C69.1037 137.517 68.7214 128.251 73.5932 125.577C78.4651 122.902 99.0027 124.335 99.0027 124.335V171.905H69.1037V171.906Z" fill="#1C83FF"/>
</g>
<g id="Group_9">
<g id="Group_10">
<path id="Vector_9" d="M105.418 92.1436C105.418 92.1436 104.176 102.556 103.699 103.415C103.221 104.275 103.221 104.275 103.221 104.275L100.833 105.899C100.833 105.899 105.418 112.394 111.054 113.445C116.69 114.496 116.212 111.153 116.212 111.153L115.352 109.338L116.499 99.4037C116.499 99.4037 106.278 94.7231 105.418 92.1436Z" fill="#FF9D8C"/>
</g>
<path id="Vector_10" d="M97.8711 106.759L101.597 105.135C101.597 105.135 103.984 109.051 109.525 111.344C115.065 113.636 115.161 112.299 115.447 111.344C115.734 110.388 115.352 109.338 115.352 109.338L115.762 105.993L117.978 106.732L125.668 168.944L105.895 169.9L97.8711 106.759Z" fill="white"/>
<g id="Group_11">
<path id="Vector_11" d="M116.117 106.058C116.117 106.058 117.454 109.146 118.696 116.406C119.938 123.666 121.084 135.893 121.37 144.299C121.657 152.705 121.848 171.905 121.848 171.905C121.848 171.905 146.493 171.905 146.779 171.905C147.066 171.905 148.785 162.448 148.785 162.448C148.785 162.448 137.896 153.119 137.322 151.591C136.94 150.572 137.131 131.69 135.507 122.997C133.884 114.304 131.782 112.553 127.388 110.388C122.847 108.15 116.117 106.058 116.117 106.058Z" fill="#223A7A"/>
</g>
<g id="Group_12">
<path id="Vector_12" d="M129.108 160.961C128.981 160.961 128.877 160.858 128.877 160.73C128.877 160.047 128.756 150.344 128.639 140.96C128.521 131.574 128.399 121.87 128.399 121.183C128.399 121.056 128.503 120.953 128.63 120.953C128.758 120.953 128.861 121.056 128.861 121.183C128.861 121.866 128.983 131.57 129.1 140.954C129.218 150.339 129.339 160.044 129.339 160.73C129.339 160.858 129.236 160.961 129.108 160.961Z" fill="#8593B6"/>
</g>
<g id="Group_13">
<path id="Vector_13" d="M79.4353 158.629L79.2441 171.907H108.283C108.283 171.907 109.525 160.635 109.048 159.584C108.57 158.534 79.4353 158.629 79.4353 158.629Z" fill="#223A7A"/>
</g>
<g id="Group_14">
<path id="Vector_14" d="M111.754 103.129C112.938 104.082 114.556 104.848 115.817 105.311L116.498 99.4032C116.498 99.4032 108.821 95.8864 106.216 93.2695C106.761 96.2424 108.1 100.182 111.754 103.129Z" fill="#8E9BBB"/>
</g>
<g id="Group_15">
<path id="Vector_15" d="M125.479 72.7531C125.479 72.7531 127.485 76.1918 127.867 80.3951C128.249 84.598 127.867 95.3924 124.428 99.9775C120.989 104.563 113.825 103.226 110.577 100.455C107.596 97.9128 104.654 95.1062 103.89 89.5658C103.126 84.0255 105.514 73.5177 112.296 71.321C119.078 69.1233 125.479 72.7531 125.479 72.7531Z" fill="#FF9D8C"/>
</g>
<g id="Group_16">
<g id="Group_17">
<path id="Vector_16" d="M134.096 165.901C134.096 165.901 133.759 165.901 133.247 165.887C133.127 165.882 132.993 165.887 132.854 165.882C132.36 165.868 131.76 165.854 131.155 165.836C131.021 165.831 130.883 165.827 130.749 165.822C130.149 165.808 129.636 165.882 129.156 165.854H129.142C129.041 165.85 128.893 165.864 128.773 165.868C128.713 165.873 128.657 165.878 128.62 165.873C128.343 165.822 128.288 165.757 127.988 165.624C127.6 165.448 122.351 164.275 118.08 164.303C113.814 164.322 109.986 164.612 109.363 164.091C108.735 163.56 108.357 158.2 111.999 157.849L116.478 159.548C116.478 159.548 126.704 158.333 130.453 161.099C134.212 163.865 134.096 165.901 134.096 165.901Z" fill="#FF9D8C"/>
</g>
<g id="Group_18">
<g id="Group_19">
<path id="Vector_17" d="M129.146 165.854C129.044 165.85 128.897 165.864 128.777 165.868C128.684 165.72 128.49 165.453 128.384 165.342C127.23 164.164 124.441 163.403 123.43 163.158C123.338 163.135 123.278 163.043 123.301 162.95C123.319 162.858 123.416 162.802 123.513 162.821C124.986 163.176 128.112 164.086 128.998 165.577C129.026 165.619 129.1 165.762 129.146 165.854Z" fill="#223A7A"/>
</g>
</g>
<g id="Group_20">
<g id="Group_21">
<path id="Vector_18" d="M131.159 165.835C131.025 165.832 130.887 165.829 130.753 165.821C129.493 163.523 127.431 162.863 124.883 162.043L124.732 161.994C124.645 161.964 124.592 161.866 124.622 161.774C124.652 161.687 124.746 161.633 124.842 161.664L124.989 161.714C127.682 162.578 129.85 163.273 131.159 165.835Z" fill="#223A7A"/>
</g>
</g>
<g id="Group_22">
<g id="Group_23">
<path id="Vector_19" d="M133.244 165.888C133.124 165.885 132.99 165.886 132.851 165.883C132.087 164.275 129.557 161.586 126.21 160.959C126.114 160.943 126.051 160.854 126.067 160.757C126.088 160.665 126.177 160.603 126.269 160.619C129.717 161.267 132.498 164.082 133.244 165.888Z" fill="#223A7A"/>
</g>
</g>
</g>
<g id="Group_24">
<path id="Vector_20" d="M106.184 84.8364C106.184 84.8364 108.286 83.8336 109.766 81.0154C111.247 78.1976 111.056 75.6662 111.056 75.6662C111.056 75.6662 113.731 75.2363 117.743 76.4303C121.755 77.6242 126.531 79.248 130.543 76.9557C134.555 74.6634 134.555 70.9855 132.596 69.4573C130.403 67.7458 126.053 68.7887 126.053 68.7887C126.053 68.7887 127.725 67.165 126.817 66.2097C125.91 65.2545 122.614 66.4964 122.614 66.4964C122.614 66.4964 118.602 63.2964 111.008 63.6787C103.414 64.061 99.7845 69.3622 99.3547 75.2848C98.9249 81.2075 101.074 87.1296 101.074 87.1296L106.184 84.8364Z" fill="#223A7A"/>
</g>
<g id="Group_25">
<g id="Group_26">
<path id="Vector_21" d="M121.588 86.2708C121.158 87.3318 121.168 88.5632 121.06 89.6892C120.975 90.5651 120.815 91.5864 121.617 92.1778C122 92.4603 123.814 93.2221 122.881 93.8394C122.526 94.0749 121.93 94.0103 121.525 93.9918C121.246 93.9789 120.965 93.9673 120.686 93.9466C120.387 93.9239 120.093 93.8339 119.793 93.8325C119.618 93.8316 119.563 94.0657 119.706 94.1552C120.189 94.4572 120.896 94.5504 121.458 94.5721C122.02 94.5938 122.402 94.568 122.908 94.3168C123.219 94.1626 123.521 93.9438 123.571 93.574C123.626 93.1575 123.314 92.784 123 92.5513C122.639 92.2835 122.196 92.1589 121.831 91.8975C121.326 91.5356 121.367 90.9257 121.403 90.361C121.488 89.0027 121.8 87.6684 121.922 86.3161C121.94 86.1093 121.654 86.1093 121.588 86.2708Z" fill="#8E9BBB"/>
</g>
</g>
<g id="Group_27">
<path id="Vector_22" d="M125.493 89.4481C125.35 90.2533 124.765 90.8231 124.184 90.7201C123.604 90.6176 123.249 89.8817 123.392 89.0765C123.535 88.2713 124.12 87.7015 124.7 87.8045C125.28 87.907 125.635 88.6429 125.493 89.4481Z" fill="#223A7A"/>
</g>
<g id="Group_28">
<path id="Vector_23" d="M118.183 88.8097C118.053 89.6786 117.441 90.307 116.816 90.2142C116.19 90.1209 115.787 89.3411 115.917 88.4726C116.046 87.6037 116.658 86.9754 117.284 87.0682C117.909 87.161 118.312 87.9412 118.183 88.8097Z" fill="#223A7A"/>
</g>
<g id="Group_29">
<g id="Group_30">
<path id="Vector_24" d="M123.794 86.1284C124.24 86.2036 124.691 86.127 125.141 86.1584C125.249 86.1658 125.356 86.1819 125.464 86.1921C125.541 86.1995 125.321 86.1695 125.428 86.187C125.451 86.1907 125.474 86.1944 125.497 86.1986C125.554 86.2087 125.61 86.2203 125.666 86.2336C125.761 86.2572 125.855 86.2932 125.951 86.314C126.038 86.3329 126.135 86.3537 126.223 86.3495C126.271 86.3431 126.321 86.3361 126.37 86.3297C126.339 86.3352 126.308 86.3408 126.277 86.3463C126.277 86.3569 126.445 86.3301 126.46 86.3264C126.716 86.2669 126.874 85.97 126.802 85.723C126.782 85.6514 126.75 85.5873 126.705 85.5286C126.686 85.5032 126.667 85.4783 126.646 85.4543C126.664 85.4751 126.682 85.4958 126.7 85.5162C126.681 85.4894 126.662 85.4631 126.641 85.4377C126.615 85.3947 126.581 85.361 126.539 85.3356C126.503 85.3079 126.468 85.2793 126.431 85.2535C126.313 85.1713 126.157 85.1233 126.017 85.0872C125.75 85.0185 125.471 84.9834 125.196 84.982C124.923 84.9806 124.653 85.0092 124.383 85.0466C124.145 85.0794 123.879 85.1602 123.686 85.3042C123.537 85.4155 123.445 85.5582 123.471 85.7535C123.493 85.9151 123.62 86.0988 123.794 86.1284Z" fill="#223A7A"/>
</g>
</g>
<g id="Group_31">
<g id="Group_32">
<path id="Vector_25" d="M118.701 84.8518C118.641 84.8158 118.579 84.7844 118.515 84.7553C118.46 84.7304 118.312 84.6533 118.424 84.7142C118.383 84.6921 118.343 84.6699 118.301 84.6487C118.116 84.5554 117.924 84.4931 117.724 84.4418C117.288 84.3306 116.829 84.3024 116.382 84.3495C115.906 84.3998 115.47 84.5153 115.057 84.7641C114.999 84.7992 114.939 84.8338 114.89 84.8823C114.857 84.9239 114.825 84.9654 114.794 85.0079C114.803 84.994 114.812 84.9802 114.821 84.9663C114.694 85.0554 114.62 85.2018 114.621 85.3555C114.622 85.5037 114.699 85.6279 114.827 85.6995C114.984 85.7863 115.131 85.7448 115.291 85.7032C115.211 85.7032 115.13 85.7032 115.05 85.7032C115.182 85.724 115.276 85.7291 115.41 85.6995C115.414 85.6986 115.538 85.6676 115.457 85.6847C115.38 85.7009 115.586 85.6686 115.609 85.6653C115.635 85.6616 115.779 85.6473 115.627 85.6621C115.655 85.6593 115.683 85.6556 115.711 85.6524C115.783 85.6436 115.855 85.6349 115.927 85.6289C116.243 85.6035 116.557 85.5896 116.873 85.579C117.166 85.5693 117.465 85.567 117.757 85.5799C117.883 85.5855 118.008 85.5896 118.134 85.5929C118.204 85.5947 118.174 85.6058 118.126 85.5905C118.152 85.5989 118.178 85.6035 118.204 85.6109C118.256 85.6252 118.308 85.6423 118.359 85.6616C118.562 85.7392 118.806 85.5924 118.882 85.4049C118.965 85.2018 118.895 84.9673 118.701 84.8518Z" fill="#223A7A"/>
</g>
</g>
<g id="Group_33">
<path id="Vector_26" d="M120.962 98.13C121.4 97.2486 122.198 96.6027 123.12 96.1872C122.319 96.1059 118.541 95.756 117.587 96.2975C116.519 96.9042 117.785 99.3392 119.993 99.4615C120.226 99.4745 120.436 99.4555 120.637 99.4241C120.656 98.9795 120.758 98.5395 120.962 98.13Z" fill="#223A7A"/>
</g>
<g id="Group_34">
<path id="Vector_27" d="M103.51 93.0029C103.51 93.0029 103.892 94.4836 106.089 96.2029C108.286 97.9223 111.47 99.1799 111.47 99.1799L111.725 98.0654C111.725 98.0654 108.429 96.6323 106.901 95.0565C105.373 93.4803 105.182 92.6206 105.182 92.6206L103.51 93.0029Z" fill="#DEE1EB"/>
</g>
<g id="Group_35">
<path id="Vector_28" d="M112.102 97.2417C113.87 97.1596 114.857 98.5576 114.98 99.462C115.103 100.367 114.254 101.381 112.266 100.49C109.798 99.3831 110.334 97.3239 112.102 97.2417Z" fill="#223A7A"/>
</g>
<g id="Group_36">
<path id="Vector_29" d="M104.894 82.0664C104.894 82.0664 105.657 76.5768 109.336 72.8486C116.357 65.732 122.327 66.1619 122.327 66.1619C122.327 66.1619 122.279 65.1591 120.034 64.3945C117.927 63.677 116.977 64.0602 116.977 64.0602C116.977 64.0602 111.198 64.5381 106.326 69.9349C101.455 75.3321 100.929 82.2095 100.929 82.2095L104.894 82.0664Z" fill="#DEE1EB"/>
</g>
<g id="Group_37">
<g id="Group_38">
<path id="Vector_30" d="M104.366 81.398C99.7661 80.6182 97.2014 84.2162 97.0103 87.8456C96.8191 91.4754 99.4568 94.235 102.98 93.9589C110.909 93.3384 110.001 82.3532 104.366 81.398Z" fill="white"/>
</g>
<g id="Group_39">
<path id="Vector_31" d="M102.075 90.4326C100.861 90.4326 99.835 89.8227 99.2482 88.7479C98.6199 87.5969 98.6725 86.1799 99.3826 85.1383C99.4366 85.0598 99.5442 85.0395 99.6231 85.0926C99.7021 85.1466 99.7224 85.2542 99.6688 85.3332C99.0312 86.2685 98.9855 87.5438 99.5525 88.5817C100.09 89.5669 101.039 90.1246 102.164 90.0845C103.215 90.0563 104.105 89.5757 104.672 88.7308C105.318 87.7668 105.467 86.4348 105.05 85.3387C104.637 84.2514 103.504 83.5095 102.474 83.6443C102.381 83.6567 102.292 83.5903 102.279 83.4956C102.267 83.401 102.333 83.3142 102.428 83.3012C103.633 83.1406 104.898 83.9642 105.374 85.2154C105.828 86.4135 105.666 87.8693 104.959 88.9233C104.328 89.8642 103.339 90.3993 102.173 90.4307C102.14 90.4321 102.108 90.4326 102.075 90.4326Z" fill="#818FB3"/>
</g>
</g>
<g id="Group_40">
<path id="Vector_32" d="M98.7318 105.421C98.7318 105.421 84.7853 108.86 79.9135 114.4C75.0416 119.94 72.7493 147.26 72.6538 152.323C72.5582 157.386 76.0925 159.487 78.1941 160.92C80.2958 162.353 89.5615 164.932 97.0124 165.314C104.463 165.696 111.532 165.314 111.532 165.314C111.532 165.314 111.508 163.69 112.654 161.302C113.717 159.087 115.066 158.627 115.066 158.627L108.666 156.334C108.666 156.334 107.546 136.253 105.8 126.531C103.795 115.355 98.7318 105.421 98.7318 105.421Z" fill="#223A7A"/>
</g>
<g id="Group_41">
<path id="Vector_33" d="M121.85 153.126C121.818 153.126 121.786 153.12 121.756 153.106C121.64 153.055 121.587 152.919 121.639 152.802C122.945 149.854 124.299 144.066 125.062 140.005L125.124 139.677C125.355 138.483 125.642 136.997 125.07 135.972C124.777 135.449 124.117 134.314 123.482 133.223C122.823 132.09 122.201 131.02 122.029 130.701C121.692 130.078 122.751 128.412 124.285 126.127C124.699 125.509 125.057 124.976 125.266 124.615C125.812 123.67 125.449 122.803 125.027 121.8L124.883 121.455C124.502 120.518 124.067 119.579 123.648 118.67C123.477 118.299 123.305 117.928 123.136 117.554C122.912 117.06 122.687 116.559 122.459 116.05C121.109 113.041 119.713 109.93 117.926 106.924C117.86 106.814 117.897 106.673 118.006 106.608C118.115 106.543 118.257 106.579 118.323 106.688C120.123 109.717 121.525 112.84 122.88 115.861C123.108 116.369 123.333 116.871 123.557 117.364C123.726 117.736 123.896 118.107 124.068 118.477C124.49 119.39 124.925 120.334 125.311 121.281L125.453 121.622C125.883 122.644 126.327 123.702 125.666 124.846C125.449 125.22 125.088 125.759 124.669 126.383C123.87 127.575 122.206 130.055 122.436 130.481C122.605 130.795 123.225 131.861 123.882 132.991C124.518 134.085 125.18 135.222 125.473 135.747C126.129 136.919 125.823 138.497 125.579 139.765L125.516 140.09C125.238 141.569 123.767 149.141 122.062 152.989C122.022 153.076 121.938 153.126 121.85 153.126Z" fill="#8593B6"/>
</g>
<g id="Group_42">
<path id="Vector_34" d="M108.234 153.939C108.175 153.939 108.115 153.916 108.07 153.871C106.984 152.777 101.75 143.713 101.361 142.009C101.147 141.075 101.683 138.709 102.2 136.42C102.602 134.647 103.017 132.813 102.899 132.317C102.723 131.575 101.384 130.481 100.089 129.424C98.5257 128.146 96.9088 126.825 96.5958 125.635C96.2398 124.283 96.5441 115.817 96.7454 110.215C96.8179 108.201 96.8747 106.61 96.8747 106.042C96.8747 105.915 96.9781 105.811 97.1051 105.811C97.2325 105.811 97.3364 105.914 97.3364 106.042C97.3364 106.618 97.2791 108.213 97.2066 110.232C97.0187 115.468 96.7038 124.231 97.0418 125.518C97.317 126.562 98.9449 127.893 100.381 129.066C101.797 130.223 103.135 131.316 103.348 132.21C103.49 132.811 103.101 134.53 102.65 136.522C102.168 138.657 101.62 141.075 101.81 141.906C102.192 143.577 107.332 152.472 108.398 153.546C108.487 153.636 108.487 153.783 108.396 153.872C108.352 153.916 108.293 153.939 108.234 153.939Z" fill="#8593B6"/>
</g>
<g id="Group_43">
<path id="Vector_35" d="M89.4672 149.974C89.4566 149.974 89.4455 149.974 89.4349 149.972C89.3088 149.954 89.2207 149.837 89.2387 149.711C89.4081 148.51 92.0578 124.595 92.1797 122.763C92.1884 122.636 92.2979 122.536 92.4253 122.548C92.5523 122.557 92.6488 122.667 92.6404 122.793C92.5186 124.628 89.8656 148.574 89.6957 149.776C89.6791 149.891 89.5803 149.974 89.4672 149.974Z" fill="#8593B6"/>
</g>
<g id="Group_44">
<path id="Vector_36" d="M108.477 156.471C108.448 156.471 108.419 156.465 108.39 156.454C107.803 156.216 105.209 155.341 101.925 154.234C95.2956 151.998 86.2163 148.936 84.4901 148.039C84.3769 147.98 84.3331 147.841 84.3917 147.728C84.4504 147.614 84.5893 147.569 84.7029 147.629C86.3978 148.51 95.8307 151.691 102.072 153.795C105.364 154.906 107.965 155.783 108.564 156.025C108.682 156.073 108.739 156.208 108.691 156.326C108.654 156.416 108.568 156.471 108.477 156.471Z" fill="#8593B6"/>
</g>
<g id="Group_45">
<path id="Vector_37" d="M105.288 165.994C99.4534 165.994 88.1427 164.942 79.5506 161.903C79.4301 161.861 79.3673 161.729 79.4098 161.608C79.4518 161.488 79.5852 161.426 79.7043 161.468C90.5588 165.307 105.743 165.963 108.568 165.328C108.693 165.302 108.816 165.379 108.844 165.503C108.872 165.628 108.794 165.751 108.669 165.779C108.058 165.917 106.876 165.994 105.288 165.994Z" fill="#8593B6"/>
</g>
</g>
<g id="Group_46">
<g id="Group_47">
<g id="Group_48">
<path id="Vector_38" d="M38.5118 108.642C40.3231 110.235 42.6172 111.256 44.2064 113.098C44.832 113.823 45.3939 114.595 45.9742 115.354C46.3967 115.908 47.5246 116.825 47.7079 117.52C47.7887 117.826 47.7716 117.412 47.6904 117.105C47.6871 117.092 47.6802 117.079 47.6765 117.066C47.5181 115.659 47.4041 114.245 47.3552 112.829C47.3058 111.418 47.394 109.999 47.3053 108.589C47.1806 106.6 46.5597 104.674 44.9336 103.427C44.139 102.818 43.1173 102.448 42.3869 101.771C41.6934 101.13 41.9713 100.395 42.3795 99.679C42.7608 99.0095 43.2234 98.3511 43.3721 97.5801C43.5411 96.7038 43.2114 95.8002 42.7673 95.0537C41.8213 93.4659 39.7233 91.6948 37.7366 91.9322C36.0796 92.1302 35.8917 94.0416 35.9157 95.3732C35.9388 96.6678 36.0667 97.9582 36.0792 99.2537C36.0921 100.584 35.8659 101.89 35.8469 103.215C35.8146 105.468 36.8557 107.185 38.5118 108.642Z" fill="#6BAEFF"/>
<path id="Vector_39" d="M55.3409 129.318C55.8451 128.115 56.4236 126.99 57.135 125.897C58.1111 124.396 59.1937 122.934 59.8489 121.254C60.5183 119.538 60.42 117.703 60.486 115.896C60.5345 114.568 60.9288 113.245 60.8226 111.913C60.7718 111.274 60.4038 110.242 59.5779 110.347C58.9352 110.43 58.5534 111.226 58.3064 111.735C57.8751 112.622 57.5764 113.569 57.2565 114.5C57.1313 114.864 57.0122 115.234 56.8543 115.586C56.7624 115.791 56.4702 116.29 56.1941 116.222C55.725 116.106 56.1507 114.19 56.2209 113.85C56.5718 112.146 57.099 110.562 57.1724 108.808C57.2786 106.265 57.081 103.237 54.5934 101.847C53.9433 101.483 53.1197 101.267 52.5019 101.81C51.8925 102.347 51.7203 103.276 51.6298 104.041C51.3518 106.39 51.9049 108.614 52.6575 110.823C53.2789 112.648 54.0195 114.531 54.0735 116.482C54.1257 118.36 53.1483 120.025 52.6898 121.798C51.959 124.626 52.1099 126.125 52.1067 127.041C52.1021 128.188 52.1436 129.323 52.2277 130.467C52.3048 131.518 52.3957 132.57 52.5245 133.616C52.5504 133.828 52.5744 134.049 52.603 134.27C52.199 133.297 52.0578 132.183 51.723 131.205C51.1284 129.468 50.4381 127.766 49.8675 126.02C49.3961 124.578 48.9505 123.124 48.3282 121.738C47.7441 120.437 47.0391 119.061 45.95 118.106C45.2916 117.529 44.4938 117.192 43.6133 117.199C43.0501 117.203 42.544 117.398 42.0062 117.54C41.3446 117.715 40.8238 117.655 40.279 117.236C38.4963 115.866 37.9543 113.409 36.6343 111.674C35.65 110.38 33.3147 108.174 31.5972 109.585C30.6863 110.334 30.4351 111.78 30.4831 112.889C30.5432 114.28 31.1512 115.553 31.8752 116.716C32.6453 117.953 33.6393 119.061 34.3471 120.332C34.7654 121.084 34.8309 121.804 34.7645 122.652C34.7021 123.45 34.6324 124.223 34.9043 124.993C35.7216 127.306 38.2733 126.983 40.2577 127.044C41.6465 127.086 43.1364 127.293 44.4545 127.737C45.9781 128.25 46.9694 129.241 47.5142 130.749C47.9085 131.839 48.119 133.078 48.8614 134.005C49.2105 134.441 49.6726 134.762 50.1805 134.987C50.9548 135.329 53.314 135.478 53.3316 135.262C53.3902 134.541 53.7323 133.779 53.9466 133.095C54.3482 131.81 54.8205 130.558 55.3409 129.318Z" fill="#6BAEFF"/>
<path id="Vector_40" d="M66.2964 128.882C66.0914 127.56 66.1306 126.102 65.5045 124.888C65.4598 124.801 65.3411 124.779 65.2608 124.824C64.812 125.073 64.7935 125.798 64.7566 126.242C64.6961 126.979 64.7409 127.717 64.6504 128.452C64.4911 129.743 64.1929 131.073 63.7279 132.29C63.2021 133.667 62.245 134.447 60.8553 134.877C59.9619 135.153 59.0865 135.393 58.3409 135.986C57.6737 136.517 57.2102 137.249 56.8662 138.02C55.9382 140.1 55.4964 142.426 55.0665 144.649C54.777 146.146 54.5406 147.65 54.1773 149.131C53.8139 150.612 53.4243 152.086 53.2156 153.599C53.1805 153.675 53.1431 153.75 53.1108 153.828C53.0157 154.054 53.3693 154.176 53.4917 153.988C54.9262 151.78 56.6737 149.798 59.0579 148.582C60.1346 148.032 61.5649 147.919 62.4629 147.055C63.1462 146.399 63.2404 145.397 63.1379 144.505C63.0035 143.331 62.4412 142.366 61.8558 141.366C61.534 140.817 61.154 140.228 61.2837 139.561C61.4061 138.931 61.9296 138.469 62.449 138.146C63.4398 137.531 64.5992 137.254 65.4108 136.367C66.1648 135.543 66.5826 134.518 66.6662 133.408C66.7774 131.929 66.5226 130.343 66.2964 128.882Z" fill="#6BAEFF"/>
<path id="Vector_41" d="M46.7376 136.506C45.4717 134.876 43.9439 133.469 42.2246 132.327C41.3076 131.718 39.1432 130.516 38.7064 132.314C38.4507 133.367 39.4812 134.403 40.1594 135.063C41.1788 136.055 42.358 136.911 43.2181 138.054C42.153 138.394 41.0403 138.46 40.1151 139.197C39.0195 140.068 38.5282 141.752 39.6146 142.82C40.1437 143.34 40.8459 143.66 41.5048 143.979C42.3617 144.393 43.2343 144.77 44.1129 145.137C46.0096 145.929 47.9297 146.733 49.5475 148.03C51.1958 149.353 52.7452 151.589 52.8764 153.746C52.8888 153.952 52.8108 153.764 52.9336 153.671C53.0006 153.731 53.2268 153.623 53.2254 153.503C53.1917 150.301 52.6164 147.252 51.308 144.32C50.0956 141.601 48.566 138.861 46.7376 136.506Z" fill="#6BAEFF"/>
</g>
<g id="Group_49">
<path id="Vector_42" d="M42.361 106.702C43.0595 108.151 43.7899 109.567 44.5651 110.98C45.3112 112.341 46.0569 113.691 46.6151 115.143C47.3025 116.93 48.0232 118.691 48.7499 120.462C49.5053 122.304 50.1807 124.18 50.7223 126.095C51.7796 129.834 52.5649 133.683 52.9532 137.55C53.1508 139.517 53.2404 141.495 53.1864 143.471C53.1439 145.015 52.9698 146.543 52.8249 148.079C52.6739 149.677 52.5649 151.294 52.6988 152.898C52.8106 154.239 53.0239 155.833 54.0641 156.79C54.2677 156.977 54.5562 156.743 54.438 156.501C53.2016 153.965 53.2709 151.201 53.5073 148.451C53.6379 146.934 53.8189 145.424 53.8702 143.9C53.9353 141.961 53.8591 140.019 53.6767 138.088C53.318 134.293 52.5612 130.543 51.5797 126.862C51.076 124.975 50.4536 123.124 49.7357 121.307C49.0163 119.487 48.1857 117.716 47.4886 115.886C46.2277 112.577 44.3066 109.643 42.6052 106.559C42.5152 106.399 42.283 106.54 42.361 106.702Z" fill="#43588E"/>
</g>
<g id="Group_50">
<path id="Vector_43" d="M53.0097 133.758C53.2096 131.348 53.4234 129.028 54.2355 126.729C54.6146 125.657 55.0735 124.615 55.4391 123.539C55.7411 122.649 56.1931 121.429 55.9609 120.483C55.935 120.378 55.7813 120.383 55.7522 120.483C55.5966 121.024 55.6137 121.616 55.5015 122.17C55.3925 122.708 55.2466 123.238 55.079 123.762C54.7226 124.875 54.2567 125.943 53.8532 127.038C53.0734 129.156 52.6731 131.501 52.8435 133.758C52.8518 133.865 53.0009 133.865 53.0097 133.758Z" fill="#43588E"/>
</g>
<g id="Group_51">
<path id="Vector_44" d="M39.0452 119.912C40.0018 122.223 42.8768 122.355 44.9711 122.873C46.4665 123.242 47.5704 124.241 48.3636 125.536C49.2311 126.953 49.8184 128.616 50.3009 130.198C50.3064 130.216 50.3323 130.208 50.3286 130.19C49.7427 127.42 48.9033 124.085 46.0487 122.797C43.761 121.764 40.7461 122.283 39.2825 119.812C39.2105 119.69 38.987 119.772 39.0452 119.912Z" fill="#43588E"/>
</g>
<g id="Group_52">
<path id="Vector_45" d="M51.5 133.394C51.6136 133.548 51.7179 133.708 51.8357 133.859C51.8938 133.933 51.9529 134.004 52.0263 134.064C52.1016 134.125 52.1893 134.201 52.2923 134.199C52.3352 134.199 52.3657 134.151 52.3421 134.113C52.295 134.036 52.2096 133.989 52.1427 133.93C52.0743 133.87 52.0042 133.811 51.9377 133.747C51.8043 133.621 51.6814 133.483 51.5508 133.354C51.5259 133.33 51.4774 133.363 51.5 133.394Z" fill="#43588E"/>
</g>
<g id="Group_53">
<path id="Vector_46" d="M45.5173 140.723C47.1669 142.078 48.6891 143.68 49.8983 145.436C50.4763 146.275 51.0101 147.163 51.4939 148.061C52.0226 149.04 52.3693 150.075 52.7834 151.103C52.8148 151.181 52.957 151.183 52.9464 151.08C52.7174 148.908 51.3406 147.045 50.2386 145.237C49.6661 144.298 48.9541 143.541 48.1886 142.757C47.3978 141.949 46.5926 141.184 45.6655 140.531C45.5528 140.451 45.4092 140.635 45.5173 140.723Z" fill="#43588E"/>
</g>
<g id="Group_54">
<path id="Vector_47" d="M58.6568 138.165C57.8622 138.615 57.8363 139.871 57.8206 140.672C57.7906 142.212 58.172 143.658 57.4961 145.126C56.8857 146.451 55.9106 147.558 55.1437 148.788C54.4258 149.94 53.718 151.414 53.7342 152.8C53.7351 152.881 53.8579 152.925 53.8953 152.844C54.1843 152.214 54.2882 151.499 54.495 150.839C54.7277 150.097 55.0532 149.424 55.4738 148.771C56.2116 147.628 57.1175 146.588 57.7158 145.358C58.3465 144.063 58.2542 142.779 58.2126 141.375C58.1858 140.479 58.0963 139.041 58.8184 138.375C58.9319 138.271 58.787 138.091 58.6568 138.165Z" fill="#43588E"/>
</g>
</g>
<path id="Vector_48" d="M53.3426 152.944C50.1416 152.899 44.0449 152.864 44.0449 152.864L45.5537 164.066C45.8931 166.586 48.0441 168.467 50.5872 168.467H53.2161H53.4705H56.0994C58.6424 168.467 60.793 166.586 61.1328 164.066L62.6416 152.864C62.6407 152.864 56.5435 152.899 53.3426 152.944Z" fill="white"/>
</g>
<g id="Group_55">
<g id="Group_56">
<g id="Group_57">
<path id="Vector_49" d="M208.056 132.358L189.795 168.53L136.557 168.912L152.987 131.849L208.056 132.358Z" fill="#F6F7FA"/>
</g>
<g id="Group_58">
<path id="Vector_50" d="M101.227 168.686L101.237 165.791H135.701L151.557 131.021H206.674L208.059 132.358H154.216L137.738 168.657C137.738 168.657 101.227 168.591 101.227 168.686Z" fill="#D9DEE8"/>
</g>
<g id="Group_59">
<path id="Vector_51" d="M180.412 152.318C179.81 154.122 176.546 155.515 173.121 155.43C169.695 155.344 167.406 153.812 168.007 152.008C168.609 150.203 171.873 148.81 175.299 148.896C178.724 148.982 181.013 150.514 180.412 152.318Z" fill="#D9DEE8"/>
</g>
</g>
<g id="Group_60">
<path id="Vector_52" d="M137.736 168.889C137.704 168.889 137.671 168.882 137.64 168.868C137.524 168.815 137.473 168.679 137.526 168.562L154.064 132.128H208.057C208.184 132.128 208.287 132.231 208.287 132.359C208.287 132.486 208.184 132.59 208.057 132.59H154.362L137.945 168.753C137.907 168.838 137.823 168.889 137.736 168.889Z" fill="white"/>
</g>
</g>
<g id="Group_61">
<g id="Group_62">
<path id="Vector_53" d="M98.8211 171.428H35.4893V185.47H98.8211V171.428Z" fill="#596B9B"/>
<path id="Vector_54" d="M212.405 171.428H98.4585V185.47H212.405V171.428Z" fill="#7A89AF"/>
</g>
<path id="Vector_55" d="M98.8235 171.427H98.4615H35.4917V174.006H98.4615H98.8235H212.408V171.427H98.8235Z" fill="#BDC4D7"/>
<path id="Vector_56" d="M101.593 168.658H32.4346V172.096H101.593V168.658Z" fill="#6F7FA9"/>
<path id="Vector_57" d="M215.179 168.658H101.233V172.096H215.179V168.658Z" fill="#9CA6C3"/>
</g>
<g id="Group_63">
<path id="Vector_58" d="M82.8345 94.9844H60.4773C59.0936 94.9844 57.9722 93.8629 57.9722 92.4792V81.3182C57.9722 79.9345 59.0936 78.813 60.4773 78.813H82.8345C84.2182 78.813 85.3397 79.9345 85.3397 81.3182V92.4792C85.3397 93.8629 84.2178 94.9844 82.8345 94.9844Z" fill="white"/>
<path id="Vector_59" d="M91.7113 86.899L83.3145 83.3555V90.442L91.7113 86.899Z" fill="white"/>
<g id="Group_64">
<path id="Vector_60" d="M66.3514 88.4454C67.2056 88.4454 67.8981 87.7529 67.8981 86.8987C67.8981 86.0445 67.2056 85.3521 66.3514 85.3521C65.4972 85.3521 64.8047 86.0445 64.8047 86.8987C64.8047 87.7529 65.4972 88.4454 66.3514 88.4454Z" fill="#223A7A"/>
<path id="Vector_61" d="M71.6565 88.4454C72.5108 88.4454 73.2032 87.7529 73.2032 86.8987C73.2032 86.0445 72.5108 85.3521 71.6565 85.3521C70.8023 85.3521 70.1099 86.0445 70.1099 86.8987C70.1099 87.7529 70.8023 88.4454 71.6565 88.4454Z" fill="#223A7A"/>
<path id="Vector_62" d="M76.9583 88.4454C77.8125 88.4454 78.505 87.7529 78.505 86.8987C78.505 86.0445 77.8125 85.3521 76.9583 85.3521C76.1041 85.3521 75.4116 86.0445 75.4116 86.8987C75.4116 87.7529 76.1041 88.4454 76.9583 88.4454Z" fill="#223A7A"/>
</g>
</g>
<g id="Group_65">
<path id="Vector_63" d="M196.656 44.4771H145.042C141.727 44.4771 139.04 47.1641 139.04 50.4791V74.9652C139.04 78.2802 141.727 80.9672 145.042 80.9672H149.668C149.798 83.1871 149.48 86.4887 147.627 90.7104C153.589 87.9596 157.024 83.8293 158.817 80.9672H196.656C199.971 80.9672 202.659 78.2802 202.659 74.9652V50.4791C202.658 47.1641 199.971 44.4771 196.656 44.4771Z" fill="#60A8FF"/>
<path id="Vector_64" d="M174.636 56.1477H149.036C148.333 56.1477 147.762 55.5775 147.762 54.8739C147.762 54.1703 148.332 53.6001 149.036 53.6001H174.636C175.34 53.6001 175.91 54.1703 175.91 54.8739C175.91 55.5775 175.34 56.1477 174.636 56.1477Z" fill="white"/>
<path id="Vector_65" d="M192.993 63.5664H148.542C148.112 63.5664 147.762 63.2169 147.762 62.7861C147.762 62.3554 148.112 62.0059 148.542 62.0059H192.993C193.424 62.0059 193.773 62.3554 193.773 62.7861C193.773 63.2174 193.424 63.5664 192.993 63.5664Z" fill="#D2E6FF"/>
<path id="Vector_66" d="M192.993 67.8965H148.542C148.112 67.8965 147.762 67.5474 147.762 67.1162C147.762 66.6854 148.112 66.3359 148.542 66.3359H192.993C193.424 66.3359 193.773 66.6854 193.773 67.1162C193.773 67.5474 193.424 67.8965 192.993 67.8965Z" fill="#D2E6FF"/>
<path id="Vector_67" d="M183.297 72.5132H148.542C148.112 72.5132 147.762 72.1637 147.762 71.7329C147.762 71.3021 148.112 70.9526 148.542 70.9526H183.297C183.727 70.9526 184.077 71.3021 184.077 71.7329C184.077 72.1641 183.728 72.5132 183.297 72.5132Z" fill="#D2E6FF"/>
<path id="Vector_68" d="M192.644 56.1477H180.432C179.728 56.1477 179.158 55.5775 179.158 54.8739C179.158 54.1703 179.728 53.6001 180.432 53.6001H192.644C193.347 53.6001 193.918 54.1703 193.918 54.8739C193.917 55.5775 193.347 56.1477 192.644 56.1477Z" fill="white"/>
</g>
<g id="Group_66">
<path id="Vector_69" d="M161.87 112.458H148.003C147.493 112.458 147.08 112.045 147.08 111.535V102.062C147.08 101.552 147.493 101.139 148.003 101.139H161.87C162.38 101.139 162.793 101.552 162.793 102.062V111.535C162.793 112.044 162.38 112.458 161.87 112.458Z" fill="white"/>
<g id="Group_67">
<g id="Group_68">
<path id="Vector_70" d="M155.03 108.49C154.952 108.49 154.873 108.464 154.809 108.41L147.262 102.177C147.115 102.055 147.094 101.837 147.216 101.69C147.339 101.542 147.556 101.522 147.703 101.643L155.024 107.689L162.157 101.481C162.301 101.356 162.52 101.371 162.646 101.516C162.771 101.66 162.756 101.878 162.612 102.004L155.257 108.404C155.192 108.461 155.111 108.49 155.03 108.49Z" fill="#6F7FA9"/>
</g>
<g id="Group_69">
<path id="Vector_71" d="M147.483 112.2C147.397 112.2 147.312 112.169 147.245 112.105C147.106 111.973 147.1 111.754 147.233 111.615L152.511 106.066C152.641 105.928 152.862 105.922 153 106.054C153.139 106.186 153.145 106.405 153.012 106.544L147.734 112.093C147.666 112.164 147.575 112.2 147.483 112.2Z" fill="#6F7FA9"/>
</g>
<g id="Group_70">
<path id="Vector_72" d="M162.388 111.997C162.299 111.997 162.21 111.963 162.143 111.895L156.886 106.624C156.751 106.488 156.751 106.269 156.887 106.134C157.022 105.999 157.241 105.999 157.376 106.134L162.633 111.406C162.768 111.541 162.768 111.761 162.632 111.895C162.565 111.963 162.476 111.997 162.388 111.997Z" fill="#6F7FA9"/>
</g>
</g>
<g id="Group_71">
<g id="Group_72">
<path id="Vector_73" d="M163.511 105.421C166.069 105.421 168.143 103.347 168.143 100.788C168.143 98.2299 166.069 96.1558 163.511 96.1558C160.952 96.1558 158.878 98.2299 158.878 100.788C158.878 103.347 160.952 105.421 163.511 105.421Z" fill="#FF5F42"/>
</g>
<g id="Group_73">
<g id="Group_74">
<path id="Vector_74" d="M162.23 100.798L162.213 100.776C162.335 100.82 162.448 100.889 162.551 100.981C162.654 101.074 162.738 101.184 162.803 101.314C162.868 101.443 162.9 101.589 162.9 101.751C162.9 101.943 162.849 102.119 162.747 102.278C162.646 102.436 162.507 102.563 162.332 102.657C162.157 102.751 161.96 102.798 161.742 102.798C161.525 102.798 161.329 102.751 161.155 102.657C160.982 102.563 160.844 102.436 160.742 102.278C160.641 102.119 160.59 101.943 160.59 101.751C160.59 101.589 160.621 101.444 160.684 101.316C160.747 101.189 160.83 101.08 160.933 100.989C161.037 100.899 161.148 100.83 161.266 100.782L161.255 100.804C161.155 100.756 161.062 100.688 160.975 100.599C160.889 100.51 160.817 100.406 160.762 100.286C160.707 100.166 160.679 100.036 160.679 99.8953C160.679 99.6995 160.726 99.5241 160.82 99.3689C160.914 99.2138 161.043 99.091 161.205 99.0005C161.368 98.91 161.547 98.8647 161.743 98.8647C161.938 98.8647 162.117 98.91 162.277 99.0005C162.438 99.091 162.565 99.2138 162.66 99.3689C162.754 99.5241 162.801 99.6995 162.801 99.8953C162.801 100.036 162.774 100.165 162.721 100.283C162.667 100.401 162.596 100.505 162.51 100.593C162.422 100.682 162.33 100.75 162.23 100.798ZM161.742 102.577C162.02 102.577 162.243 102.499 162.413 102.344C162.583 102.189 162.667 101.991 162.667 101.751C162.667 101.589 162.625 101.444 162.54 101.316C162.455 101.189 162.342 101.089 162.203 101.017C162.062 100.945 161.909 100.909 161.743 100.909C161.58 100.909 161.429 100.945 161.289 101.017C161.148 101.089 161.035 101.189 160.951 101.316C160.865 101.444 160.823 101.589 160.823 101.751C160.823 101.991 160.908 102.189 161.076 102.344C161.243 102.499 161.465 102.577 161.742 102.577ZM160.911 99.8953C160.911 100.058 160.95 100.2 161.028 100.322C161.105 100.444 161.208 100.539 161.335 100.607C161.462 100.676 161.598 100.71 161.742 100.71C161.887 100.71 162.021 100.676 162.147 100.607C162.272 100.539 162.374 100.444 162.451 100.322C162.529 100.2 162.568 100.058 162.568 99.8953C162.568 99.6552 162.491 99.4603 162.338 99.3107C162.185 99.1612 161.986 99.0864 161.742 99.0864C161.495 99.0864 161.294 99.1612 161.141 99.3107C160.988 99.4603 160.911 99.6552 160.911 99.8953Z" fill="white"/>
<path id="Vector_75" d="M164.517 102.737C164.358 102.737 164.203 102.712 164.052 102.66C163.9 102.608 163.761 102.531 163.636 102.427C163.621 102.416 163.61 102.403 163.603 102.388C163.596 102.374 163.592 102.359 163.592 102.344C163.592 102.318 163.603 102.29 163.625 102.261C163.648 102.231 163.673 102.217 163.703 102.217C163.732 102.217 163.758 102.228 163.781 102.25C163.887 102.339 164.005 102.405 164.132 102.449C164.259 102.494 164.388 102.516 164.518 102.516C164.75 102.516 164.953 102.471 165.127 102.38C165.3 102.29 165.434 102.161 165.528 101.995C165.622 101.829 165.67 101.637 165.67 101.419C165.67 101.216 165.626 101.037 165.54 100.884C165.453 100.731 165.327 100.611 165.163 100.524C164.999 100.437 164.802 100.394 164.573 100.394C164.433 100.394 164.304 100.415 164.186 100.458C164.067 100.5 163.967 100.543 163.886 100.585C163.805 100.627 163.744 100.649 163.704 100.649C163.685 100.649 163.668 100.643 163.651 100.632C163.635 100.621 163.622 100.605 163.615 100.585C163.608 100.565 163.606 100.542 163.61 100.516L163.87 98.9921C163.873 98.9737 163.885 98.9533 163.906 98.9312C163.926 98.909 163.954 98.8979 163.992 98.8979H165.681C165.711 98.8979 165.737 98.909 165.759 98.9312C165.781 98.9533 165.792 98.9811 165.792 99.0143C165.792 99.0475 165.781 99.0752 165.759 99.0974C165.737 99.1196 165.711 99.1306 165.681 99.1306H164.036L164.086 99.0808L163.831 100.46L163.72 100.433C163.779 100.396 163.856 100.358 163.95 100.319C164.044 100.28 164.152 100.247 164.271 100.219C164.391 100.192 164.52 100.178 164.656 100.178C164.893 100.178 165.103 100.229 165.288 100.333C165.472 100.436 165.62 100.579 165.729 100.762C165.837 100.945 165.892 101.158 165.892 101.402C165.892 101.668 165.836 101.901 165.723 102.1C165.61 102.3 165.452 102.456 165.247 102.568C165.041 102.681 164.798 102.737 164.517 102.737Z" fill="white"/>
</g>
</g>
</g>
</g>
<g id="Group_75">
<g id="Group_76">
<path id="Vector_76" d="M210.044 99.0821H182.979C181.959 99.0821 181.132 98.2552 181.132 97.2353V93.0006C181.132 91.9807 181.959 91.1538 182.979 91.1538H210.044C211.064 91.1538 211.891 91.9807 211.891 93.0006V97.2353C211.891 98.2552 211.064 99.0821 210.044 99.0821Z" fill="#223A7A"/>
</g>
<g id="Group_77">
<path id="Vector_77" d="M184.928 97.1971C184.807 97.1971 184.709 97.1537 184.636 97.0674C184.562 96.981 184.529 96.8725 184.539 96.7428L184.656 95.7164C184.664 95.6906 184.66 95.673 184.643 95.6643C184.625 95.6555 184.604 95.6601 184.578 95.6772L183.733 96.288C183.63 96.366 183.521 96.3942 183.408 96.3725C183.296 96.3513 183.205 96.2839 183.136 96.1712C183.057 96.0327 183.043 95.9113 183.09 95.8074C183.137 95.7035 183.218 95.6301 183.33 95.5867L184.279 95.1578C184.305 95.149 184.318 95.1361 184.318 95.1185C184.318 95.1015 184.305 95.0885 184.279 95.0793L183.33 94.6504C183.209 94.5982 183.131 94.5165 183.097 94.4034C183.063 94.2907 183.075 94.1781 183.136 94.0654C183.205 93.9528 183.296 93.8858 183.409 93.8641C183.521 93.8429 183.63 93.8664 183.734 93.9357L184.578 94.5594C184.604 94.577 184.626 94.5811 184.643 94.5724C184.66 94.5636 184.665 94.5465 184.656 94.5202L184.539 93.4938C184.53 93.3641 184.565 93.2556 184.643 93.1688C184.721 93.0825 184.825 93.0391 184.955 93.0391C185.076 93.0391 185.176 93.0825 185.254 93.1688C185.332 93.2556 185.362 93.3636 185.344 93.4938L185.227 94.5202C185.219 94.546 185.223 94.5636 185.24 94.5724C185.257 94.5811 185.28 94.577 185.305 94.5594L186.15 93.9486C186.254 93.8706 186.364 93.8424 186.481 93.8641C186.598 93.8858 186.687 93.9532 186.748 94.0654C186.825 94.2044 186.841 94.3253 186.793 94.4292C186.746 94.5331 186.665 94.6065 186.553 94.6499L185.605 95.0788C185.579 95.0876 185.565 95.1005 185.565 95.1181C185.565 95.1356 185.578 95.1486 185.605 95.1573L186.553 95.5862C186.674 95.638 186.755 95.7206 186.793 95.8332C186.832 95.9459 186.817 96.0586 186.748 96.1712C186.687 96.2839 186.598 96.3513 186.481 96.3725C186.364 96.3942 186.254 96.3702 186.15 96.3014L185.305 95.6777C185.28 95.6606 185.257 95.656 185.24 95.6647C185.223 95.6735 185.219 95.6906 185.227 95.7169L185.344 96.7433C185.362 96.873 185.329 96.9815 185.247 97.0678C185.164 97.1537 185.058 97.1971 184.928 97.1971Z" fill="white"/>
</g>
<g id="Group_78">
<path id="Vector_78" d="M190.533 97.1971C190.412 97.1971 190.314 97.1537 190.241 97.0674C190.167 96.981 190.135 96.8725 190.144 96.7428L190.261 95.7164C190.269 95.6906 190.265 95.673 190.248 95.6643C190.23 95.6555 190.209 95.6601 190.183 95.6772L189.338 96.288C189.235 96.366 189.126 96.3942 189.013 96.3725C188.901 96.3513 188.81 96.2839 188.74 96.1712C188.662 96.0327 188.648 95.9113 188.695 95.8074C188.742 95.7035 188.823 95.6301 188.935 95.5867L189.884 95.1578C189.91 95.149 189.923 95.1361 189.923 95.1185C189.923 95.1015 189.91 95.0885 189.884 95.0793L188.935 94.6504C188.814 94.5982 188.736 94.5165 188.702 94.4034C188.668 94.2907 188.68 94.1781 188.741 94.0654C188.81 93.9528 188.901 93.8858 189.014 93.8641C189.126 93.8429 189.234 93.8664 189.339 93.9357L190.183 94.5594C190.209 94.577 190.231 94.5811 190.248 94.5724C190.265 94.5636 190.27 94.5465 190.261 94.5202L190.144 93.4938C190.135 93.3641 190.17 93.2556 190.248 93.1688C190.326 93.0825 190.43 93.0391 190.56 93.0391C190.681 93.0391 190.781 93.0825 190.859 93.1688C190.937 93.2556 190.967 93.3636 190.949 93.4938L190.832 94.5202C190.824 94.546 190.828 94.5636 190.845 94.5724C190.862 94.5811 190.885 94.577 190.91 94.5594L191.755 93.9486C191.858 93.8706 191.969 93.8424 192.086 93.8641C192.203 93.8858 192.292 93.9532 192.353 94.0654C192.43 94.2044 192.446 94.3253 192.398 94.4292C192.35 94.5331 192.27 94.6065 192.158 94.6499L191.21 95.0788C191.184 95.0876 191.17 95.1005 191.17 95.1181C191.17 95.1356 191.183 95.1486 191.21 95.1573L192.158 95.5862C192.279 95.638 192.36 95.7206 192.398 95.8332C192.437 95.9459 192.422 96.0586 192.353 96.1712C192.292 96.2839 192.203 96.3513 192.086 96.3725C191.969 96.3942 191.859 96.3702 191.755 96.3014L190.91 95.6777C190.885 95.6606 190.862 95.656 190.845 95.6647C190.828 95.6735 190.824 95.6906 190.832 95.7169L190.949 96.7433C190.967 96.873 190.934 96.9815 190.852 97.0678C190.769 97.1537 190.663 97.1971 190.533 97.1971Z" fill="white"/>
</g>
<g id="Group_79">
<path id="Vector_79" d="M196.127 97.1971C196.006 97.1971 195.908 97.1537 195.835 97.0674C195.761 96.981 195.728 96.8725 195.737 96.7428L195.855 95.7164C195.863 95.6906 195.859 95.673 195.842 95.6643C195.824 95.6555 195.802 95.6601 195.777 95.6772L194.932 96.288C194.828 96.366 194.72 96.3942 194.607 96.3725C194.494 96.3513 194.403 96.2839 194.334 96.1712C194.256 96.0327 194.241 95.9113 194.289 95.8074C194.336 95.7035 194.416 95.6301 194.529 95.5867L195.478 95.1578C195.504 95.149 195.517 95.1361 195.517 95.1185C195.517 95.1015 195.504 95.0885 195.478 95.0793L194.529 94.6504C194.408 94.5982 194.33 94.5165 194.295 94.4034C194.261 94.2907 194.274 94.1781 194.335 94.0654C194.404 93.9528 194.495 93.8858 194.608 93.8641C194.72 93.8429 194.828 93.8664 194.933 93.9357L195.777 94.5594C195.803 94.577 195.825 94.5811 195.842 94.5724C195.859 94.5636 195.863 94.5465 195.855 94.5202L195.738 93.4938C195.729 93.3641 195.764 93.2556 195.842 93.1688C195.92 93.0825 196.024 93.0391 196.154 93.0391C196.275 93.0391 196.374 93.0825 196.453 93.1688C196.531 93.2556 196.561 93.3636 196.543 93.4938L196.426 94.5202C196.417 94.546 196.422 94.5636 196.439 94.5724C196.456 94.5811 196.478 94.577 196.504 94.5594L197.349 93.9486C197.453 93.8706 197.563 93.8424 197.68 93.8641C197.797 93.8858 197.886 93.9532 197.947 94.0654C198.024 94.2044 198.039 94.3253 197.992 94.4292C197.944 94.5331 197.864 94.6065 197.752 94.6499L196.803 95.0788C196.778 95.0876 196.764 95.1005 196.764 95.1181C196.764 95.1356 196.777 95.1486 196.803 95.1573L197.752 95.5862C197.873 95.638 197.953 95.7206 197.992 95.8332C198.031 95.9459 198.016 96.0586 197.947 96.1712C197.886 96.2839 197.797 96.3513 197.68 96.3725C197.563 96.3942 197.453 96.3702 197.349 96.3014L196.504 95.6777C196.478 95.6606 196.456 95.656 196.439 95.6647C196.422 95.6735 196.417 95.6906 196.426 95.7169L196.543 96.7433C196.561 96.873 196.528 96.9815 196.446 97.0678C196.362 97.1537 196.257 97.1971 196.127 97.1971Z" fill="white"/>
</g>
<g id="Group_80">
<path id="Vector_80" d="M201.726 97.1971C201.605 97.1971 201.507 97.1537 201.434 97.0674C201.36 96.981 201.328 96.8725 201.336 96.7428L201.454 95.7164C201.462 95.6906 201.458 95.673 201.441 95.6643C201.423 95.6555 201.402 95.6601 201.376 95.6772L200.531 96.288C200.427 96.366 200.319 96.3942 200.206 96.3725C200.094 96.3513 200.003 96.2839 199.933 96.1712C199.855 96.0327 199.841 95.9113 199.888 95.8074C199.935 95.7035 200.016 95.6301 200.128 95.5867L201.077 95.1578C201.103 95.149 201.116 95.1361 201.116 95.1185C201.116 95.1015 201.103 95.0885 201.077 95.0793L200.128 94.6504C200.007 94.5982 199.929 94.5165 199.895 94.4034C199.86 94.2907 199.873 94.1781 199.934 94.0654C200.003 93.9528 200.094 93.8858 200.207 93.8641C200.319 93.8429 200.427 93.8664 200.532 93.9357L201.376 94.5594C201.402 94.577 201.424 94.5811 201.441 94.5724C201.458 94.5636 201.462 94.5465 201.454 94.5202L201.337 93.4938C201.328 93.3641 201.363 93.2556 201.441 93.1688C201.519 93.0825 201.623 93.0391 201.753 93.0391C201.874 93.0391 201.974 93.0825 202.052 93.1688C202.13 93.2556 202.16 93.3636 202.142 93.4938L202.025 94.5202C202.017 94.546 202.021 94.5636 202.038 94.5724C202.055 94.5811 202.077 94.577 202.103 94.5594L202.948 93.9486C203.051 93.8706 203.162 93.8424 203.279 93.8641C203.396 93.8858 203.485 93.9532 203.546 94.0654C203.623 94.2044 203.638 94.3253 203.591 94.4292C203.543 94.5331 203.463 94.6065 203.351 94.6499L202.403 95.0788C202.377 95.0876 202.363 95.1005 202.363 95.1181C202.363 95.1356 202.376 95.1486 202.403 95.1573L203.351 95.5862C203.472 95.638 203.553 95.7206 203.591 95.8332C203.63 95.9459 203.615 96.0586 203.546 96.1712C203.485 96.2839 203.396 96.3513 203.279 96.3725C203.162 96.3942 203.052 96.3702 202.948 96.3014L202.103 95.6777C202.077 95.6606 202.055 95.656 202.038 95.6647C202.021 95.6735 202.017 95.6906 202.025 95.7169L202.142 96.7433C202.16 96.873 202.127 96.9815 202.045 97.0678C201.962 97.1537 201.856 97.1971 201.726 97.1971Z" fill="white"/>
</g>
<g id="Group_81">
<path id="Vector_81" d="M207.325 97.1971C207.203 97.1971 207.106 97.1537 207.033 97.0674C206.959 96.981 206.926 96.8725 206.935 96.7428L207.052 95.7164C207.061 95.6906 207.057 95.673 207.039 95.6643C207.022 95.6555 207 95.6601 206.974 95.6772L206.13 96.288C206.026 96.366 205.918 96.3942 205.805 96.3725C205.692 96.3513 205.601 96.2839 205.532 96.1712C205.454 96.0327 205.439 95.9113 205.486 95.8074C205.534 95.7035 205.614 95.6301 205.727 95.5867L206.676 95.1578C206.701 95.149 206.715 95.1361 206.715 95.1185C206.715 95.1015 206.702 95.0885 206.676 95.0793L205.727 94.6504C205.605 94.5982 205.527 94.5165 205.493 94.4034C205.459 94.2907 205.472 94.1781 205.532 94.0654C205.602 93.9528 205.693 93.8858 205.805 93.8641C205.918 93.8429 206.026 93.8664 206.13 93.9357L206.975 94.5594C207.001 94.577 207.022 94.5811 207.04 94.5724C207.057 94.5636 207.061 94.5465 207.053 94.5202L206.936 93.4938C206.927 93.3641 206.961 93.2556 207.04 93.1688C207.118 93.0825 207.222 93.0391 207.352 93.0391C207.473 93.0391 207.572 93.0825 207.65 93.1688C207.728 93.2556 207.759 93.3636 207.741 93.4938L207.624 94.5202C207.615 94.546 207.619 94.5636 207.637 94.5724C207.654 94.5811 207.676 94.577 207.702 94.5594L208.546 93.9486C208.65 93.8706 208.761 93.8424 208.878 93.8641C208.995 93.8858 209.083 93.9532 209.144 94.0654C209.222 94.2044 209.237 94.3253 209.19 94.4292C209.142 94.5331 209.062 94.6065 208.949 94.6499L208.001 95.0788C207.975 95.0876 207.961 95.1005 207.961 95.1181C207.961 95.1356 207.974 95.1486 208.001 95.1573L208.949 95.5862C209.07 95.638 209.151 95.7206 209.19 95.8332C209.229 95.9459 209.214 96.0586 209.144 96.1712C209.083 96.2839 208.995 96.3513 208.878 96.3725C208.761 96.3942 208.65 96.3702 208.546 96.3014L207.702 95.6777C207.676 95.6606 207.654 95.656 207.637 95.6647C207.619 95.6735 207.615 95.6906 207.624 95.7169L207.741 96.7433C207.758 96.873 207.726 96.9815 207.644 97.0678C207.561 97.1537 207.454 97.1971 207.325 97.1971Z" fill="#67ACFF"/>
</g>
</g>
</g>
</g>
</svg>
