<svg width="24" height="26" viewBox="0 0 24 26" fill="none" xmlns="http://www.w3.org/2000/svg">
<g id="mdi:category-outline">
<path id="Vector" d="M11.1538 15.0537V23.4857H3.34717V15.0537H11.1538ZM9.20217 17.1617H5.29884V21.3777H9.20217V17.1617ZM12.1297 2.93262L17.4968 12.4187H6.76259L12.1297 2.93262ZM12.1297 7.00108L10.2561 10.3107H14.0033L12.1297 7.00108ZM17.4968 14.5267C19.9363 14.5267 21.888 16.6347 21.888 19.2697C21.888 21.9047 19.9363 24.0127 17.4968 24.0127C15.0572 24.0127 13.1055 21.9047 13.1055 19.2697C13.1055 16.6347 15.0572 14.5267 17.4968 14.5267ZM17.4968 16.6347C16.8497 16.6347 16.2292 16.9123 15.7717 17.4065C15.3142 17.9006 15.0572 18.5708 15.0572 19.2697C15.0572 19.9685 15.3142 20.6388 15.7717 21.1329C16.2292 21.6271 16.8497 21.9047 17.4968 21.9047C18.1438 21.9047 18.7643 21.6271 19.2218 21.1329C19.6793 20.6388 19.9363 19.9685 19.9363 19.2697C19.9363 18.5708 19.6793 17.9006 19.2218 17.4065C18.7643 16.9123 18.1438 16.6347 17.4968 16.6347Z" fill="#4C4C61"/>
</g>
</svg>
