<svg xmlns="http://www.w3.org/2000/svg" width="36" height="36" viewBox="0 0 36 36" fill="none">
  <path d="M18.6055 16.9065C17.495 16.8948 16.4127 16.5549 15.495 15.9294C14.5773 15.3039 13.8651 14.4209 13.4482 13.3915C13.0313 12.3621 12.9283 11.2324 13.1521 10.1446C13.3759 9.05676 13.9165 8.05948 14.7059 7.27829C15.4954 6.4971 16.4983 5.96693 17.5883 5.75453C18.6784 5.54212 19.807 5.65698 20.832 6.08465C21.8569 6.51231 22.7324 7.23366 23.3483 8.15787C23.9641 9.08208 24.2928 10.1678 24.2928 11.2784C24.2824 12.7781 23.678 14.2126 22.6119 15.2675C21.5459 16.3224 20.1052 16.9118 18.6055 16.9065ZM18.6055 7.6251C17.8856 7.63678 17.1851 7.86092 16.5922 8.26939C15.9993 8.67785 15.5402 9.25242 15.2728 9.92093C15.0053 10.5894 14.9414 11.3221 15.089 12.0268C15.2366 12.7315 15.5891 13.3769 16.1023 13.8819C16.6155 14.387 17.2665 14.7291 17.9735 14.8653C18.6805 15.0015 19.412 14.9258 20.0761 14.6476C20.7403 14.3695 21.3074 13.9013 21.7062 13.3018C22.1051 12.7024 22.318 11.9985 22.3181 11.2784C22.3076 10.3025 21.9113 9.37031 21.2156 8.68573C20.5199 8.00115 19.5815 7.61983 18.6055 7.6251Z" fill="#4C4C61"/>
  <path d="M18.6048 16.9065C17.4942 16.8949 16.412 16.5549 15.4943 15.9294C14.5766 15.3039 13.8644 14.4209 13.4475 13.3915C13.0306 12.3621 12.9276 11.2324 13.1514 10.1446C13.3752 9.05676 13.9158 8.05948 14.7052 7.27829C15.4946 6.4971 16.4975 5.96693 17.5876 5.75453C18.6777 5.54212 19.8063 5.65698 20.8313 6.08465C21.8562 6.51231 22.7317 7.23366 23.3476 8.15787C23.9634 9.08208 24.2921 10.1678 24.2921 11.2784C24.2817 12.7781 23.6772 14.2126 22.6112 15.2675C21.5452 16.3224 20.1045 16.9118 18.6048 16.9065ZM18.6048 7.6251C17.8849 7.63678 17.1844 7.86092 16.5915 8.26939C15.9985 8.67785 15.5395 9.25242 15.2721 9.92093C15.0046 10.5894 14.9407 11.3221 15.0883 12.0268C15.2358 12.7315 15.5884 13.3769 16.1016 13.8819C16.6148 14.387 17.2658 14.7291 17.9728 14.8653C18.6798 15.0015 19.4113 14.9258 20.0754 14.6476C20.7395 14.3695 21.3067 13.9013 21.7055 13.3018C22.1044 12.7024 22.3173 11.9985 22.3174 11.2784C22.3069 10.3025 21.9106 9.37031 21.2149 8.68573C20.5192 8.00115 19.5808 7.61983 18.6048 7.6251ZM22.0508 18.2296C17.6712 17.4676 13.1627 18.1612 9.21472 20.2044C8.93448 20.36 8.70242 20.5897 8.54395 20.8683C8.38547 21.147 8.30669 21.4638 8.3162 21.7842V25.2993C8.3162 25.5612 8.42023 25.8124 8.6054 25.9975C8.79057 26.1827 9.04172 26.2867 9.30359 26.2867C9.56546 26.2867 9.8166 26.1827 10.0018 25.9975C10.1869 25.8124 10.291 25.5612 10.291 25.2993V21.9126C13.9519 20.0757 18.115 19.4929 22.1396 20.2538L22.0508 18.2296Z" fill="#4C4C61"/>
  <path d="M15.3771 18.1804C19.7566 17.4183 24.9135 18.1618 28.8614 20.205C29.1417 20.3606 29.3737 20.5903 29.5322 20.869C29.6907 21.1476 29.7695 21.4644 29.76 21.7849V25.3C29.76 25.5618 29.6559 25.813 29.4708 25.9981C29.2856 26.1833 29.0345 26.2873 28.7726 26.2873C28.5107 26.2873 28.2596 26.1833 28.0744 25.9981C27.8892 25.813 27.7852 25.5618 27.7852 25.3V21.9132C24.1243 20.0763 19.3128 19.4436 15.2882 20.2045L15.3771 18.1804Z" fill="#4C4C61"/>
  <path d="M21.9522 27.8764H27.8371V29.2588H21.9522V27.8764ZM11.1206 12.8879C8.38696 12.9336 5.70072 13.6094 3.27086 14.8626C3.0066 15.0022 2.78525 15.211 2.63046 15.4667C2.47567 15.7223 2.39328 16.0152 2.39209 16.3141V19.375C2.39209 19.6369 2.49612 19.888 2.68129 20.0732C2.86646 20.2584 3.11761 20.3624 3.37948 20.3624C3.64135 20.3624 3.89249 20.2584 4.07767 20.0732C4.26284 19.888 4.36686 19.6369 4.36686 19.375V16.5116C6.68851 15.356 9.25894 14.7897 11.8513 14.8626C11.5121 14.2438 11.2659 13.5784 11.1206 12.8879ZM33.1097 14.8528C30.9304 13.7096 28.5353 13.0368 26.0795 12.878C25.9349 13.5673 25.6922 14.2324 25.3587 14.8528C27.6722 14.9081 29.9449 15.4746 32.0137 16.5116V19.375C32.0137 19.6369 32.1177 19.888 32.3029 20.0732C32.4881 20.2584 32.7392 20.3624 33.0011 20.3624C33.263 20.3624 33.5141 20.2584 33.6993 20.0732C33.8845 19.888 33.9885 19.6369 33.9885 19.375V16.3141C33.9891 16.0136 33.9075 15.7186 33.7527 15.461C33.5978 15.2035 33.3755 14.9931 33.1097 14.8528ZM10.9429 11.2784V10.6169C10.1694 10.5134 9.46558 10.1155 8.97803 9.50616C8.49048 8.89681 8.25673 8.12289 8.32544 7.34552C8.39414 6.56816 8.76 5.84723 9.34687 5.33283C9.93374 4.81843 10.6964 4.55019 11.4761 4.58395C12.287 4.58248 13.0665 4.8978 13.6483 5.46272C14.1616 5.03931 14.7255 4.68112 15.3269 4.39634C14.6551 3.62386 13.7649 3.07308 12.7739 2.81659C11.7828 2.5601 10.7372 2.60994 9.77502 2.95953C8.81283 3.30913 7.97914 3.94208 7.38386 4.77496C6.78857 5.60783 6.45963 6.60154 6.44038 7.6251C6.4611 8.87785 6.94809 10.0779 7.80623 10.9908C8.66437 11.9037 9.83202 12.4639 11.0811 12.562C10.9973 12.1391 10.9511 11.7095 10.9429 11.2784ZM24.8749 2.60917C24.1964 2.60932 23.5247 2.74474 22.8991 3.00753C22.2735 3.27031 21.7066 3.65517 21.2314 4.13962C21.899 4.3815 22.5302 4.71372 23.1075 5.12701C23.5684 4.80702 24.1076 4.61814 24.6675 4.5805C25.2273 4.54285 25.7869 4.65786 26.2866 4.91326C26.7862 5.16866 27.2072 5.55487 27.5046 6.03071C27.802 6.50655 27.9647 7.05419 27.9753 7.61522C27.9691 8.1915 27.7998 8.75423 27.487 9.23827C27.1742 9.72231 26.7307 10.1079 26.2079 10.3503C26.2476 10.6548 26.2674 10.9615 26.2671 11.2686C26.2645 11.6655 26.2315 12.0616 26.1684 12.4534C27.244 12.1769 28.1981 11.5525 28.882 10.6775C29.566 9.80243 29.9415 8.72582 29.9501 7.61522C29.937 6.27959 29.396 5.00339 28.445 4.06541C27.4941 3.12742 26.2106 2.60389 24.8749 2.60917Z" fill="#4C4C61"/>
</svg>