<svg width="15" height="15" viewBox="0 0 15 15" fill="none" xmlns="http://www.w3.org/2000/svg">
<g id="ic:round-add">
<path id="Vector" d="M11.4329 8.4893H8.51628V11.406C8.51628 11.7268 8.25378 11.9893 7.93294 11.9893C7.61211 11.9893 7.34961 11.7268 7.34961 11.406V8.4893H4.43294C4.11211 8.4893 3.84961 8.2268 3.84961 7.90596C3.84961 7.58513 4.11211 7.32263 4.43294 7.32263H7.34961V4.40597C7.34961 4.08513 7.61211 3.82263 7.93294 3.82263C8.25378 3.82263 8.51628 4.08513 8.51628 4.40597V7.32263H11.4329C11.7538 7.32263 12.0163 7.58513 12.0163 7.90596C12.0163 8.2268 11.7538 8.4893 11.4329 8.4893Z" fill="#4C4C61"/>
</g>
</svg>
