<svg width="11" height="10" viewBox="0 0 11 10" fill="none" xmlns="http://www.w3.org/2000/svg">
<path d="M9.49778 5.62769H6.1648V8.96067C6.1648 9.3273 5.86483 9.62726 5.4982 9.62726C5.13157 9.62726 4.83161 9.3273 4.83161 8.96067V5.62769H1.49863C1.132 5.62769 0.832031 5.32772 0.832031 4.96109C0.832031 4.59447 1.132 4.2945 1.49863 4.2945H4.83161V0.961518C4.83161 0.59489 5.13157 0.294922 5.4982 0.294922C5.86483 0.294922 6.1648 0.59489 6.1648 0.961518V4.2945H9.49778C9.86441 4.2945 10.1644 4.59447 10.1644 4.96109C10.1644 5.32772 9.86441 5.62769 9.49778 5.62769Z" fill="white"/>
</svg>
