<svg width="37" height="37" viewBox="0 0 37 37" fill="none" xmlns="http://www.w3.org/2000/svg">
<path d="M25.2711 27.2836C22.8511 30.4408 19.1217 32.4669 14.9436 32.4669C7.64602 32.4669 1.73047 26.3367 1.73047 18.7874C1.73047 11.2396 7.64602 5.10791 14.9436 5.10791C22.2234 5.10791 28.1397 11.2396 28.1397 18.7874C28.1397 20.6713 27.7636 22.4643 27.0997 24.1136L25.2711 27.2836ZM14.7118 8.02761C13.1862 8.02761 11.9499 9.26602 11.9499 10.791C11.9499 12.3145 13.1863 13.5528 14.7118 13.5528C16.236 13.5528 17.4709 12.3144 17.4709 10.791C17.4709 9.26602 16.2354 8.02761 14.7118 8.02761ZM21.5402 11.7407C20.0195 11.7407 18.7804 12.9777 18.7804 14.5041C18.7804 16.0276 20.0202 17.2632 21.5402 17.2632C23.0658 17.2632 24.305 16.0276 24.305 14.5041C24.3043 12.9777 23.0658 11.7407 21.5402 11.7407ZM21.6667 19.6305C20.1447 19.6305 18.9084 20.8675 18.9084 22.3924C18.9084 23.9173 20.1454 25.1544 21.6667 25.1544C23.1917 25.1544 24.4301 23.9174 24.4301 22.3924C24.4301 20.8674 23.1909 19.6304 21.6667 19.6304V19.6305ZM15.1234 24.0233C13.5978 24.0233 12.3616 25.2602 12.3616 26.7838C12.3616 28.3087 13.5971 29.5443 15.1234 29.5443C16.6462 29.5443 17.8846 28.3087 17.8846 26.7838C17.8846 25.261 16.6462 24.0233 15.1234 24.0233ZM8.56098 20.3664C7.03605 20.3664 5.79763 21.6019 5.79763 23.1269C5.79763 24.6518 7.03605 25.8888 8.56098 25.8888C10.0859 25.8888 11.3215 24.6518 11.3215 23.1268C11.3215 21.6018 10.0859 20.3663 8.56098 20.3663V20.3664ZM8.20122 12.3514C6.67913 12.3514 5.44148 13.5855 5.44148 15.1119C5.44148 16.634 6.6792 17.8724 8.20122 17.8724C9.72685 17.8724 10.9624 16.634 10.9624 15.1119C10.9617 13.5863 9.72608 12.3514 8.20122 12.3514ZM15.127 17.731C14.5703 17.731 14.1182 18.1959 14.1182 18.7334C14.1182 19.29 14.5703 19.7372 15.127 19.7372C15.6651 19.7372 16.1137 19.29 16.1137 18.7334C16.113 18.1959 15.6651 17.731 15.127 17.731ZM14.9436 6.53968C8.41804 6.53968 3.1103 12.0287 3.1103 18.7881C3.1103 25.5489 8.41804 31.0351 14.9436 31.0351C21.4705 31.0351 26.7597 25.549 26.7597 18.7881C26.7597 12.028 21.4705 6.53968 14.9436 6.53968Z" fill="#4C4C61"/>
<path d="M27.2206 25.0161C27.2206 25.0161 28.7455 28.3737 32.1735 25.7434C30.9514 27.8847 30.0798 28.8288 28.5443 31.5545C25.2478 32.6834 24.1537 30.4966 24.0513 29.3414C25.8363 28.2708 27.2206 25.0162 27.2206 25.0162V25.0161Z" fill="#4C4C61"/>
<path d="M29.2578 31.3162C29.2578 31.3162 32.2373 31.3873 31.8349 33.5364L35.531 27.827C35.531 27.827 35.1947 24.3975 32.6404 25.9459L29.2578 31.3162Z" fill="#4C4C61"/>
<path d="M26.9917 25.5591C27.2207 25.0159 29.7422 21.0689 28.1342 14.6465C28.1342 14.6465 31.4136 18.8438 29.5838 27.0804C29.3548 27.0065 28.5913 28.9885 28.2857 28.7617C27.98 28.532 26.9918 25.559 26.9918 25.559L26.9917 25.5591Z" fill="#4C4C61"/>
</svg>
