<svg width="37" height="37" viewBox="0 0 37 37" fill="none" xmlns="http://www.w3.org/2000/svg">
<g clip-path="url(#clip0_1065_5888)">
<mask id="mask0_1065_5888" style="mask-type:luminance" maskUnits="userSpaceOnUse" x="0" y="1" width="37" height="37">
<path d="M0.85791 1.70503H36.4039V37.251H0.85791V1.70503Z" fill="white"/>
</mask>
<g mask="url(#mask0_1065_5888)">
<path d="M33.9735 7.95371V4.82955C33.9735 3.6793 33.041 2.74678 31.8908 2.74678H18.0056C16.8554 2.74678 15.9229 3.6793 15.9229 4.82955V15.2434C15.9229 16.3936 16.8554 17.3262 18.0056 17.3262H31.8908C33.041 17.3262 33.9735 16.3936 33.9735 15.2434V12.1192" stroke="#4C4C61" stroke-width="2.539" stroke-miterlimit="10" stroke-linecap="round" stroke-linejoin="round"/>
<path d="M35.3622 7.9536H31.8909C30.7406 7.9536 29.8081 8.88613 29.8081 10.0364C29.8081 11.1866 30.7406 12.1191 31.8909 12.1191H35.3622V7.9536Z" stroke="#4C4C61" stroke-width="2.539" stroke-miterlimit="10" stroke-linecap="round" stroke-linejoin="round"/>
<path d="M19.9501 26.8375V23.7133C19.9501 22.5631 19.0176 21.6306 17.8673 21.6306H3.98218C2.83194 21.6306 1.89941 22.5631 1.89941 23.7133V34.1272C1.89941 35.2774 2.83194 36.21 3.98218 36.21H17.8673C19.0176 36.21 19.9501 35.2774 19.9501 34.1272V31.003" stroke="#4C4C61" stroke-width="2.539" stroke-miterlimit="10" stroke-linecap="round" stroke-linejoin="round"/>
<path d="M21.3387 26.8374H17.8674C16.7172 26.8374 15.7847 27.7699 15.7847 28.9202C15.7847 30.0704 16.7172 31.0029 17.8674 31.0029H21.3387V26.8374Z" stroke="#4C4C61" stroke-width="2.539" stroke-miterlimit="10" stroke-linecap="round" stroke-linejoin="round"/>
<path d="M25.5732 28.9204H29.7388V21.9778" stroke="#4C4C61" stroke-width="2.539" stroke-miterlimit="10" stroke-linecap="round" stroke-linejoin="round"/>
<path d="M11.6885 10.0364H7.52295V16.979" stroke="#4C4C61" stroke-width="2.539" stroke-miterlimit="10" stroke-linecap="round" stroke-linejoin="round"/>
</g>
</g>
<defs>
<clipPath id="clip0_1065_5888">
<rect width="35.5459" height="35.5459" fill="white" transform="translate(0.85791 0.830566)"/>
</clipPath>
</defs>
</svg>
