<svg width="23" height="22" viewBox="0 0 23 22" fill="none" xmlns="http://www.w3.org/2000/svg">
<g clip-path="url(#clip0_2117_13302)">
<path d="M19 11.9271V8.8772C19 8.47275 18.8393 8.08487 18.5533 7.79889C18.2673 7.5129 17.8794 7.35223 17.475 7.35223H2.98785C2.58341 7.35223 2.19553 7.5129 1.90954 7.79889C1.62356 8.08487 1.46289 8.47275 1.46289 8.8772V19.5519C1.46289 19.9564 1.62356 20.3443 1.90954 20.6302C2.19553 20.9162 2.58341 21.0769 2.98785 21.0769H17.475C17.8794 21.0769 18.2673 20.9162 18.5533 20.6302C18.8393 20.3443 19 19.9564 19 19.5519V15.7395M6.55626 3.53983L15.2028 1.28289C15.3 1.25551 15.4017 1.2481 15.5018 1.26112C15.6019 1.27413 15.6983 1.30729 15.7852 1.35859C15.8722 1.4099 15.9478 1.47829 16.0076 1.55963C16.0673 1.64097 16.11 1.73358 16.133 1.83187L16.56 3.53983" stroke="black" stroke-width="0.846529" stroke-linecap="round" stroke-linejoin="round"/>
<path d="M20.5241 11.9268H16.7117C16.2906 11.9268 15.9492 12.2681 15.9492 12.6892V14.9767C15.9492 15.3978 16.2906 15.7392 16.7117 15.7392H20.5241C20.9452 15.7392 21.2866 15.3978 21.2866 14.9767V12.6892C21.2866 12.2681 20.9452 11.9268 20.5241 11.9268Z" stroke="black" stroke-width="0.846529" stroke-linecap="round" stroke-linejoin="round"/>
</g>
<defs>
<clipPath id="clip0_2117_13302">
<rect width="21.3495" height="21.3495" fill="white" transform="translate(0.697266 0.491211)"/>
</clipPath>
</defs>
</svg>
