<svg width="26" height="27" viewBox="0 0 26 27" fill="none" xmlns="http://www.w3.org/2000/svg">
<g id="fluent-emoji-high-contrast:money-bag">
<g id="Group">
<path id="Vector" d="M12.9922 16.1149H13.0474C14.2295 16.1464 15.1753 17.1079 15.1753 18.2901C15.1753 19.2989 14.4896 20.1422 13.5596 20.3944V21.2771C13.5596 21.5923 13.3074 21.8445 12.9922 21.8445C12.6769 21.8445 12.4247 21.5923 12.4247 21.2771V20.3944C11.9617 20.2699 11.5525 19.9963 11.2604 19.6159C10.9684 19.2356 10.8098 18.7696 10.8091 18.2901C10.8091 17.9748 11.0613 17.7226 11.3765 17.7226C11.6918 17.7226 11.944 17.9748 11.944 18.2901C11.944 18.8733 12.409 19.3383 12.9843 19.3383C13.5596 19.3383 14.0325 18.8654 14.0325 18.2901C14.0325 17.7148 13.5596 17.2419 12.9843 17.2419H12.9291C12.3622 17.2265 11.8235 16.9907 11.4277 16.5845C11.0318 16.1783 10.8099 15.6338 10.8091 15.0667C10.8091 14.0579 11.4948 13.2146 12.4247 12.9624V12.0797C12.4247 11.7644 12.6769 11.5122 12.9922 11.5122C13.3074 11.5122 13.5596 11.7644 13.5596 12.0797V12.9624C14.4896 13.2146 15.1753 14.0579 15.1753 15.0667C15.1753 15.3819 14.9231 15.6341 14.6078 15.6341C14.2926 15.6341 14.0404 15.3819 14.0404 15.0667C14.0404 14.4913 13.5675 14.0184 12.9922 14.0184C12.4169 14.0184 11.944 14.4913 11.944 15.0667C11.944 15.642 12.4169 16.1149 12.9922 16.1149Z" fill="#030229"/>
<path id="Vector_2" d="M8.80872 4.88783L11.0044 7.45712L10.7672 7.72193C6.2481 8.73546 2.87256 12.7714 2.87256 17.5963C2.87256 21.838 6.31509 25.2806 10.5568 25.2806H15.4195C19.6612 25.2806 23.1037 21.8388 23.1037 17.5971C23.1116 12.7714 19.7361 8.73546 15.217 7.72193C15.2353 7.55539 15.2052 7.38708 15.1303 7.23723L16.9981 5.09905L17.1187 4.91305C17.2595 4.60594 17.2955 4.26108 17.2212 3.9315C17.1469 3.60193 16.9664 3.30589 16.7074 3.08892C16.4485 2.87194 16.1254 2.74605 15.7879 2.73061C15.4504 2.71516 15.1172 2.81102 14.8394 3.00343L14.1751 2.2153C14.026 2.04852 13.8435 1.91501 13.6394 1.82348C13.4353 1.73195 13.2143 1.68446 12.9906 1.68408C12.7669 1.68371 12.5457 1.73048 12.3413 1.82133C12.1369 1.91218 11.954 2.04508 11.8044 2.21136L11.1085 2.98845C10.8315 2.79204 10.4975 2.69236 10.1582 2.70484C9.81883 2.71733 9.49307 2.84127 9.23126 3.0575C8.96945 3.27373 8.78618 3.5702 8.7098 3.90106C8.63342 4.23191 8.66818 4.57872 8.80872 4.88783ZM11.8028 5.97939L10.4661 4.43466C10.7767 4.58429 11.128 4.62678 11.4653 4.55548C11.8026 4.48418 12.1067 4.30311 12.3301 4.0406L12.9606 3.22253L13.6604 4.05163C13.8786 4.30539 14.173 4.48185 14.4996 4.55471C14.8263 4.62756 15.1677 4.59292 15.4731 4.45594L14.1427 5.97939H11.8028ZM4.44881 17.5963C4.44881 12.8771 8.27279 9.05307 12.9921 9.05307C17.7114 9.05307 21.5354 12.8771 21.5275 17.5948V17.5963C21.5268 19.2161 20.8831 20.7693 19.7378 21.9146C18.5925 23.06 17.0393 23.7037 15.4195 23.7043H10.5568C8.93704 23.7037 7.38381 23.06 6.23848 21.9146C5.09315 20.7693 4.44944 19.2161 4.44881 17.5963Z" fill="#030229"/>
</g>
</g>
</svg>
