<svg width="26" height="26" viewBox="0 0 26 26" fill="none" xmlns="http://www.w3.org/2000/svg">
<g id="calendar_month">
<mask id="mask0_2343_3702" style="mask-type:alpha" maskUnits="userSpaceOnUse" x="0" y="0" width="26" height="26">
<rect id="Bounding box" x="0.623535" y="0.174316" width="25.2162" height="25.2162" fill="#D9D9D9"/>
</mask>
<g mask="url(#mask0_2343_3702)">
<path id="calendar_month_2" d="M5.87722 23.2893C5.29935 23.2893 4.80466 23.0836 4.39315 22.6721C3.98164 22.2606 3.77588 21.7659 3.77588 21.188V6.47857C3.77588 5.9007 3.98164 5.40601 4.39315 4.9945C4.80466 4.58298 5.29935 4.37722 5.87722 4.37722H6.9279V2.27588H9.02924V4.37722H17.4346V2.27588H19.536V4.37722H20.5866C21.1645 4.37722 21.6592 4.58298 22.0707 4.9945C22.4822 5.40601 22.688 5.9007 22.688 6.47857V21.188C22.688 21.7659 22.4822 22.2606 22.0707 22.6721C21.6592 23.0836 21.1645 23.2893 20.5866 23.2893H5.87722ZM5.87722 21.188H20.5866V10.6813H5.87722V21.188ZM5.87722 8.57992H20.5866V6.47857H5.87722V8.57992ZM13.2319 14.884C12.9342 14.884 12.6847 14.7833 12.4833 14.5819C12.282 14.3805 12.1813 14.131 12.1813 13.8333C12.1813 13.5356 12.282 13.2861 12.4833 13.0847C12.6847 12.8833 12.9342 12.7826 13.2319 12.7826C13.5296 12.7826 13.7792 12.8833 13.9805 13.0847C14.1819 13.2861 14.2826 13.5356 14.2826 13.8333C14.2826 14.131 14.1819 14.3805 13.9805 14.5819C13.7792 14.7833 13.5296 14.884 13.2319 14.884ZM9.02924 14.884C8.73155 14.884 8.48202 14.7833 8.28064 14.5819C8.07926 14.3805 7.97857 14.131 7.97857 13.8333C7.97857 13.5356 8.07926 13.2861 8.28064 13.0847C8.48202 12.8833 8.73155 12.7826 9.02924 12.7826C9.32693 12.7826 9.57647 12.8833 9.77785 13.0847C9.97923 13.2861 10.0799 13.5356 10.0799 13.8333C10.0799 14.131 9.97923 14.3805 9.77785 14.5819C9.57647 14.7833 9.32693 14.884 9.02924 14.884ZM17.4346 14.884C17.1369 14.884 16.8874 14.7833 16.686 14.5819C16.4846 14.3805 16.384 14.131 16.384 13.8333C16.384 13.5356 16.4846 13.2861 16.686 13.0847C16.8874 12.8833 17.1369 12.7826 17.4346 12.7826C17.7323 12.7826 17.9819 12.8833 18.1832 13.0847C18.3846 13.2861 18.4853 13.5356 18.4853 13.8333C18.4853 14.131 18.3846 14.3805 18.1832 14.5819C17.9819 14.7833 17.7323 14.884 17.4346 14.884ZM13.2319 19.0866C12.9342 19.0866 12.6847 18.986 12.4833 18.7846C12.282 18.5832 12.1813 18.3337 12.1813 18.036C12.1813 17.7383 12.282 17.4887 12.4833 17.2874C12.6847 17.086 12.9342 16.9853 13.2319 16.9853C13.5296 16.9853 13.7792 17.086 13.9805 17.2874C14.1819 17.4887 14.2826 17.7383 14.2826 18.036C14.2826 18.3337 14.1819 18.5832 13.9805 18.7846C13.7792 18.986 13.5296 19.0866 13.2319 19.0866ZM9.02924 19.0866C8.73155 19.0866 8.48202 18.986 8.28064 18.7846C8.07926 18.5832 7.97857 18.3337 7.97857 18.036C7.97857 17.7383 8.07926 17.4887 8.28064 17.2874C8.48202 17.086 8.73155 16.9853 9.02924 16.9853C9.32693 16.9853 9.57647 17.086 9.77785 17.2874C9.97923 17.4887 10.0799 17.7383 10.0799 18.036C10.0799 18.3337 9.97923 18.5832 9.77785 18.7846C9.57647 18.986 9.32693 19.0866 9.02924 19.0866ZM17.4346 19.0866C17.1369 19.0866 16.8874 18.986 16.686 18.7846C16.4846 18.5832 16.384 18.3337 16.384 18.036C16.384 17.7383 16.4846 17.4887 16.686 17.2874C16.8874 17.086 17.1369 16.9853 17.4346 16.9853C17.7323 16.9853 17.9819 17.086 18.1832 17.2874C18.3846 17.4887 18.4853 17.7383 18.4853 18.036C18.4853 18.3337 18.3846 18.5832 18.1832 18.7846C17.9819 18.986 17.7323 19.0866 17.4346 19.0866Z" fill="#4C4C61"/>
</g>
</g>
</svg>
