<svg width="29" height="29" viewBox="0 0 29 29" fill="none" xmlns="http://www.w3.org/2000/svg">
<g id="carbon:document-view">
<path id="Vector" d="M19.968 23.4228C20.94 23.4228 21.728 22.6348 21.728 21.6628C21.728 20.6908 20.94 19.9028 19.968 19.9028C18.996 19.9028 18.208 20.6908 18.208 21.6628C18.208 22.6348 18.996 23.4228 19.968 23.4228Z" fill="black"/>
<path id="Vector_2" d="M26.8119 21.204C26.2681 19.8188 25.3299 18.6236 24.1134 17.7666C22.8968 16.9095 21.4556 16.4283 19.9682 16.3826C18.4808 16.4283 17.0395 16.9095 15.823 17.7666C14.6065 18.6236 13.6682 19.8188 13.1245 21.204L12.9282 21.6625L13.1245 22.121C13.6682 23.5062 14.6065 24.7014 15.823 25.5585C17.0395 26.4155 18.4808 26.8967 19.9682 26.9425C21.4556 26.8967 22.8968 26.4155 24.1134 25.5585C25.3299 24.7014 26.2681 23.5062 26.8119 22.121L27.0081 21.6625L26.8119 21.204ZM19.9682 25.1825C19.272 25.1825 18.5914 24.9761 18.0126 24.5893C17.4337 24.2025 16.9826 23.6528 16.7161 23.0096C16.4497 22.3664 16.38 21.6586 16.5158 20.9758C16.6516 20.293 16.9869 19.6658 17.4792 19.1735C17.9714 18.6813 18.5986 18.346 19.2815 18.2102C19.9643 18.0744 20.672 18.1441 21.3152 18.4105C21.9584 18.6769 22.5081 19.1281 22.8949 19.7069C23.2817 20.2858 23.4881 20.9663 23.4881 21.6625C23.487 22.5957 23.1157 23.4904 22.4559 24.1502C21.796 24.8101 20.9014 25.1813 19.9682 25.1825Z" fill="black"/>
<path id="Vector_3" d="M11.1686 25.1828H7.64866V4.06302H14.6886V9.34298C14.69 9.80933 14.8759 10.2562 15.2056 10.5859C15.5354 10.9157 15.9822 11.1016 16.4486 11.103H21.7285V14.6229H23.4885V9.34298C23.4916 9.22732 23.4696 9.11237 23.4241 9.00603C23.3785 8.89969 23.3104 8.80449 23.2245 8.72698L17.0646 2.56703C16.9871 2.4811 16.8919 2.41299 16.7856 2.36741C16.6792 2.32183 16.5642 2.29987 16.4486 2.30303H7.64866C7.18231 2.30443 6.73546 2.4903 6.4057 2.82006C6.07594 3.14982 5.89006 3.59667 5.88867 4.06302V25.1828C5.89006 25.6492 6.07594 26.096 6.4057 26.4258C6.73546 26.7556 7.18231 26.9414 7.64866 26.9428H11.1686V25.1828ZM16.4486 4.41502L21.3765 9.34298H16.4486V4.41502Z" fill="black"/>
</g>
</svg>
