<svg width="36" height="37" viewBox="0 0 36 37" fill="none" xmlns="http://www.w3.org/2000/svg">
<g id="fluent-emoji-high-contrast:film-projector">
<g id="Group">
<path id="Vector" d="M22.4782 22.0546C22.7728 22.0546 23.0553 21.9376 23.2636 21.7293C23.4719 21.521 23.589 21.2384 23.589 20.9438C23.589 20.6492 23.4719 20.3667 23.2636 20.1584C23.0553 19.95 22.7728 19.833 22.4782 19.833C22.1836 19.833 21.901 19.95 21.6927 20.1584C21.4844 20.3667 21.3674 20.6492 21.3674 20.9438C21.3674 21.2384 21.4844 21.521 21.6927 21.7293C21.901 21.9376 22.1836 22.0546 22.4782 22.0546ZM22.4782 27.6087C22.7728 27.6087 23.0553 27.4917 23.2636 27.2833C23.4719 27.075 23.589 26.7925 23.589 26.4979C23.589 26.2033 23.4719 25.9207 23.2636 25.7124C23.0553 25.5041 22.7728 25.3871 22.4782 25.3871C22.1836 25.3871 21.901 25.5041 21.6927 25.7124C21.4844 25.9207 21.3674 26.2033 21.3674 26.4979C21.3674 26.7925 21.4844 27.075 21.6927 27.2833C21.901 27.4917 22.1836 27.6087 22.4782 27.6087ZM9.70384 22.0546C9.55654 22.0546 9.41527 22.1131 9.31111 22.2173C9.20695 22.3215 9.14844 22.4627 9.14844 22.61C9.14844 22.7573 9.20695 22.8986 9.31111 23.0028C9.41527 23.1069 9.55654 23.1654 9.70384 23.1654H15.2579C15.4052 23.1654 15.5465 23.1069 15.6506 23.0028C15.7548 22.8986 15.8133 22.7573 15.8133 22.61C15.8133 22.4627 15.7548 22.3215 15.6506 22.2173C15.5465 22.1131 15.4052 22.0546 15.2579 22.0546H9.70384ZM9.14844 24.8317C9.14844 24.6844 9.20695 24.5431 9.31111 24.4389C9.41527 24.3348 9.55654 24.2763 9.70384 24.2763H15.2579C15.4052 24.2763 15.5465 24.3348 15.6506 24.4389C15.7548 24.5431 15.8133 24.6844 15.8133 24.8317C15.8133 24.979 15.7548 25.1202 15.6506 25.2244C15.5465 25.3285 15.4052 25.3871 15.2579 25.3871H9.70384C9.55654 25.3871 9.41527 25.3285 9.31111 25.2244C9.20695 25.1202 9.14844 24.979 9.14844 24.8317ZM9.14844 27.0533C9.14844 26.906 9.20695 26.7647 9.31111 26.6605C9.41527 26.5564 9.55654 26.4979 9.70384 26.4979H15.2579C15.4052 26.4979 15.5465 26.5564 15.6506 26.6605C15.7548 26.7647 15.8133 26.906 15.8133 27.0533C15.8133 27.2006 15.7548 27.3418 15.6506 27.446C15.5465 27.5502 15.4052 27.6087 15.2579 27.6087H9.70384C9.55654 27.6087 9.41527 27.5502 9.31111 27.446C9.20695 27.3418 9.14844 27.2006 9.14844 27.0533Z" fill="#030229"/>
<path id="Vector_2" d="M26.7155 6.91354C27.9673 7.94122 28.8001 9.39114 29.0571 10.9902C29.2097 11.922 29.1612 12.8757 28.9149 13.7872C28.6729 14.6933 28.2413 15.5376 27.6486 16.2643C27.3388 16.6455 26.9879 16.9912 26.6022 17.2952C26.8066 17.7284 26.9221 18.2116 26.9221 18.7226V20.9442H28.0329V19.9645C28.033 19.7582 28.0905 19.5561 28.199 19.3807C28.3075 19.2053 28.4627 19.0636 28.6472 18.9714L31.9796 17.3052C32.1489 17.2206 32.337 17.1806 32.5261 17.1891C32.7152 17.1977 32.899 17.2544 33.06 17.3538C33.221 17.4533 33.3539 17.5923 33.4462 17.7576C33.5384 17.9229 33.5868 18.109 33.5869 18.2982V29.3008C33.5869 29.4824 33.5424 29.6612 33.4572 29.8215C33.372 29.9819 33.2489 30.1189 33.0985 30.2207C32.9481 30.3224 32.775 30.3857 32.5945 30.405C32.414 30.4244 32.2315 30.3992 32.0629 30.3317L28.7305 28.9987C28.5246 28.9162 28.3481 28.7739 28.2237 28.5901C28.0994 28.4064 28.0329 28.1897 28.0329 27.9678V26.4982H26.9221V28.7199C26.9221 29.6037 26.571 30.4513 25.946 31.0763C25.3211 31.7012 24.4735 32.0523 23.5897 32.0523H9.14911C8.2653 32.0523 7.41768 31.7012 6.79273 31.0763C6.16777 30.4513 5.81668 29.6037 5.81668 28.7199V19.1669C4.95751 18.7266 4.21397 18.0904 3.64616 17.3096C2.76643 16.1001 2.36308 14.6088 2.51313 13.1208C2.59745 12.2579 2.86562 11.4231 3.29958 10.6725C3.73431 9.91642 4.32686 9.26288 5.03689 8.75638C6.25025 7.88436 7.74208 7.48936 9.22798 7.64668C10.0944 7.73554 10.9053 8.00658 11.6251 8.41869C12.3918 8.85573 13.0541 9.45466 13.5657 10.1738C14.4301 11.3809 14.8236 12.8623 14.6721 14.3393C14.6364 14.6948 14.5695 15.0464 14.4721 15.3901H16.706L16.6926 15.3679C16.298 14.6781 16.0305 13.9229 15.9028 13.1385C15.7478 12.2057 15.7944 11.2504 16.0395 10.3371C16.2838 9.41778 16.7233 8.56192 17.328 7.82774C18.3609 6.56638 19.8219 5.72931 21.4325 5.47615C22.3461 5.32916 23.2804 5.37532 24.175 5.61167C25.1064 5.85576 25.9734 6.30004 26.7155 6.91354ZM20.4316 15.3901H22.4311L22.28 14.827C22.2526 14.7242 22.1986 14.6305 22.1235 14.5552C22.0484 14.4799 21.9548 14.4258 21.8521 14.3982C21.7494 14.3706 21.6413 14.3706 21.5385 14.3981C21.4358 14.4256 21.3421 14.4796 21.2669 14.5548L20.4316 15.3901ZM25.8913 16.3121C26.0182 16.2099 26.1406 16.1021 26.2578 15.9889L26.4022 15.8445C26.7355 15.499 27.0209 15.1113 27.252 14.6937C27.2423 14.5688 27.194 14.4501 27.1138 14.354C27.0336 14.2578 26.9254 14.189 26.8043 14.1571L24.7771 13.614C24.6744 13.5863 24.5661 13.5862 24.4633 13.6136C24.3605 13.6411 24.2668 13.6952 24.1916 13.7704C24.1163 13.8457 24.0622 13.9394 24.0348 14.0422C24.0073 14.145 24.0074 14.2532 24.0351 14.356L24.335 15.4734C24.9195 15.6077 25.4569 15.8975 25.8901 16.3121H25.8913ZM7.62175 15.76C7.53675 15.6641 7.42118 15.6005 7.29464 15.5801C7.1681 15.5596 7.03838 15.5836 6.92749 15.6478L5.26127 16.6098C5.16178 16.6668 5.08246 16.7534 5.0343 16.8575C4.98614 16.9615 4.97152 17.078 4.99246 17.1908C5.26683 17.4751 5.57452 17.7273 5.90888 17.9406C6.02152 17.4756 6.23275 17.0403 6.52827 16.6641C6.82379 16.2879 7.1967 15.9796 7.62175 15.76ZM24.7005 18.7226C24.7005 18.428 24.5834 18.1454 24.3751 17.9371C24.1668 17.7288 23.8843 17.6118 23.5897 17.6118H9.14911C8.85451 17.6118 8.57197 17.7288 8.36365 17.9371C8.15533 18.1454 8.0383 18.428 8.0383 18.7226V28.7199C8.0383 29.0145 8.15533 29.297 8.36365 29.5053C8.57197 29.7136 8.85451 29.8307 9.14911 29.8307H23.5897C23.8843 29.8307 24.1668 29.7136 24.3751 29.5053C24.5834 29.297 24.7005 29.0145 24.7005 28.7199V18.7226ZM20.9226 9.75833L20.3783 7.73221C20.3463 7.61097 20.2774 7.5027 20.181 7.42247C20.0847 7.34224 19.9657 7.29403 19.8407 7.28455C19.4186 7.51782 19.0353 7.8033 18.6965 8.12877L18.5577 8.26762C18.2244 8.61419 17.9378 9.00298 17.7057 9.42286C17.7156 9.5475 17.764 9.66597 17.8442 9.76189C17.9244 9.85781 18.0324 9.92643 18.1533 9.95827L20.1806 10.5015C20.2833 10.5291 20.3915 10.5292 20.4943 10.5018C20.5971 10.4743 20.6909 10.4202 20.7661 10.345C20.8414 10.2697 20.8954 10.176 20.9229 10.0732C20.9504 9.9704 20.9503 9.86107 20.9226 9.75833ZM22.3766 6.60474C22.273 6.67541 22.194 6.77662 22.1506 6.89428C22.1072 7.01194 22.1016 7.14021 22.1345 7.26123L22.6777 9.28846C22.7051 9.39121 22.759 9.48493 22.8341 9.5602C22.9093 9.63546 23.0029 9.68961 23.1056 9.7172C23.2083 9.74479 23.3164 9.74484 23.4192 9.71735C23.5219 9.68986 23.6155 9.6358 23.6907 9.5606L25.1748 8.07656C25.2638 7.98844 25.3232 7.87478 25.3447 7.75136C25.3662 7.62795 25.3487 7.5009 25.2947 7.38786C24.8833 7.14034 24.4411 6.948 23.9795 6.81579L23.7907 6.76469C23.3284 6.64943 22.853 6.59564 22.3766 6.60474ZM17.8079 14.8725C17.9208 14.9266 18.0478 14.9443 18.1712 14.923C18.2946 14.9017 18.4083 14.8425 18.4966 14.7536L19.9817 13.2696C20.0569 13.1944 20.111 13.1007 20.1385 12.998C20.166 12.8953 20.1659 12.7871 20.1383 12.6844C20.1107 12.5818 20.0566 12.4881 19.9813 12.413C19.9061 12.3379 19.8123 12.2839 19.7096 12.2565L17.6824 11.7134C17.5615 11.6807 17.4335 11.6865 17.316 11.7299C17.1986 11.7733 17.0976 11.8521 17.027 11.9555C17.0077 12.9819 17.2783 13.993 17.8079 14.8725ZM27.1498 9.24291C27.0369 9.18877 26.9099 9.17113 26.7865 9.19243C26.6631 9.21373 26.5493 9.27291 26.4611 9.36177L24.9759 10.8458C24.9007 10.921 24.8467 11.0147 24.8192 11.1174C24.7917 11.2201 24.7918 11.3283 24.8193 11.431C24.8469 11.5337 24.9011 11.6273 24.9764 11.7024C25.0516 11.7775 25.1453 11.8315 25.2481 11.8589L27.2753 12.4021C27.5419 12.4731 27.7941 12.3576 27.9307 12.1599C27.9501 11.1335 27.6794 10.1224 27.1498 9.24291ZM23.3353 11.2013C23.1081 10.9741 22.8001 10.8465 22.4788 10.8465C22.1576 10.8465 21.8495 10.9741 21.6224 11.2013C21.3953 11.4284 21.2677 11.7365 21.2677 12.0577C21.2677 12.3789 21.3953 12.687 21.6224 12.9141C21.7349 13.0266 21.8684 13.1158 22.0153 13.1767C22.1623 13.2376 22.3198 13.2689 22.4788 13.2689C22.6379 13.2689 22.7954 13.2376 22.9423 13.1767C23.0893 13.1158 23.2228 13.0266 23.3353 12.9141C23.4477 12.8017 23.537 12.6682 23.5978 12.5212C23.6587 12.3743 23.69 12.2168 23.69 12.0577C23.69 11.8987 23.6587 11.7412 23.5978 11.5942C23.537 11.4473 23.4477 11.3137 23.3353 11.2013ZM6.92749 11.8C7.01192 11.8487 7.1077 11.8744 7.20519 11.8744C7.30268 11.8744 7.39846 11.8487 7.48289 11.8C7.56732 11.7513 7.63743 11.6811 7.68618 11.5967C7.73493 11.5123 7.7606 11.4165 7.7606 11.319V9.39509C7.76109 9.28009 7.72573 9.1678 7.65943 9.07383C7.59314 8.97986 7.4992 8.90889 7.3907 8.87079C6.96638 8.97587 6.55778 9.13647 6.17547 9.34844L6.01996 9.4373C5.64301 9.66436 5.29755 9.93998 4.99246 10.2571C4.97152 10.3698 4.98614 10.4863 5.0343 10.5904C5.08246 10.6945 5.16178 10.781 5.26127 10.838L6.92749 11.8ZM9.42681 9.39509V11.319C9.42682 11.4165 9.45248 11.5123 9.50123 11.5967C9.54998 11.6811 9.62009 11.7513 9.70452 11.8C9.78896 11.8487 9.88473 11.8744 9.98222 11.8744C10.0797 11.8744 10.1755 11.8487 10.2599 11.8L11.9261 10.838C12.0256 10.781 12.105 10.6945 12.1531 10.5904C12.2013 10.4863 12.2159 10.3698 12.195 10.2571C11.8895 9.93992 11.5437 9.6643 11.1663 9.4373L11.0108 9.34844C10.6289 9.13649 10.2207 8.97589 9.79671 8.87079C9.68821 8.90889 9.59428 8.97986 9.52798 9.07383C9.46169 9.1678 9.42632 9.28009 9.42681 9.39509ZM4.42817 15.1669L6.09438 14.2049C6.17881 14.1562 6.24892 14.086 6.29766 14.0016C6.3464 13.9172 6.37206 13.8214 6.37206 13.7239C6.37206 13.6264 6.3464 13.5307 6.29766 13.4462C6.24892 13.3618 6.17881 13.2917 6.09438 13.2429L4.42817 12.281C4.32878 12.2232 4.21387 12.1978 4.09941 12.2084C3.98494 12.2189 3.8766 12.2649 3.78945 12.3399C3.52899 13.2442 3.52899 14.2037 3.78945 15.108C3.95829 15.2524 4.20934 15.2935 4.42817 15.1669ZM13.5924 13.7239C13.5924 13.2441 13.5246 12.7797 13.398 12.3399C13.3108 12.2649 13.2025 12.2189 13.088 12.2084C12.9735 12.1978 12.8586 12.2232 12.7592 12.281L11.093 13.2429C11.0086 13.2917 10.9385 13.3618 10.8898 13.4462C10.841 13.5307 10.8154 13.6264 10.8154 13.7239C10.8154 13.8214 10.841 13.9172 10.8898 14.0016C10.9385 14.086 11.0086 14.1562 11.093 14.2049L12.7592 15.1669C12.8586 15.2246 12.9735 15.25 13.088 15.2395C13.2025 15.2289 13.3108 15.183 13.398 15.108C13.5273 14.658 13.5927 14.1921 13.5924 13.7239ZM9.14911 14.6859C9.27646 14.6135 9.38823 14.5166 9.47799 14.4008C9.56774 14.285 9.63371 14.1527 9.67209 14.0113C9.71048 13.8699 9.72051 13.7223 9.70163 13.5771C9.68275 13.4318 9.63532 13.2917 9.56207 13.1648C9.48882 13.038 9.3912 12.9268 9.27483 12.8378C9.15846 12.7489 9.02564 12.6838 8.88401 12.6463C8.74239 12.6089 8.59475 12.5998 8.44961 12.6197C8.30446 12.6395 8.16468 12.6879 8.0383 12.762C7.78525 12.9103 7.60115 13.1527 7.52618 13.4363C7.4512 13.7199 7.49144 14.0216 7.6381 14.2757C7.78477 14.5297 8.02596 14.7154 8.30905 14.7922C8.59213 14.8691 8.89412 14.8309 9.14911 14.6859Z" fill="#030229"/>
</g>
</g>
</svg>
