<svg width="37" height="36" viewBox="0 0 37 36" fill="none" xmlns="http://www.w3.org/2000/svg">
<g id="fluent:money-hand-20-regular">
<path id="Vector" d="M8.87054 4.35645C8.16348 4.35645 7.48539 4.63732 6.98543 5.13728C6.48547 5.63724 6.20459 6.31534 6.20459 7.02239V30.1273C6.20459 30.8343 6.48547 31.5124 6.98543 32.0124C7.48539 32.5123 8.16348 32.7932 8.87054 32.7932H21.3116C22.0187 32.7932 22.6968 32.5123 23.1967 32.0124C23.6967 31.5124 23.9776 30.8343 23.9776 30.1273V27.4613C23.9776 27.2256 23.8839 26.9996 23.7173 26.8329C23.5506 26.6663 23.3246 26.5727 23.0889 26.5727C22.3549 26.5727 21.8857 26.3914 21.5675 26.1532C21.2423 25.9097 20.9953 25.5454 20.814 25.046C20.4336 24.0009 20.423 22.6164 20.423 21.2408C20.4229 21.1239 20.3999 21.0081 20.355 20.9002C20.3102 20.7922 20.2445 20.6941 20.1617 20.6116L19.6534 20.1015L17.4975 17.9457C16.6675 17.1157 16.424 16.5594 16.3778 16.2483C16.3423 15.9995 16.4169 15.8325 16.5947 15.6618C16.975 15.2975 17.2469 15.0504 17.5544 14.9758C17.7375 14.9296 18.1551 14.8976 18.9052 15.6476L24.237 20.9795C24.4037 21.1464 24.6298 21.2402 24.8656 21.2404C24.9823 21.2405 25.098 21.2175 25.2059 21.1729C25.3138 21.1283 25.4119 21.0629 25.4945 20.9804C25.5771 20.8979 25.6427 20.7999 25.6874 20.6921C25.7322 20.5842 25.7553 20.4686 25.7554 20.3519C25.7554 20.2351 25.7325 20.1195 25.6879 20.0116C25.6433 19.9036 25.5779 19.8056 25.4954 19.723L23.9776 18.2069V12.7222L28.5274 17.2721C28.7753 17.5196 28.9719 17.8135 29.1061 18.1371C29.2403 18.4607 29.3094 18.8075 29.3095 19.1578V31.9046C29.3095 32.1402 29.4031 32.3663 29.5697 32.5329C29.7364 32.6996 29.9624 32.7932 30.1981 32.7932C30.4338 32.7932 30.6598 32.6996 30.8265 32.5329C30.9931 32.3663 31.0868 32.1402 31.0868 31.9046V19.1578C31.0865 17.9799 30.6186 16.8503 29.7858 16.0173L23.9776 10.2091V7.02239C23.9776 6.31534 23.6967 5.63724 23.1967 5.13728C22.6968 4.63732 22.0187 4.35645 21.3116 4.35645H8.87054ZM22.2003 10.577V16.4296L20.1635 14.3911C19.1344 13.3638 18.1125 13.0101 17.1332 13.2483C16.9408 13.2957 16.7543 13.3643 16.5769 13.4527C15.7824 13.2225 14.9453 13.1803 14.1317 13.3293C13.3182 13.4784 12.5504 13.8146 11.8891 14.3114C11.2278 14.8083 10.6911 15.4521 10.3215 16.192C9.95182 16.9319 9.75932 17.7477 9.75918 18.5748C9.75911 19.6056 10.0578 20.6142 10.6191 21.4787C11.1804 22.3432 11.9802 23.0265 12.9218 23.4459C13.8634 23.8652 14.9063 24.0027 15.9244 23.8416C16.9424 23.6805 17.892 23.2278 18.6581 22.5382C18.6883 23.5655 18.7914 24.6887 19.1433 25.6538C19.4064 26.3772 19.8258 27.0685 20.5012 27.5733L20.5118 27.5839C19.9706 27.7541 19.4978 28.0926 19.1622 28.55C18.8266 29.0074 18.6456 29.5599 18.6457 30.1273V31.0159H11.5365V30.1273C11.5365 29.4202 11.2556 28.7421 10.7556 28.2421C10.2557 27.7422 9.57759 27.4613 8.87054 27.4613H7.98189V9.68834H8.87054C9.57759 9.68834 10.2557 9.40746 10.7556 8.9075C11.2556 8.40754 11.5365 7.72944 11.5365 7.02239V6.13374H18.6457V7.02239C18.6457 7.72944 18.9265 8.40754 19.4265 8.9075C19.9265 9.40746 20.6046 9.68834 21.3116 9.68834H22.2003V10.577ZM22.2003 30.1273V30.1433C22.1961 30.3762 22.1006 30.5981 21.9344 30.7613C21.7682 30.9245 21.5446 31.0159 21.3116 31.0159H20.423V30.1273C20.423 29.8916 20.5166 29.6655 20.6832 29.4989C20.8499 29.3322 21.0759 29.2386 21.3116 29.2386H22.2003V30.1273ZM11.5365 18.5748C11.5365 17.6709 11.8809 16.8009 12.4996 16.1418C13.1184 15.4828 13.965 15.0843 14.8671 15.0273C14.6468 15.4361 14.5348 15.9338 14.6201 16.5078C14.7463 17.3645 15.2919 18.2549 16.2392 19.2022L17.8512 20.8142C17.3884 21.3845 16.7604 21.7974 16.0534 21.9963C15.3464 22.1951 14.5952 22.17 13.903 21.9246C13.2108 21.6791 12.6117 21.2253 12.1879 20.6254C11.7641 20.0256 11.5366 19.3092 11.5365 18.5748ZM9.75918 6.13374V7.02239C9.75918 7.25808 9.66556 7.48411 9.4989 7.65076C9.33225 7.81741 9.10622 7.91104 8.87054 7.91104H7.98189V7.02239C7.98189 6.78671 8.07551 6.56068 8.24217 6.39402C8.40882 6.22737 8.63485 6.13374 8.87054 6.13374H9.75918ZM7.98189 29.2386H8.87054C9.10622 29.2386 9.33225 29.3322 9.4989 29.4989C9.66556 29.6655 9.75918 29.8916 9.75918 30.1273V31.0159H8.87054C8.63485 31.0159 8.40882 30.9223 8.24217 30.7556C8.07551 30.589 7.98189 30.3629 7.98189 30.1273V29.2386ZM22.2003 7.91104H21.3116C21.0759 7.91104 20.8499 7.81741 20.6832 7.65076C20.5166 7.48411 20.423 7.25808 20.423 7.02239V6.13374H21.3116C21.5473 6.13374 21.7733 6.22737 21.94 6.39402C22.1066 6.56068 22.2003 6.78671 22.2003 7.02239V7.91104Z" fill="#4C4C61"/>
</g>
</svg>
