<svg width="232" height="231" viewBox="0 0 232 231" fill="none" xmlns="http://www.w3.org/2000/svg">
<g id="17592960_FeedbackS10821 1">
<g id="Group">
<g id="Group_2">
<path id="Vector" d="M90.2504 148.127C121.472 148.127 146.782 123.739 146.782 93.6543C146.782 63.5696 121.472 39.1812 90.2504 39.1812C59.0288 39.1812 33.7188 63.5696 33.7188 93.6543C33.7188 123.739 59.0288 148.127 90.2504 148.127Z" fill="#ECF3FE"/>
<path id="Vector_2" d="M172.731 121.698C186.733 121.698 198.083 110.76 198.083 97.2685C198.083 83.7766 186.733 72.8394 172.731 72.8394C158.729 72.8394 147.379 83.7766 147.379 97.2685C147.379 110.76 158.729 121.698 172.731 121.698Z" fill="#ECF3FE"/>
<path id="Vector_3" d="M143.213 185.778C158.342 185.778 170.606 173.96 170.606 159.382C170.606 144.804 158.342 132.986 143.213 132.986C128.084 132.986 115.82 144.804 115.82 159.382C115.82 173.96 128.084 185.778 143.213 185.778Z" fill="#ECF3FE"/>
<path id="Vector_4" d="M168.387 203.94C182.512 203.94 193.962 202.401 193.962 200.503C193.962 198.604 182.512 197.065 168.387 197.065C154.262 197.065 142.811 198.604 142.811 200.503C142.811 202.401 154.262 203.94 168.387 203.94Z" fill="#B7CAE5"/>
<path id="Vector_5" d="M170.012 125.957C169.735 138.429 165.168 149.909 157.737 158.97C154.83 162.516 151.487 165.689 147.789 168.408C139.132 174.774 128.544 178.642 117.119 178.913C110.578 179.069 104.301 178.046 98.4607 176.071L71.9531 186.712C69.5958 187.658 67.1488 185.568 67.7214 183.095C69.1872 176.772 71.5476 166.523 73.3477 158.383C65.635 148.663 61.1727 136.245 61.6495 122.764C62.6478 94.4993 85.6635 71.5115 113.929 70.5503C145.142 69.4885 170.702 94.8244 170.012 125.957Z" fill="#3B82F4"/>
<path id="Vector_6" d="M173.983 124.329C173.706 136.801 169.138 148.281 161.707 157.342C158.8 160.888 155.457 164.061 151.759 166.781C143.103 173.147 132.514 177.015 121.09 177.286C114.549 177.442 108.271 176.419 102.431 174.444L75.9236 185.085C73.5663 186.031 71.1192 183.941 71.6919 181.468C73.1577 175.145 75.5181 164.895 77.3181 156.756C69.6055 147.035 65.1432 134.617 65.6199 121.136C66.6182 92.8719 89.634 69.884 117.9 68.9228C149.113 67.8611 174.673 93.197 173.983 124.329Z" fill="#3B82F4"/>
<path id="Vector_7" opacity="0.15" d="M161.707 157.341C158.8 160.887 155.457 164.06 151.76 166.78L148.689 159.891L161.707 157.341Z" fill="#232323"/>
<g id="Group_3">
<path id="Vector_8" d="M152.365 141.341C152.845 143.185 154.953 148.396 154.801 150.532C154.8 150.557 154.798 150.582 154.795 150.606C154.586 152.692 156.773 148.993 156.773 148.993L154.066 139.254C154.066 139.254 153.653 139.296 153.227 139.495C152.67 139.756 152.089 140.285 152.365 141.341Z" fill="#FDC8AA"/>
<path id="Vector_9" d="M152.365 141.341C152.845 143.185 154.953 148.396 154.801 150.532C155.021 150.621 155.213 150.588 155.199 150.189C155.168 149.283 152.856 141.848 152.668 141.043C152.521 140.41 153.011 139.749 153.227 139.496C152.67 139.756 152.089 140.286 152.365 141.341Z" fill="#FFD6BB"/>
<path id="Vector_10" d="M175.745 157.91L178.622 158.954C178.622 158.954 180.141 157.127 181.667 155.211C183.011 153.521 184.36 151.764 184.679 151.127C184.999 150.487 185.011 149.934 184.933 149.527C184.846 149.069 184.646 148.797 184.646 148.797C184.646 148.797 184.454 148.884 184.166 149.012C183.703 149.218 182.994 149.529 182.445 149.748C182.266 149.819 182.105 149.881 181.975 149.926C181.906 149.951 181.846 149.969 181.796 149.983C181.726 150.003 181.593 150.122 181.411 150.317C180.985 150.775 180.297 151.654 179.545 152.655C177.815 154.957 175.745 157.91 175.745 157.91Z" fill="#FDC8AA"/>
<path id="Vector_11" d="M179.545 152.655L179.801 152.813L182.445 149.748C182.266 149.819 182.105 149.881 181.975 149.926C181.906 149.95 181.846 149.969 181.796 149.983C181.726 150.003 181.592 150.122 181.411 150.317C180.985 150.775 180.297 151.653 179.545 152.655Z" fill="#FFD6BB"/>
<path id="Vector_12" d="M181.411 155.25L181.667 155.211C183.011 153.521 184.36 151.764 184.679 151.127C184.999 150.487 185.011 149.934 184.933 149.527C184.846 149.069 184.646 148.797 184.646 148.797C184.646 148.797 184.454 148.884 184.166 149.012C184.289 149.204 184.653 149.835 184.456 150.317C184.221 150.892 181.411 155.25 181.411 155.25Z" fill="#FBB188"/>
<path id="Vector_13" d="M162.428 171.55C162.428 171.55 162.302 172.292 164.27 173.722C166.238 175.151 175.974 178.783 176.981 177.892C177.989 177.002 174.685 173.558 174.076 173.276C173.467 172.995 162.428 171.55 162.428 171.55Z" fill="#E59D29"/>
<path id="Vector_14" d="M178.359 176.715C178.359 176.715 178.344 176.88 178.317 177.161C178.317 177.163 178.316 177.166 178.316 177.169C178.316 177.175 178.314 177.181 178.314 177.187C178.276 177.593 178.218 178.226 178.15 178.953C178.117 179.307 178.082 179.683 178.047 180.066C177.875 181.914 177.687 183.922 177.643 184.366C177.57 185.113 177.811 193.914 177.878 196.311V196.316C177.889 196.693 177.895 196.909 177.895 196.909H175.872C175.872 196.909 173.89 184.261 173.89 184.135C173.89 184.05 173.27 180.018 172.862 177.373C172.806 177.008 172.753 176.669 172.707 176.371C172.703 176.347 172.7 176.323 172.696 176.298C172.679 176.193 172.664 176.093 172.649 176C172.645 175.97 172.64 175.941 172.636 175.912C172.634 175.902 172.633 175.892 172.631 175.882C172.628 175.861 172.625 175.842 172.622 175.823V175.821C172.617 175.793 172.613 175.765 172.609 175.738C172.605 175.711 172.601 175.685 172.597 175.659C172.544 175.315 172.513 175.112 172.513 175.112L173.205 175.302L177.546 176.492L178.359 176.715Z" fill="#FDC8AA"/>
<path id="Vector_15" d="M177.878 196.31C177.811 193.914 177.57 185.113 177.643 184.366C177.696 183.83 177.959 181.014 178.15 178.953C178.218 178.225 178.277 177.593 178.314 177.187L177.411 177.353L176.968 184.226L177.878 196.31Z" fill="#FFD6BB"/>
<path id="Vector_16" d="M172.631 175.882C172.692 176.273 172.773 176.789 172.863 177.374C173.27 180.019 173.891 184.05 173.891 184.135C173.891 184.262 175.872 196.909 175.872 196.909L173.725 176.351L172.631 175.882Z" fill="#FBB188"/>
<path id="Vector_17" opacity="0.5" d="M178.317 177.161C178.317 177.164 178.316 177.166 178.316 177.169C178.316 177.175 178.314 177.181 178.314 177.187C178.276 177.593 178.218 178.226 178.15 178.953C178.117 179.307 178.082 179.683 178.047 180.066C176.082 179.28 173.479 177.849 172.862 177.374C172.806 177.008 172.753 176.67 172.707 176.371C172.703 176.347 172.7 176.323 172.696 176.298C172.679 176.193 172.664 176.094 172.649 176C172.645 175.97 172.64 175.941 172.636 175.912C172.634 175.902 172.633 175.892 172.631 175.882C172.628 175.862 172.625 175.842 172.622 175.823V175.821C172.617 175.793 172.613 175.765 172.609 175.738C172.605 175.711 172.601 175.685 172.597 175.66C172.66 175.516 172.708 175.41 172.724 175.385C172.739 175.362 172.927 175.333 173.205 175.302L177.546 176.492L178.317 177.161Z" fill="#E2906D"/>
<path id="Vector_18" d="M163.14 179.749C163.519 182.869 165.205 197.119 165.205 197.119H167.355C167.355 197.119 167.36 197.031 167.368 196.871V196.87C167.454 195.282 167.934 186.589 168.241 185.02C168.578 183.291 167.735 179.328 167.861 178.653C167.918 178.353 168.249 177.36 168.601 176.35C168.923 175.422 169.261 174.478 169.417 174.047C169.473 173.893 169.505 173.805 169.505 173.805L164.006 171.776L163.721 171.671L163.717 171.669L163.561 171.612C163.561 171.612 163.56 171.616 163.558 171.625C163.555 171.654 163.543 171.733 163.525 171.852C163.497 172.039 163.456 172.33 163.409 172.696C163.198 174.346 162.87 177.528 163.14 179.749Z" fill="#FDC8AA"/>
<path id="Vector_19" d="M163.14 179.75C163.519 182.87 165.205 197.12 165.205 197.12H165.304L163.633 178.031C163.633 178.031 164.383 172.51 164.415 172.386L164.005 171.777L163.853 171.55C163.853 171.55 163.805 171.594 163.721 171.672C163.669 171.719 163.602 171.781 163.525 171.853C163.373 172.887 162.81 177.036 163.14 179.75Z" fill="#FFD6BB"/>
<path id="Vector_20" d="M167.602 184.366L167.368 196.87C167.455 195.282 167.935 186.589 168.241 185.02C168.578 183.291 167.735 179.328 167.861 178.653C167.919 178.353 168.249 177.36 168.601 176.351C168.923 175.422 169.262 174.478 169.417 174.047L168.383 173.604L167.258 178.789L167.602 184.366Z" fill="#FBB188"/>
<path id="Vector_21" opacity="0.5" d="M163.41 172.697L168.601 176.351C169.038 175.091 169.505 173.805 169.505 173.805L164.006 171.776L163.721 171.671L163.717 171.67L163.559 171.625C163.555 171.655 163.543 171.733 163.525 171.852C163.498 172.04 163.457 172.33 163.41 172.697Z" fill="#E2906D"/>
<path id="Vector_22" opacity="0.5" d="M181.411 150.317C181.411 150.317 184.182 149.707 184.933 149.527C184.846 149.069 184.646 148.797 184.646 148.797C184.646 148.797 182.755 149.656 181.975 149.926C181.637 150.16 181.411 150.317 181.411 150.317Z" fill="#E2906D"/>
<path id="Vector_23" d="M162.465 171.318C161.874 172.54 167.735 173.678 169.738 174.816C170.33 175.154 171.268 175.741 172.323 176.332C174.834 177.735 178.01 179.149 178.781 177.219C179.393 175.692 179.047 172.511 178.622 168.394C178.375 166.014 178.102 163.319 177.972 160.45V160.438C177.938 159.709 177.915 158.968 177.904 158.218C177.898 157.874 177.895 157.528 177.895 157.18C177.895 157.091 177.773 154.919 177.775 152.516C177.778 149.649 177.959 146.452 178.739 146.063C178.739 146.063 181.537 149.811 181.411 150.317C181.411 150.317 184.83 149.137 184.766 148.884C184.718 148.692 182.222 143.253 180.32 140.221C179.714 139.256 179.168 138.534 178.781 138.305C178.678 138.244 178.568 138.18 178.452 138.115C176.76 137.167 173.682 135.848 169.738 136.303C169.738 136.303 165.437 135.855 164.725 136.835C164.014 137.815 160.409 142.985 160.346 144.503C160.283 146.021 165.922 153.441 166.007 156.772C166.06 158.882 164.861 163.664 163.826 167.198C163.648 167.804 163.475 168.373 163.314 168.886C162.932 170.103 162.617 171.003 162.465 171.318Z" fill="#F4B545"/>
<path id="Vector_24" d="M171.572 137.103C174.654 136.898 174.417 133.957 174.417 133.957L174.24 131.017L174.221 131.024L170.401 132.313C170.401 132.313 170.423 133.321 170.075 134.345C169.825 135.086 169.382 135.834 168.599 136.219C168.599 136.219 168.489 137.31 171.572 137.103Z" fill="#FDC8AA"/>
<path id="Vector_25" d="M170.075 134.346C173.978 134.179 174.24 132.343 174.24 132.343C174.24 132.343 174.222 131.608 174.22 131.024L170.401 132.314C170.401 132.314 170.423 133.322 170.075 134.346Z" fill="#FBB188"/>
<path id="Vector_26" d="M175.998 138.974C176.147 139.101 177.629 140.967 180.32 140.222C179.715 139.257 179.168 138.535 178.781 138.306C178.678 138.245 178.569 138.181 178.452 138.116C177.227 137.957 176.147 137.894 176.138 137.92C176.115 137.99 175.998 138.974 175.998 138.974Z" fill="#E59D29"/>
<path id="Vector_27" d="M167.964 126.29C167.964 126.29 167.44 122.474 170.623 122.284C173.806 122.095 174.164 120.935 176.526 122.896C178.887 124.856 178.423 125.299 178.444 126.205C178.465 127.112 179.371 131.054 180.151 133.921C180.931 136.788 180.826 140.73 177.39 138.959C173.954 137.188 173.448 137.083 172.815 137.336C172.183 137.589 173.891 129.937 173.891 129.937L173.912 126.564L172.921 125.489L170.771 125.362L168.663 126.079L167.964 126.29Z" fill="#1F3A6F"/>
<path id="Vector_28" d="M171.559 132.99C171.616 132.993 171.673 132.994 171.73 132.992C171.731 132.992 171.732 132.992 171.732 132.992C173.505 132.962 174.992 131.249 175.088 129.075C175.189 126.829 173.77 124.944 171.921 124.861C171.005 124.82 170.154 125.23 169.516 125.928L169.515 125.929C168.869 126.638 168.442 127.645 168.392 128.776C168.291 131.021 169.71 132.907 171.559 132.99Z" fill="#FDC8AA"/>
<path id="Vector_29" d="M160.884 199.877C160.919 200.303 161.242 200.463 161.738 200.472C162.296 200.482 167.725 200.693 167.83 200.271C167.845 200.211 167.865 200.098 167.884 199.949C167.999 199.071 168.096 196.941 167.114 196.909C165.965 196.871 166.272 196.878 166.272 196.878C166.272 196.878 165.016 196.793 165.047 197.225C165.079 197.658 164.932 198.869 163.393 198.922C161.854 198.975 160.926 199.144 160.884 199.703C160.879 199.765 160.879 199.823 160.884 199.877Z" fill="#1F3A6F"/>
<path id="Vector_30" d="M174.722 200.255C174.97 200.587 179.01 200.52 179.214 200.432C179.297 200.396 179.305 200.154 179.249 199.861C179.171 199.441 178.965 198.916 178.672 198.733C178.175 198.423 178.176 196.55 177.385 196.435C177.385 196.435 176.393 196.083 176.031 196.59C175.67 197.098 175.806 198.091 175.354 198.467C175.094 198.684 174.841 199.136 174.721 199.544C174.634 199.842 174.618 200.116 174.722 200.255Z" fill="#1F3A6F"/>
<path id="Vector_31" d="M173.833 129.8C173.833 129.753 174.987 128.93 174.718 127.919C174.449 126.907 173.754 127.634 173.675 127.444C173.596 127.255 172.947 125.927 171.477 126.148C170.007 126.369 168.015 127.869 167.951 126.123C167.888 124.377 172.505 124.172 172.9 124.298C173.295 124.424 177.311 125.847 176.536 128.013C175.762 130.179 174.481 133.768 174.165 133.12C174.074 132.935 173.176 133.431 173.259 132.976C173.444 131.971 173.833 129.8 173.833 129.8Z" fill="#1F3A6F"/>
<path id="Vector_32" d="M178.239 159.171C178.239 159.171 176.538 160.882 175.374 160.823C174.21 160.764 176.849 158.688 176.943 158.734C177.037 158.78 178.239 159.171 178.239 159.171Z" fill="#FDC8AA"/>
<path id="Vector_33" d="M177.775 152.517C177.778 149.65 177.959 146.453 178.739 146.064C178.739 146.064 177.443 145.831 176.443 150.736C175.865 153.567 176.861 153.338 177.775 152.517Z" fill="#E59D29"/>
<path id="Vector_34" d="M163.314 168.887C163.9 169.785 164.901 171.33 164.926 171.438C164.961 171.59 165.547 172.269 166.789 172.199C168.031 172.129 168.452 171.027 168.452 170.957C168.452 170.887 171.459 163.92 172.194 162.217C172.928 160.514 173.896 161.343 173.896 161.343C175.744 162.261 177.207 161.217 177.972 160.452V160.439L177.903 158.219L174.919 157.182L171.077 158.955L163.825 167.199C163.647 167.805 163.475 168.374 163.314 168.887Z" fill="#E59D29"/>
<path id="Vector_35" d="M164.639 141.495L155.072 136.973C154.084 136.506 152.988 137.375 153.219 138.445L155.449 148.789C155.54 149.213 155.417 149.656 155.119 149.972L147.862 157.673C147.112 158.469 147.6 159.779 148.688 159.891L159.215 160.966C159.647 161.01 160.03 161.264 160.238 161.645L165.32 170.927C165.845 171.886 167.243 171.827 167.685 170.826L171.961 161.147C172.136 160.75 172.496 160.464 172.923 160.384L183.32 158.419C184.395 158.216 184.77 156.869 183.955 156.139L176.071 149.081C175.748 148.792 175.587 148.361 175.642 147.93L176.987 137.434C177.126 136.35 175.96 135.576 175.015 136.126L165.866 141.443C165.491 141.662 165.032 141.681 164.639 141.495Z" fill="white"/>
<path id="Vector_36" d="M174.633 160.838C176.37 160.969 176.376 160.034 176.688 159.935C176.837 159.887 176.861 159.738 176.802 159.599C176.738 159.45 176.578 159.311 176.376 159.324C175.99 159.349 175.921 159.305 175.921 159.305C175.921 159.305 176.164 158.501 175.454 158.8C174.743 159.1 174.501 159.642 173.304 159.1C173.218 159.061 173.142 159.035 173.075 159.023C172.227 158.857 173.021 160.717 174.633 160.838Z" fill="#FDC8AA"/>
<path id="Vector_37" d="M153.422 139.416C153.422 139.416 154.381 138.618 154.83 138.789C155.279 138.96 154.156 139.58 154.381 139.944C154.605 140.307 155.215 139.869 155.45 140.265C155.685 140.66 154.53 142.2 154.017 142.349C153.504 142.499 153.422 139.416 153.422 139.416Z" fill="#FDC8AA"/>
<path id="Vector_38" d="M169.454 130.657L171.494 130.754C171.567 130.757 171.61 130.852 171.575 130.931C171.445 131.222 171.104 131.782 170.396 131.769C169.676 131.755 169.429 131.126 169.352 130.818C169.331 130.737 169.385 130.653 169.454 130.657Z" fill="white"/>
</g>
<g id="Group_4">
<path id="Vector_39" opacity="0.15" d="M140.358 88.9522C137.255 85.0414 135.46 80.0452 135.652 74.6216C136.053 63.2501 145.313 54.0013 156.685 53.6145C169.243 53.1874 179.527 63.3808 179.249 75.9059C178.992 87.4824 169.545 96.9371 157.969 97.2122C155.337 97.2747 152.811 96.8631 150.462 96.0689L139.797 100.35C138.849 100.73 137.864 99.8895 138.095 98.8944C138.684 96.3509 139.634 92.2267 140.358 88.9522Z" fill="#0E50AF"/>
<g id="Group_5">
<path id="Vector_40" d="M137.852 85.7774C134.748 81.8666 132.953 76.8704 133.145 71.4469C133.547 60.0754 142.807 50.8266 154.179 50.4397C166.736 50.0126 177.02 60.206 176.742 72.7311C176.485 84.3077 167.038 93.7623 155.462 94.0374C152.83 94.0999 150.305 93.6883 147.955 92.8941L137.29 97.1748C136.342 97.5553 135.357 96.7147 135.588 95.7195C136.177 93.1762 137.127 89.052 137.852 85.7774Z" fill="#F4B545"/>
<path id="Vector_41" d="M151.794 69.0844H142.269C141.451 69.0844 140.789 68.4219 140.789 67.6045C140.789 66.7871 141.451 66.1245 142.269 66.1245H151.794C152.611 66.1245 153.274 66.7871 153.274 67.6045C153.274 68.4219 152.611 69.0844 151.794 69.0844Z" fill="#E29D2D"/>
<path id="Vector_42" d="M147.976 75.3149H138.45C137.633 75.3149 136.97 74.6523 136.97 73.835C136.97 73.0176 137.633 72.355 138.45 72.355H147.976C148.793 72.355 149.456 73.0176 149.456 73.835C149.456 74.6523 148.793 75.3149 147.976 75.3149Z" fill="#FFDCA4"/>
<path id="Vector_43" d="M169.396 75.3149H152.896C152.079 75.3149 151.416 74.6523 151.416 73.835C151.416 73.0176 152.079 72.355 152.896 72.355H169.396C170.213 72.355 170.876 73.0176 170.876 73.835C170.876 74.6523 170.213 75.3149 169.396 75.3149Z" fill="#FFDCA4"/>
<path id="Vector_44" d="M167.253 80.8755H143.166C142.349 80.8755 141.687 80.2129 141.687 79.3955C141.687 78.5781 142.349 77.9155 143.166 77.9155H167.253C168.07 77.9155 168.733 78.5781 168.733 79.3955C168.733 80.2128 168.07 80.8755 167.253 80.8755Z" fill="#FFDCA4"/>
<path id="Vector_45" d="M161.93 86.4346H150.188C149.371 86.4346 148.708 85.772 148.708 84.9546C148.708 84.1372 149.371 83.4746 150.188 83.4746H161.93C162.748 83.4746 163.41 84.1372 163.41 84.9546C163.41 85.772 162.748 86.4346 161.93 86.4346Z" fill="#FFDCA4"/>
</g>
<g id="Group_6">
<path id="Vector_46" d="M179.033 57.0274C179.121 60.9155 177.417 64.4274 174.676 66.7724C172.572 68.5718 169.858 69.6845 166.875 69.7526C164.219 69.8131 161.738 69.0372 159.686 67.665C156.427 65.4885 154.245 61.8102 154.149 57.5947C153.992 50.7233 159.436 45.0261 166.307 44.8695C173.179 44.7129 178.876 50.156 179.033 57.0274Z" fill="#FFDCA4"/>
<g id="Group_7">
<path id="Vector_47" d="M161.189 51.5132C161.189 51.5132 161.67 49.2133 166.14 49.4754C170.609 49.7375 173.298 51.7856 173.181 56.8213C173.064 61.8569 176.2 63.8299 173.156 64.2107C170.112 64.5914 160.251 66.1227 159.865 64.675C159.478 63.2273 160.615 60.6331 160.185 57.7878C159.754 54.9425 161.189 51.5132 161.189 51.5132Z" fill="#1F3A6F"/>
<path id="Vector_48" d="M174.676 66.7731C172.572 68.5725 169.858 69.6852 166.875 69.7532C164.219 69.8137 161.738 69.0378 159.686 67.6656C159.874 66.8855 160.22 66.0298 160.824 65.1796C161.413 64.3511 162.247 63.5267 163.419 62.782C163.459 62.7568 163.498 62.7318 163.538 62.707C163.555 62.6964 163.572 62.6861 163.589 62.6759C163.626 62.6538 163.662 62.6314 163.699 62.6097C163.768 62.5683 163.838 62.527 163.91 62.4865C163.941 62.4684 163.972 62.4508 164.004 62.4331C164.03 62.4188 164.055 62.4044 164.081 62.3905C164.225 62.3109 164.374 62.2323 164.527 62.1552C164.567 62.1354 164.606 62.1157 164.646 62.0963C164.711 62.0641 164.777 62.0323 164.844 62.0005C165.079 61.8893 165.324 61.781 165.579 61.6761L167.091 61.6416C167.091 61.6416 167.098 61.643 167.111 61.6459C167.113 61.6462 167.116 61.6469 167.119 61.6477C167.132 61.6505 167.15 61.6544 167.173 61.6598C167.178 61.6613 167.185 61.6627 167.192 61.6645C167.217 61.6702 167.247 61.6774 167.281 61.6857C167.288 61.6875 167.296 61.6897 167.304 61.6915C167.327 61.6972 167.351 61.7034 167.377 61.7103C167.385 61.7125 167.392 61.7143 167.4 61.7161C167.416 61.7204 167.433 61.7251 167.451 61.7298C167.466 61.7334 167.481 61.7374 167.497 61.7418C167.499 61.7425 167.501 61.7433 167.503 61.7436C167.514 61.7465 167.526 61.7494 167.537 61.7526C167.56 61.7592 167.584 61.7657 167.608 61.7727C167.632 61.7792 167.656 61.7862 167.681 61.793C167.706 61.8003 167.732 61.808 167.759 61.8157C167.79 61.8248 167.822 61.8343 167.855 61.8442C167.877 61.8512 167.9 61.8581 167.924 61.865C167.999 61.8881 168.078 61.913 168.161 61.9399C168.181 61.9465 168.202 61.9531 168.222 61.9601C168.24 61.966 168.259 61.9719 168.277 61.9781C168.285 61.9807 168.292 61.9833 168.3 61.9863C168.301 61.9863 168.302 61.9862 168.303 61.9866C168.374 62.0106 168.448 62.036 168.523 62.0626C168.578 62.0818 168.633 62.1018 168.69 62.1226L168.733 62.1381C168.985 62.2311 169.258 62.3386 169.544 62.4627C169.576 62.4769 169.609 62.4915 169.643 62.5061C169.729 62.5446 169.817 62.5847 169.907 62.6259C170.767 63.0265 171.716 63.5678 172.586 64.2845C173.397 64.9528 174.139 65.773 174.676 66.7731Z" fill="#3B82F4"/>
<path id="Vector_49" d="M169.642 62.5051C166.958 65.3376 164.276 63.3572 163.538 62.7061C163.658 62.6317 163.782 62.5579 163.91 62.4854C164.409 62.1997 164.964 61.9284 165.579 61.6751L167.091 61.6406C167.091 61.6406 167.765 61.7809 168.733 62.1371C169.014 62.2408 169.32 62.3627 169.642 62.5051Z" fill="#FDC8AA"/>
<path id="Vector_50" d="M168.733 62.1371C167.958 62.5789 166.055 63.4108 163.91 62.4854C164.409 62.1997 164.964 61.9284 165.579 61.6751L167.091 61.6406C167.091 61.6406 167.765 61.7809 168.733 62.1371Z" fill="#F4A882"/>
<path id="Vector_51" d="M171.474 56.9494C171.541 59.8552 169.385 62.2611 166.66 62.3232C164.87 62.364 163.28 61.3837 162.38 59.8829C161.91 59.0985 161.628 58.1717 161.605 57.1743C161.539 54.2685 163.695 51.8627 166.42 51.8005C166.779 51.7924 167.13 51.8252 167.468 51.895C169.703 52.3558 171.417 54.4263 171.474 56.9494Z" fill="#FDC8AA"/>
<path id="Vector_52" d="M165.149 59.9212L168.05 59.7668C168.153 59.7613 168.227 59.8892 168.189 60.0067C168.047 60.4369 167.644 61.2773 166.641 61.3597C165.62 61.4435 165.181 60.5889 165.027 60.1634C164.987 60.0519 165.051 59.9265 165.149 59.9212Z" fill="white"/>
<path id="Vector_53" d="M169.379 63.9697C168.211 65.1665 166.679 63.9403 166.679 63.9403C168.084 63.8632 169.229 62.8144 169.543 62.4619C169.576 62.4762 169.609 62.4908 169.642 62.5054C169.729 62.544 169.817 62.5839 169.906 62.6253C170.033 62.872 170.032 63.2999 169.379 63.9697Z" fill="white"/>
<path id="Vector_54" d="M166.679 63.94C166.679 63.94 166.036 64.6484 164.545 64.2574C163.437 63.9668 163.377 63.1704 163.419 62.781C163.458 62.7556 163.498 62.7308 163.538 62.706C163.555 62.6955 163.572 62.685 163.589 62.6748C165.178 64.0536 166.679 63.94 166.679 63.94Z" fill="white"/>
<path id="Vector_55" d="M167.468 51.895L167.509 53.6838C167.509 53.6838 162.383 54.5233 162.38 59.8829C161.91 59.0985 161.628 58.1717 161.605 57.1743C161.539 54.2685 163.695 51.8627 166.42 51.8005C166.779 51.7924 167.13 51.8253 167.468 51.895Z" fill="#F4A882"/>
<path id="Vector_56" d="M161.563 58.9197C161.61 58.8205 162.563 54.7608 164.107 54.3496C165.651 53.9384 167.98 54.2777 168.392 53.7125C168.804 53.1473 168.505 54.3638 170.088 55.6683C171.671 56.9728 172.084 56.4565 172.084 56.4565L171.157 53.0773C171.157 53.0773 168.047 51.497 167.883 51.4681C167.719 51.4391 166.137 50.8703 165.861 50.9747C165.586 51.079 163.958 51.3778 163.813 51.4955C163.669 51.6132 162.103 52.499 162.089 52.5974C162.075 52.6958 161.627 53.8504 161.618 54.1775C161.609 54.5047 160.989 56.6768 161.074 56.822C161.159 56.9672 161.563 58.9197 161.563 58.9197Z" fill="#1F3A6F"/>
</g>
</g>
</g>
<path id="Vector_57" opacity="0.15" d="M92.2952 103.182C95.3988 99.2714 97.1936 94.2752 97.002 88.8517C96.6001 77.4802 87.3403 68.2313 75.9683 67.8445C63.4107 67.4174 53.1267 77.6108 53.4047 90.1358C53.6616 101.712 63.1087 111.167 74.6849 111.442C77.3168 111.505 79.8425 111.093 82.192 110.299L92.8567 114.58C93.8048 114.96 94.7898 114.12 94.5591 113.124C93.9696 110.581 93.0198 106.457 92.2952 103.182Z" fill="#0E50AF"/>
<g id="Group_8">
<path id="Vector_58" d="M94.0853 100.037C97.1888 96.1264 98.9837 91.1302 98.792 85.7067C98.3902 74.3351 89.1304 65.0863 77.7583 64.6995C65.2008 64.2723 54.9167 74.4657 55.1947 86.9908C55.4516 98.5674 64.8987 108.022 76.4749 108.297C79.1068 108.36 81.6325 107.948 83.9821 107.154L94.6467 111.435C95.5948 111.815 96.5798 110.974 96.3491 109.979C95.7597 107.436 94.8099 103.312 94.0853 100.037Z" fill="white"/>
<path id="Vector_59" d="M80.1431 83.3437H89.6687C90.486 83.3437 91.1486 82.6811 91.1486 81.8638C91.1486 81.0464 90.486 80.3838 89.6687 80.3838H80.1431C79.3257 80.3838 78.6631 81.0464 78.6631 81.8638C78.6631 82.6811 79.3257 83.3437 80.1431 83.3437Z" fill="#3B82F4"/>
<path id="Vector_60" d="M83.9607 89.5747H93.4863C94.3037 89.5747 94.9662 88.9121 94.9662 88.0947C94.9662 87.2773 94.3037 86.6147 93.4863 86.6147H83.9607C83.1433 86.6147 82.4807 87.2773 82.4807 88.0947C82.4807 88.912 83.1433 89.5747 83.9607 89.5747Z" fill="#ECF3FE"/>
<path id="Vector_61" d="M62.541 89.5747H79.0405C79.8579 89.5747 80.5205 88.9121 80.5205 88.0947C80.5205 87.2773 79.8579 86.6147 79.0405 86.6147H62.541C61.7236 86.6147 61.061 87.2773 61.061 88.0947C61.061 88.912 61.7236 89.5747 62.541 89.5747Z" fill="#ECF3FE"/>
<path id="Vector_62" d="M64.6838 95.1347H88.77C89.5874 95.1347 90.25 94.4722 90.25 93.6548C90.25 92.8374 89.5874 92.1748 88.77 92.1748H64.6838C63.8665 92.1748 63.2039 92.8374 63.2039 93.6548C63.2039 94.4722 63.8665 95.1347 64.6838 95.1347Z" fill="#ECF3FE"/>
<path id="Vector_63" d="M70.0066 100.694H81.749C82.5664 100.694 83.229 100.031 83.229 99.2139C83.229 98.3965 82.5664 97.7339 81.749 97.7339H70.0066C69.1892 97.7339 68.5266 98.3965 68.5266 99.2139C68.5266 100.031 69.1892 100.694 70.0066 100.694Z" fill="#ECF3FE"/>
</g>
<g id="Group_9">
<path id="Vector_64" d="M78.6969 70.6375C78.7415 74.9454 76.5811 78.7622 73.2664 81.015C71.3187 82.339 68.9724 83.123 66.441 83.1492C63.8141 83.1763 61.3701 82.3835 59.3514 81.0086C56.1147 78.8051 53.973 75.1061 53.9294 70.8937C53.8587 64.0543 59.346 58.4527 66.1849 58.382C73.0242 58.3113 78.6262 63.7982 78.6969 70.6375Z" fill="#3B82F4"/>
<g id="Group_10">
<path id="Vector_65" d="M73.2668 81.0158C71.3191 82.3398 68.9728 83.1238 66.4414 83.15C63.8145 83.1771 61.3705 82.3844 59.3518 81.0094C59.9031 79.6651 61.0903 78.1157 63.5908 76.9559C63.6235 76.9407 63.6571 76.9255 63.6902 76.9107C63.7233 76.8954 63.7568 76.8806 63.7907 76.8654C63.7911 76.8654 63.7915 76.865 63.7919 76.865C63.8336 76.8466 63.8753 76.8281 63.9178 76.8101C63.9579 76.7924 63.9984 76.7752 64.0394 76.7583C64.062 76.7487 64.0849 76.739 64.1079 76.7298C64.1157 76.7266 64.1235 76.7234 64.1313 76.7202C64.1352 76.7185 64.1395 76.7165 64.1433 76.7154C64.1757 76.7017 64.208 76.6889 64.2408 76.6756C64.2922 76.6551 64.3441 76.6346 64.3967 76.6141C64.5593 76.5509 64.7269 76.4897 64.8997 76.4296C64.9496 76.4127 64.9996 76.3953 65.0503 76.3784L67.3594 76.3545C67.3594 76.3545 67.3677 76.3579 67.383 76.3644C67.3858 76.3656 67.3889 76.3667 67.3925 76.3682C67.3953 76.3694 67.3984 76.3705 67.4015 76.372C67.4094 76.3751 67.418 76.3789 67.4275 76.3831C67.4786 76.4049 67.5576 76.4393 67.6599 76.486C67.728 76.517 67.8066 76.5538 67.8943 76.5959C67.9117 76.6039 67.9297 76.6127 67.9478 76.6216C67.9844 76.6392 68.0222 76.658 68.0615 76.6772C68.1021 76.6971 68.1445 76.7182 68.1882 76.7404C68.2287 76.7607 68.2701 76.7818 68.3126 76.8037C68.3283 76.8121 68.3444 76.8202 68.3609 76.8287C68.4444 76.872 68.5314 76.9181 68.6223 76.9673C68.6612 76.988 68.7006 77.0099 68.7407 77.0318C70.1032 77.7818 72.14 79.1377 73.2668 81.0158Z" fill="#F4B545"/>
<path id="Vector_66" d="M68.7402 77.0319C66.2219 80.0307 64.1198 77.6621 63.5903 76.956C63.6562 76.9256 63.7228 76.8955 63.7902 76.8654C64.1786 76.6931 64.5978 76.5302 65.0498 76.3784L67.3589 76.3545C67.3589 76.3545 67.8754 76.5636 68.6217 76.9673C68.6607 76.9881 68.7001 77.01 68.7402 77.0319Z" fill="#FDC8AA"/>
<path id="Vector_67" d="M68.6221 76.9673C65.8331 78.5865 64.1756 77.2435 63.7905 76.8654C64.179 76.6931 64.5981 76.5302 65.0501 76.3784L67.3593 76.3545C67.3593 76.3545 67.8758 76.5636 68.6221 76.9673Z" fill="#F4A882"/>
<path id="Vector_68" d="M70.8569 72.2366C70.8569 72.2366 73.1168 71.2346 72.2842 66.4288C71.4517 61.623 69.3814 62.0358 68.3719 62.8291C67.3624 63.6224 62.9359 63.034 61.1888 64.6647C59.5636 66.1816 59.3577 73.0632 61.552 73.2933C63.7464 73.5235 70.8569 72.2366 70.8569 72.2366Z" fill="#1F3A6F"/>
<path id="Vector_69" d="M71.5994 71.42C71.6325 74.6179 69.3079 77.2347 66.4074 77.2647C64.1585 77.288 62.2243 75.7497 61.4529 73.5669C61.2292 72.9343 61.1035 72.2472 61.0961 71.5286C61.0697 68.978 62.5427 66.797 64.6122 66.0033C65.137 65.8018 65.7006 65.6899 66.2877 65.6839C69.1881 65.6538 71.5663 68.222 71.5994 71.42Z" fill="#FDC8AA"/>
<path id="Vector_70" d="M64.8696 74.4761L68.3447 74.3541C68.4685 74.3498 68.555 74.4752 68.5067 74.5893C68.3299 75.0071 67.8331 75.8218 66.6306 75.8923C65.4065 75.9639 64.8963 75.127 64.7194 74.7108C64.673 74.6018 64.7512 74.4803 64.8696 74.4761Z" fill="white"/>
<path id="Vector_71" d="M61.4529 73.5661C61.2292 72.9336 61.1035 72.2464 61.0961 71.5278C61.0697 68.9772 62.5427 66.7962 64.6122 66.0026C65.5913 65.9827 66.2676 65.9702 66.3114 65.9697C66.4797 65.968 68.4507 67.8045 68.4507 67.8045C68.4507 67.8045 61.1336 67.9663 61.4529 73.5661Z" fill="#F4A882"/>
<path id="Vector_72" d="M60.9417 70.4497C61.0724 70.4744 61.7355 69.3557 63.8632 68.1856C65.9908 67.0154 70.7138 68.5062 71.5847 69.9585C72.4556 71.4108 71.7216 66.0429 71.7216 66.0429C71.7216 66.0429 70.7943 64.6955 70.4285 64.6471C70.0626 64.5987 67.3991 64.4175 67.3991 64.4175L64.295 64.5279C64.295 64.5279 62.7624 65.1961 62.6846 65.2491C62.6069 65.3021 61.0612 68.1363 61.0612 68.1363L60.9417 70.4497Z" fill="#1F3A6F"/>
</g>
</g>
<path id="Vector_73" d="M85.7261 120.656L83.8159 116.82C83.6184 116.423 83.052 116.425 82.8574 116.823L80.9744 120.673C80.8971 120.831 80.747 120.941 80.573 120.967L76.3342 121.598C75.8961 121.663 75.723 122.202 76.0412 122.511L79.1207 125.491C79.2471 125.613 79.3052 125.79 79.2761 125.963L78.5666 130.19C78.4933 130.627 78.9527 130.958 79.3441 130.751L83.1302 128.743C83.2857 128.66 83.4717 128.66 83.6276 128.741L87.428 130.722C87.8208 130.927 88.2779 130.592 88.2014 130.156L87.4619 125.934C87.4316 125.761 87.4884 125.584 87.614 125.461L90.6722 122.459C90.9883 122.148 90.8113 121.61 90.3728 121.548L86.1295 120.947C85.9554 120.922 85.8045 120.813 85.7261 120.656Z" fill="white"/>
<path id="Vector_74" d="M103.011 120.656L101.101 116.82C100.904 116.423 100.337 116.425 100.143 116.823L98.2595 120.673C98.1822 120.831 98.0321 120.941 97.8582 120.967L93.6194 121.598C93.1813 121.663 93.0081 122.202 93.3264 122.511L96.4059 125.491C96.5322 125.613 96.5904 125.79 96.5612 125.963L95.8518 130.19C95.7784 130.627 96.2379 130.958 96.6292 130.751L100.415 128.743C100.571 128.66 100.757 128.66 100.913 128.741L104.713 130.722C105.106 130.927 105.563 130.592 105.487 130.156L104.747 125.934C104.717 125.761 104.774 125.584 104.899 125.461L107.957 122.459C108.273 122.148 108.096 121.61 107.658 121.548L103.415 120.947C103.241 120.922 103.09 120.813 103.011 120.656Z" fill="white"/>
<path id="Vector_75" d="M120.297 120.656L118.387 116.82C118.189 116.423 117.623 116.425 117.428 116.823L115.545 120.673C115.468 120.831 115.318 120.941 115.144 120.967L110.905 121.598C110.467 121.663 110.294 122.202 110.612 122.511L113.692 125.491C113.818 125.613 113.876 125.79 113.847 125.963L113.137 130.19C113.064 130.627 113.524 130.958 113.915 130.751L117.701 128.743C117.856 128.66 118.042 128.66 118.198 128.741L121.999 130.722C122.392 130.927 122.849 130.592 122.772 130.156L122.033 125.934C122.002 125.761 122.059 125.584 122.185 125.461L125.243 122.459C125.559 122.148 125.382 121.61 124.944 121.548L120.7 120.947C120.526 120.922 120.375 120.813 120.297 120.656Z" fill="white"/>
<path id="Vector_76" d="M137.582 120.656L135.672 116.82C135.474 116.423 134.908 116.425 134.713 116.823L132.83 120.673C132.753 120.831 132.603 120.941 132.429 120.967L128.19 121.598C127.752 121.663 127.579 122.202 127.897 122.511L130.976 125.491C131.103 125.613 131.161 125.79 131.132 125.963L130.422 130.19C130.349 130.627 130.808 130.958 131.2 130.751L134.986 128.743C135.141 128.66 135.327 128.66 135.483 128.741L139.284 130.722C139.676 130.927 140.134 130.592 140.057 130.156L139.318 125.934C139.287 125.761 139.344 125.584 139.47 125.461L142.528 122.459C142.844 122.148 142.667 121.61 142.228 121.548L137.985 120.947C137.811 120.922 137.66 120.813 137.582 120.656Z" fill="white"/>
<path id="Vector_77" d="M154.868 120.656L152.957 116.82C152.76 116.423 152.193 116.425 151.999 116.823L150.116 120.673C150.038 120.831 149.888 120.941 149.714 120.967L145.476 121.598C145.037 121.663 144.864 122.202 145.183 122.511L148.262 125.491C148.388 125.613 148.447 125.79 148.417 125.963L147.708 130.19C147.635 130.627 148.094 130.958 148.485 130.751L152.272 128.743C152.427 128.66 152.613 128.66 152.769 128.741L156.569 130.722C156.962 130.927 157.419 130.592 157.343 130.156L156.603 125.934C156.573 125.761 156.63 125.584 156.755 125.461L159.813 122.459C160.13 122.148 159.953 121.61 159.514 121.548L155.271 120.947C155.097 120.922 154.946 120.813 154.868 120.656Z" fill="white"/>
<path id="Vector_78" d="M109.983 48.4302C113.207 48.4302 115.82 45.8168 115.82 42.593C115.82 39.3692 113.207 36.7559 109.983 36.7559C106.759 36.7559 104.146 39.3692 104.146 42.593C104.146 45.8168 106.759 48.4302 109.983 48.4302Z" fill="#B7CAE5"/>
<path id="Vector_79" d="M57.3051 117.444C57.8133 115.222 56.4238 113.009 54.2017 112.5C51.9796 111.992 49.7663 113.382 49.2582 115.604C48.75 117.826 50.1395 120.039 52.3616 120.547C54.5837 121.056 56.797 119.666 57.3051 117.444Z" fill="#F4B545"/>
<path id="Vector_80" d="M102.071 185.013C103.396 185.013 104.47 183.938 104.47 182.613C104.47 181.288 103.396 180.214 102.071 180.214C100.746 180.214 99.6716 181.288 99.6716 182.613C99.6716 183.938 100.746 185.013 102.071 185.013Z" fill="#F4B545"/>
<path id="Vector_81" d="M190.024 131.131C191.349 131.131 192.423 130.057 192.423 128.732C192.423 127.407 191.349 126.333 190.024 126.333C188.699 126.333 187.625 127.407 187.625 128.732C187.625 130.057 188.699 131.131 190.024 131.131Z" fill="#B7CAE5"/>
</g>
</g>
</g>
</svg>
