<svg width="232" height="231" viewBox="0 0 232 231" fill="none" xmlns="http://www.w3.org/2000/svg">
<g id="19303513_check_signature31021 1">
<g id="Group">
<g id="Group_2">
<path id="Vector" opacity="0.5" d="M134.552 67.6132C136.729 67.6132 138.494 65.8482 138.494 63.6711C138.494 61.4939 136.729 59.729 134.552 59.729C132.375 59.729 130.61 61.4939 130.61 63.6711C130.61 65.8482 132.375 67.6132 134.552 67.6132Z" fill="#52D1BD"/>
<path id="Vector_2" d="M162.116 90.2325C155.413 70.394 169.216 56.9029 154.601 46.7099C133.021 31.6587 64.1941 43.017 44.415 88.7698C26.04 131.275 56.4299 187.558 105.741 196.14C153.531 204.458 209.406 164.902 199.022 137.471C192.666 120.68 174.09 125.667 162.116 90.2325Z" fill="#ECF3FE"/>
<path id="Vector_3" opacity="0.2" d="M192.362 98.4075L183.257 86.0964L117.198 76.2051C115.527 75.9548 113.969 77.1069 113.718 78.7784L99.4841 173.842C99.2338 175.514 100.386 177.072 102.057 177.322L175.798 188.363C177.47 188.614 179.028 187.462 179.278 185.79L192.034 100.598L192.362 98.4075Z" fill="#3A7EC1"/>
<g id="Group_3">
<path id="Vector_4" d="M184.023 85.5555L118.691 71.6483C117.038 71.2964 115.413 72.3512 115.061 74.0043L95.0472 168.021C94.6953 169.675 95.7501 171.3 97.4032 171.652L170.332 187.176C171.985 187.528 173.61 186.473 173.962 184.82L192.359 98.3997L184.023 85.5555Z" fill="#3B82F4"/>
<path id="Vector_5" d="M182.406 93.1518C182.054 94.8049 183.108 96.4303 184.762 96.7822L192.358 98.3993L184.023 85.5552L182.406 93.1518Z" fill="#9FCBFF"/>
<path id="Vector_6" d="M180.385 102.168L141.936 93.9835C140.938 93.7709 140.3 92.7892 140.513 91.7907C140.726 90.7921 141.707 90.155 142.706 90.3675L181.155 98.5523C182.154 98.7648 182.791 99.7466 182.578 100.745C182.366 101.744 181.384 102.381 180.385 102.168Z" fill="#B3CEF6"/>
<path id="Vector_7" d="M178.41 111.449L139.961 103.265C138.962 103.052 138.325 102.07 138.537 101.072C138.75 100.073 139.732 99.4362 140.73 99.6488L179.18 107.834C180.178 108.046 180.815 109.028 180.603 110.026C180.39 111.025 179.408 111.662 178.41 111.449Z" fill="#B3CEF6"/>
<path id="Vector_8" d="M176.434 120.73L118.893 108.481C117.895 108.268 117.258 107.287 117.47 106.288C117.683 105.29 118.664 104.653 119.663 104.865L177.204 117.114C178.203 117.326 178.84 118.308 178.627 119.307C178.414 120.305 177.433 120.942 176.434 120.73Z" fill="#B3CEF6"/>
<path id="Vector_9" d="M174.459 130.011L116.918 117.762C115.919 117.55 115.282 116.568 115.494 115.569C115.707 114.571 116.689 113.934 117.687 114.146L175.228 126.395C176.227 126.608 176.864 127.589 176.651 128.588C176.439 129.586 175.457 130.224 174.459 130.011Z" fill="#B3CEF6"/>
<path id="Vector_10" d="M157.778 136.161L114.942 127.042C113.943 126.83 113.306 125.848 113.519 124.849C113.731 123.851 114.713 123.214 115.712 123.426L158.548 132.545C159.546 132.757 160.184 133.739 159.971 134.738C159.758 135.736 158.777 136.373 157.778 136.161Z" fill="#B3CEF6"/>
<path id="Vector_11" d="M170.507 148.573L112.966 136.324C111.968 136.111 111.331 135.129 111.543 134.131C111.756 133.132 112.737 132.495 113.736 132.708L171.277 144.957C172.276 145.169 172.913 146.151 172.7 147.15C172.488 148.148 171.506 148.785 170.507 148.573Z" fill="#B3CEF6"/>
<path id="Vector_12" d="M168.531 157.854L110.99 145.605C109.992 145.393 109.355 144.411 109.567 143.412C109.78 142.414 110.762 141.777 111.76 141.989L169.301 154.238C170.3 154.45 170.937 155.432 170.724 156.431C170.512 157.429 169.53 158.066 168.531 157.854Z" fill="#B3CEF6"/>
<path id="Vector_13" d="M166.556 167.134L109.015 154.885C108.016 154.672 107.379 153.691 107.592 152.692C107.804 151.693 108.786 151.056 109.785 151.269L167.326 163.518C168.324 163.73 168.961 164.712 168.749 165.711C168.536 166.709 167.554 167.346 166.556 167.134Z" fill="#B3CEF6"/>
<path id="Vector_14" d="M164.58 176.415L107.039 164.167C106.041 163.954 105.404 162.972 105.616 161.974C105.829 160.975 106.81 160.338 107.809 160.551L165.35 172.799C166.348 173.012 166.986 173.994 166.773 174.992C166.561 175.991 165.579 176.628 164.58 176.415Z" fill="#B3CEF6"/>
<path id="Vector_15" d="M120.29 99.0769L131.821 101.531C132.5 101.676 133.167 101.243 133.312 100.564L135.534 90.1257C135.678 89.4468 135.245 88.7792 134.566 88.6347L123.035 86.1801C122.357 86.0356 121.689 86.4688 121.544 87.1478L119.322 97.5859C119.178 98.2648 119.611 98.9323 120.29 99.0769Z" fill="#B3CEF6"/>
<path id="Vector_16" d="M184.481 96.7231L191.898 100.566L192.359 98.4001L184.481 96.7231Z" fill="#1E6AD8"/>
</g>
<path id="Vector_17" opacity="0.2" d="M158.732 171.061L141.255 59.9294C140.947 57.9755 139.114 56.6405 137.16 56.9478L50.9556 70.5051C49.0015 70.8123 47.6667 72.6455 47.9739 74.5995L65.4514 185.731C65.7588 187.685 67.5919 189.02 69.5459 188.713L155.75 175.156C157.705 174.848 159.039 173.015 158.732 171.061Z" fill="#3A7EC1"/>
<g id="Group_4">
<path id="Vector_18" d="M156.012 174.802L69.1849 183.524C67.2168 183.722 65.461 182.287 65.2633 180.319L54.0189 68.3842C53.8212 66.4161 55.2565 64.6603 57.2246 64.4626L144.052 55.7404C146.02 55.5427 147.776 56.9779 147.973 58.946L159.218 170.88C159.415 172.849 157.98 174.604 156.012 174.802Z" fill="white"/>
<path id="Vector_19" d="M136.881 76.464L91.1043 81.0625C89.9155 81.1819 88.855 80.315 88.7356 79.1262C88.6162 77.9374 89.4831 76.8768 90.6719 76.7574L136.449 72.1589C137.637 72.0395 138.698 72.9064 138.817 74.0952C138.937 75.2841 138.07 76.3446 136.881 76.464Z" fill="#E4ECF9"/>
<path id="Vector_20" d="M137.991 87.5128L92.2142 92.1113C91.0254 92.2307 89.9649 91.3638 89.8455 90.175C89.7261 88.9862 90.593 87.9257 91.7818 87.8063L137.558 83.2078C138.747 83.0884 139.808 83.9553 139.927 85.1441C140.047 86.3329 139.18 87.3934 137.991 87.5128Z" fill="#E4ECF9"/>
<path id="Vector_21" d="M139.101 98.5631L70.5943 105.445C69.4055 105.564 68.345 104.697 68.2256 103.509C68.1062 102.32 68.9731 101.259 70.1619 101.14L138.669 94.2581C139.858 94.1387 140.918 95.0056 141.038 96.1944C141.157 97.3831 140.29 98.4436 139.101 98.5631Z" fill="#E4ECF9"/>
<path id="Vector_22" d="M140.211 109.612L71.7042 116.494C70.5154 116.613 69.4549 115.746 69.3355 114.557C69.2161 113.369 70.0829 112.308 71.2718 112.189L139.779 105.307C140.967 105.187 142.028 106.054 142.147 107.243C142.267 108.432 141.4 109.492 140.211 109.612Z" fill="#E4ECF9"/>
<path id="Vector_23" d="M123.814 122.42L72.8141 127.543C71.6252 127.663 70.5647 126.796 70.4453 125.607C70.3259 124.418 71.1928 123.358 72.3816 123.238L123.381 118.115C124.57 117.996 125.631 118.862 125.75 120.051C125.87 121.24 125.003 122.301 123.814 122.42Z" fill="#E4ECF9"/>
<path id="Vector_24" d="M142.431 131.711L73.9239 138.593C72.7351 138.712 71.6746 137.845 71.5552 136.657C71.4358 135.468 72.3027 134.407 73.4915 134.288L141.998 127.406C143.187 127.287 144.248 128.154 144.367 129.342C144.487 130.531 143.62 131.592 142.431 131.711Z" fill="#E4ECF9"/>
<path id="Vector_25" d="M143.541 142.76L75.0338 149.642C73.845 149.761 72.7845 148.894 72.665 147.705C72.5456 146.517 73.4125 145.456 74.6013 145.337L143.108 138.455C144.297 138.335 145.358 139.202 145.477 140.391C145.596 141.58 144.73 142.64 143.541 142.76Z" fill="#E4ECF9"/>
<path id="Vector_26" d="M144.651 153.81L76.1436 160.692C74.9548 160.811 73.8943 159.945 73.7749 158.756C73.6555 157.567 74.5224 156.506 75.7112 156.387L144.218 149.505C145.407 149.386 146.467 150.253 146.587 151.441C146.706 152.63 145.839 153.691 144.651 153.81Z" fill="#E4ECF9"/>
<path id="Vector_27" d="M145.76 164.859L77.2535 171.741C76.0647 171.86 75.0042 170.993 74.8848 169.805C74.7654 168.616 75.6323 167.555 76.8211 167.436L145.328 160.554C146.517 160.435 147.577 161.301 147.697 162.49C147.816 163.679 146.949 164.74 145.76 164.859Z" fill="#E4ECF9"/>
<path id="Vector_28" d="M68.7957 94.4643L82.5239 93.0852C83.3322 93.004 83.9217 92.2829 83.8405 91.4746L82.5921 79.0472C82.5109 78.2389 81.7898 77.6494 80.9815 77.7306L67.2533 79.1097C66.4449 79.1909 65.8555 79.912 65.9367 80.7203L67.185 93.1477C67.2662 93.956 67.9874 94.5455 68.7957 94.4643Z" fill="#52D1BD"/>
</g>
<path id="Vector_29" opacity="0.2" d="M182.604 198.362L166.437 170.985L164.732 171.992L161.745 166.933C163.417 165.605 164.875 164.086 166.094 162.421C167.583 160.391 168.726 158.15 169.498 155.791C171.551 149.539 171.001 142.471 167.392 136.363C166.668 135.138 165.852 134.002 164.958 132.96C162.963 130.632 160.575 128.768 157.955 127.406C150.943 123.751 142.261 123.692 134.95 128.008C133.887 128.637 132.891 129.334 131.966 130.091C129.595 132.035 127.677 134.376 126.256 136.959C122.386 143.988 122.189 152.803 126.483 160.235C126.522 160.307 126.561 160.375 126.603 160.446C127.865 162.586 129.413 164.454 131.167 166.029C137.865 172.051 147.588 173.824 156.098 170.268L159.085 175.326L157.38 176.333L173.547 203.71C174.335 205.046 176.057 205.489 177.393 204.701L181.614 202.208C182.949 201.419 183.393 199.697 182.604 198.362Z" fill="#3A7EC1"/>
<g id="Group_5">
<path id="Vector_30" d="M161.809 159.515C159.972 162.025 157.603 164.212 154.755 165.893C145.629 171.281 134.366 169.852 126.883 163.124L161.809 159.515Z" fill="white"/>
<path id="Vector_31" d="M160.674 130.055L121.971 134.054C123.392 131.471 125.311 129.13 127.682 127.186L153.671 124.5C156.291 125.862 158.679 127.727 160.674 130.055Z" fill="#E4ECF9"/>
<path id="Vector_32" d="M165.213 152.886C164.442 155.245 163.299 157.485 161.809 159.515L126.882 163.124C125.128 161.548 123.581 159.681 122.318 157.541C122.276 157.47 122.237 157.401 122.198 157.33L165.213 152.886Z" fill="#E4ECF9"/>
<path id="Vector_33" d="M156.647 162.638L151 165.973L155.455 173.518L161.102 170.183L156.647 162.638Z" fill="#4C4C4C"/>
<path id="Vector_34" d="M163.107 133.457C162.383 132.233 161.567 131.096 160.674 130.055C158.679 127.726 156.291 125.862 153.671 124.5C146.659 120.846 137.976 120.786 130.665 125.102C129.602 125.731 128.607 126.428 127.682 127.185C125.311 129.129 123.392 131.47 121.971 134.053C118.101 141.082 117.904 149.897 122.199 157.33C122.238 157.401 122.277 157.469 122.319 157.54C123.581 159.681 125.128 161.548 126.883 163.124C134.367 169.852 145.629 171.281 154.755 165.893C157.603 164.212 159.972 162.025 161.81 159.515C163.299 157.485 164.442 155.244 165.213 152.885C167.267 146.633 166.717 139.565 163.107 133.457ZM160.442 153.378C159.303 155.941 157.604 158.276 155.397 160.178C154.532 160.925 153.59 161.603 152.573 162.204C146.432 165.831 139.109 165.685 133.293 162.462C130.854 161.113 128.678 159.221 126.967 156.837C126.629 156.367 126.308 155.876 126.006 155.367C121.816 148.269 122.66 139.593 127.472 133.485C128.915 131.651 130.715 130.05 132.844 128.792C140.117 124.497 149.047 125.491 155.171 130.623C156.818 132.001 158.262 133.682 159.418 135.636C162.732 141.244 162.897 147.841 160.442 153.378Z" fill="#5E5E5E"/>
<path id="Vector_35" d="M177.329 199.303L173.109 201.795C171.773 202.584 170.051 202.14 169.262 200.805L153.095 173.428L162.153 168.079L178.32 195.456C179.108 196.792 178.665 198.514 177.329 199.303Z" fill="#5E5E5E"/>
</g>
<path id="Vector_36" d="M41.9934 108.779C43.7776 106.995 43.7776 104.102 41.9934 102.318C40.2092 100.534 37.3165 100.534 35.5323 102.318C33.7481 104.102 33.7481 106.995 35.5323 108.779C37.3165 110.564 40.2092 110.564 41.9934 108.779Z" fill="#F9C067"/>
<path id="Vector_37" d="M47.8992 96.3923C48.1298 94.9502 47.1477 93.5942 45.7055 93.3636C44.2634 93.133 42.9074 94.1151 42.6768 95.5573C42.4462 96.9994 43.4284 98.3554 44.8705 98.586C46.3126 98.8166 47.6686 97.8344 47.8992 96.3923Z" fill="#F9C067"/>
<path id="Vector_38" opacity="0.2" d="M68.389 137.071C75.2138 130.246 75.2138 119.181 68.389 112.356C61.5642 105.531 50.4991 105.531 43.6743 112.356C36.8495 119.181 36.8495 130.246 43.6743 137.071C50.4991 143.896 61.5642 143.896 68.389 137.071Z" fill="#3A7EC1"/>
<path id="Vector_39" d="M71.4039 134.166C78.2287 127.341 78.2287 116.276 71.4039 109.451C64.5791 102.626 53.514 102.626 46.6892 109.451C39.8644 116.276 39.8644 127.341 46.6892 134.166C53.5139 140.991 64.5791 140.991 71.4039 134.166Z" fill="#F9C067"/>
<path id="Vector_40" d="M56.5713 132.283C56.3603 132.318 56.139 132.304 55.9238 132.234L51.4548 130.785C50.7318 130.55 50.3357 129.774 50.5702 129.051C50.8045 128.328 51.5808 127.932 52.3041 128.166L55.6606 129.255L63.7157 113.624C64.0638 112.948 64.8941 112.683 65.5696 113.031C66.2453 113.379 66.5108 114.209 66.1626 114.885L57.5719 131.555C57.3666 131.954 56.9894 132.214 56.5713 132.283Z" fill="white"/>
<path id="Vector_41" d="M120.979 191.766C122.152 191.766 123.103 190.815 123.103 189.642C123.103 188.469 122.152 187.518 120.979 187.518C119.806 187.518 118.855 188.469 118.855 189.642C118.855 190.815 119.806 191.766 120.979 191.766Z" fill="#3B82F4"/>
<path id="Vector_42" d="M179.054 69.5135C181.231 69.5135 182.996 67.7486 182.996 65.5715C182.996 63.3943 181.231 61.6294 179.054 61.6294C176.876 61.6294 175.112 63.3943 175.112 65.5715C175.112 67.7486 176.876 69.5135 179.054 69.5135Z" fill="#52D1BD"/>
</g>
</g>
</g>
</svg>
