<svg width="232" height="231" viewBox="0 0 232 231" fill="none" xmlns="http://www.w3.org/2000/svg">
<g id="5124557 1">
<g id="OBJECTS">
<g id="Group">
<g id="Group_2">
<path id="Vector" d="M200.795 123.037H180.194C178.919 123.037 177.885 122.003 177.885 120.728V110.444C177.885 109.169 178.919 108.135 180.194 108.135H200.795C202.07 108.135 203.104 109.169 203.104 110.444V120.728C203.104 122.003 202.07 123.037 200.795 123.037Z" fill="#60A8FF"/>
<path id="Vector_2" d="M190.493 128.864L193.758 121.126H187.229L190.493 128.864Z" fill="#60A8FF"/>
</g>
<g id="Group_3">
<g id="Group_4">
<g id="Group_5">
<path id="Vector_3" d="M190.416 113.028H196.313V113.891L199.204 112.223L196.313 110.557V111.42H190.416V113.028Z" fill="#223A7A"/>
</g>
<g id="Group_6">
<path id="Vector_4" d="M199.204 116.419H193.307V115.556L190.416 117.223L193.307 118.89V118.027H199.204V116.419Z" fill="white"/>
</g>
</g>
<g id="Group_7">
<path id="Vector_5" d="M186.795 117.935L186.515 118.037C186.515 118.037 185.64 117.038 185.185 115.95C184.731 114.862 184.715 113.533 184.715 113.533L184.92 113.447L183.673 110.463C183.451 110.636 183.239 110.86 183.068 111.149C182.362 112.342 182.432 114.172 183.142 115.96C183.852 117.748 184.611 119.343 185.996 120.346C186.813 120.937 187.513 121.041 188.057 120.955L186.795 117.935Z" fill="#223A7A"/>
<path id="Vector_6" d="M187.69 117.584L187.302 117.725L188.578 120.78C188.722 120.733 188.852 120.675 188.964 120.614C189.294 120.433 189.438 120.036 189.3 119.687L188.633 118.008C188.485 117.634 188.067 117.447 187.69 117.584Z" fill="#223A7A"/>
<path id="Vector_7" d="M184.649 109.94C184.492 109.997 184.321 110.073 184.149 110.174L185.423 113.223L185.852 113.043C186.223 112.888 186.403 112.464 186.257 112.089L185.588 110.371C185.442 109.998 185.026 109.804 184.649 109.94Z" fill="#223A7A"/>
</g>
</g>
</g>
<g id="Group_8">
<path id="Vector_8" d="M69.1037 171.914V137.525C69.1037 137.525 68.7214 128.259 73.5932 125.585C78.4651 122.91 99.0027 124.343 99.0027 124.343V171.913H69.1037V171.914Z" fill="#1C83FF"/>
</g>
<g id="Group_9">
<g id="Group_10">
<path id="Vector_9" d="M105.418 92.1514C105.418 92.1514 104.176 102.564 103.699 103.423C103.221 104.283 103.221 104.283 103.221 104.283L100.833 105.907C100.833 105.907 105.418 112.402 111.054 113.453C116.69 114.504 116.212 111.161 116.212 111.161L115.352 109.346L116.499 99.4115C116.499 99.4115 106.278 94.7309 105.418 92.1514Z" fill="#FF9D8C"/>
</g>
<path id="Vector_10" d="M97.8711 106.766L101.597 105.143C101.597 105.143 103.984 109.059 109.525 111.351C115.065 113.644 115.161 112.307 115.447 111.351C115.734 110.396 115.352 109.345 115.352 109.345L115.762 106.001L117.978 106.74L125.668 168.952L105.895 169.908L97.8711 106.766Z" fill="white"/>
<g id="Group_11">
<path id="Vector_11" d="M116.117 106.065C116.117 106.065 117.454 109.154 118.696 116.414C119.938 123.674 121.084 135.901 121.37 144.307C121.657 152.713 121.848 171.913 121.848 171.913C121.848 171.913 146.493 171.913 146.779 171.913C147.066 171.913 148.785 162.456 148.785 162.456C148.785 162.456 137.896 153.127 137.322 151.598C136.94 150.579 137.131 131.698 135.507 123.005C133.884 114.312 131.782 112.561 127.388 110.396C122.847 108.158 116.117 106.065 116.117 106.065Z" fill="#223A7A"/>
</g>
<g id="Group_12">
<path id="Vector_12" d="M129.108 160.969C128.981 160.969 128.877 160.865 128.877 160.738C128.877 160.055 128.756 150.352 128.639 140.968C128.521 131.582 128.399 121.877 128.399 121.191C128.399 121.064 128.503 120.96 128.63 120.96C128.758 120.96 128.861 121.064 128.861 121.191C128.861 121.874 128.983 131.578 129.1 140.962C129.218 150.347 129.339 160.052 129.339 160.738C129.339 160.866 129.236 160.969 129.108 160.969Z" fill="#8593B6"/>
</g>
<g id="Group_13">
<path id="Vector_13" d="M79.4353 158.637L79.2441 171.915H108.283C108.283 171.915 109.525 160.643 109.048 159.592C108.57 158.541 79.4353 158.637 79.4353 158.637Z" fill="#223A7A"/>
</g>
<g id="Group_14">
<path id="Vector_14" d="M111.754 103.136C112.938 104.09 114.556 104.856 115.817 105.319L116.498 99.411C116.498 99.411 108.821 95.8942 106.216 93.2773C106.761 96.2502 108.1 100.19 111.754 103.136Z" fill="#8E9BBB"/>
</g>
<g id="Group_15">
<path id="Vector_15" d="M125.479 72.761C125.479 72.761 127.485 76.1997 127.867 80.4029C128.249 84.6058 127.867 95.4002 124.428 99.9853C120.989 104.57 113.825 103.233 110.577 100.463C107.596 97.9206 104.654 95.114 103.89 89.5736C103.126 84.0333 105.514 73.5255 112.296 71.3288C119.078 69.1311 125.479 72.761 125.479 72.761Z" fill="#FF9D8C"/>
</g>
<g id="Group_16">
<g id="Group_17">
<path id="Vector_16" d="M134.096 165.908C134.096 165.908 133.759 165.908 133.247 165.895C133.127 165.89 132.993 165.895 132.854 165.89C132.36 165.876 131.76 165.862 131.155 165.844C131.021 165.839 130.883 165.835 130.749 165.83C130.149 165.816 129.636 165.89 129.156 165.862H129.142C129.041 165.858 128.893 165.871 128.773 165.876C128.713 165.881 128.657 165.885 128.62 165.881C128.343 165.83 128.288 165.765 127.988 165.631C127.6 165.456 122.351 164.283 118.08 164.311C113.814 164.329 109.986 164.62 109.363 164.099C108.735 163.568 108.357 158.207 111.999 157.856L116.478 159.555C116.478 159.555 126.704 158.341 130.453 161.107C134.212 163.872 134.096 165.908 134.096 165.908Z" fill="#FF9D8C"/>
</g>
<g id="Group_18">
<g id="Group_19">
<path id="Vector_17" d="M129.146 165.862C129.044 165.857 128.897 165.871 128.777 165.876C128.684 165.728 128.49 165.46 128.384 165.35C127.23 164.172 124.441 163.41 123.43 163.166C123.338 163.143 123.278 163.05 123.301 162.958C123.319 162.866 123.416 162.81 123.513 162.829C124.986 163.184 128.112 164.094 128.998 165.585C129.026 165.627 129.1 165.77 129.146 165.862Z" fill="#223A7A"/>
</g>
</g>
<g id="Group_20">
<g id="Group_21">
<path id="Vector_18" d="M131.159 165.843C131.025 165.84 130.887 165.837 130.753 165.829C129.493 163.531 127.431 162.871 124.883 162.051L124.732 162.001C124.645 161.971 124.592 161.873 124.622 161.782C124.652 161.694 124.746 161.641 124.842 161.672L124.989 161.722C127.682 162.586 129.85 163.281 131.159 165.843Z" fill="#223A7A"/>
</g>
</g>
<g id="Group_22">
<g id="Group_23">
<path id="Vector_19" d="M133.244 165.895C133.124 165.893 132.99 165.894 132.851 165.89C132.087 164.283 129.557 161.593 126.21 160.967C126.114 160.951 126.051 160.862 126.067 160.765C126.088 160.673 126.177 160.61 126.269 160.627C129.717 161.274 132.498 164.09 133.244 165.895Z" fill="#223A7A"/>
</g>
</g>
</g>
<g id="Group_24">
<path id="Vector_20" d="M106.184 84.8442C106.184 84.8442 108.286 83.8414 109.766 81.0232C111.247 78.2055 111.056 75.674 111.056 75.674C111.056 75.674 113.731 75.2441 117.743 76.4381C121.755 77.632 126.531 79.2558 130.543 76.9635C134.555 74.6712 134.555 70.9933 132.596 69.4651C130.403 67.7536 126.053 68.7966 126.053 68.7966C126.053 68.7966 127.725 67.1728 126.817 66.2175C125.91 65.2623 122.614 66.5042 122.614 66.5042C122.614 66.5042 118.602 63.3042 111.008 63.6865C103.414 64.0688 99.7845 69.37 99.3547 75.2926C98.9249 81.2153 101.074 87.1374 101.074 87.1374L106.184 84.8442Z" fill="#223A7A"/>
</g>
<g id="Group_25">
<g id="Group_26">
<path id="Vector_21" d="M121.588 86.2787C121.158 87.3396 121.168 88.571 121.06 89.6971C120.975 90.5729 120.815 91.5942 121.617 92.1856C122 92.4682 123.814 93.23 122.881 93.8472C122.526 94.0827 121.93 94.0181 121.525 93.9996C121.246 93.9867 120.965 93.9751 120.686 93.9544C120.387 93.9317 120.093 93.8417 119.793 93.8403C119.618 93.8394 119.563 94.0735 119.706 94.163C120.189 94.465 120.896 94.5583 121.458 94.58C122.02 94.6017 122.402 94.5758 122.908 94.3246C123.219 94.1704 123.521 93.9516 123.571 93.5818C123.626 93.1653 123.314 92.7918 123 92.5591C122.639 92.2913 122.196 92.1667 121.831 91.9054C121.326 91.5434 121.367 90.9335 121.403 90.3688C121.488 89.0105 121.8 87.6762 121.922 86.3239C121.94 86.1171 121.654 86.1171 121.588 86.2787Z" fill="#8E9BBB"/>
</g>
</g>
<g id="Group_27">
<path id="Vector_22" d="M125.493 89.456C125.35 90.2612 124.765 90.8309 124.184 90.7279C123.604 90.6254 123.249 89.8895 123.392 89.0843C123.535 88.2791 124.12 87.7094 124.7 87.8123C125.28 87.9148 125.635 88.6508 125.493 89.456Z" fill="#223A7A"/>
</g>
<g id="Group_28">
<path id="Vector_23" d="M118.183 88.8175C118.053 89.6864 117.441 90.3148 116.816 90.222C116.19 90.1287 115.787 89.3489 115.917 88.4805C116.046 87.6115 116.658 86.9832 117.284 87.076C117.909 87.1688 118.312 87.9491 118.183 88.8175Z" fill="#223A7A"/>
</g>
<g id="Group_29">
<g id="Group_30">
<path id="Vector_24" d="M123.794 86.1362C124.24 86.2114 124.691 86.1348 125.141 86.1662C125.249 86.1736 125.356 86.1897 125.464 86.1999C125.541 86.2073 125.321 86.1773 125.428 86.1948C125.451 86.1985 125.474 86.2022 125.497 86.2064C125.554 86.2165 125.61 86.2281 125.666 86.2415C125.761 86.265 125.855 86.301 125.951 86.3218C126.038 86.3407 126.135 86.3615 126.223 86.3573C126.271 86.3509 126.321 86.344 126.37 86.3375C126.339 86.343 126.308 86.3486 126.277 86.3541C126.277 86.3647 126.445 86.3379 126.46 86.3343C126.716 86.2747 126.874 85.9778 126.802 85.7308C126.782 85.6593 126.75 85.5951 126.705 85.5364C126.686 85.5111 126.667 85.4861 126.646 85.4621C126.664 85.4829 126.682 85.5037 126.7 85.524C126.681 85.4972 126.662 85.4709 126.641 85.4455C126.615 85.4026 126.581 85.3689 126.539 85.3435C126.503 85.3158 126.468 85.2871 126.431 85.2613C126.313 85.1791 126.157 85.1311 126.017 85.0951C125.75 85.0263 125.471 84.9912 125.196 84.9898C124.923 84.9884 124.653 85.017 124.383 85.0544C124.145 85.0872 123.879 85.168 123.686 85.3121C123.537 85.4233 123.445 85.566 123.471 85.7613C123.493 85.9229 123.62 86.1066 123.794 86.1362Z" fill="#223A7A"/>
</g>
</g>
<g id="Group_31">
<g id="Group_32">
<path id="Vector_25" d="M118.701 84.8596C118.641 84.8236 118.579 84.7922 118.515 84.7631C118.46 84.7382 118.312 84.6611 118.424 84.7221C118.383 84.6999 118.343 84.6777 118.301 84.6565C118.116 84.5632 117.924 84.5009 117.724 84.4497C117.288 84.3384 116.829 84.3102 116.382 84.3573C115.906 84.4076 115.47 84.5231 115.057 84.7719C114.999 84.807 114.939 84.8416 114.89 84.8901C114.857 84.9317 114.825 84.9732 114.794 85.0157C114.803 85.0018 114.812 84.988 114.821 84.9741C114.694 85.0632 114.62 85.2096 114.621 85.3634C114.622 85.5116 114.699 85.6358 114.827 85.7073C114.984 85.7941 115.131 85.7526 115.291 85.711C115.211 85.711 115.13 85.711 115.05 85.711C115.182 85.7318 115.276 85.7369 115.41 85.7073C115.414 85.7064 115.538 85.6755 115.457 85.6925C115.38 85.7087 115.586 85.6764 115.609 85.6732C115.635 85.6695 115.779 85.6551 115.627 85.6699C115.655 85.6671 115.683 85.6635 115.711 85.6602C115.783 85.6515 115.855 85.6427 115.927 85.6367C116.243 85.6113 116.557 85.5974 116.873 85.5868C117.166 85.5771 117.465 85.5748 117.757 85.5877C117.883 85.5933 118.008 85.5974 118.134 85.6007C118.204 85.6025 118.174 85.6136 118.126 85.5984C118.152 85.6067 118.178 85.6113 118.204 85.6187C118.256 85.633 118.308 85.6501 118.359 85.6695C118.562 85.747 118.806 85.6002 118.882 85.4128C118.965 85.2096 118.895 84.9751 118.701 84.8596Z" fill="#223A7A"/>
</g>
</g>
<g id="Group_33">
<path id="Vector_26" d="M120.962 98.1378C121.4 97.2564 122.198 96.6105 123.12 96.195C122.319 96.1137 118.541 95.7638 117.587 96.3053C116.519 96.912 117.785 99.347 119.993 99.4693C120.226 99.4823 120.436 99.4633 120.637 99.4319C120.656 98.9873 120.758 98.5473 120.962 98.1378Z" fill="#223A7A"/>
</g>
<g id="Group_34">
<path id="Vector_27" d="M103.51 93.0107C103.51 93.0107 103.892 94.4914 106.089 96.2107C108.286 97.9301 111.47 99.1877 111.47 99.1877L111.725 98.0732C111.725 98.0732 108.429 96.6401 106.901 95.0643C105.373 93.4881 105.182 92.6284 105.182 92.6284L103.51 93.0107Z" fill="#DEE1EB"/>
</g>
<g id="Group_35">
<path id="Vector_28" d="M112.102 97.2496C113.87 97.1674 114.857 98.5654 114.98 99.4699C115.103 100.374 114.254 101.389 112.266 100.498C109.798 99.3909 110.334 97.3317 112.102 97.2496Z" fill="#223A7A"/>
</g>
<g id="Group_36">
<path id="Vector_29" d="M104.894 82.0742C104.894 82.0742 105.657 76.5846 109.336 72.8564C116.357 65.7399 122.327 66.1697 122.327 66.1697C122.327 66.1697 122.279 65.1669 120.034 64.4023C117.927 63.6848 116.977 64.068 116.977 64.068C116.977 64.068 111.198 64.5459 106.326 69.9427C101.455 75.3399 100.929 82.2173 100.929 82.2173L104.894 82.0742Z" fill="#DEE1EB"/>
</g>
<g id="Group_37">
<g id="Group_38">
<path id="Vector_30" d="M104.366 81.4058C99.7661 80.626 97.2014 84.224 97.0103 87.8534C96.8191 91.4833 99.4568 94.2428 102.98 93.9667C110.909 93.3462 110.001 82.3611 104.366 81.4058Z" fill="white"/>
</g>
<g id="Group_39">
<path id="Vector_31" d="M102.075 90.4404C100.861 90.4404 99.835 89.8305 99.2482 88.7557C98.6199 87.6047 98.6725 86.1877 99.3826 85.1461C99.4366 85.0676 99.5442 85.0473 99.6231 85.1004C99.7021 85.1544 99.7224 85.262 99.6688 85.341C99.0312 86.2764 98.9855 87.5516 99.5525 88.5895C100.09 89.5747 101.039 90.1325 102.164 90.0923C103.215 90.0641 104.105 89.5835 104.672 88.7386C105.318 87.7746 105.467 86.4426 105.05 85.3465C104.637 84.2592 103.504 83.5173 102.474 83.6521C102.381 83.6646 102.292 83.5981 102.279 83.5034C102.267 83.4088 102.333 83.322 102.428 83.309C103.633 83.1484 104.898 83.972 105.374 85.2232C105.828 86.4213 105.666 87.8771 104.959 88.9311C104.328 89.8721 103.339 90.4072 102.173 90.4386C102.14 90.4399 102.108 90.4404 102.075 90.4404Z" fill="#818FB3"/>
</g>
</g>
<g id="Group_40">
<path id="Vector_32" d="M98.7318 105.429C98.7318 105.429 84.7853 108.867 79.9135 114.408C75.0416 119.948 72.7493 147.268 72.6538 152.331C72.5582 157.394 76.0925 159.495 78.1941 160.928C80.2958 162.36 89.5615 164.94 97.0124 165.322C104.463 165.704 111.532 165.322 111.532 165.322C111.532 165.322 111.508 163.698 112.654 161.31C113.717 159.095 115.066 158.635 115.066 158.635L108.666 156.342C108.666 156.342 107.546 136.261 105.8 126.539C103.795 115.363 98.7318 105.429 98.7318 105.429Z" fill="#223A7A"/>
</g>
<g id="Group_41">
<path id="Vector_33" d="M121.85 153.134C121.818 153.134 121.786 153.128 121.756 153.114C121.64 153.063 121.587 152.926 121.639 152.81C122.945 149.862 124.299 144.074 125.062 140.013L125.124 139.685C125.355 138.491 125.642 137.005 125.07 135.98C124.777 135.457 124.117 134.322 123.482 133.231C122.823 132.098 122.201 131.028 122.029 130.709C121.692 130.085 122.751 128.42 124.285 126.135C124.699 125.517 125.057 124.984 125.266 124.623C125.812 123.677 125.449 122.811 125.027 121.808L124.883 121.463C124.502 120.525 124.067 119.586 123.648 118.678C123.477 118.307 123.305 117.936 123.136 117.562C122.912 117.068 122.687 116.566 122.459 116.058C121.109 113.049 119.713 109.937 117.926 106.932C117.86 106.822 117.897 106.681 118.006 106.615C118.115 106.55 118.257 106.586 118.323 106.696C120.123 109.725 121.525 112.848 122.88 115.869C123.108 116.377 123.333 116.878 123.557 117.372C123.726 117.744 123.896 118.114 124.068 118.485C124.49 119.397 124.925 120.342 125.311 121.289L125.453 121.629C125.883 122.652 126.327 123.71 125.666 124.853C125.449 125.228 125.088 125.767 124.669 126.391C123.87 127.583 122.206 130.063 122.436 130.489C122.605 130.802 123.225 131.869 123.882 132.999C124.518 134.092 125.18 135.23 125.473 135.754C126.129 136.927 125.823 138.505 125.579 139.773L125.516 140.098C125.238 141.577 123.767 149.149 122.062 152.997C122.022 153.083 121.938 153.134 121.85 153.134Z" fill="#8593B6"/>
</g>
<g id="Group_42">
<path id="Vector_34" d="M108.234 153.947C108.175 153.947 108.115 153.924 108.07 153.879C106.984 152.785 101.75 143.721 101.361 142.017C101.147 141.083 101.683 138.717 102.2 136.428C102.602 134.655 103.017 132.821 102.899 132.324C102.723 131.582 101.384 130.489 100.089 129.431C98.5257 128.154 96.9088 126.833 96.5958 125.643C96.2398 124.29 96.5441 115.825 96.7454 110.223C96.8179 108.209 96.8747 106.618 96.8747 106.05C96.8747 105.923 96.9781 105.819 97.1051 105.819C97.2325 105.819 97.3364 105.922 97.3364 106.05C97.3364 106.625 97.2791 108.221 97.2066 110.24C97.0187 115.476 96.7038 124.239 97.0418 125.526C97.317 126.57 98.9449 127.9 100.381 129.074C101.797 130.231 103.135 131.324 103.348 132.218C103.49 132.818 103.101 134.538 102.65 136.53C102.168 138.664 101.62 141.083 101.81 141.914C102.192 143.585 107.332 152.48 108.398 153.554C108.487 153.644 108.487 153.791 108.396 153.88C108.352 153.924 108.293 153.947 108.234 153.947Z" fill="#8593B6"/>
</g>
<g id="Group_43">
<path id="Vector_35" d="M89.4672 149.982C89.4566 149.982 89.4455 149.981 89.4349 149.98C89.3088 149.962 89.2207 149.845 89.2387 149.719C89.4081 148.518 92.0578 124.603 92.1797 122.771C92.1884 122.643 92.2979 122.544 92.4253 122.556C92.5523 122.564 92.6488 122.674 92.6404 122.801C92.5186 124.636 89.8656 148.581 89.6957 149.784C89.6791 149.899 89.5803 149.982 89.4672 149.982Z" fill="#8593B6"/>
</g>
<g id="Group_44">
<path id="Vector_36" d="M108.477 156.479C108.448 156.479 108.419 156.473 108.39 156.462C107.803 156.224 105.209 155.349 101.925 154.241C95.2956 152.005 86.2163 148.944 84.4901 148.047C84.3769 147.988 84.3331 147.849 84.3917 147.736C84.4504 147.622 84.5893 147.577 84.7029 147.637C86.3978 148.518 95.8307 151.699 102.072 153.803C105.364 154.914 107.965 155.79 108.564 156.033C108.682 156.081 108.739 156.216 108.691 156.334C108.654 156.424 108.568 156.479 108.477 156.479Z" fill="#8593B6"/>
</g>
<g id="Group_45">
<path id="Vector_37" d="M105.288 166.002C99.4534 166.002 88.1427 164.95 79.5506 161.911C79.4301 161.868 79.3673 161.737 79.4098 161.616C79.4518 161.496 79.5852 161.433 79.7043 161.475C90.5588 165.315 105.743 165.971 108.568 165.336C108.693 165.309 108.816 165.387 108.844 165.511C108.872 165.636 108.794 165.759 108.669 165.787C108.058 165.924 106.876 166.002 105.288 166.002Z" fill="#8593B6"/>
</g>
</g>
<g id="Group_46">
<g id="Group_47">
<g id="Group_48">
<path id="Vector_38" d="M38.5118 108.65C40.3231 110.243 42.6172 111.264 44.2064 113.106C44.832 113.831 45.3939 114.602 45.9742 115.362C46.3967 115.915 47.5246 116.833 47.7079 117.528C47.7887 117.834 47.7716 117.42 47.6904 117.113C47.6871 117.1 47.6802 117.087 47.6765 117.074C47.5181 115.667 47.4041 114.253 47.3552 112.837C47.3058 111.425 47.394 110.007 47.3053 108.597C47.1806 106.608 46.5597 104.681 44.9336 103.435C44.139 102.826 43.1173 102.456 42.3869 101.779C41.6934 101.137 41.9713 100.402 42.3795 99.6868C42.7608 99.0173 43.2234 98.3589 43.3721 97.5879C43.5411 96.7116 43.2114 95.8081 42.7673 95.0615C41.8213 93.4737 39.7233 91.7027 37.7366 91.94C36.0796 92.138 35.8917 94.0495 35.9157 95.381C35.9388 96.6756 36.0667 97.966 36.0792 99.2615C36.0921 100.592 35.8659 101.898 35.8469 103.222C35.8146 105.476 36.8557 107.193 38.5118 108.65Z" fill="#6BAEFF"/>
<path id="Vector_39" d="M55.3409 129.325C55.8451 128.123 56.4236 126.998 57.135 125.905C58.1111 124.404 59.1937 122.942 59.8489 121.261C60.5183 119.546 60.42 117.71 60.486 115.904C60.5345 114.576 60.9288 113.252 60.8226 111.921C60.7718 111.282 60.4038 110.249 59.5779 110.355C58.9352 110.437 58.5534 111.234 58.3064 111.743C57.8751 112.63 57.5764 113.577 57.2565 114.508C57.1313 114.872 57.0122 115.242 56.8543 115.594C56.7624 115.799 56.4702 116.298 56.1941 116.229C55.725 116.113 56.1507 114.197 56.2209 113.858C56.5718 112.154 57.099 110.569 57.1724 108.815C57.2786 106.272 57.081 103.245 54.5934 101.854C53.9433 101.491 53.1197 101.275 52.5019 101.818C51.8925 102.354 51.7203 103.284 51.6298 104.049C51.3518 106.398 51.9049 108.622 52.6575 110.831C53.2789 112.656 54.0195 114.539 54.0735 116.49C54.1257 118.368 53.1483 120.032 52.6898 121.806C51.959 124.634 52.1099 126.133 52.1067 127.049C52.1021 128.196 52.1436 129.33 52.2277 130.475C52.3048 131.526 52.3957 132.578 52.5245 133.624C52.5504 133.836 52.5744 134.056 52.603 134.278C52.199 133.305 52.0578 132.191 51.723 131.213C51.1284 129.476 50.4381 127.774 49.8675 126.028C49.3961 124.586 48.9505 123.132 48.3282 121.746C47.7441 120.445 47.0391 119.069 45.95 118.114C45.2916 117.537 44.4938 117.199 43.6133 117.206C43.0501 117.21 42.544 117.406 42.0062 117.548C41.3446 117.722 40.8238 117.662 40.279 117.244C38.4963 115.874 37.9543 113.417 36.6343 111.682C35.65 110.388 33.3147 108.182 31.5972 109.593C30.6863 110.341 30.4351 111.788 30.4831 112.897C30.5432 114.288 31.1512 115.561 31.8752 116.724C32.6453 117.961 33.6393 119.069 34.3471 120.34C34.7654 121.091 34.8309 121.812 34.7645 122.659C34.7021 123.458 34.6324 124.231 34.9043 125.001C35.7216 127.314 38.2733 126.991 40.2577 127.052C41.6465 127.094 43.1364 127.3 44.4545 127.745C45.9781 128.258 46.9694 129.249 47.5142 130.757C47.9085 131.847 48.119 133.086 48.8614 134.013C49.2105 134.448 49.6726 134.77 50.1805 134.995C50.9548 135.337 53.314 135.486 53.3316 135.27C53.3902 134.549 53.7323 133.787 53.9466 133.103C54.3482 131.818 54.8205 130.566 55.3409 129.325Z" fill="#6BAEFF"/>
<path id="Vector_40" d="M66.2964 128.89C66.0914 127.568 66.1306 126.11 65.5045 124.896C65.4598 124.809 65.3411 124.787 65.2608 124.832C64.812 125.08 64.7935 125.805 64.7566 126.25C64.6961 126.986 64.7409 127.725 64.6504 128.46C64.4911 129.751 64.1929 131.081 63.7279 132.298C63.2021 133.675 62.245 134.455 60.8553 134.885C59.9619 135.161 59.0865 135.401 58.3409 135.994C57.6737 136.525 57.2102 137.256 56.8662 138.027C55.9382 140.108 55.4964 142.434 55.0665 144.657C54.777 146.154 54.5406 147.657 54.1773 149.139C53.8139 150.62 53.4243 152.093 53.2156 153.606C53.1805 153.683 53.1431 153.758 53.1108 153.835C53.0157 154.062 53.3693 154.184 53.4917 153.996C54.9262 151.788 56.6737 149.806 59.0579 148.59C60.1346 148.04 61.5649 147.927 62.4629 147.063C63.1462 146.407 63.2404 145.405 63.1379 144.512C63.0035 143.339 62.4412 142.373 61.8558 141.374C61.534 140.825 61.154 140.236 61.2837 139.569C61.4061 138.939 61.9296 138.477 62.449 138.154C63.4398 137.538 64.5992 137.262 65.4108 136.375C66.1648 135.55 66.5826 134.525 66.6662 133.416C66.7774 131.937 66.5226 130.351 66.2964 128.89Z" fill="#6BAEFF"/>
<path id="Vector_41" d="M46.7376 136.514C45.4717 134.883 43.9439 133.477 42.2246 132.335C41.3076 131.726 39.1432 130.524 38.7064 132.321C38.4507 133.374 39.4812 134.411 40.1594 135.071C41.1788 136.063 42.358 136.919 43.2181 138.062C42.153 138.402 41.0403 138.468 40.1151 139.204C39.0195 140.076 38.5282 141.759 39.6146 142.828C40.1437 143.348 40.8459 143.668 41.5048 143.987C42.3617 144.401 43.2343 144.777 44.1129 145.145C46.0096 145.937 47.9297 146.741 49.5475 148.038C51.1958 149.361 52.7452 151.597 52.8764 153.754C52.8888 153.96 52.8108 153.772 52.9336 153.679C53.0006 153.739 53.2268 153.631 53.2254 153.51C53.1917 150.309 52.6164 147.26 51.308 144.328C50.0956 141.609 48.566 138.869 46.7376 136.514Z" fill="#6BAEFF"/>
</g>
<g id="Group_49">
<path id="Vector_42" d="M42.361 106.709C43.0595 108.159 43.7899 109.575 44.5651 110.988C45.3112 112.349 46.0569 113.699 46.6151 115.151C47.3025 116.938 48.0232 118.699 48.7499 120.47C49.5053 122.311 50.1807 124.187 50.7223 126.103C51.7796 129.842 52.5649 133.69 52.9532 137.558C53.1508 139.524 53.2404 141.503 53.1864 143.479C53.1439 145.023 52.9698 146.551 52.8249 148.087C52.6739 149.685 52.5649 151.302 52.6988 152.906C52.8106 154.247 53.0239 155.841 54.0641 156.797C54.2677 156.985 54.5562 156.751 54.438 156.509C53.2016 153.973 53.2709 151.209 53.5073 148.459C53.6379 146.942 53.8189 145.431 53.8702 143.908C53.9353 141.969 53.8591 140.027 53.6767 138.096C53.318 134.301 52.5612 130.55 51.5797 126.87C51.076 124.982 50.4536 123.132 49.7357 121.315C49.0163 119.495 48.1857 117.724 47.4886 115.894C46.2277 112.585 44.3066 109.651 42.6052 106.567C42.5152 106.407 42.283 106.548 42.361 106.709Z" fill="#43588E"/>
</g>
<g id="Group_50">
<path id="Vector_43" d="M53.0097 133.766C53.2096 131.356 53.4234 129.036 54.2355 126.737C54.6146 125.665 55.0735 124.623 55.4391 123.546C55.7411 122.657 56.1931 121.437 55.9609 120.491C55.935 120.386 55.7813 120.391 55.7522 120.491C55.5966 121.031 55.6137 121.623 55.5015 122.177C55.3925 122.716 55.2466 123.246 55.079 123.769C54.7226 124.883 54.2567 125.95 53.8532 127.046C53.0734 129.164 52.6731 131.509 52.8435 133.766C52.8518 133.873 53.0009 133.873 53.0097 133.766Z" fill="#43588E"/>
</g>
<g id="Group_51">
<path id="Vector_44" d="M39.0452 119.92C40.0018 122.23 42.8768 122.363 44.9711 122.881C46.4665 123.25 47.5704 124.248 48.3636 125.543C49.2311 126.96 49.8184 128.624 50.3009 130.206C50.3064 130.224 50.3323 130.216 50.3286 130.198C49.7427 127.428 48.9033 124.093 46.0487 122.805C43.761 121.772 40.7461 122.29 39.2825 119.819C39.2105 119.698 38.987 119.78 39.0452 119.92Z" fill="#43588E"/>
</g>
<g id="Group_52">
<path id="Vector_45" d="M51.5 133.402C51.6136 133.555 51.7179 133.716 51.8357 133.867C51.8938 133.941 51.9529 134.012 52.0263 134.072C52.1016 134.133 52.1893 134.209 52.2923 134.207C52.3352 134.206 52.3657 134.159 52.3421 134.121C52.295 134.043 52.2096 133.997 52.1427 133.938C52.0743 133.878 52.0042 133.819 51.9377 133.755C51.8043 133.629 51.6814 133.491 51.5508 133.362C51.5259 133.337 51.4774 133.371 51.5 133.402Z" fill="#43588E"/>
</g>
<g id="Group_53">
<path id="Vector_46" d="M45.5173 140.731C47.1669 142.086 48.6891 143.688 49.8983 145.444C50.4763 146.283 51.0101 147.171 51.4939 148.068C52.0226 149.048 52.3693 150.083 52.7834 151.11C52.8148 151.188 52.957 151.19 52.9464 151.088C52.7174 148.916 51.3406 147.053 50.2386 145.245C49.6661 144.306 48.9541 143.548 48.1886 142.765C47.3978 141.956 46.5926 141.191 45.6655 140.539C45.5528 140.459 45.4092 140.642 45.5173 140.731Z" fill="#43588E"/>
</g>
<g id="Group_54">
<path id="Vector_47" d="M58.6568 138.173C57.8622 138.623 57.8363 139.879 57.8206 140.68C57.7906 142.22 58.172 143.666 57.4961 145.134C56.8857 146.459 55.9106 147.565 55.1437 148.796C54.4258 149.948 53.718 151.422 53.7342 152.808C53.7351 152.888 53.8579 152.933 53.8953 152.852C54.1843 152.222 54.2882 151.507 54.495 150.847C54.7277 150.105 55.0532 149.432 55.4738 148.779C56.2116 147.636 57.1175 146.595 57.7158 145.366C58.3465 144.07 58.2542 142.787 58.2126 141.382C58.1858 140.487 58.0963 139.049 58.8184 138.383C58.9319 138.278 58.787 138.099 58.6568 138.173Z" fill="#43588E"/>
</g>
</g>
<path id="Vector_48" d="M53.3426 152.951C50.1416 152.907 44.0449 152.872 44.0449 152.872L45.5537 164.074C45.8931 166.594 48.0441 168.475 50.5872 168.475H53.2161H53.4705H56.0994C58.6424 168.475 60.793 166.594 61.1328 164.074L62.6416 152.872C62.6407 152.872 56.5435 152.907 53.3426 152.951Z" fill="white"/>
</g>
<g id="Group_55">
<g id="Group_56">
<g id="Group_57">
<path id="Vector_49" d="M208.056 132.366L189.795 168.538L136.557 168.92L152.987 131.857L208.056 132.366Z" fill="#F6F7FA"/>
</g>
<g id="Group_58">
<path id="Vector_50" d="M101.227 168.694L101.237 165.799H135.701L151.557 131.028H206.674L208.059 132.366H154.216L137.738 168.665C137.738 168.665 101.227 168.598 101.227 168.694Z" fill="#D9DEE8"/>
</g>
<g id="Group_59">
<path id="Vector_51" d="M180.412 152.326C179.81 154.13 176.546 155.523 173.121 155.438C169.695 155.352 167.406 153.82 168.007 152.015C168.609 150.211 171.873 148.818 175.299 148.904C178.724 148.99 181.013 150.521 180.412 152.326Z" fill="#D9DEE8"/>
</g>
</g>
<g id="Group_60">
<path id="Vector_52" d="M137.736 168.896C137.704 168.896 137.671 168.89 137.64 168.876C137.524 168.823 137.473 168.686 137.526 168.57L154.064 132.136H208.057C208.184 132.136 208.287 132.239 208.287 132.367C208.287 132.494 208.184 132.597 208.057 132.597H154.362L137.945 168.761C137.907 168.846 137.823 168.896 137.736 168.896Z" fill="white"/>
</g>
</g>
<g id="Group_61">
<g id="Group_62">
<path id="Vector_53" d="M98.8211 171.436H35.4893V185.478H98.8211V171.436Z" fill="#596B9B"/>
<path id="Vector_54" d="M212.405 171.436H98.4585V185.478H212.405V171.436Z" fill="#7A89AF"/>
</g>
<path id="Vector_55" d="M98.8235 171.435H98.4615H35.4917V174.014H98.4615H98.8235H212.408V171.435H98.8235Z" fill="#BDC4D7"/>
<path id="Vector_56" d="M101.593 168.666H32.4346V172.104H101.593V168.666Z" fill="#6F7FA9"/>
<path id="Vector_57" d="M215.179 168.666H101.233V172.104H215.179V168.666Z" fill="#9CA6C3"/>
</g>
<g id="Group_63">
<path id="Vector_58" d="M82.8345 94.9922H60.4773C59.0936 94.9922 57.9722 93.8707 57.9722 92.487V81.326C57.9722 79.9423 59.0936 78.8208 60.4773 78.8208H82.8345C84.2182 78.8208 85.3397 79.9423 85.3397 81.326V92.487C85.3397 93.8707 84.2178 94.9922 82.8345 94.9922Z" fill="white"/>
<path id="Vector_59" d="M91.7113 86.9068L83.3145 83.3633V90.4499L91.7113 86.9068Z" fill="white"/>
<g id="Group_64">
<path id="Vector_60" d="M66.3514 88.4532C67.2056 88.4532 67.8981 87.7608 67.8981 86.9065C67.8981 86.0523 67.2056 85.3599 66.3514 85.3599C65.4972 85.3599 64.8047 86.0523 64.8047 86.9065C64.8047 87.7608 65.4972 88.4532 66.3514 88.4532Z" fill="#223A7A"/>
<path id="Vector_61" d="M71.6565 88.4532C72.5108 88.4532 73.2032 87.7608 73.2032 86.9065C73.2032 86.0523 72.5108 85.3599 71.6565 85.3599C70.8023 85.3599 70.1099 86.0523 70.1099 86.9065C70.1099 87.7608 70.8023 88.4532 71.6565 88.4532Z" fill="#223A7A"/>
<path id="Vector_62" d="M76.9583 88.4532C77.8125 88.4532 78.505 87.7608 78.505 86.9065C78.505 86.0523 77.8125 85.3599 76.9583 85.3599C76.1041 85.3599 75.4116 86.0523 75.4116 86.9065C75.4116 87.7608 76.1041 88.4532 76.9583 88.4532Z" fill="#223A7A"/>
</g>
</g>
<g id="Group_65">
<path id="Vector_63" d="M196.656 44.4849H145.042C141.727 44.4849 139.04 47.1719 139.04 50.4869V74.973C139.04 78.288 141.727 80.975 145.042 80.975H149.668C149.798 83.1949 149.48 86.4965 147.627 90.7182C153.589 87.9674 157.024 83.8371 158.817 80.975H196.656C199.971 80.975 202.659 78.288 202.659 74.973V50.4869C202.658 47.1719 199.971 44.4849 196.656 44.4849Z" fill="#60A8FF"/>
<path id="Vector_64" d="M174.636 56.1556H149.036C148.333 56.1556 147.762 55.5854 147.762 54.8817C147.762 54.1781 148.332 53.6079 149.036 53.6079H174.636C175.34 53.6079 175.91 54.1781 175.91 54.8817C175.91 55.5854 175.34 56.1556 174.636 56.1556Z" fill="white"/>
<path id="Vector_65" d="M192.993 63.5742H148.542C148.112 63.5742 147.762 63.2247 147.762 62.7939C147.762 62.3632 148.112 62.0137 148.542 62.0137H192.993C193.424 62.0137 193.773 62.3632 193.773 62.7939C193.773 63.2252 193.424 63.5742 192.993 63.5742Z" fill="#D2E6FF"/>
<path id="Vector_66" d="M192.993 67.9043H148.542C148.112 67.9043 147.762 67.5552 147.762 67.124C147.762 66.6933 148.112 66.3438 148.542 66.3438H192.993C193.424 66.3438 193.773 66.6933 193.773 67.124C193.773 67.5552 193.424 67.9043 192.993 67.9043Z" fill="#D2E6FF"/>
<path id="Vector_67" d="M183.297 72.521H148.542C148.112 72.521 147.762 72.1715 147.762 71.7407C147.762 71.31 148.112 70.9604 148.542 70.9604H183.297C183.727 70.9604 184.077 71.31 184.077 71.7407C184.077 72.1719 183.728 72.521 183.297 72.521Z" fill="#D2E6FF"/>
<path id="Vector_68" d="M192.644 56.1556H180.432C179.728 56.1556 179.158 55.5854 179.158 54.8817C179.158 54.1781 179.728 53.6079 180.432 53.6079H192.644C193.347 53.6079 193.918 54.1781 193.918 54.8817C193.917 55.5854 193.347 56.1556 192.644 56.1556Z" fill="white"/>
</g>
<g id="Group_66">
<path id="Vector_69" d="M161.87 112.466H148.003C147.493 112.466 147.08 112.053 147.08 111.543V102.07C147.08 101.56 147.493 101.146 148.003 101.146H161.87C162.38 101.146 162.793 101.56 162.793 102.07V111.543C162.793 112.052 162.38 112.466 161.87 112.466Z" fill="white"/>
<g id="Group_67">
<g id="Group_68">
<path id="Vector_70" d="M155.03 108.498C154.952 108.498 154.873 108.471 154.809 108.418L147.262 102.185C147.115 102.063 147.094 101.845 147.216 101.697C147.339 101.55 147.556 101.53 147.703 101.651L155.024 107.697L162.157 101.489C162.301 101.364 162.52 101.379 162.646 101.523C162.771 101.668 162.756 101.886 162.612 102.012L155.257 108.412C155.192 108.469 155.111 108.498 155.03 108.498Z" fill="#6F7FA9"/>
</g>
<g id="Group_69">
<path id="Vector_71" d="M147.483 112.208C147.397 112.208 147.312 112.177 147.245 112.113C147.106 111.981 147.1 111.762 147.233 111.623L152.511 106.074C152.641 105.936 152.862 105.93 153 106.062C153.139 106.194 153.145 106.413 153.012 106.552L147.734 112.101C147.666 112.172 147.575 112.208 147.483 112.208Z" fill="#6F7FA9"/>
</g>
<g id="Group_70">
<path id="Vector_72" d="M162.388 112.004C162.299 112.004 162.21 111.971 162.143 111.903L156.886 106.632C156.751 106.496 156.751 106.277 156.887 106.142C157.022 106.006 157.241 106.007 157.376 106.142L162.633 111.413C162.768 111.549 162.768 111.768 162.632 111.903C162.565 111.971 162.476 112.004 162.388 112.004Z" fill="#6F7FA9"/>
</g>
</g>
<g id="Group_71">
<g id="Group_72">
<path id="Vector_73" d="M163.511 105.429C166.069 105.429 168.143 103.355 168.143 100.796C168.143 98.2377 166.069 96.1636 163.511 96.1636C160.952 96.1636 158.878 98.2377 158.878 100.796C158.878 103.355 160.952 105.429 163.511 105.429Z" fill="#FF5F42"/>
</g>
<g id="Group_73">
<g id="Group_74">
<path id="Vector_74" d="M162.23 100.806L162.213 100.784C162.335 100.828 162.448 100.897 162.551 100.989C162.654 101.081 162.738 101.192 162.803 101.321C162.868 101.451 162.9 101.597 162.9 101.759C162.9 101.951 162.849 102.127 162.747 102.285C162.646 102.444 162.507 102.571 162.332 102.665C162.157 102.759 161.96 102.806 161.742 102.806C161.525 102.806 161.329 102.759 161.155 102.665C160.982 102.571 160.844 102.444 160.742 102.285C160.641 102.127 160.59 101.951 160.59 101.759C160.59 101.597 160.621 101.452 160.684 101.324C160.747 101.197 160.83 101.088 160.933 100.997C161.037 100.907 161.148 100.838 161.266 100.79L161.255 100.812C161.155 100.764 161.062 100.695 160.975 100.607C160.889 100.518 160.817 100.414 160.762 100.294C160.707 100.174 160.679 100.043 160.679 99.9031C160.679 99.7073 160.726 99.5319 160.82 99.3767C160.914 99.2216 161.043 99.0988 161.205 99.0083C161.368 98.9178 161.547 98.8726 161.743 98.8726C161.938 98.8726 162.117 98.9178 162.277 99.0083C162.438 99.0988 162.565 99.2216 162.66 99.3767C162.754 99.5319 162.801 99.7073 162.801 99.9031C162.801 100.043 162.774 100.173 162.721 100.291C162.667 100.409 162.596 100.513 162.51 100.601C162.422 100.69 162.33 100.758 162.23 100.806ZM161.742 102.585C162.02 102.585 162.243 102.507 162.413 102.352C162.583 102.197 162.667 101.999 162.667 101.759C162.667 101.597 162.625 101.452 162.54 101.324C162.455 101.197 162.342 101.097 162.203 101.025C162.062 100.953 161.909 100.917 161.743 100.917C161.58 100.917 161.429 100.953 161.289 101.025C161.148 101.097 161.035 101.197 160.951 101.324C160.865 101.452 160.823 101.597 160.823 101.759C160.823 101.999 160.908 102.197 161.076 102.352C161.243 102.507 161.465 102.585 161.742 102.585ZM160.911 99.9031C160.911 100.066 160.95 100.208 161.028 100.33C161.105 100.452 161.208 100.547 161.335 100.615C161.462 100.683 161.598 100.717 161.742 100.717C161.887 100.717 162.021 100.683 162.147 100.615C162.272 100.547 162.374 100.452 162.451 100.33C162.529 100.208 162.568 100.066 162.568 99.9031C162.568 99.663 162.491 99.4681 162.338 99.3186C162.185 99.169 161.986 99.0942 161.742 99.0942C161.495 99.0942 161.294 99.169 161.141 99.3186C160.988 99.4681 160.911 99.663 160.911 99.9031Z" fill="white"/>
<path id="Vector_75" d="M164.517 102.745C164.358 102.745 164.203 102.719 164.052 102.668C163.9 102.616 163.761 102.538 163.636 102.435C163.621 102.424 163.61 102.411 163.603 102.396C163.596 102.381 163.592 102.367 163.592 102.352C163.592 102.326 163.603 102.298 163.625 102.269C163.648 102.239 163.673 102.224 163.703 102.224C163.732 102.224 163.758 102.236 163.781 102.258C163.887 102.346 164.005 102.413 164.132 102.457C164.259 102.501 164.388 102.524 164.518 102.524C164.75 102.524 164.953 102.478 165.127 102.388C165.3 102.297 165.434 102.169 165.528 102.003C165.622 101.837 165.67 101.645 165.67 101.427C165.67 101.223 165.626 101.045 165.54 100.892C165.453 100.739 165.327 100.619 165.163 100.532C164.999 100.445 164.802 100.402 164.573 100.402C164.433 100.402 164.304 100.423 164.186 100.465C164.067 100.508 163.967 100.55 163.886 100.593C163.805 100.635 163.744 100.657 163.704 100.657C163.685 100.657 163.668 100.651 163.651 100.64C163.635 100.629 163.622 100.613 163.615 100.593C163.608 100.572 163.606 100.549 163.61 100.524L163.87 98.9999C163.873 98.9815 163.885 98.9612 163.906 98.939C163.926 98.9168 163.954 98.9058 163.992 98.9058H165.681C165.711 98.9058 165.737 98.9168 165.759 98.939C165.781 98.9612 165.792 98.9889 165.792 99.0221C165.792 99.0554 165.781 99.083 165.759 99.1052C165.737 99.1274 165.711 99.1385 165.681 99.1385H164.036L164.086 99.0886L163.831 100.468L163.72 100.44C163.779 100.404 163.856 100.366 163.95 100.327C164.044 100.288 164.152 100.255 164.271 100.227C164.391 100.199 164.52 100.186 164.656 100.186C164.893 100.186 165.103 100.237 165.288 100.341C165.472 100.444 165.62 100.587 165.729 100.77C165.837 100.953 165.892 101.166 165.892 101.41C165.892 101.676 165.836 101.909 165.723 102.108C165.61 102.308 165.452 102.464 165.247 102.576C165.041 102.689 164.798 102.745 164.517 102.745Z" fill="white"/>
</g>
</g>
</g>
</g>
<g id="Group_75">
<g id="Group_76">
<path id="Vector_76" d="M210.044 99.0899H182.979C181.959 99.0899 181.132 98.263 181.132 97.2431V93.0084C181.132 91.9885 181.959 91.1616 182.979 91.1616H210.044C211.064 91.1616 211.891 91.9885 211.891 93.0084V97.2431C211.891 98.263 211.064 99.0899 210.044 99.0899Z" fill="#223A7A"/>
</g>
<g id="Group_77">
<path id="Vector_77" d="M184.928 97.2049C184.807 97.2049 184.709 97.1615 184.636 97.0752C184.562 96.9888 184.529 96.8803 184.539 96.7506L184.656 95.7243C184.664 95.6984 184.66 95.6808 184.643 95.6721C184.625 95.6633 184.604 95.6679 184.578 95.685L183.733 96.2958C183.63 96.3739 183.521 96.402 183.408 96.3803C183.296 96.3591 183.205 96.2917 183.136 96.179C183.057 96.0405 183.043 95.9191 183.09 95.8152C183.137 95.7113 183.218 95.6379 183.33 95.5945L184.279 95.1656C184.305 95.1568 184.318 95.1439 184.318 95.1264C184.318 95.1093 184.305 95.0963 184.279 95.0871L183.33 94.6582C183.209 94.606 183.131 94.5243 183.097 94.4112C183.063 94.2985 183.075 94.1859 183.136 94.0732C183.205 93.9606 183.296 93.8936 183.409 93.8719C183.521 93.8507 183.63 93.8742 183.734 93.9435L184.578 94.5672C184.604 94.5848 184.626 94.5889 184.643 94.5802C184.66 94.5714 184.665 94.5543 184.656 94.528L184.539 93.5016C184.53 93.3719 184.565 93.2634 184.643 93.1766C184.721 93.0903 184.825 93.0469 184.955 93.0469C185.076 93.0469 185.176 93.0903 185.254 93.1766C185.332 93.2634 185.362 93.3714 185.344 93.5016L185.227 94.528C185.219 94.5538 185.223 94.5714 185.24 94.5802C185.257 94.5889 185.28 94.5848 185.305 94.5672L186.15 93.9564C186.254 93.8784 186.364 93.8502 186.481 93.8719C186.598 93.8936 186.687 93.961 186.748 94.0732C186.825 94.2122 186.841 94.3332 186.793 94.437C186.746 94.5409 186.665 94.6143 186.553 94.6577L185.605 95.0866C185.579 95.0954 185.565 95.1083 185.565 95.1259C185.565 95.1434 185.578 95.1564 185.605 95.1651L186.553 95.5941C186.674 95.6458 186.755 95.7284 186.793 95.8411C186.832 95.9537 186.817 96.0664 186.748 96.179C186.687 96.2917 186.598 96.3591 186.481 96.3803C186.364 96.402 186.254 96.378 186.15 96.3092L185.305 95.6855C185.28 95.6684 185.257 95.6638 185.24 95.6725C185.223 95.6813 185.219 95.6984 185.227 95.7247L185.344 96.7511C185.362 96.8808 185.329 96.9893 185.247 97.0756C185.164 97.1615 185.058 97.2049 184.928 97.2049Z" fill="white"/>
</g>
<g id="Group_78">
<path id="Vector_78" d="M190.533 97.2049C190.412 97.2049 190.314 97.1615 190.241 97.0752C190.167 96.9888 190.135 96.8803 190.144 96.7506L190.261 95.7243C190.269 95.6984 190.265 95.6808 190.248 95.6721C190.23 95.6633 190.209 95.6679 190.183 95.685L189.338 96.2958C189.235 96.3739 189.126 96.402 189.013 96.3803C188.901 96.3591 188.81 96.2917 188.74 96.179C188.662 96.0405 188.648 95.9191 188.695 95.8152C188.742 95.7113 188.823 95.6379 188.935 95.5945L189.884 95.1656C189.91 95.1568 189.923 95.1439 189.923 95.1264C189.923 95.1093 189.91 95.0963 189.884 95.0871L188.935 94.6582C188.814 94.606 188.736 94.5243 188.702 94.4112C188.668 94.2985 188.68 94.1859 188.741 94.0732C188.81 93.9606 188.901 93.8936 189.014 93.8719C189.126 93.8507 189.234 93.8742 189.339 93.9435L190.183 94.5672C190.209 94.5848 190.231 94.5889 190.248 94.5802C190.265 94.5714 190.27 94.5543 190.261 94.528L190.144 93.5016C190.135 93.3719 190.17 93.2634 190.248 93.1766C190.326 93.0903 190.43 93.0469 190.56 93.0469C190.681 93.0469 190.781 93.0903 190.859 93.1766C190.937 93.2634 190.967 93.3714 190.949 93.5016L190.832 94.528C190.824 94.5538 190.828 94.5714 190.845 94.5802C190.862 94.5889 190.885 94.5848 190.91 94.5672L191.755 93.9564C191.858 93.8784 191.969 93.8502 192.086 93.8719C192.203 93.8936 192.292 93.961 192.353 94.0732C192.43 94.2122 192.446 94.3332 192.398 94.437C192.35 94.5409 192.27 94.6143 192.158 94.6577L191.21 95.0866C191.184 95.0954 191.17 95.1083 191.17 95.1259C191.17 95.1434 191.183 95.1564 191.21 95.1651L192.158 95.5941C192.279 95.6458 192.36 95.7284 192.398 95.8411C192.437 95.9537 192.422 96.0664 192.353 96.179C192.292 96.2917 192.203 96.3591 192.086 96.3803C191.969 96.402 191.859 96.378 191.755 96.3092L190.91 95.6855C190.885 95.6684 190.862 95.6638 190.845 95.6725C190.828 95.6813 190.824 95.6984 190.832 95.7247L190.949 96.7511C190.967 96.8808 190.934 96.9893 190.852 97.0756C190.769 97.1615 190.663 97.2049 190.533 97.2049Z" fill="white"/>
</g>
<g id="Group_79">
<path id="Vector_79" d="M196.127 97.2049C196.006 97.2049 195.908 97.1615 195.835 97.0752C195.761 96.9888 195.728 96.8803 195.737 96.7506L195.855 95.7243C195.863 95.6984 195.859 95.6808 195.842 95.6721C195.824 95.6633 195.802 95.6679 195.777 95.685L194.932 96.2958C194.828 96.3739 194.72 96.402 194.607 96.3803C194.494 96.3591 194.403 96.2917 194.334 96.179C194.256 96.0405 194.241 95.9191 194.289 95.8152C194.336 95.7113 194.416 95.6379 194.529 95.5945L195.478 95.1656C195.504 95.1568 195.517 95.1439 195.517 95.1264C195.517 95.1093 195.504 95.0963 195.478 95.0871L194.529 94.6582C194.408 94.606 194.33 94.5243 194.295 94.4112C194.261 94.2985 194.274 94.1859 194.335 94.0732C194.404 93.9606 194.495 93.8936 194.608 93.8719C194.72 93.8507 194.828 93.8742 194.933 93.9435L195.777 94.5672C195.803 94.5848 195.825 94.5889 195.842 94.5802C195.859 94.5714 195.863 94.5543 195.855 94.528L195.738 93.5016C195.729 93.3719 195.764 93.2634 195.842 93.1766C195.92 93.0903 196.024 93.0469 196.154 93.0469C196.275 93.0469 196.374 93.0903 196.453 93.1766C196.531 93.2634 196.561 93.3714 196.543 93.5016L196.426 94.528C196.417 94.5538 196.422 94.5714 196.439 94.5802C196.456 94.5889 196.478 94.5848 196.504 94.5672L197.349 93.9564C197.453 93.8784 197.563 93.8502 197.68 93.8719C197.797 93.8936 197.886 93.961 197.947 94.0732C198.024 94.2122 198.039 94.3332 197.992 94.437C197.944 94.5409 197.864 94.6143 197.752 94.6577L196.803 95.0866C196.778 95.0954 196.764 95.1083 196.764 95.1259C196.764 95.1434 196.777 95.1564 196.803 95.1651L197.752 95.5941C197.873 95.6458 197.953 95.7284 197.992 95.8411C198.031 95.9537 198.016 96.0664 197.947 96.179C197.886 96.2917 197.797 96.3591 197.68 96.3803C197.563 96.402 197.453 96.378 197.349 96.3092L196.504 95.6855C196.478 95.6684 196.456 95.6638 196.439 95.6725C196.422 95.6813 196.417 95.6984 196.426 95.7247L196.543 96.7511C196.561 96.8808 196.528 96.9893 196.446 97.0756C196.362 97.1615 196.257 97.2049 196.127 97.2049Z" fill="white"/>
</g>
<g id="Group_80">
<path id="Vector_80" d="M201.726 97.2049C201.605 97.2049 201.507 97.1615 201.434 97.0752C201.36 96.9888 201.328 96.8803 201.336 96.7506L201.454 95.7243C201.462 95.6984 201.458 95.6808 201.441 95.6721C201.423 95.6633 201.402 95.6679 201.376 95.685L200.531 96.2958C200.427 96.3739 200.319 96.402 200.206 96.3803C200.094 96.3591 200.003 96.2917 199.933 96.179C199.855 96.0405 199.841 95.9191 199.888 95.8152C199.935 95.7113 200.016 95.6379 200.128 95.5945L201.077 95.1656C201.103 95.1568 201.116 95.1439 201.116 95.1264C201.116 95.1093 201.103 95.0963 201.077 95.0871L200.128 94.6582C200.007 94.606 199.929 94.5243 199.895 94.4112C199.86 94.2985 199.873 94.1859 199.934 94.0732C200.003 93.9606 200.094 93.8936 200.207 93.8719C200.319 93.8507 200.427 93.8742 200.532 93.9435L201.376 94.5672C201.402 94.5848 201.424 94.5889 201.441 94.5802C201.458 94.5714 201.462 94.5543 201.454 94.528L201.337 93.5016C201.328 93.3719 201.363 93.2634 201.441 93.1766C201.519 93.0903 201.623 93.0469 201.753 93.0469C201.874 93.0469 201.974 93.0903 202.052 93.1766C202.13 93.2634 202.16 93.3714 202.142 93.5016L202.025 94.528C202.017 94.5538 202.021 94.5714 202.038 94.5802C202.055 94.5889 202.077 94.5848 202.103 94.5672L202.948 93.9564C203.051 93.8784 203.162 93.8502 203.279 93.8719C203.396 93.8936 203.485 93.961 203.546 94.0732C203.623 94.2122 203.638 94.3332 203.591 94.437C203.543 94.5409 203.463 94.6143 203.351 94.6577L202.403 95.0866C202.377 95.0954 202.363 95.1083 202.363 95.1259C202.363 95.1434 202.376 95.1564 202.403 95.1651L203.351 95.5941C203.472 95.6458 203.553 95.7284 203.591 95.8411C203.63 95.9537 203.615 96.0664 203.546 96.179C203.485 96.2917 203.396 96.3591 203.279 96.3803C203.162 96.402 203.052 96.378 202.948 96.3092L202.103 95.6855C202.077 95.6684 202.055 95.6638 202.038 95.6725C202.021 95.6813 202.017 95.6984 202.025 95.7247L202.142 96.7511C202.16 96.8808 202.127 96.9893 202.045 97.0756C201.962 97.1615 201.856 97.2049 201.726 97.2049Z" fill="white"/>
</g>
<g id="Group_81">
<path id="Vector_81" d="M207.325 97.2049C207.203 97.2049 207.106 97.1615 207.033 97.0752C206.959 96.9888 206.926 96.8803 206.935 96.7506L207.052 95.7243C207.061 95.6984 207.057 95.6808 207.039 95.6721C207.022 95.6633 207 95.6679 206.974 95.685L206.13 96.2958C206.026 96.3739 205.918 96.402 205.805 96.3803C205.692 96.3591 205.601 96.2917 205.532 96.179C205.454 96.0405 205.439 95.9191 205.486 95.8152C205.534 95.7113 205.614 95.6379 205.727 95.5945L206.676 95.1656C206.701 95.1568 206.715 95.1439 206.715 95.1264C206.715 95.1093 206.702 95.0963 206.676 95.0871L205.727 94.6582C205.605 94.606 205.527 94.5243 205.493 94.4112C205.459 94.2985 205.472 94.1859 205.532 94.0732C205.602 93.9606 205.693 93.8936 205.805 93.8719C205.918 93.8507 206.026 93.8742 206.13 93.9435L206.975 94.5672C207.001 94.5848 207.022 94.5889 207.04 94.5802C207.057 94.5714 207.061 94.5543 207.053 94.528L206.936 93.5016C206.927 93.3719 206.961 93.2634 207.04 93.1766C207.118 93.0903 207.222 93.0469 207.352 93.0469C207.473 93.0469 207.572 93.0903 207.65 93.1766C207.728 93.2634 207.759 93.3714 207.741 93.5016L207.624 94.528C207.615 94.5538 207.619 94.5714 207.637 94.5802C207.654 94.5889 207.676 94.5848 207.702 94.5672L208.546 93.9564C208.65 93.8784 208.761 93.8502 208.878 93.8719C208.995 93.8936 209.083 93.961 209.144 94.0732C209.222 94.2122 209.237 94.3332 209.19 94.437C209.142 94.5409 209.062 94.6143 208.949 94.6577L208.001 95.0866C207.975 95.0954 207.961 95.1083 207.961 95.1259C207.961 95.1434 207.974 95.1564 208.001 95.1651L208.949 95.5941C209.07 95.6458 209.151 95.7284 209.19 95.8411C209.229 95.9537 209.214 96.0664 209.144 96.179C209.083 96.2917 208.995 96.3591 208.878 96.3803C208.761 96.402 208.65 96.378 208.546 96.3092L207.702 95.6855C207.676 95.6684 207.654 95.6638 207.637 95.6725C207.619 95.6813 207.615 95.6984 207.624 95.7247L207.741 96.7511C207.758 96.8808 207.726 96.9893 207.644 97.0756C207.561 97.1615 207.454 97.2049 207.325 97.2049Z" fill="#67ACFF"/>
</g>
</g>
</g>
</g>
</svg>
