<svg width="31" height="32" viewBox="0 0 31 32" fill="none" xmlns="http://www.w3.org/2000/svg">
<g id="person">
<mask id="mask0_2305_1444" style="mask-type:alpha" maskUnits="userSpaceOnUse" x="0" y="0" width="31" height="32">
<rect id="Bounding box" x="0.211426" y="0.778564" width="30.4679" height="30.4679" fill="#D9D9D9"/>
</mask>
<g mask="url(#mask0_2305_1444)">
<path id="person_2" d="M15.4455 16.0124C14.0491 16.0124 12.8536 15.5152 11.8592 14.5208C10.8648 13.5263 10.3675 12.3309 10.3675 10.9344C10.3675 9.53799 10.8648 8.34255 11.8592 7.34811C12.8536 6.35367 14.0491 5.85645 15.4455 5.85645C16.842 5.85645 18.0374 6.35367 19.0319 7.34811C20.0263 8.34255 20.5235 9.53799 20.5235 10.9344C20.5235 12.3309 20.0263 13.5263 19.0319 14.5208C18.0374 15.5152 16.842 16.0124 15.4455 16.0124ZM5.28955 26.1684V22.6138C5.28955 21.8944 5.47469 21.2332 5.84496 20.6302C6.21523 20.0272 6.70716 19.567 7.32075 19.2496C8.63256 18.5937 9.96553 18.1018 11.3197 17.7739C12.6738 17.4459 14.0491 17.2819 15.4455 17.2819C16.842 17.2819 18.2173 17.4459 19.5714 17.7739C20.9255 18.1018 22.2585 18.5937 23.5703 19.2496C24.1839 19.567 24.6758 20.0272 25.0461 20.6302C25.4164 21.2332 25.6015 21.8944 25.6015 22.6138V26.1684H5.28955ZM7.82855 23.6294H23.0625V22.6138C23.0625 22.3811 23.0043 22.1695 22.888 21.9791C22.7716 21.7886 22.6182 21.6405 22.4278 21.5347C21.2852 20.9635 20.1321 20.535 18.9684 20.2494C17.8047 19.9637 16.6304 19.8209 15.4455 19.8209C14.2607 19.8209 13.0864 19.9637 11.9227 20.2494C10.759 20.535 9.60584 20.9635 8.4633 21.5347C8.27287 21.6405 8.11947 21.7886 8.0031 21.9791C7.88673 22.1695 7.82855 22.3811 7.82855 22.6138V23.6294ZM15.4455 13.4734C16.1438 13.4734 16.7415 13.2248 17.2387 12.7276C17.7359 12.2304 17.9845 11.6327 17.9845 10.9344C17.9845 10.2362 17.7359 9.63849 17.2387 9.14127C16.7415 8.64405 16.1438 8.39544 15.4455 8.39544C14.7473 8.39544 14.1496 8.64405 13.6524 9.14127C13.1551 9.63849 12.9065 10.2362 12.9065 10.9344C12.9065 11.6327 13.1551 12.2304 13.6524 12.7276C14.1496 13.2248 14.7473 13.4734 15.4455 13.4734Z" fill="#030229"/>
</g>
</g>
</svg>
