<svg width="15" height="15" viewBox="0 0 15 15" fill="none" xmlns="http://www.w3.org/2000/svg">
<path d="M4.09558 9.90045C3.55603 9.8879 3.10801 10.3081 3.07349 10.9043C3.04363 11.4191 3.56435 11.9282 4.08591 11.9306C4.62706 11.9332 5.09493 11.462 5.09586 10.9136C5.09671 10.349 4.65395 9.90045 4.09558 9.90045ZM4.10253 11.2343C3.91084 11.2388 3.76189 11.0973 3.76138 10.9102C3.76087 10.7135 3.89294 10.5757 4.08803 10.5695C4.26742 10.5638 4.42934 10.7161 4.43375 10.8947C4.43816 11.0733 4.28515 11.2301 4.10253 11.2343Z" fill="#4C4C61"/>
<path d="M6.42256 3.78946C6.93766 3.7931 7.45283 3.79141 7.96793 3.79141C7.96793 3.79183 7.96793 3.79225 7.96793 3.79276C8.44164 3.79276 8.91536 3.79412 9.38907 3.79175C9.49802 3.79124 9.60757 3.7831 9.71568 3.76962C9.91001 3.74528 10.0317 3.62327 10.0232 3.43563C10.0151 3.25418 9.90857 3.12929 9.69618 3.12776C9.29928 3.12488 8.90238 3.10182 8.50566 3.10428C7.75375 3.10903 7.00159 3.11623 6.2507 3.14939C6.152 3.15371 5.98421 3.3171 5.98438 3.40655C5.98463 3.52068 6.11181 3.64557 6.20737 3.74342C6.25044 3.78725 6.34905 3.78886 6.42256 3.78946Z" fill="#4C4C61"/>
<path d="M9.68573 6.4981C8.55787 6.49658 7.4301 6.49649 6.30224 6.49827C6.10171 6.49861 5.92035 6.65963 5.91992 6.82615C5.91933 7.03863 6.05414 7.15776 6.30487 7.15844C6.86456 7.16005 7.42425 7.15895 7.98394 7.15895C8.55211 7.15895 9.12028 7.16005 9.68845 7.15844C9.93688 7.15768 10.0712 7.03566 10.068 6.82166C10.0653 6.65183 9.88956 6.49836 9.68573 6.4981Z" fill="#4C4C61"/>
<path d="M8.89977 9.89821C7.82515 9.8921 7.42877 9.89499 6.35415 9.89736C6.08554 9.89796 5.92614 10.0216 5.92385 10.2206C5.92156 10.4249 6.10072 10.5683 6.36289 10.5687C6.90452 10.5695 7.44623 10.569 7.98786 10.569C8.55493 10.569 8.44411 10.5804 9.01042 10.5595C9.12666 10.5552 9.28683 10.4537 9.33796 10.3523C9.38383 10.2612 9.3483 10.0674 9.27428 9.99428C9.19449 9.91525 9.02839 9.89897 8.89977 9.89821Z" fill="#4C4C61"/>
<path d="M4.98218 6.51587C4.85622 6.52351 4.70838 6.62504 4.62101 6.72903C4.36825 7.02963 4.14093 7.35169 3.90114 7.66867C3.79809 7.58181 3.70758 7.4925 3.60444 7.42167C3.45261 7.31734 3.27491 7.3159 3.18687 7.47757C3.12682 7.58783 3.10604 7.79259 3.16991 7.88275C3.31894 8.09345 3.51988 8.27182 3.7181 8.44206C3.90004 8.59838 4.0729 8.56166 4.22142 8.36869C4.52924 7.96876 4.81949 7.55323 5.15326 7.17646C5.28541 7.02726 5.34919 6.88425 5.28125 6.73056C5.23638 6.62911 5.08091 6.50985 4.98218 6.51587Z" fill="#4C4C61"/>
<path d="M3.61245 4.96724C3.80957 5.14332 4.00356 5.12135 4.16226 4.91142C4.47584 4.49648 4.78492 4.07806 5.10215 3.66592C5.23549 3.49263 5.25364 3.26786 5.12395 3.16794C5.00978 3.07998 4.75812 3.14835 4.63954 3.3017C4.39348 3.62012 4.14852 3.93938 3.89211 4.27247C3.81585 4.20725 3.75096 4.15534 3.69006 4.0991C3.49294 3.91691 3.33721 3.9035 3.1864 4.05822C3.05366 4.19444 3.059 4.41243 3.21261 4.57833C3.33891 4.71447 3.47386 4.84348 3.61245 4.96724Z" fill="#4C4C61"/>
<path d="M6.2366 8.52866C6.55805 8.54103 6.88068 8.54095 7.20213 8.52866C7.40279 8.52094 7.51239 8.37633 7.50604 8.19178C7.49985 8.01325 7.40338 7.87109 7.18933 7.87169C7.03683 7.87211 6.88433 7.87177 6.73183 7.87177C6.57085 7.87177 6.40987 7.87347 6.24898 7.87135C6.03196 7.86847 5.93838 8.01834 5.93194 8.19076C5.92515 8.37056 6.03536 8.52086 6.2366 8.52866Z" fill="#4C4C61"/>
<path d="M6.27562 5.12417C6.42702 5.11663 6.57909 5.12273 6.73092 5.12273C6.87426 5.12273 7.0177 5.12477 7.16096 5.12222C7.36695 5.11866 7.53734 4.97337 7.5225 4.79026C7.50716 4.6019 7.38416 4.47543 7.19682 4.46644C6.87715 4.4511 6.5551 4.44703 6.23611 4.46865C6.05487 4.48094 5.91043 4.61275 5.92941 4.80332C5.9473 4.9821 6.04674 5.13553 6.27562 5.12417Z" fill="#4C4C61"/>
<path d="M7.13225 11.2422C6.99849 11.2288 6.86226 11.2397 6.72714 11.2397C6.72714 11.2394 6.72714 11.2391 6.72714 11.2388C6.59244 11.2388 6.45672 11.2279 6.32329 11.2412C6.11467 11.2621 5.96624 11.3818 5.96878 11.595C5.97124 11.7954 6.11476 11.9182 6.31371 11.9289C6.58303 11.9434 6.85412 11.944 7.12352 11.9313C7.33511 11.9213 7.47998 11.7921 7.47685 11.5795C7.47405 11.3799 7.33079 11.2623 7.13225 11.2422Z" fill="#4C4C61"/>
<path d="M8.61427 13.4701C6.63623 13.4714 4.65819 13.4715 2.68015 13.4689C2.17371 13.4683 1.89094 13.17 1.89086 12.6604C1.8906 10.947 1.89077 9.23366 1.89077 7.52025C1.89077 5.80684 1.8906 4.09351 1.89086 2.3801C1.89094 1.86314 2.18321 1.56197 2.70313 1.56146C5.21322 1.55892 7.72339 1.55875 10.2335 1.56138C10.7554 1.56197 11.0531 1.85966 11.0534 2.37764C11.0543 4.06756 11.0533 5.75749 11.0534 7.44742H11.7118C11.7118 5.70484 11.7122 3.96226 11.7106 2.21976C11.7105 2.11971 11.707 2.01559 11.6805 1.92012C11.5073 1.29684 11.0021 0.91342 10.3332 0.911046C9.38457 0.907655 8.43587 0.921305 7.48726 0.919779C5.84244 0.917151 4.19754 0.902228 2.55272 0.90562C1.90756 0.906891 1.34185 1.36746 1.25155 1.99142C1.19499 2.38239 1.2245 2.78649 1.22442 3.18474C1.22391 6.37373 1.22026 9.56264 1.2301 12.7516C1.23264 13.5713 1.81192 14.1294 2.62894 14.1306C4.62411 14.1337 6.61919 14.1337 8.61435 14.132L8.61427 13.4701Z" fill="#4C4C61"/>
<mask id="mask0_44_1040" style="mask-type:luminance" maskUnits="userSpaceOnUse" x="7" y="7" width="9" height="9">
<path d="M15.3631 15.1423H7.27539V7.05461H15.3631V15.1423Z" fill="white"/>
</mask>
<g mask="url(#mask0_44_1040)">
<path d="M13.2744 8.41324H9.36489C9.27128 8.41324 9.19531 8.33727 9.19531 8.24366C9.19531 8.15005 9.27128 8.07408 9.36489 8.07408H13.2744C13.3681 8.07408 13.444 8.15005 13.444 8.24366C13.444 8.33727 13.3681 8.41324 13.2744 8.41324Z" fill="#4C4C61"/>
<path d="M13.2744 14.1233H9.36489C9.27128 14.1233 9.19531 14.0473 9.19531 13.9537C9.19531 13.8601 9.27128 13.7841 9.36489 13.7841H13.2744C13.3681 13.7841 13.444 13.8601 13.444 13.9537C13.444 14.0473 13.3681 14.1233 13.2744 14.1233Z" fill="#4C4C61"/>
<path d="M12.2114 9.84622C11.6906 9.84622 11.2713 9.66161 11.2537 9.65381C11.2502 9.65234 10.8803 9.4909 10.4343 9.4909C10.2548 9.4909 10.0597 9.51769 9.86977 9.56857C9.77865 9.5931 9.68628 9.53906 9.66209 9.44862C9.63778 9.35806 9.6916 9.26514 9.78204 9.24094C10.0033 9.1817 10.2227 9.15163 10.4343 9.15163C10.9553 9.15163 11.3745 9.33625 11.392 9.34405C11.3954 9.34552 11.7655 9.50695 12.2114 9.50695C12.3589 9.50695 12.513 9.48954 12.6695 9.45518C12.7606 9.43483 12.8513 9.49282 12.8714 9.58439C12.8915 9.67585 12.8336 9.76629 12.7422 9.7863C12.562 9.82621 12.3835 9.84622 12.2114 9.84622Z" fill="#4C4C61"/>
<path d="M10.0822 14.1234C10.0438 14.1234 10.0051 14.1104 9.97337 14.0838C9.70091 13.8553 9.55078 13.5567 9.55078 13.2429C9.55078 12.4982 10.3544 11.7605 11.2051 10.9795C11.9643 10.2824 12.7496 9.56172 12.7496 8.96605C12.7496 8.74989 12.6398 8.53385 12.4483 8.37343C12.3765 8.31328 12.367 8.20634 12.4272 8.13455C12.4873 8.06265 12.5944 8.05326 12.666 8.11341C12.9346 8.33849 13.0887 8.64928 13.0887 8.96605C13.0887 9.71072 12.2852 10.4485 11.4344 11.2295C10.6752 11.9265 9.88994 12.6472 9.88994 13.2429C9.88994 13.4547 9.997 13.6609 10.1913 13.8238C10.263 13.8839 10.2725 13.991 10.2124 14.0628C10.1788 14.1027 10.1306 14.1234 10.0822 14.1234Z" fill="#4C4C61"/>
<path d="M10.0881 14.1241C10.0803 14.1241 10.0725 14.1237 10.0644 14.1224L10.0585 14.1217C9.96552 14.1085 9.90065 14.0224 9.9138 13.9294C9.92696 13.8364 10.0141 13.7717 10.106 13.7847C10.199 13.7979 10.2667 13.8843 10.2537 13.9773C10.2417 14.0623 10.1711 14.1241 10.0881 14.1241Z" fill="#4C4C61"/>
<path d="M12.5562 14.124C12.4731 14.124 12.4007 14.063 12.3886 13.9784C12.3148 13.4591 11.5874 13.0452 11.325 13.0452C11.0626 13.0452 10.3352 13.4591 10.2614 13.9784C10.2482 14.0712 10.1617 14.1348 10.0696 14.1224C9.97685 14.1092 9.91241 14.0233 9.92552 13.9306C10.0263 13.2231 10.9056 12.706 11.325 12.706C11.7444 12.706 12.6237 13.2231 12.7245 13.9306C12.7376 14.0233 12.6731 14.1092 12.5804 14.1224C12.5723 14.1235 12.5642 14.124 12.5562 14.124Z" fill="#4C4C61"/>
<path d="M12.5507 14.1242C12.4674 14.1242 12.3945 14.0629 12.3826 13.9778C12.3694 13.8848 12.4343 13.7987 12.5273 13.7856C12.6212 13.7721 12.7093 13.8369 12.7223 13.9298C12.7355 14.0228 12.6737 14.1084 12.5806 14.1216L12.5747 14.1224C12.5667 14.1238 12.5587 14.1242 12.5507 14.1242Z" fill="#4C4C61"/>
<path d="M12.5573 14.1234C12.5089 14.1234 12.4607 14.1028 12.4272 14.0626C12.367 13.9909 12.3765 13.8839 12.4483 13.8238C12.6426 13.661 12.7496 13.4548 12.7496 13.2429C12.7496 12.6472 11.9643 11.9264 11.2051 11.2295C10.3544 10.4485 9.55078 9.71083 9.55078 8.96604C9.55078 8.64927 9.70487 8.33861 9.97337 8.11341C10.0453 8.05326 10.1522 8.06276 10.2124 8.13444C10.2725 8.20622 10.263 8.31317 10.1913 8.37343C9.99982 8.53385 9.88994 8.74989 9.88994 8.96604C9.88994 9.56171 10.6752 10.2825 11.4344 10.9795C12.2852 11.7605 13.0887 12.4981 13.0887 13.2429C13.0887 13.5569 12.9386 13.8554 12.666 14.0838C12.6344 14.1104 12.5957 14.1234 12.5573 14.1234Z" fill="#4C4C61"/>
<path d="M11.3203 11.9785C11.2265 11.9785 11.1504 11.9024 11.1504 11.8086V11.0965C11.1504 11.0027 11.2265 10.9266 11.3203 10.9266C11.4141 10.9266 11.4902 11.0027 11.4902 11.0965V11.8086C11.4902 11.9025 11.4141 11.9785 11.3203 11.9785Z" fill="#4C4C61"/>
<path d="M11.3201 13.0452C11.2264 13.0452 11.1504 12.9691 11.1504 12.8755V12.5197C11.1504 12.4261 11.2264 12.35 11.3201 12.35C11.4138 12.35 11.4898 12.4261 11.4898 12.5197V12.8755C11.4898 12.9691 11.4138 13.0452 11.3201 13.0452Z" fill="#4C4C61"/>
</g>
</svg>
