<svg width="27" height="28" viewBox="0 0 27 28" fill="none" xmlns="http://www.w3.org/2000/svg">
<path d="M3.26343 27.4656C2.44884 27.4656 1.75149 27.1756 1.1714 26.5955C0.591315 26.0154 0.30127 25.318 0.30127 24.5034V3.76831C0.30127 2.95372 0.591315 2.25638 1.1714 1.67629C1.75149 1.0962 2.44884 0.806152 3.26343 0.806152H23.9986C24.8132 0.806152 25.5105 1.0962 26.0906 1.67629C26.6707 2.25638 26.9607 2.95372 26.9607 3.76831V24.5034C26.9607 25.318 26.6707 26.0154 26.0906 26.5955C25.5105 27.1756 24.8132 27.4656 23.9986 27.4656H3.26343ZM3.26343 24.5034H12.1499V3.76831H3.26343V24.5034ZM15.1121 24.5034H23.9986V14.1359H15.1121V24.5034ZM15.1121 11.1737H23.9986V3.76831H15.1121V11.1737Z" fill="#4C4C61"/>
</svg>
